<svg xmlns="http://www.w3.org/2000/svg" width="59.41" height="59" viewBox="0 0 59.41 59">
    <path fill="#264796" fill-rule="evenodd" d="M37.33.91A32.34 32.34 0 0 0 31.05 0h-2.64a31.13 31.13 0 0 0-15.69 5H33.1c3 0 5.5-1.11 5.5-2.49 0-.62-.47-1.16-1.27-1.6ZM53.6 13a31.66 31.66 0 0 0-4.17-5h-38a10.62 10.62 0 0 0-2.11.21 31.91 31.91 0 0 0-2.76 3.15c.73 1 2.64 1.64 4.87 1.64Zm3.62 6.15a28.52 28.52 0 0 0-1.64-3.89 9.92 9.92 0 0 0-2.25-.26H3.53a33.42 33.42 0 0 0-2.06 5h51.86a8.52 8.52 0 0 0 3.89-.85ZM59.41 28a34.58 34.58 0 0 0-.64-5H6.3c-2.87 0-5.19 1.12-5.19 2.5S3.43 28 6.3 28h53.11ZM0 31a30.87 30.87 0 0 0 .61 5h51.47c2.86 0 5.19-1.12 5.19-2.5S54.94 31 52.08 31Zm54.66 12a31.26 31.26 0 0 0 2-5H6.6c-2.87 0-5.19 1.11-5.19 2.49v.07c.12.29.22.57.34.83.76.94 2.64 1.61 4.82 1.61Zm-2.77 7c.39-.39.78-.8 1.14-1.22a1.08 1.08 0 0 0 .06-.33c0-1.38-2.47-2.49-5.5-2.49H3.87A31.79 31.79 0 0 0 8.2 51h39.39a8.77 8.77 0 0 0 4.3-1Zm-18.6 9a31 31 0 0 0 13.33-5h-20.8c-3 0-5.5 1.11-5.5 2.49 0 .88 1 1.63 2.49 2.1.75.15 1.51.28 2.26.38a6 6 0 0 0 .75 0Z"/>
</svg>