<svg xmlns="http://www.w3.org/2000/svg" xml:space="preserve" id="Слой_1" x="0" y="0" style="enable-background:new 0 0 1920 816" version="1.1" viewBox="0 0 1920 816"><style>.st1{fill-rule:evenodd;clip-rule:evenodd;fill:#fff}</style><path d="M1134 186c-144-75-315-96-394-8 0 0-7 4 4 0 10-5 136-96 390 31v13c-29-14-55-22-84-30-124-34-178 35-190 67-5 11 112 86 180 107 128 41 137-71 29-106-32-10-70-5-68 20 2 26 38 44 53 47 27 6 41 2 40-9 0-1 2-11-7-19-6-6-37-25-50-5l-9-11c2-10 23-20 62 1l18 15c9 11 9 22 9 25 1 23-28 29-58 22-57-13-94-50-96-80-4-53 68-53 127-34 142 47 289 206 279 218-66 79-205 247-204 256 1 15-622-419-621-425 14-303 405-204 590-110v15z" style="fill-rule:evenodd;clip-rule:evenodd;fill:#9ed0b1"/><path d="M1563 478v-56h-30v56h30zm0 143V504h-30v117h-30V434a41 41 0 0 1 13-31l15-9a48 48 0 0 1 49 9l10 14c2 5 3 11 3 17v187h-30zM487 377c-4-19 19-46 51-59 33-12 62-7 66 12 4 20-19 46-52 59-32 13-61 8-65-12zm508 15v191c2-7 8-16 16-26l154-173 158 237-97-1-87-132c-1-1-28 32-55 66-9 11 1 28 1 28 1 22-15 42-52 42-16 0-33-8-38-22v19h-80V484c0-12-4-15-11-15-6 0-9 5-9 7v38c-1 92-68 109-109 109-109 0-118-89-116-117v-77l80-35v123c0 44 38 41 49 34 27-14 20-73-7-73l203-86zm-345 3v226h-83v-22c-6 7-23 21-52 21-94 0-135-53-135-114v-81l82-30v82c-2 48 11 74 53 74 34 0 52-16 52-35v-85l83-36zM305 585H185c1 2 2-3 2-3 1 22-15 42-52 42-28 0-58-29-22-67l154-173 158 237-97-1-23-35zm-98-51 64-1c-14-20-22-35-26-42-1-1-17 18-38 43zm1214 58h30v-85h-30v85zm61-85v73c0 6-2 11-4 17a47 47 0 0 1-24 21c-6 2-11 3-18 3h-44V436c0-6 1-11 3-17 2-5 5-9 9-13l15-10c5-2 11-3 17-3h41v29h-56v56h30c9 0 16 3 22 9 5 5 9 12 9 20zm342-114v57c0 6-1 12-3 17l-10 14c-4 3-16 12-23 12 6 0 19 8 23 12s7 8 10 14c2 5 3 10 3 16v86h-30v-86c0-8-1-15-5-20-3-5-6-8-10-8h-15v114h-30V393h30v86l15-1c4 0 7-2 11-8 3-5 4-12 4-20v-57h30zm-206 0h30v86h30v-86h30v228h-30V507h-30v114h-30V393z" style="fill-rule:evenodd;clip-rule:evenodd;fill:#237e44"/></svg>