<svg xmlns="http://www.w3.org/2000/svg" width="40" height="40" fill="none"><path fill="#7A66A8" d="M14.08 23.62v-1.06a9.85 9.85 0 0 0-3.91-.78c-2.62 0-4.24 1.02-4.24 2.98 0 1.6 1.37 2.54 3.35 2.54 2.87 0 4.8-1.52 4.8-3.68ZM0 24.92c0-4.59 3.58-6.7 8.7-6.7 2.18 0 3.75.34 5.28.85v-.35c0-2.47-1.57-3.84-4.63-3.84-2.34 0-4 .44-5.97 1.13l-1.53-4.54a19.5 19.5 0 0 1 8.38-1.69c3.35 0 5.77.86 7.3 2.36 1.62 1.57 2.34 3.87 2.34 6.7v12.19h-5.93v-2.28c-1.49 1.61-3.54 2.67-6.53 2.67-4.07 0-7.41-2.27-7.41-6.5Zm26.12 7.69c5.45-3.7 7.78-7.3 7.78-12.83s-2.34-9.14-7.78-12.82L28.83 3c7.42 3.92 11.18 9.26 11.18 16.78 0 7.52-3.76 12.85-11.18 16.77l-2.7-3.94Z"/></svg>