<svg xmlns="http://www.w3.org/2000/svg" viewBox="0 0 37.9 37.9"><path fill="#0056c1" fill-rule="evenodd" d="M7.1 19A16.3 16.3 0 0 1 4.6 7.3a3.4 3.4 0 0 1 2.8-2.7 14 14 0 0 1 4-.2c-.7 1-1 2.1-1.5 3.2a8 8 0 0 0-2 .2c-.8 2.7.2 7.2 3 11H7Z"/><path fill="#0056c1" fill-rule="evenodd" d="M10.6 10.6c.9-3.9 3-7.6 6.4-10 1.2-.7 2.8-.7 4 .1 1 .8 1.7 1.4 2.8 2.7-1.2.3-2.2.8-3.2 1.3a7.8 7.8 0 0 0-1.7-1.4c-2.4 1.4-5 5.3-5.6 10l-2.7-2.7Z"/><path fill="#0056c1" fill-rule="evenodd" d="M19 7.2c3.4-2.1 7.4-3.3 11.5-2.5C32 4.9 33 6 33.3 7.5c.2 1.2.3 2.1.1 4-1-.7-2.1-1.1-3.2-1.5L30 8c-2.7-.8-7.3.1-11 3V7.1Z"/><path fill="#0056c1" fill-rule="evenodd" d="M27.3 10.6c4 1 7.6 3 10 6.4.8 1.2.7 2.8 0 4a14 14 0 0 1-2.8 2.8c-.3-1.2-.8-2.2-1.2-3.2.6-.6 1.1-1.4 1.3-1.7-1.4-2.4-5.3-5-10-5.6l2.7-2.7Z"/><path fill="#0056c1" fill-rule="evenodd" d="M30.8 19c2 3.3 3.2 7.4 2.4 11.5a3.4 3.4 0 0 1-2.8 2.7 14 14 0 0 1-4 .1c.7-1 1.1-2 1.5-3.1A8 8 0 0 0 30 30c.7-2.7-.2-7.3-3-11h3.8Z"/><path fill="#0056c1" fill-rule="evenodd" d="M27.3 27.3c-1 3.9-3 7.5-6.5 9.9-1.1.8-2.7.8-3.9 0-1-.8-1.7-1.4-2.9-2.8 1.2-.3 2.3-.7 3.3-1.2.6.7 1.4 1.2 1.6 1.3 2.4-1.4 5-5.2 5.7-10l2.7 2.8Z"/><path fill="#0056c1" fill-rule="evenodd" d="M19 30.7a16.4 16.4 0 0 1-11.7 2.5 3.4 3.4 0 0 1-2.7-2.8 14 14 0 0 1-.2-4c1.1.7 2.2 1 3.2 1.5l.2 2c2.7.8 7.3-.2 11.1-3v3.8Z"/><path fill="#0056c1" fill-rule="evenodd" d="M10.6 27.3c-4-1-7.6-3-10-6.5a3.4 3.4 0 0 1 0-3.9 14 14 0 0 1 2.8-2.8c.3 1.2.7 2.2 1.2 3.2-.7.6-1.2 1.4-1.3 1.6 1.4 2.4 5.3 5 10 5.7l-2.7 2.6Z"/></svg>
