<svg xmlns="http://www.w3.org/2000/svg" width="40" height="40" fill="none"><path fill="#009882" d="M21.68.07C21.12.02 20.57 0 20 0h-.07a19.88 19.88 0 0 0-2.22.13V11.5c0 .56.46 1.02 1.02 1.02h2.4c.56 0 1.02-.46 1.02-1.02V.11l-.47-.04Zm2.7.4V12.6a.89.89 0 0 1-.8.8h-2.32c-.49 0-.89.4-.89.9v6.21c0-.47.37-.85.83-.88h4.59c.3-.03.56-.21.7-.47l.06-.13.02-.08v-.06a.9.9 0 0 0 .02-.14V6.02a15.54 15.54 0 0 1-4.44 29.42v-8.72h3.64c.45-.04.8-.42.8-.88V19.62c0 .5-.4.89-.89.89h-4.44c-.5 0-.89.4-.89.89v5.32h-.89V21.4c0-.5-.4-.9-.89-.9h-4.44c-.49 0-.89-.39-.89-.88v6.23a.9.9 0 0 0 .9.89H17.7v8.71a15.54 15.54 0 0 1-4.45-29.42v12.72l.02.14.01.06.02.08a.9.9 0 0 0 .06.12v.01a.89.89 0 0 0 .78.47h4.51c.46.03.82.41.82.88V14.3c0-.49-.4-.88-.88-.88h-2.32a.89.89 0 0 1-.8-.8V.5A20 20 0 0 0 19.93 40H20A20 20 0 0 0 24.37.48Z"/></svg>