<svg xmlns="http://www.w3.org/2000/svg" width="40" height="40" fill="none">
  <path fill="#FF5000" d="M27.5 0h-15C5.64 0 0 5.63 0 12.5v15C0 34.38 5.64 40 12.5 40h15C34.39 40 40 34.37 40 27.5v-15C40 5.62 34.39 0 27.5 0Z"/>
  <path fill="#fff" d="M12.38 15.88v1.74h-.37c-.7-1.25-2-2-3.5-2-2.44 0-4.75 2.32-4.75 5.32 0 3 2.25 5.25 4.75 5.25 1.5 0 2.8-.75 3.5-2h.37v1.75h2.19V15.87h-2.19Zm-3.25 8.24a3.18 3.18 0 0 1-3.19-3.25 3.18 3.18 0 0 1 3.19-3.25 3.23 3.23 0 0 1 3.25 3.25 3.19 3.19 0 0 1-3.25 3.25Zm14.57-4.56h-3.82v-1.62h6.44v-2h-8.63V26h6c2.07 0 3.44-1.38 3.44-3.25 0-1.81-1.44-3.19-3.44-3.19ZM23.43 24h-3.56v-2.5h3.56c1 0 1.5.5 1.5 1.25s-.5 1.25-1.5 1.25Z"/>
  <path fill="#00F500" d="M32.5 20a3.76 3.76 0 0 0 3.76-3.75 3.76 3.76 0 0 0-3.75-3.75 3.76 3.76 0 0 0-3.75 3.75A3.76 3.76 0 0 0 32.5 20Z"/>
</svg>
