<?xml version="1.0" encoding="UTF-8"?><svg id="a" xmlns="http://www.w3.org/2000/svg" viewBox="0 0 3794 3794"><path d="M1781.23,1894.53c23.63,13.56,32.72,37.39,39.31,62.74,4.62,17.73,5.7,35.88,3.89,53.99-3.54,35.45-17.76,65.46-47.16,86.99-9.62,7.05-20.46,10.41-32.58,10.4-132.38-.11-264.76-.07-397.14-.08-13.93,0-27.87-.04-41.8-.09-1.78,0-3.55-.2-5.87-.34,0-2.35,0-4.31,0-6.26-.03-53.46-.04-106.91-.11-160.37-.06-47.32-.13-94.64-.29-141.96-.12-36.11-.3-72.22-.71-108.33-.05-4.88,1.39-6.11,6.16-6.11,138.65.12,277.31.09,415.96.1,20.46,0,37.8,8.51,53.39,20.67,24.69,19.25,38.59,44.6,41.42,76.02,2.81,31.31-.79,61.47-16.46,89.15-4.82,8.51-11.95,15.7-18.01,23.48ZM1432.62,1991.52c2.13,0,3.76,0,5.38,0,45.46.02,90.92.04,136.39.06,28.04,0,56.08.12,84.12-.05,18.8-.11,30.35-18.42,21.47-33.84-5.07-8.81-13.12-11.8-23.03-11.79-66.8.09-133.6,0-200.4-.04-7.96,0-15.93,0-23.93,0v45.66ZM1432.72,1838.61c1.86.15,3.48.4,5.09.4,69.22.08,138.44.14,207.66.19,3.32,0,6.65-.1,9.96-.34,9.69-.7,17.66-7.51,20.64-16.87,3.85-12.07-5.29-29.27-24.93-29.15-61.92.41-123.84.21-185.76.24-10.85,0-21.7,0-32.66,0v45.53Z" fill="#ee3124" stroke-width="0"/><path d="M2971.79,1979.87c0-13.73,0-27.46,0-41.19-.02-82.86-.02-165.72-.1-248.58,0-3.62,1.06-4.96,4.83-4.95,45.83.1,91.66.06,137.48.08,1.29,0,2.58.28,4.15.46v422.51c-1.93.12-3.86.34-5.78.34-72.82.02-145.64,0-218.47.09-4,0-6.52-1.2-9.01-4.56-36.83-49.64-73.83-99.16-110.81-148.68-31.81-42.59-63.66-85.16-95.5-127.73-.68-.91-1.54-1.69-3.25-3.54-.16,3.19-.36,5.34-.36,7.5-.02,88.82-.01,177.65-.01,266.47,0,1.67-.17,3.35.03,5,.55,4.42-1.33,5.69-5.67,5.68-45.66-.13-91.32-.14-136.98,0-4.64.02-5.91-1.48-5.91-6,.1-137.15.1-274.3-.01-411.45,0-4.84,1.46-6.2,6.24-6.19,72.32.13,144.65.11,216.97.04,3.28,0,5.39.91,7.44,3.72,38.38,52.65,76.9,105.18,115.37,157.77,31.79,43.46,63.53,86.95,95.31,130.42.85,1.16,1.86,2.19,2.8,3.28.42-.16.84-.32,1.26-.48Z" fill="#ee3124" stroke-width="0"/><path d="M1016,1899.25c84.67,69.67,168.78,138.87,254,208.99-2.77.2-4.29.41-5.8.41-66.67.02-133.33-.09-200,.18-6.4.03-9.61-4.07-13.5-7.3-36.66-30.54-73.17-61.25-109.72-91.91-19.48-16.34-39.01-32.63-58.41-49.07-3.61-3.06-7.27-4.52-12.12-4.41-13.97.31-27.96.11-42.95.11,0,4.16,0,8.07,0,11.98.02,44.81.01,89.62.1,134.43,0,3.73-.18,6.01-5.16,5.99-45.96-.22-91.91-.16-137.87-.2-1.3,0-2.6-.16-4.24-.26v-422.51c1.88-.15,3.8-.43,5.72-.43,43.17-.03,86.33.05,129.5-.12,4.84-.02,6.13,1.36,6.11,6.16-.18,45.5-.11,91-.1,136.5,0,6.84.01,6.82,6.87,6.81,15.46-.04,30.93.02,46.39-.19,2.1-.03,4.65-.86,6.19-2.22,17.82-15.74,35.5-31.64,53.21-47.51,14.86-13.31,29.72-26.62,44.56-39.96,21.15-19,42.25-38.05,63.49-56.95,1.56-1.39,4.07-2.43,6.13-2.43,66.33-.13,132.66-.11,199-.09,1.08,0,2.16.25,4.57.55-79.06,71.52-157.26,142.26-235.97,213.47Z" fill="#ee3124" stroke-width="0"/><path d="M3793.28,2108.67c-1.95,0-3.89,0-5.84,0-63.32,0-126.65-.23-189.97.24-10.07.07-17.54-2.81-24.98-9.24-24.27-20.98-48.97-41.45-73.55-62.06-31.33-26.27-62.67-52.52-94.12-78.64-1.85-1.53-4.69-2.57-7.1-2.61-13.32-.25-26.64.07-39.96-.22-4.64-.1-5.92,1.36-5.9,5.9.14,45.49.09,90.99.08,136.48,0,1.67-.14,3.35.02,5,.39,3.86-1.12,5.29-5.1,5.23-12.66-.19-25.33-.07-37.99-.07-32.33,0-64.66,0-96.99,0-1.98,0-3.96,0-6.41,0v-423.46c1.79,0,3.56,0,5.33,0,43.16,0,86.32.08,129.48-.1,4.98-.02,6.43,1.25,6.4,6.39-.22,45.49-.13,90.99-.12,136.48q0,6.61,6.57,6.6c14.8,0,29.59-.07,44.39.05,3.88.03,6.75-1.14,9.73-3.83,30.75-27.7,61.71-55.17,92.55-82.78,22.05-19.74,44.03-39.55,65.97-59.41,2.77-2.51,5.67-3.47,9.4-3.47,65.16.09,130.31.07,195.47.07h4.84c.17.37.34.75.5,1.12-78.12,70.81-156.23,141.62-234.89,212.92,84.39,69.59,168.42,138.89,252.46,208.19-.1.41-.2.82-.29,1.23Z" fill="#ee3124" stroke-width="0"/><path d="M1843.42,2108.07c8.64-15.89,16.86-31.05,25.12-46.18,19.18-35.13,38.37-70.24,57.56-105.36,17.2-31.48,34.44-62.93,51.61-94.42,20.84-38.22,41.61-76.47,62.45-114.7,10.73-19.69,21.65-39.28,32.22-59.05,1.79-3.34,4.22-3.16,7.03-3.16,53.82,0,107.65,0,161.47,0,9.17,0,18.34.24,27.49-.1,4.61-.17,7.13,1.37,9.29,5.49,14.46,27.68,29.19,55.23,43.83,82.81,28.59,53.84,57.19,107.69,85.79,161.53,19.71,37.11,39.44,74.22,59.16,111.33,9.98,18.78,19.97,37.55,29.93,56.34.84,1.58,1.49,3.25,2.55,5.6-2.35.18-4.08.43-5.8.43-47.99.02-95.98-.03-143.98.1-3.87,0-5.93-1.29-7.76-4.69-11.18-20.76-22.66-41.37-33.89-62.11-1.57-2.89-3.46-3.77-6.66-3.76-83.75.08-167.5.07-251.25,0-3.14,0-5.04.71-6.69,3.72-11.66,21.26-23.51,42.42-35.51,63.5-.9,1.57-3.45,3.13-5.24,3.13-51.49.17-102.98.14-154.47.11-1.12,0-2.24-.29-4.25-.57ZM2245.4,1929.78c-23.83-42-47.21-83.22-71.15-125.41-23.52,42.41-46.37,83.6-69.56,125.41h140.71Z" fill="#ee3124" stroke-width="0"/><path d="M657.21,2108.67c-2.3,0-4.1,0-5.91,0-47.67,0-95.33-.07-143,.11-4.8.02-7.35-1.43-9.63-5.74-11.01-20.85-22.5-41.46-33.63-62.25-1.64-3.07-3.56-4.19-7-4.18-83.5.08-167,.08-250.5,0-3.6,0-5.65,1.12-7.43,4.39-11.61,21.29-23.53,42.4-35.16,63.68-1.71,3.13-3.78,4.05-7.12,4.04-50.67-.07-101.33-.05-152-.06-1.47,0-2.95-.18-5.42-.34,2.85-5.47,5.33-10.42,7.98-15.27,17.57-32.24,35.17-64.47,52.79-96.69,24.86-45.47,49.78-90.9,74.61-136.38,22.85-41.86,45.6-83.77,68.41-125.65,8.1-14.88,16.32-29.7,24.32-44.64,1.79-3.34,3.95-4.57,7.81-4.56,63.83.13,127.67.13,191.5-.01,3.96,0,5.96,1.44,7.67,4.68,24.47,46.27,49,92.5,73.54,138.74,28.81,54.3,57.62,108.6,86.46,162.89,20.33,38.28,40.7,76.55,61.05,114.83.22.42.26.93.66,2.42ZM261.36,1929.73h140.15c-23.63-41.98-46.8-83.13-70.57-125.35-23.39,42.15-46.3,83.42-69.58,125.35Z" fill="#ee3124" stroke-width="0"/></svg>