<svg xmlns="http://www.w3.org/2000/svg" viewBox="0 0 3794 3794">
  <path d="M1781 1895c24 13 33 37 40 62 4 18 5 36 3 54-3 36-17 66-47 87-9 7-20 11-32 11h-397l-42-1h-6v-166a67176 67176 0 0 0-1-251c0-5 1-6 6-6h416c20 0 38 9 53 21 25 19 39 44 42 76 3 31-1 61-17 89-5 9-12 16-18 24Zm-348 97h226c18-1 30-19 21-34-5-9-13-12-23-12h-224v46Zm0-153h5a479141 479141 0 0 0 217 0c10-1 18-8 21-17 4-12-5-29-25-29h-218v46ZM2972 1980v-290c0-4 1-5 5-5h137l4 1v422l-6 1h-218c-4 0-7-2-9-5l-111-149-95-127-4-4v279c1 5-1 6-6 6h-137c-4 0-6-2-6-6v-412c0-5 2-6 7-6h217c3 0 5 1 7 4l115 158 96 130 3 3h1ZM1016 1899l254 209-6 1h-200c-6 0-9-4-13-7l-110-92-58-49c-4-4-8-5-13-5h-42v147c0 3-1 6-6 6l-137-1h-5v-422l6-1h130c4 0 6 1 6 6v137c0 7 0 7 6 7l47-1c2 0 4 0 6-2l53-47 45-40 63-57 6-3h199l5 1-236 213ZM3793 2109h-196c-10 0-17-3-25-9l-73-62-94-79c-2-2-5-3-7-3h-40c-5 0-6 2-6 6v142c0 3-1 5-5 5h-142v-424h135c5 0 7 1 7 7v136q0 7 6 7h45c3 0 6-2 9-4l93-83 66-59c3-3 5-4 9-4h200l1 1-235 213 253 208-1 2ZM1843 2108l26-46 57-105 52-95 62-115 32-59c2-3 5-3 7-3h189c5 0 7 1 10 6l43 82 86 162 59 111 30 57 3 5-6 1h-144c-4 0-6-2-8-5l-34-62c-1-3-3-4-6-4h-251c-4 0-5 1-7 4l-36 63c-1 2-3 4-5 4h-154l-5-1Zm402-178-71-126-69 126h140ZM657 2109H508c-4 0-7-2-9-6l-34-62c-2-3-4-4-7-4H208c-4 0-6 1-8 4l-35 64c-2 3-4 4-7 4H6l-6-1 8-15 53-97 75-136 68-126 25-44c1-4 3-5 7-5h192c4 0 6 2 8 5l73 139 87 162 61 115v3Zm-396-179h141l-71-126-70 126Z" fill="#ee3124"/>
</svg>
