<svg xmlns="http://www.w3.org/2000/svg" width="40" height="40" fill="none"><path fill="#103984" d="M20 33.28c11.05 0 20-5.88 20-13.14C40 12.88 31.06 7 20 7 8.98 7 0 12.88 0 20.14c0 7.26 8.96 13.14 20 13.14ZM36.57 16.3a8.6 8.6 0 0 1 1.14 3.54c.31 5.96-6.97 11.2-16.26 11.69-5.85.3-11.1-1.35-14.26-4.1a23.95 23.95 0 0 0 12.52 2.6c9.71-.51 17.34-5.82 17.02-11.86a2.83 2.83 0 0 0-.4-1.23c-3.13 0-9.2-.04-12.26 0-.26.79-.47 1.6-.62 2.4 1.16 0 7.57.15 7.57 1.24 0 1.5-7.03 5.65-9.2 5.65-1.45 0-1.67-.4-1.67-1.24a22.3 22.3 0 0 1 1.07-4.91L19 19.99c-2.21 3.42-4.45 4.84-10.2 6.2-.98.25-1.99.4-3 .43a8.08 8.08 0 0 1-3.5-6.2c-.32-5.97 6.96-11.2 16.25-11.68 5.86-.31 11.1 1.34 14.28 4.08a23.93 23.93 0 0 0-12.51-2.58c-9.47.5-16.96 5.56-17.03 11.4.06.88.3 1.73.7 2.5.89.2 1.79.3 2.69.3 5.49 0 8.16-2.12 10.23-4.67-1.84-.05-9.55-.42-9.55-2.23 0-1.1 3.21-1.56 4.75-1.56 2.5 0 5.1.15 7.7.19.78-1.04 2.38-3.68 4.68-3.68.23 0 .84 0 .84.18 0 .81-.84 2.73-1 3.64H36.6h-.04Zm-17.1 2.83c.48-.7.97-1.41 1.49-2.2.38.04 1.2.04 1.57.04-.38.77-.67 1.47-.97 2.24-.62-.04-1.54 0-2.12-.08h.03Zm2.13-2.97c.22-.18 1.18-1.75 1.98-1.72a.3.3 0 0 1 .07.22c-.17.54-.4 1.06-.7 1.54h-.55c-.28 0-.55 0-.83-.04h.03Zm7.18 4.91v.19c0 .87-4.74 3.64-6.12 3.64a.45.45 0 0 1-.3-.46c.1-1.46.4-2.9.87-4.3.84.1 4.9.23 5.35.78.15.09.07.17.15.17l.05-.02Zm-9.48-4.12c-.62.7-1.12 1.4-1.66 2.02-1.21-.04-7.36-.44-7.36-1.41 0-.32 1.45-.42 1.84-.42 2.17-.08 4.96-.11 7.14-.17l.04-.02Z"/></svg>