<svg xmlns="http://www.w3.org/2000/svg" viewBox="0 0 36 36">
  <defs>
    <clipPath id="a">
      <path fill="none" stroke-width="0" d="M3 0h30v36H3z"/>
    </clipPath>
  </defs>
  <g clip-path="url(#a)" fill="#00af66">
    <path d="M23.1 9.6h-4.8l-6.2 15.3h4L20.8 13l4.6 11.8h4L23.1 9.6Z"/>
    <path d="M31.2 28.7a17 17 0 0 1-4 2.1c-7.7 3-16.2-.1-19.2-7.3-3-7.3.8-15.8 8.4-18.8 1.6-.6 3.1-1 4.7-1.1L19.6 0A18.1 18.1 0 0 0 4.4 25a18.3 18.3 0 0 0 23.8 9.7c1.6-.7 3.1-1.4 4.4-2.3l-1.4-3.7Z"/>
  </g>
</svg>
