<svg xmlns="http://www.w3.org/2000/svg" width="40" height="40" fill="none"><path fill="#0061AB" d="m23.18 21.65-1.52 1.52 1.01 2.45 2.96-2.96-2.45-1.01ZM21.1 23.4h-2.16l-1 2.44h4.17l-1-2.45Zm2.33-4.49v2.16l2.44 1v-4.17l-2.44 1.01Zm-5.06 4.25-1.52-1.52-2.44 1.01 2.96 2.96 1-2.45Zm4.31-8.79-1.01 2.45 1.52 1.52 2.45-1.01-2.96-2.96Zm-3.74 2.2h2.16l1-2.43h-4.17l1.01 2.44Zm-2.32 4.5v-2.16l-2.44-1v4.17l2.44-1.01Zm.23-2.73 1.52-1.52-1-2.45-2.96 2.96 2.44 1.01Zm1.61-5.8h14.76a2 2 0 0 1 1.42.59 2 2 0 0 1 0 2.84l3.39 3.38a6.8 6.8 0 0 0-4.8-11.6h-9.98l-4.79 4.78Zm5.73 1.07L34.6 24.07c.37.36.6.86.6 1.41a2 2 0 0 1-2.01 2.01v4.8a6.78 6.78 0 0 0 6.79-6.8c0-1.88-.76-3.58-2-4.82l-7.04-7.05h-6.77Zm3.28 4.81V33.2a2.02 2.02 0 0 1-2 2 2 2 0 0 1-1.42-.58l-3.4 3.4a6.8 6.8 0 0 0 11.62-4.82l-.01-9.97-4.79-4.8Zm-1.07 5.73L15.95 34.6a2.03 2.03 0 0 1-2.84 0 2 2 0 0 1-.59-1.43h-4.8a6.77 6.77 0 0 0 6.8 6.8A6.8 6.8 0 0 0 19.35 38l7.05-7.06v-6.77Zm-4.81 3.29H6.8a2 2 0 0 1-1.41-3.43L2 20.64a6.74 6.74 0 0 0 0 9.61 6.77 6.77 0 0 0 4.8 1.99h9.98l4.79-4.8Zm-5.75-1.14L5.39 15.87a2 2 0 0 1 1.41-3.43V7.65a6.78 6.78 0 0 0-6.8 6.8c0 1.88.77 3.57 2 4.8l7.05 7.06h6.78Zm-3.26-4.75V6.79a2.02 2.02 0 0 1 2-2 2 2 0 0 1 1.42.59l3.4-3.4A6.8 6.8 0 0 0 7.76 6.8v9.97l4.8 4.79Zm1.07-5.73L24.08 5.4a2.01 2.01 0 0 1 3.43 1.42h4.8a6.8 6.8 0 0 0-11.62-4.8l-7.05 7.05v6.77Zm7.57 7.06 1.68-1.7v-2.4l-1.68-1.68h-2.4l-1.68 1.69v2.4l1.69 1.69h2.39Zm-3.83 3.48-3.74-3.73v-5.28l3.74-3.74h5.27l3.74 3.74v5.28l-3.74 3.73h-5.27Z"/></svg>