<svg xmlns="http://www.w3.org/2000/svg" width="630" height="100" fill="none">
    <path fill="#1A99FF" d="m40.32 11.7 40.33 22.57V0H0v34.27L40.32 11.7Z"/>
    <path fill="#1A99FF" d="M40.32 20.57 0 43.15v37.5h80.65v-37.5L40.32 20.57Z"/>
    <path fill="#000" d="M157.74 54.52 147.1 20.26l-10.74 34.26h21.38Zm3.3 10.35h-27.97l-4.94 15.77h-13.35l22.06-67.74h20.8l22.17 67.74h-13.84l-4.94-15.77Zm37.93 15.77H186V9.42h12.97v71.22Zm34.55-8.9c8.22 0 13.26-6.77 13.26-16.45s-5.04-16.45-13.26-16.45c-8.13 0-13.17 6.77-13.17 16.45s5.04 16.45 13.17 16.45Zm0-42.97c15.87 0 26.03 10.07 26.03 26.52S249.39 81.8 233.52 81.8c-15.88 0-26.04-10.07-26.04-26.52s10.17-26.52 26.04-26.52Zm57.87 42.97c7.93 0 12.77-6.68 12.77-16.45 0-9.78-4.84-16.45-12.77-16.45-8.04 0-12.87 6.67-12.87 16.45 0 9.77 4.83 16.45 12.87 16.45Zm-3.97-42.97c7.06 0 13.55 3.49 17.13 10.45v-9.29h12V100h-12.97V72.61a18.52 18.52 0 0 1-16.26 9.2c-12.38 0-21.68-9.78-21.68-26.52 0-16.74 9.3-26.52 21.78-26.52Zm58.94 44.03c8.12 0 13.45-5.9 13.45-13.25v-2.23l-11.62 1.16c-6.29.58-10.06 3-10.06 7.65 0 3.87 2.61 6.68 8.23 6.68Zm.19-22.06 13.26-1.35v-2.52c0-5.23-3-8.9-9.78-8.9-5.51 0-9.77 2.42-10.16 7.64h-11.8c.38-12.58 10.54-16.84 21.96-16.84 14.33 0 22.75 6.78 22.75 20.8v31.07h-12.1v-9.19c-3.3 6.39-9.58 10.36-18.49 10.36-11.42 0-16.93-6.49-16.93-15 0-10.17 8.13-14.81 21.29-16.07Z"/>
    <path fill="#1A99FF" d="M427.16 60.7c0-5.7-3.77-9.48-12-9.48h-16.74V70.1h16.07c8.7 0 12.67-3.59 12.67-9.4Zm-28.74-19.54h15.48c7.46 0 11.23-3.58 11.23-9 0-5.32-3.77-8.71-11.42-8.71h-15.29v17.71Zm42.3 21.39c0 12.29-11.23 18.1-24.98 18.1h-30.87V12.9h30.2c12.96 0 23.61 4.74 23.61 17.03 0 9.78-6.68 15.1-20.03 15.87 12.29.68 22.06 5.42 22.06 16.75ZM467.8 72.8c8.14 0 13.46-5.9 13.46-13.25v-2.23l-11.61 1.16c-6.3.58-10.07 3-10.07 7.65 0 3.87 2.61 6.68 8.23 6.68Zm.2-22.06 13.26-1.35v-2.52c0-5.23-3-8.9-9.77-8.9-5.52 0-9.78 2.42-10.17 7.64h-11.8c.38-12.58 10.55-16.84 21.97-16.84 14.32 0 22.74 6.78 22.74 20.8v31.07h-12.1v-9.19c-3.29 6.39-9.58 10.36-18.48 10.36-11.42 0-16.94-6.49-16.94-15 0-10.17 8.13-14.81 21.3-16.07Zm36.68-20.81h12.1v8.9c3.29-6.57 9.48-10.06 17.7-10.06 11.62 0 17.52 6.87 17.52 19.55v32.33h-12.87V52.29c0-8.23-2.61-12.87-9.68-12.87-7.84 0-11.8 5.8-11.8 14.51v26.72h-12.97V29.93Zm90.97 50.71-15.58-20.51h-4.65v20.51h-12.97V9.42h12.97v40.64h4.74l14.71-20.13h15.3l-20.81 24.1 22.25 26.61h-15.96Z"/>
</svg>