<svg xmlns="http://www.w3.org/2000/svg" width="40" height="40" fill="none"><path fill="url(#a)" fill-rule="evenodd" d="M20.035 39.883c11.01 0 19.97-8.96 19.97-19.97C40.005 8.901 31.045 0 20.035 0 9.025 0 .005 8.96.005 19.97c0 11.011 9.02 19.913 20.03 19.913Z" clip-rule="evenodd"/><path fill="#433A31" fill-rule="evenodd" d="M6.799 6.736c-7.262 7.262-7.204 19.092.058 26.354 7.262 7.32 19.151 7.32 26.355.117 7.262-7.262 7.203-19.092-.059-26.354-7.262-7.32-19.15-7.32-26.354-.117Zm27.525 23.836c1.816-3.397 1.289-7.73-1.522-10.6-3.339-3.339-8.727-3.514-12.24-.41-.03.029-.088.084-.162.152-.22.206-.57.536-.658.667a8.971 8.971 0 0 1-12.24-.468c-3.456-3.455-3.514-9.02-.118-12.474C14.295.528 25.54.528 32.51 7.497c6.325 6.267 6.97 16.105 1.815 23.075Zm-10.366-6.794a3.35 3.35 0 0 0 .059 4.92c1.405 1.405 3.572 1.405 4.92.058 1.405-1.347 1.405-3.631 0-4.978-1.348-1.406-3.632-1.406-4.979 0Zm-12.943-8.023a3.397 3.397 0 0 1 0-4.92c1.347-1.405 3.573-1.347 4.978 0 1.406 1.347 1.406 3.514 0 4.92-1.347 1.347-3.63 1.347-4.978 0Z" clip-rule="evenodd"/><defs><linearGradient id="a" x1="37.242" x2="2.686" y1="29.903" y2="9.944" gradientUnits="userSpaceOnUse"><stop stop-color="#A1742B"/><stop offset=".522" stop-color="#EADC66"/><stop offset="1" stop-color="#A1742B"/></linearGradient></defs></svg>