<svg xmlns="http://www.w3.org/2000/svg" viewBox="0 0 584.9 522.1"><path fill="#0275ca" d="M67 315.9c10.4-20.3 21-39.3 30-59 4.6-10 10.1-13 20.7-12.5 22 1 44 .3 66 .3h6.6c-3 6-5.3 11.1-8 16.2-8.7 17.2-17.7 34.3-26.5 51.4-1.2 2.5-2.7 3.7-5.7 3.7l-79.9-.1h-3.3Zm75.5-121.5 81-.1c1.6 0 3.9-1.8 4.7-3.3a2504 2504 0 0 0 22.3-43c4.1-7.9 8-15.9 12.4-24.3l-3.8-.2h-78.4c-3.8 0-5.6 1.2-7.2 4.5-6.2 12.6-12.7 25-19 37.4l-14.6 28.5c1.4.3 2 .5 2.6.5ZM2.7 442.2c26.3 0 52.6-.1 78.9.1 4.1 0 6.3-1.4 8-4.8l26.4-51c2.4-4.8 4.6-9.7 7.2-15.1-28.7 0-56.1-.1-83.6.1-1.8 0-4.2 2.3-5.2 4.1-8.7 16.5-17.2 33-25.7 49.6L.4 441.8c1 .2 1.7.4 2.3.4Zm169.5-71c-3.7 0-4.8 2.5-6 5a22869 22869 0 0 0-25.3 49.3l-8.4 16.7 83.3-.1c1.7 0 4-1.7 4.9-3.2 4.6-8.3 8.9-16.7 13.2-25.2l21.8-42.3-83.5-.1Zm41.3-300c26.8 0 53.7 0 80.5-.3 1.8 0 4.4-2 5.4-3.8 7.9-14.8 15.5-29.8 23.1-44.7L334 .2h-10.2c-24 0-48 0-72-.2-3.6 0-5.6 1-7.2 4.4-3.6 7.9-7.8 15.5-11.7 23.2l-22.1 43.2 2.8.4ZM1.2 456.4c8.8 20.3 17.7 40.6 26.3 61 1.4 3.5 3.2 4.7 7 4.7h76.4c1.6 0 3.2-.3 5-.4-.3-1.3-.4-2.1-.8-2.9-9-21-18-42.2-27.3-63.2-.6-1.3-3-2.5-4.6-2.5-9.3-.2-18.6 0-28 0H0l1.3 3.3Zm426-.2c8.7 20.5 17.6 40.9 26.2 61.4 1.4 3.3 3 4.5 6.7 4.5l78.3-.1c1 0 2.1-.4 3.7-.6l-28-65.2c-1.2-3-3-3.2-5.8-3.2h-82.1c.4 1.4.6 2.3 1 3.2Zm39.2-60.3c-9.1-21.5-18.3-42.9-27.2-64.4-1.2-3-3-3.3-5.7-3.3h-82.2c.3 1.5.4 2.3.7 3 8.8 20.8 17.7 41.7 26.8 62.4.7 1.6 3.7 3.2 5.7 3.3 25.5.2 51 .1 76.4.1h5l.5-1.1Zm-219 123.4c-8.6-20-17.4-40-25.6-60.2-2.1-5.2-5-6.3-10-6.2-23.7.2-47.4.1-71 .2h-8c.1 1 0 1.4.2 1.8 9.1 21.5 18.2 43 27.5 64.3.6 1.4 3.3 2.6 5 2.7 23.3.2 46.6.1 70 .1H248c-.3-1.5-.3-2.1-.6-2.7Zm146.7.3-26.9-62.8c-1.3-3-2.7-3.9-5.8-3.8H279c.1 1.1.1 1.6.3 2 8.8 20.7 17.8 41.3 26.5 62 1.6 3.7 3.6 5.2 7.8 5.1 24-.2 48 0 71.9 0h9.2c-.3-1.3-.4-2-.7-2.5Zm-20.8-307c-.5-.9-2.3-1.8-3.6-1.8h-64a5.2 5.2 0 0 0-3.8 2.2c-2.6 5-5 10.2-7.1 15.5-.5 1.1-.3 3 .2 4.2a1882 1882 0 0 0 19 44c.6 1.5 3 3 4.7 3.1 6.4.4 13 .1 19.5.1H402c-9.8-23-19.2-45.1-28.8-67.2ZM281 442.2h81c2.6 0 4.1-.6 5.3-3.1 4.5-9 9.2-17.8 13.7-26.7.9-1.6 1.6-3.3 3.1-6.6-10.1 4.2-11.8-2.2-14.2-8.2-3-7.5-6.5-14.9-9.6-22.4-1-2.8-2.5-3.8-5.5-3.8-12 .2-24 0-36 .2a6.9 6.9 0 0 0-5 2.8c-11.6 22.2-23 44.6-34.8 67.3 1 .3 1.5.5 2 .5Zm218.2-70.7c-1.4 0-3.5 1.9-4.2 3.4-4.5 9.2-8.9 18.6-13 28-1.5 3.4-3.3 4.8-7.1 4.7-8.7-.3-17.3 0-26-.4-3.4 0-5.6.9-7.1 4-4 8.1-8.1 16-12.2 24l-3.5 7 83.2.1c3.4 0 4.6-2 5.9-4.3l20-39.1 14.1-27.5-50.1.1ZM356.7 129.3c-1.3 0-3 1.7-3.7 3-3.9 8-7.6 16-11.2 24-1.4 3.3-3.4 4.8-7.2 4.6-8.1-.3-16.3-.1-24.4 0-1.7 0-4 .5-4.8 1.7-3.9 5.4-7.5 11.1-2.8 18.1 1.2 2 2 4.2 2.8 6.4l4.7 13c-.8-.2-.4 0 .1 0 20 .1 40 .2 60 0 1.3 0 3.1-1.5 3.8-2.8 11.7-22.4 23.2-45 35.1-68.1l-52.4.1Zm125 123.8a10547 10547 0 0 0-33.4 67.5c-.8 1.6-.6 4.2.1 6a4742 4742 0 0 0 21.4 52.1l6.7 16c.5-.5 1-.6 1-.9 10.6-23.7 21.1-47.3 31.5-71.1.8-2 .5-5-.3-7-3.4-8.9-7.2-17.6-10.8-26.3l-15.4-36.5-.8.2Zm102.9 193.3c.6-1.4.3-3.6-.4-5.1l-15.2-37-11.6-27.1c-1 1.9-1.7 2.8-2.1 3.8-8.4 17-16 34.5-25.5 50.9-6.3 11.1-7.3 20.5-1.5 32.3 8.8 17.9 15.6 36.7 23.7 56.3 11.2-25.4 22-49.7 32.6-74.1Zm-170-174.5c9.4-21.4 18.6-43 28.3-64.4 2-4 1.8-7.3 0-11.2-3.8-8.5-7.3-17.2-10.9-25.8L417 135c-.6.8-1 1-1.2 1.5-10.8 22-21.6 43.8-32.3 65.9a9.2 9.2 0 0 0 0 6.9c4 10.5 8.3 21 12.6 31.4l15.6 37.1 2.8-6ZM340.2 8l-31.6 64a11 11 0 0 0 0 10l13.8 33.6 13.7 32.5.8-.4 31.7-72a8 8 0 0 0-.2-5.7c-5.4-13.5-11-27-16.7-40.6-3.1-7.6-6.4-15.2-9.8-23.2-1 1-1.5 1.3-1.7 1.8Zm-73.8 262.4 31.4-71.3c.6-1.6.5-4-.2-5.6l-14-34.2-12.5-29.3c-.7.5-1.1.6-1.2.8a5648 5648 0 0 0-32.3 65.3c-1.1 2.4-1.2 6-.3 8.4 5.2 13.3 10.8 26.5 16.3 39.7l11.6 27.7c.6-.7 1-1 1.2-1.5ZM326 149c-9-21-18-42-26.7-63-1.3-3-3-3.7-6-3.7h-76.6c-1.7 0-3.4.2-6 .4 4.2 9.8 8.2 18.7 11.8 27.8 1 2.9 2.7 3.7 5.5 3.6 14 0 28 .2 42 0 3.9 0 5.7 1.4 7 4.8 3.9 9.6 8 19 12.1 28.5.7 1.4 2.4 3.2 3.7 3.2 11.1.3 22.2.2 33.5.2-.1-.8-.1-1.4-.3-1.8ZM195.7 253c-10.5 22-21 44.1-31.2 66.3-.7 1.4-.5 3.6.1 5 4.4 11.2 9.1 22.2 13.4 33.4 1.2 3 3 4 6 3.8 6.2-.1 12.3-.2 18.5 0 3 .2 4.5-1 5.7-3.6 5.4-12 11.2-23.8 16.4-35.8a13 13 0 0 0 .1-8.9c-5.7-13.4-11.8-26.7-17.8-40l-9.7-21.5c-.8.7-1.3.9-1.5 1.3Zm158 64.3H435c1.5 0 3.7-1.6 4.4-3 11.2-21.4 22.2-42.9 33.2-64.3.4-1 .6-2 1-3.4-12.2 0-23.9-.1-35.5.2-1.6 0-4 1.7-4.7 3.3a848 848 0 0 0-16 34.9c-1.7 4-4 5.4-8.3 5.3-13.6-.4-27.3-.4-41-.4-1.1 0-3 .3-3.5 1.1-4.6 8.4-8.9 17-13.5 25.8l2.5.5Zm-99.5-46.7c-7.6-18-15-36.2-23-54.2-5-11.7-2-10.4-16.3-10.5l-60.9.3h-14.1c4 9.4 7.6 18.3 11.7 27 .5 1.2 3.2 2 4.9 2 13 .2 26 .2 39 0 3.4 0 5.3 1.2 6.7 4.5 3.4 8.1 7.3 16 10.7 24.1 4.5 10.6 4.4 10.7 16 10.7h26.7l-1.3-3.9ZM277 478.1c.7-1.7.2-4.2-.5-6-2.9-7.1-6.3-14-9-21.2-.8-2.2-.6-5.5.4-7.8 3.4-7.2 7.3-14.2 11-21.2a8.5 8.5 0 0 0 .4-8.4c-2.7-6-5-12-7.5-18l-8.1-18.7c-11.7 23.6-23 46.4-34 69.3-.7 1.3-.3 3.6.3 5.1 9.2 22.8 18.6 45.5 28.3 69.1 6.5-14.6 12.8-28.3 18.7-42.2Zm146.8-1c1-2.2.4-5.5-.5-8-2.4-6.3-5.5-12.4-8-18.7a8.4 8.4 0 0 1 0-6c2.6-5.7 5.3-11.4 8.7-16.7 3.7-5.8 4.2-11.3.4-17-1-1.5-3-3.2-4.6-3.2-6.8-.4-13.7 0-20.5-.3-3.1 0-4.8 1.2-6 4-5.6 11.3-11.4 22.5-16.8 34a9.2 9.2 0 0 0 0 6.4c2.7 7 5.8 13.8 8.6 20.7l19.8 48c6.7-15.2 13-29 19-43.1ZM168.4 360.6c-4-9.5-8.3-18.9-12-28.4-1.5-3.7-3.4-5-7.4-5-24.3.2-48.6 0-73 0h-8.9c4.5 10.4 8.8 20.3 12.9 30.2 1.3 3 3 4.2 6.3 4.2 12.8-.2 25.7 0 38.5 0q14-.1 19.3 13l5.3 13.5c4.1-8 7.4-14.8 11.2-21.4 1.5-2.5 4-4.4 6-6.5l1.7.4Zm-38 17.8-32.9 67.1c-.8 1.7-.5 4.3.2 6 5.8 14.6 11.7 29 17.7 43.5l10.7 25.1c3.8-8.5 7-16 10.5-23.2a10 10 0 0 0 .2-9.4 986.7 986.7 0 0 1-15.7-36.7c-.8-2-.8-5 .2-6.9 6.2-12.7 12.8-25.2 19-38 .9-1.7 1-4.5.4-6.4-2.7-7.3-5.9-14.5-9-22-.8.5-1.2.6-1.3.9Z"/></svg>
