<svg xmlns="http://www.w3.org/2000/svg" viewBox="0 0 35 35">
  <path d="M16 9.99h2.96v15.03H16V9.99ZM14.08 9.99h1.34v8.86h-1.34V9.99ZM9.89 8.22c1.79 0 3.24 1.32 3.24 2.94s-1.45 2.94-3.24 2.94-3.24-1.32-3.24-2.94S8.1 8.22 9.89 8.22Zm0 1.25c1.03 0 1.86.76 1.86 1.69s-.83 1.69-1.86 1.69-1.86-.76-1.86-1.69.83-1.69 1.86-1.69Z" fill="#007640" fill-rule="evenodd"/>
  <path d="M14.08 12.85C13.32 14.12 11.73 15 9.89 15s-3.33-.82-4.12-2.03H1.98l1.98 1.8h-.67l-1.98-1.8-.48-.43H6a4.34 4.34 0 0 0 3.89 2.11c2.13 0 3.89-1.29 4.19-2.98V9.99h1.34v8.86l-5.64 6.58H2.29l2.85-3.46H2.07l-.49-.43-.78-.71-.48-.43h1.1l-.87-.79-.48-.43h1.55L.48 18.15 0 17.7h1.38l-.91-.83-.47-.43h2.06L.69 15.2l-.48-.43h4.91c1.04.76 2.07 1.2 3.9 1.2s4.04-.96 5.06-2.39v-.73Zm.65 6h-.65v-.05c-2 1.28-4.51 2.04-7.23 2.04l-5.37-.01.78.71h3.97c3.27 0 6.26-1.02 8.51-2.69Zm-.65-.6v-.47a11.91 11.91 0 0 1-6.75 2.02c-.76 0-1.5-.07-2.21-.19s-3.9 0-3.9 0l.87.79h4.76c2.75.01 5.27-.79 7.23-2.14Zm0-1.03v-.65A10.09 10.09 0 0 1 8 18.53c-1.01 0-1.97-.14-2.88-.39s-3.97 0-3.97 0l1.14 1.03h2.83c.71.14.53.21 2.21.21s4.97-.82 6.75-2.15Zm0-1.2v-.62a8.5 8.5 0 0 1-5.69 2.08 8.97 8.97 0 0 1-3.27-.6H1.15l.91.82h3.07c.9.27 1.18.42 2.88.42s4.54-.81 6.08-2.1Zm0-1.2v-.61a6.77 6.77 0 0 1-5.06 2.11 7.12 7.12 0 0 1-3.9-1.12s-3.75 0-3.75 0l1.37 1.24h2.39c.98.41 1.53.64 3.27.64s4.36-.88 5.69-2.26Z" fill="#007640" fill-rule="evenodd"/>
  <path d="M17.49 1.57c6.53 0 12.22 3.24 15.24 8.05h-1.66c-2.86-4.07-7.88-6.77-13.58-6.77-6.98 0-12.92 4.03-15.16 9.68H.83C3.13 6.17 9.72 1.57 17.49 1.57Zm16.63 20.95c-2.31 6.34-8.89 10.91-16.64 10.91-6.5 0-12.18-3.22-15.2-8h1.66a16.53 16.53 0 0 0 13.54 6.71c6.95 0 12.88-4.01 15.13-9.62h1.5Z" fill="#007640" fill-rule="evenodd"/>
  <path d="M25.11 26.8c-1.79 0-3.24-1.32-3.24-2.94s1.45-2.94 3.24-2.94 3.24 1.32 3.24 2.94-1.45 2.94-3.24 2.94Zm0-1.25c-1.03 0-1.86-.76-1.86-1.69s.83-1.69 1.86-1.69 1.86.76 1.86 1.69-.83 1.69-1.86 1.69Z" fill="#007640" fill-rule="evenodd"/>
  <path d="M20.92 22.17c.76-1.27 2.35-2.15 4.19-2.15s3.33.82 4.12 2.03h3.79l-1.98-1.8h.67l1.98 1.8.48.43H29a4.34 4.34 0 0 0-3.89-2.11c-2.13 0-3.89 1.29-4.19 2.98v1.68h-1.34v-8.86l5.65-6.55h7.5l-2.68 3.43h2.89l.49.43.78.71.48.43h-1.1l.87.79.48.43h-1.55l1.14 1.03.48.43h-1.38l.91.83.48.43h-2.06l1.37 1.24.48.43H29.9c-1.04-.76-2.07-1.2-3.9-1.2s-4.04.96-5.06 2.39v.73Zm-.65-6h.65v.05c2-1.28 4.51-2.04 7.23-2.04l5.37.01-.78-.71h-3.97c-3.27 0-6.26 1.02-8.51 2.69Zm.65.6v.47a11.91 11.91 0 0 1 6.75-2.02c.76 0 1.5.07 2.21.19s3.9 0 3.9 0l-.87-.79h-4.76c-2.75-.01-5.27.79-7.23 2.14Zm0 1.03v.65A10.09 10.09 0 0 1 27 16.49c1.01 0 1.97.14 2.88.39s3.97 0 3.97 0l-1.14-1.03h-2.83c-.71-.14-.53-.21-2.21-.21s-4.97.82-6.75 2.15Zm0 1.2v.62a8.5 8.5 0 0 1 5.69-2.08c1.17 0 2.27.21 3.27.6h3.97l-.91-.82h-3.07c-.9-.27-1.18-.42-2.88-.42s-4.54.81-6.08 2.1Zm0 1.2v.61a6.77 6.77 0 0 1 5.06-2.11c1.48 0 2.83.42 3.9 1.12s3.75 0 3.75 0l-1.37-1.24h-2.39c-.98-.41-1.53-.64-3.27-.64s-4.36.88-5.69 2.26Z" fill="#007640" fill-rule="evenodd"/>
</svg>
