<svg xmlns="http://www.w3.org/2000/svg" data-name="Layer 1" viewBox="0 0 527.5 468.1"><path d="M522.2 251.6a176.4 176.4 0 0 0-176.4-135c-3 .2-4.8-.8-5.9-4-7-19.1-17.3-36.5-30.7-51.6A173.7 173.7 0 0 0 176.4 0c-9 .3-18 .6-26.9 2A175.3 175.3 0 0 0 17.2 250.5c14.2 29.6 35 53.4 62.4 71.5a166.3 166.3 0 0 0 83 28c6 .4 12 .5 18 .5 3.6 0 5.9 1.5 7 4.8 6.2 16.6 15 31.6 26 45.4a173 173 0 0 0 157.3 65.7 182 182 0 0 0 57.5-16.7 172.5 172.5 0 0 0 75.1-69.9c10.4-17.9 17.7-37 20.7-57.7 1.8-12.4 4-24.7 2.8-37.2-1-11.1-2-22.3-4.8-33.4ZM212.6 81.4c-8.9 1.7-17 4.7-24 10.4a31 31 0 0 0-12.7 25.1v90.9h.1l.1 93.4c0 3.7-1 5-4.7 4.7a129.5 129.5 0 0 1-94.2-45.8 132.4 132.4 0 0 1-30.7-99.5A126.7 126.7 0 0 1 72.7 96c15.5-20 35.3-34.2 59-43.2a126 126 0 0 1 65.2-6c30.9 4.8 57 19.5 77.6 43.4 8.3 9.7 15 20.2 20.4 31.8 1.2 2.7 1 3.4-1.8 4.4a179.2 179.2 0 0 0-66.6 42.1c-1.2 1.2-2.3 3.7-3.9 3-2.1-.7-1-3.4-1-5.3V88c0-7.8-1-8-9-6.5Zm8.5 210a128 128 0 0 1 28.1-79.8 129 129 0 0 1 53.5-40.2c3.3-1.3 3.4-.1 3.4 2.3v8.5c-3.7 43.4-22.6 78-59.3 102.4-6.2 4-12.8 7.3-19.3 10.6-4.8 2.5-6.5 1.5-6.4-3.7Zm260.4 11.1a130.8 130.8 0 0 1-141.6 119.3c-25.3-2-48-11.1-68.2-26.7a133 133 0 0 1-38.8-48.6c-1.7-3.5-.6-5 2.2-6 26.3-9 48.6-24 67.7-43.9.6-.7 1.5-1.2 3.3-2.5v86.4c0 6 0 6.2 6.3 5.7 16-1.4 28.6-8.2 36.2-22.7 1.9-3.7 3.1-7.7 3.1-12 0-61.5 0-123.2-.2-184.8 0-4 1.2-4.8 4.8-4.6 26.6 1 50.5 9.4 72 25 22.4 16.5 38.2 38 46.9 64.4 5.4 16.5 8.1 33.6 6.3 51ZM118.2 422a67.2 67.2 0 0 1-32-9.1 76.8 76.8 0 0 1-40.4-69.4 28.8 28.8 0 0 0-5.4-15.6c-8.5-12.8-21.6-17.4-36-19.4-2.9-.4-4.3.9-4.3 4v23.7a123 123 0 0 0 11.8 60.5c21.2 43 56.2 66.4 103.8 70.8 11 1 22 .3 33 .4 11.6 0 11.6 0 9.5-11.4-4.1-22-17.8-33.7-40-34.4Zm257-394.5a35.4 35.4 0 0 0 32.3 18.2c12.4 0 23.9 3.3 34.4 9.4 26.1 15.3 38.8 38.7 40 68.7 0 2.8 0 5.5 1.1 8.3 7.4 17.3 21.2 25 39.2 26.4 4 .3 5.4-.9 5.3-5-.2-10.3.2-20.6-.2-30.9A123.5 123.5 0 0 0 431 2.6c-11.9-3-24-2.5-36.2-2.5-7.5 0-15 .2-22.5 0-3.6-.2-4.6 1.2-4.4 4.6.4 8.3 3.3 15.8 7.3 22.8Z" style="fill:#f7c605;stroke-width:0"/></svg>
