<svg xmlns="http://www.w3.org/2000/svg" viewBox="0 0 505.2 431"><path fill="#841b2d" d="M0 423.9c4.2-10.4 7.6-19.7 11.6-28.7a362 362 0 0 1 79.8-118 244.9 244.9 0 0 1 95-59 269 269 0 0 1 75-13c2 0 4.1-.3 7.4-.6-2.8-6.5-5.2-12.3-7.8-18-22.6-50-45.5-99.8-68-149.8-5.6-12.3-14.5-18.5-28-18.4-10 0-9.7 1.6-9.6-9.2 0-11.2-.6-9 9-9 26.5-.2 53 0 79.4 0l55.5 122.3c12.8 28.3 25.7 56.6 38.4 85 2 4.4 5 6.1 9.3 7a235.6 235.6 0 0 1 87.9 38.9 172 172 0 0 1 61 75.4c4.4 11 8 22.9 9 34.6 2.3 26-10.5 44.6-32.8 56.8a87.3 87.3 0 0 1-63 8.5c-18.8-4.3-33-16-45-30.6a247.7 247.7 0 0 1-31.8-55.1c-14.7-31.9-29.2-63.8-43.7-95.8-2.4-5.1-4.8-10.2-6.9-15.5-1.2-3.3-3.2-4.6-6.8-4.3-53.3 3.8-99 24-136 63.2a257.4 257.4 0 0 0-51 78.8c-3.4 8.3-3.4 18.2-4.7 27.4-.1 1 1.8 3.2 3 3.5 8 1.7 16 3.2 24 4.4 3.5.6 5.4 1.9 5.3 5.7-.3 16.4 2 13.4-12.9 13.4-31.6.2-63.3.1-95 .1Zm351-191a45 45 0 0 0 1.6 5.6c15.9 35 31.7 70 47.8 104.8 9.3 20.2 22.6 37 43.5 46.2 13.5 6 27.1 6.4 39.8-1.5 14.3-9 17.5-22.9 12.9-42.2-6.6-27.2-23-48.4-43.9-66.4a201.3 201.3 0 0 0-78-40.8c-7.4-2-14.8-3.6-23.6-5.7Z"/></svg>
