<svg xmlns="http://www.w3.org/2000/svg" viewBox="0 0 1155 1155">
  <path d="M560 1155a598 598 0 0 1-329-115A574 574 0 0 1 1 621l-1-3v-90c2-1 1-2 1-3a572 572 0 0 1 144-331l16-18c17-16 34-33 53-48A576 576 0 0 1 556 0h36a617 617 0 0 1 279 80 578 578 0 0 1 215 225l19 40a513 513 0 0 1 50 215v34a551 551 0 0 1-100 307 581 581 0 0 1-438 253c-2 0-4-1-5 1h-52Zm16-13a565 565 0 1 0 2-1131 565 565 0 0 0-2 1131Z" fill="#0f9d9f"/>
  <path d="M577 1122a544 544 0 1 1 0-1089 544 544 0 0 1 0 1089Zm0-1068a523 523 0 1 0-1 1047 523 523 0 0 0 1-1047Z" fill="#0f9d9f"/>
  <path d="M635 944c0 2-2 3-3 4l-54 56c-3 4-5 3-9 0l-54-56c-2-3-3-5 0-8l55-56c3-4 5-4 8-1l49 52 6 5 2 4ZM635 213l-2 4-56 57c-3 3-5 2-7 0l-38-39-16-17c-3-3-3-6 0-9l54-56c3-4 5-3 8 0l39 40 15 16c1 1 3 2 3 4ZM641 924l-4-2-47-48c-2-3-2-5 0-7l46-48c4-4 6-3 9 0l45 47c3 3 3 5 0 8l-46 48-3 2ZM564 869l-2 3-46 48c-3 3-5 3-8 0l-46-48c-3-3-3-5 0-7l46-48c3-3 5-3 8 0l45 47 3 5ZM641 233l3 2 42 45c8 7 7 8 0 15l-42 45c-3 2-4 2-7-1l-47-49c-2-2-2-3 0-6l47-49 4-2ZM564 289l-2 3-46 48c-3 3-5 3-8 0l-46-48c-3-2-3-4 0-7l46-47c3-3 5-3 8 0l46 47 2 4ZM577 742l3 2 47 49c2 2 2 4 0 7l-42 42-1 2q-7 8-14 0l-42-44c-3-3-4-5-1-8l46-48 4-2ZM576 308c2-1 3 1 4 1l44 47c4 3 5 6 1 11a1186 1186 0 0 1-44 46c-3 3-5 3-8 0l-46-48c-3-3-2-5 0-7l47-49 2-1ZM558 433l-2 3c-14 14-27 29-42 42-2 2-3 1-4 0l-16-18-24-24c-2-2-3-4 0-7l39-41c3-2 5-2 7 1l39 40 3 4ZM447 314l3 2 40 42c2 2 2 4 0 6l-28 29-12 13c-2 2-4 2-6 0l-40-42c-2-2-2-4 0-6l41-42 2-2ZM751 361l-2 4-39 41c-2 2-4 3-6 0l-40-42c-2-2-2-3 0-6l39-40c3-3 4-3 7-1l39 40 2 4ZM643 769l-4-2-39-41c-2-2-2-4 0-6l39-41c3-3 5-3 7 0l39 40c3 3 2 5 0 8l-39 40-3 2ZM643 389c2 0 3 1 5 3l22 23 15 16c4 3 3 5 0 7l-35 37c-7 7-7 7-14 0l-35-37c-3-2-4-4-1-7l38-39c1-1 3-3 5-3ZM751 796l-2 4-34 35-6 6c-2 2-3 1-5-1l-40-41c-3-2-2-4 0-6l40-41c2-3 4-3 6 0l40 41 1 3ZM447 750l19 18 23 25c3 3 3 4 0 7l-36 38c-4 5-7 5-12 0l-36-37c-3-3-3-6 0-8l39-41 3-2ZM558 725l-2 3-40 41c-2 2-4 2-6 0l-40-41c-2-3-2-4 0-6l39-41c3-2 4-3 7 0l40 41s2 1 2 3ZM383 397l20 19 14 15c2 2 2 3 0 5l-31 33c-2 1-3 1-5-1l-31-32c-1-1-2-3 0-4l33-35ZM710 469l3 2 31 32v5l-31 31c-2 3-4 2-6 0l-30-31c-2-1-3-3 0-5 9-12 20-22 31-33l2-1ZM771 399l28 26c10 9 9 10 0 19l-23 25c-3 2-4 2-7 0l-30-31c-1-2-3-3-1-5l33-34ZM384 688l2 1 31 32c2 2 2 4 0 6l-31 31c-2 3-3 2-5 0l-27-28c-2-2-6-3-5-7 1-3 4-5 6-7l26-26c0-1 1-2 3-2ZM486 651l-3 4-29 31c-2 3-4 2-7 0l-30-32c-2-2-1-3 0-5l31-32c2-1 3-2 5 0l31 33 2 1ZM737 723l32-34c2-2 3-4 6-1l32 34v1c-3 6-31 34-36 36l-34-36ZM674 652l32-33c3-3 5-3 8 0l28 29c2 3 3 5 0 8l-30 31c-1 1-2 2-4 0l-34-35ZM485 506l-2 3-29 30c-4 5-6 1-9-1l-19-21-9-9c-2-2-1-3 0-5l31-32c3-2 4-1 6 1l26 27c2 2 5 4 5 7ZM578 474l6 4 27 28c3 2 3 4 0 7l-29 29c-2 3-4 4-7 1l-30-31c-2-2-2-4 1-6l29-31 3-1ZM579 613l3 2 29 30c2 2 2 4 0 7l-29 30c-2 2-4 3-7 0l-29-30c-3-3-3-5 0-7l29-30 4-3ZM742 609c1-2 2-2 3-2 4 0 6-2 6-6v-50c0-6-5-6-8-8h26v1c-8 3-8 3-9 12v14c0 2 1 4 4 4h28l-1-24c0-3-2-4-5-5-1 0-3 0-4-2h28l-1 2c-7 1-8 2-8 9v43c0 8 0 8 8 10l2 2h-28l1-2c7-1 7-2 8-9v-17c0-3-1-4-4-3l-23-1c-3 0-4 2-4 4v18c0 5 1 8 7 8 1 0 2 0 2 2h-28ZM521 575c3 2 7 3 9 6 7 10 4 22-8 26-3 2-7 2-11 2l-33 1-4-1 1-1c9-3 9-3 9-12v-36c-1-7 2-16-10-16l1-1c14-1 28-2 42 1 7 2 12 6 14 13 1 8-3 14-10 18Zm-20 2q-8 0-8 8v8c0 13 2 14 14 13l3-1c7-1 12-7 13-12 0-7-4-13-11-15l-11-1Zm-8-17v9c0 3 1 4 3 4 5 0 11 1 16-1 5-1 8-5 8-10 1-9-5-16-16-16s-11 0-11 10v4ZM945 628l-2-5c-3-9-9-13-18-13h-21c-10 0-17 5-20 14-1 2 0 4-3 4v-19l2-2c7-2 11-8 13-14 5-13 7-27 6-40 0-5-2-8-7-8-1 0-2 0-3-2h54c-11 2-9 9-9 16v39c0 5 1 9 7 9l2 2v19h-1Zm-51-22h25c8 0 9-1 9-9v-36c0-4 2-10-1-13-3-4-9-1-14-2-4 0-5 1-6 6-1 18-1 37-13 54ZM379 609h-28c11-1 9-9 9-16v-37q0-9-8-12v-1c12 0 24-2 35 1 14 3 20 18 11 29-5 6-11 7-18 7-10-1-10-1-10 10v9c0 5 1 8 7 8l2 1v1Zm-9-59h-2v23c2-7 0-14 2-21v19c0 3 1 5 4 5 8 1 13-2 15-8 3-6 1-15-4-18-5-4-12-4-15 0ZM671 609h-25c0-2 1-2 2-2 4-1 5-3 4-7l-5-10c0-2-2-3-4-3h-20c-3 0-4 3-5 5-1 4-5 8-3 13 2 3 5 1 7 4h-22c13-6 13-18 18-28l16-38 2-2c3 1 3 3 3 5l22 51c2 6 5 10 11 11l-1 1Zm-37-51h-1l-11 25h23l-11-25ZM281 609h-27c3-3 6-1 7-5 1-3-1-5-2-8-4-10-2-8-13-9h-2c-11-2-17 3-20 13-1 4 0 5 2 7 2 0 4-1 6 2h-21c7-3 9-11 12-17l20-47 2-4 3 4 21 50c2 6 4 12 12 13v1Zm-27-26-11-26-11 26h22ZM315 528l-19-20c-1-2-1-3 1-4l13-14 2-1c5-6 5-6 10 0l14 14c1 2 3 3 0 5l-21 20ZM317 631l20 18c1 2 1 3-1 5l-17 18c-2 2-3 2-5 0l-17-18c-2-2-2-3-1-4l21-19ZM838 628l22 20c2 1 1 3-1 4l-21 19-7-8-11-11c-1-2-2-3 0-4l18-20ZM841 530l-23-22 22-20 20 18v3l-19 21Z" fill="#0f9d9f"/>
  <path d="M370 550v2c-2 7 0 14-2 21v-23h2Z" fill="#228b88"/>
</svg>
