<svg xmlns="http://www.w3.org/2000/svg" width="40" height="40" fill="none"><path fill="#FE5000" d="M33.42 0H6.66A6.65 6.65 0 0 0 .01 6.64v26.72A6.65 6.65 0 0 0 6.66 40h26.69A6.65 6.65 0 0 0 40 33.36V6.64A6.55 6.55 0 0 0 33.42 0Zm4.57 32.66c-.07.07-.2.14-.27.07a34.08 34.08 0 0 0-17.68-4.91c-6.45 0-12.55 1.8-17.68 4.91-.07.07-.2 0-.27-.07-.07-.13 0-.2.06-.27a45.8 45.8 0 0 0 11.86-13.57A46.07 46.07 0 0 0 19.83 1.8c0-.07.07-.2.21-.2.14 0 .2.06.2.2a46.07 46.07 0 0 0 5.83 17.02 45.64 45.64 0 0 0 11.85 13.5c.14.14.14.2.07.34Z"/></svg>