<svg xmlns="http://www.w3.org/2000/svg" viewBox="0 0 42 42">
  <path fill="#a01a16" d="M21 41c11.6 0 21-8.95 21-20S32.6 1 21 1 0 9.95 0 21s9.4 20 21 20Z"/>
  <path fill="#fff" d="M16.86 24.94a.36.36 0 0 0 .05.52c.16.13.4.11.53-.05a.36.36 0 0 0-.05-.52.38.38 0 0 0-.53.05Zm-.46-.63a.33.33 0 0 0-.04-.47.35.35 0 0 0-.48.04c-.12.14-.1.35.04.47s.36.1.48-.04Zm-.73-1.7a.31.31 0 0 0-.43.04c-.11.12-.09.31.04.42.13.1.32.09.43-.04.11-.12.09-.31-.04-.42Zm-.7-1.3a.25.25 0 0 0 .03.36c.11.09.28.08.37-.03a.25.25 0 0 0-.03-.36.27.27 0 0 0-.37.03Zm.11-1.06c.1.08.24.07.32-.03a.21.21 0 0 0-.03-.31.22.22 0 0 0-.32.03.21.21 0 0 0 .03.31Zm.7-1.66c-.08-.06-.2-.06-.27.02a.18.18 0 0 0 .02.26c.08.06.2.06.27-.02a.18.18 0 0 0-.02-.26Zm.44-.81c.16.13.4.11.53-.05a.36.36 0 0 0-.05-.52.38.38 0 0 0-.53.05.36.36 0 0 0 .05.52Zm1.13-1.02c.14.12.36.1.48-.04a.33.33 0 0 0-.04-.47.35.35 0 0 0-.48.04c-.12.14-.1.35.04.47Zm1.28-1.09c-.11.12-.09.31.04.42.13.1.32.09.43-.04.11-.12.09-.31-.04-.42a.31.31 0 0 0-.43.04Zm1.84.06a.25.25 0 0 0-.03-.36.27.27 0 0 0-.37.03.25.25 0 0 0 .03.36c.11.09.28.08.37-.03Zm1.05-.25a.21.21 0 0 0 .03.31c.1.08.24.07.32-.03s.07-.23-.03-.31a.22.22 0 0 0-.32.03Zm1.42.44a.18.18 0 0 0 .02.26c.08.06.2.06.27-.02a.18.18 0 0 0-.02-.26c-.08-.06-.2-.06-.27.02Zm1.71 1.14c.14-.16.11-.39-.05-.52s-.4-.11-.53.05a.36.36 0 0 0 .05.52c.16.13.4.11.53-.05Zm.46.63c-.12.14-.1.35.04.47s.36.1.48-.04a.33.33 0 0 0-.04-.47.35.35 0 0 0-.48.04Zm.73 1.7c.13.1.32.09.43-.04.11-.12.09-.31-.04-.42a.31.31 0 0 0-.43.04c-.11.12-.09.31.04.42Zm.3.97a.25.25 0 0 0 .03.36c.11.09.28.08.37-.03a.25.25 0 0 0-.03-.36.27.27 0 0 0-.37.03Zm.29 1.39a.22.22 0 0 0-.32.03.21.21 0 0 0 .03.31c.1.08.24.07.32-.03a.21.21 0 0 0-.03-.31Zm-.7 1.66c.08.06.2.06.27-.02a.18.18 0 0 0-.02-.26c-.08-.06-.2-.06-.27.02a.18.18 0 0 0 .02.26Zm-.43.81a.38.38 0 0 0-.53.05.36.36 0 0 0 .05.52c.16.13.4.11.53-.05a.36.36 0 0 0-.05-.52Zm-1.14 1.02a.35.35 0 0 0-.48.04c-.12.14-.1.35.04.47s.36.1.48-.04a.33.33 0 0 0-.04-.47Zm-1.28 1.09c.11-.12.09-.31-.04-.42a.31.31 0 0 0-.43.04c-.11.12-.09.31.04.42.13.1.32.09.43-.04Zm-1.84-.06a.25.25 0 0 0 .03.36c.11.09.28.08.37-.03a.25.25 0 0 0-.03-.36.27.27 0 0 0-.37.03Zm-1.05.25a.21.21 0 0 0-.03-.31.22.22 0 0 0-.32.03.21.21 0 0 0 .03.31c.1.08.24.07.32-.03Zm-1.71-.68a.18.18 0 0 0 .02.26c.08.06.2.06.27-.02a.18.18 0 0 0-.02-.26c-.08-.06-.2-.06-.27.02Zm-.54-10.61a.4.4 0 0 0-.18.55c.11.2.36.28.57.18a.4.4 0 0 0 .18-.55.44.44 0 0 0-.57-.18Zm1.59-.5a.37.37 0 0 0-.17.5c.1.18.32.25.51.16a.37.37 0 0 0 .17-.5.39.39 0 0 0-.51-.16Zm1.48.36c.08.16.29.22.45.14a.32.32 0 0 0 .15-.44.33.33 0 0 0-.45-.14.32.32 0 0 0-.15.44Zm1.73-.11a.3.3 0 0 0-.13.39c.07.14.25.2.4.13a.3.3 0 0 0 .13-.39.3.3 0 0 0-.4-.13Zm1.46.7a.25.25 0 0 0-.11.33c.06.12.22.17.34.11a.25.25 0 0 0 .11-.33.26.26 0 0 0-.34-.11Zm1.45 1.41c.1-.05.14-.18.09-.28a.21.21 0 0 0-.28-.09.21.21 0 0 0-.09.28c.05.1.18.14.28.09Zm.48 1.34c.11.2.36.28.57.18a.4.4 0 0 0 .18-.55.44.44 0 0 0-.57-.18.4.4 0 0 0-.18.55Zm.75 1.02a.37.37 0 0 0-.17.5c.1.18.32.25.51.16a.37.37 0 0 0 .17-.5c-.09-.18-.32-.25-.51-.16Zm.59 1.75c-.08-.16-.29-.22-.45-.14a.32.32 0 0 0-.15.44c.08.16.29.22.45.14a.33.33 0 0 0 .15-.44Zm-.46 1.93a.3.3 0 0 0 .13-.39.3.3 0 0 0-.4-.13.3.3 0 0 0-.13.39c.07.14.25.2.4.13Zm-.93.92a.25.25 0 0 0-.11.33c.06.12.22.17.34.11a.25.25 0 0 0 .11-.33.26.26 0 0 0-.34-.11Zm-1.02 1.24a.21.21 0 0 0-.09.28c.05.1.18.14.28.09.1-.05.14-.18.09-.28a.21.21 0 0 0-.28-.09Zm-1.09 1.48a.4.4 0 0 0 .18-.55.44.44 0 0 0-.57-.18.4.4 0 0 0-.18.55c.11.2.36.28.57.18Zm-1.59.5a.37.37 0 0 0 .17-.5.39.39 0 0 0-.51-.16.37.37 0 0 0-.17.5c.09.18.32.25.51.16Zm-1.48-.36c-.08-.16-.29-.22-.45-.14a.32.32 0 0 0-.15.44c.08.16.29.22.45.14a.32.32 0 0 0 .15-.44Zm-1.74.11a.3.3 0 0 0 .13-.39.3.3 0 0 0-.4-.13.3.3 0 0 0-.13.39c.07.14.25.2.4.13Zm-1.45-.7a.25.25 0 0 0 .11-.33.26.26 0 0 0-.34-.11.24.24 0 0 0-.11.33c.06.12.22.17.34.11Zm-1.45-1.41a.21.21 0 0 0-.09.28c.05.1.18.14.28.09.1-.05.14-.18.09-.28a.21.21 0 0 0-.28-.09Zm-.48-1.34a.44.44 0 0 0-.57-.18.4.4 0 0 0-.18.55c.11.2.36.28.57.18a.4.4 0 0 0 .18-.55Zm-.75-1.02a.37.37 0 0 0 .17-.5.39.39 0 0 0-.51-.16.37.37 0 0 0-.17.5c.1.18.32.25.51.16Zm-.14-1.6a.32.32 0 0 0 .15-.44c-.08-.16-.29-.22-.45-.14a.32.32 0 0 0-.15.44c.08.16.29.22.45.14Zm.01-2.08a.28.28 0 0 0-.13.38c.07.14.25.2.4.13a.3.3 0 0 0 .13-.39.3.3 0 0 0-.4-.13Zm.7-1.36a.25.25 0 0 0-.11.33c.06.12.22.17.34.11.13-.06.17-.21.11-.33s-.22-.17-.34-.11Zm1.25-.8c.1-.05.14-.18.09-.28a.21.21 0 0 0-.28-.09c-.1.05-.14.18-.09.28s.18.14.28.09Zm10.97 3.37c-.26.02-.45.23-.43.49s.24.44.5.42a.45.45 0 0 0 .43-.49.46.46 0 0 0-.5-.42Zm-.05 2.66a.41.41 0 0 0 .39-.44.42.42 0 0 0-.45-.38.41.41 0 0 0-.39.44c.02.22.22.4.45.38Zm-.59 1.61c.21 0 .37-.18.36-.38 0-.2-.18-.36-.39-.35a.36.36 0 0 0-.36.38c0 .2.18.36.39.35Zm-.68 1.05a.33.33 0 0 0-.35-.3.31.31 0 0 0-.3.34c.01.18.17.31.35.3a.31.31 0 0 0 .3-.34Zm-1.62 1.44a.28.28 0 0 0 .26-.29.27.27 0 0 0-.3-.25.28.28 0 0 0-.26.29c.01.15.14.26.3.25Zm-1.61.74c.13 0 .23-.12.22-.24 0-.13-.12-.22-.25-.21a.23.23 0 0 0-.22.24c0 .13.12.22.25.21Zm-1.73.59c.25-.05.41-.3.36-.54-.05-.25-.3-.4-.56-.35s-.41.3-.36.54c.05.25.3.4.56.35Zm-1.92-.16a.41.41 0 0 0 .39-.44.42.42 0 0 0-.45-.38.41.41 0 0 0-.39.44c.02.23.22.4.45.38Zm-1.7-.61a.37.37 0 0 0 .35-.39c-.01-.2-.19-.35-.4-.34a.37.37 0 0 0-.35.39c.01.2.19.35.4.34Zm-1.48-1a.31.31 0 0 0 .3-.34.33.33 0 0 0-.35-.3.31.31 0 0 0-.3.34c.01.18.17.31.35.3Zm-.92-1.62c-.01-.15-.14-.26-.3-.25a.28.28 0 0 0-.26.29c.01.15.14.26.3.25a.28.28 0 0 0 .26-.29Zm-.85-1.56c0-.13-.12-.22-.25-.21a.23.23 0 0 0-.22.24c0 .13.12.22.25.21.13 0 .23-.12.22-.24Zm-.52-1.3c.25-.05.41-.3.36-.54-.05-.25-.3-.4-.56-.35a.46.46 0 0 0-.36.54c.05.25.3.4.56.35Zm.44-2.28a.42.42 0 0 0-.45-.38.41.41 0 0 0-.39.44c.02.22.22.4.45.38a.41.41 0 0 0 .39-.44Zm.13-1.99a.37.37 0 0 0-.35.39c.01.2.19.35.4.34a.37.37 0 0 0 .35-.39c-.01-.2-.19-.35-.4-.34Zm.69-1.05c.01.18.17.31.35.3a.31.31 0 0 0 .3-.34.33.33 0 0 0-.35-.3.31.31 0 0 0-.3.34Zm1.62-1.44a.28.28 0 0 0-.26.29c.01.15.14.26.3.25a.28.28 0 0 0 .26-.29.27.27 0 0 0-.3-.25Zm1.61-.74a.23.23 0 0 0-.22.24c0 .13.12.22.25.21.13 0 .23-.12.22-.24 0-.13-.12-.22-.25-.21Zm1.79-.6a.45.45 0 0 0-.43.49c.02.25.24.44.5.42a.45.45 0 0 0 .43-.49.46.46 0 0 0-.5-.42Zm1.86.17a.41.41 0 0 0-.39.44c.02.22.22.4.45.38a.41.41 0 0 0 .39-.44.42.42 0 0 0-.45-.38Zm1.7.6a.37.37 0 0 0-.35.39c.01.2.19.35.4.34a.37.37 0 0 0 .35-.39c-.01-.2-.19-.35-.4-.34Zm1.48 1.01a.31.31 0 0 0-.3.34c.01.18.17.31.35.3a.31.31 0 0 0 .3-.34.33.33 0 0 0-.35-.3Zm.92 1.62c.01.15.14.26.3.25a.28.28 0 0 0 .26-.29c-.01-.15-.14-.26-.3-.25a.28.28 0 0 0-.26.29Zm.85 1.15c0 .13.12.22.25.21.13 0 .23-.12.22-.24 0-.12-.12-.22-.25-.21a.23.23 0 0 0-.22.24Zm-8.96 10.19c.27.09.57-.05.66-.31a.5.5 0 0 0-.32-.64.52.52 0 0 0-.66.31.5.5 0 0 0 .32.64Zm-1.82-.95c.24.08.51-.04.6-.28a.46.46 0 0 0-.29-.58.48.48 0 0 0-.6.28c-.08.24.05.5.29.58Zm-1.47-1.35c.22.07.45-.04.53-.25a.4.4 0 0 0-.26-.51.42.42 0 0 0-.53.25.4.4 0 0 0 .26.51Zm-.6-1.86a.36.36 0 0 0-.23-.45c-.19-.06-.4.03-.46.22-.06.18.04.39.23.45s.4-.03.46-.22Zm-1.08-1.64c.16.06.34-.03.4-.19s-.03-.33-.19-.39a.32.32 0 0 0-.4.19c-.06.16.03.33.19.39ZM13 20.77c.14.05.28-.02.33-.16a.25.25 0 0 0-.16-.32.25.25 0 0 0-.33.16c-.05.13.03.28.16.32Zm.65-2.68a.52.52 0 0 0-.66.31.5.5 0 0 0 .32.64c.27.09.57-.05.66-.31a.5.5 0 0 0-.32-.64Zm.91-1.75a.48.48 0 0 0-.6.28c-.08.24.04.5.29.58.24.08.51-.04.6-.28a.46.46 0 0 0-.29-.58Zm.79-1.14a.4.4 0 0 0 .26.51c.22.07.45-.04.53-.25s-.04-.44-.26-.51a.42.42 0 0 0-.53.25Zm2.15-1.26c-.19-.06-.4.03-.46.22s.04.39.23.45.4-.03.46-.22a.36.36 0 0 0-.23-.45Zm1.85-.56a.32.32 0 0 0-.4.19c-.06.16.03.33.19.39s.34-.03.4-.19a.3.3 0 0 0-.19-.38Zm1.97-.09a.25.25 0 0 0-.33.16c-.05.13.03.28.16.32.14.05.28-.02.33-.16a.25.25 0 0 0-.16-.32Zm2.11.15a.52.52 0 0 0-.66.31.5.5 0 0 0 .32.64c.27.09.57-.05.66-.31a.5.5 0 0 0-.32-.64Zm1.82.95a.48.48 0 0 0-.6.28c-.08.24.05.5.29.58s.51-.04.6-.28a.46.46 0 0 0-.29-.58Zm1.47 1.34a.42.42 0 0 0-.53.25.4.4 0 0 0 .26.51c.22.07.45-.04.53-.25a.4.4 0 0 0-.26-.51Zm.6 1.87c-.06.18.04.39.23.45s.4-.03.46-.22a.36.36 0 0 0-.23-.45c-.19-.06-.4.03-.46.22Zm1.27 2.03c.06-.16-.03-.33-.19-.39a.32.32 0 0 0-.4.19c-.05.16.03.33.19.39s.34-.03.4-.19Zm-.08 1.6a.25.25 0 0 0-.33.16c-.05.13.03.28.16.32.14.05.28-.02.33-.16a.25.25 0 0 0-.16-.32Zm-.65 2.68c.27.09.57-.05.66-.31a.5.5 0 0 0-.32-.64.52.52 0 0 0-.66.31.5.5 0 0 0 .32.64Zm-.91 1.75c.24.08.51-.04.6-.28a.46.46 0 0 0-.29-.58.48.48 0 0 0-.6.28c-.08.24.05.5.29.58Zm-.79 1.14a.4.4 0 0 0-.26-.51.42.42 0 0 0-.53.25.4.4 0 0 0 .26.51c.22.07.45-.04.53-.25Zm-2.15 1.26c.19.06.4-.03.46-.22s-.04-.39-.23-.45-.4.03-.46.22.04.39.23.45Zm-1.84.56c.16.06.34-.03.4-.19s-.03-.33-.19-.39a.32.32 0 0 0-.4.19c-.06.16.03.33.19.39Zm-1.98.09c.14.05.28-.02.33-.16a.25.25 0 0 0-.16-.32.25.25 0 0 0-.33.16c-.05.13.03.28.16.32Zm-6.17-12.86c.24.21.6.19.82-.04a.56.56 0 0 0-.04-.79.6.6 0 0 0-.82.04.56.56 0 0 0 .04.79Zm1.75-2.2a.5.5 0 0 0 .04.71c.21.19.54.17.73-.04.19-.21.17-.53-.04-.71s-.54-.17-.73.04Zm2.05-.88a.44.44 0 0 0 .03.63c.19.17.48.15.65-.03a.44.44 0 0 0-.03-.63.47.47 0 0 0-.65.03Zm2.79.19a.39.39 0 0 0-.03-.56.42.42 0 0 0-.57.03.39.39 0 0 0 .03.56c.17.14.42.13.57-.03Zm1.62-.33a.33.33 0 0 0 .03.48c.14.12.36.11.49-.02a.33.33 0 0 0-.03-.48.37.37 0 0 0-.49.02Zm2.13.74c-.11.12-.1.29.02.4.12.1.3.1.41-.02a.28.28 0 0 0-.02-.4.3.3 0 0 0-.41.02Zm1.68 1.07a.56.56 0 0 0 .04.79c.24.21.6.19.82-.04a.56.56 0 0 0-.04-.79.6.6 0 0 0-.82.04Zm1.56 2.45c.21.19.54.17.73-.04a.5.5 0 0 0-.04-.71.52.52 0 0 0-.73.04.5.5 0 0 0 .04.71Zm.98 1.91c.19.17.48.15.65-.03a.44.44 0 0 0-.03-.63.47.47 0 0 0-.65.03.44.44 0 0 0 .03.63Zm.4 1.5a.39.39 0 0 0 .03.56c.17.14.42.13.57-.03a.39.39 0 0 0-.03-.56.42.42 0 0 0-.57.03Zm.39 2.61a.33.33 0 0 0-.03-.48.37.37 0 0 0-.49.02c-.13.14-.12.35.03.48s.36.11.49-.02Zm-.76 2c.11-.12.1-.29-.02-.4s-.3-.1-.41.02c-.11.12-.1.29.02.4.12.1.3.1.41-.02Zm-1.12 1.24a.6.6 0 0 0-.82.04.56.56 0 0 0 .04.79c.24.21.6.19.82-.04a.56.56 0 0 0-.04-.79Zm-1.75 2.2c.19-.21.17-.53-.04-.71s-.54-.17-.73.04a.5.5 0 0 0 .04.71c.21.19.54.17.73-.04Zm-2.04.88a.44.44 0 0 0-.03-.63.47.47 0 0 0-.65.03.44.44 0 0 0 .03.63c.19.17.48.15.65-.03Zm-2.8-.19a.39.39 0 0 0 .03.56.4.4 0 0 0 .57-.03.39.39 0 0 0-.03-.56.42.42 0 0 0-.57.03Zm-1.62.33c.13-.14.12-.35-.03-.48s-.36-.11-.49.02a.33.33 0 0 0 .03.48c.14.12.36.11.49-.02Zm-2.13-.74a.28.28 0 0 0-.02-.4.3.3 0 0 0-.41.02c-.11.12-.1.29.02.4.12.1.3.1.41-.02Zm-1.68-1.07a.56.56 0 0 0-.04-.79.6.6 0 0 0-.82.04.56.56 0 0 0 .04.79c.24.21.6.19.82-.04Zm-1.56-2.45a.52.52 0 0 0-.73.04c-.19.21-.17.53.04.71s.54.17.73-.04a.5.5 0 0 0-.04-.71Zm-.98-1.91a.47.47 0 0 0-.65.03.44.44 0 0 0 .03.63c.19.17.48.15.65-.03a.44.44 0 0 0-.03-.63Zm-1-2.02a.39.39 0 0 0 .03.56c.17.14.42.13.57-.03a.39.39 0 0 0-.03-.56.42.42 0 0 0-.57.03Zm.2-2.09a.33.33 0 0 0 .03.48c.14.12.36.11.49-.02a.33.33 0 0 0-.03-.48.37.37 0 0 0-.49.02Zm.77-2c-.11.12-.1.29.02.4.12.1.3.1.41-.02a.28.28 0 0 0-.02-.4.3.3 0 0 0-.41.02Zm15.88.27c.15.31.53.45.85.3a.62.62 0 0 0 .31-.83.64.64 0 0 0-.85-.3.62.62 0 0 0-.31.83Zm1.86 1.86a.59.59 0 0 0-.77-.27.55.55 0 0 0-.28.75c.14.28.48.4.77.27a.56.56 0 0 0 .28-.75Zm-.65 2.18a.49.49 0 0 0-.25.66c.12.25.42.36.68.24a.49.49 0 0 0 .25-.66.51.51 0 0 0-.68-.24Zm-.13 3.16c.23-.1.32-.36.22-.58a.46.46 0 0 0-.6-.21.43.43 0 0 0-.22.58c.11.22.37.31.6.21Zm-1.14 2.04a.38.38 0 0 0 .19-.5.38.38 0 0 0-.51-.18.38.38 0 0 0-.19.5c.09.19.32.27.51.18Zm-1.67 1.72a.3.3 0 0 0 .15-.42c-.07-.16-.27-.22-.43-.15a.3.3 0 0 0-.15.42c.07.16.27.22.43.15Zm-2.01 1.62a.62.62 0 0 0 .31-.83.64.64 0 0 0-.85-.3.62.62 0 0 0-.31.83c.15.31.53.45.85.3Zm-2.45.68a.55.55 0 0 0 .28-.75.59.59 0 0 0-.77-.27.56.56 0 0 0-.28.75c.14.28.48.4.77.27Zm-2.24-.63a.51.51 0 0 0-.68-.24c-.26.12-.37.41-.25.66s.42.36.68.24a.49.49 0 0 0 .25-.66Zm-2.64.09c.23-.1.32-.36.22-.58a.46.46 0 0 0-.6-.21.43.43 0 0 0-.22.58c.11.22.37.31.6.21Zm-2.19-1.14a.38.38 0 0 0 .19-.5.38.38 0 0 0-.51-.18.38.38 0 0 0-.19.5c.09.19.32.27.51.18Zm-1.85-1.67a.3.3 0 0 0 .15-.42c-.07-.16-.27-.22-.43-.15a.3.3 0 0 0-.15.42c.07.16.27.22.43.15Zm-.94-2.63a.64.64 0 0 0-.85-.3.62.62 0 0 0-.31.83c.15.31.53.45.85.3a.62.62 0 0 0 .31-.83Zm-1.09-1.59c.29-.13.42-.47.28-.75s-.48-.4-.77-.27a.56.56 0 0 0-.28.75c.14.28.48.4.77.27Zm-.56-3.36a.49.49 0 0 0-.25.66c.12.25.42.36.68.24a.49.49 0 0 0 .25-.66.51.51 0 0 0-.68-.24Zm.57-2.25a.43.43 0 0 0-.22.58c.11.22.37.31.6.21.23-.1.32-.36.22-.58a.46.46 0 0 0-.6-.21Zm1.14-2.04c-.19.09-.28.31-.19.5s.32.27.51.18a.38.38 0 0 0 .19-.5.38.38 0 0 0-.51-.18Zm1.67-1.72a.3.3 0 0 0-.15.42c.07.16.27.22.43.15a.3.3 0 0 0 .15-.42c-.07-.16-.27-.22-.43-.15Zm2.01-1.62a.62.62 0 0 0-.31.83c.15.31.53.45.85.3a.62.62 0 0 0 .31-.83.64.64 0 0 0-.85-.3Zm2.45-.68a.56.56 0 0 0-.28.75c.14.28.48.4.77.27a.55.55 0 0 0 .28-.75.59.59 0 0 0-.77-.27Zm2.24.63c.12.25.42.36.68.24a.49.49 0 0 0 .25-.66.51.51 0 0 0-.68-.24.49.49 0 0 0-.25.66Zm2.64-.09c-.23.1-.32.36-.22.58s.37.31.6.21c.23-.1.32-.36.22-.58a.46.46 0 0 0-.6-.21Zm2.19 1.14a.38.38 0 0 0-.19.5c.09.19.32.27.51.18a.38.38 0 0 0 .19-.5.38.38 0 0 0-.51-.18Zm1.85 1.67a.3.3 0 0 0-.15.42c.07.16.27.22.43.15a.3.3 0 0 0 .15-.42c-.07-.16-.27-.22-.43-.15Zm-6 16.51a.7.7 0 0 0-.74-.67.71.71 0 0 0-.69.72.7.7 0 0 0 .74.67c.39-.01.7-.34.69-.72Zm-3.51.38c.35-.01.63-.3.62-.65a.63.63 0 0 0-.66-.6.64.64 0 0 0-.62.65c.01.35.31.61.66.6Zm-2.56-1.02a.56.56 0 0 0 .55-.57.57.57 0 0 0-.59-.54.56.56 0 0 0-.55.57c.01.31.28.55.59.54Zm-2.71-2.07c0 .27.24.48.52.47.28 0 .49-.23.48-.5 0-.27-.24-.48-.52-.47a.48.48 0 0 0-.48.5Zm-1.23-2.46c-.24 0-.42.2-.41.43 0 .23.21.41.44.4.24 0 .42-.2.41-.43 0-.23-.21-.41-.44-.4Zm-.78-2.01c0-.19-.17-.34-.37-.34-.2 0-.35.17-.34.36 0 .19.17.34.37.34.2 0 .35-.17.34-.36Zm-.81-2c.39-.01.7-.34.69-.72a.7.7 0 0 0-.74-.67.71.71 0 0 0-.69.72.7.7 0 0 0 .74.67Zm-.39-3.41c.01.34.31.61.66.6.35-.01.63-.3.62-.65a.64.64 0 0 0-.66-.6.64.64 0 0 0-.62.65Zm1.6-3.07a.56.56 0 0 0-.55.57c.01.31.28.55.59.54a.56.56 0 0 0 .55-.57.57.57 0 0 0-.59-.54Zm1.09-1.56c0 .27.24.48.52.47.28 0 .49-.23.48-.5 0-.27-.24-.48-.52-.47a.48.48 0 0 0-.48.5Zm2.56-2.11c-.24 0-.42.2-.41.43 0 .23.21.41.44.4.24 0 .42-.2.41-.43 0-.23-.21-.41-.44-.4Zm2.48-1.05c-.2 0-.35.17-.34.36 0 .19.17.34.37.34.2 0 .35-.17.34-.36 0-.19-.17-.34-.37-.34Zm2.1-.1a.7.7 0 0 0 .74.67c.39-.01.7-.34.69-.72a.7.7 0 0 0-.74-.67.71.71 0 0 0-.69.72Zm3.5-.38a.64.64 0 0 0-.62.65c.01.35.31.61.66.6.35-.01.63-.3.62-.65a.63.63 0 0 0-.66-.6Zm2.56 1.02a.56.56 0 0 0-.55.57c.01.31.28.55.59.54a.56.56 0 0 0 .55-.57.57.57 0 0 0-.59-.54Zm2.7 2.07c0-.27-.24-.48-.52-.47a.48.48 0 0 0-.48.5c0 .27.24.48.52.47.28 0 .49-.23.48-.5Zm1.24 2.46c.24 0 .42-.2.41-.43 0-.23-.21-.41-.44-.4-.24 0-.42.2-.41.43 0 .23.21.41.44.4Zm.78 2.01c0 .19.17.34.37.34.2 0 .35-.17.34-.36 0-.19-.17-.34-.37-.34-.2 0-.35.17-.34.36Zm1.43 3.08a.68.68 0 0 0-.19-.96.73.73 0 0 0-.99.19.68.68 0 0 0 .19.96c.33.21.77.13.99-.19Zm-.23 2.33a.63.63 0 0 0-.66-.6.64.64 0 0 0-.62.65c.01.35.31.61.66.6.35-.01.63-.3.62-.65Zm-1.6 3.07a.56.56 0 0 0 .55-.57.57.57 0 0 0-.59-.54.56.56 0 0 0-.55.57c.01.31.28.55.59.54Zm-1.09 1.56c0-.27-.24-.48-.52-.47a.48.48 0 0 0-.48.5c0 .27.24.48.52.47.28 0 .49-.23.48-.5Zm-2.56 2.11c.24 0 .42-.2.41-.43 0-.23-.21-.41-.44-.4-.24 0-.42.2-.41.43 0 .23.21.41.44.4Zm-2.48 1.05c.2 0 .35-.17.34-.36 0-.19-.17-.34-.37-.34-.2 0-.35.17-.34.36 0 .19.17.34.37.34ZM9.08 16.64c-.16.4.05.84.46 1a.8.8 0 0 0 1.02-.44.77.77 0 0 0-.46-1 .8.8 0 0 0-1.02.44Zm2.5-3.06a.71.71 0 0 0-.92.4.7.7 0 0 0 .41.9c.37.14.78-.04.92-.4a.7.7 0 0 0-.41-.9Zm2.08-2.06a.65.65 0 0 0-.82.35c-.13.32.04.67.36.8.33.12.69-.04.82-.35a.62.62 0 0 0-.36-.8Zm2.53-1.45a.56.56 0 0 0-.72.31c-.11.28.03.59.32.7.29.11.61-.03.72-.31a.54.54 0 0 0-.32-.7Zm2.84-.76a.48.48 0 0 0-.61.27c-.09.24.03.51.27.6.24.09.52-.03.61-.27a.47.47 0 0 0-.27-.6Zm3.01-.03a.4.4 0 0 0-.51.22c-.08.2.02.42.23.5a.4.4 0 0 0 .51-.22.38.38 0 0 0-.23-.5Zm3.19.34a.8.8 0 0 0-1.02.44c-.16.4.05.84.46 1a.8.8 0 0 0 1.02-.44.77.77 0 0 0-.46-1Zm1.81 1.94a.7.7 0 0 0 .41.9c.37.14.78-.04.92-.4a.7.7 0 0 0-.41-.9.71.71 0 0 0-.92.4Zm2.63 2.88c.33.12.69-.04.82-.35a.62.62 0 0 0-.36-.8.65.65 0 0 0-.82.35c-.13.32.04.67.36.8Zm1.58 2.42c.29.11.61-.03.72-.31a.54.54 0 0 0-.32-.7.56.56 0 0 0-.72.31c-.11.28.03.59.32.7Zm1.51 2.46a.47.47 0 0 0-.27-.6.48.48 0 0 0-.61.27c-.09.24.03.51.27.6.24.09.52-.03.61-.27Zm.02 2.92a.38.38 0 0 0-.23-.5.4.4 0 0 0-.51.22c-.08.2.02.42.23.5a.4.4 0 0 0 .51-.22Zm-.35 3.12a.77.77 0 0 0-.46-1 .8.8 0 0 0-1.02.44c-.16.4.05.84.46 1a.8.8 0 0 0 1.02-.44Zm-2.5 3.06c.37.14.78-.04.92-.4a.7.7 0 0 0-.41-.9.71.71 0 0 0-.92.4.7.7 0 0 0 .41.9Zm-2.07 2.06c.33.12.69-.04.82-.35a.62.62 0 0 0-.36-.8.65.65 0 0 0-.82.35c-.13.32.04.67.36.8Zm-2.54 1.45c.29.11.61-.03.72-.31a.54.54 0 0 0-.32-.7.56.56 0 0 0-.72.31c-.11.28.03.59.32.7Zm-2.84.76c.24.09.52-.03.61-.27a.47.47 0 0 0-.27-.6.48.48 0 0 0-.61.27c-.09.24.03.51.27.6Zm-3.01.03a.4.4 0 0 0 .51-.22.38.38 0 0 0-.23-.5.4.4 0 0 0-.51.22c-.08.2.02.42.23.5Zm-3.19-.34a.8.8 0 0 0 1.02-.44c.16-.4-.05-.84-.46-1s-.87.05-1.02.44.05.84.46 1Zm-1.81-1.94a.7.7 0 0 0-.41-.9.71.71 0 0 0-.92.4.7.7 0 0 0 .41.9c.37.14.78-.04.92-.4Zm-2.63-2.88a.65.65 0 0 0-.82.35c-.13.32.04.67.36.8.33.12.69-.04.82-.35a.62.62 0 0 0-.36-.8Zm-1.58-2.42a.56.56 0 0 0-.72.31c-.11.28.03.59.32.7.29.11.61-.03.72-.31a.54.54 0 0 0-.32-.7Zm-.62-2.12a.47.47 0 0 0-.27-.6.48.48 0 0 0-.61.27c-.09.24.03.51.27.6.24.09.52-.03.61-.27Zm-.91-3.27c-.08.2.02.42.23.5a.4.4 0 0 0 .51-.22.38.38 0 0 0-.23-.5.4.4 0 0 0-.51.22Zm20.44-8.47a.84.84 0 0 0 .02 1.21.9.9 0 0 0 1.25-.02.84.84 0 0 0-.02-1.21.9.9 0 0 0-1.25.02Zm3.37 3.8c.3-.31.3-.79-.02-1.09-.32-.3-.82-.29-1.12.02s-.3.79.02 1.09a.8.8 0 0 0 1.12-.02Zm1.26 2.97a.67.67 0 0 0-.02-.97.72.72 0 0 0-1 .02.67.67 0 0 0 .02.97c.28.26.73.26 1-.02Zm.41 3.14a.58.58 0 0 0-.02-.85.63.63 0 0 0-.87.02.58.58 0 0 0 .02.85c.24.23.63.22.87-.02Zm-.44 2.44a.54.54 0 0 0-.75.01c-.2.2-.2.53.01.73.21.2.54.19.75-.01.2-.2.2-.53-.01-.73Zm-1.9 3.14a.43.43 0 0 0 .01.61c.17.16.45.16.62-.01a.43.43 0 0 0-.01-.61.45.45 0 0 0-.62.01Zm-2.38 2.44a.84.84 0 0 0 .02 1.21.9.9 0 0 0 1.24-.02.84.84 0 0 0-.02-1.21.9.9 0 0 0-1.24.02Zm-2.67 2.16c-.3.31-.3.79.02 1.09a.8.8 0 0 0 1.12-.02c.3-.31.3-.79-.02-1.09a.8.8 0 0 0-1.12.02Zm-2.05 1.34a.72.72 0 0 0-1 .02.67.67 0 0 0 .02.97c.28.26.73.26 1-.02a.67.67 0 0 0-.02-.97Zm-3.34 1.37a.58.58 0 0 0-.02-.85.63.63 0 0 0-.87.02.58.58 0 0 0 .02.85c.24.23.63.22.87-.02Zm-3.38-1.14a.54.54 0 0 0-.75.01c-.2.2-.2.53.01.73.21.2.54.19.75-.01.2-.2.2-.53-.01-.73Zm-3.21-1.12a.45.45 0 0 0-.62.01.43.43 0 0 0 .01.61c.17.16.45.16.62-.01a.43.43 0 0 0-.01-.61Zm-2.5-1.1a.84.84 0 0 0-.02-1.21.9.9 0 0 0-1.24.02.84.84 0 0 0 .02 1.21.9.9 0 0 0 1.24-.02Zm-3.36-3.8c-.3.31-.3.79.02 1.09.32.3.82.29 1.12-.02s.3-.79-.02-1.09a.8.8 0 0 0-1.12.02Zm-.26-2.01a.67.67 0 0 0-.02-.97.72.72 0 0 0-1 .02.67.67 0 0 0 .02.97c.28.26.73.26 1-.02Zm-.54-3.27c.24-.24.23-.62-.02-.85s-.63-.22-.87.02a.58.58 0 0 0 .02.85c.24.23.63.22.87-.02Zm-.44-3.27c.21.2.54.19.75-.01.2-.2.2-.53-.01-.73a.54.54 0 0 0-.75.01c-.2.2-.2.53.01.73Zm1.9-3.14a.43.43 0 0 0-.01-.61.45.45 0 0 0-.62.01.43.43 0 0 0 .01.61c.17.16.45.16.62-.01Zm2.38-2.44a.84.84 0 0 0-.02-1.21.9.9 0 0 0-1.25.02.84.84 0 0 0 .02 1.21.9.9 0 0 0 1.24-.02Zm2.67-2.16c.3-.31.3-.79-.02-1.09-.32-.3-.82-.29-1.12.02s-.3.79.02 1.09a.8.8 0 0 0 1.12-.02Zm2.05-1.34c.28.26.73.26 1-.02a.67.67 0 0 0-.02-.97.72.72 0 0 0-1 .02.67.67 0 0 0 .02.97Zm3.34-1.38a.58.58 0 0 0 .02.85c.24.23.63.22.87-.02s.23-.62-.02-.85-.63-.22-.87.02Zm3.38 1.15c.21.2.54.19.75-.01.2-.2.2-.53-.01-.73a.54.54 0 0 0-.75.01c-.2.2-.2.53.01.73Zm3.21 1.12c.17.16.45.16.62-.01a.43.43 0 0 0-.01-.61.45.45 0 0 0-.62.01.43.43 0 0 0 .01.61Zm-.64 22.91a.94.94 0 0 0-.52 1.25 1 1 0 0 0 1.28.51c.5-.21.73-.76.52-1.25a1 1 0 0 0-1.28-.51Zm-3.71 1.09a.84.84 0 0 0-.47 1.12c.19.44.71.64 1.15.45a.84.84 0 0 0 .47-1.12.88.88 0 0 0-1.15-.45Zm-2.68.5a.79.79 0 0 0-1.03-.4.75.75 0 0 0-.41 1c.17.39.63.57 1.03.4.4-.16.58-.61.41-1Zm-3.67-.88a.69.69 0 0 0-.9-.35.65.65 0 0 0-.36.87c.15.34.55.5.9.35a.65.65 0 0 0 .36-.87Zm-3.63-.98c.3-.12.44-.46.31-.75a.59.59 0 0 0-.77-.3.56.56 0 0 0-.31.75c.13.29.47.43.77.3Zm-2.73-2.63c.25-.1.36-.38.26-.62a.5.5 0 0 0-.64-.25.47.47 0 0 0-.26.62.5.5 0 0 0 .64.25Zm-2.55-4.55a.94.94 0 0 0-.52 1.25 1 1 0 0 0 1.28.51c.5-.21.73-.76.52-1.25a1 1 0 0 0-1.28-.51ZM5.6 23.2c.19.44.71.64 1.15.45a.84.84 0 0 0 .47-1.12.88.88 0 0 0-1.15-.45.84.84 0 0 0-.47 1.12Zm1.11-3.28c.4-.16.58-.61.41-1-.17-.39-.63-.57-1.03-.4s-.58.61-.41 1c.17.39.63.57 1.03.4Zm.37-4.8a.65.65 0 0 0-.36.87c.15.34.55.5.9.35a.65.65 0 0 0 .36-.87.69.69 0 0 0-.9-.35Zm2.46-2.09a.56.56 0 0 0 .06-.81.6.6 0 0 0-.83-.06.56.56 0 0 0-.06.81.6.6 0 0 0 .83.06Zm2.42-2.62c.25-.1.36-.38.26-.62a.5.5 0 0 0-.64-.25.47.47 0 0 0-.26.62.5.5 0 0 0 .64.25Zm3.52-1.5c.5-.21.73-.76.52-1.25a1 1 0 0 0-1.28-.51.94.94 0 0 0-.52 1.25 1 1 0 0 0 1.28.51Zm3.71-1.09a.84.84 0 0 0 .47-1.12.88.88 0 0 0-1.15-.45.84.84 0 0 0-.47 1.12c.19.44.71.64 1.15.45Zm2.68-.5c.17.39.63.57 1.03.4.4-.16.58-.61.42-1a.79.79 0 0 0-1.03-.4.76.76 0 0 0-.42 1Zm3.67.88c.15.34.55.5.9.35a.65.65 0 0 0 .36-.87.69.69 0 0 0-.9-.35.65.65 0 0 0-.36.87Zm3.63.98a.56.56 0 0 0-.31.75c.13.29.47.43.77.3.3-.12.44-.46.31-.75a.59.59 0 0 0-.77-.3Zm2.73 2.63a.47.47 0 0 0-.26.62.5.5 0 0 0 .64.25c.25-.1.36-.38.26-.62a.5.5 0 0 0-.64-.25Zm2.55 4.55c.5-.21.73-.76.52-1.25a1 1 0 0 0-1.28-.51.94.94 0 0 0-.52 1.25 1 1 0 0 0 1.28.51Zm1.46 2.43a.88.88 0 0 0-1.15-.45.84.84 0 0 0-.47 1.12c.19.44.71.64 1.15.45a.84.84 0 0 0 .47-1.12Zm-.5 4.69c.4-.16.58-.61.42-1-.17-.39-.63-.57-1.03-.4s-.58.61-.42 1c.17.39.63.57 1.03.4Zm-.98 3.4a.65.65 0 0 0 .36-.87.69.69 0 0 0-.9-.35.65.65 0 0 0-.36.87c.15.34.55.5.9.35Zm-2.31 2a.56.56 0 0 0-.31.75c.13.29.47.43.77.3.3-.12.44-.46.31-.75a.6.6 0 0 0-.77-.3Zm-2.57 2.71a.47.47 0 0 0-.26.62.5.5 0 0 0 .64.25c.25-.1.36-.38.26-.62a.5.5 0 0 0-.64-.25ZM4.68 22.06c.6 0 1.09-.47 1.09-1.06s-.49-1.06-1.09-1.06-1.09.47-1.09 1.06.49 1.06 1.09 1.06Zm.58-4.27c.54 0 .98-.43.98-.95s-.44-.95-.98-.95-.98.43-.98.95.44.95.98.95Zm1.61-3.84c.48 0 .87-.38.87-.85s-.39-.85-.87-.85-.87.38-.87.85.39.85.87.85Zm2.52-3.28c.42 0 .76-.33.76-.74s-.34-.74-.76-.74-.76.33-.76.74.34.74.76.74Zm3.25-2.55c.36 0 .65-.28.65-.63s-.29-.63-.65-.63-.65.28-.65.63.29.63.65.63Zm3.84-1.68c.3 0 .54-.24.54-.53s-.24-.53-.54-.53-.54.24-.54.53.24.53.54.53Zm4.26-.04c.6 0 1.09-.47 1.09-1.06s-.49-1.06-1.09-1.06-1.09.47-1.09 1.06.49 1.06 1.09 1.06Zm4.28.46c.54 0 .98-.43.98-.95s-.44-.95-.98-.95-.98.43-.98.95.44.95.98.95Zm3.84 1.47c.48 0 .87-.38.87-.85s-.39-.85-.87-.85-.87.38-.87.85.39.85.87.85Zm3.25 2.34c.42 0 .76-.33.76-.74s-.34-.74-.76-.74-.76.33-.76.74.34.74.76.74Zm2.51 3.06c.36 0 .65-.28.65-.63s-.29-.63-.65-.63-.65.28-.65.63.29.63.65.63Zm1.62 3.63c.3 0 .54-.24.54-.53s-.24-.53-.54-.53-.54.24-.54.53.24.53.54.53Zm.59 4.7c.6 0 1.09-.47 1.09-1.06s-.49-1.06-1.09-1.06-1.09.47-1.09 1.06.49 1.06 1.09 1.06Zm-.57 2.15c-.54 0-.98.43-.98.95s.44.95.98.95.98-.43.98-.95-.44-.95-.98-.95Zm-1.63 3.84c-.48 0-.87.38-.87.85s.39.85.87.85.87-.38.87-.85-.39-.85-.87-.85Zm-2.51 3.28c-.42 0-.76.33-.76.74s.34.74.76.74.76-.33.76-.74-.34-.74-.76-.74Zm-3.25 2.55c-.36 0-.65.28-.65.63s.29.63.65.63.65-.28.65-.63-.29-.63-.65-.63Zm-3.84 1.68c-.3 0-.54.24-.54.53s.24.53.54.53.54-.24.54-.53-.24-.53-.54-.53Zm-4.26.03c-.6 0-1.09.47-1.09 1.06s.49 1.06 1.09 1.06 1.09-.47 1.09-1.06-.49-1.06-1.09-1.06Zm-4.28-.45c-.54 0-.98.43-.98.95s.44.95.98.95.98-.43.98-.95-.44-.95-.98-.95Zm-3.84.22c.48 0 .87-.38.87-.85s-.39-.85-.87-.85-.87.38-.87.85.39.85.87.85ZM9.4 32.81c.42 0 .76-.33.76-.74s-.34-.74-.76-.74-.76.33-.76.74.34.74.76.74Zm-2.51-4.54c-.36 0-.65.28-.65.63s.29.63.65.63.65-.28.65-.63-.29-.63-.65-.63Zm-1.62-3.64c-.3 0-.54.24-.54.53s.24.53.54.53.54-.24.54-.53-.24-.53-.54-.53Z"/>
</svg>
