<svg xmlns="http://www.w3.org/2000/svg" viewBox="0 0 50.3 40"><path d="M28.6,0A41.7,41.7,0,0,1,39.1,2a18.6,18.6,0,0,1,7.8,4.7,13.5,13.5,0,0,1,3.4,9.1,13.5,13.5,0,0,1-3.4,9.1c-2.2,2.3-5,3.3-7.8,4.3-5.6,1.9-15.2,1.9-19.6,1.9H14.7l4.4-9.9c7,0,20.2-.5,23.9-1.8a7.7,7.7,0,0,0,3.3-1.8,2.7,2.7,0,0,0,.6-1.8,2.5,2.5,0,0,0-.6-1.8A7.7,7.7,0,0,0,43,12.2c-2.9-1-12-1.7-19.1-1.7Z" fill="#4f5964" fill-rule="evenodd"/><path d="M14.7,31.1l-4,8.9a18.1,18.1,0,0,1-7.3-4.6,13.1,13.1,0,0,1-3.4-9,13.5,13.5,0,0,1,3.4-9.1,18.7,18.7,0,0,1,7.7-4.9,39.1,39.1,0,0,1,12.8-1.9L19.1,21.2A41.5,41.5,0,0,0,7.2,22.8,6.8,6.8,0,0,0,4,24.6a2.4,2.4,0,0,0-.6,1.8A2.7,2.7,0,0,0,4,28.2a8.9,8.9,0,0,0,3.2,1.9A28.6,28.6,0,0,0,14.7,31.1Z" fill="#f5671e" fill-rule="evenodd"/></svg>