<svg xmlns="http://www.w3.org/2000/svg" width="40" height="40" fill="none">
  <path fill="#216B36" d="M21.2 3.44c-.62 0-.97 0-1.33.1 1.77.43 2.3 1.23 3.18 2.64l7.5 11.13 2.74-2.48-5.2-7.94c-1.86-2.74-4.86-3.45-6.9-3.45Z"/>
  <path fill="#216B36" d="M20.05 0A20.01 20.01 0 1 0 40 20.04C40.08 9.1 31 0 20.04 0Zm17.92 21.81-3.7-5.56L23.14 26.3c-3.97 3.62-9.1 9.27-12.54 3-2.3-4.14-1.76-11.3.97-14.83 1.77-2.12 4.33-2.12 6 .35l6.1 9.1 2.74-2.47-4.15-6.36c-2.12-3.1-4.77-4.42-7.42-4.42a9.09 9.09 0 0 0-6.1 2.12c-5.2 4.15-5.47 13.16-1.32 18.28 4.77 5.83 11.57 3.97 16.7-.62l9.53-8.56 3.18 4.85c-.1.27-.27.53-.36.89l-2.56-3.89-2.82 2.65 3.26 4.86c-.26.35-.53.62-.8.97l-3.43-5.21-2.74 2.65 3.44 5.12c-3 2.3-6.8 3.62-10.86 3.62A18.22 18.22 0 0 1 1.95 20.3a18 18 0 0 1 18.1-18c9.98 0 18.01 8.12 18.01 18.1 0 .35-.09.88-.09 1.41Z"/>
  <path fill="#216B36" d="M17.14 3.97a8.2 8.2 0 0 0-4.07 1.06c2.12-.26 3.98.62 5.39 2.65l8.74 12.98 2.74-2.47-7.86-11.83c-1.24-1.86-3-2.39-4.94-2.39Z"/>
</svg>
