<svg xmlns="http://www.w3.org/2000/svg" width="40" height="40" fill="none">
  <path fill="#FC0" fill-rule="evenodd" d="M12.68 7.91a5.57 5.57 0 0 1-.94-1.78c-.69.42-1.58 1-2.34 1.42a5.93 5.93 0 0 1 2.32 4.26c1.93-1.11 4-2.3 5.63-3.32.8-.49 2.04-1.22 2.93-1.73 2.91 1.68 5.56 3.22 8.57 5 .4-2.22 1-3.26 2.3-4.25-.72-.43-1.6-1-2.35-1.44-.1.46-.26.9-.46 1.31a3.3 3.3 0 0 1-4 1 2.25 2.25 0 0 1-1.43-1.93A3.2 3.2 0 0 1 24.4 3.7a349 349 0 0 0-4.06-2.33c-1.14.68-3.03 1.68-4.1 2.32.56.44 1 1 1.3 1.65a2 2 0 0 1 0 1.77 3.18 3.18 0 0 1-4.85.81Z" clip-rule="evenodd"/>
  <path fill="#00753A" fill-rule="evenodd" d="M7.09 7.45c-.23.25.09.42.2.46 2.2.85 2.61 1.66 2.86 3.37.13.6.16 1.22.08 1.83a.55.55 0 0 0 .78.46l9.25-5.45c4.5 2.73 5.15 3.08 9.27 5.46a.52.52 0 0 0 .8-.47 5.85 5.85 0 0 1 .54-3.36 3.45 3.45 0 0 1 2.37-1.84c.27-.06.37-.42.22-.5-2.4-1.32-3.7-2-5.45-3-.26 0-.37.1-.36.26.02.46 0 .93-.1 1.4a2 2 0 0 1-1.38 1.5 1.75 1.75 0 0 1-1.9-.94c-.08-.3-.08-.6 0-.9.08-.57 1-1.43 1.8-1.92.14-.08.23-.27 0-.45-3.45-2-3.64-2.13-5.8-3.36-1.72 1-3.5 2-5.8 3.38-.2.22-.11.33 0 .4 1.4 1.03 1.73 1.6 1.9 2.25.29 1.13-1.16 1.78-1.88 1.65-1.66-.29-1.6-2.36-1.6-2.94 0-.11-.26-.21-.34-.28a232.73 232.73 0 0 0-5.46 3Zm4.17 5.29c-.18.13-.47.19-.39-.22.4-1.64-.77-4.4-2.64-5l4.05-2.25a3.4 3.4 0 0 0 .45 1.84c1 1.84 4.6 1.31 4.35-1.18a3.62 3.62 0 0 0-1.5-2.05c-.07-.13-.27-.3.09-.5 1.55-.88 3.08-1.8 4.62-2.68 1 .57 2 1.14 4.59 2.7.34.19.19.38.08.48-1 .9-1.89 1.91-1.34 3.11a2.7 2.7 0 0 0 2.27 1.2 2.5 2.5 0 0 0 2.18-1.56l.2-1.37c1.67 1 2.05 1.15 4.06 2.2a4.4 4.4 0 0 0-2.55 3 3.7 3.7 0 0 0-.07 2c0 .19 0 .4-.43.24-3.63-2.15-5-3-8.99-5.29-3.23 1.97-5.8 3.48-9.03 5.33ZM10 14.87c-.25.21-.2.37-.08.71.75 1.85-1.29 5.33-.43 10.41.5 3 2.91 6.2 5.16 8.42.13-.1.19-.38.28-.46a17.07 17.07 0 0 1-4.4-6.65c-1.49-4.48-.14-7.19.08-9.83l.08-.89-.13-1s-.05-.24 0-.28c3.31-1.65 6.57-3.54 9.66-5.47 2.25 1.2 3.54 2.1 5.77 3.35 1.3.76 2.63 1.46 4 2.1.06.07.07.2 0 .4a7.67 7.67 0 0 0 .32 3.93h.5c-.25-1-.65-3-.15-4 .1-.23.06-.5-.1-.7a9.38 9.38 0 0 0-1.83-1c-4.38-2.53-4.22-2.33-8.39-4.8-2.6 1.22-6.71 3.99-8.39 4.8-.72.32-1.3.69-1.95.96Zm1.26.81c.3 1.17-.2 3.82-.6 5.64-.13.8-.3 2.42.4 3 .31.13.67.13 1 0 1.72-.95 4.99-3.25 6.29.15 1 2.71 1.28 7.32 1 10.39-.2-2-1-10.27-4.7-9.15-1.26.4-2.86.84-3.99-.27a15.7 15.7 0 0 0 4.44 7.95c.35-.92.44-1.35.66-2-.56-1.57-1.69-3.08-1.84-4.8.3 0 1-.35 1.37-.22a1.9 1.9 0 0 1 1.38 1.91c0 2.57-.06 3.84 0 6.77l3.32 3.11v-27.4c-4 2.33-5.55 3.27-8.73 4.92Zm3.09 2.12a2.3 2.3 0 0 1 2.32-1.5v5.5a4.15 4.15 0 0 0-2.82.62c-.52-1.07.15-3.94.5-4.62Zm15.63 6.03c.26-.27.46-.58.6-.92a9.84 9.84 0 0 1-1.27 6.1c-2 3.84-5.94 7.24-8.99 10.23-1.81-1.74-2.52-2.45-3.65-3.55 0 .21-.17.52 0 .7 1.7 1.74 2.83 2.75 3.71 3.61 1.42-1.3 2.84-3 4.24-4.26 3.6-3.18 8.12-9.4 6.47-14.37a.93.93 0 0 0-.4 0c-.42.9-.67 2.13-1.73 2.27-2.63-1-3.07-2.34-4.99-1.8v-5.5c2.76 1.48 3.2 1.7 5.64 3.06a12.8 12.8 0 0 1-.25-3.74 455.17 455.17 0 0 1-8.68-4.83V38.2c1.87-1.7 3.64-3.5 5.3-5.38a16.08 16.08 0 0 0 3.2-5.2l.6-2.16a3 3 0 0 1-3.25.33c-2.32-1-3.55 1.06-4.37 3.15-.73 1.9-.75 4.16-1 6a39 39 0 0 1 0-5.72c.13-1.59.47-3.15 1-4.65a2.55 2.55 0 0 1 3.56-1.66c1.28.48 3 2 4.08 1.2.06-.05.07-.2.16-.28h.02ZM24 32.56c0-2.6 0-3.23.05-5.13.7-.92 1.39-1.36 2.62-.8-.4 2.17-1.31 4.2-2.67 5.93Z" clip-rule="evenodd"/>
</svg>
