<svg xmlns="http://www.w3.org/2000/svg" viewBox="0 0 137.25 137.19"><path fill="#ef7e3b" fill-rule="evenodd" d="M113.16 0C96.44 15.87 76.71 31.28 61.05 39.86c3.7-6.38 5-16.41 3.67-23a25.58 25.58 0 0 0-12-16.78h60.47l-.03-.08Z"/><path fill="#575656" fill-rule="evenodd" d="M103.19 136.87a46.63 46.63 0 0 0 12.47-10.6 45.45 45.45 0 0 0 10.69-30.59c-.26-23.1-17.54-44.76-39.51-51.38a66.71 66.71 0 0 0-10.91-2.45c18.88-.12 48.5-17.63 59-41.8h2.32v98.1a39.17 39.17 0 0 1-34 38.69l-.06.03Z"/><path fill="#ef7e3b" fill-rule="evenodd" d="M0 95.05V25.38A25.4 25.4 0 0 1 25.25.08C19.35 4.24 15.5 10.37 15.49 18c0 5.47 2.47 12.31 7.35 15.38 11.34 7.14 20-1.93 21.29-5.1-6.27 2-10.15 4.11-15.2-1.81-1.6-1.87-2-5.33-1.69-7.66a11.3 11.3 0 0 1 6.32-8.67l.14-.07c3.32-2 8.17-1.7 11.7-.48a15.18 15.18 0 0 1 9.83 10l.08.24a21.33 21.33 0 0 1-.33 15.92A14.98 14.98 0 0 1 48.25 44c-2.8 1.05-6.07 2-8.93 3.3a68.93 68.93 0 0 0-26.59 21.26A66.05 66.05 0 0 0 .02 95.06H0Z"/><path fill="#575656" fill-rule="evenodd" d="M62.49 137.19h-53c-.53-4-1.12-10.9-1.11-12.18-.3-5.8-.57-12-.53-14.33.28-17.19 8.91-34.49 22.09-45.46 14.33-12.14 35.91-18.14 54-11.5H84c17.15 5.82 30.89 23.74 30.47 42.07v.08c-.03 8.17-3 16.05-8.37 22.21-4.62 5.39-11.21 9.73-18.33 10.77l-.28.06a23.75 23.75 0 0 1-22.35-5.59c-4.82-4.36-8.75-11.33-8.45-18v-.07A18.43 18.43 0 0 1 63.84 91c3.5-2.73 8.53-4.68 13-3.92h.07c3.83.55 7.26 2.64 9.49 5.8 1.82 2.53 3 6 2.08 9.05-3.47 12-14.29 8.23-16.87 6.7 1.5 2.75 6.09 6.79 13.43 5.32a14.11 14.11 0 0 0 10.72-11 21.11 21.11 0 0 0-2.74-14.42A22.7 22.7 0 0 0 78.71 78c-7.12-1.87-15.18.33-21.15 4.42a29.25 29.25 0 0 0-12.68 22.27c-1.07 10.3 4.36 21 11.73 27.91a38.64 38.64 0 0 0 5.88 4.55v.04Z"/></svg>
