<svg xmlns="http://www.w3.org/2000/svg" viewBox="0 0 207.68 207.45"><path fill="#0e3ea1" d="M104.03 0C44.18-.07-1.59 49.96.04 106.7c1.59 55.27 48.44 101.86 106.46 100.73 55.07-1.08 101.2-47.3 101.18-103.46A103.6 103.6 0 0 0 104.03 0Zm2.19 176.36c-39 1.05-74.8-29.83-75.12-72.44-.3-39.86 32.77-72.96 72.7-72.92 40.09.04 72.78 32.65 72.93 72.75.14 38.81-32.44 71.58-70.51 72.61Z"/><path fill="#7d7d7d" d="M109.43 124.33c0-5.15.09-10.3-.04-15.44-.07-2.72.79-3.9 3.69-3.79 5.31.19 10.63-.11 15.94.11 10.57.45 18.88 8.55 19.25 18.51.38 10.49-7.12 19.15-17.96 20.12-5.93.53-11.94.16-17.92.35-2.62.08-2.97-1.33-2.95-3.42.05-5.48.02-10.96.02-16.44h-.03Zm.03-42.84c0-4.99.14-9.99-.05-14.98-.12-3.15.79-4.6 4.2-4.37 6.13.4 12.31-.51 18.43.65 9.97 1.88 16.54 9.84 16.24 19.7a19.2 19.2 0 0 1-17.21 18.38c-6.27.61-12.64.18-18.96.31-2.39.05-2.68-1.31-2.66-3.2.04-5.49.02-10.99.02-16.48Z"/><path fill="#0e3ea1" d="M66.25 81.54c0-5.33.02-10.65 0-15.98 0-1.78 0-3.43 2.49-3.34 6.64.24 13.32-.67 19.92.53 10.5 1.9 17.29 10.33 16.6 20.4-.65 9.57-8.76 17.38-18.91 17.9-5.48.28-10.99-.02-16.47.17-2.81.1-3.8-.81-3.69-3.69.21-5.32.06-10.65.06-15.98Zm-.01 42.9c0-5.31.12-10.63-.06-15.93-.09-2.63.8-3.49 3.41-3.41 5.47.17 10.97-.15 16.43.11 10.35.5 18.67 8.47 19.23 18.08.59 10.07-6.11 18.41-16.64 20.35-6.57 1.21-13.25.32-19.88.53-2.47.08-2.5-1.52-2.5-3.3.02-5.48 0-10.96 0-16.43Z"/></svg>
