<svg xmlns="http://www.w3.org/2000/svg" width="40" height="40" fill="none"><path fill="#E8B909" d="M35.76 11.28a1 1 0 0 0-.88-.12A45.46 45.46 0 0 0 30.2 11h-2.56L21 10.92h-5c-1.24 0-2.48 0-3.68.08-1.2.08-4.36 0-6.2 0H4.56a.65.65 0 0 0-.48.56.34.34 0 0 0 .32.44h6.28c1.5-.14 3.02-.18 4.52-.12h3c.22.04.43.04.64 0h.28c.25.06.51.06.76 0 .26-.02.51-.02.76 0a1 1 0 0 1 .6 0 58.32 58.32 0 0 1 6.96.24l1.24.12c1.12-.1 2.25-.1 3.36 0 .84.08 1.64.12 2.4.12l.4-.32a.51.51 0 0 0 0-.72"/><path fill="#007638" d="M24.68 25.52V22.8c0-.4 0-.84-.08-1.28-.08-.44 0-1-.08-1.52-.03-.71-.13-1.42-.28-2.12l-.08-.48A.71.71 0 0 1 24 17a1.67 1.67 0 0 0-.16-.4 5 5 0 0 0-.68-.92.7.7 0 0 0-.2-.16s-.08 0-.12-.08A2.6 2.6 0 0 0 22 15a.3.3 0 0 0-.28-.12v-.08h-.12l-.6-.12v.08h-.52l-.24-.08v.12a.59.59 0 0 0-.28 0h-.76v.12a.37.37 0 0 0-.36.12.34.34 0 0 0-.24.12h-.08c0 .08-.24.16-.32.2l-.2.08a.09.09 0 0 0-.08.08h-.2v.16h-.12l-.08.08a4.8 4.8 0 0 1-.44.48 7 7 0 0 0-.52.6V17s-.12.08-.16.2a.65.65 0 0 1-.12.24v.08c-.08.08-.08.2-.12.24a.15.15 0 0 1 0 .12l-.08.12a.43.43 0 0 0 0 .2v.08c.05.17.05.35 0 .52-.02.19-.02.37 0 .56a.47.47 0 0 0 0 .32V20l-.08.08.08.12v.36a.69.69 0 0 0 0 .4v.24l-.08.16.12.08v.52l.08.08a.38.38 0 0 0 .08.28h-.16l.08.2a.38.38 0 0 0 0 .28.85.85 0 0 0 0 .32v.08a.44.44 0 0 0 0 .44c-.08.08 0 .2 0 .28l-.16.08.2.2a.3.3 0 0 0 0 .16l.08.08.08.16a.68.68 0 0 0 0 .28v.08l-.08.08.08.12c.05.12.05.24 0 .36a.66.66 0 0 0 0 .48l-.12.08.12.08a.24.24 0 0 0 0 .28v.24a1.2 1.2 0 0 0 0 .52v.44c.03.15.03.3 0 .44a1.24 1.24 0 0 0 .28 1h.16a.41.41 0 0 0 .24-.4v-.16a2.8 2.8 0 0 1 0-1 .51.51 0 0 1 0-.24 1.1 1.1 0 0 1 0-.36c.02-.13.02-.27 0-.4v-2.76a3.9 3.9 0 0 1-.08-1v-.84c.06-.3.06-.59 0-.88v-.24a.19.19 0 0 0 0-.24.88.88 0 0 0 0-.32.3.3 0 0 1 0-.2v-.28a.44.44 0 0 0 0-.32c.1-.26.15-.53.16-.8v-.08a.24.24 0 0 0 0-.16c.01-.14.07-.26.16-.36.12-.14.19-.3.2-.48a.34.34 0 0 0 .12-.24c.08-.08.15-.18.2-.28a.55.55 0 0 1 .32-.28h.08v-.08c.06-.1.15-.18.24-.24.12-.06.21-.14.28-.24h.2l.32-.16c.12-.12.16-.12.28-.08h.08a.21.21 0 0 0 .16-.12.15.15 0 0 0 .12 0h.52a2.1 2.1 0 0 1 1.12.08l.12.08.08-.12a.52.52 0 0 0 .44.2.21.21 0 0 0 .16.08c.1.08.2.12.32.12.23.2.4.47.48.76V17H23c.02.22.1.43.24.6v.44l.08.08c0 .09.03.17.08.24a.32.32 0 0 0 .12.44c-.08 0-.08.12-.08.2v.4l.08.12v.28c-.1.26-.1.54 0 .8-.08.08 0 .2 0 .28v.24h.08v.32a.3.3 0 0 1 0 .2.56.56 0 0 0 .08.44v.08a.15.15 0 0 0 0 .12v.08a.09.09 0 0 0 .08.08v.16h-.08v.08a.3.3 0 0 0 0 .2h-.08a.08.08 0 0 0 .08.08.5.5 0 0 0 .16.44s0 .08.08.08h-.08v.2h-.12v.36a.87.87 0 0 0-.12.2V25h.12v.2l.2.12a.24.24 0 0 0 0 .16h-.16v1.16l-.12.08.16.16v.16h-.12l.2.24a.4.4 0 0 1 0 .12.34.34 0 0 0-.08.24v.16s-.08 0-.08.08a.08.08 0 0 0-.02.1l.02.02h-.2l.16.16h-.16l.2.12v.4a.21.21 0 0 0 .08.16c.08.02.17.02.24 0V29h.2c.12-.02.25-.02.36 0h.16v-.16c.04-.56.04-1.12 0-1.68a9.52 9.52 0 0 1 0-1.52.34.34 0 0 0-.08-.24"/><path fill="#0061AF" d="M13.6 25.52V22.8c0-.4 0-.84-.08-1.28-.08-.44 0-1-.08-1.52-.03-.71-.13-1.42-.28-2.12l-.08-.48c-.12-.12-.12-.24-.2-.4a1.67 1.67 0 0 0-.16-.4 5 5 0 0 0-.72-1 .7.7 0 0 0-.2-.16s-.08 0-.12-.08a2.61 2.61 0 0 0-.68-.32.3.3 0 0 0-.28-.12v-.08h-.12l-.56-.08h-.2v.08H9.28l-.28-.2v.12a.59.59 0 0 0-.28 0H8v.12a.37.37 0 0 0-.36.12.34.34 0 0 0-.24.12h-.08c-.08.1-.2.17-.32.2l-.2.08a.09.09 0 0 0-.08.08h-.2v.16H6.4l-.08.08c-.13.17-.28.33-.44.48a7 7 0 0 0-.52.6v.16s-.12.08-.12.2c0 .12-.08.2-.12.24v.08c-.08.08-.08.2-.12.24a.15.15 0 0 1 0 .12v.08a.43.43 0 0 0 0 .2v.08c.05.17.05.35 0 .52-.02.19-.02.37 0 .56a.47.47 0 0 0 0 .32v.4h-.44l.08.12v.36a.69.69 0 0 0 0 .4v.24l-.08.16.12.08v.52l.08.08a.38.38 0 0 0 .08.28h-.16l.08.2a.63.63 0 0 0 0 .28.85.85 0 0 0 0 .32v.08a.44.44 0 0 0 0 .44c-.08.08 0 .2 0 .28l-.2.08.2.2a.3.3 0 0 0 0 .16l.08.08.08.16a.68.68 0 0 0 0 .28v.08l-.08.08.08.12c.05.12.05.24 0 .36a.66.66 0 0 0 0 .48L4.8 26l.12.08a.24.24 0 0 0 0 .28v.24c-.03.17-.03.35 0 .52v.44c.03.15.03.3 0 .44a1.24 1.24 0 0 0 .28 1h.16a.41.41 0 0 0 .24-.4v-.16a2.8 2.8 0 0 1 0-1v-.04a1.11 1.11 0 0 1 0-.36c.02-.13.02-.27 0-.4a16 16 0 0 0 0-2v-.76c-.04-.3-.04-.61 0-.92v-.84c.06-.3.06-.59 0-.88v-.44a.19.19 0 0 0 0-.24.88.88 0 0 0 0-.32.3.3 0 0 1 0-.2v-.28a.44.44 0 0 0 0-.32c.1-.26.15-.53.16-.8v-.08a.24.24 0 0 0 0-.16c0-.12.08-.2.16-.36.12-.14.19-.3.2-.48a.34.34 0 0 0 .12-.24c.1-.07.17-.17.2-.28.08-.12.12-.24.32-.28h.08v-.08a.45.45 0 0 1 .16-.4c.1-.07.19-.17.24-.28h.2l.32-.16c.12-.12.16-.12.28-.08h.08a.21.21 0 0 0 .16-.12.15.15 0 0 0 .12 0h.56c.38-.08.77-.05 1.12.08l.12.08.08-.12a.52.52 0 0 0 .44.2.2.2 0 0 0 .16.08c.1.08.2.12.32.12.23.2.4.47.48.76V17h.12c.02.22.1.43.24.6v.4l.08.08c0 .09.03.17.08.24a.32.32 0 0 0 .12.44c-.08 0-.08.12-.08.2v.28l-.08.12v.12l.08.12v.28c-.1.26-.1.54 0 .8-.08.08 0 .2 0 .28v.24h.08v.32a.3.3 0 0 1 0 .2.56.56 0 0 0 .08.44v.08a.15.15 0 0 0 0 .12v.08a.09.09 0 0 0 .08.08v.16h-.08v.08a.3.3 0 0 0 0 .2v.12a.08.08 0 0 0 .08.08.5.5 0 0 0 .16.44l.08.08h-.08v.2h-.12v.36a.87.87 0 0 0-.12.2v.12h.12v.2l.2.12a.24.24 0 0 0 0 .16h-.16V26a.15.15 0 0 0 0 .12v.72l-.12.08.16.16v.16h-.12l.2.24a.4.4 0 0 1 0 .12.34.34 0 0 0-.08.24V28s-.08 0-.08.08a.08.08 0 0 0-.02.06.08.08 0 0 0 .02.06h-.2l.16.16h-.16l.12.12v.4a.21.21 0 0 0 .08.16c.08.02.17.02.24 0v.16h.2c.12-.02.25-.02.36 0h.16v-.16c.04-.56.04-1.12 0-1.68a9.52 9.52 0 0 1 0-1.52.9.9 0 0 0 0-.36"/><path fill="#F37021" d="M35.6 25.72V23c0-.4 0-.84-.08-1.28-.08-.44 0-1-.08-1.52-.03-.71-.13-1.42-.28-2.12l-.08-.48a.76.76 0 0 1-.2-.4 1.67 1.67 0 0 0-.16-.4 5 5 0 0 0-.72-1 .4.4 0 0 0-.2-.16s-.08 0-.12-.08a2.61 2.61 0 0 0-.68-.32.43.43 0 0 0-.4-.24h-.12l-.6-.08h-.08V15h-.52l-.28-.16V15a.34.34 0 0 0-.28.08H30v.12a.37.37 0 0 0-.36.12.65.65 0 0 0-.24.12h-.08c-.08.1-.2.17-.32.2l-.2.08h-.28V16h-.12l-.08.08c-.12.16-.28.32-.4.48a7 7 0 0 0-.52.6v.16s-.12.08-.16.2a.34.34 0 0 0-.08.24v.08C27 17.88 27 18 27 18a.15.15 0 0 1 0 .12l-.08.12a.43.43 0 0 0 0 .2v.08c.05.17.05.35 0 .52-.02.19-.02.37 0 .56a.47.47 0 0 0 0 .32V20l-.08.08.08.12v.36a.69.69 0 0 0 0 .4v.24l-.08.16.12.08v.4l-.08.16.08.08c0 .1.03.2.08.28h-.16l.08.2a.38.38 0 0 0 0 .28.85.85 0 0 0 0 .32v.08a.44.44 0 0 0 0 .44c-.08.08 0 .2 0 .28h-.12l.2.2a.3.3 0 0 0 0 .16l.08.08.08.16a.59.59 0 0 0 0 .28v.08l-.08.08.08.12c.05.12.05.24 0 .36a.66.66 0 0 0 0 .48h-.16l.12.08a.23.23 0 0 0 0 .28v.24a1 1 0 0 0 0 .48v.44c.03.15.03.3 0 .44a1.24 1.24 0 0 0 .28 1h.08a.41.41 0 0 0 .24-.4v-.16a2.8 2.8 0 0 1 0-1 .51.51 0 0 1 0-.24v-.08a1.1 1.1 0 0 1 0-.36c.02-.13.02-.27 0-.4a16 16 0 0 0 0-2v-.76c-.04-.3-.04-.61 0-.92v-.84c.06-.3.06-.59 0-.88V21a.19.19 0 0 0 0-.24.88.88 0 0 0 0-.32v-.48a.44.44 0 0 0 0-.32c.1-.24.15-.5.16-.76v-.08c0-.08 0-.12-.08-.16-.08-.04.08-.2.16-.32.12-.14.19-.3.2-.48a.34.34 0 0 0 .12-.24.6.6 0 0 0 .2-.28.55.55 0 0 1 .32-.28h.08v-.08c0-.08.12-.12.24-.2.12-.06.21-.14.28-.24a.24.24 0 0 0 .2-.08l.32-.16c.12-.12.16-.12.28-.08h.08a.21.21 0 0 0 .16-.12.15.15 0 0 0 .12 0h.48c.3-.1.62-.13.92-.08l.12.08.08-.08a.52.52 0 0 0 .44.2c.05.05.1.09.16.12h.08c.1.08.2.12.32.12.23.2.4.47.48.76v.16h.12c.02.22.1.43.24.6v.4l.08.08c.01.1.04.2.08.28a.32.32 0 0 0 .12.44c-.08 0-.08.12-.08.2v.28l.08.12V20c-.1.26-.1.54 0 .8-.08.08 0 .2 0 .28v.24h.08v.16h.08V22a.3.3 0 0 1 0 .2.56.56 0 0 0 .08.44v.08a.15.15 0 0 0 0 .12v.08a.09.09 0 0 0 .08.08v.16h-.08v.08a.3.3 0 0 0 0 .2l-.08.12a.08.08 0 0 0 .08.08.55.55 0 0 0 .16.44s0 .08.08.08v.2h-.12v.32a.87.87 0 0 0-.12.2V25h.12v.2l.2.12a.24.24 0 0 0 0 .16h-.16V27l-.12.08.16.16v.16h-.12l.2.24a.4.4 0 0 1 0 .12.34.34 0 0 0-.08.24v.08l-.08.08v.12h-.2l.16.16h-.16l.12.12V29a.21.21 0 0 0 .08.16c.08.02.17.02.24 0v.16h.2c.12-.02.25-.02.36 0h.16v-.12c.04-.56.04-1.12 0-1.68a9.52 9.52 0 0 1 0-1.52v-.28"/><path fill="#F37021" d="M0 40h40V0H0v40Zm37.88-2.12H2.12V2.12h35.76v35.76Z"/></svg>