<svg xmlns="http://www.w3.org/2000/svg" viewBox="0 0 1033.4 871.8"><path fill="#0A75BA" d="M1033 624v-62a1 1 0 0 0-1-1h-23a37 37 0 0 0-10 2l-8 1a127 127 0 0 0-19 7q-30 13-46 22l-41 23-72 42-105 36h-4l-102 5-53-5h-5l-58-196 149 20c33 7 67 1 98-11 36-13 70-29 98-52 4-3 11-8 12-12v-1a278 278 0 0 1-37 10l-17 3h-34l-66-16-28-9-40-11a135 135 0 0 0-72 2 257 257 0 0 0-42 16l-13 2a86 86 0 0 0 2-14l2-16 3-21 2-15 1-14 2-16a110 110 0 0 0 2-11l2-21 3-12 107 8c21 5 42 12 64 16a203 203 0 0 0 72 1c52-7 101-35 143-66q2-1-1-1l-12 3a178 178 0 0 1-35 5c-19 1-38-2-56-8l-43-17-31-14a222 222 0 0 0-38-12 278 278 0 0 0-28-6 239 239 0 0 0-27-1c-39 1-76 17-110 37l-1-2 4-27 2-18 1-12 3-29 4-35 97-20 29 9 27 11a118 118 0 0 0 31 8c23 2 48 1 70-6a201 201 0 0 0 49-21 329 329 0 0 0 40-30c15-13 25-23 39-39a15 15 0 0 0 3-4 1 1 0 0 0-1-1 32 32 0 0 1-8 2c-6 1-11 3-17 3l-14 1a237 237 0 0 1-42 0l-25-2-27-4-37-6a49 49 0 0 0-6-1l-16-2-8-2a159 159 0 0 0-17 0h-23a71 71 0 0 0-11 2l-11 1c-37 6-73 19-107 33l-9 4 1-4 2-17v-3l2-13a45 45 0 0 0 1-7l1-13h-6L419 87l-14 5-54 9-13 1a1 1 0 0 0-1 1 3 3 0 0 0 0 1c13 83 24 148 40 233l4 20 18 93 46 228-7-1a55 55 0 0 0-8-1l-35-7-70-26-41-21-59-46-98-154-2-1H69a1 1 0 0 0-1 1v8l-60 8H1a1 1 0 0 0-1 1v43a1 1 0 0 0 1 0h29l125 184 21 38a473 473 0 0 0 51 67l2 4 18 18a236 236 0 0 0 21 20l12 10a13 13 0 0 0 7 1 78 78 0 0 0 27-7c16-7 33-19 47-30l32 22c8 6 26 17 36 16a22 22 0 0 0 9-1c11-3 21-9 30-15l30-17 23 16a97 97 0 0 0 45 17c11 1 26-6 35-12l30-20a217 217 0 0 0 23 14q10 6 18 8c6 1 11 3 17 3 14 1 25 2 38-6a219 219 0 0 0 29-19 78 78 0 0 0 11 8c19 12 37 17 61 17l3-3a17 17 0 0 0 1-3l13-36 6-15 11-22 59-74 36-22 74-12c1 0 2-1 2-3a27 27 0 0 0 0-4Z"/><path fill="#0A75BA" d="m832 835-14-1-10-1-15-4-35-16a2 2 0 0 0-3 0l-3 3-42 22-28-1-43-21-3-2a3 3 0 0 1-1 0l-1-1a1 1 0 0 0-1-1 1 1 0 0 0-1 0l-2 3-62 22-27-3-42-19-1-1-5 4-39 20-45-2-44-25a21 21 0 0 0-3-2 3 3 0 0 0-3 1c-18 13-34 23-55 28l-15 3-21 1a2 2 0 0 0-1 2c1 5 17 10 22 11a33 33 0 0 0 12 0 157 157 0 0 0 24-7l35-2 9 4 1 1a112 112 0 0 0 42 18q16 2 20 1c6 0 12 0 18-2a164 164 0 0 0 18-4 138 138 0 0 0 30-16 160 160 0 0 0 24 14 105 105 0 0 0 30 9h18l17-2a229 229 0 0 0 26-8l9-2 12-5c15 6 30 11 46 14 8 2 18 2 26 1l14-2 17-6a93 93 0 0 0 19-11l10 5q9 5 23 7a63 63 0 0 0 18 0 21 21 0 0 0 6-5l15-16a34 34 0 0 0 3-3 2 2 0 0 0 2-1c1-2 0-2-1-2Z"/></svg>
