<svg xmlns="http://www.w3.org/2000/svg" viewBox="0 0 194.3 194.3"><path fill="#0f6c37" d="M160.7 94.8c6 2.4 11.1 6.6 14.6 12 2 3.2 3.8 6.6 5.3 10.1 4 10 8.2 20.4 12.4 31.3 1.1 2.8 2.9 7.5-1.4 8.6a56.2 56.2 0 0 1-18.7.4c-2.2-.2-4-1.6-4.9-3.6-3.2-9.2-6.9-19.4-11-30.5-3-7.9-7.9-15.6-16.8-16.8-3.3-.4-6.6-.5-9.9-.4-.2 0-.4.2-.4.4v47.6c0 2.1-2.5 3.1-4.3 3.3s-20.1 2-20.1-3.2V40.3c0-3.5 6.9-3.6 9.3-3.6 3.4-.1 6.8 0 10.2.3 2.2.2 4.9.9 4.9 3.7v44.5c0 .2.1.4.3.4 4.4 0 8.7.3 12.8-1.2 7.4-2.8 11.3-11.4 13.7-18.3l8.4-25a5.5 5.5 0 0 1 4.8-4c5.8-.7 11.6-.7 17.4.1 2.3.4 3.3 1.6 3.1 3.8-.3 2.5-1 5-1.9 7.4L180 70.8c-3.7 9.9-9.1 19.7-19.2 23.4-.5.2-.5.4-.1.6ZM24.4 57.3v28.8c0 .2.2.3.4.3h23.1c16.2.3 31.8 5.8 37.3 22.3 1.5 5 2 10.3 1.5 15.6-2.2 23.8-22.7 32.8-43.7 32.9H7.2c-5.6 0-7.3-3.6-7.2-8.7V44.4c0-5.2 3.7-7.1 8.2-7.1h66.5c2.3 0 3.4 1.8 3.8 3.8.5 3.7 1.1 11.3-1.1 14.6-.9 1.2-2.1 1.2-3.6 1.2H24.9c-.3 0-.5.2-.5.5m0 47.2v34.3c0 .2.1.2.2.2h19.6c9.9 0 17.9-7.3 17.8-16.4v-2.1c0-9-8-16.3-17.9-16.3H24.6c-.1 0-.2 0-.2.2v.1Z"/></svg>
