<svg xmlns="http://www.w3.org/2000/svg" viewBox="0 0 692 476.3"><path fill="#2d4899" d="M692 238.1c0 131.6-154.9 238.2-346 238.2S0 369.6 0 238 154.9 0 346 0s346 106.6 346 238.1m-12.8 0C679.3 113.6 530 12.7 346 12.7S12.7 113.7 12.7 238 162 463.6 346 463.6s333.2-101 333.2-225.5Zm-354.6-33c.3.6.1.7-.4.4-24-14.6-38.2-38.8-22.8-65.7a67.3 67.3 0 0 1 57.2-33.4q39.3-1 85.2-.3h3.2q28.1-.1 59.2.1a.5.5 0 0 0 .6-.5V60.4a.5.5 0 0 0-.6-.6q-70.4.5-135.4.2-11.3 0-19.5.7a109.3 109.3 0 0 0-53.5 19.1C267.6 100.6 253 137 267 172a88.5 88.5 0 0 0 38.8 42.7A88.7 88.7 0 0 0 332 225a228 228 0 0 0 30 4.5.8.8 0 0 0 .8-.6l3-8.9a.6.6 0 0 0-.6-.8c-8.6-.6-19.6-3-25-10q-3.9-5.1-2.3-13.6 3.2-17 18.5-25.4a77.3 77.3 0 0 1 25.3-8.5A171.8 171.8 0 0 1 420 160c26.4 1.6 57.8 11.8 69.2 38.5 5.6 13 5.3 28.4-3.7 39.7-10 12.7-25.2 16.8-40.8 20.3A269 269 0 0 1 375 265a222.8 222.8 0 0 1-46.6-7c-40.6-10.4-77.3-28.1-107-57.4a1.3 1.3 0 0 1-.4-1v-128a.2.2 0 0 0-.2-.2h-59.5a.3.3 0 0 0-.3.2V301a.4.4 0 0 0 .5.5H220a.9.9 0 0 0 1-1V233c0-.6.2-.7.6-.2 20.2 21.8 46.8 36.9 75 47.8 26 10 51.3 16.6 77.8 18.3a387 387 0 0 0 58.3-.8 534.7 534.7 0 0 0 55.3-7.4 189 189 0 0 0 41.5-13c31.5-14.1 57.4-40 48.7-77.8-5.4-23.6-27-40.3-48.1-49.8a184.7 184.7 0 0 0-41.6-13 335.8 335.8 0 0 0-80.8-5.3 270.4 270.4 0 0 0-44.3 5.9 77 77 0 0 0-33.7 14.5c-16.8 14.3-15 35-5.1 52.8Zm305.7 125a.5.5 0 0 0 .4-.2l10.2-12.4a.5.5 0 0 0-.4-.9h-589a.5.5 0 0 0-.3.9l10 12.4a.5.5 0 0 0 .5.2ZM590.1 366a.6.6 0 0 0 .3-.1l18.9-14.9a.6.6 0 0 0-.4-1H83a.6.6 0 0 0-.3 1l18.9 14.9a.6.6 0 0 0 .3 0Zm-271.8 68.7c81.6 4.2 165.2-9.9 236.7-47.3 1.2-.6 1.1-1-.2-1H137c-1.2 0-1.3.3-.2.9 55.5 29.3 118.7 44.1 181.4 47.4Z"/></svg>
