<svg xmlns="http://www.w3.org/2000/svg" width="41" height="40" fill="none"><path fill="#0D47A1" d="M27 21.7c-2.4 0-4.7-.4-7-.9s-4.6-.7-6.8-.8C6.2 20 0 22.6 0 25.8c0 3.2 6.3 5.9 13.1 5.8 2.3 0 4.6-.3 7-.9a25.7 25.7 0 0 0 16.1-.8 8.5 8.5 0 0 0 3.2-2.4 3 3 0 0 0 .6-1.8v-2.1c-.4 3.5-7 5.5-13 5.6-1 0-2 0-3.2-.2.6-.4 1.3-.8 1.7-1.4h1.3c3.3 0 6.4-.4 9.5-1.7a8.5 8.5 0 0 0 3.2-2.4 3 3 0 0 0 .6-1.8v-2.1c-.4 3.5-7 5.5-13 5.6h-.6c0-.5-.3-1-.8-1.6H27c3.3 0 6.4-.4 9.5-1.7a8.5 8.5 0 0 0 3.2-2.4 3 3 0 0 0 .6-1.8v-2.1c-.6 4-7.3 6.1-13.2 6.1Zm-13.9 7.8c-4.5 0-8-1.7-8-3.6 0-1.8 3.7-3.6 8-3.6 4.5 0 8 1.7 8 3.6.2 1.8-3.5 3.6-8 3.6Z"/><path fill="#0D47A1" d="M13 18.3c2.4 0 4.7.4 7.1.9 2.2.5 4.5.7 6.7.8C34 20 40 17.4 40 14.3s-6.3-5.9-13-5.8c-2.4 0-4.7.3-7 .9a25.7 25.7 0 0 0-16.2.8 8.2 8.2 0 0 0-3.2 2.4c-.3.6-.6 1-.6 1.7v2.1c.4-3.5 7.1-5.5 13-5.6 1.1 0 2.1 0 3.2.2-.6.4-1.3.8-1.7 1.4h-1.2c-3.3 0-6.4.4-9.5 1.7a8.2 8.2 0 0 0-3.2 2.4c-.3.6-.6 1-.6 1.8v2.1c.4-3.5 7.1-5.5 13-5.6h.6c.1.5.3 1 .8 1.6h-1.2c-3.3 0-6.4.4-9.5 1.7a8.2 8.2 0 0 0-3.2 2.4c-.2.5-.5 1-.5 1.7v2.1c.4-3.9 7.1-6 13-6Zm14-7.7c4.4 0 8 1.7 8 3.6 0 1.8-3.8 3.6-8 3.6-4.6 0-8-1.7-8-3.6-.2-1.9 3.4-3.6 8-3.6Z"/></svg>