<svg xmlns="http://www.w3.org/2000/svg" viewBox="0 0 457.8 457.8"><path fill="#f3a802" d="M350 421c-37 23-77 33-121 34V348a112 112 0 0 0 58-15c4-2 6-2 8 2l30 47 23 34c0 1 2 2 2 5Zm22-16 4-2c30-26 52-57 67-93 1-3 0-5-3-6l-33-11-61-21c-3-2-5-1-6 3a125 125 0 0 1-35 47l67 83Zm81-224c-1-4-3-4-6-3l-52 13-44 10c-3 1-5 2-4 6 3 15 3 30 0 45-1 2-1 4 2 4l21 6 31 6 47 12c3 0 4 0 5-3a245 245 0 0 0 0-96Zm-114 2c2 4 4 4 8 3l93-32c3-2 4-3 3-6-9-21-20-40-34-58-2-3-3-4-7-1l-57 46-22 19c6 9 13 18 16 29Zm-28-41c1 1 3 0 4-1l10-11 60-61c2-2 2-4-1-6-14-13-30-25-49-34l-49 95c9 5 17 11 25 18ZM255 10l-3 28-8 69c0 3 0 4 3 5l18 4c7 2 7 2 10-5l20-54 14-34c1-3 2-5-2-7-15-5-30-9-47-12-4-1-5 2-5 6Zm-26-7h-4c-14 0-27 2-41 4-3 0-3 2-3 4l7 30 8 35 7 34c1 2 1 3 3 2l23-2V3Zm-62 124 16-8c7-3 7-3 4-9l-2-8-29-83c-1-3-3-4-5-3l-14 6-27 13 57 92ZM84 54 59 77c-3 4-2 5 1 8l69 58c3 3 6 6 9 7l12-10c5-5 5-5 1-10l-28-35-34-44-5 3Zm-64 84c-2 4 0 5 3 6l91 37c4 1 5 0 7-3l6-12c2-3 2-4-1-6l-62-42-25-16c-8 12-14 24-19 36ZM9 166c-3 11-6 22-7 34 0 3 2 3 4 3l44 5 55 6c4 0 5-1 5-4l3-14L9 166Zm116 122c-1-3-3-3-6-1l-33 17-55 29c-4 1-4 3-2 6l10 16c2 4 4 4 7 2l28-20 54-38c1-1 2-1 2-3l-5-8Zm-16-45v-9c0-4-2-5-6-5H6c-2 0-4-1-6 1l2 27 107-14Zm-88 66 86-34c9-4 9-4 6-14 0-3-2-3-4-2l-15 3-44 11-39 9c-3 1-4 2-4 4l8 22c0 2 1 3 3 2l3-1Zm146 28c4-6-1-6-4-9-3-2-5 0-7 3l-32 44-27 38c6 6 14 10 21 14l49-90Zm-30-26-76 66c-2 2-2 4 0 6l11 11c3 3 5 3 8-1l48-53 20-22-8-9-3 2Zm69 37-10 52-9 47c-1 3 1 5 4 5l10 1c5 1 7 0 7-4l8-94c1-8 1-9-9-9l-1 2Zm-20-8c-3-1-4 1-5 3l-20 48-18 42c-1 4-1 6 3 7l12 4c2 1 4 0 5-2l9-31 14-46 6-21c0-3-4-3-6-4Z"/></svg>
