<svg xmlns="http://www.w3.org/2000/svg" width="40" height="40" fill="none"><path fill="#3B175C" fill-rule="evenodd" d="M20.31 0c.53 0 1.1.02 1.73.07v3.84c0 16.91.64 24.22 3.14 35.5-3.2.8-6.58.8-9.77-.01 2.52-11.36 3.17-18.67 3.17-35.49V.07C19.2.02 19.78 0 20.3 0Zm19.3 21.43a18.4 18.4 0 0 0-8.97-15.65l.08 4.46a14.74 14.74 0 0 1 5.22 11.2c0 2.02-.43 3.95-1.2 5.72a18.92 18.92 0 0 1-4.98-7.85c-1.24-3.7-1.53-7.74-1.58-12.7V4.5l-.44-.2-.42-.15c-.84-.32-1.7-.58-2.6-.77l.01 3.24c.12 17.09 3.08 24.13 7.49 29.42 4.5-3.4 7.39-8.67 7.39-14.6ZM15.88 6.61V3.37c-1.18.27-2.34.64-3.46 1.12l.01 2.13c-.05 4.94-.33 9-1.57 12.7a18.9 18.9 0 0 1-5 7.84c-.76-1.77-1.19-3.7-1.19-5.73C4.67 17 6.7 13 9.9 10.25l.07-4.47A18.37 18.37 0 0 0 1 21.43c0 5.93 2.9 11.2 7.4 14.6 4.4-5.28 7.36-12.33 7.48-29.42Z" clip-rule="evenodd"/></svg>