<svg xmlns="http://www.w3.org/2000/svg" width="40" height="40" fill="none"><path fill="url(#a)" fill-rule="evenodd" d="M27.9 39h11a.7.7 0 0 0 .7-1l-6.3-13.2c-.3-.7-.8-1-1.8-1h-6.7L39 2.2a.8.8 0 0 0-.7-1.2H26.9a1.9 1.9 0 0 0-1.7 1L19 11.4 14.4 2a1.6 1.6 0 0 0-1.6-1h-11a.7.7 0 0 0-.7 1l6.3 13.2c.3.7.8 1 1.7 1H16L1.7 37.8a.8.8 0 0 0 .7 1.2h11.4a1.9 1.9 0 0 0 1.7-1l6.2-9.5 4.6 9.5a1.6 1.6 0 0 0 1.6 1Z" clip-rule="evenodd"/><defs><linearGradient id="a" x1="3.3" x2="37.6" y1="9.2" y2="31" gradientUnits="userSpaceOnUse"><stop stop-color="#00D5D9"/><stop offset="1" stop-color="#F000EC"/></linearGradient></defs></svg>