<svg xmlns="http://www.w3.org/2000/svg" viewBox="0 0 200 200"><path fill="#393186" d="M185.1 71.6a95.4 95.4 0 0 1 3.4 42.1l-.4 2.7a94.2 94.2 0 0 1-44.6 64.8l-2.3 1.4a94.6 94.6 0 0 1-85.4 3.9l-.5 1-.2.2H33.8v-.1l5-11v-.2A95.1 95.1 0 0 1 .2 93.5L.4 91a94.5 94.5 0 0 1 43.8-71.1l2.3-1.4A93.8 93.8 0 0 1 108 6.2a93.9 93.9 0 0 1 69.7 48H199.9v.1l-7 15.4c-.4.7-1 1.4-1.6 1.7l-1 .1h-5.1M109.5 55a64.6 64.6 0 0 1-8.3 20.5 49.4 49.4 0 0 1-22.4 18.9c5 2.8 8.3 8 8.7 13.6.2 2-.2 3.8-1 5.6L58.1 181a88.7 88.7 0 0 0 78-2.3l2.4-1.3a89.1 89.1 0 0 0 40.4-105.9H138.3c-4.2.4-7.5 4-9.7 7.4a75 75 0 0 0-5.3 10.3h24.8c2.9 0 6.1-.4 8.8 1.2a42.5 42.5 0 0 1 4.4 3.2 18 18 0 0 1 4.1 10.8c.3 4.6-1.3 9.2-3.5 13.3a46.5 46.5 0 0 1-5 7.5 65.3 65.3 0 0 1-25 18c-1.8.7-3.2 1-4.9 1h-25.2l6.8-16.3 18.1.2a8 8 0 0 0 1.7-.1 8.2 8.2 0 0 0 3.2-2.2c2.2-2 4.1-4 5.8-6 2.5-2.8 5.6-7.3 4-11.1a8.4 8.4 0 0 0-3.3-3.5l-1.5-.9c-.5-.2-1.2-.3-2.1-.3l-12.7-.1a6 6 0 0 0-5.1 2.3c-.4.4-.8 1.2-1.3 2.3l-8.3 19H87.5L102.1 93a99.8 99.8 0 0 1 10.5-19 52.6 52.6 0 0 1 16.5-15.5 33 33 0 0 1 15.5-4.4H171c.1 0 0 0 0 0a89.5 89.5 0 0 0-86.8-42.5A88 88 0 0 0 17 56.8a88.5 88.5 0 0 0-7.3 68.9L39 54.3h23.2l-12.7 27c-.2.5-.6 1-.7 1.6-.3.9 0 1.6.6 2.3l.3.1h16.5c.4 0 .6-.2.9-.4 2.5-1.6 4.8-3.3 6.8-5A41 41 0 0 0 86 63.6a100.2 100.2 0 0 0 3.3-8.7h20.3v.2m-79.4 72.8H10.3a89.3 89.3 0 0 0 31 43l22.8-50 .1-.2.7-4.7v-4.2a9.4 9.4 0 0 0-4.5-7.3c-1.2-.8-2.5-1.4-3.8-1.9a3 3 0 0 0-1-.1h-13c-.8 0-1.4 0-1.8.8l-10.6 24.5v.1Z"/></svg>
