<svg xmlns="http://www.w3.org/2000/svg" viewBox="0 0 194.3 121.1"><path fill="#0f6c37" d="M160.7 58.2a30.6 30.6 0 0 1 14.6 12 61.3 61.3 0 0 1 5.3 10.1c4 10 8.2 20.4 12.4 31.3 1.1 2.8 2.9 7.5-1.4 8.6a40.7 40.7 0 0 1-10.5.9 56.4 56.4 0 0 1-8.2-.5 5.8 5.8 0 0 1-4.9-3.6c-3.2-9.2-6.9-19.4-11-30.5-3-7.9-7.9-15.6-16.8-16.8a63.5 63.5 0 0 0-9.9-.4.4.4 0 0 0-.4.4v47.6c0 2.1-2.5 3.1-4.3 3.3s-20.1 2-20.1-3.2V3.7c0-3.5 6.9-3.6 9.3-3.6a81.8 81.8 0 0 1 10.2.3c2.2.2 4.9.9 4.9 3.7v44.5c0 .2.1.4.3.4 4.4 0 8.7.3 12.8-1.2 7.4-2.8 11.3-11.4 13.7-18.3l8.4-25a5.5 5.5 0 0 1 4.8-4 67.5 67.5 0 0 1 17.4.1c2.3.4 3.3 1.6 3.1 3.8a33.6 33.6 0 0 1-1.9 7.4 1290 1290 0 0 0-8.5 22.4c-3.7 9.9-9.1 19.7-19.2 23.4-.5.2-.5.4-.1.6ZM24.4 20.7v28.8c0 .2.2.3.4.3h23.1c16.2.3 31.8 5.8 37.3 22.3a39.2 39.2 0 0 1 1.5 15.6C84.5 111.5 64 120.5 43 120.6H7.2c-5.6 0-7.3-3.6-7.2-8.7V7.8C0 2.6 3.7.7 8.2.7h66.5c2.3 0 3.4 1.8 3.8 3.8.5 3.7 1.1 11.3-1.1 14.6-.9 1.2-2.1 1.2-3.6 1.2H24.9a.5.5 0 0 0-.5.5m0 47.2v34.3c0 .2.1.2.2.2h19.6c9.9 0 17.9-7.3 17.8-16.4V84c0-9-8-16.3-17.9-16.3H24.6a.2.2 0 0 0-.2.2Z"/></svg>
