<svg xmlns="http://www.w3.org/2000/svg" viewBox="0 0 376.19 376.49"><path fill="#00a54f" d="M0 187.63C-1.18 92.16 80.42 4.26 178.77.18 298.42-4.79 376.3 93 376.19 188.37c-.12 100.53-80.74 186.57-185.73 188.1C89.41 378-.62 300.68 0 187.63ZM188.55 12.56c-97.62-.05-176.75 79.27-176 178.15.76 100.45 83.16 174.8 176 174.6 97.23-.2 176.33-78.81 176.43-175.84.08-97.71-78.85-176.86-176.43-176.91ZM55.44 117.16C39.07 153 32.58 190 42.8 228.86c9.91 37.66 38.38 60 76 59.87 38.5-.14 72.93-27.92 82.27-67 5.83-24.36 2.17-46.31-18.35-63.27-3.3-2.72-5.32-3.11-8.53.38-9 9.8-18.53 19.13-27.71 28.78-2.32 2.43-4.1 2.71-6.58.31a312.08 312.08 0 0 0-12.2-11.07c-2.31-2-2.22-3.75-.12-5.82 3.56-3.51 7-7.12 10.48-10.71s7-7.29 11.34-11.74c-33.78-5-64.33-15.37-92-34.36a32.18 32.18 0 0 0-1.96 2.93Zm55.3-58.61c-3.94 2.34-5.33 4.57-2.52 8.6 6.08 8.72 11.14 18.36 18.27 26.09 22.13 24 49.33 34.32 81.59 25.25 27.32-7.68 45.41-26.6 58-51.45 2.16-4.27 1.46-6.25-2.57-8.56-23.6-13.56-48.93-20.5-78.6-20.62a149 149 0 0 0-74.17 20.69Zm163.92 155.69c12.45 24.17 18.37 50 20.62 78.19 25.33-26.89 39.36-57.28 42.32-92.46 2.59-30.74-4.23-59.66-18.83-87.51a201 201 0 0 1-91 35.9c20.23 19.82 34.61 42.06 46.89 65.88Z"/></svg>
