<svg xmlns="http://www.w3.org/2000/svg" width="40" height="41" fill="none"><path fill="#DB0334" d="m21.3 14.6 1.2-.3 13.4-5A19.5 19.5 0 0 0 21.4.1L19.7 0C12.3 0 6.6 3.3 3 9.2a19 19 0 0 0-3 10.6c0 2 .2 3.5.4 4.2.2 1.7 1.1 3.5 1.6 3.8.3.2.8.4 1.3.4l1-.2 13.3-5c-.4-.7-1.2-2.1-2.7-5.3a32.5 32.5 0 0 1-3.5-10.5l.1-.6c0-.7.4-1.4 1.1-1.4.9.1 1.7.8 2.6 1.7 1.7 1.7 4.1 5.7 4.9 6.8.3.7.7.9 1.2.9Z"/><path fill="#DB0334" d="m18.6 25.4-1.2.3L4 30.8a19.8 19.8 0 0 0 16.2 9.3c7.4 0 13.1-3.3 16.8-9.2A20 20 0 0 0 39.6 16c-.2-1.7-1.1-3.5-1.7-3.8a2.6 2.6 0 0 0-2.4-.2l-13.3 5c.4.7 1.2 2.1 2.7 5.3 2.4 5.1 3.3 8.1 3.5 10.5v.5c0 .7-.4 1.4-1 1.4-.9-.1-1.7-.8-2.6-1.7-1.7-1.7-4.1-5.7-4.9-6.8-.3-.6-.8-.8-1.3-.8Z"/></svg>