<svg xmlns="http://www.w3.org/2000/svg" viewBox="0 0 129.4 129.4"><path fill="#cff0c9" d="M74.25 35.4s42.34 21.24 42.68 22.12c.22.56.8 1.62 1.02 2.18.55 1.41 1.7 5.8 1.7 5.8.64 1.92 1.1 3.9 1.4 5.9a45.1 45.1 0 0 1-11.5 38.3c-2.4 2.6-5.4 4.2-8.1 6.5a17.74 17.74 0 0 1-7.3 3.4.9.9 0 0 0-.6.6c-.2.75-.2 1.55 0 2.3a47.37 47.37 0 0 1-20.2 1.2 52.72 52.72 0 0 1-33.1-17.5l.5-.2c.4-.2.5-.4.2-.7a42.53 42.53 0 0 1-7.2-15.3 60.43 60.43 0 0 1-1-11.7c-.1-3.76.44-7.52 1.6-11.1a55.43 55.43 0 0 1 5.8-12.7 43.8 43.8 0 0 1 27.9-18.9c2.03-.46 4.14-.53 6.2-.2"/><path fill="#4aa11c" d="M41.55 23.7a.4.4 0 0 0 .1-.3v-.1a22.89 22.89 0 0 1-2.7-13.4c.4-3.1 1.6-5.9 2.6-8.8a.8.8 0 0 0-.4-1h-.2L40.9.06a.4.4 0 0 0-.55.14 28.12 28.12 0 0 0-2.8 13c.2 3.9 2 7.2 3.7 10.5h.3ZM24.45 28.8c2-.6 4.1-1 6.2-1.5a9.1 9.1 0 0 1 6.4 1c.9.7 1.1.5.5-.5-4.2-6.7-14.4-14.7-23.1-13.3l-8.9 1.4h-.1v.4c0 .22.18.4.4.4 4.8.12 9.58.62 14.3 1.5a28.24 28.24 0 0 1 13.2 6.9c.2.1.2.2.1.4l-.2.2c0 .06-.04.1-.1.1a34.45 34.45 0 0 0-17.4-6.7 63.4 63.4 0 0 1-14.2-2.5.8.8 0 0 0-.8.1l-.3.2a.5.5 0 0 0 0 .5 29.8 29.8 0 0 1 6.8 5.5 17.58 17.58 0 0 0 17.2 5.9Z"/><path fill="#4aa11c" d="M128.65 88.2a5.27 5.27 0 0 0-.6 2.4c-.02.31-.09.61-.2.9l-2.3 5c-.63 1-1.19 2.03-1.7 3.1-.9 1.6-2 2-3.3 1a1.5 1.5 0 0 0-1.9.1c-3 2.7-4.2 5.7-3.5 8.8.03.41-.11.81-.4 1.1a50.69 50.69 0 0 1-21.2 11.9 47.37 47.37 0 0 1-20.2 1.2 52.72 52.72 0 0 1-33.1-17.5 49.43 49.43 0 0 1-12.2-35.8c.8-9.3 5.2-18.1 10.7-25.4a1.4 1.4 0 0 1 1.4-.5c9.1 2.4 14.7-10.4 16.4-17.6a2.4 2.4 0 0 1 1.4-1.7c4.7-2.1 13.5-5.3 18.4-3.6 2 .7 2.3 2.5 3.6 3.9 1.3 1.4.3.5 0 .8a8.68 8.68 0 0 1-4.9 3.4 1 1 0 0 0-.73 1.21l.03.09c.42 1.03.72 2.1.9 3.2.1.5-.2.9-1 1.2a9.51 9.51 0 0 1-6.2 7.8h-.9c-3.1-1.2-7.3-1.6-8.3 2.4-.14.42-.38.8-.7 1.1a23.75 23.75 0 0 0-3.7 5.2 1 1 0 0 0 .8 1.4h.7c.6.2.7.4.2.8a.99.99 0 0 0-.5.4 1 1 0 0 0-.3 1v1.3a.89.89 0 0 1-.4.8l-6.1 4.4a.6.6 0 0 0-.26.81l.06.09c.35.89.45 1.86.3 2.8 0 .4-.3.5-.7.5l-2-.2a.6.6 0 0 0-.77.36.32.32 0 0 0-.03.14l-1 3.6a2 2 0 0 0 .1 1.3l.8 2.6c.1.29.1.61 0 .9a36.2 36.2 0 0 1-2.3 3.7c-3 4.4-4.7 12.3-.6 16.4s7.6 7.9 12.6 6.2a7.2 7.2 0 0 1 5.5.5c.48.18.82.6.9 1.1.6 3.1 3.4 5.2 5.8 6.7s2.6 2.4 2.2 4.3a2.4 2.4 0 0 0 1.6 2.7c1.4.49 2.74 1.13 4 1.9 3.6 2.7 9.5 5.7 13.3 2.5a12.93 12.93 0 0 0 3.5-5.4c.1-.36.1-.74 0-1.1a3.9 3.9 0 0 1 1.1-4.7c.7-.86.78-2.06.2-3l-3.4-4.6c-.2-.34-.2-.76 0-1.1a33.78 33.78 0 0 0 6.7-16.7c.1-.9-.2-1-.8-.5a45.3 45.3 0 0 1-7.3 4.8.5.5 0 0 1-.7-.1l-.3-.2c-.1-.2-.1-.4.1-.5l5.9-4.4c.3-.21.52-.54.6-.9a5.08 5.08 0 0 1 2.6-3.7c.31-.17.53-.46.6-.8a13 13 0 0 0-.1-4.4.8.8 0 0 0-.8-.7l-3.4-.3a.6.6 0 0 1-.5-.6c.07-.29.25-.54.5-.7l5.8-2.7c2.7-1.1 4.3 2.2 6.5.2a.61.61 0 0 1 .85.03l.05.07a33.6 33.6 0 0 0 7.2 6.2c1.3.9 2.7.6 4.2.7 1.5.1 1.2-.9.7-1.4a18.4 18.4 0 0 1-4.5-14.3 1.8 1.8 0 0 1 1.7-1.7c1.5 0 2.3.4 2.6 1.3.98.12 1.97.02 2.9-.3a.8.8 0 0 1 .8.1 4 4 0 0 0 4 .4c1.13-.4 1.53-1.1 1.2-2.1-.7-2.7-1.9-4.8-4.8-5.1a1.98 1.98 0 0 1-1.3-.9c-.5-1.2-.3-1.9.7-2.2a.9.9 0 0 0 .5-1c-1-3.2-1.2-7.2-4.4-9.2a84.06 84.06 0 0 0-7.9-4.2 1 1 0 0 1-.2-1.6l.8-.6c.5-.4.4-.8-.2-1a14.54 14.54 0 0 1-4.1-2.9.9.9 0 0 1-.3-.9v-.3c.1-.2.2-.3.4-.2a50.8 50.8 0 0 1 10.3 7.8h.2l.1-.2a61.52 61.52 0 0 0-14.1-10.8c-17.2-9.2-34.83-9.53-52.9-1a.7.7 0 0 0-.4.9c.3.94.3 1.96 0 2.9-1.8 4.5-8.3 14.7-13.9 8a.8.8 0 0 0-1-.1 54.34 54.34 0 0 0-12.2 20.7 56 56 0 0 0 32.5 69.5c21 8.4 43.9 3.1 60.1-12.3 2.1-2 1.4-2.9 1.7-5.4a6.17 6.17 0 0 1 3.3-4.6c.31-.16.65-.23 1-.2 3.1.7 4.5-3.8 5.2-5.7 1.6-2.7 2.66-5.69 3.1-8.8.1-.7 0-.8-.4-.2Zm-35.1-40.3-1.1 2.5c-.2.6-.5.6-.8 0a2.2 2.2 0 0 1 1.29-2.83l.21-.07c.4-.2.5 0 .4.4Zm4.1-11.8c-.4.3-1.4-.4-2.3-1.5-.9-1.1-1.3-2.4-.9-2.7.4-.3 1.4.4 2.3 1.5s1.3 2.3.9 2.7Zm-9.1-14.2.2-.4c.2-.5 2.9.1 6.1 1.3l1.4.5c.2.13.28.38.2.6l-.5 1.4a.39.39 0 0 1-.44.35.3.3 0 0 1-.16-.05l-1.4-.5c-3.2-1.2-5.6-2.6-5.4-3.2Zm-30.6 33.7a6.4 6.4 0 0 0 2.1-5.6c-.1-.8.2-.9.7-.3.5.6 1.6 4.1-.7 6.3a2 2 0 0 1-1.5.6h-.5c-.6-.3-.6-.6-.1-1Zm5.6 39.2a1.2 1.2 0 0 1-1.5-.1 1.1 1.1 0 0 1-.4-1.5 1 1 0 0 1 1.5.1c.48.33.65.97.4 1.5Zm10.4-21.5c0 .47-.27.9-.7 1.1-1.6.72-3.28 1.26-5 1.6-1.4.2-2.5-.4-3.8-.9a.9.9 0 0 0-1.2.9c.1 1.6-.7 2.1-2.2 1.6l-4.3-1.7a1.2 1.2 0 0 1-.6-1.4c.2-.38.2-.82 0-1.2a1.3 1.3 0 0 0-1.7-.9l-6.4 2.2c-.3.1-.5 0-.7-.3V74c-.1-.1-.1-.2.1-.3.2-.1 1.5-.7 2.1-1.6l2.8-4.4a2.2 2.2 0 0 1 3.4-.3l2.6 2.4a.8.8 0 0 1 .2.9 1.8 1.8 0 0 1-.9 1.2c-.4.2-.4.5-.1.8a3.7 3.7 0 0 0 1.8.7c.4.1.6-.1.5-.6-.12-.99.02-1.98.4-2.9a1.5 1.5 0 0 0-.87-1.93l-.23-.07a2.1 2.1 0 0 1-1.6-1.4.7.7 0 0 1 .5-.86.72.72 0 0 1 .5.06 9.7 9.7 0 0 1 4.2 5.4c.2.48.68.8 1.2.8.7.1 1-.3.9-.9a8.62 8.62 0 0 0-.4-2.2c-.2-.5 0-.7.5-.6.5.1 2 2.1 2.6 3.1a1 1 0 0 0 1.1.5c1-.3 2.06-.4 3.1-.3a.8.8 0 0 0 .8-.6c.08-.42.29-.81.6-1.1.6-.7.8-.6.8.3v3.2Zm.8-9.2-7.3 2a.5.5 0 0 1-.67-.22.5.5 0 0 1-.03-.38l.4-2.4c0-.28.22-.5.5-.5l7.2-.2c.4-.1.7.4.5.8l-.2.6-.4.3Zm6.7 42.2c-.7-1-1.1-2-.8-2.1.3-.1 1 .4 1.7 1.4s1.1 1.9.9 2.1c-.3.2-1.1-.4-1.8-1.4Zm.6-5.7a1.7 1.7 0 0 1 2.4-.2c.34.84.05 1.8-.7 2.3-.9.7-2 .7-2.4.2a1.7 1.7 0 0 1 .7-2.3Zm1.8 13.4a.8.8 0 0 1-1-.5.9.9 0 0 1 .8-.8.9.9 0 0 1 1 .5c.1.4-.3.8-.8.8Zm4.6-6.1c.7.9.8 1.8.4 2.1-.4.3-1.2-.2-1.9-1s-.8-1.9-.4-2.2c.4-.3 1.2.2 1.9 1.1Zm-2-21.4c-.7.8-3.4-.4-6.1-2.7l-1.4-1.3c-2.7-2.3-4.2-4.8-3.5-5.6h.1l10.9 9.5v.1Zm-1.6-31.8c.3-.2.8.1 1 .6a.9.9 0 0 1-.2 1.2 1 1 0 0 1-1.1-.6.9.9 0 0 1 .3-1.2Zm-3.7 2.1-.7 1.2a.8.8 0 0 0 .1 1.13l.1.07c1.2 1 3.2 2.5 3.7 4a.7.7 0 0 1-.5 1l-.7.2a.8.8 0 0 1-.99-.55l-.01-.05a5.64 5.64 0 0 0-2.5-2.8 2.19 2.19 0 0 1-1.3-2.3 3.1 3.1 0 0 1 2.3-2.6c.8-.2.9 0 .5.7Z" opacity=".99"/><path fill="#4aa11c" d="M100.8 104.35a1.1 1.1 0 0 0-.85.35l-2.8 2.5c-.3.32-.41.78-.3 1.2l1 4.3c.13.59.71.97 1.3.85.23-.05.44-.17.6-.35l2.1-2a.9.9 0 0 0 .3-.9l-.3-4.8a1.1 1.1 0 0 0-1.05-1.15Z"/></svg>
