<svg xmlns="http://www.w3.org/2000/svg" width="40" height="40" fill="none"><path fill="#006F8B" fill-rule="evenodd" d="m3.6 13.3 3-1.2c5.2-1.4 10.4-.8 15 1.7a19 19 0 0 0-11.2 3.5c-1.7 1.2-4.4 4-4.2 4.3l1.5-.5c1.1-.6 3.4-1.5 3.7-1.5l-.6.5c-.7.4-.8.5-2.2 1.8-1.1 1-.9 1.2.2.6-1 1-2.8 3-3.5 4.5 0 0 .7-.3 1.4-1a17.5 17.5 0 0 1 4.3-2.6c.2-.1.2-.2.1-.2-.2 0-.3 0-.3-.2a24 24 0 0 1 4.5-4.1l1.5-1c-1.7.1-3.5.1-5.1.5l-1.1.3c0-.3 3.1-1.6 4.5-2 4.1-1.2 9.2-.7 13 1.2 1.7.8 4.3 2.7 4.3 3l-1.3-.2c-6.4-2-11.7 0-13.1 5.1a8 8 0 0 0 2.3 8 7 7 0 0 0 5.5 2c1.3 0 2.5-.2 3.7-.8A17.7 17.7 0 1 0 3.6 13.3ZM40 20a20 20 0 1 1-40 0 20 20 0 0 1 40 0Z" clip-rule="evenodd"/></svg>