<svg xmlns="http://www.w3.org/2000/svg" width="41" height="40" fill="none">
    <path fill="#CD1F45" d="M39.92 19.7V19c-.52-3.84-4-7.59-7.1-9a18.81 18.81 0 0 0-6.16-1.88 15.22 15.22 0 0 1-4.56-1.28l-.36-.24c-.12-.08-.24-.12-.36-.2-.7-.53-1.35-1.13-1.92-1.8a6.2 6.2 0 0 1-.8-1.28L18.5 3v16.86h1.8v-12c.3.29.64.54 1 .76 1.46.65 3.01 1.08 4.6 1.28 1.9.28 3.76.78 5.55 1.48 4 1.8 6.4 6 6.67 8.35v3H21.74v8.39c.52 0 1.05-.04 1.56-.12h.16v-6.62H40v-1.72c0-.88 0-2-.08-3"/>
    <path fill="#073D59" d="M18.46 23.26a29.92 29.92 0 0 0-7.48 1.16c-.4.12-.84.28-1.24.44-.16-.44-.28-.84-.4-1.24v-.16A16 16 0 0 1 9 21.54h9.47v1.72Zm0 8.7h-.12c-.32-.07-.68-.11-1-.23A10.23 10.23 0 0 1 13.75 30a10.18 10.18 0 0 1-3.12-3.4c.08 0 .16 0 .24-.08a.3.3 0 0 0 .16-.08c.8-.24 1.72-.52 2.68-.72a33.9 33.9 0 0 1 4.72-.56V32l.03-.03Zm-7.39-1.43a16.1 16.1 0 0 1-1.76-.76l-.24-.12c-.48-.24-1-.48-1.44-.76 0 0-.12 0-.16-.12-.04-.12.08-.12.16-.2l.12-.16c.29-.28.6-.53.92-.76 0 0 .08 0 .12-.08a.15.15 0 0 1 .12 0c.08.1.14.2.2.32l.2.32a15 15 0 0 0 1.76 2.12c.07.1.15.2.24.28h-.24v-.08ZM6.23 27.1c-.12.18-.26.35-.4.52-.28-.24-.56-.48-.8-.72a9 9 0 0 1-3-5.35H7c.07 1.01.25 2.02.52 3 .12.41.28.81.48 1.19l-.2.12-.2.12c-.5.32-.96.7-1.37 1.12Zm-3.8-8.83c.27-.8.66-1.53 1.16-2.2a13.5 13.5 0 0 1 1.8-2c.1-.08.2-.18.28-.28a7 7 0 0 0 1.92 1.6h.08l.28.16c-.12.32-.28.72-.4 1.12v.16c-.08.32-.2.64-.24.92-.14.64-.25 1.3-.3 1.95H2c.06-.5.18-.97.35-1.44h.07Zm4.85-5.72a19.32 19.32 0 0 1 1.8-1h.12c.44-.22.9-.42 1.36-.6l.4-.16h.12l-.2.2c-.66.65-1.25 1.38-1.76 2.16l-.24.4-.24.36a5.67 5.67 0 0 1-1.4-1.31.49.49 0 0 0 .11-.08l-.07.03ZM39.2 25.78H24.7v1.72h10c-.38.37-.8.7-1.24 1a24.29 24.29 0 0 1-13.07 3.6V21.54H37V19.7H9c0-.52.12-1 .2-1.48 0-.16.08-.36.12-.52.1-.45.24-.89.4-1.32l.24.08c.33.13.66.24 1 .32.89.28 1.8.48 2.72.6h.24c.68.12 1.48.24 2.36.32.68.08 1.4.08 2.16.12v-2a38.05 38.05 0 0 1-4.76-.48c-.9-.16-1.8-.38-2.68-.68-.12 0-.24 0-.32-.08-.08-.08-.08 0-.12 0L11 14a12.32 12.32 0 0 1 2.8-2.92 10.77 10.77 0 0 1 4.5-1.85h.16v-2h-.16a40.1 40.1 0 0 0-4.56.6c-.92.2-1.83.46-2.72.8a16.32 16.32 0 0 0-3.44 1.48c-.9.5-1.75 1.07-2.58 1.68a14.93 14.93 0 0 0-3 3.12 10.31 10.31 0 0 0-1.92 5.72C0 23.9 1.76 27 5 29.49c.2.12.38.26.56.4.2.12.36.28.56.4.36.2.72.44 1.08.64.13.09.26.17.4.24.48.24 1 .48 1.44.68l.24.12c.57.26 1.16.49 1.76.68a29 29 0 0 0 9.19 1.48 25.8 25.8 0 0 0 14.31-4 16.8 16.8 0 0 0 2.08-1.6 31.3 31.3 0 0 0 2.6-2.68l-.02-.07Z"/>
</svg>