<svg xmlns="http://www.w3.org/2000/svg" viewBox="0 0 128.7 129.4"><path fill="#4aa11c" d="M41.3 23.4a.4.4 0 0 1-.1.3h-.3c-1.7-3.3-3.5-6.6-3.7-10.5A28.1 28.1 0 0 1 40 .2a.4.4 0 0 1 .6-.1h.2a.8.8 0 0 1 .4 1c-1 2.9-2.2 5.7-2.6 8.8a22.9 22.9 0 0 0 2.7 13.4Zm-8.4 2.3a.1.1 0 0 1-.1.1 34.5 34.5 0 0 0-17.4-6.7 63.2 63.2 0 0 1-14.2-2.5.8.8 0 0 0-.8.1l-.3.2a.5.5 0 0 0 0 .5 29.9 29.9 0 0 1 6.8 5.5 17.6 17.6 0 0 0 17.2 5.9c2-.6 4.1-1 6.2-1.5a9.1 9.1 0 0 1 6.4 1c.9.7 1.1.5.5-.5-4.2-6.7-14.4-14.7-23.1-13.3l-8.9 1.4h-.1v.4a.4.4 0 0 0 .4.4 91.1 91.1 0 0 1 14.3 1.5A28.2 28.2 0 0 1 33 25.1c.2.1.2.2.1.4l-.2.2Zm84.7 34a6.5 6.5 0 0 0 2.9-.3.8.8 0 0 1 .8.1 4 4 0 0 0 4 .4q1.7-.6 1.2-2.1c-.7-2.7-1.9-4.8-4.8-5.1a2 2 0 0 1-1.3-.9c-.5-1.2-.3-1.9.7-2.2a.9.9 0 0 0 .5-1c-1-3.2-1.2-7.2-4.4-9.2a84.1 84.1 0 0 0-7.9-4.2 1 1 0 0 1-.2-1.6l.8-.6c.5-.4.4-.8-.2-1a14.6 14.6 0 0 1-4.1-2.9.9.9 0 0 1-.3-.9v-.3c.1-.2.2-.3.4-.2a50.7 50.7 0 0 1 10.3 7.8h.2l.1-.2a61.7 61.7 0 0 0-14.1-10.8q-25.8-13.8-52.9-1a.7.7 0 0 0-.4.9 4.8 4.8 0 0 1 0 2.9c-1.8 4.5-8.3 14.7-13.9 8a.8.8 0 0 0-1-.1 54.3 54.3 0 0 0-12.2 20.7 56 56 0 0 0 32.5 69.5c21 8.4 43.9 3.1 60.1-12.3 2.1-2 1.4-2.9 1.7-5.4a6.2 6.2 0 0 1 3.3-4.6 1.8 1.8 0 0 1 1-.2c3.1.7 4.5-3.8 5.2-5.7s0-.6-.4-.7a30.7 30.7 0 0 0-1.7 3.1c-.9 1.6-2 2-3.3 1a1.5 1.5 0 0 0-1.9.1c-3 2.7-4.2 5.7-3.5 8.8a1.4 1.4 0 0 1-.4 1.1 50.7 50.7 0 0 1-21.2 11.9 47.4 47.4 0 0 1-20.2 1.2 52.7 52.7 0 0 1-33.1-17.5 49.4 49.4 0 0 1-12.2-35.8c.8-9.3 5.2-18.1 10.7-25.4a1.4 1.4 0 0 1 1.4-.5c9.1 2.4 14.7-10.4 16.4-17.6a2.4 2.4 0 0 1 1.4-1.7c4.7-2.1 13.5-5.3 18.4-3.6 2 .7 2.3 2.5 3.6 3.9s.3.5 0 .8a8.7 8.7 0 0 1-4.9 3.4A1 1 0 0 0 74 31a15 15 0 0 1 .9 3.2c.1.5-.2.9-1 1.2a9.5 9.5 0 0 1-6.2 7.8h-.9c-3.1-1.2-7.3-1.6-8.3 2.4a2.6 2.6 0 0 1-.7 1.1 23.5 23.5 0 0 0-3.7 5.2 1 1 0 0 0 .8 1.4h.7c.6.2.7.4.2.8a1 1 0 0 0-.5.4 1 1 0 0 0-.3 1v1.3a.9.9 0 0 1-.4.8L48.5 62a.6.6 0 0 0-.2.9 5.3 5.3 0 0 1 .3 2.8c0 .4-.3.5-.7.5l-2-.2a.6.6 0 0 0-.8.5l-1 3.6a2 2 0 0 0 .1 1.3L45 74a1.4 1.4 0 0 1 0 .9 37.3 37.3 0 0 1-2.3 3.7c-3 4.4-4.7 12.3-.6 16.4s7.6 7.9 12.6 6.2a7.2 7.2 0 0 1 5.5.5 1.4 1.4 0 0 1 .9 1.1c.6 3.1 3.4 5.2 5.8 6.7s2.6 2.4 2.2 4.3a2.4 2.4 0 0 0 1.6 2.7 20.9 20.9 0 0 1 4 1.9c3.6 2.7 9.5 5.7 13.3 2.5a12.9 12.9 0 0 0 3.5-5.4 2 2 0 0 0 0-1.1 3.9 3.9 0 0 1 1.1-4.7 2.6 2.6 0 0 0 .2-3l-3.4-4.6a1.1 1.1 0 0 1 0-1.1 33.8 33.8 0 0 0 6.7-16.7c.1-.9-.2-1-.8-.5a45.8 45.8 0 0 1-7.3 4.8.5.5 0 0 1-.7-.1l-.3-.2c-.1-.2-.1-.4.1-.5l5.9-4.4a1.5 1.5 0 0 0 .6-.9 5.1 5.1 0 0 1 2.6-3.7 1.2 1.2 0 0 0 .6-.8 13.1 13.1 0 0 0-.1-4.4.8.8 0 0 0-.8-.7l-3.4-.3a.6.6 0 0 1-.5-.6 1.2 1.2 0 0 1 .5-.7l5.8-2.7c2.7-1.1 4.3 2.2 6.5.2a.6.6 0 0 1 .9.1 33.6 33.6 0 0 0 7.2 6.2c1.3.9 2.7.6 4.2.7s1.2-.9.7-1.4a18.4 18.4 0 0 1-4.5-14.3 1.8 1.8 0 0 1 1.7-1.7c1.5 0 2.3.4 2.6 1.3m-22-34.4a.4.4 0 0 1-.6.3l-1.4-.5c-3.2-1.2-5.6-2.6-5.4-3.2l.2-.4c.2-.5 2.9.1 6.1 1.3l1.4.5a.5.5 0 0 1 .2.6l-.5 1.4m1.7 10.8c-.4.3-1.4-.4-2.3-1.5s-1.3-2.4-.9-2.7 1.4.4 2.3 1.5 1.3 2.3.9 2.7m-4.1 11.8-1.1 2.5c-.2.6-.5.6-.8 0a2.2 2.2 0 0 1 1.5-2.9c.4-.2.5 0 .4.4M59.7 50c-.1-.8.2-.9.7-.3s1.6 4.1-.7 6.3a2 2 0 0 1-1.5.6h-.5c-.6-.3-.6-.6-.1-1a6.4 6.4 0 0 0 2.1-5.6m25.6 6.5a1 1 0 0 1-1.1-.6.9.9 0 0 1 .3-1.2c.3-.2.8.1 1 .6a.9.9 0 0 1-.2 1.2M80.1 58a.8.8 0 0 0 .2 1.2c1.2 1 3.2 2.5 3.7 4a.7.7 0 0 1-.5 1l-.7.2a.8.8 0 0 1-1-.6 5.7 5.7 0 0 0-2.5-2.8 2.2 2.2 0 0 1-1.3-2.3 3.1 3.1 0 0 1 2.3-2.6c.8-.2.9 0 .5.7l-.7 1.2m-12.8 4.6 7.2-.2c.4-.1.7.4.5.8l-.2.6-.4.3-7.3 2a.5.5 0 0 1-.7-.6l.4-2.4a.5.5 0 0 1 .5-.5M59 73.4c.4.1.6-.1.5-.6a5.7 5.7 0 0 1 .4-2.9 1.5 1.5 0 0 0-1.1-2 2.1 2.1 0 0 1-1.6-1.4.7.7 0 0 1 1-.8 9.7 9.7 0 0 1 4.2 5.4 1.3 1.3 0 0 0 1.2.8c.7.1 1-.3.9-.9a8.5 8.5 0 0 0-.4-2.2c-.2-.5 0-.7.5-.6s2 2.1 2.6 3.1a1 1 0 0 0 1.1.5 8 8 0 0 1 3.1-.3.8.8 0 0 0 .8-.6 2 2 0 0 1 .6-1.1c.6-.7.8-.6.8.3v3.2a1.2 1.2 0 0 1-.7 1.1 23.5 23.5 0 0 1-5 1.6c-1.4.2-2.5-.4-3.8-.9a.9.9 0 0 0-1.2.9c.1 1.6-.7 2.1-2.2 1.6l-4.3-1.7a1.2 1.2 0 0 1-.6-1.4 1.3 1.3 0 0 0 0-1.2 1.3 1.3 0 0 0-1.7-.9l-6.4 2.2c-.3.1-.5 0-.7-.3V74c-.1-.1-.1-.2.1-.3s1.5-.7 2.1-1.6l2.8-4.4a2.2 2.2 0 0 1 3.4-.3l2.6 2.4a.8.8 0 0 1 .2.9 1.8 1.8 0 0 1-.9 1.2c-.4.2-.4.5-.1.8a3.6 3.6 0 0 0 1.8.7m27.1 13.1c-.7.8-3.4-.4-6.1-2.7l-1.4-1.3c-2.7-2.3-4.2-4.8-3.5-5.6h.1l10.9 9.5m-22.9 8.4a1.2 1.2 0 0 1-1.5-.1 1.1 1.1 0 0 1-.4-1.5 1 1 0 0 1 1.5.1 1.2 1.2 0 0 1 .4 1.5m20.9 5.6a1.9 1.9 0 0 1-.7 2.3c-.9.7-2 .7-2.4.2a1.7 1.7 0 0 1 .7-2.3 1.7 1.7 0 0 1 2.4-.2m-1.2 7.3c-.3.2-1.1-.4-1.8-1.4s-1.1-2-.8-2.1 1 .4 1.7 1.4 1.1 1.9.9 2.1m5.6 2.3c-.4.3-1.2-.2-1.9-1s-.8-1.9-.4-2.2 1.2.2 1.9 1.1.8 1.8.4 2.1m-4.2 3.2c.1.4-.3.8-.8.8a.8.8 0 0 1-1-.5.9.9 0 0 1 .8-.8.9.9 0 0 1 1 .5Zm41.3-16a23.8 23.8 0 0 0 3.1-8.8c.1-.7 0-.8-.4-.2a5.3 5.3 0 0 0-.6 2.4 2.9 2.9 0 0 1-.2.9l-2.3 5c.4.1.5.3.4.7Zm-24.1 8.3a1.1 1.1 0 0 0-1.9-.8l-2.8 2.5a1.3 1.3 0 0 0-.3 1.2l1 4.3a1.1 1.1 0 0 0 1.9.5l2.1-2a.9.9 0 0 0 .3-.9l-.3-4.8Z"/><path fill="#cff0c9" d="M73.9 35.4a9.5 9.5 0 0 1-6.2 7.8h-.9c-3.1-1.2-7.3-1.6-8.3 2.4a2.6 2.6 0 0 1-.7 1.1 23.5 23.5 0 0 0-3.7 5.2 1 1 0 0 0 .8 1.4h.7c.6.2.7.4.2.8a1 1 0 0 0-.5.4 1 1 0 0 0-.3 1v1.3a.9.9 0 0 1-.4.8L48.5 62a.6.6 0 0 0-.2.9 5.3 5.3 0 0 1 .3 2.8c0 .4-.3.5-.7.5l-2-.2a.6.6 0 0 0-.8.5l-1 3.6a2 2 0 0 0 .1 1.3L45 74a1.4 1.4 0 0 1 0 .9 37.3 37.3 0 0 1-2.3 3.7c-3 4.4-4.7 12.3-.6 16.4s7.6 7.9 12.6 6.2a7.2 7.2 0 0 1 5.5.5 1.4 1.4 0 0 1 .9 1.1c.6 3.1 3.4 5.2 5.8 6.7s2.6 2.4 2.2 4.3a2.4 2.4 0 0 0 1.6 2.7 20.9 20.9 0 0 1 4 1.9c3.6 2.7 9.5 5.7 13.3 2.5a12.9 12.9 0 0 0 3.5-5.4 2 2 0 0 0 0-1.1 3.9 3.9 0 0 1 1.1-4.7 2.6 2.6 0 0 0 .2-3l-3.4-4.6a1.1 1.1 0 0 1 0-1.1 33.8 33.8 0 0 0 6.7-16.7c.1-.9-.2-1-.8-.5a45.8 45.8 0 0 1-7.3 4.8.5.5 0 0 1-.7-.1l-.3-.2c-.1-.2-.1-.4.1-.5l5.9-4.4a1.5 1.5 0 0 0 .6-.9 5.1 5.1 0 0 1 2.6-3.7 1.2 1.2 0 0 0 .6-.8 13.1 13.1 0 0 0-.1-4.4.8.8 0 0 0-.8-.7l-3.4-.3a.6.6 0 0 1-.5-.6 1.2 1.2 0 0 1 .5-.7l5.8-2.7c2.7-1.1 4.3 2.2 6.5.2a.6.6 0 0 1 .9.1 33.6 33.6 0 0 0 7.2 6.2c1.3.9 2.7.6 4.2.7s1.2-.9.7-1.4a18.4 18.4 0 0 1-4.5-14.3 1.8 1.8 0 0 1 1.7-1.7c1.5 0 2.3.4 2.6 1.3l1.7 5.8a35 35 0 0 1 1.4 5.9 45.1 45.1 0 0 1-11.5 38.3c-2.4 2.6-5.4 4.2-8.1 6.5a17.7 17.7 0 0 1-7.3 3.4.9.9 0 0 0-.6.6 4.5 4.5 0 0 0 0 2.3 47.4 47.4 0 0 1-20.2 1.2 52.7 52.7 0 0 1-33.1-17.5l.5-.2c.4-.2.5-.4.2-.7A42.6 42.6 0 0 1 33.4 90a60.6 60.6 0 0 1-1-11.7A33.1 33.1 0 0 1 34 67.2a55.3 55.3 0 0 1 5.8-12.7 43.8 43.8 0 0 1 27.9-18.9 16.3 16.3 0 0 1 6.2-.2m27.6 70.1a1.1 1.1 0 0 0-1.9-.8l-2.8 2.5a1.3 1.3 0 0 0-.3 1.2l1 4.3a1.1 1.1 0 0 0 1.9.5l2.1-2a.9.9 0 0 0 .3-.9l-.3-4.8Zm-8.3-57.6c.1-.4 0-.6-.4-.4a2.2 2.2 0 0 0-1.5 2.9c.3.6.6.6.8 0l1.1-2.5Zm-35.6 7.7c-.5.4-.5.7.1 1h.5a2 2 0 0 0 1.5-.6c2.3-2.2 2.5-4.2.7-6.3s-.8-.5-.7.3a6.4 6.4 0 0 1-2.1 5.6Zm27.7.9a.9.9 0 0 0 .2-1.2c-.2-.5-.7-.8-1-.6a.9.9 0 0 0-.3 1.2 1 1 0 0 0 1.1.6Zm-5 2.7a.8.8 0 0 1-.2-1.2l.7-1.2c.4-.7.3-.9-.5-.7a3.1 3.1 0 0 0-2.3 2.6 2.2 2.2 0 0 0 1.3 2.3 5.7 5.7 0 0 1 2.5 2.8.8.8 0 0 0 1 .6l.7-.2a.7.7 0 0 0 .5-1c-.5-1.5-2.5-3-3.7-4Zm-13 3.4a.5.5 0 0 0-.5.5l-.4 2.4a.5.5 0 0 0 .7.6l7.3-2 .4-.3.2-.6c.2-.4-.1-.9-.5-.8l-7.2.2Zm-7.8 10.2c.1.5-.1.7-.5.6a3.6 3.6 0 0 1-1.8-.7c-.3-.3-.3-.6.1-.8a1.8 1.8 0 0 0 .9-1.2.8.8 0 0 0-.2-.9l-2.6-2.4a2.2 2.2 0 0 0-3.4.3l-2.9 4.4c-.6.9-1.3 1-2.1 1.6s-.2.2-.1.3v.3c.2.3.4.4.7.3l6.4-2.2a1.3 1.3 0 0 1 1.7.9 1.3 1.3 0 0 1 0 1.2 1.2 1.2 0 0 0 .6 1.4l4.3 1.7c1.5.5 2.3 0 2.2-1.6a.9.9 0 0 1 1.2-.9c1.3.5 2.4 1.1 3.8.9a23.5 23.5 0 0 0 4.9-1.6 1.2 1.2 0 0 0 .7-1.1v-3.2c0-.9-.2-1-.8-.3a2 2 0 0 0-.6 1.1.8.8 0 0 1-.8.6 8 8 0 0 0-3.1.3 1 1 0 0 1-1.1-.5c-.6-1-1.3-2.9-2.6-3.1s-.7.1-.5.6a8.5 8.5 0 0 1 .4 2.2c.1.6-.2 1-.9.9a1.3 1.3 0 0 1-1.2-.8 9.7 9.7 0 0 0-4.2-5.4.7.7 0 0 0-1 .8 2.1 2.1 0 0 0 1.6 1.4 1.5 1.5 0 0 1 1.1 2 5.7 5.7 0 0 0-.4 2.9Zm26.6 13.7L75.2 77h-.1c-.7.8.8 3.3 3.5 5.6l1.4 1.3c2.7 2.3 5.4 3.5 6.1 2.7Zm-22.9 8.3a1.2 1.2 0 0 0-.4-1.5 1 1 0 0 0-1.5-.1 1.1 1.1 0 0 0 .4 1.5 1.2 1.2 0 0 0 1.5.1Zm20.9 5.6a1.7 1.7 0 0 0-2.4.2 1.7 1.7 0 0 0-.7 2.3c.4.5 1.5.5 2.4-.2a1.9 1.9 0 0 0 .7-2.3Zm-1.2 7.3c.2-.2-.1-1.1-.9-2.1s-1.5-1.6-1.7-1.4.1 1.1.8 2.1 1.5 1.6 1.8 1.4Zm5.6 2.3c.4-.3.3-1.3-.4-2.1s-1.5-1.4-1.9-1.1-.2 1.3.4 2.2 1.5 1.3 1.9 1Zm-4.2 3.2a.9.9 0 0 0-1-.5.9.9 0 0 0-.8.8.8.8 0 0 0 1 .5c.5 0 .9-.4.8-.8Z"/></svg>
