<svg xmlns="http://www.w3.org/2000/svg" viewBox="0 0 4429.1 4196.2"><path fill="#393186" d="M4100 1469q142 456 75 933l-10 59q-82 460-348 840-254 362-638 596l-52 30a2094 2094 0 0 1-991 269q-471 7-899-184a1 1 0 0 0-2 1l-11 25a4 4 0 0 1-3 2H750a1 1 0 0 1-1-2l111-244a3 3 0 0 0-1-3 2109 2109 0 0 1-553-601Q70 2802 15 2350q-23-192-10-395l4-58q54-527 340-958 246-371 631-617l51-31q392-230 838-278 260-29 524 8c329 45 642 171 912 361q391 275 630 701a3 3 0 0 0 3 2h490l1 2-158 340c-7 15-19 31-34 37-6 3-14 4-24 4h-112a1 1 0 0 0-1 1m-1673-366c-37 161-97 318-184 453a1092 1092 0 0 1-496 416 1 1 0 0 0 0 2 379 379 0 0 1 193 302c4 44-4 83-21 123l-632 1493a1 1 0 0 0 0 1q415 186 870 173 451-13 857-224l53-29q341-195 578-496c203-258 340-563 395-888 53-322 28-651-75-960a3 3 0 0 0-3-2l-849-2-51 1c-91 9-164 91-213 165a1666 1666 0 0 0-118 227h548c65 0 136-7 195 27q33 19 64 40 23 16 35 31 85 105 91 239c5 102-29 205-78 294a1008 1008 0 0 1-113 166q-165 197-392 327-78 45-159 73c-40 14-72 23-109 23h-558a1 1 0 0 1-1-1l151-361a2 2 0 0 1 2-1l399 5c16 0 28-1 37-3 27-7 51-29 71-48q72-65 129-131c55-63 124-162 87-248-14-32-41-57-71-77a210 210 0 0 0-34-19c-11-5-26-7-47-7l-280-3q-75-1-115 52c-8 9-16 26-27 50l-184 421a3 3 0 0 1-3 2h-432a2 2 0 0 1-1-2l327-761c63-149 139-290 232-421 98-137 218-261 365-344q161-91 344-96h581a1 1 0 0 0 1-2 1981 1981 0 0 0-909-794 1975 1975 0 0 0-1012-146q-456 55-837 302-382 248-622 645-16 26-30 53-211 383-242 814-25 361 78 709a2 2 0 0 0 1 1 1 1 0 0 0 2 0l647-1581a2 2 0 0 1 2-1h512c2 0 2 1 1 2l-281 596c-6 12-13 23-16 36-6 20-1 37 14 52a6 6 0 0 0 5 2h367c7 0 13-4 19-8q83-56 151-112c80-66 149-142 201-228a1053 1053 0 0 0 67-132q39-93 69-189a4 4 0 0 1 4-3h449c1 0 2 1 1 3M668 2717a2 2 0 0 1-2 1l-436-3a1 1 0 0 0-2 2 1977 1977 0 0 0 686 954 2 2 0 0 0 2-1l504-1107a20 20 0 0 0 2-5q10-52 15-106 4-49-1-93c-7-70-41-124-98-161a377 377 0 0 0-85-41 66 66 0 0 0-21-4H943c-17 0-30 1-38 19l-236 542a9 9 0 0 1-1 3Z"/></svg>
