<svg xmlns="http://www.w3.org/2000/svg" width="40" height="40" fill="none"><path fill="#183964" fill-rule="evenodd" d="M15.48 6.05c3.83 2.5 15.95 10.92 24.48 22.35.07.11.05.23-.02.3a.21.21 0 0 1-.08.05.25.25 0 0 1-.17 0 90.4 90.4 0 0 0-8.5-1.85c-.03 0-.07 0-.1-.04a140.54 140.54 0 0 0-10.66-8.3c-.04-.04-.08-.08-.08-.16a29.36 29.36 0 0 0-5.18-12c-.15-.24.08-.5.31-.35ZM21.4 26.5c2.66-.46 6.3-.15 9.65.39a.17.17 0 0 1 .08.01 101.01 101.01 0 0 1 6.9 6.7c.1.1.09.24 0 .33a.2.2 0 0 1-.22.06c-2.97-.8-13.63-3.36-24.25-1.31a.3.3 0 0 1-.27-.2C12.86 30.54 9.54 15.75.08 7.06c-.2-.2.03-.5.27-.39a147.84 147.84 0 0 1 19.92 11.78c.08.04.12.08.12.15.73 3.75.73 6.76.73 7.69 0 .15.12.27.27.23Z" clip-rule="evenodd"/></svg>