<svg xmlns="http://www.w3.org/2000/svg" viewBox="0 0 43.4 43.4"><path d="M0 42.1V1.3h43.4v41H0Zm3-38v35h37.5v-35H3Z" style="fill:#c32406;stroke-width:0"/><path d="M3 4h37.5v35.2H3V4Z" style="fill:#fdecec;stroke-width:0"/><path d="M5 6h20.5V13c.7.4 1.3.2 2 .3 6.5 1 10.8 6 10.5 12.3-.3 6-5.2 10.8-11.7 11.2-2 .1-4-.2-5.8-1-1-.4-2-.5-3-.5H5V5.9Zm1.3 28c.4.3.8.2 1.2.2h11.2c.6 0 1 0 1.5.3 6.6 3.4 14.1 0 16.2-7.2.7-2.4.2-4.5-.7-6.6-1.4-3.2-4-5-7.4-5.7-1.4-.3-2.8 0-4.1-.4V7.2h-18V34Z" style="fill:#c32406;stroke-width:0"/><path d="M7.5 8.3h15.4v5h-9c-.2.8 0 1.6 0 2.4 1.6.1 3.3-.2 4.8.9a11 11 0 0 0-4.5 7.8c-.2 3.4 1 6 3.6 8.6H7.5V8.3Z" style="fill:#c32406;stroke-width:0"/><path d="M21.2 33.8c3-2.2 4.8-5 4.7-8.7 0-3.6-1.5-6.5-4.6-8.5 3.4-1.9 8.8-1 12 2.5a9 9 0 0 1 .5 11.4c-2.9 4-7.9 5-12.6 3.3Z" style="fill:#c32406;stroke-width:0"/><path d="M15.8 22.4a9.5 9.5 0 0 1 4.3-5.2 8.5 8.5 0 0 1 4 5c-2.9-2.5-5.6-2.5-8.3.2ZM16 28c2.6 2.5 5.2 2.4 7.8.3-.3 2.3-1.8 3.5-3.4 4.6-.3.2-.5 0-.7 0A9 9 0 0 1 16 28ZM17 14.6h6c-2 1.3-4 1-6 0Z" style="fill:#c32406;stroke-width:0"/></svg>
