<?xml version="1.0" encoding="UTF-8"?><svg id="a" xmlns="http://www.w3.org/2000/svg" viewBox="0 0 58.07 68.04"><path d="M58.04,8.8C58.01,4.11,53.88.03,49.15.02,35.67-.01,22.19,0,8.71.03c-.93,0-1.79.01-2.79.5C1.87,2.5.07,5.71.07,10.05c-.02,15.97,0,31.95,0,47.92,0,.5-.14,1.05.02,1.49.83,2.17,1,4.57,3.08,6.25,1.84,1.48,3.65,2.35,6.06,2.33,13.15-.07,26.29-.02,39.44-.04,5.4,0,9.38-3.94,9.4-9.28.03-8.15,0-16.31,0-24.46s.04-16.97-.01-25.46ZM32.28,11.14v-6.13c4.65,0,9.28-.1,13.9.03,3.58.1,5.85,2.6,5.86,6.14.02,6.48,0,12.96,0,19.82h-5.95c-8.49,0-16.99.02-25.48,0-2.97,0-5.69-2.56-5.51-5.46.15-2.36-.61-4.69.79-7.17,1.3-2.29,2.5-3.44,5.16-3.4,8.16.1,16.32.04,24.89.04v-3.87h-13.67ZM26.96,62.01c-5.03,0-9.98.03-14.93-.02-1.09-.01-2.19.31-3.23-.66-1.34-1.25-2.01-2.82-2.7-4.39-.24-.56-.04-1.31-.04-1.98,0-14.3-.01-28.61,0-42.91,0-3.81,1.11-5.38,4.12-6.73,1.01-.45,1.93-.27,2.87-.28,4.49-.06,8.98-.03,13.74-.03v5.84h-14.49v45.98h14.66v5.17ZM51.1,59.89c-.44,1.87-1.66,2.15-3.29,2.14-5.14-.04-10.28-.02-15.59-.02v-4.88h13.42c.66-1.45.4-2.58.31-4.12h-11.81c-4.17,0-8.33.04-12.5-.01-4.12-.05-6.48-2.39-6.59-6.44-.04-1.5-.06-3,0-4.5.14-3.42,2.59-5.93,5.99-6.03,3-.09,6-.02,9-.02h22c0,7.16-.05,13.97.05,20.78.02,1.26-.77,2.06-1.01,3.09Z" fill="#fe0e0e" stroke-width="0"/><path d="M21.29,46.86h24.67v-4.7h-24.85c0,1.73-.33,3.33.18,4.7Z" fill="#fe0e0e" stroke-width="0"/><path d="M21.23,21.32v4.61h24.65v-4.77c-8.28,0-16.38,0-24.48.01-.12,0-.24.21-.17.14Z" fill="#fe0e0e" stroke-width="0"/></svg>