<svg xmlns="http://www.w3.org/2000/svg" width="40" height="40" fill="none"><path fill="url(#a)" fill-rule="evenodd" d="M14.8 19.9c0 7.6 5.8 13.9 13.2 14.7H14.8a14.8 14.8 0 0 1 0-29.6H28v.2C20.6 6 14.8 12.3 14.8 20Zm13.9-6.7c-.5 0-1-.3-1.2-.6-1-1.6-2.6-3-4.4-4 1.8-1 3.7-1.4 5.9-1.4h1c4 0 7.5 1.8 9.9 4.8.3.5 0 1.2-.6 1.2H28.7Zm0 13.4H39c.7 0 1 .8.6 1.3a12.6 12.6 0 0 1-9.9 4.7h-1c-2 0-4-.5-5.8-1.4 1.9-1 3.4-2.4 4.5-4l.6-.5.6-.1Zm1.4-6.7a4 4 0 0 0 4 4 4 4 0 0 0 4-4 4 4 0 0 0-4-4 4 4 0 0 0-4 4Z" clip-rule="evenodd"/><defs><linearGradient id="a" x1="-.1" x2="28" y1="19.8" y2="19.8" gradientUnits="userSpaceOnUse"><stop stop-color="#CC2445"/><stop offset=".1" stop-color="#CD213F"/><stop offset=".6" stop-color="#CE1930"/><stop offset="1" stop-color="#CF162B"/></linearGradient></defs></svg>