<svg xmlns="http://www.w3.org/2000/svg" width="40" height="40" fill="none"><path fill="#00447C" d="M18.8 12.22a.15.15 0 0 0 0-.2l-.54-.45a11.8 11.8 0 0 0-16.04 1.35 10.12 10.12 0 0 0-1.75 3.35 19.13 19.13 0 0 0 5.4 18A20.07 20.07 0 0 0 19.54 40L20 40c6.58 0 12.74-3.17 16.48-8.47a.14.14 0 0 0-.01-.19.16.16 0 0 0-.11-.04c-.03 0-.06 0-.1.02a13.42 13.42 0 0 1-18-3.35 12.74 12.74 0 0 1 .54-15.75Z"/><path fill="#00447C" d="M37.8 27.08a10.12 10.12 0 0 0 1.74-3.35 19.36 19.36 0 0 0-5.4-18A20.13 20.13 0 0 0 20.47 0L20 0A20.1 20.1 0 0 0 3.52 8.47a.15.15 0 0 0 .03.2c.02.02.06.04.1.04a13.4 13.4 0 0 1 14.6.03 12.94 12.94 0 0 1 5.96 10.79c0 3.01-1.07 5.95-3.02 8.26a.14.14 0 0 0 .02.2 11.77 11.77 0 0 0 11.16 2.49c2.13-.62 4-1.8 5.43-3.4Z"/></svg>