<svg xmlns="http://www.w3.org/2000/svg" width="40" height="40" fill="none"><path fill="url(#a)" d="M20 40a20 20 0 1 0 0-40 20 20 0 0 0 0 40Z"/><path fill="url(#b)" d="M20 40a20 20 0 1 0 0-40 20 20 0 0 0 0 40Z"/><path fill="url(#c)" d="M20 .1c-3.7 0-7.2 1-10.1 2.8-.3.2-.6.5-.8.6-6.8 6-5.9 16.9 1.6 24.3 7.5 7.4 19 8.5 25.7 2.5.7-.6 1.5-1.5 1.9-2.2 1-2.5 1.6-5.1 1.6-7.9C40 9 31 .1 20 .1Z"/><path fill="url(#d)" d="M38.2 19.4c.9-1.3 1.2-2.9 1-4.6-1.5-5.3-5-9.7-9.6-12.4-.1-.1-.3-.1-.4-.3C26.5.7 23.4 0 20 0c-2.8 0-5.4.6-7.8 1.6-.6.6-1.3 1.2-1.8 1.9-3 4.7.6 12.2 8.3 16.5 7.5 4.6 16.3 4.1 19.5-.6Z"/><defs><radialGradient id="c" cx="0" cy="0" r="1" gradientTransform="rotate(-144 26.45 8.57) scale(49 69.3)" gradientUnits="userSpaceOnUse"><stop offset=".1" stop-color="#4581E9"/><stop offset=".46" stop-color="#80ACF0"/><stop offset=".79" stop-color="#F0F6FD"/></radialGradient><radialGradient id="d" cx="0" cy="0" r="1" gradientTransform="matrix(-43.4 3 -3.5 -51.8 61.75 6.07)" gradientUnits="userSpaceOnUse"><stop stop-color="#4581E9"/><stop offset=".54" stop-color="#87B1F0"/><stop offset=".81" stop-color="#CCE0FD"/><stop offset="1" stop-color="#F0F6FD"/></radialGradient><linearGradient id="a" x1="20.01" x2="20.01" y1="40.4" y2="3.24" gradientUnits="userSpaceOnUse"><stop stop-color="#4581E9"/><stop offset=".48" stop-color="#80ACF0"/><stop offset="1" stop-color="#fff"/></linearGradient><linearGradient id="b" x1="46.84" x2="12.64" y1="40.66" y2="14.33" gradientUnits="userSpaceOnUse"><stop stop-color="#4581E9"/><stop offset="1" stop-color="#4581E9" stop-opacity="0"/></linearGradient></defs></svg>