<svg xmlns="http://www.w3.org/2000/svg" width="89" height="22">
    <path fill="#222" fill-rule="evenodd" d="M88.05 10.96v-.15h-3.96V11c0 3.91-3.2 7.09-7.16 7.09-3.95 0-7.16-3.18-7.16-7.09s3.2-7.09 7.16-7.09h.12V0h-.12C70.8 0 65.82 4.93 65.82 11s4.98 11 11.11 11c6.13 0 11.12-4.93 11.12-11v-.04zM36.68.4l-7.15 21.2h4.09l.8-2.38c.12-.34.32-.55.76-.55h6.53c.44 0 .65.21.76.55l.8 2.38h4.1L40.2.4h-3.53zm3.73 14.58h-3.94c-.41 0-.65-.24-.51-.66l2.07-6.17c.2-.55.65-.55.83 0l2.05 6.17c.15.44-.08.66-.5.66zm19.06-1.81c.34.65.88.51.88-.21V.4h3.94v21.19h-4.77l-6.8-12.76c-.35-.65-.88-.51-.88.21V21.6H47.9V.4h5l6.57 12.77zm-39.24 3.98V.4h-3.94v21.2h12.66v-3.7H21a.73.73 0 0 1-.77-.75zm-6.12-10.9c0 1.79-.78 3.25-2.14 4.23a5.88 5.88 0 0 1 2.59 4.96c0 3.56-2.57 6.16-6 6.16H0V.4h8.13c3.7 0 5.98 2.4 5.98 5.84zM4.5 3.88c-.35 0-.56.21-.56.55v4.03c0 .33.21.57.56.57h2.9c1.47 0 2.51-1.1 2.51-2.57A2.48 2.48 0 0 0 7.4 3.88H4.5zm.04 14.17h2.93c1.74 0 2.82-1.2 2.83-2.78 0-1.56-1.1-2.74-2.82-2.74H4.55c-.36 0-.6.25-.6.62v4.3c0 .36.25.6.6.6z" clip-rule="evenodd"/>
</svg>