<svg xmlns="http://www.w3.org/2000/svg" width="40" height="40" fill="none"><path fill="#1D1D1B" d="M.01 0h40v40h-40z"/><path fill="#F9F8FD" fill-rule="evenodd" d="M34.67 20.1v-.05h-1.31v.06c0 1.3-1.07 2.36-2.4 2.36a2.37 2.37 0 0 1-2.38-2.36c0-1.3 1.07-2.36 2.39-2.36H31v-1.3h-.04a3.69 3.69 0 0 0-3.7 3.66 3.69 3.69 0 0 0 3.7 3.67c2.04 0 3.7-1.65 3.7-3.67v-.01Zm-17.1-3.52-2.4 7.07h1.37l.27-.8c.04-.11.1-.18.25-.18h2.18c.14 0 .21.07.25.18l.27.8h1.36l-2.38-7.07h-1.18Zm1.23 4.86H17.5c-.14 0-.22-.08-.17-.22l.69-2.06c.06-.18.22-.18.28 0l.68 2.06c.05.14-.03.22-.17.22Zm6.35-.6c.12.21.3.17.3-.08v-4.18h1.3v7.06h-1.58L22.9 19.4c-.11-.22-.3-.17-.3.07v4.18h-1.3v-7.06h1.66l2.2 4.25Zm-13.07 1.32v-5.58h-1.31v7.07h4.22V22.4h-2.65a.24.24 0 0 1-.26-.25Zm-2.04-3.63c0 .6-.26 1.08-.71 1.4.54.37.86.98.86 1.66 0 1.19-.86 2.05-2 2.05H5.34v-7.06h2.7c1.24 0 2 .8 2 1.95Zm-3.2-.79c-.12 0-.19.07-.19.18v1.35c0 .1.07.19.19.19h.97c.49 0 .83-.37.83-.86 0-.48-.34-.86-.83-.86h-.97Zm.01 4.73h.98a.9.9 0 0 0 .94-.93c0-.52-.36-.92-.94-.92h-.98c-.12 0-.2.09-.2.2v1.45c0 .11.09.2.2.2Z" clip-rule="evenodd"/></svg>
