<svg xmlns="http://www.w3.org/2000/svg" width="40" height="40" fill="none"><path fill="#A61731" d="M0 0h40v40H0V0Z"/><path fill="#fff" d="m24.3 12.7 3.9 6.8c.3.4.9.4 1.2 0l3.9-6.8v9.1H37V4.5h-3.7l-4.5 8.9-4.5-8.9h-3.7v17.3h3.7v-9.1Zm-6.4 6.1v-4.5c0-1.7-1.9-3.1-3.6-3.1H6.8V7.6h10V4.5H3v17.3h11.3c1.7.1 3.6-1.4 3.6-3ZM14 17.2c0 .8-.7 1.6-1.6 1.6H6.8v-4.9h5.6c.8 0 1.6.7 1.6 1.6v1.7ZM8.2 33.4H4.4v-1.2H9v-1.1H3V37h5.1c.6 0 1.2-.5 1.2-1.1v-1.5c.1-.5-.5-1-1.1-1Zm-.1 2.1c0 .3-.2.5-.5.5H4.4v-1.7h3.2c.3 0 .5.2.5.5v.7Zm7.6-4.3h-1.4L11.1 37h1.3l.8-1.4h3.5l.8 1.4H19l-3.3-5.8Zm-2 3.5 1.3-2.3 1.3 2.3h-2.6Zm13.1-1h-4.4v-2.5h-1.3V37h1.3v-2.5h4.4V37H28v-5.8h-1.2v2.5Zm10.3-2.5h-2.2L32 33.5v-2.3h-1.3V37H32v-2.6l3.3 2.6h2.2l-3.9-3 3.5-2.8ZM0 25.7h40v1.7H0v-1.7Z"/></svg>