<svg xmlns="http://www.w3.org/2000/svg" xml:space="preserve" id="BMW" x="0" y="0" style="enable-background:new 0 0 340.16 340.16" version="1.1" viewBox="0 0 340.2 340.2"><style>.st0{fill:#fff}.st1{fill:#0066b1}</style><g><linearGradient id="SVGID_1_" x1="0" x2=".7" y1="0" y2=".7" gradientUnits="userSpaceOnUse"><stop offset="0" style="stop-color:#e6e6ea"/><stop offset=".2" style="stop-color:#e2e2e6"/><stop offset=".4" style="stop-color:#d6d6da"/><stop offset=".5" style="stop-color:#c1c2c5"/><stop offset=".7" style="stop-color:#a5a6a8"/><stop offset=".9" style="stop-color:#808384"/><stop offset="1" style="stop-color:#6a6d6d"/></linearGradient><path d="M170 0a170 170 0 1 0 0 340.2A170 170 0 0 0 170 0zm159.1 170a159 159 0 1 1-318 0 159 159 0 0 1 318 0z" class="st0"/><path id="W_60_" d="M252.5 98c2.3 2.4 5.6 6.4 7.5 8.8L294.5 85a229 229 0 0 0-6.6-8.1l-21.8 14.4-1.5 1.3 1.2-1.6 9.6-19.3-6.8-6.8-19.3 9.7-1.6 1 1.3-1.4 14.4-21.8c-2.5-2.2-5-4.1-8-6.5l-21.9 34.4a154 154 0 0 1 8.8 7.4L262.8 77l1.3-1-1 1.3L252.6 98z" class="st0"/><path id="M_60_" d="m174.4 54.3 9.4-21 .6-2-.2 2 1 28.2c3.3.3 6.7.8 10 1.3l-1.5-41.7c-4.7-.5-9.3-.9-14-1.1l-9.3 23-.3 1.7-.4-1.7-9.2-23c-4.7.2-9.4.6-14 1l-1.6 41.8c3.3-.5 6.8-1 10-1.3l1-28.2-.1-2 .6 2 9.4 21h8.6z" class="st0"/><path id="B_x5F_22d_60_" d="M98.3 87.6c5.4-5.8 8.5-12.4 3-18.7-3-3.4-7.9-4.2-12-2.5l-.4.2.1-.4a10 10 0 0 0-3.4-10.4 10.2 10.2 0 0 0-7.6-2.1c-5.2.5-9 4-19.8 15.9-3.2 3.6-8 9.3-10.7 13l29.4 27.8c9.7-10.7 13.7-14.8 21.3-22.8zm-38.4-6.9c6-7.2 12.2-13.8 15-16.4 1-.8 2-1.6 3.1-2 2-.5 4 1 4.4 2.9.4 2-.8 3.9-2.2 5.4-3.1 3.6-14.6 15.6-14.6 15.6l-5.7-5.5zm11.5 11L86.2 76c1.5-1.5 2.4-2.4 3.4-3 1.3-.6 2.7-.7 4 .1 1.2.9 1.8 2.3 1.5 3.7-.4 1.7-1.8 3.3-3 4.5l-14.7 16-6-5.7z" class="st0"/><path d="M271 170H170V69.3c55.8 0 101 45.1 101 100.9z" class="st0"/><path d="M170 170v101A100.8 100.8 0 0 1 69.3 170h100.9z" class="st0"/><path d="M170 69.2v100.9H69.3c0-55.8 45.1-100.9 100.9-100.9z" class="st1"/><path d="M271 170c0 55.8-45.2 101-101 101V170h101z" class="st1"/></g></svg>
