<svg xmlns="http://www.w3.org/2000/svg" viewBox="0 0 246.7 227.5"><path d="M128.5,150.8V113.9a.4.4,0,0,1,.4-.4h28.4a.4.4,0,0,1,.4.4V223.3a.5.5,0,0,1-.8.3l-28.4-25.7c-.1-.1-.1-.2-.1-.4V180.7a.5.5,0,0,0-.5-.5H117a.5.5,0,0,0-.4.5v16.7l-.2.3L88,223.5a.5.5,0,0,1-.8-.3V113.9c0-.2.3-.4.5-.4h28.4a.4.4,0,0,1,.4.4v36.9a.4.4,0,0,0,.4.4h11.2a.4.4,0,0,0,.4-.4Z" fill="#ec1f27"/><path d="M138.6.2l77.7,143.1c.1.2-.1.4-.3.4H182.1L104.4.5c-.1-.3,0-.5.3-.5h33.6l.3.2ZM0,193.2l16.8,32.2c.2.3.6.3.7.1L118.2,40a.7.7,0,0,0,0-.9L101.7,7.3a.6.6,0,0,0-1,0L0,192.8v.4Zm51.4-15.4c-.1.2,0,.4.3.4h27a.3.3,0,0,0,.3-.3V150.6a.4.4,0,0,0-.3-.4H66.5l-.3.2L51.4,177.8Zm152.5.4h.3L219,150.8c.2-.3,0-.5-.3-.5H165.6a.4.4,0,0,0-.4.4v27.3c0,.2.2.3.4.3ZM40,199.7c-.2,0-.3.1-.4.3L25,226.9a.4.4,0,0,0,.4.6H78.6a.4.4,0,0,0,.4-.4V200.2a.5.5,0,0,0-.4-.5Zm191.6,27.8.3-.2,14.7-27.1a.3.3,0,0,0-.2-.5H165.6a.4.4,0,0,0-.4.4v27.1c0,.2.2.3.4.3Z" fill="#25326f"/></svg>