<svg xmlns="http://www.w3.org/2000/svg" width="40" height="40" fill="none"><path fill="#B10A32" fill-rule="evenodd" d="M22.34 23.85h-7.16s-.22-.02-.33-.21c-.1-.19-.08-.29-.08-.29v-6.68s0-.24.12-.38c.12-.13.35-.14.35-.14h9.44s.15-.02.32.07c.15.09.24.4.24.4v6.86s-.08.19-.17.25c-.07.07-.23.12-.23.12h-2.5Zm-.05-12V4.46a15.7 15.7 0 0 1 .01 31.08V28.1h2.94a4.17 4.17 0 0 0 4.26-4.3v-7.7a4.26 4.26 0 0 0-4.42-4.25H22.3ZM10.42 16.1c0-2.45 1.5-4.26 3.96-4.26l3.27-.01V4.48a15.7 15.7 0 0 0 0 31.05l-.02-7.37H14.9a4.39 4.39 0 0 1-4.48-4.36v-7.7ZM.01 20a20 20 0 1 1 40 0 20 20 0 0 1-40 0Z" clip-rule="evenodd"/></svg>