<svg xmlns="http://www.w3.org/2000/svg" viewBox="0 0 65.25 65.25">
  <defs>
    <linearGradient id="a" x1="32.63" y1="2" x2="32.63" y2="67.25" gradientTransform="matrix(1 0 0 -1 0 67.25)" gradientUnits="userSpaceOnUse">
      <stop offset=".2" stop-color="#137dc1"/>
      <stop offset=".8" stop-color="#39ba9b"/>
    </linearGradient>
  </defs>
  <path d="M32.63 65.25 16.56 51.78A25.03 25.03 0 0 1 32.63 7.61 25.02 25.02 0 0 1 48.7 51.78L32.63 65.25Z" fill="#dcded3"/>
  <path d="M52.38 43.21 45.81 26.1l4.33 1.56-11.1-19.24 2.93 33.23a4.18 4.18 0 0 1-.56 2.85l-1.84 3.57-3.69-25.61 3.09 1.12L32.63 0 26.3 23.61l3.09-1.12L25.7 48.1l-1.84-3.57a4.4 4.4 0 0 1-.56-2.85l2.93-33.23-11.1 19.24 4.33-1.56c-.56 1.4-4.53 11.78-6.57 17.07a5.66 5.66 0 0 0 1.12 6.05c.8.88 1.64 1.72 2.57 2.52l16.07 13.47 16.07-13.47c.92-.8 1.8-1.6 2.57-2.52a5.65 5.65 0 0 0 1.12-6.05Z" fill="url(#a)"/>
</svg>
