<?xml version="1.0" encoding="UTF-8"?><svg id="a" xmlns="http://www.w3.org/2000/svg" viewBox="0 0 58.91 46"><path d="M39.24,6.59H0v39.41h39.24V6.59Z" fill="#ff1e10" stroke-width="0"/><path d="M58.91,0H19.67v39.41h39.24V0Z" fill="#9dd20b" stroke-width="0"/><path d="M51.7,24.93h-4.79c.05-.2,2.27-5.67,2.42-6.03.05.35,2.22,5.88,2.37,6.03ZM50.24,17.07h-1.87l-5.3,12.51h1.87s1.21-3.09,1.31-3.14h6c.05.05,1.31,3.14,1.31,3.14h1.92l-5.25-12.51Z" fill="#fff" stroke-width="0"/><path d="M7.21,23.76v4.31h2.22c1.41,0,2.93-.51,2.93-2.08,0-1.67-1.21-2.23-2.72-2.23h-2.42ZM7.21,18.64v3.5h2.42c2.57,0,4.64,1.01,4.64,3.75,0,2.89-2.27,3.65-4.84,3.65h-3.93v-12.46h7.92v1.57h-6.2Z" fill="#fff" fill-rule="evenodd" stroke-width="0"/><path d="M39.34,6.59h-19.67v32.88h19.67V6.59Z" fill="#b90006" stroke-width="0"/><path d="M24.16,17.07v1.57h4.44v10.94h1.77v-10.94h4.44v-1.57h-10.64Z" fill="#fff" stroke-width="0"/></svg>