<svg xmlns="http://www.w3.org/2000/svg" width="40" height="40" fill="none"><path fill="#006F4E" fill-rule="evenodd" d="m23.8 12.8 2.5 6.4L28 23l1.1 2.9.5 2c.4.9 1.2.9 2 .9h4.6l-3.7-8-1.7-4-4-8.5H21l-7.2 13.9-.5.9c2.5-.3 6-.9 7.2-3.2l3.3-7ZM0 31h37.2v3.3H0V31Z" clip-rule="evenodd"/><path fill="#009B9D" d="M28 23a48 48 0 0 1-12.3 5c-4.2 1-8.7 1.2-11.9-.7-3-1.7-3.8-5-3.8-7.4 0-1.5.8-3.8 2.3-5.5 2.8-3.5 8-6.4 12.3-6.5 1.5 0 2.4.5 3 4.2-1.5 0-3 .2-4.6.7-1 .4-3 1.3-5.3 2.8-2.9 2-4.7 4.2-4.8 6.2-.1 1.8 1.5 2.8 4.2 3 6.3.6 13.7-2.5 19.2-5.5l4.5-2.5 9.2-5v4.7l-7.3 4.3-4.7 2.3Z"/><path fill="#ED1C24" d="m38.5 6.8-5.3 2.7s-1.8 1-3 1.3l.8 2c.3.7 1.2 1 2 .7l7-4V6l-1.5.8Z"/></svg>