<svg xmlns="http://www.w3.org/2000/svg" viewBox="0 0 401.7 315.4"><path fill="#93462f" d="m228 0 5.3 4.8c4.5 4.2 8 9 9 15.3a29.4 29.4 0 0 1-5.1 22.5 62.3 62.3 0 0 1-13 14.3l-3.2 2c-2.2-5.8-5.1-11-9.8-15l6.4-12.9c4.4-9 8-18.4 9.7-28.4a16.6 16.6 0 0 0 0-2.6ZM334.5 188.4c1.3 3.5 1.3 3.5 5.1 3.6a52.3 52.3 0 0 1 19.2 4c8.3 3.6 12.5 10.1 14.3 18.7a50 50 0 0 1-2.4 27 157 157 0 0 0-7.8 28.7c-.5 3.3-.6 6.7-.8 10l.5.2 4.3-5.2c3.4-3.7 7.4-6 12.6-5.7 3.9.1 7.7 0 11.3 1.7a17 17 0 0 1 9.6 11.2 29.4 29.4 0 0 1 .5 15.6c-2.3 9.1-8.6 14-17.5 15.6a27.3 27.3 0 0 1-10.7.2c-3.3-.8-6.5-2.8-9.3-5a30.4 30.4 0 0 1-10.5-17.2c-1.8-6.4-.6-12.8.3-19 1.7-11.6 5.4-22.6 9.7-33.4a38 38 0 0 0 2.3-21.4c-1.8-9-7.4-14.4-16-16.7a22 22 0 0 0-9.7-.6l.8 1.5c5.5 7.4 9.1 15.5 10 24.7.6 7.1-.7 14-2.9 20.8-2.6 8-8 14.2-13.4 20.4-4.3 5-9 9.4-13.5 14.2a30.7 30.7 0 0 0-6.8 13.5 48.6 48.6 0 0 0-1.5 16.9v2.1h-62.3c.4-2.5.6-5 1.2-7.3a64.5 64.5 0 0 1 3.2-10c3.5-8 10-11 18.6-9.3 5.1 1 10.3 1.4 15.4 2.3 3 .5 5-1.2 7-2.5 7.4-4.9 12-11.3 11.6-20.6a18 18 0 0 0-3.1-9.6 10 10 0 0 0-4.2-3 34 34 0 0 0-22.3-1 59.3 59.3 0 0 0-30.7 21.2 35 35 0 0 0-7.5 21.6c-.3 5.5-.3 11-.4 16.4v2.3l-93.2-.7.5-5.6a37.7 37.7 0 0 1 3.3-12.6c3.6-7.2 9.8-10 17.4-9.2 5.5.5 11 2 16.6 2.8 6 .8 12 1.7 18 2.1a21.5 21.5 0 0 0 13.4-3.1 9.6 9.6 0 0 0 3.2-3.3c3-5.6 4.6-11.5 2.4-17.9a24 24 0 0 0-10-12c-2.8-1.9-5.8-3.4-8.9-5.3l3.4-6.8 20.3-40L231 192a2 2 0 0 1 2.2-1.3c13.1.2 26.2.7 39.4.5 15-.1 30-.8 45-1.4 5-.2 10-.9 15-1.3h1.9ZM208.2 49.8a75 75 0 0 1 11.5 25.4 50.3 50.3 0 0 1-.4 26 48 48 0 0 1-4.2 8.8q-18 33.7-36.3 67.3c-9 16.8-18.2 33.4-27 50.3-4.2 8-5.8 16.6-2.5 25.5 1.9 5 5.3 8.8 9.3 12.1l2.2 1.8-12 .4a159.8 159.8 0 0 0-29 3.9 3.5 3.5 0 0 0-1.7.8 66.9 66.9 0 0 0-9.9 13.4 25.5 25.5 0 0 0-2.6 16.5 42.9 42.9 0 0 1 .3 8.8c-.2 2.8-.9 3.4-3.6 3.4h-99c-1.2 0-2.9-.5-3.2-1.3-.4-1 .3-2.4.5-3.6a.7.7 0 0 1 .3-.5C4 306.8 5 303 7 300a23.5 23.5 0 0 1 16.4-10.6c2.4-.4 5 .6 7.5 1.3 6 1.6 12 3.5 18.1 5 2.4.7 5 1 7.4 1.3 5.9 1 10.3-1.7 14.4-5.4 5-4.5 8-10.4 11.1-16.2l32-57.2 37.1-66.4 33-59L207.6 51l.7-1.2Z"/><path fill="#93462f" d="M96.4 235.2a31 31 0 0 1-8.5-9.6c-4.2-7.2-5.4-15-4.7-23.3 1.2-13.8 6.5-26.3 12.7-38.4 7.5-14.8 16.5-28.8 25-43 1.7-2.9 3.5-3.7 6.6-3.6l32.7-.3h3Z"/><path fill="#93462f" d="M75.8 139.2c-2.8-4.6-5.2-9.2-4.3-14.5 1.5-9.6 7.3-14.6 16.4-15.1 4.7-.3 9.5-.1 14.3-.1h2.2a9.2 9.2 0 0 0-.5-1.4 24.3 24.3 0 0 1-1.3-16.3c.6-3.3 6.2-7.5 9.5-7.5h68.2l-3.9 7.2-10.3 18.9a2.2 2.2 0 0 1-2.2 1.4h-55.7l1.5 5.5c1 3.9 2 7.7 3.2 11.6.4 1.4 0 1.7-1.4 1.7-7.5 0-15 .3-22.5 0a12 12 0 0 0-10 4.8l-3.2 3.8ZM206.3 226c-2.1 4.5-3.8 8.8-6 12.8a89 89 0 0 1-7.5 12.2 24.9 24.9 0 0 1-30.5 7c-5.4-2.6-7.7-7.3-8.3-12.8a12.6 12.6 0 0 1 6.8-13 35 35 0 0 1 11.8-3.4c4.9-.6 9.9-.2 14.8-.5 5.6-.4 11-1.2 16.6-1.9.6 0 1.2-.2 2.3-.4ZM264.1 69.2c.4 3.3.9 6 1.1 9a35.7 35.7 0 0 1-1.9 16.4c-2.4 6.2-7 10.3-12.8 13.2a49 49 0 0 1-26.3 4 3.5 3.5 0 0 1-.7 0 4.7 4.7 0 0 1-.5-.4 49 49 0 0 0 5-24.5c14-1.7 25.8-7.7 36.1-17.7ZM192.2 168l6-10.2 7-12a2 2 0 0 1 2.3-1.3 126 126 0 0 0 30.8.3c3.8-.5 7.5-1.6 11.3-2.5-.1-.1 0 0 0 0a43.3 43.3 0 0 1-15.2 22 27.9 27.9 0 0 1-16.6 4.7c-8-.1-16.1-.5-24.2-.7a7.9 7.9 0 0 1-1.4-.3ZM221 198.2c-4.7 11.1-10.7 21-23.6 23.6a68.6 68.6 0 0 1-12.4.9h-20.6l-2-.2 5.4-10.1 5.6-10.4a2.2 2.2 0 0 1 2.4-1.4c8.3.3 16.6.7 25 .7 6.8 0 13.6-.5 20.2-3ZM209 138.4l8.1-14.8a42.6 42.6 0 0 0 2.1-4.4 2 2 0 0 1 2.5-1.4 74.6 74.6 0 0 0 20-.7 62.1 62.1 0 0 0 19-6.5l1.1-.6-.8 4.2c-1.2 5.9-3 11.5-7 16.1a24.9 24.9 0 0 1-16.8 8.7 120.4 120.4 0 0 1-27.2-.4l-1-.2ZM227.2 81l-3.7-14.8c-.3-1.2.3-1.6 1-2.2 3.7-2.9 7.7-5.6 11-8.8 6-5.8 9.8-13 12.8-20.7l.8-2.2c5.2 6.7 10.2 13.3 9.9 22.3a20.9 20.9 0 0 1-6.2 14A43.8 43.8 0 0 1 228.5 81h-1.3ZM235.1 172c-2.8 10.9-9.8 19.2-21.3 21.6a73.7 73.7 0 0 1-13 1.4c-7.1.1-14.3-.2-21.5-.3a14.8 14.8 0 0 1-1.8-.3l3.8-7 6.2-11a1.9 1.9 0 0 1 2-1.1c10 0 19.8 0 29.6-.3a45.4 45.4 0 0 0 16-3Z"/><path fill="#93462f" d="m106.6 135.3-5 8.5a1.6 1.6 0 0 1-1 .7h-22a27 27 0 0 1 1.4-2.8c2.7-4 6-7 11.4-6.5 4.6.3 9.3 0 14 0l1.2.1Z"/></svg>
