<svg xmlns="http://www.w3.org/2000/svg" viewBox="0 0 401.7 401.7"><path fill="#93462f" d="m228 43.1 5.3 4.8c4.5 4.2 8 9 9 15.3 1.4 8-.4 16-5.1 22.5-3.6 5.5-8 10.3-13 14.3l-3.2 2c-2.2-5.8-5.1-11-9.8-15l6.4-12.9c4.4-9 8-18.4 9.7-28.4v-2.6h.7Zm106.5 188.4q1.3 3.6 5.1 3.7c6.6 0 13.1 1.4 19.2 4 8.3 3.6 12.5 10 14.3 18.7a50 50 0 0 1-2.4 27c-3.5 9.3-6.1 18.9-7.8 28.7-.5 3.2-.6 6.6-.8 10l.5.1 4.3-5.1c3.4-3.8 7.4-6 12.6-5.8 3.9.2 7.7 0 11.3 1.8a17 17 0 0 1 9.6 11.1c1.6 5.1 1.7 10.5.5 15.7-2.3 9-8.6 14-17.5 15.6-3.5.7-7.2.8-10.7.2-3.3-.8-6.5-2.8-9.3-5-5.3-4.4-9-10.5-10.5-17.2-1.8-6.4-.6-12.8.3-19 1.7-11.6 5.4-22.6 9.7-33.4a38 38 0 0 0 2.3-21.4c-1.8-9-7.4-14.4-16-16.7a22 22 0 0 0-9.7-.6l.8 1.5a48.8 48.8 0 0 1 10 24.7c.6 7-.7 14-2.9 20.8-2.6 8-8 14.2-13.4 20.4-4.3 5-9 9.4-13.5 14.2a30.7 30.7 0 0 0-6.8 13.5c-1.5 5.5-2 11.2-1.5 16.9v2h-62.3c.4-2.4.6-5 1.2-7.2a64 64 0 0 1 3.2-10c3.5-8 10-11 18.6-9.3 5.1 1 10.3 1.4 15.4 2.3 3 .5 5-1.2 7-2.5 7.4-5 12-11.3 11.6-20.6a18 18 0 0 0-3.1-9.6 10 10 0 0 0-4.2-3 34 34 0 0 0-22.3-1c-12.2 3.5-23 11-30.7 21.2a35 35 0 0 0-7.5 21.6c-.3 5.5-.3 11-.4 16.4v2.3l-93.2-.7.5-5.6c.4-4.4 1.5-8.7 3.3-12.6 3.6-7.3 9.8-10 17.4-9.3 5.5.6 11 2 16.6 2.9 6 .8 12 1.7 18 2 4.7.5 9.4-.6 13.4-3 1.3-.9 2.4-2 3.2-3.3 3-5.6 4.6-11.5 2.4-18a24 24 0 0 0-10-12c-2.8-1.8-5.8-3.3-8.9-5.2l3.4-6.8 20.3-40 5.9-11.7a2 2 0 0 1 2.2-1.3c13.1.2 26.2.7 39.4.5 15-.1 30-.8 45-1.4 5-.2 10-1 15-1.3h1.9v-.1ZM208.2 93a74.9 74.9 0 0 1 11.5 25.4c2.1 8.6 2 17.6-.4 26-1.1 3.1-2.5 6-4.2 8.8-12 22.5-24.1 45-36.3 67.4-9 16.7-18.2 33.3-27 50.2-4.2 8-5.8 16.7-2.5 25.6 1.9 5 5.3 8.7 9.3 12l2.2 1.9-12 .4c-9.8.4-19.5 1.7-29 3.8-.6.2-1.2.4-1.7.9a67 67 0 0 0-9.9 13.3c-2.7 5.1-3.6 11-2.6 16.5.4 3 .5 6 .3 8.8-.2 2.9-.9 3.5-3.6 3.5h-99c-1.2 0-2.9-.6-3.2-1.4-.4-1 .3-2.4.5-3.6 0-.2.1-.3.3-.5 3.1-2 4.1-5.8 6.1-8.8 3.7-5.7 9.6-9.6 16.4-10.6 2.4-.4 5 .6 7.5 1.3 6 1.6 12 3.5 18.1 5 2.4.7 5 1 7.4 1.3 5.9 1 10.3-1.7 14.4-5.4 5-4.5 8-10.4 11.1-16.2l32-57.2L151 195l33-59 23.6-41.8.7-1.2h-.1Z"/><path fill="#93462f" d="M96.4 278.4a31 31 0 0 1-8.5-9.6c-4.2-7.3-5.4-15-4.7-23.4 1.2-13.8 6.5-26.3 12.7-38.4 7.5-14.8 16.5-28.8 25-43 1.7-2.9 3.5-3.7 6.6-3.6l32.7-.3h3L96.4 278.3Z"/><path fill="#93462f" d="M75.8 182.3c-2.8-4.6-5.2-9.2-4.3-14.5 1.5-9.6 7.3-14.6 16.4-15 4.7-.4 9.5-.2 14.3-.2h2.2l-.5-1.3a24.3 24.3 0 0 1-1.3-16.4c.6-3.3 6.2-7.5 9.5-7.5h68.2l-3.9 7.2-10.3 19c-.3.8-1.2 1.4-2.2 1.3h-55.7l1.5 5.5c1 4 2 7.7 3.2 11.6.4 1.4 0 1.7-1.4 1.7-7.5 0-15 .3-22.5 0a12 12 0 0 0-10 4.8l-3.2 3.8Zm130.5 86.8c-2.1 4.5-3.8 8.8-6 12.8a89.7 89.7 0 0 1-7.5 12.3 24.9 24.9 0 0 1-30.5 7c-5.4-2.7-7.7-7.4-8.3-12.9-.8-5.3 2-10.5 6.8-13a35 35 0 0 1 11.8-3.4c4.9-.5 9.9-.1 14.8-.4 5.6-.5 11-1.3 16.6-2l2.3-.3Zm57.8-156.8c.4 3.3.9 6 1.1 9 .7 5.6 0 11.2-1.9 16.4-2.4 6.3-7 10.4-12.8 13.3a49 49 0 0 1-27.5 3.5 49 49 0 0 0 5-24.5 61 61 0 0 0 36.1-17.7Zm-71.9 98.9 6-10.2 7-12a2 2 0 0 1 2.3-1.3 126 126 0 0 0 30.8.3c3.8-.5 7.5-1.6 11.3-2.5-.1-.1 0 0 0 0-2.6 8.7-8 16.4-15.2 22-4.9 3.2-10.7 4.9-16.6 4.7-8-.1-16.1-.5-24.2-.7l-1.4-.3Zm28.8 30.2c-4.7 11-10.7 21-23.6 23.5-4.1.7-8.3 1-12.4 1h-20.6l-2-.3 5.4-10 5.6-10.5c.4-1 1.4-1.5 2.4-1.4 8.3.3 16.6.7 25 .7a56 56 0 0 0 20.2-3Zm-12-59.8 8.1-14.8 2.1-4.5a2 2 0 0 1 2.5-1.4c6.7.7 13.4.5 20-.7 6.6-1 13-3.3 19-6.4l1.1-.7-.8 4.3c-1.2 5.8-3 11.4-7 16-4.2 5-10.3 8.2-16.8 8.7-9 1-18.2.8-27.2-.4l-1-.2Zm18.2-57.4-3.7-14.8c-.3-1.2.3-1.6 1-2.2 3.7-3 7.7-5.6 11-8.8 6-5.8 9.8-13 12.8-20.7l.8-2.2c5.2 6.7 10.2 13.3 9.9 22.3a21 21 0 0 1-6.2 14c-6.6 6.6-15 11-24.3 12.4h-1.3Zm7.9 91c-2.8 10.9-9.8 19.2-21.3 21.6-4.3.8-8.6 1.3-13 1.3-7.1.2-14.3-.1-21.5-.2l-1.8-.4 3.8-7 6.2-11c.3-.7 1.2-1.2 2-1 10 0 19.8 0 29.6-.4 5.5 0 10.9-1 16-3Z"/><path fill="#93462f" d="m106.6 178.4-5 8.5c-.2.4-.6.7-1 .7h-22l1.4-2.8c2.7-4 6-7 11.4-6.5 4.6.3 9.3 0 14 0l1.2.1Z"/></svg>
