<svg xmlns="http://www.w3.org/2000/svg" viewBox="0 0 47.24 33.67"><path fill="#02025b" d="M28.61.08V14a.07.07 0 0 1-.08.07H16.26a.07.07 0 0 1-.06-.07L28.48 0a.07.07 0 0 1 .13.05Zm1.87 13.69a.08.08 0 0 0 .14.06L42.86.3a.08.08 0 0 0-.06-.13H30.54a.09.09 0 0 0-.08.08v13.53ZM45.94 15a5.9 5.9 0 1 0-5.9 5.9 5.9 5.9 0 0 0 5.9-5.9m-6.84-.51c.1 0 .12-.06.07-.15a6.76 6.76 0 0 0-.86-1.06v-.05h.08l1 .71c.08.06.12 0 .14-.06l.47-2.6c0-.27.09-.27.13 0l.45 2.59q0 .14.15.06l1-.76h.07a10.28 10.28 0 0 0-.8 1.18c-.06.08 0 .13.06.14l2.92.43c.2 0 .2.06 0 .1-.91.18-1.83.32-2.76.44-.12 0-.15.07-.07.17l.64.87v.1c-.31-.26-.63-.51-1-.75a.13.13 0 0 0-.19.08c-.12.95-.29 1.9-.49 2.85 0 .15-.06.15-.09 0l-.5-2.78c0-.11-.07-.13-.17-.07l-.9.67c-.21.15-.23.12-.08-.08l.65-.85a.1.1 0 0 0-.07-.16Q37.48 15.29 36 15q-.16 0 0-.06l3.06-.46ZM0 33.54a.08.08 0 0 0 .06.13l28.6-.09a.07.07 0 0 0 .07-.08l-.12-18.19a.07.07 0 0 0-.08-.07H15.22a.06.06 0 0 0-.06 0L0 33.54Zm47.21-.17-16.56-17.2c-.17-.18-.26-.14-.26.11v17c0 .09 0 .13.13.13h16.69v-.05Z"/></svg>
