<svg xmlns="http://www.w3.org/2000/svg" viewBox="0 0 47.24 47.24"><path fill="#02025b" d="M28.61 6.87v13.92s-.03.07-.07.07H16.26s-.06-.03-.06-.07l12.28-14s.06-.05.09-.03a.1.1 0 0 1 .04.08v.03Zm1.87 13.69s.03.08.07.09c.03 0 .05 0 .07-.03L42.86 7.09s.02-.08-.01-.11a.08.08 0 0 0-.05-.02H30.54s-.08.04-.08.08v13.53h.02Zm15.46 1.23a5.9 5.9 0 1 0-11.8 0 5.9 5.9 0 0 0 11.8 0m-6.84-.51c.1 0 .12-.06.07-.15a6.76 6.76 0 0 0-.86-1.06v-.05h.08l1 .71c.08.06.12 0 .14-.06l.47-2.6c0-.27.09-.27.13 0l.45 2.59c0 .09.05.11.15.06l1-.76h.07c-.29.37-.56.77-.8 1.18-.06.08 0 .13.06.14l2.92.43c.2 0 .2.06 0 .1-.91.18-1.83.32-2.76.44-.12 0-.15.07-.07.17l.64.87v.1c-.31-.26-.63-.51-1-.75-.06-.04-.14-.01-.18.05l-.01.03c-.12.95-.29 1.9-.49 2.85 0 .15-.06.15-.09 0l-.5-2.78c0-.11-.07-.13-.17-.07l-.9.67c-.21.15-.23.12-.08-.08l.65-.85s.02-.11-.02-.14a79.23 79.23 0 0 1-3-.53c-.11 0-.11-.02 0-.06l3.06-.46h.04ZM0 40.33s-.02.08.01.11l.05.02 28.6-.09s.07-.03.07-.07v-.01l-.12-18.19s-.03-.07-.07-.07H15.16L0 40.33Zm47.21-.17-16.56-17.2c-.17-.18-.26-.14-.26.11v17c0 .09 0 .13.13.13h16.69v-.05Z"/></svg>
