<svg xmlns="http://www.w3.org/2000/svg" viewBox="0 0 192 192"><rect width="96" height="192" fill="#711429"/><rect x="96" width="96" height="192" fill="#5a6670"/><path d="M131.2,131.3c-8.07-8-16.48-16.71-24.4-24.9-3.36-3.53-7.35-7.15-10.3-11h0a79.22,79.22,0,0,1,7-8c16.9-17.32,45.41-45.67,62.8-63.1v32c-9.58,9.87-29,29.53-38.8,39.2l39,39c-.17,7.85-.42,23.65-.5,31.5l-34.8-34.7M75,162.3c-14.28-2-28-8.72-38.9-18a67.49,67.49,0,0,1-17.9-28.7,83.24,83.24,0,0,1,.4-42.2c2.76-9.23,8.74-17.64,15.5-24.4A70.25,70.25,0,0,1,44,40.6a116.1,116.1,0,0,1,19.6-8.9c6.43-2,13.62-2,20.3-2.3,9-.16,18.44,0,26.8,3.7,3.78,1.84,9.16,2.9,11.8,6.4v.2C118.76,44.62,112.35,50.53,108,55c-15.22-6.9-33.91-6.1-48.3,2.5-15.4,11.4-21,24-19.8,43.1,3.46,33.83,38.76,49.07,68.2,35.4l15.8,15.8C109.14,159.74,91.77,164,75,162.3Z" fill="#fff"/></svg>