<svg xmlns="http://www.w3.org/2000/svg" width="40" height="40" fill="none"><path fill="#50B848" d="M19 0v9.05L26.35 0H19ZM3.12 4.3a7.88 7.88 0 0 1 1.83-2.08l.58-.4c.55-.3 1.04-.5 1.66-.65.37-.06.71-.1 1.1-.11.5.02.94.08 1.44.2.35.11.66.24 1 .4.75.41 1.32.88 1.9 1.51l.43.55a9.6 9.6 0 0 1 1.35 2.92l.16.73.05.35V0H2v7.74c.16-.86.4-1.98.8-2.8l.33-.63Zm28.5-3.05L18.99 16.78v3.52l.06-.34.16-.73c.3-1.08.71-2 1.35-2.93l.43-.55c.5-.53.97-.95 1.6-1.34.31-.17.62-.32.95-.45a6.16 6.16 0 0 1 2.17-.3l.73.1a6.49 6.49 0 0 1 2.5 1.26c.82.74 1.4 1.52 1.9 2.5l.28.66c.23.62.4 1.53.5 2.15V1.25Z"/><path fill="#50B848" d="M25.34 26.95c-1.79 0-3.24-2.27-3.24-5.07 0-2.79 1.45-5.06 3.23-5.06 1.79 0 3.24 2.27 3.24 5.06 0 2.8-1.45 5.07-3.23 5.07Zm0-11.46c-2.53 0-4.59 2.87-4.59 6.4 0 3.51 2.06 6.39 4.59 6.39 2.52 0 4.58-2.88 4.58-6.4 0-3.52-2.06-6.39-4.59-6.39Z"/><path fill="#50B848" d="m19.2 24.54-.15-.73-.06-.34v7.72h12.64V23.5c-.16.85-.41 1.9-.8 2.74l-.33.63a7.97 7.97 0 0 1-1.83 2.09l-.58.39c-.55.3-1.05.5-1.65.65-.38.07-.72.1-1.1.11a6.57 6.57 0 0 1-1.45-.2 8.32 8.32 0 0 1-1-.4 7.18 7.18 0 0 1-1.9-1.5l-.43-.56a9.69 9.69 0 0 1-1.35-2.92Zm-4.56-13.66-.06.34-.16.74c-.3 1.07-.72 2-1.35 2.92l-.43.55c-.5.53-.98.95-1.6 1.34a8.6 8.6 0 0 1-.96.46c-.75.23-1.38.32-2.16.3l-.72-.1a6.52 6.52 0 0 1-1.66-.66c-.3-.19-.58-.39-.85-.6a8.19 8.19 0 0 1-1.9-2.5c-.4-.92-.61-1.79-.79-2.78v19.04l12.64-15.52v-3.53Z"/><path fill="#50B848" d="M8.3 14.37c-1.79 0-3.25-2.28-3.25-5.07 0-2.8 1.46-5.07 3.24-5.07 1.78 0 3.23 2.28 3.23 5.07 0 2.8-1.45 5.07-3.23 5.07Zm0-11.46c-2.53 0-4.6 2.87-4.6 6.39 0 3.52 2.07 6.39 4.6 6.39 2.52 0 4.57-2.87 4.57-6.4 0-3.51-2.05-6.38-4.58-6.38Zm6.33 19.22L7.27 31.2h7.37v-9.06ZM31.27 0h-3.55L2.38 31.19h3.5L31.26 0ZM17.9 29.04h-2.16v2.15h2.16v-2.15Z"/><path fill="#50B848" d="M32.72 29.04v2.15a2.67 2.67 0 0 1 2.69 2.65c0 1.46-1.2 2.65-2.69 2.65-1.09 0-2.09-.25-4.16-.75l-12.9-3.17C8.56 30.83 2.03 32.8 2 37.42h2.17c0-1.71 3.32-2.85 10.45-1.1l13.11 3.2c3.06.76 5.57.58 7.38-.28a5.37 5.37 0 0 0-2.39-10.2Z"/></svg>