<svg xmlns="http://www.w3.org/2000/svg" width="40" height="40" fill="none"><path fill="#02AC5D" fill-rule="evenodd" d="M39.28 20A19.28 19.28 0 1 1 .72 20a19.28 19.28 0 0 1 38.56 0Zm.72 0a20 20 0 1 1-40 0 20 20 0 0 1 40 0Zm-28.09-9.54a2.97 2.97 0 0 0 1.81-1.23c.69-.92 2.65-2.53 3.69-1.06.56.8 1.15 1.88 1.55 2.91.46 1.16.9 2.1.97 2.1.08 0 .46-.81.84-1.8l.13-.34c.5-1.35 1.26-3.39 2.84-3.39.95.03 1.51.69 2.11 1.4.36.41.73.84 1.2 1.17.53.37 1.03.5 1.5.62.74.2 1.4.37 1.98 1.44.34.61.32.74-.13 1.57-.7 1.28-2.55 3.02-3.74 3.85-.56.4-.5.42 2.26.69 2.97.3 3.88.64 4.24 1.6.25.68-.14 2.04-.81 2.84-.42.5-.57 1.06-.68 2.53-.08.97-.52 3.47-2.15 2.97-4.15-1.28-7.04-2.93-8.54-5.49-.64-1.08-.78-1.08-.78-1.08s0 1.68.96 3.46c1.44 2.43 1.31 3.87.24 6-.72 1.42-.77 1.47-1.2 1.08-.44-.4-.43-.44.31-1.65 1-1.63 1.03-3.05.1-5.14a11.4 11.4 0 0 1-.82-2.7l-.14-1.2c-1.92 2.9-5.88 6.72-9.54 6.72-1.28 0-1.73-.7-1.92-2.97a4.99 4.99 0 0 0-.8-2.68c-.93-1.4-1.05-2.26-.42-3.06.62-.8 1.58-1.06 4.54-1.29 1.57-.11 2.14-.23 1.86-.39-.96-.54-3.55-2.77-4.09-4.18-.3-.78-.12-1.47.53-2.1a4.56 4.56 0 0 1 2.1-1.2Z" clip-rule="evenodd"/></svg>