<svg xmlns="http://www.w3.org/2000/svg" width="40" height="40" fill="none"><path fill="#005E9C" d="M20 0a20 20 0 1 0 0 40 20 20 0 0 0 0-40Zm2.2 38.8L25 32h-3.4c-1.7 0-2.3-1.2-1.9-2.3l4.8-11.8s.4-1-.4-1.4c-.8-.5-1.3.4-1.3.4l-8.7 13.7c-.2.4-1 1.4-2.3.8-1.3-.5-1-1.9-.8-2.1l4.5-10.9s.5-1 0-1.8c-.4-.7-1-.8-1.5-.8h-2.5l-3.3 8v-12L18 .7 15 8.1h3.9c.5 0 1 .3 1.4.8.2.5.3 1.1 0 1.9l-4.9 11.8c-.1.3-.2 1 .5 1.3.7.3 1.2-.2 1.3-.4l8.5-13.8c.5-1 1.4-1.5 2.4-1 1.2.6 1 1.8.8 2.2l-4.3 10.9c-1 2.2.8 2.6 1.6 2.6h2l3.3-8.1.2 12-9.4 10.5Z"/></svg>