<?xml version="1.0" encoding="UTF-8"?><svg id="a" xmlns="http://www.w3.org/2000/svg" viewBox="0 0 45 45"><path d="M27.4.67l.03,5.85v15.06c.05,1.48,1.25,2.66,2.73,2.7,1.46,0,2.7-1.26,2.7-2.74v-12c3.57,3,5.84,7.47,5.84,12.5,0,9.04-7.34,16.4-16.34,16.4-9.05-.08-16.32-7.49-16.24-16.54.04-4.69,2.1-9.14,5.64-12.22v11.86c0,1.48,1.21,2.74,2.71,2.74,1.51-.02,2.73-1.23,2.76-2.74V.72C5.46,3.63-1.73,15.53,1.17,27.3c2.42,9.78,11.18,16.67,21.26,16.7,12.12,0,21.95-9.82,21.96-21.94,0-10.21-7.03-19.08-16.98-21.39h-.01ZM22.36,24.27c-1.5,0-2.71-1.2-2.73-2.7V2.73C19.63,1.22,20.86,0,22.36,0h2.73v21.56c-.02,1.5-1.23,2.71-2.73,2.72ZM22.36,3.57c-.49-.02-.87-.41-.87-.9,0-.51.39-.9.87-.9.51,0,.9.39.9.9s-.39.9-.9.9Z" style="fill:#c8af64; fill-rule:evenodd; stroke-width:0px;"/></svg>