<svg xmlns="http://www.w3.org/2000/svg" viewBox="0 0 344 344"><path d="M297.3 135c-12.5 12.2-24.5 24.4-37 36.2-4.7 4.5-9.3 4-14.5-.8-8-7.5-15.5-15.2-23.2-22.9l-46.9-47c-4-4-5.5-4-9.5.1L93 173.8c-4.9 4.9-4.7 6 .2 10.9l71.7 71.8c5.8 5.9 6.5 5.9 12.3 0 23.5-23.6 47.1-47.2 70.5-70.9 4-4.1 8.6-6 14.2-6 21.8.2 43.6.1 65.4.1 6.4 0 8 1.8 7.7 8-4 71.5-51.7 132-120.4 150-59 15.6-111.8 2-156.7-39.7a155.1 155.1 0 0 1-48.7-93.4c-10.5-72 25-138 85.9-169.9 18.7-9.8 38.4-17 59.8-17.2a58.2 58.2 0 0 1 43 18c32.6 32.2 65 64.6 97.4 97l2 2.5Zm35.5-36.7c5.5-6 5-10.5-1-16.5-16.3-16.3-32.8-32.3-49-48.6A104 104 0 0 0 202.2 0c-13.5.5-26.4 3.3-40 8.6 5.5.4 9.9.4 14 1A75 75 0 0 1 216.8 33l74.8 75 16.2 16.2c8.5-8.7 17.1-17 25.2-25.9Z" style="fill:#0066b3;stroke-width:0"/></svg>
