<svg xmlns="http://www.w3.org/2000/svg" viewBox="0 0 45.88 45.88"><path fill="#016799" d="m8.74 20.36-2.82-3a.33.33 0 0 1 0-.45L22.81.09a.34.34 0 0 1 .46 0L40.16 16.9a.33.33 0 0 1 0 .45l-2.79 3a.32.32 0 0 1-.47 0L23.28 6.85a.34.34 0 0 0-.46 0L9.2 20.37a.33.33 0 0 1-.46 0ZM9 24.6a.48.48 0 0 1-.8.06q-3.31-3.14-7.06-7h-.06C1 18.43 1 20.48 1 23.89a.69.69 0 0 0 .21.5l7.1 7.15a.49.49 0 0 0 .79 0l1.84-1.86c.65-.65 1-.51 1 .4v4.77a1.15 1.15 0 0 0 .36.86l10.28 10a.55.55 0 0 0 .86 0l10.09-9.79a1.21 1.21 0 0 0 .39-.91v-5.17c0-.9.3-1 .91-.35l1.82 2a.56.56 0 0 0 .92 0l6.89-6.85a1.32 1.32 0 0 0 .42-1l-.07-5.2a.32.32 0 0 0-.54-.22l-6.6 6.48a.46.46 0 0 1-.78 0c-7.61-9.37-20.38-9.48-27.92 0m8.71-1.7q9.65-3.86 15.91 5a.69.69 0 0 1-.08.89L23.33 38.8a.45.45 0 0 1-.61 0L12.54 28.69a.67.67 0 0 1-.14-.84 9.71 9.71 0 0 1 5.29-5Z"/></svg>
