<svg xmlns="http://www.w3.org/2000/svg" width="80" height="80" fill="none"><path fill="#302C29" d="M0 0h80v80H0z"/><path fill="#fff" d="M74.53 23c0-18.73-21.37-20.95-32.06-19.72.13 3.28.3 9.85 0 9.86 19.73-.98 24.66 6.17 24.66 9.87 0 4.93-4.93 8.63-7.4 9.86.12 3.36.28 10.03 0 9.87 6.91 3.94 7.82 9.86 7.4 12.33C64.18 66.9 51.11 68.22 44.94 67.4v9.86C70.59 79.24 77 63.3 77 55.06c0-11.83-6.58-16.43-9.87-17.25 6.91-1.98 7.81-10.7 7.4-14.8ZM12.88 40.27c0-18.74 18.09-26.3 27.13-27.12V3.28c-30.58.99-37.4 25.48-37 37h9.87Z"/><path fill="#fff" d="M12.88 40.27c0 18.75 18.09 26.3 27.13 27.13v9.87c-30.58-1-37.4-25.49-37-37h9.87Z"/><circle cx="40" cy="40" r="23" fill="#0988C2"/><circle cx="40" cy="40" r="5" fill="#302C29"/><path fill="#302C29" d="M39 40h2v40h-2V40Z"/></svg>
