<svg xmlns="http://www.w3.org/2000/svg" width="40" height="40" fill="none"><path fill="#020168" d="m28 9.6-3.2 1.7v3.2H22v3h2.8v9c0 2.4 1.4 4.1 3.6 4.2 1 0 2-.2 2.9-.7l.8-3.1-.1.1c-.7.5-1.6.8-2.4.8-1.1 0-1.6-.5-1.6-1.8v-8.5h3.3v-3H28V9.6ZM8.3 14.3c-2.1 0-4.2.7-5.8 2.1-.8.8-1.5 1.7-1.9 2.8a9.6 9.6 0 0 0 0 6.6 7.7 7.7 0 0 0 7.7 4.9c1.1 0 2.2-.2 3.1-.7.9-.5 1.8-1.1 2.5-2l.1-.1-1.9-2.3-.1.1a6 6 0 0 1-1.8 1.3c-.7.3-1.4.5-2.1.5-.7 0-1.3-.1-2-.4-.6-.3-1.2-.6-1.7-1.1-.5-.5-.8-1.1-1.1-1.7a7 7 0 0 1 0-4c.2-.6.6-1.2 1.1-1.7.5-.5 1-.9 1.7-1.1.6-.3 1.3-.4 2-.3a5 5 0 0 1 2.1.5c.7.3 1.3.7 1.8 1.3l.1.1 1.9-2.2v.1a7.1 7.1 0 0 0-5.7-2.7Zm7.6.2h3.2v15.9h-3.2V14.5Zm18.7 0h3.3v15.9h-3.2l-.1-15.9Z"/><path fill="#FF0100" d="M39.8 11.7A15.3 15.3 0 0 0 26.9 5a16.1 16.1 0 0 0-13 6.8l-.2.2h3.8a13 13 0 0 1 9.4-4.1c1.8 0 3.5.4 5.1 1.1 1.6.7 3.1 1.7 4.3 3H40l-.2-.3Z"/></svg>