<svg xmlns="http://www.w3.org/2000/svg" viewBox="0 0 550.6 550.6"><path d="M550.2 268.6c1.2 48.5-9.7 93.8-32.4 136.3a270.9 270.9 0 0 1-103.3 107.5 273 273 0 0 1-218.1 26.3 266 266 0 0 1-30.6-11.8c-10.3-4.6-21-9-30.6-14.7a177 177 0 0 1-44-33.1c-3.7-4.1-3.7-4.3 0-8.2 13.6-14.5 28-28.3 42.3-42.3l30.4-30c10.8-10.7 22-21.1 33.1-31.7 23.3-22.2 46.4-44.5 68.4-68 4.4-4.7 8.7-9.7 11.4-15.7 5-11.6.4-21.3-7.3-29.6A666 666 0 0 0 240 224c-18.7-18-37.8-35.6-56.7-53.3L131 121.6c-2.6-2.5-4.2-2.6-7-.2a171.2 171.2 0 0 0-42.6 58.4 226.9 226.9 0 0 0-21.1 117.5A211 211 0 0 0 70.5 342c1.9 6 3.4 12.2 5.3 18.2.6 2 .5 3.5-1.4 4.8-11.8 8.2-21 19.4-31 29.5l-6 6c-4 4-4.4 4-7.5-1-4.2-6.6-7.5-13.7-10.1-21.1-8.3-23-14.5-46.4-17.4-70.6A268.8 268.8 0 0 1 16 184.3a314.7 314.7 0 0 1 41.7-75.8A283 283 0 0 1 126.4 44c3.4-2.3 7-4.2 11.1-5.2 1.8-.4 2.7-.2 4 1L200 98c14.4 14.4 29 28.6 43 43.2 29.5 30.3 60.6 59 90.2 89.1 6.7 6.9 13.4 13.6 20 20.6a33.7 33.7 0 0 1 2.8 45.2c-8 11-18.2 19.9-27.6 29.5l-39 39.2-24.6 24.6-68.9 68.8c-3.1 3.2-6 6.6-9.2 9.7-2 2-1.6 3.2.6 4.7 7.9 5.1 16.7 8.2 25.7 10.4 25.2 6.4 50.9 9.1 76.8 8A208.4 208.4 0 0 0 467 374.5c19.2-37.9 27-78.2 23.4-120.5-3.2-36.6-15-70.3-36.1-100.4a219 219 0 0 0-103.7-81.2c-16-6-32.7-9-49.6-11.2-4.6-.6-9.2-1.4-13.8-2.2-4.4-.9-8-3.1-11.2-6.1a785.1 785.1 0 0 1-40.8-41.1l-.7-.8c-1.1-2-4.2-3.8-3.3-6.2 1-2.2 4.1-1.3 6.4-1.7 29.6-5.3 59-3.6 88.4 2A267 267 0 0 1 445.5 60a264.7 264.7 0 0 1 54.6 57.8 275 275 0 0 1 50 150.9Z" style="fill:#0181c7;stroke-width:0"/></svg>
