<?xml version="1.0" encoding="UTF-8"?><svg id="a" xmlns="http://www.w3.org/2000/svg" xmlns:xlink="http://www.w3.org/1999/xlink" viewBox="0 0 288 288"><defs><radialGradient id="b" cx="-2757.99" cy="10.76" fx="-2757.99" fy="10.76" r="1" gradientTransform="translate(612114.51 -2370.91) scale(221.88)" gradientUnits="userSpaceOnUse"><stop offset="0" stop-color="#ffec5c"/><stop offset=".6" stop-color="#ffe000"/><stop offset=".69" stop-color="#fedd00"/><stop offset=".77" stop-color="#f9d300"/><stop offset=".84" stop-color="#f1c200"/><stop offset=".9" stop-color="#e6aa00"/><stop offset="1" stop-color="#d48f00"/></radialGradient><radialGradient id="c" cx="-2757.98" cy="10.76" fx="-2757.98" fy="10.76" r="1" gradientTransform="translate(610349.43 -2200.68) scale(221.3)" gradientUnits="userSpaceOnUse"><stop offset="0" stop-color="#ffec5c"/><stop offset=".6" stop-color="#ffe000"/><stop offset=".69" stop-color="#fedd00"/><stop offset=".77" stop-color="#f9d300"/><stop offset=".84" stop-color="#f1c200"/><stop offset=".9" stop-color="#e6aa00"/><stop offset="1" stop-color="#d48f00"/></radialGradient><radialGradient id="d" cx="-2757.99" cy="10.77" fx="-2757.99" fy="10.77" r="1" gradientTransform="translate(613328.75 -2158.18) scale(222.3)" gradientUnits="userSpaceOnUse"><stop offset="0" stop-color="#ffec5c"/><stop offset=".6" stop-color="#ffe000"/><stop offset=".69" stop-color="#fedd00"/><stop offset=".77" stop-color="#f9d300"/><stop offset=".84" stop-color="#f1c200"/><stop offset=".9" stop-color="#e6aa00"/><stop offset="1" stop-color="#d48f00"/></radialGradient></defs><path d="M189.6,19.25h-113L20.1,117.15l-17.8,30.8-2,3.5L0,151.95v.2l54.4,94.1c-.13-.5-.33-.97-.6-1.4-1.1-2.1-2-3.7-2.5-4.8-2.47-6.01-3.53-12.51-3.1-19,.9-18.1,10.4-35.9,15.3-44.3,11.4-19.6,33.2-57.5,33.2-57.5l33.2-57.6c4.8-8.4,15.4-25.6,30.6-35.4,5.45-3.57,11.64-5.86,18.1-6.7,1.8-.1,5.6-.3,10.4-.3h.6Z" fill="url(#b)" stroke-width="0"/><path d="M277,171.25c-1.73,3.07-3.63,6.05-5.7,8.9-3.2,4.6-8.7,9.2-14.8,12.3-16,8.3-36.3,8.9-46,8.9H77.7c-9.7,0-29.8-.6-46-8.9-5.84-2.91-10.94-7.12-14.9-12.3-2.03-2.86-3.9-5.83-5.6-8.9-.1-.3-.3-.3-.3-.3l5.6,9.7,50.9,88.1h153.3s.1,0,.1-.2l56.5-97.7s-.2,0-.3.4Z" fill="url(#c)" stroke-width="0"/><path d="M288,151.95L211.5,19.45l-.2-.2h-21.8l-.5.2c-5,0-8.7.1-10.4.3-6.46.83-12.66,3.12-18.1,6.7-6.4,4-11.9,9.5-16.6,14.9,5.36,6.36,10.08,13.22,14.1,20.5,11.4,19.6,33.2,57.5,33.2,57.5l33.2,57.6c4.8,8.2,14.3,26.2,15.3,44.2.29,6.51-.77,13.01-3.1,19.1-.8,1.7-2.5,5-5,9.3-.11.15-.18.32-.2.5l56.6-98.1Z" fill="url(#d)" stroke-width="0"/></svg>