<svg xmlns="http://www.w3.org/2000/svg" xmlns:xlink="http://www.w3.org/1999/xlink" viewBox="0 0 288 249.5"><defs><radialGradient id="a" cx="-2222.41" cy="519.65" r="1" gradientTransform="matrix(221.88, 0, 0, -221.88, 493281.05, 115297.83)" gradientUnits="userSpaceOnUse"><stop offset="0" stop-color="#ffec5c"/><stop offset="0.6" stop-color="#ffe000"/><stop offset="0.69" stop-color="#fedd00"/><stop offset="0.77" stop-color="#f9d300"/><stop offset="0.84" stop-color="#f1c200"/><stop offset="0.9" stop-color="#e6aa00"/><stop offset="1" stop-color="#d48f00"/></radialGradient><radialGradient id="b" cx="-2222.41" cy="519.66" gradientTransform="matrix(221.3, 0, 0, -221.3, 491828.02, 115161.09)" xlink:href="#a"/><radialGradient id="c" cx="-2222.41" cy="519.64" gradientTransform="matrix(222.3, 0, 0, -222.3, 494269.35, 115732.85)" xlink:href="#a"/></defs><path d="M189.6,0H76.6L20.1,97.9,2.3,128.7l-2,3.5-.3.5v.2L54.4,227a4.9,4.9,0,0,0-.6-1.4c-1.1-2.1-2-3.7-2.5-4.8a42.5,42.5,0,0,1-3.1-19c.9-18.1,10.4-35.9,15.3-44.3C74.9,137.9,96.7,100,96.7,100l33.2-57.6C134.7,34,145.3,16.8,160.5,7A43.2,43.2,0,0,1,178.6.3C180.4.2,184.2,0,189,0Z" fill="url(#a)"/><path d="M277,152a91.8,91.8,0,0,1-5.7,8.9c-3.2,4.6-8.7,9.2-14.8,12.3-16,8.3-36.3,8.9-46,8.9H77.7c-9.7,0-29.8-.6-46-8.9a42.8,42.8,0,0,1-14.9-12.3,97.3,97.3,0,0,1-5.6-8.9c-.1-.3-.3-.3-.3-.3l5.6,9.7,50.9,88.1H220.7s.1,0,.1-.2l56.5-97.7S277.1,151.6,277,152Z" fill="url(#b)"/><path d="M288,132.7,211.5.2l-.2-.2H189.5l-.5.2c-5,0-8.7.1-10.4.3a42.8,42.8,0,0,0-18.1,6.7c-6.4,4-11.9,9.5-16.6,14.9A127,127,0,0,1,158,42.6c11.4,19.6,33.2,57.5,33.2,57.5l33.2,57.6c4.8,8.2,14.3,26.2,15.3,44.2a47.6,47.6,0,0,1-3.1,19.1c-.8,1.7-2.5,5-5,9.3a1,1,0,0,0-.2.5L288,132.7Z" fill="url(#c)"/></svg>