<svg xmlns="http://www.w3.org/2000/svg" width="40" height="40" fill="none"><path fill="#0057B6" fill-rule="evenodd" d="M.7 19.78C.7 9.24 9.35.68 20 .68a19.22 19.22 0 0 1 19.31 19.1c0 10.53-8.65 19.1-19.3 19.1A19.23 19.23 0 0 1 .68 19.78Zm-.7 0c0 10.9 8.98 19.78 20 19.78 11.03 0 20-8.88 20-19.78A19.91 19.91 0 0 0 20 0C8.98 0 0 8.87 0 19.78Zm32.32-1.7-.08.07c-1.11.84-2.85 1.52-5.27 2.16-2.82.75-5.2 1.14-7.48 1.51-1.79.3-3.51.58-5.33 1.02-.8.2-1.66.47-2.44.78.78.39 1.61.74 2.47 1.07 1.68-.48 2.49-.7 4.92-1.1.93-.16 3.8-.65 5.87-1.08 3.73-.8 9.2-2.5 7.75-4.74l-.4.32Zm-2-4.96a20.2 20.2 0 0 0-2.84-.98c-.47.37-1.02.7-1.8 1 .96.17 1.75.41 2.55.65.28.1.56.18.85.26.21.1 1.1-.74 1.25-.93Zm-18.3 4.94a76.78 76.78 0 0 1 7.9-1.7c2.4-.43 4.84-.87 7.29-1.52-2.02-.53-3.14-.76-5.28-.52-3.1.36-6.53 1.03-9.46 1.89l-.12.04c-1.4.4-7.02 2.06-5.33 4.37l.04-.04c.21-.22 1.41-1.49 4.96-2.52ZM8.67 26.2c-.02.44.25.83.85 1.32.08-.24.18-.42.36-.64-.42-.2-.83-.43-1.21-.68Zm2.28-.21c.36-.22.8-.43 1.31-.63-.7-.29-1.4-.6-2.13-.92-.32.2-.61.42-.85.63a67.01 67.01 0 0 1 1.67.92ZM29.7 15.73c-.98.45-2.4.92-4.42 1.43-.76.19-2.02.4-3.58.68-1.85.32-4.1.72-6.46 1.23-1.37.3-5.1 1.16-6.92 2.7.36.29.62.42.95.59l.44.23c.76-.48 1.79-.94 3.31-1.34 2.66-.7 4.64-1 7.04-1.38h.01a63.2 63.2 0 0 0 9.33-2.18 7.6 7.6 0 0 0 2.12-1.08 7.14 7.14 0 0 0-1.82-.88Zm1.44-.88.3.14c.37.17.7.33 1.05.57.3-.58.12-.95-.52-1.48-.25.29-.53.54-.83.77ZM8.43 23.56c-.44-.23-.73-.4-1.1-.65-.2.42.17.89.57 1.11l.3-.27.23-.19Zm20.76-13.31c-.08.33-.44.7-.68.96.73.2 1.47.46 2.18.73-.09-.65-.85-1.28-1.5-1.7Zm-22.96 4.1c5.11-3.3 10.77-5.24 20.35-3.6.53-.3.82-.59.96-1.21-2.4-.85-4.99-1.16-8.35-1.1-3.01.08-8.44 1.2-11.33 2.89l.88-1.1C10.77 9.06 16.04 7.5 20 7.42c2.8-.05 4.24.1 7.56.99-.27-.53-.9-.81-1.8-1.21l-.18-.08c-3.21-1.43-9.21-1.57-14.13.57.62-.4 1.23-.77 2.02-1.14a18.14 18.14 0 0 1 7.6-1.38c2.64.04 5.79.96 7.71 2.84.33.37.5.77.6 1.1 1.52.76 2.4 1.47 2.9 2.32.2.43.3.9.2 1.44.64.37.94.68 1.25 1.1.23.35.4.74.44 1.1.06.48.11 1-.38 1.63.52.25.93.96 1 1.28.23 1.15-.51 2.25-1.49 3.11-1.12.98-3.6 2.13-5.61 2.64-2.85.7-5.46 1.13-7.74 1.5l-2.62.43h.01c1.26.3 2.97.7 5.77.7 5.97 0 11.25-2.79 11.25-2.79s-.11.37-.23.69c-3.79 2.26-9.83 3.23-12.41 3.11-2.62-.12-4.82-.5-6.98-1.16-.67.17-1.31.37-1.94.65a22.8 22.8 0 0 0 8.57 2c2.86.22 7.6-.46 11.6-1.9-.1.1-.16.2-.23.32s-.14.24-.23.32a27.15 27.15 0 0 1-8.55 2.22c-2.17.09-4.82 0-7.1-.42-1.98-.38-3.6-1-5.28-1.73-.3.22-.46.52-.51.84 6.58 3.4 12.75 3.47 19.76 1.32l-.63.6c-7.73 3.1-13.76 1.9-18.44-.33l-.07-.04c-.14-.05-.29-.12-.4-.2.43.75 4 3.33 7.99 3.66 2.75.22 6.11-.25 8.1-1.03l-1.17.6c-.97.47-3.52 1.53-7.1 1.3-4.76-.32-7.44-2.4-8.64-3.5a3.36 3.36 0 0 1-1-1.82 5.64 5.64 0 0 1-2.3-2c-.34-.5-.27-1.07-.19-1.55.03-.15.07-.3.13-.43a4.44 4.44 0 0 1-1.26-1.17c-.47-.84-.18-1.56.14-2.12a3.22 3.22 0 0 1-.65-.95c-.13-.4-.16-.76-.12-1.17.09-.7.48-1.35.96-1.9 1.04-1.2 2.68-2.12 5.48-3.03 2.05-.68 3.19-.92 4.5-1.2l1.42-.31c.92-.21 1.9-.37 2.9-.53 1.64-.26 3.32-.52 4.82-1.04-6.73-1.17-13.74-.1-19.45 3.78l.37-1.1Z" clip-rule="evenodd"/></svg>
