<svg xmlns="http://www.w3.org/2000/svg" viewBox="0 0 183 190.9"><path fill="#7d7ebb" d="M72.8 4.5a41.9 41.9 0 0 1 28.9-3.3 61.8 61.8 0 0 1 13.9 6.1l58.8 32.5c.2.1.2.3 0 .3l-47.1 26a2.7 2.7 0 0 1-1.2.3h-69a2.8 2.8 0 0 1-1.5-.4l-47-25.8c-.2-.1-.2-.4 0-.4C29.9 27.9 51.3 16.2 72.8 4.5ZM183 123.8V53.9c0-.2-.2-.3-.4-.2l-45.2 24.9a2.9 2.9 0 0 0-1.4 1.3L100.2 139a3.4 3.4 0 0 0-.5 1.7v49.8a.3.3 0 0 0 .5.2l63.3-34.8a38.1 38.1 0 0 0 19.5-32.1ZM83 190.9l.4-.2v-50.2a3.6 3.6 0 0 0-.2-1.1C70.8 119.3 59 99.7 47.4 80.6a6.9 6.9 0 0 0-2.4-2.4L.6 53.8c-.2-.2-.5 0-.5.3L0 118.9a53 53 0 0 0 1.4 14 37.2 37.2 0 0 0 9.7 16.6c2.4 2.6 6.9 5.6 13.7 9.3L83 190.9Z"/><path fill="#f7af14" d="m114 91-15.4 25.5a8.3 8.3 0 0 1-14.3-.2L68.8 90.7c-3.3-5.4.6-11.6 6.8-11.7h32.2c6.2 0 9.4 6.8 6.2 12Z"/></svg>
