<svg xmlns="http://www.w3.org/2000/svg" width="40" height="40" fill="none"><path fill="#1D478C" fill-rule="evenodd" d="M8 0h24c4.4 0 8 3.6 8 8v24c0 4.4-3.6 8-8 8H0V8c0-4.4 3.6-8 8-8Z" clip-rule="evenodd"/><path fill="#fff" d="M9.07 29.55c1.75 0 3.11-1.3 3.11-3.14 0-1.73-1.22-2.9-2.63-2.9-1.03 0-1.7.5-2.05 1.13l-.03-.02c.08-1.37.37-2 1.76-2.25l2.5-.46-.46-1.7-2.38.42c-2.54.44-3.1 2.1-3.12 4.84-.01 2.2.85 4.08 3.3 4.08ZM9 27.85c-.72 0-1.27-.59-1.27-1.43 0-.58.42-1.27 1.23-1.27.72 0 1.28.53 1.28 1.32 0 .84-.58 1.38-1.24 1.38Zm6.78 1.7c.73 0 1.27-.24 1.67-.75l.02.01v.63h1.84v-6.02h-1.94v.62l-.02.02a2.16 2.16 0 0 0-1.66-.76c-1.56 0-2.75 1.29-2.75 3.13 0 1.87 1.2 3.12 2.84 3.12Zm.41-1.7c-.76 0-1.3-.57-1.3-1.42 0-.86.56-1.43 1.3-1.43.72 0 1.27.6 1.27 1.43 0 .87-.58 1.42-1.27 1.42Zm4.47 1.6h1.92v-2.17h1.91v2.16h1.94v-6.02h-1.94v2.31h-1.9v-2.31h-1.93v6.02Zm7.14 0h1.9v-1.7l.58-.69 1.52 2.38h2.18l-2.24-3.46 2.11-2.56H31.6l-1.88 2.39h-.03v-2.4h-1.9v6.03ZM13.3 15.45h-.95v-4.38H7.66c0 1.1-.01 2-.2 2.87a6.52 6.52 0 0 1-.5 1.51h-.89l-.01 3.15h1.58l.06-1.56h3.91l.12 1.56h1.57v-3.15Zm-4.51 0c.14-.31.27-.64.35-.99.15-.58.22-1.2.27-1.85h1.07v2.84h-1.7Zm8.24 1.7c.73 0 1.26-.24 1.66-.74l.02.01v.62h1.82v-5.97h-1.92v.62l-.02.01a2.14 2.14 0 0 0-1.65-.74c-1.55 0-2.73 1.27-2.73 3.1 0 1.85 1.18 3.1 2.82 3.1Zm.4-1.68c-.75 0-1.28-.57-1.28-1.4 0-.86.55-1.43 1.29-1.43.7 0 1.26.6 1.26 1.42 0 .86-.58 1.4-1.26 1.4Zm6.01 1.57h1.92v-4.42h1.62v-1.55H21.8v1.55h1.63v4.42Zm7.06.11c.72 0 1.26-.24 1.65-.74l.02.01v.62H34v-5.97h-1.92v.62l-.03.01a2.14 2.14 0 0 0-1.65-.74c-1.54 0-2.73 1.27-2.73 3.1 0 1.85 1.19 3.1 2.83 3.1Zm.4-1.68c-.76 0-1.28-.57-1.28-1.4 0-.86.55-1.43 1.28-1.43.71 0 1.26.6 1.26 1.42 0 .86-.57 1.4-1.26 1.4Z"/></svg>