<svg xmlns="http://www.w3.org/2000/svg" viewBox="0 0 162.03 111.93" width="162.03" height="111.93">
    <path fill="#0072ce" d="m15 55.3 18.34-18.33-7.17-7.17L0 55.96 26.14 82.1l7.94-7.72L15 55.3zm41.49-41.48L98.4 55.73 83.78 70.35l7.02 7.02 21.64-21.19L55.96 0 30.75 25.22l7.17 7.17 18.57-18.57zm.42 83.4L38.75 79.05l-7.83 7.83 25.05 25.05 22.41-22.59-6.79-6.8-14.68 14.68z"/>
    <path fill="#43b02a" d="m105.12 14.71 18.16 18.17 7.83-7.83L106.06 0 83.65 22.59l6.79 6.8 14.68-14.68zm30.77 15.12-7.94 7.72 19.08 19.08-18.34 18.33 7.17 7.17 26.17-26.16-26.14-26.14zm-30.35 68.28L63.63 56.2l14.62-14.62-7.02-7.02-21.64 21.19 56.48 56.18 25.21-25.22-7.17-7.17-18.57 18.57z"/>
</svg>