<svg xmlns="http://www.w3.org/2000/svg" width="74" height="32" fill="none">
  <g>
    <path fill="#0456A2" fill-rule="evenodd" d="m14.84 19.35.95-6.9 1.31-9.67H9L6.75 19.35l-.35 2.56h.03l-.2 1.47a12.65 12.65 0 0 1 5.9-1.47h2.38l.3-2.14h-.03l.06-.42Zm3.32-8.62h6.24c2.67 0 4.55 2.2 4.18 4.87l-.48 3.57a5.76 5.76 0 0 1-5.5 4.87h1.99a12.8 12.8 0 0 0 11.97-8.33A12.94 12.94 0 0 0 23.7 2.78h-4.45l-1.09 7.95Z" clip-rule="evenodd"/>
    <path fill="#F07F1C" fill-rule="evenodd" d="M3.28 27.36A12.9 12.9 0 0 0 0 32h23.3c3.07 0 6.05-1.13 8.38-3.16a12.93 12.93 0 0 0 4.28-7.92l.48-3.56c.08-.54.11-1.09.12-1.64a12.93 12.93 0 0 1-11.97 8.33H11.82a12.7 12.7 0 0 0-8.54 3.32" clip-rule="evenodd"/>
    <path fill="#0456A2" fill-rule="evenodd" d="M52.02 15.05H46.1a2.94 2.94 0 0 1-2.96-3.45l.34-2.52a4.08 4.08 0 0 1 3.9-3.45h-1.41a9.05 9.05 0 0 0-8.47 5.9c-.03 4.9 4 9.14 9.1 9.14h6.6l.76-5.62h-1.93Zm2.69 5.63h1.56l.76-5.63h-1.56l-.76 5.63Z" clip-rule="evenodd"/>
    <path fill="#F07F1C" fill-rule="evenodd" d="M58.67 3.29A9.2 9.2 0 0 0 60.99 0H46.87a9 9 0 0 0-5.93 2.24 9.15 9.15 0 0 0-3.03 5.6l-.35 2.52a8.7 8.7 0 0 0-.08 1.16 9.14 9.14 0 0 1 8.47-5.9h6.66a9 9 0 0 0 6.05-2.34" clip-rule="evenodd"/>
    <path fill="#0456A2" d="M63.86 20.09a.57.57 0 0 1-.58.59h-2a.56.56 0 0 1-.55-.36.57.57 0 0 1-.03-.23V13.3a.57.57 0 0 1 .16-.42.56.56 0 0 1 .42-.17h2a.56.56 0 0 1 .54.36c.03.08.04.16.04.23v1.84h-.7v-1.8H61.4v6.7h1.76V18.1h.7v1.99Zm1.98.59h-.7v-7.96h.7v7.96Zm4.03-7.33h-1.22v7.33h-.7v-7.33h-1.23v-.63h3.15v.63Zm4.02-.58-.96 3.21c-.13.33-.29.87-.49 1.62v3.08h-.7V17.6a5.46 5.46 0 0 0-.22-.82l-.26-.8-.97-3.21v-.05h.72l1.1 3.98 1.09-3.98h.7v.05m-30.24 17.8A1.39 1.39 0 0 1 42.22 32h-1.8v-7.93h1.8a1.4 1.4 0 0 1 1.44 1.43v5.07Zm-.7-.08v-4.93a.85.85 0 0 0-.24-.63.86.86 0 0 0-.63-.24h-.97v6.69h.93a1 1 0 0 0 .66-.24.83.83 0 0 0 .25-.65Zm5.2.92a.57.57 0 0 1-.17.43.57.57 0 0 1-.41.15h-2.1a.56.56 0 0 1-.55-.36.56.56 0 0 1-.04-.22v-7.34h.7v7.3h1.87v-7.3h.7v7.34Zm4.33 0a.56.56 0 0 1-.35.55.55.55 0 0 1-.23.04h-1.94a.56.56 0 0 1-.58-.59v-1.99h.7v1.96h1.7v-1.9l-2.18-2.64a.92.92 0 0 1-.22-.6v-1.58a.57.57 0 0 1 .36-.55.56.56 0 0 1 .22-.03h1.94a.55.55 0 0 1 .55.35c.02.08.04.16.03.23v1.83h-.7v-1.8h-1.7v1.68l2.2 2.64c.13.16.21.37.21.59v1.81Zm4.54.59h-.7v-3.81h-1.9V32h-.7v-7.93h.7v3.49h1.9v-3.5h.7V32Zm4.44 0h-.7l-.27-1.75h-1.57L58.65 32h-.67v-.02l1.4-7.93h.7L61.46 32Zm-1.06-2.38-.7-4.3-.7 4.3h1.4ZM65.66 32h-.48l-2.1-5.84V32h-.67v-7.93h.53L65 29.8v-5.73h.66V32Zm4.41-.59a.56.56 0 0 1-.58.59h-2.57v-7.93h2.55a.57.57 0 0 1 .42.16.57.57 0 0 1 .16.42v2.6c0 .14-.1.26-.28.36l-.55.23.59.25a.35.35 0 0 1 .26.33v3Zm-.72-4.34V24.7h-1.73v2.86h1.04l.69-.48Zm.02 4.3v-2.74l-.71-.48h-1.04v3.22h1.75Zm4.52.63H71.3v-7.93h2.56v.63H72v2.96h1.7v.63H72v3.1h1.88V32Z"/>
  </g>
</svg>
