<svg xmlns="http://www.w3.org/2000/svg" viewBox="0 0 142 141"><defs><linearGradient id="b" x1="71" y1="142" x2="71" y2="1" gradientTransform="translate(0 142) scale(1 -1)" gradientUnits="userSpaceOnUse"><stop offset="0" stop-color="#de2847"/><stop offset="1" stop-color="#cb102e"/></linearGradient></defs><path d="M0,47C0,21.04,21.04,0,47,0h47.66c25.7,0,46.63,20.64,47,46.33l.34,24.17-.34,24.17c-.36,25.69-21.3,46.33-47,46.33h-47.66C21.04,141,0,119.96,0,94v-47Z" fill="url(#b)" stroke-width="0"/><path d="M36.33,105.07c-.53,0-.84-.59-.54-1.02,4.44-6.39,9.06-14.01,13.28-22.88,7.56-15.9,11.42-30.72,13.44-42.58.35-2.04,2.12-3.52,4.18-3.52,12.14,0,24.28,0,36.42,0,.99,0,1.69.95,1.41,1.9-1.93,6.56-4.72,13.85-8.79,21.43-13.32,24.83-33.02,38.97-45.01,46.03-.71.42-1.51.64-2.33.64h-12.06Z" fill="#fff" stroke-width="0"/></svg>
