<svg xmlns="http://www.w3.org/2000/svg" viewBox="0 0 738.77 738.83"><path fill="#d74742" d="M738.77 369.97c-.19 204.15-165.94 369.05-370.75 368.86C164.44 738.63-.54 572.57 0 367.82.54 164.06 166.86-1.74 372.66.01c202.01 1.72 366.17 165.86 366.11 369.96Zm-694.09-.48c-.26 178.65 144.86 324.15 323.75 324.59 178.95.44 325.25-144.6 325.57-322.79.33-180.22-144.31-326.31-323.28-326.54-180.58-.24-325.78 144.39-326.03 324.74Zm256.49 141.26a103.89 103.89 0 0 1-52.41 12.35c-45.76-1.17-86.3-34.06-96.57-78.67-13.09-56.9 22.04-112.22 79.13-124.31 20.09-4.26 39.93-2.68 58.8 5.33 8.74 3.71 13.72-1.52 13.62-9.2-.36-29.99-.15-59.98-.13-89.98 0-8.9 1.64-10.54 10.46-10.56 10.33-.02 20.66-.01 30.99 0 8.7.01 10.56 1.84 10.57 10.57v275.43c0 9.13-1.97 11.03-11.23 11.04-12.16 0-24.33.07-36.49-.07-1.85-.02-3.68-1.03-6.75-1.94Zm-51.31-32.23c30.9 1.85 58.44-23.33 60.16-55.02 1.7-31.48-22.79-58.89-54.33-60.77-31.99-1.91-59.8 22.45-61.57 53.94-1.86 33.01 22.32 59.84 55.75 61.85Zm186.61 32.73c-2 .5-4 1.42-6.01 1.44-12.16.14-24.33.08-36.49.06-8.88-.01-10.9-1.99-10.9-10.84V300.97c0-24.99-.02-49.99.01-74.98 0-8.35 1.97-10.27 10.33-10.29 10.83-.02 21.66-.05 32.49.02 7.04.04 9.16 2.21 9.16 9.34.02 30.32-.02 60.65.07 90.97 0 2.43.29 5.1 1.33 7.22 1.89 3.85 5.84 4.43 11.36 2.28 27.44-10.69 54.73-10.31 81.59 1.77 39.93 17.97 64.57 61.51 59.28 104.09-5.74 46.22-39.3 82.54-83.66 90.18-22.48 3.87-44.12.94-64.62-9.37-1.33-.67-2.69-1.3-4.03-1.95l.09.98Zm50.27-148.61c-31.91-.06-58.07 25.87-58.13 57.6a58.15 58.15 0 0 0 57.94 58.37c31.85.11 57.9-25.76 58.07-57.67a57.88 57.88 0 0 0-57.88-58.3Z"/></svg>
