<svg xmlns="http://www.w3.org/2000/svg" width="40" height="40" fill="none"><path fill="#CD163A" fill-rule="evenodd" d="M10.58 18.95a9.75 9.75 0 0 1 1.98-4.85l3.47 3.46a4.96 4.96 0 0 0-.55 1.4l-4.9-.01Zm3.61-6.53a9.72 9.72 0 0 1 4.66-2v4.97c-.42.13-.81.3-1.19.53l-3.47-3.5Zm7-2.07a9.84 9.84 0 0 1 5.2 2.14l-3.46 3.46a4.86 4.86 0 0 0-1.67-.71l-.06-4.89Zm6.83 3.83a9.66 9.66 0 0 1 1.91 4.8h-4.9a4.96 4.96 0 0 0-.5-1.3l3.48-3.5Zm1.88 7.12a9.79 9.79 0 0 1-2.02 4.79l-3.47-3.47c.26-.4.45-.85.57-1.32h4.92Zm-3.67 6.43a9.6 9.6 0 0 1-5 2v-4.88a4.88 4.88 0 0 0 1.53-.58l3.47 3.46Zm-7.35 1.95a9.82 9.82 0 0 1-4.52-1.89l3.48-3.48c.32.19.67.33 1.02.43l.02 4.94Zm-6.19-3.51a9.65 9.65 0 0 1-2.1-4.89h5c.14.51.35 1 .64 1.43l-3.54 3.46Zm-7.25-4.46H1.95a1.83 1.83 0 0 1-1.31-.42A1.8 1.8 0 0 1 0 20.06a1.8 1.8 0 0 1 1.96-1.66h3.46a14.98 14.98 0 0 1 3.14-7.67L6.2 8.38a1.8 1.8 0 0 1-.24-2.52 1.8 1.8 0 0 1 2.54.24l2.33 2.33a14.67 14.67 0 0 1 7.76-3.31V1.95a1.81 1.81 0 0 1 .42-1.31A1.84 1.84 0 0 1 20.26 0a1.84 1.84 0 0 1 1.67 1.96V5.1a14.89 14.89 0 0 1 7.85 3.31l2.17-2.18a1.8 1.8 0 0 1 2.52-.24 1.83 1.83 0 0 1-.22 2.54l-2.2 2.19a14.85 14.85 0 0 1 3.12 7.66h2.88A1.82 1.82 0 0 1 40 20.04a1.8 1.8 0 0 1-.63 1.23c-.36.3-.84.46-1.32.43h-2.88a15.06 15.06 0 0 1-3.34 7.75l2.14 2.14a1.85 1.85 0 0 1 .23 2.53 1.82 1.82 0 0 1-2.53-.25l-2.15-2.15a14.76 14.76 0 0 1-7.67 3.13v3.2c.03.47-.12.95-.43 1.31a1.84 1.84 0 0 1-1.24.64 1.83 1.83 0 0 1-1.24-.63 1.8 1.8 0 0 1-.43-1.32v-3.2a14.94 14.94 0 0 1-7.58-3.12L8.69 34a1.8 1.8 0 0 1-2.52.24 1.8 1.8 0 0 1 .24-2.52l2.28-2.3a14.93 14.93 0 0 1-3.25-7.76" clip-rule="evenodd"/></svg>
