<svg xmlns="http://www.w3.org/2000/svg" viewBox="0 0 45 45">
  <path d="M6 19.6c.4-2.6 1.4-4.9 2.7-6.9L7 11a3.1 3.1 0 0 1 0-4.3 3 3 0 0 1 4.3 0L13 8.4a17 17 0 0 1 6.8-2.9V3.1c0-1.7 1.4-3 3-3s3 1.3 3 3v2.4a17 17 0 0 1 7 3l1.6-1.7a3 3 0 0 1 4.3 0 3.1 3.1 0 0 1 0 4.3l-1.6 1.7c1.3 2 2.3 4.3 2.7 6.8h2c1.6 0 3 1.3 3 3s-1.4 3.1-3 3.1h-2c-.5 2.6-1.5 4.9-2.9 7l1.5 1.4a3.1 3.1 0 0 1 0 4.3 3 3 0 0 1-4.3 0l-1.5-1.5c-2 1.4-4.3 2.4-6.7 2.8v2.2c0 1.7-1.4 3.1-3 3.1s-3-1.4-3-3v-2.3a17 17 0 0 1-6.7-2.8l-1.7 1.7a3 3 0 0 1-4.3 0 3.1 3.1 0 0 1 0-4.4L9 32.6c-1.4-2-2.4-4.4-2.9-6.9H3.3a3 3 0 0 1 0-6.1H6Z" fill="#fff"/>
  <path d="M12.8 21.4c.2-2 1-3.7 2-5.1l3.7 3.6-.6 1.5h-5.1Zm3.8-6.9a10 10 0 0 1 4.8-2.1v5.2a5 5 0 0 0-1.2.6l-3.6-3.7Zm7.3-2.2c2 .2 4 1 5.5 2.3l-3.7 3.6c-.5-.3-1.1-.6-1.8-.7v-5.2Zm7.2 4c1 1.5 1.7 3.2 2 5.1h-5.2c0-.5-.2-1-.5-1.4l3.7-3.7Zm2 7.6c-.3 1.9-1 3.6-2.2 5l-3.6-3.6.6-1.4H33Zm-4 6.8c-1.4 1.1-3.2 1.9-5.2 2.1v-5.2c.6 0 1.1-.3 1.6-.6l3.7 3.7Zm-7.6 2c-1.8-.2-3.4-1-4.8-2l3.7-3.6 1 .4v5.2ZM15 29c-1.2-1.4-2-3.2-2.2-5.1H18l.6 1.5L15 29Zm-7.6-4.7H3.8c-1.2 0-2-.7-2-1.7s.8-1.7 2-1.7h3.6c.3-3 1.5-5.8 3.3-8.1l-2.5-2.5c-.8-.8-.9-2-.2-2.7.7-.7 1.8-.5 2.6.3l2.5 2.4c2.2-1.8 5-3 8.1-3.4V3.5c0-1 .8-2 1.7-2s1.7.9 1.7 2V7c3.1.3 6 1.6 8.2 3.4L35.1 8c.8-.8 2-.9 2.6-.2.7.7.6 1.9-.2 2.7l-2.3 2.3c1.8 2.3 3 5 3.3 8h3c1.1 0 2 .9 2 1.8s-.9 1.7-2 1.7h-3c-.4 3.1-1.6 6-3.5 8.2l2.3 2.3c.8.8.9 2 .2 2.7-.6.6-1.8.5-2.6-.3L32.6 35c-2.2 1.8-5 3-8 3.3v3.4c0 1.1-.8 2-1.7 2s-1.7-.8-1.7-2v-3.4c-3-.3-5.7-1.5-8-3.3L11 37.4c-.8.8-2 .9-2.7.2-.6-.7-.5-1.9.3-2.7l2.4-2.4c-2-2.3-3.1-5.1-3.5-8.2Z" fill="#ce0538" fill-rule="evenodd"/>
</svg>
