<?xml version="1.0" encoding="UTF-8"?><svg id="a" xmlns="http://www.w3.org/2000/svg" viewBox="0 0 45 45"><path id="b" d="M5.98,19.55c.43-2.5,1.39-4.8,2.76-6.81l-1.81-1.82c-1.2-1.22-1.21-3.16-.03-4.35,1.19-1.2,3.11-1.19,4.31.03l1.78,1.8c2.01-1.43,4.32-2.45,6.84-2.9v-2.39c0-1.72,1.36-3.09,3.03-3.09s3.03,1.39,3.03,3.09v2.38c2.55.45,4.9,1.47,6.94,2.92l1.6-1.62c1.2-1.22,3.12-1.22,4.31-.03,1.18,1.2,1.17,3.15-.03,4.35l-1.64,1.65c1.36,2,2.32,4.31,2.75,6.81h1.89c1.7,0,3.07,1.36,3.07,3.07s-1.37,3.07-3.07,3.07h-1.91c-.46,2.54-1.46,4.88-2.87,6.9l1.44,1.46c1.2,1.22,1.21,3.16.03,4.35-1.19,1.2-3.11,1.19-4.31-.03l-1.48-1.49c-1.98,1.38-4.27,2.35-6.73,2.78v2.24c0,1.72-1.36,3.09-3.03,3.09s-3.03-1.39-3.03-3.09v-2.26c-2.42-.45-4.69-1.4-6.64-2.77l-1.64,1.66c-1.2,1.22-3.12,1.22-4.31.03-1.18-1.2-1.17-3.15.03-4.35l1.62-1.62c-1.41-2.03-2.42-4.38-2.87-6.9h-2.71c-1.7,0-3.07-1.38-3.07-3.07s1.37-3.07,3.07-3.07h2.69Z" fill="#fff" stroke-width="0"/><path id="c" d="M12.8,21.4c.22-1.92.96-3.69,2.07-5.13l3.64,3.67c-.27.46-.46.95-.58,1.47h-5.13ZM16.59,14.51c1.37-1.11,3.04-1.86,4.86-2.13v5.23c-.44.14-.86.32-1.24.57l-3.62-3.66ZM23.9,12.32c2.06.2,3.93,1.01,5.46,2.26l-3.62,3.65c-.54-.36-1.16-.62-1.82-.74v-5.16h-.01ZM31.05,16.35c1.08,1.45,1.8,3.19,2.01,5.08h-5.13c-.11-.51-.28-.97-.53-1.41l3.65-3.67ZM33.03,23.89c-.24,1.89-1,3.63-2.12,5.05l-3.64-3.66c.27-.43.47-.91.59-1.41h5.16ZM29.18,30.68c-1.48,1.16-3.29,1.92-5.25,2.12v-5.16c.57-.12,1.1-.32,1.6-.62l3.65,3.66ZM21.47,32.75c-1.76-.26-3.37-.96-4.73-2l3.65-3.67c.34.19.69.34,1.06.46v5.21h.01ZM15,29.03c-1.16-1.45-1.94-3.23-2.18-5.17h5.15c.13.54.36,1.05.66,1.51l-3.62,3.66ZM7.41,24.33h-3.65c-1.13,0-2.05-.77-2.05-1.72s.92-1.72,2.05-1.72h3.64c.31-3.05,1.49-5.84,3.29-8.12l-2.46-2.49c-.79-.81-.9-2-.24-2.67.66-.68,1.85-.55,2.64.24l2.45,2.47c2.26-1.86,5.06-3.11,8.14-3.44v-3.34c0-1.13.74-2.07,1.68-2.07s1.7.92,1.7,2.07v3.34c3.1.32,5.93,1.58,8.22,3.46l2.28-2.31c.79-.81,1.98-.92,2.64-.24.66.68.55,1.86-.24,2.67l-2.3,2.32c1.78,2.28,2.96,5.07,3.27,8.11h3c1.13,0,2.05.77,2.05,1.72s-.92,1.72-2.05,1.72h-3.02c-.34,3.08-1.56,5.9-3.41,8.19l2.24,2.27c.79.81.92,2,.24,2.67-.66.66-1.85.55-2.64-.24l-2.25-2.28c-2.25,1.8-5.01,2.99-8.03,3.31v3.36c0,1.13-.78,2.07-1.71,2.07s-1.7-.92-1.7-2.07v-3.38c-2.98-.34-5.7-1.51-7.92-3.3l-2.42,2.43c-.79.81-1.98.92-2.64.24-.66-.66-.55-1.86.24-2.67l2.4-2.42c-1.86-2.28-3.08-5.11-3.42-8.19Z" fill="#ce0538" fill-rule="evenodd" stroke-width="0"/></svg>