<svg xmlns="http://www.w3.org/2000/svg" width="40" height="40" fill="none"><path fill="#384249" d="M14.35 35.3H3.22v-4.7h11.1v4.7h.03Zm2.25-7.07H1V40h2.22v-2.36h13.33v-9.41h.05ZM3.22 7.07l4.46-4.7v16.47H3.22V7.07ZM1 21.18h8.87V0h-3.3L1 5.89v15.3ZM14.35 2.36h4.46v16.48h-4.46V2.36Zm-2.21 18.82H21V0h-8.86v21.18Zm24.4 0h2.22V0h-3.35v.02l-3.35 3.53V0h-3.35L23.2 5.89v15.3h2.21V7.06l4.46-4.7v18.81h2.22V7.07l4.46-4.7v18.81ZM1 25.88H38.8v-2.36H1v2.37Zm28.9 4.71h6.65v4.7H29.9v-4.7Zm-2.22 4.7H21v-4.7h6.68v4.7Zm2.22 2.35h8.89v-9.41H18.8v9.4h8.87V40h2.22v-2.36Z"/></svg>