<svg xmlns="http://www.w3.org/2000/svg" viewBox="0 0 768.43 768.43"><path d="M487.57,436.08H281a1.42,1.42,0,0,0-1.41,1.41v61.69a1.42,1.42,0,0,1-1.41,1.41H225.06a1.43,1.43,0,0,1-1.41-1.41v-118a1.43,1.43,0,0,1,1.41-1.41l34.54,0a1.38,1.38,0,0,0,1.32-.89l77.79-198.77a1.44,1.44,0,0,0-.18-1.37l-29.92-38.59a1.41,1.41,0,0,1,1.11-2.26l196.12,0a1.42,1.42,0,0,1,1.41,1.41l-.05,239a1.42,1.42,0,0,0,1.41,1.41l35.18,0a1.42,1.42,0,0,1,1.41,1.41v118a1.42,1.42,0,0,1-1.41,1.4l-53.41,0a1.42,1.42,0,0,1-1.4-1.41V437.49a1.42,1.42,0,0,0-1.41-1.41m-164-53.53a1.38,1.38,0,0,0,1.28,1.88l116.34-.05a1.34,1.34,0,0,0,1.36-1.36V201a1.35,1.35,0,0,0-1.36-1.37l-45,.05a1.39,1.39,0,0,0-1.28.85l-71.3,182Z" fill="#435861"/><path d="M263.7,590.88l-37.61-51.79c-1.24-1.66-.81-2.51,1.28-2.51H539c4,0,4.14.64.34,1.87l-271.21,91a1,1,0,0,1-1.32-.94l-1.24-32.19a9.33,9.33,0,0,0-1.88-5.42Z" fill="#3cae61"/></svg>