<svg xmlns="http://www.w3.org/2000/svg" viewBox="0 0 1042 1042"><path fill="#1073aa" d="M0 0h1042v1042H0V0"/><path fill="#fff" d="M602.5 678.1c-.1 3.1 0 6.1.1 9 .1.6-.2.9-.8.9H515a.5.5 0 0 0-.5.5v119.2a.7.7 0 0 1-.7.8H101a.8.8 0 0 1-.8-.8V685a.5.5 0 0 1 .5-.5h30.8a.6.6 0 0 0 .5-.6l.1-164.4a248.9 248.9 0 0 1 5.2-50.3c9.2-44.4 32.7-83.2 69.8-109.1s79.8-33.1 123.2-28.3a172 172 0 0 1 42.2 10 .3.3 0 0 0 .5-.3V225.7c0-.1.1-.2.3-.2h329.9c.4 0 .6.2.6.5v111.2a.6.6 0 0 0 .5.6h189.5a.4.4 0 0 1 .4.4v123c0 .4-.1.6-.4.6H727.5c-.4 0-.5.1-.5.5v19.2a.5.5 0 0 0 .5.5 314 314 0 0 1 61.3-4.7q57.3 2.3 99.1 42.1 46.5 44.4 52.6 110.8a174 174 0 0 1-17.6 98.1c-24 45.6-64.8 77-115.8 85.4a203.9 203.9 0 0 1-70.9-1.1 163.8 163.8 0 0 1-130.4-121.9q-1.6-6.2-3-12.6-.3-1.4-.3 0M487.8 336a.5.5 0 0 1 .4.5V674a.5.5 0 0 0 .5.5h100.1a.5.5 0 0 0 .4-.5V336.5a.5.5 0 0 1 .5-.5h100.1a.4.4 0 0 0 .4-.4v-96.2a.4.4 0 0 0-.4-.4H387a.5.5 0 0 0-.5.4v96.2a.5.5 0 0 0 .5.4h100.8m-343 362h-30.5c-.4 0-.5.2-.5.5v96a.5.5 0 0 0 .5.5h386.2a.5.5 0 0 0 .5-.5v-96.2c0-.2-.1-.3-.2-.3H469a.5.5 0 0 1-.5-.5V522.2c.1-55.3-15.9-107.9-60-144.1-32.9-27.1-75.2-37.1-117.7-33.5q-56.4 4.8-94.9 42.2c-32.4 31.4-47.8 75.1-49.9 120-.3 6.4-.5 12.9-.5 19.3v171.2a.6.6 0 0 1-.7.7m317.1-273.4a173.2 173.2 0 0 1 12.1 32.7c.5 1.9.8 1.8.8-.1V350a.5.5 0 0 0-.5-.5h-83.1c-.8 0-.9.2-.1.6q47.3 26.1 70.8 74.5m252.4 23.6H880a.8.8 0 0 0 .8-.7v-96.3a.3.3 0 0 0-.3-.3H613c-.3 0-.5.1-.5.5v281.9c0 21.7 2.6 43.7 9.3 64.2a150 150 0 0 0 93.7 95.7q39.2 13.3 82.5 8.1 39.4-4.6 69.5-27.6a152.4 152.4 0 0 0 58.9-100.6 181.1 181.1 0 0 0-6-76.2 152.7 152.7 0 0 0-40.6-66.5 135.5 135.5 0 0 0-95.3-39.7 260 260 0 0 0-70.4 8.4.4.4 0 0 1-.6-.4V449a.7.7 0 0 1 .8-.8ZM511.6 312a.4.4 0 0 1 .4.4v337.9a.5.5 0 0 0 .5.5h52.3a.5.5 0 0 0 .4-.5V312.4c0-.2.3-.4.5-.4h100.1a.4.4 0 0 0 .4-.4v-48.1c0-.3-.1-.5-.4-.5H410.9a.5.5 0 0 0-.4.5v48.1a.4.4 0 0 0 .4.4ZM169.5 721.2V523.3c0-30.3 4.9-61 18.9-87.1s35-45.8 62-57.5a139.9 139.9 0 0 1 52.8-10.7 160.4 160.4 0 0 1 38 3.5c45.4 10 79.6 43 94 86.9 6.7 20.2 9.3 41.3 9.4 63q.3 92.9.1 200a.5.5 0 0 0 .6.6h31.2a.5.5 0 0 1 .5.5v48.2c0 .2-.1.3-.2.3H138.2a.4.4 0 0 1-.4-.4v-48a.5.5 0 0 1 .4-.5h30.6c.5 0 .7-.3.7-.8m178.3-294.7a99.8 99.8 0 0 0-60.1-6.6c-35.7 6.6-55.5 34.2-61.8 68.1a180.7 180.7 0 0 0-3.3 33.4q-.2 102.4-.1 200.1a.5.5 0 0 0 .5.4h168.2a.3.3 0 0 0 .3-.3l.1-194.6c0-37-6-81.9-43.8-100.5Zm341.7-1.7a.7.7 0 0 1 .7-.7h166c.4 0 .5-.1.5-.4v-48.3c0-.3-.2-.5-.6-.5H637a.5.5 0 0 0-.5.5v259.1c0 44.6 13 85.5 48.3 114.5q26 21.3 61.7 27.3c46.2 7.7 92.2-2.1 124.2-38q35.7-40.2 33.1-96.5c-1.8-37.7-15.3-71-43.3-96.8a108.5 108.5 0 0 0-72.6-30.2c-6.3-.2-13-.1-20 .2-19.4 1-38.4 3.5-56 9.9a1.6 1.6 0 0 0-.9 1.4q.3 31.8-.3 64.9c0 1 .3 1.1.9.4l6.2-6c14.2-13.2 32.2-19.4 52-20.6S807 569.8 822 583s26.1 30.7 27.9 50.2c2.3 24.7-2.9 53.1-19.3 72.7a62.8 62.8 0 0 1-42.9 21.9 91.3 91.3 0 0 1-74.4-23.1 80.6 80.6 0 0 1-23.7-59.8l-.1-220Zm-434.8 49.8a48.6 48.6 0 0 1 42.1-31.9 87 87 0 0 1 26.5.9C351 449 362.6 471.1 366 497a268.3 268.3 0 0 1 1.7 31.5q.2 84.9.1 169a.5.5 0 0 1-.5.5H246.8a.3.3 0 0 1-.3-.3l.1-173.7c0-16.7 1.8-34 8.1-49.3m74.9-14.7c-5.4-2.6-12-4-19.7-4.2-17.4-.7-32.5 3.6-41 20.3S260 511 260 529.2v155a.3.3 0 0 0 .3.3h93.2a.7.7 0 0 0 .7-.7V524a199.7 199.7 0 0 0-1.9-28.3c-2-15-8.6-29.1-22.7-35.7Zm496.2 193.6c-1.4 16.9-8.1 36.6-23 45.1a47.9 47.9 0 0 1-18.2 5.3 67.9 67.9 0 0 1-51.8-14 51.1 51.1 0 0 1-18.6-35.5 212.4 212.4 0 0 1-.6-28.1 1.5 1.5 0 0 1 .4-1.1c5.4-6.3 10.7-12.3 16-18.1a53.6 53.6 0 0 1 30.7-16.9 58.2 58.2 0 0 1 29.6 1.1 48.9 48.9 0 0 1 16.3 10 52.6 52.6 0 0 1 19.8 43c-.1 3.2-.3 6.3-.6 9.2m-16.4-27.3c-6-11.6-18.4-23.5-32.5-23.8s-28.2 3.8-38.5 15.6l-10.7 12.2a3 3 0 0 0-.7 1.5c-.8 20.4.2 39.1 19.2 51.3a58 58 0 0 0 42.6 6.6c19.1-4.4 23.2-27.3 24.1-43.7a37 37 0 0 0-3.5-19.7Z"/></svg>
