<svg xmlns="http://www.w3.org/2000/svg" width="40" height="40" fill="none"><path fill="#00563F" d="M34.84 31.1c.3.22.66.35 1.1.35.67.04 1.15-.18 1.42-.57.26-.4.4-.89.4-1.42 0-.8-.23-1.36-.62-1.59-.45-.26-.93-.4-1.46-.4-.31 0-.57.05-.8.05v3.58h-.04Zm0-4.02a7.5 7.5 0 0 1 1.55-.18c.66 0 1.4.18 2.29.49.88.3 1.32 1.01 1.32 2.07 0 .75-.3 1.33-.92 1.81-.62.44-1.46.66-2.52.66-.44-.04-.75-.04-.97-.04h-3.8v-.44h.58c.3 0 .44-.09.44-.27 0-.04.04-.08.04-.17v-6.05c0-.09 0-.13-.04-.18-.04-.17-.18-.26-.44-.26h-.57v-.44h7.5l.04 1.94h-.53v-.44c0-.18-.22-.35-.62-.53-.4-.18-.92-.3-1.45-.4a9.54 9.54 0 0 0-1.28-.13c-.18.04-.31.04-.4.09-.09.04-.13.13-.13.26v2.21h-.09Zm-9.36 4.02c.36.26.8.4 1.28.4.53-.05.93-.18 1.2-.54.3-.3.44-.8.44-1.36 0-1.2-.62-1.77-1.81-1.77h-1.15v3.27h.04Zm0-3.8h1.6c.35-.04.61-.18.83-.4.22-.22.31-.53.31-.92 0-.27-.04-.53-.18-.75-.13-.22-.3-.4-.53-.49a1.75 1.75 0 0 0-.88-.18c-.44 0-.84.14-1.15.36v2.38Zm2.7.27c.66.04 1.28.22 1.76.61.53.36.75.89.75 1.55s-.3 1.19-.88 1.59c-.57.4-1.41.61-2.47.61-.22 0-.4-.04-.53-.04h-4.37v-.44H23c.31 0 .44-.09.44-.27.05-.04.05-.08.05-.17v-6.05c0-.09 0-.13-.05-.18-.04-.17-.17-.26-.44-.26h-.57v-.44h2.91c.4 0 .93 0 1.59-.05 1.37 0 2.3.18 2.78.58.49.4.75.84.75 1.32 0 .31-.09.62-.3.89a1.9 1.9 0 0 1-.85.57c-.44.09-.8.18-1.14.18Zm-13.51 3.8h3.13c.22 0 .4-.05.45-.23 0-.04.04-.09.04-.18v-5.82c0-.27-.04-.44-.09-.49-.04-.04-.13-.09-.3-.09h-.98c-.22 0-.4.05-.48.14-.1.08-.18.26-.23.57a2.2 2.2 0 0 0-.13.53l-.53 1.94c-.22.66-.4 1.24-.62 1.81l-.4.97c-.12.31-.21.49-.21.53-.1.22.09.31.35.31Zm-.4-6.85v-.44h7.1v.44h-.6c-.32 0-.45.09-.45.26v6.05c0 .35.13.53.44.53h.8v2.34h-.58v-.53c0-.26-.22-.48-.7-.66a7.59 7.59 0 0 0-1.68-.49 7.95 7.95 0 0 0-1.64-.17c-.44 0-.97.04-1.58.22-.62.13-1.15.3-1.6.48-.43.22-.65.4-.7.62l-.04.53h-.67l.18-2.34c.49.05.97-.35 1.46-1.15.44-.8.84-1.72 1.15-2.78.3-1.06.44-1.8.48-2.3 0-.21-.04-.35-.13-.43-.09-.1-.31-.14-.62-.14h-.62v-.04Zm25.12-2.38H28.62c1.72-8.57-10.82-17.66-16.6-1.55C14.01 1.52 40.1 8.41 39.4 22.14ZM.19 31.98h10.82C7.3 12.65 16.97 6.64 25.88 7.92 12.9 4.84-1.84 8.67.2 31.98Z"/></svg>