<svg xmlns="http://www.w3.org/2000/svg" viewBox="0 0 132.86 132.86">
  <circle cx="66.43" cy="66.43" r="66.43" fill="#fff"/>
  <path d="M13.69 79.34c-1.46 0-2.77-.23-3.92-.69a8.3 8.3 0 0 1-5.34-8.02V70c0-1.32.18-2.54.55-3.66s.91-2.1 1.63-2.94 1.62-1.5 2.7-1.97 2.34-.71 3.78-.71c1.27 0 2.41.2 3.42.61s1.86 1 2.56 1.76 1.24 1.69 1.61 2.77.56 2.3.56 3.65v2.27H6.57v-3.5h9.21v-.43c.01-.6-.09-1.11-.31-1.53s-.53-.74-.94-.96-.91-.33-1.49-.33-1.11.13-1.5.4-.7.63-.91 1.09-.37.99-.46 1.58-.13 1.23-.13 1.89v.63c0 .66.09 1.27.27 1.81s.45 1 .8 1.39.77.68 1.26.89 1.05.32 1.68.32c.76 0 1.52-.14 2.26-.43s1.38-.76 1.91-1.43l2.54 3.02c-.36.52-.88 1.02-1.55 1.51s-1.47.88-2.4 1.19-1.97.46-3.12.46ZM34.42 66.43v4.33h-9.97v-4.33h9.97ZM42.94 61.05 45 73.56l.23 5.44h-3.4l-4.25-17.95h5.36Zm1.31 12.61 3.32-12.61h3.5l-1.24 6.32L46.55 79h-2.8l.51-5.34Zm7.21-12.61 3.35 12.58.51 5.38h-2.84l-3.22-11.6-1.19-6.35h3.38Zm2.56 12.25 2.07-12.24h5.36l-4.21 17.95h-3.4l.18-5.71ZM73.46 68.04l.03 2.99h-2.47c-.52 0-.96.07-1.32.22s-.65.34-.86.59-.37.53-.46.84-.14.64-.14.98.08.63.24.89.38.46.66.61.59.22.93.22c.62 0 1.15-.12 1.58-.36s.77-.53 1-.87.35-.66.35-.96l1.23 2.29c-.22.44-.47.89-.75 1.34s-.63.87-1.05 1.25-.92.69-1.52.93-1.32.36-2.17.36c-1.11 0-2.12-.23-3.04-.68s-1.66-1.09-2.21-1.9-.83-1.75-.83-2.81c0-.93.17-1.76.51-2.49s.85-1.35 1.53-1.86 1.56-.9 2.62-1.16 2.31-.4 3.75-.4h2.41Zm-.68 6.45v-7.4c0-.51-.07-.95-.22-1.31s-.37-.65-.68-.85-.72-.31-1.24-.31c-.42 0-.78.07-1.08.22s-.53.36-.68.65-.23.65-.23 1.09h-5.59c0-.83.19-1.6.56-2.31s.9-1.34 1.59-1.87 1.52-.94 2.49-1.24 2.05-.44 3.24-.44c1.43 0 2.7.24 3.82.71s2.01 1.19 2.66 2.13.98 2.13.98 3.56v7.35c0 1.17.07 2.06.2 2.66s.32 1.13.56 1.58v.28h-5.61c-.27-.55-.46-1.23-.59-2.03s-.19-1.63-.19-2.48ZM87.42 53.52V79h-5.61V53.52h5.61ZM96.76 53.52V79h-5.61V53.52h5.61ZM108.88 79.34c-1.46 0-2.77-.23-3.92-.69a8.3 8.3 0 0 1-5.34-8.02V70c0-1.32.18-2.54.55-3.66s.91-2.1 1.63-2.94 1.62-1.5 2.7-1.97 2.34-.71 3.78-.71c1.27 0 2.41.2 3.42.61s1.86 1 2.56 1.76 1.24 1.69 1.61 2.77.56 2.3.56 3.65v2.27h-14.67v-3.5h9.21v-.43c.01-.6-.09-1.11-.31-1.53s-.53-.74-.94-.96-.91-.33-1.49-.33-1.11.13-1.5.4-.7.63-.91 1.09-.37.99-.46 1.58-.13 1.23-.13 1.89v.63c0 .66.09 1.27.27 1.81s.45 1 .8 1.39.77.68 1.26.89 1.05.32 1.68.32c.76 0 1.52-.14 2.26-.43s1.38-.76 1.91-1.43l2.54 3.02c-.36.52-.88 1.02-1.55 1.51s-1.47.88-2.4 1.19-1.97.46-3.12.46ZM128.16 61.05v3.88h-10.82v-3.88h10.82Zm-8.54-4.46h5.59v16.56c0 .48.06.84.17 1.1s.3.44.57.55.63.16 1.09.16c.32 0 .59 0 .8-.02l.6-.07v4a9.75 9.75 0 0 1-6.21-.08c-.85-.37-1.49-.97-1.93-1.78s-.66-1.86-.66-3.15V56.61ZM78.82 49.45l-4.47-.41a2.75 2.75 0 0 0-.5 5.48l4.47.41a2.75 2.75 0 0 0 .5-5.48ZM81.72 38.18c-.86-1.25-2.57-1.56-3.82-.69s-1.55 2.58-.69 3.83l3.46 4.99a2.73 2.73 0 0 0 3.82.69 2.76 2.76 0 0 0 .69-3.83l-3.46-4.99ZM93.84 34.81a2.74 2.74 0 0 0-3.37 1.93l-1.59 5.85a2.75 2.75 0 0 0 5.3 1.45l1.59-5.85a2.76 2.76 0 0 0-1.93-3.38ZM104.66 46.05a2.74 2.74 0 0 0-3.64-1.34l-4.07 1.88a2.75 2.75 0 0 0-1.34 3.65 2.74 2.74 0 0 0 3.64 1.34l4.07-1.88a2.76 2.76 0 0 0 1.34-3.65Z" fill="#02205f"/>
</svg>
