<?xml version="1.0" encoding="UTF-8"?><svg id="a" xmlns="http://www.w3.org/2000/svg" viewBox="0 0 67.23 67.23"><path d="M0,55.35c.58-2.19,1.15-4.38,1.74-6.57.54-2.01.12-1.74,2.13-1.74,4.68-.01,9.36,0,14.04-.01,1.74,0,2.17-.31,2.6-2,.69-2.71,1.35-5.42,2.01-8.14.06-.26.05-.54.08-.96h-11.71c.45-1.83.8-3.49,1.31-5.11.09-.3.79-.57,1.21-.58,3.24-.05,6.48-.06,9.72,0,.84.01,1.19-.24,1.38-1.06.62-2.68,1.32-5.35,1.98-8.02.42-1.71-.41-2.82-2.2-2.83-4.48-.02-8.96-.01-13.44-.01-.44,0-.87,0-1.53,0,.45-1.68.84-3.24,1.28-4.79.61-2.14.03-1.84,2.41-1.85,4.52-.02,9.04.12,13.55-.06,3.8-.15,7.13,3.32,5.97,7.78-1.82,6.99-3.52,14.01-5.26,21.02-.87,3.49-1.74,6.97-2.6,10.46-.75,3.04-2.82,4.67-5.95,4.68-6.24,0-12.48.01-18.71.02,0-.08,0-.16,0-.24ZM36.5,25.3c.28-1.19.51-2.38.84-3.56.81-2.91,3.08-4.62,6.09-4.63,5-.01,10.01-.23,15,.04,4.33.23,6.62-2.27,8.8-5.42-.26-.02-.41-.05-.57-.05-8.08,0-16.16,0-24.24.01-.43,0-.88.07-1.29.19-2.6.74-3.67,2.76-4.27,5.16-2.56,10.26-5.14,20.52-7.67,30.78-.2.8-.31,1.68-.21,2.48.44,3.45,3.43,5.71,6.81,5.22,3.23-.46,5.45-3.56,4.96-6.92-.48-3.33-4.21-5.73-7.34-4.7-.56.19-1.06.54-1.75.89.16-.65.26-1.11.38-1.57.88-3.31,3.03-4.97,6.42-4.97,1.08,0,2.17.08,3.24-.02.86-.08,1.76-.24,2.53-.6,2.23-1.07,3.56-3.08,5.18-5.1-3.03,0-5.83.1-8.61-.03-2.89-.13-5.19.68-6.67,3.29-.02.03-.12,0-.25,0,.27-1.06.52-2.1.81-3.14.8-2.95,3.1-4.71,6.15-4.72,3.12,0,6.24,0,9.36,0,2.98,0,6.95-2.92,7.94-5.85-5.41,0-10.81-.05-16.2.02-2.02.03-3.69.94-4.81,2.71-.12.19-.29.36-.44.53-.05-.02-.11-.05-.16-.07Z" style="fill:#1e4588; stroke-width:0px;"/></svg>