<svg xmlns="http://www.w3.org/2000/svg" xml:space="preserve" viewBox="0 0 397.8 45.4">
  <path fill="#fda329" d="M23.5 16.2a13.4 13.4 0 1 1 13.4 13.4c-7.4 0-13.4-6-13.4-13.4zM0 34.6h73.9v10.1H0zM5 2.7c-1.7 0-3.4.3-5 1v24.9A13.4 13.4 0 0 0 10 3.7c-1.6-.6-3.3-1-5-1zm63.8 0c1.7 0 3.4.3 5 1v24.9a13.4 13.4 0 0 1-17.5-7.4A13.4 13.4 0 0 1 68.8 2.7z"/>
    <path fill="none" d="M96.1 5h303.3v119.3H96.1z"/>
    <path fill="#004259" d="M129.2 9.2c4 4 6 9 6 15s-2 11-6 15c-4 4.1-9 6.1-15.1 6.1a20 20 0 0 1-17.4-9.6l6.9-4c1.9 3.5 5.9 5.7 10.5 5.7 6.6 0 11.3-3.7 12.7-9.6h-18.1v-7.5h18.1c-1.4-5.9-6.1-9.6-12.7-9.6-4.6 0-8.5 2.1-10.5 5.8l-6.9-4a20.1 20.1 0 0 1 17.4-9.6 21 21 0 0 1 15.1 6.3zm38 35.3h-8.7L148 31.3v13.2h-7.5v-29h7.5v12.8l10-12.8h8.9l-11.7 14.3 12 14.7zm4.5-3.6a15 15 0 0 1-4.3-10.9 14.8 14.8 0 0 1 15.3-15.3c5.6 0 10.6 2.9 13 7.5l-6.4 3.8a7.2 7.2 0 0 0-6.6-3.9 7.6 7.6 0 0 0-7.8 7.9c0 2.3.8 4.2 2.2 5.7a7.9 7.9 0 0 0 5.6 2.2c3 0 5.5-1.4 6.7-3.8l6.5 3.7a14.9 14.9 0 0 1-13.1 7.5c-4.5 0-8.1-1.4-11.1-4.4zm54.8-25.4v29H219v-22h-11.5v22H200v-29h26.5zm20.6 29.8c-4.3 0-7.9-1.4-10.9-4.4-3-3-4.4-6.6-4.4-10.9s1.4-7.9 4.4-10.8c3-3 6.6-4.5 10.9-4.5s7.9 1.5 10.9 4.5 4.5 6.6 4.5 10.8-1.5 7.9-4.5 10.9-6.6 4.4-10.9 4.4zm0-7.3c2.3 0 4.1-.8 5.6-2.3s2.3-3.4 2.3-5.7c0-2.3-.8-4.2-2.3-5.7s-3.4-2.3-5.6-2.3c-2.3 0-4.1.8-5.6 2.3a8.1 8.1 0 0 0-2.2 5.7c0 2.3.8 4.2 2.2 5.7a7.5 7.5 0 0 0 5.6 2.3zm23.3 2.9c-2.8-3-4.2-6.7-4.2-11.2 0-4.9.8-8.8 2.2-11.4 1.5-2.7 4.4-5.2 8.9-7.4l2.8-1.3 2.4-1.2 1.9-1c2.1-1.3 2.7-2.3 3.7-4.6l6.1 3.5a8.6 8.6 0 0 1-3.4 5.5 30.3 30.3 0 0 1-7.9 3.9c-4.9 1.9-6.8 3.7-7.8 6.4 2.1-2.2 5-3.3 8.7-3.3a12.4 12.4 0 0 1 12.4 12.8c0 4-1.3 7.2-4.1 9.8a14.5 14.5 0 0 1-10.6 3.8c-4.6.1-8.2-1.3-11.1-4.3zm5.9-14.3c-1.5 1.2-2.2 2.8-2.2 4.8s.7 3.7 2.1 5c1.5 1.3 3.2 2 5.3 2 2.1 0 3.8-.6 5.2-1.9 1.3-1.3 2-2.9 2-4.9 0-3.9-3-6.8-7.2-6.8a8 8 0 0 0-5.2 1.8zm46.4-11.1h7.5v29h-7.5v-3.4a11.5 11.5 0 0 1-9.5 4.2 13 13 0 0 1-10-4.4c-2.7-3-4.1-6.6-4.1-10.9s1.4-7.9 4.1-10.8c2.8-3 6.1-4.5 10-4.5 4.1 0 7.2 1.4 9.5 4.2v-3.4zm-8.1 22.7a7.8 7.8 0 0 0 8-8.2c0-2.4-.8-4.3-2.3-5.9-1.5-1.6-3.4-2.3-5.7-2.3s-4.2.8-5.7 2.3a8 8 0 0 0-2.3 5.9 8 8 0 0 0 2.3 5.9 7.8 7.8 0 0 0 5.7 2.3zM356 15.5h7.5v29H356v-11h-11.5v11H337v-29h7.5v11H356v-11zm41 29h-8.7l-10.6-13.2v13.2h-7.5v-29h7.5v12.8l10-12.8h8.9L385 29.8l12 14.7z"/>
</svg>
