<svg xmlns="http://www.w3.org/2000/svg" width="40" height="40" fill="none"><path fill="#EE7C00" d="m21.6.5 14.2 8.2c1.1.6 1.8 1.8 1.8 3.1v16.4c0 1.3-.7 2.4-1.8 3.1l-14.2 8.2c-1.2.7-2.5.7-3.6 0L3.8 31.3A3.5 3.5 0 0 1 2 28V11.8c0-1.3.6-2.5 1.8-3.2L18 .5c1.1-.7 2.4-.7 3.6 0Z"/><path fill="#fff" d="m21 6.3 10 5.8c.8.4 1.2 1.2 1.2 2.2v11.4c0 1-.4 1.7-1.2 2.2l-10 5.7c-.8.5-1.7.5-2.5 0L16 32.1c-.6-.3-.4-1 0-1.3l9.8-5.6c.9-.5 1.2-1 1.2-2.2v-2.6c0-.7-.7-1.3-1.6-.8l-14.8 8.6c-.7.4-.9.3-1.3 0-1.8-1-1.9-1.5-1.9-3.4 0-.4.2-.5.4-.7 5-3 10.1-5.8 15.1-8.7 1-.6.7-1.7 0-2l-2.2-1.2c-.7-.4-1.4-.6-2.3 0l-9.8 5.6c-.6.4-1.2 0-1.2-.6v-3c0-.9.5-1.7 1.3-2.1l10-5.7c.7-.5 1.6-.5 2.4 0Z"/></svg>