<svg xmlns="http://www.w3.org/2000/svg" width="40" height="40" fill="none"><path fill="#8C261E" d="M25.2.3 22.3 0c-3.5 0-6.8.9-10 2.4C9 4 6.1 6.4 3.8 9.2l4.5 4.7c.7-1.1 1.5-1.9 2.4-2.8L8.5 9c1.9-1.7 4-3.2 6.3-4.1a17.9 17.9 0 0 1 9.5-1.4c7.9 1.1 12.8 8.6 11.5 16.5a19.9 19.9 0 0 1-19.3 16.6A14 14 0 0 1 5 31.1l3.1-2.4a6.9 6.9 0 0 1-1.5-2.8L.4 30.7c1.3 2.8 3.5 5.2 6.3 7C9.3 39.2 12.5 40 16 40c5.5 0 10.8-2.3 15.1-5.9a25 25 0 0 0 8.2-14.2c.8-4.9-.4-10.2-3.7-14.2A17.2 17.2 0 0 0 25.2.3Z"/><path fill="#8C261E" d="M12.4 18.6h18.5c0-2.8-.9-5.4-2.8-7.2a10.2 10.2 0 0 0-7.2-2.8c-3.2 0-6.3 1.3-8.8 3.5a13.2 13.2 0 0 0-4.7 8.3L7.3 22c0 2.5.8 4.7 2.3 6.4a10 10 0 0 0 7.7 3.4c2.9 0 5.8-1.1 8.2-2.8 2.4-1.9 4.1-4.3 5.1-7.2H11.9a6 6 0 0 0 1.2 3.2h12l-.1.2c-.1.1-.1.3-.3.3a9.4 9.4 0 0 1-6.8 3.1c-2.1 0-4.1-.8-5.5-2.3a6.5 6.5 0 0 1-1.6-4.5l.1-1.3c.4-2.3 1.6-4.4 3.3-5.9 1.7-1.5 4-2.4 6.3-2.4a8 8 0 0 1 3.7.9c1.1.5 1.9 1.5 2.4 2.5H14.8a6.4 6.4 0 0 0-2.4 3Z"/></svg>