<?xml version="1.0" encoding="UTF-8"?><svg id="a" xmlns="http://www.w3.org/2000/svg" viewBox="0 0 42.35 42.35"><g id="b"><path d="M.38,21.17c.95-5.23,3.81-9.8,7.86-12.95C11.36,4.18,15.93,1.32,21.16.36c-1.22-.23-2.5-.33-3.78-.33C12.51.03,8.04,1.68,4.46,4.47,1.69,8.06.02,12.53.02,17.43c.03,1.25.13,2.53.36,3.75Z" fill="#f99d1c" stroke-width="0"/><path d="M21.16,41.99c-5.23-.95-9.8-3.81-12.92-7.86-4.04-3.12-6.9-7.69-7.86-12.95-.23,1.22-.33,2.5-.33,3.78,0,4.87,1.64,9.37,4.44,12.95,3.58,2.76,8.06,4.44,12.92,4.44,1.28-.03,2.53-.16,3.75-.36Z" fill="#00aeef" stroke-width="0"/><path d="M8.24,8.22C4.19,11.34,1.33,15.91.38,21.17c.95,5.23,3.81,9.8,7.86,12.95-2.76-3.58-4.44-8.09-4.44-12.95s1.68-9.37,4.44-12.95Z" fill="#c7eafb" stroke-width="0"/><path d="M21.16.36c5.23.95,9.8,3.81,12.92,7.86,4.04,3.12,6.9,7.69,7.86,12.95.23-1.22.33-2.5.33-3.78,0-4.87-1.64-9.37-4.44-12.95C34.24,1.68,29.77,0,24.91,0c-1.25.03-2.53.13-3.75.36h0Z" fill="#aa55a1" stroke-width="0"/><path d="M8.24,8.22c3.58-2.76,8.06-4.44,12.92-4.44s9.37,1.64,12.92,4.44c-3.12-4.04-7.69-6.9-12.92-7.86-5.23.95-9.8,3.81-12.92,7.86Z" fill="#ffce7b" stroke-width="0"/><path d="M41.94,21.17c-.92,5.23-3.81,9.8-7.83,12.92-3.12,4.04-7.69,6.9-12.92,7.86,1.22.23,2.5.33,3.78.33,4.87,0,9.37-1.64,12.92-4.44,2.76-3.58,4.44-8.06,4.44-12.95-.03-1.25-.16-2.5-.39-3.72Z" fill="#9aca3c" stroke-width="0"/><path d="M8.24,34.1c3.12,4.04,7.69,6.9,12.92,7.86,5.23-.95,9.8-3.81,12.92-7.86-3.55,2.79-8.06,4.44-12.92,4.44s-9.34-1.64-12.92-4.44Z" fill="#c6de89" stroke-width="0"/><path d="M34.11,34.1c4.01-3.12,6.9-7.69,7.83-12.92-.95-5.23-3.81-9.8-7.86-12.95,2.76,3.58,4.44,8.06,4.44,12.95s-1.64,9.37-4.41,12.92Z" fill="#d3b6d7" stroke-width="0"/><path d="M8.24,8.22c-2.76,3.58-4.44,8.09-4.44,12.95s1.64,9.37,4.44,12.95c3.58,2.76,8.06,4.41,12.92,4.41s9.37-1.64,12.92-4.44c2.79-3.55,4.44-8.06,4.44-12.92s-1.64-9.37-4.44-12.95c-3.58-2.76-8.06-4.44-12.92-4.44-4.87.03-9.34,1.68-12.92,4.44Z" fill="#fff" stroke-width="0"/><path d="M22.51,14.2h2.17c.49,0,.66.2.66.69l.07.69c.79-.66,2.24-1.58,4.5-1.58,2.6,0,4.08,1.58,4.08,3.78v9.77c0,.49-.2.72-.69.72h-2.27c-.49,0-.72-.23-.72-.72v-8.81c0-1.02-.3-1.51-1.51-1.48-1.41,0-2.7.82-3.26,1.28v9.04c0,.49-.16.72-.66.72h-2.33c-.53,0-.69-.23-.69-.72v-12.63c-.03-.56.13-.76.66-.76ZM19.25,18.15v3.26c0,.46-.16.66-.62.66h-7.23v2.07c0,.99.53,1.55,2.2,1.55s2.2-.56,2.2-1.55v-.13c0-.49.2-.69.69-.69h1.97c.49,0,.69.23.69.69v.3c0,2.53-1.48,4.18-5.62,4.18s-5.79-1.64-5.79-4.18v-6.18c0-2.5,1.68-4.14,5.82-4.14,4.18.03,5.69,1.64,5.69,4.18ZM11.39,18.35v1.25h4.41v-1.25c0-.99-.62-1.55-2.2-1.55-1.61-.03-2.2.56-2.2,1.55Z" fill="#aa55a1" stroke-width="0"/></g></svg>