<svg xmlns="http://www.w3.org/2000/svg" viewBox="0 0 42.35 42.35">
  <path d="M.38 21.17c.95-5.23 3.81-9.8 7.86-12.95A21.15 21.15 0 0 1 21.16.36a20.91 20.91 0 0 0-16.7 4.11A21.1 21.1 0 0 0 .38 21.18Z" fill="#f99d1c"/>
  <path d="M21.16 41.99a21.06 21.06 0 0 1-12.92-7.86A21.13 21.13 0 0 1 .38 21.18a20.94 20.94 0 0 0 4.11 16.73 21.12 21.12 0 0 0 12.92 4.44c1.28-.03 2.53-.16 3.75-.36Z" fill="#00aeef"/>
  <path d="M8.24 8.22A21.04 21.04 0 0 0 .38 21.17c.95 5.23 3.81 9.8 7.86 12.95-2.76-3.58-4.44-8.09-4.44-12.95S5.48 11.8 8.24 8.22Z" fill="#c7eafb"/>
  <path d="M21.16.36c5.23.95 9.8 3.81 12.92 7.86a21.13 21.13 0 0 1 7.86 12.95 20.94 20.94 0 0 0-4.11-16.73A21.14 21.14 0 0 0 24.91 0c-1.25.03-2.53.13-3.75.36Z" fill="#aa55a1"/>
  <path d="M8.24 8.22c3.58-2.76 8.06-4.44 12.92-4.44s9.37 1.64 12.92 4.44A21.15 21.15 0 0 0 21.16.36c-5.23.95-9.8 3.81-12.92 7.86Z" fill="#ffce7b"/>
  <path d="M41.94 21.17a21.02 21.02 0 0 1-7.83 12.92 21.15 21.15 0 0 1-12.92 7.86c1.22.23 2.5.33 3.78.33 4.87 0 9.37-1.64 12.92-4.44a21.14 21.14 0 0 0 4.44-12.95c-.03-1.25-.16-2.5-.39-3.72Z" fill="#9aca3c"/>
  <path d="M8.24 34.1a21.15 21.15 0 0 0 12.92 7.86c5.23-.95 9.8-3.81 12.92-7.86-3.55 2.79-8.06 4.44-12.92 4.44S11.82 36.9 8.24 34.1Z" fill="#c6de89"/>
  <path d="M34.11 34.1a21.1 21.1 0 0 0 7.83-12.92 21.21 21.21 0 0 0-7.86-12.95 21.14 21.14 0 0 1 .03 25.87Z" fill="#d3b6d7"/>
  <path d="M8.24 8.22C5.48 11.8 3.8 16.31 3.8 21.17s1.64 9.37 4.44 12.95a21.1 21.1 0 0 0 25.84-.03c2.79-3.55 4.44-8.06 4.44-12.92s-1.64-9.37-4.44-12.95a21.12 21.12 0 0 0-12.92-4.44A21.29 21.29 0 0 0 8.24 8.22Z" fill="#fff"/>
  <path d="M22.51 14.2h2.17c.49 0 .66.2.66.69l.07.69a6.82 6.82 0 0 1 4.5-1.58c2.6 0 4.08 1.58 4.08 3.78v9.77c0 .49-.2.72-.69.72h-2.27c-.49 0-.72-.23-.72-.72v-8.81c0-1.02-.3-1.51-1.51-1.48-1.41 0-2.7.82-3.26 1.28v9.04c0 .49-.16.72-.66.72h-2.33c-.53 0-.69-.23-.69-.72V14.95c-.03-.56.13-.76.66-.76Zm-3.26 3.95v3.26c0 .46-.16.66-.62.66H11.4v2.07c0 .99.53 1.55 2.2 1.55s2.2-.56 2.2-1.55v-.13c0-.49.2-.69.69-.69h1.97c.49 0 .69.23.69.69v.3c0 2.53-1.48 4.18-5.62 4.18s-5.79-1.64-5.79-4.18v-6.18c0-2.5 1.68-4.14 5.82-4.14 4.18.03 5.69 1.64 5.69 4.18Zm-7.86.2v1.25h4.41v-1.25c0-.99-.62-1.55-2.2-1.55-1.61-.03-2.2.56-2.2 1.55Z" fill="#aa55a1"/>
</svg>
