<svg xmlns="http://www.w3.org/2000/svg" viewBox="0 0 44 44">
  <path d="M19.91 0c-7.43 0-14 3.61-18.04 9.14l4.09 2.91a17.22 17.22 0 0 1 13.95-7.07c8.71 0 15.9 6.41 17.03 14.73H22.6l1.73 4.58c.22.57.44 1.19.44 1.76 0 1.19-.8 1.58-2.18 1.58h-4.4V16.37h8l1.73-4.58H13.21v20.42h9.87c3.91 0 6.71-1.72 6.71-5.28 0-.81-.22-1.86-.45-2.64h7.58a17.14 17.14 0 0 1-17.03 14.73 17.23 17.23 0 0 1-13.95-7.07l-4.09 2.91A22.26 22.26 0 0 0 19.88 44c12.27 0 22.22-9.85 22.22-22S32.18 0 19.91 0Z" fill="#2f58a8"/>
</svg>
