<?xml version="1.0" encoding="UTF-8"?><svg id="a" xmlns="http://www.w3.org/2000/svg" viewBox="0 0 44 44"><path d="M19.91,0C12.48,0,5.91,3.61,1.87,9.14l4.09,2.91c3.12-4.28,8.2-7.07,13.95-7.07,8.71,0,15.9,6.41,17.03,14.73h-14.34l1.73,4.58c.22.57.44,1.19.44,1.76,0,1.19-.8,1.58-2.18,1.58h-4.4v-11.26h8l1.73-4.58h-14.71v20.42h9.87c3.91,0,6.71-1.72,6.71-5.28,0-.81-.22-1.86-.45-2.64h7.58c-1.13,8.31-8.32,14.73-17.03,14.73-5.74,0-10.83-2.79-13.95-7.07l-4.09,2.91c4.04,5.54,10.61,9.14,18.03,9.14,12.27,0,22.22-9.85,22.22-22S32.18,0,19.91,0Z" fill="#2f58a8" stroke-width="0"/></svg>