<svg xmlns="http://www.w3.org/2000/svg" width="40" height="40" fill="none"><path fill="#264796" fill-rule="evenodd" d="M21.9 11.9a4.32 4.32 0 0 0-1.55-1.56c.43 0 .86 0 1.29.05.1.48.16.97.27 1.5 0 0 0-.05 0 0Zm13.18.9-.43-.27c-.16-.1-.38-.21-.54-.32.65-.48 1.4-.96 2.2-1.28-.48.59-.86 1.23-1.23 1.87ZM15.96 15c1.5-.32 2.79-.43 4.29-.32.1.05.05.16-.06.21-.53.32-2.84.7-4.23.1Zm-13.5 8.46a7.66 7.66 0 0 1-.9-2.04c0-.16-.06-.26-.06-.43-.05-.37-.05-.74-.05-1.17 0-.27.05-.49.1-.7.17-.64.44-1.23.76-1.82a14.05 14.05 0 0 1 1.5-1.77c.42-.37.8-.7 1.28-1.07 1.13-.75 2.3-1.39 3.54-1.93.21-.1.42-.16.64-.26a25.2 25.2 0 0 1 3.43-1.02c.48-.1.9-.22 1.39-.27-1.88 1.23-1.56 2.84.32 3.8-2.68.43-6.86 2.36-7.34 5.68-2.2.16-4.28.8-4.6 3ZM20.2 25.6c-1.93-1.34-4.01-2.36-3.8-4.98.21-1.5 1.6-2.04 3.21-2.09 1.72.1 2.9.43 3.91 1.71.06.17.16.27.16.43.48 2.04-1.71 3.86-3.48 4.93Zm9.59.1a7.65 7.65 0 0 0-2.63-4.81c2.41-3.27 3.16-4.82 5.2-7.18l.53-.53c.48.26.97.53 1.45.85-1.77 3.8-3.27 7.71-4.55 11.68Zm-8.04.6c-.32-.11-.64-.27-.96-.38 1.71-1.18 4.07-3.16 3.59-5.35a2.75 2.75 0 0 0-1.13-1.66c.86.16 2.57 1.39 3.32 1.92-1.39 1.66-3.05 4.13-4.82 5.47Zm-8.46.53c-.21-.05-.42-.1-.64-.1-3.1-.76-4.07-2.52-3.7-5.25 2.58.16 7.61 1.87 4.67 5.08l-.27.27h-.06Zm.54 0c1.4-.96 1.71-2.2.96-3.53-1.17-1.77-3.42-2.3-5.57-2.73C9.6 18.05 12.48 16 15 15.2c1.98.59 4.07.75 5.94-.1.38-.17.38-.43.05-.7-1.17-.6-4.28-.1-5.67.16h-.05c-.11-.1-.22-.16-.33-.27-1.07-1.02-1.39-2.46-.1-3.43.1-.05.21-.16.37-.21 1.07-.16 2.2-.27 3.27-.32h.16c1.02.27 1.93.75 2.62 1.5.54.7.86 1.44 1.23 2.2l.38.15c-.43-1.23-.7-2.46-.8-3.74-.27-.11 2.4.16 2.73.21.37.05.8.1 1.17.21 1.13.22 2.3.49 3.43.8.91.33 1.82.65 2.68 1.08.16.05.32.16.48.21-1.93 1.82-3.7 4.71-5.78 7.55-.91-.7-1.93-1.34-3-1.82a10 10 0 0 0-2.25-.7c-2.78-.69-7.55-.32-6.75 3.27.7 2.2 2.79 3.54 4.88 4.6-1.61.7-3.97 1.24-5.84.97Zm8.51-.32c1.07-.8 4.4-5.14 4.6-5.35a7.57 7.57 0 0 1 2.42 6.53c-2.9.1-5.3-.54-7.02-1.18Zm9.32 1.45c.86-4.56 2.3-8.73 4.02-13.07.37.32.7.64 1.07 1.02l.59.7c.32.42.32.42.43.64a5.75 5.75 0 0 1 .86 3.43c-.06.42-.17.85-.28 1.23-.05.1-.1.26-.16.37-.32.7-.7 1.28-1.17 1.93-.22.21-.38.43-.6.64-.53.54-1.12 1.02-1.76 1.45-.64.42-1.34.8-2.04 1.17-.58.33-.58.33-.96.49Zm-17.78 1.66a23.6 23.6 0 0 1-6.9-2.3c-.54-.27-1.02-.6-1.5-.92a9.69 9.69 0 0 1-1.82-1.5c-.54-1.5.32-3.53 3.32-3.58a5.39 5.39 0 0 0 2.94 5.35c3.1 1.55 7.07 1.07 10.07-.37.27-.11.27-.11.21-.11.16.05 1.13.43 1.29.43a14.93 14.93 0 0 1-7.6 3Zm2.15.32c2.3-.48 4.28-1.56 5.94-3.1 2.09.8 4.87 1.44 7.23 1.17l-.32.96c-.11.06-.6.16-1.07.27a34.74 34.74 0 0 1-11.78.7Zm3.15 1.55a35.11 35.11 0 0 1-7.5-1.02c-.31-.1-.63-.16-.96-.27l-.96-.16c-.32-.05-.32-.05-.91-.21a13.26 13.26 0 0 1-3.05-1.23l-.43-.27c-.43-.27-.8-.59-1.18-.91a5.73 5.73 0 0 1-.75-.86c-.7-.59-1.28-1.17-1.82-1.87-.1-.16-.21-.27-.32-.38-.16-.21-.16-.21-.43-.7a10.8 10.8 0 0 1-.8-2.19c0-.16-.06-.32-.06-.53v-1.02l.06-.43c0-.16.05-.32.05-.48.22-.96.6-1.77 1.13-2.62.53-.8 1.17-1.5 1.92-2.2.22-.16.43-.32.65-.53.7-.54 1.44-.97 2.2-1.45.9-.48 1.87-.91 2.83-1.29.37-.1.75-.26 1.12-.37.27-.1.54-.16.86-.27.43-.1.91-.21 1.45-.37 1.07-.27 2.14-.43 3.21-.6.37-.05.75-.1 1.12-.1L19.66 9h.8c.86 0 1.71.05 2.57.1 1.55.17 3.1.38 4.66.7.48.11 1.02.27 1.5.38 1.23.37 2.4.8 3.53 1.28.54.27.54.27.91.43.75-.59 1.56-1.12 2.41-1.55l1.66-.8-1.6 3.96.64.53c.43.38.8.75 1.18 1.18.32.38.32.38.59.75.42.59.74 1.23 1.01 1.88.16.48.27.96.38 1.44 0 .1 0 .22.05.32 0 .48 0 .48.05.48v.65a7.34 7.34 0 0 1-.42 1.87c-.22.48-.49.96-.75 1.45-.27.43-.6.8-.91 1.17-.16.17-.33.38-.54.54-.21.16-.37.38-.59.54-.48.42-1.02.8-1.55 1.17-.27.16-.59.33-.86.54a24.58 24.58 0 0 1-5.3 2.2c-.32.1-.64.16-.96.26-1.29.32-2.57.54-3.91.7l-1.66.16c-.6.05-1.13.05-1.72.05-.48.11-1.07.11-1.66.11Z" clip-rule="evenodd"/></svg>