<svg xmlns="http://www.w3.org/2000/svg" width="40" height="40" fill="none"><path fill="#BCBDC1" d="M0 0h40v40H0z"/><path fill="#003F70" d="M2.6 35.93v-1.86h1.48c.82 0 1.48-.66 1.48-1.48V7.02c0-.82-.66-1.49-1.48-1.49H2.6V3.7h20v8.15h-1.11v-1.48a4.44 4.44 0 0 0-4.45-4.44H12.6c-.41 0-.74.33-.74.74v11.85h1.85a2.96 2.96 0 0 0 2.96-2.96v-1.49h1.48V25.2h-1.48v-1.06a2.96 2.96 0 0 0-2.96-2.96h-1.85v12.28h5.48a3.6 3.6 0 0 0 3.45-2.47c.39-1.19.79-2.53.95-3.36h.86v8.3h-20Z" opacity=".7"/><path fill="#fff" fill-rule="evenodd" d="M27.85 33.45h2.9v2.48H22.6v-8.31h.86c.1.52.29 1.24.52 2 5.44-.32 7.5-4.67 7.5-9.99 0-5.2-3.06-9.49-7.35-9.96-.03.23-.05.47-.05.7v1.48H22.6V3.7h7.77v2.23h-2.22a3.9 3.9 0 0 0-3.32 1.87l.73-.02A12.4 12.4 0 0 1 37.78 20a11.99 11.99 0 0 1-12.97 11.83c.66 1 1.8 1.63 3.04 1.63Z" clip-rule="evenodd"/></svg>