<svg xmlns="http://www.w3.org/2000/svg" viewBox="0 0 313.6 313.6"><path d="M155.4 64.6c33.7.3 65 5.3 94.8 18.2 17.4 7.5 33 17.4 46 31.5a60.3 60.3 0 0 1 2.4 82.2 122.9 122.9 0 0 1-46.3 33.5 222.8 222.8 0 0 1-73 18c-36.8 3.1-72.8-.7-107.5-13.7A132 132 0 0 1 17 198.8c-21.2-24.2-23-54.5-3-80 13.1-17 30.7-28 50.1-36.4a226.8 226.8 0 0 1 71-16.9c7.3-.6 14.5-.3 20.3-1Zm.1 178.6c11.5-.1 21.6-.7 31.8-2 24-2.7 47-8.6 68.7-19.5a104.8 104.8 0 0 0 42-34.6 51.4 51.4 0 0 0 8.3-42c-3-12-9.6-22-18.2-30.5a138.7 138.7 0 0 0-58-33.1 243.6 243.6 0 0 0-95.7-10 224 224 0 0 0-58 12.4c-21.8 8-41.7 19-56.9 37.4a54.1 54.1 0 0 0 .7 72 118 118 0 0 0 39 29.1c30.7 15 63.6 20.4 96.3 20.9Zm1-5.8c-30.2-.2-59.5-4.7-87.4-16.4a116.8 116.8 0 0 1-40.6-26.8C5.4 169.8 7.3 139 31.9 116a134.5 134.5 0 0 1 51.3-28.6c18.6-6.1 37.7-9.3 57.2-10.6 28-1.9 55.4.8 82.3 8.3a146.2 146.2 0 0 1 52.9 25.6A65.6 65.6 0 0 1 299 142a49.4 49.4 0 0 1-10.6 48.6 109.5 109.5 0 0 1-43.2 30.1c-20 8.6-41 13.4-62.6 15.4-8.7.8-17.4 1.5-26.2 1.3Zm.6-5.9c6.4 0 12.8-.2 19.1-.7 21.4-1.6 42.3-5.7 62.3-13.7a111.7 111.7 0 0 0 43.8-28.6c7-8 11.9-16.9 13-27.6a45.8 45.8 0 0 0-13.7-36.4c-15.3-16.8-35.1-26-56.4-32.6a234 234 0 0 0-84.3-9.2 219.3 219.3 0 0 0-59 11.4 123.9 123.9 0 0 0-48 28.3c-20.1 20.1-21 45.2-2 66.5 10 11.3 22.6 19.1 36.3 25.2a217.7 217.7 0 0 0 88.9 17.4Z" style="fill:#7b7b8d;stroke-width:0"/><path d="M112.8 108.4c0-2.8.8-4.9 1.3-6.9.7-.8 1.5-.6 2.2-.6 20.2 0 40.3-.1 60.4.1 12.8.2 25.3 2.3 37 8.2 17.4 8.8 25.6 25.7 21 47.4H102c-.7-2.2.3-4.1.7-6 .5-2.2 2.4-1.4 3.7-1.4h48.8c1.3 0 2.7.2 4-.4 2.3-13-4-27-15.6-33.7a53.6 53.6 0 0 0-24.4-6.7h-6.3Z" style="fill:#057f74;stroke-width:0"/><path d="M227.9 174.2c-9 12.7-20 22.1-34 27.8-11.9 4.9-24.4 7-37.2 7.6-21.4 1-42.9.3-64.4.5l-3-.1c-.8-2.2.5-4 .6-6 .1-1.6 1.5-1.4 2.9-1.4a80.1 80.1 0 0 0 34.6-8.1 58 58 0 0 0 21.6-18.2c1-1.4 2-2.5 4.1-2.5 24.4.1 48.7 0 73 0l1.8.4Z" style="fill:#7b7b8d;stroke-width:0"/></svg>
