<svg xmlns="http://www.w3.org/2000/svg" width="40" height="40" fill="none"><path fill="#B4241C" d="m22.2 6.5 4.1 3.3c.6-.8 1.1-1.5 1.7-2.4l-4.1-3.3c-.5.9-1.1 1.7-1.7 2.4Zm13.7 7c-.5.9-1.1 1.7-1.6 2.4l4.1 3.3c.6-.8 1.1-1.5 1.6-2.4l-4.1-3.3Z"/><path fill="#C23F31" d="m19.9 9.2 4.1 3.3c.7-.7 1.3-1.3 2-2.2L21.8 7c-.5.9-1.2 1.6-1.9 2.2Zm13.9 7.2c-.7.8-1.3 1.5-2 2.2l4.1 3.3c.7-.7 1.3-1.3 2-2.2l-4.1-3.3Z"/><path fill="#DA8C97" d="M18.5 10.4c-.5.4-1 .7-1.5 1.1l4.2 3.3.1-.1c.8-.5 1.5-1.1 2.3-1.7l-4.1-3.3c-.4.2-.7.5-1 .7ZM31.4 19c-.3.3-.7.5-1 .8-.5.4-1 .7-1.5 1.1l4.1 3.3.1-.1c.8-.5 1.5-1.1 2.3-1.7l-4-3.4Z"/><path fill="#EDCDCD" d="m13.7 13.3 4.2 3.3 2.7-1.5-4.1-3.2c-.9.4-1.8.9-2.8 1.4Zm14.7 7.9c-.8.5-1.7 1-2.8 1.4l4.2 3.3 2.7-1.5-4.1-3.2Z"/><path fill="#DA8D8D" d="m10 14.9 4 3.2c.1 0 .2-.1.3-.1 1-.3 1.9-.7 2.9-1.2L13 13.6c-.9.4-1.8.9-3 1.3ZM25 23c-1 .5-1.9.9-3 1.3l4 3.2c.1 0 .2-.1.3-.1 1-.3 1.9-.7 2.9-1.2L25 23Z"/><path fill="#C52E1A" d="M8 15.8c-.6.2-1.2.5-1.6.8l4.1 3.3c.9-.6 1.8-1.1 2.9-1.4l-4-3.2c-.5.1-.9.3-1.4.5Zm13.3 8.8c-.5.2-.9.4-1.3.6-.6.2-1.2.5-1.6.8l4.1 3.3c.9-.6 1.8-1.1 2.9-1.4 0-.1-4.1-3.3-4.1-3.3Z"/><path fill="#A6201C" d="m3.6 18.9 4.1 3.3c.7-.8 1.4-1.4 2.2-2l-4.1-3.3c-.8.6-1.6 1.3-2.2 2Zm14.2 7.4c-.8.6-1.5 1.3-2.2 2l4.1 3.3c.7-.8 1.4-1.4 2.2-2l-4.1-3.3Z"/><path fill="#A01F1C" d="M1.5 21.8 5.7 25c.5-.9 1.1-1.7 1.6-2.4l-4.1-3.3c-.6.9-1.2 1.7-1.7 2.5Zm13.7 6.9c-.6.8-1.2 1.5-1.6 2.4l4.1 3.2c.5-.9 1.1-1.7 1.6-2.4l-4.1-3.2Z"/><path fill="#791D19" d="m0 25.1 4.1 3.3c.1-.5.3-1.2.6-1.8.2-.4.4-.7.6-1.1l-4-3.1c-.5.9-.9 1.7-1.3 2.7Zm13.2 6.6c-.5.9-.9 1.7-1.3 2.8l4.1 3.3c.1-.5.3-1.2.6-1.8.2-.4.4-.7.6-1.1l-4-3.2Z"/><path fill="#DFAF1F" d="M28.2 11.2c.6-.8 1.1-1.5 1.6-2.4l4.1 3.3c-.5.9-1.1 1.7-1.6 2.4 0-.1-4.1-3.3-4.1-3.3Z"/><path fill="#F0D24F" d="M25.9 13.8c.7-.7 1.3-1.3 2-2.2l4.1 3.3c-.7.8-1.3 1.5-2 2.2l-4.1-3.3Z"/><path fill="#F6DA82" d="M23 16.1c.6-.4 1.1-.7 1.5-1.1a7 7 0 0 0 1-.8l4.1 3.3c-.8.7-1.5 1.2-2.3 1.7l-.1.1-4.2-3.2Z"/><path fill="#FFF8BE" d="M19.6 17.9c1.1-.5 1.9-1 2.8-1.4l4.1 3.3c-.9.6-1.8 1.1-2.7 1.5l-4.2-3.4Z"/><path fill="#F6DE73" d="M16 19.6c1.1-.5 2.1-.9 3-1.3l4.2 3.3c-1 .5-1.9.9-2.9 1.2-.1 0-.2.1-.3.1 0-.1-4-3.3-4-3.3Z"/><path fill="#E4A922" d="M12.3 21.2c.5-.3 1.1-.6 1.6-.8.5-.2 1-.4 1.3-.6l4 3.2c-1.1.4-2 .9-2.9 1.4.1 0-4-3.2-4-3.2Z"/><path fill="#C6972C" d="M9.5 23.6c.7-.8 1.4-1.4 2.2-2l4.1 3.3c-.8.6-1.5 1.2-2.2 2 .1-.1-4.1-3.3-4.1-3.3Z"/><path fill="#C48422" d="M7.5 26.4c.5-.8 1.1-1.7 1.6-2.4l4.1 3.3c-.6.7-1.2 1.5-1.6 2.4l-4.1-3.3Z"/><path fill="#B86821" d="M10.1 33.1 6 29.8c.4-1 .8-1.9 1.2-2.8l4 3.2c-.2.3-.4.7-.6 1.1-.1.6-.4 1.3-.5 1.8Z"/><path fill="#D9A41F" d="M30.2 8.4c.5-.8 1.1-1.7 1.4-2.7L35.7 9c-.4.9-1 1.8-1.3 2.6 0-.1-4.2-3.2-4.2-3.2Z"/><path fill="#D5931F" d="M31.9 5.1c.5-.9.8-1.9 1.1-2.9l4.1 3.3c-.3 1-.7 2-1.2 2.8l-4-3.2Z"/></svg>