<svg xmlns="http://www.w3.org/2000/svg" viewBox="0 0 1412.99 1412.95"><path fill="#fff" d="M695.36 1283.79c-5.1-9.74-9.33-18.96-14.56-27.58-9.7-15.96-22.6-28.79-39.65-36.93a43.66 43.66 0 0 0-10.39-3.29c-2.84-.56-5.22.66-4.14 4.19 4.23 13.78 8.27 27.63 13.04 41.22 2.91 8.28 6.75 16.27 10.66 24.14 4.06 8.18 9.59 15.64 17.96 19.53 6.41 2.98 13.7 4.07 20.6 5.99l.65-1.36c.19.77.56 1.55.54 2.31-.44 11.98-1.14 23.96-1.3 35.95-.05 4.08-1.97 5.01-5.29 5.48-5.42.76-11.18.85-16.12 2.87-6.99 2.85-13.32 7.28-20.02 10.88-3 1.61-6.08 3.44-9.34 4.13-12.15 2.56-23.71 6.38-34.14 13.31a7.64 7.64 0 0 1-4.96 1.02c-55.44-8.4-109.18-23.19-160.43-45.85-193.06-85.35-322.84-228.39-388.74-429.02-12.04-36.66-19.63-74.4-24.89-112.65a662.05 662.05 0 0 1-5.52-120.59C25.79 535.89 70.7 407.52 156.11 294.2 249 170.96 370.02 87.71 518.4 44.67c33.53-9.73 67.73-16.31 102.39-20.72a674.22 674.22 0 0 1 119.14-4.56c108.87 5.5 211.32 34.2 305.8 88.82 153.58 88.77 258.69 217.61 315 385.95 12.77 38.18 21.36 77.37 26.86 117.28 6.06 44.02 8.47 88.21 5.6 132.51-11.88 183.52-84.22 339.14-217.98 465.38-87.6 82.68-190.91 137.35-307.96 165.79-18.69 4.54-37.72 7.68-56.67 11.1-3 .54-6.61-.31-9.5-1.54-12.17-5.17-24.51-9.21-37.96-9.41-2.77-.04-6.09-1.64-8.14-3.59-5.5-5.26-12.47-5.12-19.1-6-5.12-.68-9.4-1.96-13.23-5.87-5.09-5.2-12.06-6.83-19.15-7.31-3.19-.22-4.65-1.02-4.67-4.66-.07-13.45-1.8-27.02-.46-40.3 1.35-13.4 5.42-26.56 8.7-39.72 1.26-5.07 4.74-9.1 10.1-10.12 21.36-4.05 30.45-18.74 34.35-38.41 3.37-17.02 5.91-34.07 4.56-51.49-.1-1.31-.18-2.71-.71-3.88-.56-1.25-1.67-3.2-2.49-3.17a5.28 5.28 0 0 0-3.85 2.31c-8.01 14.49-20.36 25.08-32.62 35.51-8.53 7.26-12.63 16.18-13.91 26.63-1.18 9.55-1.02 19.27-2.17 28.82-1.18 9.85-3.24 19.6-4.97 29.77Zm87.15-1161.26c-.16 8.62 2.89 12.01 11.2 13.74 5.37 1.11 9.51.49 14.17-3.14 10.03-7.82 20.78-3.28 22.62 9.36.87 5.99-.03 12.24-.06 18.36-.05 11.84 5.25 17.36 16.93 17.2 12.49-.17 24.97-.85 37.46-.93 8.41-.05 10.55 3.28 8.05 11.4-1.98 6.42-.3 9.12 6.47 9.49 5.15.28 10.33-.11 15.49-.08 5.09.02 6.27 1.43 5.1 6.42-3.29 14.01-8.55 27.65-6.69 42.55.5 3.96-2.79 6.25-6.73 6.6-2.81.25-5.65 0-8.48.04-6.09.09-9.64 5.57-6.34 10.6 1.9 2.88 5.1 5.14 8.14 6.99 5.1 3.09 10.58 5.56 15.82 8.42 4.11 2.24 8.35 3.58 12.9 1.86a1683.6 1683.6 0 0 0 32.91-12.82c7.16-2.88 14.22-5.55 22.19-3.53 2.88.73 5.93.84 8.92.99 10.08.52 10.07.47 11.54-9.51.12-.82.27-1.69.65-2.4 3.42-6.39 6.9-12.75 10.36-19.12 3.3-6.08 8.27-7 11.92-1.15 4.33 6.95 7.53 14.68 10.46 22.36.98 2.59.57 6.63-.86 9.02-3.34 5.58-1.99 10.19 1.39 14.72 4.58 6.14 9.84 11.82 13.93 18.25 2.85 4.49 4.14 9.95 6.32 14.9 1.13 2.55 2.1 5.79 4.17 7.19 5.62 3.8 11.86 6.7 17.74 10.13 6.2 3.62 12.61 4.82 19.64 2.9 4.6-1.25 8.28.38 10.29 4.78 1.86 4.07 3.67 8.2 5.03 12.45 3.81 11.9 8.13 23.03 17.16 32.66 7.65 8.15 5.17 13.62-4.71 16.43a68.74 68.74 0 0 1-16.65 2.68c-8.8.25-17.63-.3-26.45-.7-6.04-.27-7.53 1.26-6.3 7.06.21.98.31 1.97.51 2.95 1.27 6.14-.48 10.39-5.93 13.37-2.45 1.34-5.17 2.24-7.85 3.13-6.88 2.27-9.6 6.46-8.36 13.63a50.27 50.27 0 0 0 2.23 8.16c2.65 7.46 3.7 8.04 11.58 8.18 14.14.26 28.37-.28 42.38 1.21 15.47 1.65 29.72 6.92 39.22 20.79 2.29 3.34 5.55 6.55 9.11 8.4a215.63 215.63 0 0 0 24.03 10.53c7.45 2.78 8.96 4.76 7.18 12.44-1.37 5.94-.47 9.42 4.98 12.01 6.55 3.1 13.51 5.5 20.5 7.47 8.68 2.44 12.42 6.41 12.58 15.36.26 14.82-3.17 28.64-11.38 41.15a14.56 14.56 0 0 0-1.64 3.61c-1.93 6.18.39 11.44 4.8 15.28 5.2 4.53 11.18 8.16 17.36 12.56-2.59 8.06-8.26 13.91-16.96 16.49-10.09 2.99-19.73.47-29.15-3.27-5.8-2.3-11.57-4.66-17.38-7-1.84 5.5-4.06 7.03-10.44 7.35-6.98.35-14 .27-20.95.97-3.07.31-6 2.06-8.99 3.15 1.33 2.72 2.62 5.47 3.99 8.17 1.24 2.43 2.57 4.82 3.86 7.23-2.54.84-5.02 2.02-7.63 2.44-4.92.8-6.37 2.37-5.74 7.29.19 1.48.46 2.96.83 4.4 2.75 10.74 2.27 21.07-3.6 30.82-1.11 1.84-1.85 3.9-2.67 5.9-2.06 5.05-1.33 9.36 2.12 13.9 2.35 3.09 3.79 7.34 4.29 11.25.53 4.17 2.24 4.28 5.2 3.08 4.61-1.88 9.07-4.21 13.78-5.79 8.04-2.69 15.32-1.6 21.39 5.04 4.61 5.03 9.43 9.91 14.46 14.52 9.93 9.1 21.73 12.6 35.04 10.55 6.89-1.06 13.69-2.69 20.58-3.68 16.31-2.35 21.43.72 25.36 14.86 1.5 5.39 5.2 10.18 7.97 15.21 1.67 3.02 3.49 5.97 5.24 8.95-3.65.42-7.44 1.67-10.93 1.11-9.82-1.58-19.46-4.31-29.28-5.84-10.93-1.7-25.46 2.41-31.24 16.27-.77 1.84-1.52 3.69-2.39 5.49-3.77 7.8-9.37 10.88-17.85 9.19-10.24-2.04-20.35-4.73-30.6-6.75-11.49-2.26-14.78-.15-16.11 11.03-1.91 16.05 2.71 30.97 18.49 37.78 5.9 2.55 7.1 5.43 4.38 11.35-4.1 8.94-11.08 14.94-20.32 18.03-4.54 1.51-9.36 2.19-14.06 3.19-9.63 2.05-13.63 6.8-13.85 16.61-.07 3 .02 6 .03 9v9.06c-5.03-5.15-10.18-7.37-15.99-4.52-4.73 2.32-9.08 5.44-13.49 8.38-.78.52-1.56 2.06-1.36 2.89 2.84 11.76-2.84 20.46-11.23 26.95-12.11 9.36-17.3 21.9-20.03 36.14-.62 3.25-1.55 6.45-2.34 9.67h-1.56c-1.49-5.16-2.75-10.4-4.51-15.47-5.06-14.57-16.52-20.88-31.41-17.2-3.23.8-4.8.13-6.19-2.82-6.46-13.67-13.22-27.21-19.62-40.9-6.05-12.93-5.43-15.81 4.33-25.37.18-.17.11-.6.2-1.24-15.34-3.13-26.94-10.04-25.93-27.38l-23.47 1.06c-3.45.16-5.1 2.28-5.32 5.45-.15 2.13-.04 4.37.48 6.42 1.65 6.6 3.73 13.1 5.21 19.73.45 2.03-.49 4.36-.8 6.56-2.04-.87-4.2-1.53-6.07-2.67-1.53-.93-2.66-2.51-4.08-3.67-5.13-4.2-10.09-8.64-15.5-12.43-8.57-6.02-9.68-8.28-6.99-18.32-1.03-.36-2.05-.95-3.12-1.07-5.78-.63-11.58-1.08-17.36-1.7-10.14-1.09-20.09-3.73-30.46-.33-11 3.6-22.32 6.64-29.65 16.26-7.47 9.8-16.91 16.87-27.44 22.8-6.81 3.83-13.64 7.64-20.37 11.62-8 4.73-12.74 11.72-15.02 20.81-5.21 20.74-7.55 41.88-8.76 63.11a516.44 516.44 0 0 0 2.64 88.77c3.67 31.85 14.76 60.67 34.4 85.91 14.01 18 29.46 34.9 43.31 53.02 11.44 14.96 25.5 26.13 42.15 34.39 26.73 13.26 55.25 20.76 84.45 25.95 6.34 1.13 12.41 3.06 19.31-.27 124.99-60.21 222.09-150.36 290.58-270.97 49.32-86.85 76.16-180.54 82.48-280.12 2.3-36.3 1.21-72.55-2.62-108.76-3.6-33.93-9.18-67.53-18.64-100.27-58.74-203.31-185.16-347.72-378.99-432.51-68.85-30.12-141.55-45.36-216.52-49.5a647.03 647.03 0 0 0-90.86 1.63c-29.69 2.54-59.09 6.86-88.09 13.52-107.47 24.67-203.33 72.7-285.71 146.03-133.06 118.45-206.5 267.1-220.8 444.67-2.93 36.38-2.03 72.87 1.53 109.29 3.3 33.8 8.7 67.24 17.54 99.98 45.82 169.72 143.73 300.87 292.56 394.25 10.5 6.59 21.16 10.56 33.79 11.57 36.49 2.93 70.83-2.92 103.02-20.79a1230.14 1230.14 0 0 1 48.09-25.33c16.32-8.14 31.86-17.42 45.85-29.1 23.24-19.41 41.62-41.47 45.96-73.31 4.12-30.24 11.99-59.97 13.65-90.59.7-12.95.48-25.99-.1-38.96-.78-17.27-2.91-34.48-3.35-51.75-.33-12.99-3.09-24.8-11.43-34.79a2907.72 2907.72 0 0 0-39.31-45.9c-2.53-2.9-4.93-6.61-10.08-5.45-1.17.26-3-1.31-4.18-2.41-2.55-2.38-5.37-4.69-7.21-7.58-6.94-10.89-17.68-17.31-27.64-24.81-8.31-6.26-17.55-8.9-27.49-10.21-6.67-.88-10.32 2.06-10.35 8.74-.02 4.31.74 8.63.72 12.95-.04 7.3-2.95 10.14-9.88 10.22-9.59.11-13.81 2.87-17.36 11.93-1.99 5.09-3.18 10.51-5.38 15.49-.91 2.06-3.94 4.99-5.29 4.65-2.41-.6-5.2-3.01-6.14-5.34-1.17-2.92-.84-6.52-.77-9.82.1-4.55-2.01-6.22-6.19-5.04a93.37 93.37 0 0 0-10.75 3.81c-7.5 3.15-14.9 6.56-22.39 9.72-2.63 1.11-5.38 1.22-6.91-1.84-2.74-5.45-6.3-10.67-5.08-17.33 1.13-6.15-2.21-9.82-7.37-12.11a66.11 66.11 0 0 0-10.76-3.87c-5.42-1.34-10.1-.42-13.2 5.11-3.21 5.71-8.43 8.84-14.9 9.77-4.76.68-9.56 1.15-14.32 1.88-7.9 1.2-13.62 5.01-15.56 13.3-.68 2.9-1.2 5.99-2.6 8.55-3 5.47-6.25 10.86-9.95 15.87-2.16 2.92-5.79 3.54-9 1.39-9.79-6.56-17.99-2.44-25.96 3.58-5.53 4.18-7.17 9.69-5.62 16.36.71 3.05 1.88 6.31 1.4 9.23-.42 2.56-2.86 4.8-4.41 7.18-1.24-1.97-3.12-3.79-3.6-5.93-.95-4.25-2.43-7.25-7.25-8.14-3.85-.71-4.98-4.14-3.97-7.43 3.06-9.93 6.13-19.9 10.1-29.49 1.31-3.18 5.42-5.16 8.11-7.82 2.03-2 5.67-4.63 5.32-6.26-.55-2.5-3.56-5.23-6.18-6.33-4.68-1.97-9.96-2.48-14.75-4.25-2.36-.88-5.25-2.82-6.08-4.97-4.82-12.61-14.04-18.02-27.33-15.44-10.22 1.98-19.26 5.96-25.43 15.26-1.64-1.53-3.05-2.68-4.27-4.01-5.82-6.39-4.49-10.44 4.02-12.27 1.78-.38 3.6-.57 5.41-.77 6.7-.75 12.86-2.75 16.49-8.88 3.88-6.55 8.39-12.33 15.03-16.34 3.02-1.82 3.45-4.24.5-6.83-2.8-2.46-5.44-5.09-8.38-7.86 1.06-.75 1.53-1.31 2.1-1.45 5.32-1.27 10.64-2.55 15.99-3.65 5.67-1.17 9.85-3.77 12.82-9.16 2.43-4.42 6.04-8.38 9.77-11.85 7.41-6.9 11.76-7.09 20.61-2.01 7.1 4.07 9.89 3.35 13.07-4.14 6.52-15.33 7.59-30.8.72-46.43a177.9 177.9 0 0 1-6.79-17.65c-.72-2.27-.81-5.64.43-7.33.9-1.22 4.54-.99 6.79-.55 4.39.85 8.64 2.36 12.98 3.47 6.88 1.76 13.29.88 18.6-4.14 3.51-3.31 6.77-6.87 10.04-10.43 3.99-4.34 8.22-8.11 14.19-9.72 1.76-.47 3.2-2.56 4.53-4.13 3.72-4.38 7.15-9 10.99-13.28 2.32-2.58 5.32-4.54 7.74-7.05 3.09-3.2 3.06-6.83.54-10.43-5.63-8.06-10.9-9.44-19.79-5.12-6.5 3.15-11.53-.21-16.52-3.66-4.06-2.8-5.28-6.7-3.98-11.37.72-2.6 1.93-5.31-1.31-6.99-3.58-1.86-7.38-2.85-10.42.88-4.76 5.83-10.98 8.42-18.29 8.8-4.99.26-9.98.46-14.97.54-8.15.14-14.63 3.2-19.85 9.7-2.61 3.25-6.13 6.78-9.9 7.86-7.34 2.09-11.5 6.31-14.51 13.04-1.21 2.72-4.68 5.48-7.6 6.18-8.55 2.03-15.28-1.92-19.78-9.6-6.55-11.19-16.43-17.22-29.55-16.99-5.12.09-10.26 1.93-15.32 1.67-9.64-.5-16.09 4.1-21.49 11.27-1.33 1.77-3.01 3.28-5.24 5.67-.58-2.29-1.02-3.49-1.17-4.71-.68-5.61-.92-11.3-1.99-16.84-2.15-11.15-1.07-21.47 5.97-30.8 1.06-1.4 1.82-3.3 2.01-5.04.55-5.17 3.93-6.38 8.31-6.66 4.15-.26 8.3-.61 12.44-1.04 7.8-.79 11.19-4.52 11.35-12.36.04-1.83-.4-3.86.23-5.46 1.41-3.58 2.53-7.97 5.27-10.16 4.69-3.75 6.6-7.86 6.51-13.66-.19-12.32 2.96-16.47 14.69-20.44 12.91-4.38 25.91-3.52 38.87-.48 3.94.92 6.26.06 7.83-3.78.76-1.87 2.2-4.04 3.92-4.86 16.6-7.94 33.27-15.75 50.1-23.2 2.17-.96 5.89-.5 7.97.79 9.12 5.64 23.42 3.82 30.76-4.18 1.16-1.27 3.37-1.95 5.18-2.18 7.32-.91 13.69 2.11 19.85 5.48 6.25 3.41 12.92 5.15 19.69 2.98 7.83-2.51 15.55-3.21 23.59-1.8 3.51.62 5.24-1.08 5.54-4.63.68-7.86-1.76-12.21-9.14-15.28-4.59-1.91-9.59-2.99-13.89-5.39a14.9 14.9 0 0 0-11.92-1.37c-9.44 2.59-18.8 5.5-28.32 7.76-3.34.79-7.04.08-10.57.05.75-3.07 1.52-6.12 2.23-9.2.43-1.86 1.73-4.75.99-5.46-4.38-4.2-7.27-10.03-14.05-11.74-7.21-1.83-14.19-4.62-21.21-7.16-2.04-.74-3.87-2.06-6.45-3.48 1.5-1.02 2.13-1.46 2.77-1.88l4.63-3.09c-1.33-1.42-2.42-3.27-4.03-4.19a444.33 444.33 0 0 0-21.08-11.31c-1.61-.81-4.47-1.39-5.59-.54-5.31 4.03-9.95 1.09-14.33-1.2-1.54-.8-2.98-4.32-2.48-6.01 1.26-4.21-.5-5.45-3.98-6.16-3.41-.7-6.82-1.43-10.19-2.32-13.67-3.61-14.14-4.96-4.58-15.19 5.4-5.78 8.74-12.28 7.86-20.23-.6-5.42-2.62-10.71-3.03-16.13-.49-6.57-3.56-9.16-9.91-9.89-6.89-.79-8.42-4.4-4.58-10.3a26.1 26.1 0 0 1 7.43-7.15 45.23 45.23 0 0 1 10.36-4.81c3.62-1.22 4.95-3.57 5-7.08.09-5.67-.13-11.36.37-16.99.63-7.08 1.22-14.28 3-21.12 1.46-5.61 5.54-6.22 9.75-2.13 3.21 3.13 6.09 6.62 9.05 10 7.5 8.58 16.15 15.15 27.63 17.75 5.28 1.19 10.43 3.36 15.31 5.76 4.82 2.37 9.39 3.12 14.29.76 5.54-2.67 10.97-5.57 16.62-7.98 6.08-2.6 12.22-5.26 18.59-6.95 7.22-1.91 14.07 1.35 16.07 7.59 2.52 7.88 8.38 10.85 15.6 11.94 5.51.83 8.94 3.71 10.11 8.89 1.32 5.81 2.06 11.75 3.04 17.63.57 3.45 1.12 6.91 1.71 10.57 1.24-.52 1.57-.59 1.82-.78.4-.3.8-.62 1.08-1.02 4.39-6.09 10.37-7.2 17.3-5.7 2.09.45 4.35.77 6.43.45 1.58-.24 3.76-1.24 4.32-2.5 1.82-4.11 4.86-4.01 8.31-3.24 2.06.45 4.08 1.05 6.92 1.78-.28-2.39 0-4.38-.77-5.79-5.21-9.63-9.91-19.67-16.2-28.56-6.5-9.19-16.2-13.12-27.69-10.35-4.83 1.16-9.49 3-14.32 4.14-2.71.64-5.62.49-8.43.7-.21-2.9-.44-5.8-.59-8.7-.03-.47.29-.95.44-1.42 4.57-15.02 4.56-30.16 1.01-45.33-1.87-7.99-.91-14.8 6.43-19.8 3.36-2.29 3.51-5.5 1.14-8.67-1.89-2.53-4.07-4.84-6.06-7.3-3.59-4.43-2.99-7.01 2.56-7.89 6.7-1.06 13.56-1.12 20.35-1.66 9.93-.78 19.98-.9 29.75-2.6 11.02-1.91 21.13-6.54 27.29-16.64 1.69-2.77 2.94-6.66 2.48-9.75-1.58-10.46.75-17 10.36-21.09 7.1-3.02 14.8-4.8 22.38-6.43 6.59-1.42 7.04-.59 7.33 6.19.07 1.54 1 3.04 1.54 4.56 1.47-.54 3.34-.68 4.35-1.68 3.54-3.51 6.82-7.28 10.12-11.02 2.46-2.78 4.82-5.67 7.26-8.55 6.08 6.17 9.38 5.54 12.84-1.17a8.36 8.36 0 0 1 4.74-3.77c10.92-2.93 25.92 3.39 30.37 13.63 5.34 12.28 16.42 13.28 26.77 10.92 1.65-.38 3.84-2.62 4.07-4.25.76-5.39 1.84-11.11.76-16.28-1.45-7 .73-11.5 5.47-16.23 3.76-3.75 7.67-5.38 12.51-3.99 7.52 2.16 13.71-.28 19.51-4.73 1.4-1.07 2.76-2.21 4.1-3.29 15.66 12.79 32.97 15.13 51.67 10.88 5.52-1.25 7.58-.17 9.55 5.16.97 2.62 1.7 5.43 1.91 8.2.33 4.28 2.34 6.98 6.43 7.72 3.72.67 7.54.8 11.75 1.21Zm46.41 715.41-.06-2.39c-10.96-7.47-21.86-15.04-32.91-22.37-8.58-5.7-17.52-10.88-25.99-16.73-5.98-4.13-10.85-9.61-12.65-16.85-3.26-13.13-12.24-21.5-23.01-28.27-11.08-6.97-20.71-5.68-29.52 3.98-5.14 5.64-9.65 11.89-14.2 18.03-.78 1.05-.9 3.2-.4 4.48 7.71 19.77 14.72 39.9 23.75 59.06 5.08 10.78 12.97 20.45 20.7 29.7 6.45 7.73 15.66 11.73 25.97 9.42 8.51-1.91 17.59-3.72 24.87-8.13 15.03-9.08 29.03-19.86 43.45-29.94ZM628 754.52c-1.13 4.16-2.14 6.76-2.52 9.45-1.95 13.53-8.57 24.26-19.05 32.84-3.6 2.95-7.19 6-10.29 9.44-2.76 3.07-4.4 6.65-.81 10.6 16.83 18.47 33.54 37.05 50.4 55.49a73.63 73.63 0 0 0 9.93 9.08c4.68 3.54 8.14 2.68 11.12-2.33 5.74-9.66 8.24-20.21 5.71-31.14-3.7-15.97-8.2-31.77-12.61-47.56-1.81-6.48-4.81-11.65-10.88-16.17-6.35-4.73-10.21-12.85-14.99-19.6-1.96-2.77-3.5-5.84-6-10.09Zm-102.84-81.29h.03c0-3.33-.08-6.67.02-10 .18-6.26-1.64-7.92-8.07-7.09-3.5.45-7.15 1.31-9.37-2.53-2.17-3.74-2.1-7.48.18-11.32 2.37-4 .96-6.92-4.06-9.24-5.48-2.54-9.16-1.83-10.22 2.62-.72 3.02-2.28 3.94-4.78 3.81-6.6-.35-13.2-.78-19.77-1.45-5.16-.52-7.54.9-8.48 5.98-.54 2.94-.74 5.94-1.08 8.92q-1.27 11.31-12.51 14.63c-10.45 3.09-16.08 13.4-11.56 23.12 3.61 7.79 8.63 14.95 13.25 22.24 1.67 2.63 4.17 3.07 6.83.89 5.72-4.7 11.55-9.26 17.24-14 6.85-5.7 14.48-4.69 19.6 2.74 6.33 9.17 18.51 10.1 25.89 1.81 2.41-2.7 4.88-3.76 8.36-2.38 1.52.6 3.2.96 4.84 1.09 3.8.28 5.44-1.71 4.05-5.17-.71-1.76-1.9-4.02-3.44-4.62-6.78-2.66-7.75-7.8-6.99-14.06.24-1.97.04-3.99.04-5.99Zm510.41-27.64c-1.14 0-1.98-.13-2.76.02-3.11.59-6.76 2.6-9.14 1.59-2.85-1.21-4.62-4.97-6.84-7.64-.53-.64-.97-1.35-1.5-1.99-5.83-7.14-10.13-7.36-17.12-1.34a91.45 91.45 0 0 1-12.33 9.17c-5.43 3.27-10.55 2.2-15.62-1.77-3.3-2.59-7.47-4.12-11.35-5.9-3.74-1.72-7.99-2.6-11.35-4.84-7.28-4.85-13.93-6.49-21.09.26-3.59 3.38-7.6 2.97-11.66-.3a22.9 22.9 0 0 0-8.84-4.22c-5.55-1.31-8.24.46-10.09 4.71a104.3 104.3 0 0 1-6.29 12.27c-2.14 3.55-4.22 6.84-.46 10.47l-2.33 2.5c-4.11 4.37-3.96 7.4 1.16 10.27 1.91 1.07 4.61.72 6.95 1.02 2.31.29 4.97-.04 6.85 1.02 2.69 1.5 5.97 3.56 6.99 6.16 3.68 9.39 10.28 8.39 17.63 6.06.79-.25 1.61-.41 2.42-.6 2.91-.68 4.92.12 6.74 2.78 1.47 2.16 3.97 3.63 5.43 4.9l21.72-18.88c4.41-3.84 9.04-3.39 13.84-.78 1.07.58 2.48 1.38 3.47 1.12 5.27-1.42 10.77-2.54 15.57-4.99 3.05-1.56 4.99-5.26 7.45-7.98 1.04-1.15 2.07-3.16 3.19-3.22 6.72-.36 13.5-.71 20.19-.19 5.6.44 9.69-3.05 9.17-9.65Zm-197.25-31.16c-4.9-1.82-8.49-2.69-11.6-4.41-4.74-2.62-9.18-2.38-13.75 0-3.98 2.07-7.79 4.53-11.93 6.19-9.7 3.89-16.81 1.53-22.48-6.99-4.78-7.19-10.35-8.78-17.94-4.42-6.66 3.82-13.45 6.1-21.27 5.85-6.25-.2-9.06 2.77-9.92 8.9-.42 2.96-.64 5.95-1.16 8.89-.9 5.17-.96 10.79-3.15 15.37-4 8.33-6.33 16.72-5.71 25.91.29 4.33 2.14 8.07 6.41 9.2 5.7 1.51 11.6 2.73 17.46 2.98 4.75.21 8.84-2.39 9.66-7.66 1.66-10.67 8.29-17.86 17.65-21.14 10.95-3.83 21.62-9.29 33.82-9.16 4.84.05 9.27-1.99 12.43-6.32 2.21-3.04 5.09-5.6 7.68-8.38l13.82-14.82ZM614.6 473.98l-1.22-.22c0-4.16.14-8.33-.03-12.48-.25-6.06-3.22-7.87-8.46-4.69a54.72 54.72 0 0 0-11.34 8.88c-4.69 4.96-9.7 5.9-15.74 3.32-1.67-.71-3.49-1.11-5.14-1.86-12.26-5.54-25.16-7.31-38.44-6.32-6.31.47-12.92 1.33-16.72 7.29-4.16 6.52-9.99 10.52-17.01 13.17-2.95 1.12-6.54 1.61-8.64 3.63-2.75 2.66-5.61 6.4-6.05 9.96-.51 4.13 4.21 4.01 7.44 4.68 2.38.49 5.49.9 6.8 2.53 4.1 5.09 9.21 4.54 13.43 1.97 5.99-3.65 11.48-8.35 16.54-13.26 3.96-3.84 7.89-6.83 13.5-7.7 7.95-1.24 15.56.18 21.99 4.41 8.97 5.89 18.43 10.34 28.43 14.08 8.67 3.25 13.28 2.48 16.45-6.25 2.43-6.68 2.89-14.07 4.22-21.15Zm104.75-242.89c-1.37 2.93-2.58 4.57-2.9 6.37-1.77 10.02-4.5 19.61-9.49 28.63-2.76 4.98-1.31 7.71 3.69 10.58 9.5 5.46 9.63 5.74 7.73 16.54-1.71 9.71 3.02 18.47 12.53 23.05.74-5.62 1.35-11.24 2.24-16.8 1.11-6.96 2.64-14.04 8.45-18.62 7.43-5.85 10.27-14.03 13.04-22.42.93-2.8.01-4.34-2.73-5.3a111.74 111.74 0 0 1-10.61-4.25c-6.45-3.04-7.06-4.94-3.73-11.68-3.26.42-6.18 1.11-9.09 1.06a11.5 11.5 0 0 1-5.78-1.84c-1.21-.78-1.73-2.63-3.35-5.32Zm188.17 223.32c1.61 2.37 2.96 4.54 4.5 6.58.76 1 2.03 1.63 2.78 2.64 4.22 5.64 8.24 11.44 12.62 16.95.69.87 3.03 1.15 4.28.72 7.19-2.48 11.82-7.3 12.24-15.23.22-4.13 2.08-5.61 6.08-4.93 3.77.65 7.03-.61 7.68-4.5 1.04-6.31 7.38-8.45 9.83-13.58.45-.94 2.19-1.46 3.44-1.8 8.29-2.23 9.95-5.78 6.01-14.05-4.87 1.9-9.75 3.88-14.69 5.72-4.26 1.59-8.55 1.62-10.99-2.76-2.28-4.09-4.6-3.28-6.91-.76-4.04 4.39-7.45 9.4-11.71 13.55a45.63 45.63 0 0 1-11.76 8.51c-3.61 1.74-8 1.83-13.39 2.93Zm-280.78 175.3c-1.48 7.98-.39 15.15 4.02 21.72 4.97 7.41 8.84 8.27 16.85 4.27 2.58-1.29 5.92-2.97 8.31-2.31 5.97 1.65 7.59-.85 7.47-6.25 3.44-.06 7.71-.04 5.1-4.86-2.68-4.97-1.25-12.77-9.5-14.34-1.15-.22-2.23-3.22-2.53-5.06-.72-4.42-.85-8.93-1.43-13.38-.2-1.52-.77-4.09-1.59-4.27-5.55-1.22-5.72-5.18-5.6-9.54.03-.96-.1-2.17-.67-2.84-1.09-1.29-2.55-2.28-3.85-3.39-.94 1.38-2.44 2.67-2.71 4.17-.49 2.76.09 5.71-.45 8.45-.37 1.89-1.46 4.55-2.94 5.17-6.79 2.83-7.8 4.21-6.51 11.56.57 3.22 1.17 6.43 1.79 9.85l-5.77 1.06Z"/><path fill="#b50938" d="M1412.99 706.18c.02 390.44-316.52 706.91-706.93 706.77C316.2 1412.81 0 1096.37 0 706.36 0 316.07 316.66-.47 706.62 0c390.44.47 706.35 316.29 706.37 706.18Zm-717.63 577.61c1.74-10.17 3.79-19.92 4.97-29.77 1.15-9.56.99-19.27 2.17-28.82 1.29-10.45 5.38-19.37 13.91-26.63 12.26-10.43 24.62-21.02 32.62-35.51a5.3 5.3 0 0 1 3.85-2.31c.82-.03 1.92 1.92 2.49 3.17.52 1.16.6 2.57.71 3.88 1.36 17.42-1.18 34.47-4.56 51.49-3.9 19.67-12.99 34.36-34.35 38.41-5.36 1.02-8.84 5.04-10.1 10.12-3.28 13.16-7.35 26.32-8.7 39.72-1.34 13.28.39 26.85.46 40.3.02 3.64 1.48 4.45 4.67 4.66 7.09.48 14.07 2.1 19.15 7.31 3.82 3.91 8.11 5.19 13.23 5.87 6.63.88 13.6.74 19.1 6 2.04 1.95 5.37 3.55 8.14 3.59 13.44.2 25.78 4.24 37.96 9.41 2.89 1.23 6.51 2.08 9.5 1.54 18.94-3.41 37.98-6.56 56.67-11.1 117.05-28.43 220.35-83.11 307.96-165.79 133.76-126.24 206.09-281.85 217.98-465.38 2.87-44.31.46-88.5-5.6-132.51-5.5-39.91-14.09-79.1-26.86-117.28-56.32-168.34-161.42-297.18-315-385.95C951.25 53.6 848.8 24.9 739.93 19.39a674.22 674.22 0 0 0-119.14 4.56c-34.66 4.41-68.86 10.99-102.39 20.72C370.02 87.71 249 170.97 156.11 294.2 70.69 407.52 25.79 535.88 19.31 677.53a662.09 662.09 0 0 0 5.52 120.59c5.26 38.25 12.85 75.99 24.89 112.65 65.9 200.63 195.68 343.67 388.74 429.02 51.26 22.66 104.99 37.45 160.43 45.85a7.64 7.64 0 0 0 4.96-1.02c10.43-6.94 21.99-10.76 34.14-13.31 3.26-.69 6.34-2.52 9.34-4.13 6.7-3.6 13.03-8.02 20.02-10.88 4.94-2.02 10.7-2.11 16.12-2.87 3.32-.47 5.23-1.4 5.29-5.48.16-11.99.86-23.97 1.3-35.95.03-.76-.35-1.54-.54-2.31l-.65 1.36c-6.9-1.93-14.19-3.02-20.6-5.99-8.38-3.89-13.9-11.35-17.96-19.53-3.91-7.87-7.75-15.86-10.66-24.14-4.77-13.59-8.82-27.44-13.04-41.22-1.08-3.53 1.3-4.75 4.14-4.19a43.8 43.8 0 0 1 10.39 3.29c17.06 8.14 29.96 20.97 39.65 36.93 5.23 8.62 9.46 17.84 14.56 27.58Zm98.35-1147.52c5.37 1.11 9.51.49 14.17-3.14 10.03-7.82 20.78-3.28 22.62 9.36.87 5.99-.03 12.24-.06 18.36-.05 11.84 5.25 17.36 16.93 17.2 12.49-.17 24.97-.85 37.46-.93 8.41-.05 10.55 3.28 8.05 11.4-1.98 6.42-.3 9.12 6.47 9.49 5.15.28 10.33-.11 15.49-.08 5.09.02 6.27 1.43 5.1 6.42-3.29 14.01-8.55 27.65-6.69 42.55.5 3.96-2.79 6.25-6.73 6.6-2.81.25-5.65 0-8.48.04-6.09.09-9.64 5.57-6.34 10.6 1.9 2.88 5.1 5.14 8.14 6.99 5.1 3.09 10.58 5.56 15.82 8.42 4.11 2.24 8.35 3.58 12.9 1.86a1683.6 1683.6 0 0 0 32.91-12.82c7.16-2.88 14.22-5.55 22.19-3.53 2.88.73 5.93.84 8.92.99 10.08.52 10.07.47 11.54-9.51.12-.82.27-1.69.65-2.4 3.42-6.39 6.9-12.75 10.36-19.12 3.3-6.08 8.27-7 11.92-1.15 4.33 6.95 7.53 14.68 10.46 22.36.98 2.59.57 6.63-.86 9.02-3.34 5.58-1.99 10.19 1.39 14.72 4.58 6.14 9.84 11.82 13.93 18.25 2.85 4.49 4.14 9.95 6.32 14.9 1.13 2.55 2.1 5.79 4.17 7.19 5.62 3.8 11.86 6.7 17.74 10.13 6.2 3.62 12.61 4.82 19.64 2.9 4.6-1.25 8.28.38 10.29 4.78 1.86 4.07 3.67 8.2 5.03 12.45 3.81 11.9 8.13 23.03 17.16 32.66 7.65 8.15 5.17 13.62-4.71 16.43a68.74 68.74 0 0 1-16.65 2.68c-8.8.25-17.63-.3-26.45-.7-6.04-.27-7.53 1.26-6.3 7.06.21.98.31 1.97.51 2.95 1.27 6.14-.48 10.39-5.93 13.37-2.45 1.34-5.17 2.24-7.85 3.13-6.88 2.27-9.6 6.46-8.36 13.63a50.27 50.27 0 0 0 2.23 8.16c2.65 7.46 3.7 8.04 11.58 8.18 14.14.26 28.37-.28 42.38 1.21 15.47 1.65 29.72 6.92 39.22 20.79 2.29 3.34 5.55 6.55 9.11 8.4a215.63 215.63 0 0 0 24.03 10.53c7.45 2.78 8.96 4.76 7.18 12.44-1.37 5.94-.47 9.42 4.98 12.01 6.55 3.1 13.51 5.5 20.5 7.47 8.68 2.44 12.42 6.41 12.58 15.36.26 14.82-3.17 28.64-11.38 41.15a14.56 14.56 0 0 0-1.64 3.61c-1.93 6.18.39 11.44 4.8 15.28 5.2 4.53 11.18 8.16 17.36 12.56-2.59 8.06-8.26 13.91-16.96 16.49-10.09 2.99-19.73.47-29.15-3.27-5.8-2.3-11.57-4.66-17.38-7-1.84 5.5-4.06 7.03-10.44 7.35-6.98.35-14 .27-20.95.97-3.07.31-6 2.06-8.99 3.15 1.33 2.72 2.62 5.47 3.99 8.17 1.24 2.43 2.57 4.82 3.86 7.23-2.54.84-5.02 2.02-7.63 2.44-4.92.8-6.37 2.37-5.74 7.29.19 1.48.46 2.96.83 4.4 2.75 10.74 2.27 21.07-3.6 30.82-1.11 1.84-1.85 3.9-2.67 5.9-2.06 5.05-1.33 9.36 2.12 13.9 2.35 3.09 3.79 7.34 4.29 11.25.53 4.17 2.24 4.28 5.2 3.08 4.61-1.88 9.07-4.21 13.78-5.79 8.04-2.69 15.32-1.6 21.39 5.04 4.61 5.03 9.43 9.91 14.46 14.52 9.93 9.1 21.73 12.6 35.04 10.55 6.89-1.06 13.69-2.69 20.58-3.68 16.31-2.35 21.43.72 25.36 14.86 1.5 5.39 5.2 10.18 7.97 15.21 1.67 3.02 3.49 5.97 5.24 8.95-3.65.42-7.44 1.67-10.93 1.11-9.82-1.58-19.46-4.31-29.28-5.84-10.93-1.7-25.46 2.41-31.24 16.27-.77 1.84-1.52 3.69-2.39 5.49-3.77 7.8-9.37 10.88-17.85 9.19-10.24-2.04-20.35-4.73-30.6-6.75-11.49-2.26-14.78-.15-16.11 11.03-1.91 16.05 2.71 30.97 18.49 37.78 5.9 2.55 7.1 5.43 4.38 11.35-4.1 8.94-11.08 14.94-20.32 18.03-4.54 1.51-9.36 2.19-14.06 3.19-9.63 2.05-13.63 6.8-13.85 16.61-.07 3 .02 6 .03 9v9.06c-5.03-5.15-10.18-7.37-15.99-4.52-4.73 2.32-9.08 5.44-13.49 8.38-.78.52-1.56 2.06-1.36 2.89 2.84 11.76-2.84 20.46-11.23 26.95-12.11 9.36-17.3 21.9-20.03 36.14-.62 3.25-1.55 6.45-2.34 9.67h-1.56c-1.49-5.16-2.75-10.4-4.51-15.47-5.06-14.57-16.52-20.88-31.41-17.2-3.23.8-4.8.13-6.19-2.82-6.46-13.67-13.22-27.21-19.62-40.9-6.05-12.93-5.43-15.81 4.33-25.37.18-.17.11-.6.2-1.24-15.34-3.13-26.94-10.04-25.93-27.38l-23.47 1.06c-3.45.16-5.1 2.28-5.32 5.45-.15 2.13-.04 4.37.48 6.42 1.65 6.6 3.73 13.1 5.21 19.73.45 2.03-.49 4.36-.8 6.56-2.04-.87-4.2-1.53-6.07-2.67-1.53-.93-2.66-2.51-4.08-3.67-5.13-4.2-10.09-8.64-15.5-12.43-8.57-6.02-9.68-8.28-6.99-18.32-1.03-.36-2.05-.95-3.12-1.07-5.78-.63-11.58-1.08-17.36-1.7-10.14-1.09-20.09-3.73-30.46-.33-11 3.6-22.32 6.64-29.65 16.26-7.47 9.8-16.91 16.87-27.44 22.8-6.81 3.83-13.64 7.64-20.37 11.62-8 4.73-12.74 11.72-15.02 20.81-5.21 20.74-7.55 41.88-8.76 63.11a516.44 516.44 0 0 0 2.64 88.77c3.67 31.85 14.76 60.67 34.4 85.91 14.01 18 29.46 34.9 43.31 53.02 11.44 14.96 25.5 26.13 42.15 34.39 26.73 13.26 55.25 20.76 84.45 25.95 6.34 1.13 12.41 3.06 19.31-.27 124.99-60.21 222.09-150.36 290.58-270.97 49.32-86.85 76.16-180.54 82.48-280.12 2.3-36.3 1.21-72.55-2.62-108.76-3.6-33.93-9.18-67.53-18.64-100.27-58.74-203.31-185.16-347.72-378.99-432.51-68.85-30.12-141.55-45.36-216.52-49.5a647.03 647.03 0 0 0-90.86 1.63c-29.69 2.54-59.09 6.86-88.09 13.52-107.47 24.67-203.33 72.7-285.71 146.03-133.06 118.45-206.5 267.1-220.8 444.67-2.93 36.38-2.03 72.87 1.53 109.29 3.3 33.8 8.7 67.24 17.54 99.98 45.82 169.72 143.73 300.87 292.56 394.25 10.5 6.59 21.16 10.56 33.79 11.57 36.49 2.93 70.83-2.92 103.02-20.79a1230.14 1230.14 0 0 1 48.09-25.33c16.32-8.14 31.86-17.42 45.85-29.1 23.24-19.41 41.62-41.47 45.96-73.31 4.12-30.24 11.99-59.97 13.65-90.59.7-12.95.48-25.99-.1-38.96-.78-17.27-2.91-34.48-3.35-51.75-.33-12.99-3.09-24.8-11.43-34.79a2907.72 2907.72 0 0 0-39.31-45.9c-2.53-2.9-4.93-6.61-10.08-5.45-1.17.26-3-1.31-4.18-2.41-2.55-2.38-5.37-4.69-7.21-7.58-6.94-10.89-17.68-17.31-27.64-24.81-8.31-6.26-17.55-8.9-27.49-10.21-6.67-.88-10.32 2.06-10.35 8.74-.02 4.31.74 8.63.72 12.95-.04 7.3-2.95 10.14-9.88 10.22-9.59.11-13.81 2.87-17.36 11.93-1.99 5.09-3.18 10.51-5.38 15.49-.91 2.06-3.94 4.99-5.29 4.65-2.41-.6-5.2-3.01-6.14-5.34-1.17-2.92-.84-6.52-.77-9.82.1-4.55-2.01-6.22-6.19-5.04a93.37 93.37 0 0 0-10.75 3.81c-7.5 3.15-14.9 6.56-22.39 9.72-2.63 1.11-5.38 1.22-6.91-1.84-2.74-5.45-6.3-10.67-5.08-17.33 1.13-6.15-2.21-9.82-7.37-12.11a66.11 66.11 0 0 0-10.76-3.87c-5.42-1.34-10.1-.42-13.2 5.11-3.21 5.71-8.43 8.84-14.9 9.77-4.76.68-9.56 1.15-14.32 1.88-7.9 1.2-13.62 5.01-15.56 13.3-.68 2.9-1.2 5.99-2.6 8.55-3 5.47-6.25 10.86-9.95 15.87-2.16 2.92-5.79 3.54-9 1.39-9.79-6.56-17.99-2.44-25.96 3.58-5.53 4.18-7.17 9.69-5.62 16.36.71 3.05 1.88 6.31 1.4 9.23-.42 2.56-2.86 4.8-4.41 7.18-1.24-1.97-3.12-3.79-3.6-5.93-.95-4.25-2.43-7.25-7.25-8.14-3.85-.71-4.98-4.14-3.97-7.43 3.06-9.93 6.13-19.9 10.1-29.49 1.31-3.18 5.42-5.16 8.11-7.82 2.03-2 5.67-4.63 5.32-6.26-.55-2.5-3.56-5.23-6.18-6.33-4.68-1.97-9.96-2.48-14.75-4.25-2.36-.88-5.25-2.82-6.08-4.97-4.82-12.61-14.04-18.02-27.33-15.44-10.22 1.98-19.26 5.96-25.43 15.26-1.64-1.53-3.05-2.68-4.27-4.01-5.82-6.39-4.49-10.44 4.02-12.27 1.78-.38 3.6-.57 5.41-.77 6.7-.75 12.86-2.75 16.49-8.88 3.88-6.55 8.39-12.33 15.03-16.34 3.02-1.82 3.45-4.24.5-6.83-2.8-2.46-5.44-5.09-8.38-7.86 1.06-.75 1.53-1.31 2.1-1.45 5.32-1.27 10.64-2.55 15.99-3.65 5.67-1.17 9.85-3.77 12.82-9.16 2.43-4.42 6.04-8.38 9.77-11.85 7.41-6.9 11.76-7.09 20.61-2.01 7.1 4.07 9.89 3.35 13.07-4.14 6.52-15.33 7.59-30.8.72-46.43a177.9 177.9 0 0 1-6.79-17.65c-.72-2.27-.81-5.64.43-7.33.9-1.22 4.54-.99 6.79-.55 4.39.85 8.64 2.36 12.98 3.47 6.88 1.76 13.29.88 18.6-4.14 3.51-3.31 6.77-6.87 10.04-10.43 3.99-4.34 8.22-8.11 14.19-9.72 1.76-.47 3.2-2.56 4.53-4.13 3.72-4.38 7.15-9 10.99-13.28 2.32-2.58 5.32-4.54 7.74-7.05 3.09-3.2 3.06-6.83.54-10.43-5.63-8.06-10.9-9.44-19.79-5.12-6.5 3.15-11.53-.21-16.52-3.66-4.06-2.8-5.28-6.7-3.98-11.37.72-2.6 1.93-5.31-1.31-6.99-3.58-1.86-7.38-2.85-10.42.88-4.76 5.83-10.98 8.42-18.29 8.8-4.99.26-9.98.46-14.97.54-8.15.14-14.63 3.2-19.85 9.7-2.61 3.25-6.13 6.78-9.9 7.86-7.34 2.09-11.5 6.31-14.51 13.04-1.21 2.72-4.68 5.48-7.6 6.18-8.55 2.03-15.28-1.92-19.78-9.6-6.55-11.19-16.43-17.22-29.55-16.99-5.12.09-10.26 1.93-15.32 1.67-9.64-.5-16.09 4.1-21.49 11.27-1.33 1.77-3.01 3.28-5.24 5.67-.58-2.29-1.02-3.49-1.17-4.71-.68-5.61-.92-11.3-1.99-16.84-2.15-11.15-1.07-21.47 5.97-30.8 1.06-1.4 1.82-3.3 2.01-5.04.55-5.17 3.93-6.38 8.31-6.66 4.15-.26 8.3-.61 12.44-1.04 7.8-.79 11.19-4.52 11.35-12.36.04-1.83-.4-3.86.23-5.46 1.41-3.58 2.53-7.97 5.27-10.16 4.69-3.75 6.6-7.86 6.51-13.66-.19-12.32 2.96-16.47 14.69-20.44 12.91-4.38 25.91-3.52 38.87-.48 3.94.92 6.26.06 7.83-3.78.76-1.87 2.2-4.04 3.92-4.86 16.6-7.94 33.27-15.75 50.1-23.2 2.17-.96 5.89-.5 7.97.79 9.12 5.64 23.42 3.82 30.76-4.18 1.16-1.27 3.37-1.95 5.18-2.18 7.32-.91 13.69 2.11 19.85 5.48 6.25 3.41 12.92 5.15 19.69 2.98 7.83-2.51 15.55-3.21 23.59-1.8 3.51.62 5.24-1.08 5.54-4.63.68-7.86-1.76-12.21-9.14-15.28-4.59-1.91-9.59-2.99-13.89-5.39a14.9 14.9 0 0 0-11.92-1.37c-9.44 2.59-18.8 5.5-28.32 7.76-3.34.79-7.04.08-10.57.05.75-3.07 1.52-6.12 2.23-9.2.43-1.86 1.73-4.75.99-5.46-4.38-4.2-7.27-10.03-14.05-11.74-7.21-1.83-14.19-4.62-21.21-7.16-2.04-.74-3.87-2.06-6.45-3.48 1.5-1.02 2.13-1.46 2.77-1.88l4.63-3.09c-1.33-1.42-2.42-3.27-4.03-4.19a444.33 444.33 0 0 0-21.08-11.31c-1.61-.81-4.47-1.39-5.59-.54-5.31 4.03-9.95 1.09-14.33-1.2-1.54-.8-2.98-4.32-2.48-6.01 1.26-4.21-.5-5.45-3.98-6.16-3.41-.7-6.82-1.43-10.19-2.32-13.67-3.61-14.14-4.96-4.58-15.19 5.4-5.78 8.74-12.28 7.86-20.23-.6-5.42-2.62-10.71-3.03-16.13-.49-6.57-3.56-9.16-9.91-9.89-6.89-.79-8.42-4.4-4.58-10.3a26.1 26.1 0 0 1 7.43-7.15 45.23 45.23 0 0 1 10.36-4.81c3.62-1.22 4.95-3.57 5-7.08.09-5.67-.13-11.36.37-16.99.63-7.08 1.22-14.28 3-21.12 1.46-5.61 5.54-6.22 9.75-2.13 3.21 3.13 6.09 6.62 9.05 10 7.5 8.58 16.15 15.15 27.63 17.75 5.28 1.19 10.43 3.36 15.31 5.76 4.82 2.37 9.39 3.12 14.29.76 5.54-2.67 10.97-5.57 16.62-7.98 6.08-2.6 12.22-5.26 18.59-6.95 7.22-1.91 14.07 1.35 16.07 7.59 2.52 7.88 8.38 10.85 15.6 11.94 5.51.83 8.94 3.71 10.11 8.89 1.32 5.81 2.06 11.75 3.04 17.63.57 3.45 1.12 6.91 1.71 10.57 1.24-.52 1.57-.59 1.82-.78.4-.3.8-.62 1.08-1.02 4.39-6.09 10.37-7.2 17.3-5.7 2.09.45 4.35.77 6.43.45 1.58-.24 3.76-1.24 4.32-2.5 1.82-4.11 4.86-4.01 8.31-3.24 2.06.45 4.08 1.05 6.92 1.78-.28-2.39 0-4.38-.77-5.79-5.21-9.63-9.91-19.67-16.2-28.56-6.5-9.19-16.2-13.12-27.69-10.35-4.83 1.16-9.49 3-14.32 4.14-2.71.64-5.62.49-8.43.7-.21-2.9-.44-5.8-.59-8.7-.03-.47.29-.95.44-1.42 4.57-15.02 4.56-30.16 1.01-45.33-1.87-7.99-.91-14.8 6.43-19.8 3.36-2.29 3.51-5.5 1.14-8.67-1.89-2.53-4.07-4.84-6.06-7.3-3.59-4.43-2.99-7.01 2.56-7.89 6.7-1.06 13.56-1.12 20.35-1.66 9.93-.78 19.98-.9 29.75-2.6 11.02-1.91 21.13-6.54 27.29-16.64 1.69-2.77 2.94-6.66 2.48-9.75-1.58-10.46.75-17 10.36-21.09 7.1-3.02 14.8-4.8 22.38-6.43 6.59-1.42 7.04-.59 7.33 6.19.07 1.54 1 3.04 1.54 4.56 1.47-.54 3.34-.68 4.35-1.68 3.54-3.51 6.82-7.28 10.12-11.02 2.46-2.78 4.82-5.67 7.26-8.55 6.08 6.17 9.38 5.54 12.84-1.17a8.36 8.36 0 0 1 4.74-3.77c10.92-2.93 25.92 3.39 30.37 13.63 5.34 12.28 16.42 13.28 26.77 10.92 1.65-.38 3.84-2.62 4.07-4.25.76-5.39 1.84-11.11.76-16.28-1.45-7 .73-11.5 5.47-16.23 3.76-3.75 7.67-5.38 12.51-3.99 7.52 2.16 13.71-.28 19.51-4.73 1.4-1.07 2.76-2.21 4.1-3.29 15.66 12.79 32.97 15.13 51.67 10.88 5.52-1.25 7.58-.17 9.55 5.16.97 2.62 1.7 5.43 1.91 8.2.33 4.28 2.34 6.98 6.43 7.72 3.72.67 7.54.8 11.75 1.21-.16 8.62 2.89 12.01 11.2 13.74Zm35.15 699.28c-10.96-7.47-21.86-15.04-32.91-22.37-8.58-5.7-17.52-10.88-25.99-16.73-5.98-4.13-10.85-9.61-12.65-16.85-3.26-13.13-12.24-21.5-23.01-28.27-11.08-6.97-20.71-5.68-29.52 3.98-5.14 5.64-9.65 11.89-14.2 18.03-.78 1.05-.9 3.2-.4 4.48 7.71 19.77 14.72 39.9 23.75 59.06 5.08 10.78 12.97 20.45 20.7 29.7 6.45 7.73 15.66 11.73 25.97 9.42 8.51-1.91 17.59-3.72 24.87-8.13 15.03-9.08 29.03-19.86 43.45-29.94l-.06-2.39Zm-203.38-71.58c-1.95 13.53-8.57 24.26-19.05 32.84-3.6 2.95-7.19 6-10.29 9.44-2.76 3.07-4.4 6.65-.81 10.6 16.83 18.47 33.54 37.05 50.4 55.49a73.63 73.63 0 0 0 9.93 9.08c4.68 3.54 8.14 2.68 11.12-2.33 5.74-9.66 8.24-20.21 5.71-31.14-3.7-15.97-8.2-31.77-12.61-47.56-1.81-6.48-4.81-11.65-10.88-16.17-6.35-4.73-10.21-12.85-14.99-19.6-1.96-2.77-3.5-5.84-6-10.09-1.13 4.16-2.14 6.76-2.52 9.45Zm-100.29-90.74c0-3.33-.08-6.67.02-10 .18-6.26-1.64-7.92-8.07-7.09-3.5.45-7.15 1.31-9.37-2.53-2.17-3.74-2.1-7.48.18-11.32 2.37-4 .96-6.92-4.06-9.24-5.48-2.54-9.16-1.83-10.22 2.62-.72 3.02-2.28 3.94-4.78 3.81-6.6-.35-13.2-.78-19.77-1.45-5.16-.52-7.54.9-8.48 5.98-.54 2.94-.74 5.94-1.08 8.92q-1.27 11.31-12.51 14.63c-10.45 3.09-16.08 13.4-11.56 23.12 3.61 7.79 8.63 14.95 13.25 22.24 1.67 2.63 4.17 3.07 6.83.89 5.72-4.7 11.55-9.26 17.24-14 6.85-5.7 14.48-4.69 19.6 2.74 6.33 9.17 18.51 10.1 25.89 1.81 2.41-2.7 4.88-3.76 8.36-2.38 1.52.6 3.2.96 4.84 1.09 3.8.28 5.44-1.71 4.05-5.17-.71-1.76-1.9-4.02-3.44-4.62-6.78-2.66-7.75-7.8-6.99-14.06.24-1.97.04-3.99.04-5.99h.03Zm507.61-27.62c-3.11.59-6.76 2.6-9.14 1.59-2.85-1.21-4.62-4.97-6.84-7.64-.53-.64-.97-1.35-1.5-1.99-5.83-7.14-10.13-7.36-17.12-1.34a91.45 91.45 0 0 1-12.33 9.17c-5.43 3.27-10.55 2.2-15.62-1.77-3.3-2.59-7.47-4.12-11.35-5.9-3.74-1.72-7.99-2.6-11.35-4.84-7.28-4.85-13.93-6.49-21.09.26-3.59 3.38-7.6 2.97-11.66-.3a22.9 22.9 0 0 0-8.84-4.22c-5.55-1.31-8.24.46-10.09 4.71a104.3 104.3 0 0 1-6.29 12.27c-2.14 3.55-4.22 6.84-.46 10.47l-2.33 2.5c-4.11 4.37-3.96 7.4 1.16 10.27 1.91 1.07 4.61.72 6.95 1.02 2.31.29 4.97-.04 6.85 1.02 2.69 1.5 5.97 3.56 6.99 6.16 3.68 9.39 10.28 8.39 17.63 6.06.79-.25 1.61-.41 2.42-.6 2.91-.68 4.92.12 6.74 2.78 1.47 2.16 3.97 3.63 5.43 4.9l21.72-18.88c4.41-3.84 9.04-3.39 13.84-.78 1.07.58 2.48 1.38 3.47 1.12 5.27-1.42 10.77-2.54 15.57-4.99 3.05-1.56 4.99-5.26 7.45-7.98 1.04-1.15 2.07-3.16 3.19-3.22 6.72-.36 13.5-.71 20.19-.19 5.6.44 9.69-3.05 9.17-9.65-1.14 0-1.98-.13-2.76.02Zm-206.08-35.59c-4.74-2.62-9.18-2.38-13.75 0-3.98 2.07-7.79 4.53-11.93 6.19-9.7 3.89-16.81 1.53-22.48-6.99-4.78-7.19-10.35-8.78-17.94-4.42-6.66 3.82-13.45 6.1-21.27 5.85-6.25-.2-9.06 2.77-9.92 8.9-.42 2.96-.64 5.95-1.16 8.89-.9 5.17-.96 10.79-3.15 15.37-4 8.33-6.33 16.72-5.71 25.91.29 4.33 2.14 8.07 6.41 9.2 5.7 1.51 11.6 2.73 17.46 2.98 4.75.21 8.84-2.39 9.66-7.66 1.66-10.67 8.29-17.86 17.65-21.14 10.95-3.83 21.62-9.29 33.82-9.16 4.84.05 9.27-1.99 12.43-6.32 2.21-3.04 5.09-5.6 7.68-8.38l13.82-14.82c-4.9-1.82-8.49-2.69-11.6-4.41ZM613.37 473.75c0-4.16.14-8.33-.03-12.48-.25-6.06-3.22-7.87-8.46-4.69a54.72 54.72 0 0 0-11.34 8.88c-4.69 4.96-9.7 5.9-15.74 3.32-1.67-.71-3.49-1.11-5.14-1.86-12.26-5.54-25.16-7.31-38.44-6.32-6.31.47-12.92 1.33-16.72 7.29-4.16 6.52-9.99 10.52-17.01 13.17-2.95 1.12-6.54 1.61-8.64 3.63-2.75 2.66-5.61 6.4-6.05 9.96-.51 4.13 4.21 4.01 7.44 4.68 2.38.49 5.49.9 6.8 2.53 4.1 5.09 9.21 4.54 13.43 1.97 5.99-3.65 11.48-8.35 16.54-13.26 3.96-3.84 7.89-6.83 13.5-7.7 7.95-1.24 15.56.18 21.99 4.41 8.97 5.89 18.43 10.34 28.43 14.08 8.67 3.25 13.28 2.48 16.45-6.25 2.43-6.68 2.89-14.07 4.22-21.15l-1.22-.22Zm103.08-236.29c-1.77 10.02-4.5 19.61-9.49 28.63-2.76 4.98-1.31 7.71 3.69 10.58 9.5 5.46 9.63 5.74 7.73 16.54-1.71 9.71 3.02 18.47 12.53 23.05.74-5.62 1.35-11.24 2.24-16.8 1.11-6.96 2.64-14.04 8.45-18.62 7.43-5.85 10.27-14.03 13.04-22.42.93-2.8.01-4.34-2.73-5.3a111.74 111.74 0 0 1-10.61-4.25c-6.45-3.04-7.06-4.94-3.73-11.68-3.26.42-6.18 1.11-9.09 1.06a11.5 11.5 0 0 1-5.78-1.84c-1.21-.78-1.73-2.63-3.35-5.32-1.37 2.93-2.58 4.57-2.9 6.37Zm195.57 223.53c.76 1 2.03 1.63 2.78 2.64 4.22 5.64 8.24 11.44 12.62 16.95.69.87 3.03 1.15 4.28.72 7.19-2.48 11.82-7.3 12.24-15.23.22-4.13 2.08-5.61 6.08-4.93 3.77.65 7.03-.61 7.68-4.5 1.04-6.31 7.38-8.45 9.83-13.58.45-.94 2.19-1.46 3.44-1.8 8.29-2.23 9.95-5.78 6.01-14.05-4.87 1.9-9.75 3.88-14.69 5.72-4.26 1.59-8.55 1.62-10.99-2.76-2.28-4.09-4.6-3.28-6.91-.76-4.04 4.39-7.45 9.4-11.71 13.55a45.63 45.63 0 0 1-11.76 8.51c-3.61 1.74-8 1.83-13.39 2.93 1.61 2.37 2.96 4.54 4.5 6.58ZM630.76 651.43c4.97 7.41 8.84 8.27 16.85 4.27 2.58-1.29 5.92-2.97 8.31-2.31 5.97 1.65 7.59-.85 7.47-6.25 3.44-.06 7.71-.04 5.1-4.86-2.68-4.97-1.25-12.77-9.5-14.34-1.15-.22-2.23-3.22-2.53-5.06-.72-4.42-.85-8.93-1.43-13.38-.2-1.52-.77-4.09-1.59-4.27-5.55-1.22-5.72-5.18-5.6-9.54.03-.96-.1-2.17-.67-2.84-1.09-1.29-2.55-2.28-3.85-3.39-.94 1.38-2.44 2.67-2.71 4.17-.49 2.76.09 5.71-.45 8.45-.37 1.89-1.46 4.55-2.94 5.17-6.79 2.83-7.8 4.21-6.51 11.56.57 3.22 1.17 6.43 1.79 9.85l-5.77 1.06c-1.48 7.98-.39 15.15 4.02 21.72Z"/></svg>
