<svg xmlns="http://www.w3.org/2000/svg" width="40" height="40" fill="none"><path fill="#015289" d="M17.78 4.69s2.26 1.46.76 3.3c-1.49 1.84-2.56 2.28-2.68 3.47 0 0-1.03-1.08.31-2.59 1.34-1.51 2.61-2.33 1.6-4.18Zm1.6 3.17s-.11 1.18-1.97 2.3c-1.85 1.12-.98 1.54-1 1.45-.03-.1 2.59-.26 2.97-3.75Zm-3.89-3.83s.93-.16.99.29c.13 1.12-1.12 2.04-2.53 3.24-1.7 1.45-1.48 1.93-1.5 2.01-.02.09-1.14-1.18.23-2.48 0 0 2.37-1.72 2.81-3.06Zm-.29 0-3.15 3.06s-.24-2.44 3.15-3.06Zm24.32 31.52h-4.4a.53.53 0 0 1-.49-.5V22.43c0-3.7-.58-4.95-2.76-4.95-1.45 0-3.58 1.24-5.37 2.78v14.79a.53.53 0 0 1-.49.5H21.6a.53.53 0 0 1-.5-.5V13.8a.53.53 0 0 1 .5-.5h4.06a.53.53 0 0 1 .49.5v2.12c2.2-1.92 4.78-3.29 7.28-3.29 4.41 0 6.59 2.57 6.59 8.1v14.3a.54.54 0 0 1-.5.5ZM10.4 4.39c-.91-.2-1.84-.3-2.78-.3-6.28 0-7.61 3.53-7.61 7.9v23.06a.54.54 0 0 0 .48.5h4.4a.54.54 0 0 0 .49-.5V17.4h3.18a.54.54 0 0 0 .5-.5v-3.1a.53.53 0 0 0-.5-.5H5.38V12c0-2.7.8-3.53 2.87-3.53.35 0 .7.03 1.04.09a.64.64 0 0 0 .6-.4l.87-3.2a.49.49 0 0 0-.36-.57Zm8.93 30.66V13.8a.62.62 0 0 0-.49-.57c-2.59-.3-5.2-.3-7.79 0a.62.62 0 0 0-.48.56v3.1a.48.48 0 0 0 .48.47c.97-.07 1.95-.11 2.93-.13v17.8a.54.54 0 0 0 .5.5h4.39a.54.54 0 0 0 .46-.5Z"/></svg>