<svg xmlns="http://www.w3.org/2000/svg" viewBox="0 0 401.8 392.1"><path fill="#c62828" d="M48.4 297.2c27 24.2 58 25.2 90 18.1 11.8-2.6 23.2-6.9 34.7-10.4 0-.7-.2-1.3-.4-2l-6.3.6-7 .7c-25.7 2.1-50.9.5-74.9-10.1a127.2 127.2 0 0 1-62.4-61.6 215.6 215.6 0 0 1-22-77.8c-.3-3.2.4-5.1 3-7.1 24-18 47.8-36.2 71.7-54.4l1-.2c-12 29.5-4.5 57.2 8 84.2 4.7 10 11 19.4 16.7 29 1.3 2.2 3.2 4 5.7 5.4l-4.5-10.3a146 146 0 0 1-12.3-50.7c-1.4-31.2 8.3-59 26.6-84A230 230 0 0 1 196.3.3c1.5-.8 4.5 0 6 1.1l64.6 48c3 2.3 6.2 4.4 10.3 7.2-47 .7-77 26.8-101.7 61.8l.7 1 4-3.7a118.5 118.5 0 0 1 70-36.4c24.6-3 48 1.8 70.7 11.2a259.2 259.2 0 0 1 79 52.6c1.3 1.3 2.3 4.2 1.8 5.9-9 29-18.4 58-27.7 87-.1.5-.5.8-1 1.6-17.3-41.7-46.6-68.8-91.3-77.3l-1 1.4 4.8 3c28 16 50.3 37 62.8 67.4a144 144 0 0 1 7.8 77.6 227 227 0 0 1-24.5 73.5c-.8 1.6-3 3.4-4.6 3.4-30.8.2-61.6.1-94.2.1a90.3 90.3 0 0 0 36.5-51 143 143 0 0 0 7.3-61.3c-1 6.3-1.7 12.5-3 18.7-8.9 43.9-35.8 71.7-77.2 86.6a236 236 0 0 1-88 12.3c-8.7-.3-17.3-1.3-26-1.9-3-.2-4.5-1.3-5.5-4.4a10835 10835 0 0 0-28.4-88.5Z"/></svg>
