<svg xmlns="http://www.w3.org/2000/svg" width="40" height="40" fill="none"><path fill="#E92314" d="M40 36.8a74.7 74.7 0 0 0-20.2-2.3c-8.1 0-15.3.9-19.8 2.2V40h40v-3.2ZM20 17.9c8.1 0 15.7 4.3 20 8.7v-3.3a24.6 24.6 0 0 0-20-10.9c-8.1 0-15.4 4.3-20 10.9v3.3a29.8 29.8 0 0 1 20-8.7c.1 0 .1 0 0 0Z"/><path fill="#E92314" d="M20 28.9a45 45 0 0 1 20 4.3v-3.4a33.4 33.4 0 0 0-40 .1v3.3a46.7 46.7 0 0 1 20-4.3Z"/><path fill="#000" d="M40 20.4C35.5 12 28.1 6.6 19.8 6.6 11.7 6.6 4.6 11.8 0 19.7V0h40v20.4Z"/></svg>