<svg xmlns="http://www.w3.org/2000/svg" viewBox="0 0 454.5 58.7" width="454.5" height="58.7">
    <path d="M28.6 58.7A28 28 0 0 1 2.2 41.2a30.6 30.6 0 0 1-.1-22.9A26.3 26.3 0 0 1 17 3.1C20.4 1.7 24.2 1 28.2 1c4.1 0 7.7.7 10.9 2s6 3.2 8.2 5.4c2.3 2.3 3.9 4.8 4.8 7.5l-10.3 5a14 14 0 0 0-13.7-9.4c-3.3 0-6.2.8-8.7 2.3a16.3 16.3 0 0 0-5.8 6.4 20.6 20.6 0 0 0-2.1 9.6c0 3.7.7 6.9 2.2 9.6a15.8 15.8 0 0 0 14.8 8.8c2.6 0 4.9-.5 7.2-1.5 2.2-1 4-2.4 5.4-4.2a11 11 0 0 0 2.1-6.7v-4.7l5.3 4.5H28.3v-9.8h26.6v5.9a29 29 0 0 1-2.3 11.9A23.8 23.8 0 0 1 38.1 57a28.9 28.9 0 0 1-9.5 1.7zm45.3 0c-3 0-5.5-.5-7.7-1.4-2.2-1-3.8-2.3-5-4.1a11 11 0 0 1-1.7-6.3c0-2.3.5-4.3 1.6-6.1s2.7-3.3 4.8-4.5c2.2-1.2 4.9-2.1 8.2-2.6l12.5-2V40l-10.5 1.9c-1.6.3-2.8.8-3.7 1.5-.9.7-1.3 1.8-1.3 3.1s.5 2.2 1.4 2.9c1 .7 2.1 1.1 3.5 1.1 1.9 0 3.5-.4 4.9-1.2a9 9 0 0 0 4.5-7.8V30.7c0-1.6-.6-2.9-1.8-3.9-1.2-1.1-2.9-1.6-5-1.6-2 0-3.8.6-5.3 1.7s-2.6 2.6-3.3 4.4L61 27c.8-2.3 2.1-4.3 3.8-5.9 1.8-1.7 3.9-2.9 6.3-3.8a23.2 23.2 0 0 1 17.2.5c2.7 1.3 4.7 3 6.2 5.2s2.2 4.8 2.2 7.8v27.1H86.3v-6.6l2.6-.5a19.5 19.5 0 0 1-4 4.5 13.7 13.7 0 0 1-4.9 2.6c-1.9.5-3.9.8-6.1.8zm31.1-.9v-41h10.5v9.8l-.8-1.4c.9-3.5 2.4-5.8 4.5-7 2.1-1.2 4.5-1.8 7.4-1.8h2.4v9.8h-3.5a9 9 0 0 0-6.7 2.5 9.5 9.5 0 0 0-2.6 7.1v22.1H105zm41.8.9c-3 0-5.5-.5-7.7-1.4-2.2-1-3.8-2.3-5-4.1a11 11 0 0 1-1.7-6.3c0-2.3.5-4.3 1.6-6.1s2.7-3.3 4.8-4.5c2.2-1.2 4.9-2.1 8.2-2.6l12.5-2V40L149 41.8c-1.6.3-2.8.8-3.7 1.5-.9.7-1.3 1.8-1.3 3.1s.5 2.2 1.4 2.9c1 .7 2.1 1.1 3.5 1.1 1.9 0 3.5-.4 4.9-1.2a9 9 0 0 0 4.5-7.8V30.7c0-1.6-.6-2.9-1.8-3.9-1.2-1.1-2.9-1.6-5-1.6-2 0-3.8.6-5.3 1.7s-2.6 2.6-3.3 4.4l-9-4.3c.8-2.3 2.1-4.3 3.8-5.9 1.8-1.7 3.9-2.9 6.3-3.8a23.2 23.2 0 0 1 17.2.5c2.7 1.3 4.7 3 6.2 5.2s2.2 4.8 2.2 7.8v27.1h-10.5v-6.6l2.6-.5a19.5 19.5 0 0 1-4 4.5 13.7 13.7 0 0 1-4.9 2.6c-1.8.5-3.8.8-6 .8zm31.1-.9v-41h10.5v8.1l-.6-1.8a10 10 0 0 1 4.6-5.4c2.1-1.2 4.6-1.8 7.5-1.8 3.1 0 5.8.7 8.2 2s4.1 3.1 5.4 5.4c1.3 2.3 2 5 2 8.2v26.4h-11.3v-24c0-1.6-.3-3-.9-4.1a6.2 6.2 0 0 0-2.6-2.7c-1.1-.7-2.4-1-3.9-1s-2.8.3-3.9 1c-1.2.7-2 1.6-2.7 2.7a8.8 8.8 0 0 0-.9 4.1v24h-11.4zm64.7.4c-5 0-8.8-1.3-11.5-4A15.1 15.1 0 0 1 227 43V26.5h-6.9v-9.8h.4c2.1 0 3.7-.5 4.8-1.6a6.3 6.3 0 0 0 1.7-4.7v-3h11.3v9.3h9.6v9.8h-9.6v15.7c0 1.4.3 2.6.8 3.5.5.9 1.3 1.6 2.3 2.1s2.4.7 3.9.7l1.2-.1 1.4-.2v9.5l-2.6.3c-.9.2-1.8.2-2.7.2zm67.1-40.4a20.3 20.3 0 0 0-18.6-1.2 13 13 0 0 0-3.8 2.7V0H276v56.9h10.5V53c1.3 1.4 2.8 2.5 4.7 3.3 2.4 1 5 1.5 7.8 1.5 4 0 7.6-.9 10.7-2.9a21.3 21.3 0 0 0 10.2-18.5 21.3 21.3 0 0 0-10.2-18.6zM307 42.2c-.9 1.7-2.2 3-3.8 4-1.6 1-3.5 1.4-5.6 1.4-2 0-3.8-.5-5.4-1.4s-2.8-2.3-3.7-4c-.9-1.7-1.3-3.7-1.3-5.9s.4-4.2 1.3-5.9a10 10 0 0 1 9.1-5.4 10.4 10.4 0 0 1 9.4 5.5c.9 1.7 1.4 3.6 1.4 5.8s-.5 4.2-1.4 5.9zm46.8-25.4a20.7 20.7 0 0 0-9.2-1.9c-2.9 0-5.6.5-8 1.4a18 18 0 0 0-6.3 3.8c-1.8 1.7-3 3.6-3.8 5.9l9 4.3a9.7 9.7 0 0 1 3.3-4.4 8.8 8.8 0 0 1 5.3-1.7c2.1 0 3.8.5 5 1.6a5.1 5.1 0 0 1 1.8 3.9v1.1l-11.3 1.8c-3.3.5-6 1.4-8.2 2.6a11.7 11.7 0 0 0-6.4 10.6c0 2.5.6 4.6 1.7 6.3 1.2 1.8 2.8 3.1 5 4.1 2.2 1 4.7 1.4 7.7 1.4a17.7 17.7 0 0 0 10.9-3.5l1.4-1.3v3.9h10.5V29.8c0-3-.7-5.5-2.2-7.8a15.9 15.9 0 0 0-6.2-5.2zM349.7 45a8.7 8.7 0 0 1-3.3 3.3c-1.4.8-3 1.2-4.9 1.2a5 5 0 0 1-3.5-1.1c-1-.7-1.4-1.7-1.4-2.9 0-1.4.4-2.4 1.3-3.1.9-.7 2.1-1.2 3.7-1.5l9.3-1.7v1.3c0 1.7-.4 3.2-1.2 4.5zm50.9-28.1c-2.3-1.3-5-2-8.2-2-2.9 0-5.3.6-7.5 1.8a9.9 9.9 0 0 0-4 4.1v-5h-10.5v41h11.3v-24c0-1.6.3-3 .9-4.1.6-1.2 1.5-2.1 2.7-2.7s2.5-1 3.9-1a7 7 0 0 1 6.5 3.7c.6 1.2.9 2.5.9 4.1v24H408V30.5c0-3.1-.7-5.8-2-8.2a13.4 13.4 0 0 0-5.4-5.4zm53.9-1h-13.9l-13.9 15.7V0h-11.2v56.9h11.2V44.3l4.6-4.9 10.4 17.5h12.8l-14.8-24.5z"/>
    <path fill="#C1121F" d="M454.5 15.9h-13.9l-13.9 15.7 15 25.3h12.8l-14.8-24.5z"/>
</svg>