<svg xmlns="http://www.w3.org/2000/svg" viewBox="0 0 928 928"><path fill="#2c3136" d="M450 1h-10l-13 2-10 1a441 441 0 0 0-128 34l-5 2-7 4-9 4-3 1-4 3-8 4-4 1-2 1-3 2-1 1-2 1a377 377 0 0 0-48 33l-4 3a412 412 0 0 0-94 107l-8 12a679 679 0 0 0-38 84 367 367 0 0 0-11 37l-3 12-4 18-1 5a113 113 0 0 0-2 16l-1 3v8a433 433 0 0 0-2 115 226 226 0 0 1 3 20v1l3 22 2 11a703 703 0 0 0 29 86l19 39 5 9 4 6 2 4a412 412 0 0 0 111 122 432 432 0 0 0 50 33l9 5 5 2 1 1 2 2 5 2 3 2 9 4a220 220 0 0 0 26 11l10 4 4 1 11 4 10 3 18 5 8 2a382 382 0 0 0 52 9l7 1a641 641 0 0 0 102-1l7-1a335 335 0 0 0 59-14l8-2 4-1 2-1a352 352 0 0 0 49-19l17-8a404 404 0 0 0 174-167 475 475 0 0 0 34-87l1-3v-3l2-4 5-30 2-9 4-30 1-13 1-70v-65H692l-214 1v78l1 78 120 1 120-1v9a319 319 0 0 1-8 48l-2 9a139 139 0 0 0-5 12 81 81 0 0 1-9 17l-13 20a251 251 0 0 1-101 70l-7 3-6 2-2 1-10 2a361 361 0 0 1-98 9l-5-1-11-1-8-1h-4l-7-2a296 296 0 0 1-32-7l-2-1-11-4a118 118 0 0 1-14-7c0 1-6-2-17-9-12-7-11-6-15-10l-2-1-3-2-4-2-1-1-3-2-4-4-9-8a272 272 0 0 1-81-125l-2-4c-4-13-4-15-4-18l-2-4v-4a410 410 0 0 0-5-25 522 522 0 0 1 4-123l4-19 6-22 1-2 2-8 3-7 2-5 2-6 3-5 2-4v-2l2-2v-1l3-6a260 260 0 0 1 127-115l31-10 4-1 5-1 4-1 10-1 7-2c17-2 49-3 65-2l25 4 7 1a263 263 0 0 0 10 2l8 2 7 2 15 6a161 161 0 0 1 31 16l1 1 8 5a246 246 0 0 1 46 42 241 241 0 0 1 35 59l2 4 1 4c0 2 4 1 21-7l20-9 1-1a266 266 0 0 1 33-17l10-4 11-5 1-1 1-1a435 435 0 0 0 47-22l13-6 1-1 4-2c3-1 3-2 3-4l-3-8a308 308 0 0 0-25-50l-6-9-10-14-7-10a512 512 0 0 0-86-77l-3-1a302 302 0 0 0-60-33c-13-5-45-17-58-20l-12-3a183 183 0 0 0-30-6l-7-1-26-3-10-1h-68Z"/></svg>
