<?xml version="1.0" encoding="UTF-8"?><svg id="a" xmlns="http://www.w3.org/2000/svg" xmlns:xlink="http://www.w3.org/1999/xlink" viewBox="0 0 57 57"><defs><linearGradient id="d" x1="-492.8" y1="394.84" x2="-492.01" y2="394.23" gradientTransform="translate(10611.52 7582.73) scale(21.51 -19.17)" gradientUnits="userSpaceOnUse"><stop offset="0" stop-color="#002808"/><stop offset=".67" stop-color="#1d6c31"/><stop offset=".89" stop-color="#217536"/><stop offset=".89" stop-color="#217536"/><stop offset=".89" stop-color="#217536"/><stop offset=".89" stop-color="#217536"/><stop offset=".89" stop-color="#217536"/><stop offset="1" stop-color="#237939"/></linearGradient><linearGradient id="g" x1="-468.33" y1="389.72" x2="-468.8" y2="388.89" gradientTransform="translate(5157.57 5838.71) scale(10.92 -14.94)" gradientUnits="userSpaceOnUse"><stop offset="0" stop-color="#0a3d1d"/><stop offset="1" stop-color="#2a823b"/></linearGradient><linearGradient id="j" x1="-483.5" y1="398.53" x2="-483.17" y2="397.66" gradientTransform="translate(7621.27 9415.21) scale(15.72 -23.62)" gradientUnits="userSpaceOnUse"><stop offset="0" stop-color="#001600"/><stop offset=".45" stop-color="#11461a"/><stop offset=".45" stop-color="#11461a"/><stop offset=".45" stop-color="#11461a"/><stop offset="1" stop-color="#26803a"/></linearGradient><linearGradient id="m" x1="-483.42" y1="399.55" x2="-483.67" y2="398.61" gradientTransform="translate(7667.12 10141.07) scale(15.8 -25.3)" gradientUnits="userSpaceOnUse"><stop offset="0" stop-color="#48b652"/><stop offset=".62" stop-color="#1e642a"/><stop offset="1" stop-color="#043212"/></linearGradient><linearGradient id="p" x1="-458.19" y1="394.9" x2="-457.97" y2="394.02" gradientTransform="translate(4141.35 7516.71) scale(8.95 -18.96)" gradientUnits="userSpaceOnUse"><stop offset="0" stop-color="#48b652"/><stop offset="1" stop-color="#1e6d33"/></linearGradient><linearGradient id="s" x1="-463.52" y1="395.58" x2="-463.65" y2="394.58" gradientTransform="translate(4623.23 7786.35) scale(9.89 -19.67)" gradientUnits="userSpaceOnUse"><stop offset="0" stop-color="#063b1a"/><stop offset=".62" stop-color="#1d692f"/><stop offset=".62" stop-color="#1d692f"/><stop offset=".64" stop-color="#1e6930"/><stop offset="1" stop-color="#2b843c"/></linearGradient><linearGradient id="v" x1="-464.77" y1="390.05" x2="-464.32" y2="389.16" gradientTransform="translate(4725.57 5885.67) scale(10.08 -15.02)" gradientUnits="userSpaceOnUse"><stop offset="0" stop-color="#48b652"/><stop offset="1" stop-color="#1e6d33"/></linearGradient><linearGradient id="y" x1="-491.73" y1="395.83" x2="-492.5" y2="395.27" gradientTransform="translate(10500.44 7986.05) scale(21.29 -20.09)" gradientUnits="userSpaceOnUse"><stop offset="0" stop-color="#359943"/><stop offset="1" stop-color="#023110"/></linearGradient></defs><g id="b"><g id="c"><path id="e" d="M9.61,15.13c0,1.85.72,3.83,2.09,5.61h0c1.51,1.92,3.6,3.41,6.12,4.54h0c3.24,1.35,5.9,1.78,7.99,1.78h0c2.95,0,4.68-.85,5.32-1.21h0c-4.89-11.79-14.24-17.18-15.68-17.96h0c-3.67,1.49-5.76,4.05-5.83,7.24" fill="url(#d)" fill-rule="evenodd" stroke-width="0"/></g><g id="f"><path id="h" d="M43.83,16.97c-1.32,2.68-3.62,6.6-7.44,9.94h0c.42.07.83.15,1.39.15h0c2.02,0,4.94-.94,7.65-5.22h0c1.6-2.47,2.16-4.79,1.74-6.82h0c-.28-1.45-1.04-2.39-1.6-2.9h0c-.28.94-.83,2.76-1.74,4.86" fill="url(#g)" fill-rule="evenodd" stroke-width="0"/></g><g id="i"><path id="k" d="M19.89.72c-1.83,1.16-2.78,3.71-3.07,4.73h0c6.28,3.85,10.3,8.95,12.5,12.58h0c1.46,2.4,2.41,4.44,2.85,5.67h0c.44-1.82.37-3.49.37-3.49h0c-.15-10.98-3.73-18.62-9.35-20h0c-.19-.04-.38-.08-.57-.1h0c-.15-.02-.31-.03-.46-.03h0c-.79,0-1.54.23-2.26.64" fill="url(#j)" fill-rule="evenodd" stroke-width="0"/></g><g id="l"><path id="n" d="M27.18,41.27c-1.1,1.52-2.18,2.84-3.16,3.96h0c-.32.37-.63.72-.94,1.05h0c-2.7,2.82-4.9,4.51-5.7,5h0c.37,1.2,1.97,5.64,5.63,5.64h0c4.24,0,6.8-5.71,6.8-5.71h0v-.07c.13-.26,1.97-4.13,2.88-9.13h0c.04-.24.08-.49.12-.74h0c.05-.31.1-.63.14-.95h0c.17-1.28.26-2.61.24-3.95h0c-.03-1.5-.19-3.03-.55-4.53h0c-.02-.08-.03-.15-.06-.23h0c-1.57,3.82-3.51,7.04-5.4,9.65" fill="url(#m)" fill-rule="evenodd" stroke-width="0"/></g><g id="o"><path id="q" d="M35.63,33.74v.78c0,1.4-.02,3.96.31,6.53h0c.34,2.65,1.04,5.3,2.5,6.67h0c.74.71,1.55,1.07,2.51,1.07h.3c.47,0,1.66-.14,2.51-1.42h0c.34-.52.64-1.23.82-2.2h0c-.15-.5-.59-2.13-1.41-4.12h0c-.22-.6-.47-1.24-.76-1.9h0c-1.44-3.27-3.59-7.06-6.49-9.32h0c-.15.78-.3,2.2-.3,3.9" fill="url(#p)" fill-rule="evenodd" stroke-width="0"/></g><g id="r"><path id="t" d="M41.32,5.97c-.9,0-1.64.28-2.32.85h0c-3.21,2.7-3.59,10.37-3.74,13.28h0l-.08.57c-.07,1.78.08,3.91.22,4.97h0c6.95-5.47,9.34-13.56,9.64-14.63h0c-.37-4.61-3.36-5.04-3.44-5.04h-.3Z" fill="url(#s)" fill-rule="evenodd" stroke-width="0"/></g><g id="u"><path id="w" d="M37.31,28.85c.96.9,2.42,2.47,3.91,4.92h0v.02s.01,0,.01,0c1.17,1.91,2.37,4.34,3.37,7.39h0c.28.85.54,1.74.79,2.68h0c.32-.48.79-1.18,1.18-2.04h0c.09-.2.18-.42.25-.64h0c.06-.24.16-.43.23-.65h0l.04-.15c.75-2.83,0-5.37-2.26-7.76h0c-3.01-3.19-5.69-3.77-7.33-3.77h-.21Z" fill="url(#v)" fill-rule="evenodd" stroke-width="0"/></g><g id="x"><path id="z" d="M10.11,41.06c-.07.35-.07.78-.07,1.21.22,2.77,2.3,5.47,5.76,7.17.83-.55,4.7-3.12,8.84-8.38,1.09-1.39,2.21-2.96,3.29-4.73l.24-.4c1.05-1.76,2.06-3.7,3-5.84l.17-.39c-.55-.15-1.55-.36-3.02-.36-2.66,0-6.91.78-12.23,4.19-3.53,2.27-5.61,4.9-5.97,7.53Z" fill="url(#y)" fill-rule="evenodd" stroke-width="0"/></g></g></svg>