<svg xmlns="http://www.w3.org/2000/svg" viewBox="0 0 150.95 150.95">
  <path fill="#236957" d="M75.99 148.68c-18.97-.79-35.24-6.28-49.44-17.81A70.15 70.15 0 0 1 2.46 93.42C.28 85.14-.66 76.72.47 67.9c1.63-12.7 6.01-24 13.22-34.41 6.19-8.93 14.25-15.72 23.59-21.04 7.53-4.29 15.53-7.57 24.11-8.9 7.5-1.16 14.99-1.81 22.73-.68a95.24 95.24 0 0 1 22.87 6.21c5.73 2.37 10.81 5.79 15.71 9.47 14.62 10.96 23.07 25.96 26.9 43.51a61.58 61.58 0 0 1 .68 21.74 76.2 76.2 0 0 1-13.17 33.41c-5.98 8.64-13.74 15.25-22.7 20.57a80.26 80.26 0 0 1-25.46 9.55c-4.52.91-9.21.99-12.98 1.36Zm-.23-139.5a75.7 75.7 0 0 0-18.72 3.17c-12.07 3.73-22.93 9.57-31.75 18.87a59.2 59.2 0 0 0-12.18 18.7C9.04 60.07 5.88 70.4 7.72 81.72c1.43 8.79 3.96 17.09 8.23 24.85 3.89 7.06 8.81 13.38 15.14 18.39a76.42 76.42 0 0 0 29.26 14.28c8.61 2.16 17.26 2.76 26.03 1A83.17 83.17 0 0 0 110.9 131a61.38 61.38 0 0 0 20.18-18.25 70.65 70.65 0 0 0 10.55-22.95c1.43-5.42 2.77-11.03 2.14-16.67-.71-6.39-1.89-12.74-4.25-18.8-3.54-9.07-8.27-17.3-15.15-24.36-6.91-7.08-15.3-11.75-24.2-15.47-7.8-3.26-16.14-4.74-24.41-5.32Z"/>
  <path fill="#236957" d="M71.91 33.44c8.19-3.7 15.88-7.47 23.83-10.71l4.54 4.26-3.18-.21-17.11 11.9v63.36l-7.03 1.22c-.35-.91-.95-1.88-1.05-2.9-.18-1.82-.06-3.67-.05-5.5l.04-56.55v-4.87ZM33.98 99.77V84.74c10.96-5.44 21.94-10.89 32.94-16.31.36-.18.93.07 1.66.15v12.9l-34.6 18.29Zm.01 17.55v-14.03l34.35-18.24c.96 4.97.34 9.38.47 14.19-11.39 6.12-22.77 12.38-34.82 18.08Z"/>
  <path fill="#236957" d="M117.71 103.82v13.87c-11.83-5.35-22.59-11.77-33.69-17.32V85.95c11.65 5.94 22.7 11.8 33.69 17.87Zm.07-18.59v14.13c-.96-.12-1.8-.02-2.41-.34-4.12-2.13-8.19-4.36-12.28-6.53l-19.03-10.1V69.01c11.9 4.79 22.62 10.92 33.73 16.23ZM33.81 66.87l25.8-11.94c1.33.61 2.71 1.14 3.98 1.85 1.29.72 2.49 1.63 4.01 2.65l1.34 3.73c-2.73 2.82-21.66 12.76-34.61 18.23-.95-2.37-.41-4.83-.5-7.2-.09-2.32-.02-4.65-.02-7.32Zm50.08-1.6v-5.39l7.9-4.67 25.91 12v15.08L83.89 65.28Zm26.77-20.12 7.03 3.87v15.62l-19.61-9.73v-3.16l12.57-6.61ZM33.98 64.3V48.5l7.33-3.47 12.23 6.1.42 2.88c-6.33 3.79-13.14 6.64-19.99 10.3Z"/>
</svg>
