<svg xmlns="http://www.w3.org/2000/svg" width="40" height="40" fill="none"><path fill="#476BF0" fill-rule="evenodd" d="M0 20.01A20.03 20.03 0 0 1 20.02 0 20.02 20.02 0 0 1 40 20.01 20.02 20.02 0 0 1 20.02 40 20.02 20.02 0 0 1 0 20.01Zm1 0A19.03 19.03 0 0 0 20.02 39 19.02 19.02 0 0 0 39 20.01 19.02 19.02 0 0 0 20.02 1 19.03 19.03 0 0 0 1 20.01ZM25.7 7.44c-3.17-1.41-9.07-1.55-13.9.6a10.86 10.86 0 0 1 1.99-1.13 17.08 17.08 0 0 1 7.46-1.4c2.62.05 5.72.96 7.61 2.83.32.4.51.78.58 1.09 1.5.76 2.38 1.48 2.87 2.31.2.44.27.9.18 1.43.5.28.92.66 1.25 1.12.2.34.37.73.42 1.09.07.45.11.99-.37 1.61.5.26.92.97.97 1.28.25 1.12-.49 2.24-1.44 3.1A16.98 16.98 0 0 1 27.77 24c-2.78.7-5.34 1.1-7.58 1.47l-2.61.44a23.32 23.32 0 0 0 5.69.7c5.9 0 11.1-2.78 11.1-2.78l-.24.67c-3.74 2.27-9.68 3.21-12.23 3.1-2.57-.12-4.74-.51-6.87-1.16-.65.18-1.29.4-1.91.65a22.4 22.4 0 0 0 8.44 2.01c2.82.21 7.49-.46 11.42-1.9-.1.1-.16.2-.23.31-.07.12-.14.24-.23.32a26.09 26.09 0 0 1-8.42 2.22c-2.13.1-4.72 0-6.98-.42-1.95-.39-3.54-1-5.2-1.73-.3.23-.44.51-.52.83 6.5 3.4 12.56 3.47 19.48 1.32l-.63.6c-7.6 3.1-13.55 1.9-18.15-.32-.16-.07-.35-.14-.49-.23.44.74 3.96 3.3 7.89 3.63 1.42.12 3 .05 4.47-.16 1.34-.18 2.57-.48 3.5-.86l-1.15.6a13.9 13.9 0 0 1-6.99 1.3c-4.69-.33-7.33-2.4-8.5-3.5a3.25 3.25 0 0 1-.98-1.8 5.43 5.43 0 0 1-2.28-2.01c-.33-.49-.26-1.06-.2-1.55l.15-.41a4.43 4.43 0 0 1-1.25-1.16c-.46-.84-.18-1.55.14-2.11l-.3-.35a2.28 2.28 0 0 1-.46-1.78c.09-.7.46-1.34.95-1.9 1.01-1.18 2.63-2.1 5.38-3 2.1-.7 3.22-.94 4.57-1.23l1.26-.28c2.38-.55 5.23-.73 7.6-1.57-6.63-1.15-13.52-.1-19.14 3.77l.37-1.09c5.04-3.28 10.61-5.22 20.05-3.58.5-.3.8-.6.95-1.2C25.28 9 22.7 8.7 19.4 8.76c-2.96.09-8.3 1.2-11.17 2.89l.87-1.09c2-1.18 7.2-2.73 11.1-2.8 2.75-.07 4.17.1 7.45.97-.3-.55-.97-.83-1.97-1.3Zm5.03 4.81c-.09-.65-.83-1.27-1.48-1.69-.06.21-.22.45-.4.66l-.26.31c.71.19 1.45.46 2.14.72Zm-3.16.2c-.47.38-1 .7-1.78 1 1.3.23 2.26.6 3.37.9l.04.01c.24 0 1.03-.73 1.17-.93a18.72 18.72 0 0 0-2.8-.97Zm4.95 3.4c.3-.57.11-.94-.51-1.47-.26.3-.54.55-.84.78l.63.3c.25.1.49.23.72.4Zm-10.4-1.22a59.18 59.18 0 0 0-9.33 1.87l-.15.05c-1.44.44-6.86 2.08-5.21 4.35l.02-.02c.16-.18 1.3-1.48 4.9-2.52 2.54-.75 5.13-1.22 7.77-1.7a90.4 90.4 0 0 0 7.2-1.52 13.38 13.38 0 0 0-3.65-.61c-.47 0-.98.03-1.56.1Zm3.3 2.8c-1.64.42-5.62 1-9.9 1.92-1.34.3-5.02 1.16-6.82 2.68.29.24.52.37.76.5.19.1.39.2.62.34.74-.49 1.76-.95 3.27-1.35 2.37-.63 4.22-.93 6.31-1.28l.62-.1a60.5 60.5 0 0 0 9.18-2.16 7.66 7.66 0 0 0 2.08-1.08 7.44 7.44 0 0 0-1.78-.88c-.97.46-2.35.92-4.34 1.41Zm1.64 3.15c-4.95 1.34-8.53 1.52-12.6 2.52a19.16 19.16 0 0 0-2.4.78c.75.4 1.59.75 2.42 1.07 1.66-.49 2.45-.7 4.85-1.09l1.34-.24c1.27-.23 3.04-.56 4.44-.84 3.68-.8 9.07-2.5 7.64-4.72a6.06 6.06 0 0 1-.49.39c-1.09.83-2.82 1.5-5.2 2.13Zm-18.78 3.7c.16-.16.37-.3.54-.44-.38-.2-.63-.36-.92-.54l-.17-.11c-.19.42.19.88.55 1.09Zm4.3 1.34-2.08-.92c-.32.2-.62.41-.85.62l1.64.93c.4-.25.84-.47 1.3-.63Zm-2.7 2.15c.07-.23.18-.41.35-.65-.19-.1-.37-.19-.55-.3-.21-.1-.42-.23-.63-.37-.03.44.25.84.83 1.32Z" clip-rule="evenodd"/></svg>