<svg xmlns="http://www.w3.org/2000/svg" width="40" height="40" fill="none"><path fill="#0059A5" d="M33.27 23.07c1.74-.97 4.08-2.46 5.41-3.84-6.55-1.96-24.54.17-38.67 5v-.47c4.18-1.77 9.16-3.74 13.56-4.95 4.78-1.32 9.63-2.44 14.55-3.06 2.73-.34 9.1-.96 11.29.7.54.46.43.2.59 3.31-.01.24.06.51-.12.7-.86.95-4.01 1.93-6.05 2.7l-.55-.09Z"/><path fill="#929295" d="M32.54 22.96c-6.29-.17-15.37 2.36-20.48 4.81v.54c5.94-2.22 16.91-4.62 23.1-2.71-2.3 2.25-5.31 3.23-6.17 3.85 7.21-2.97 7.02-2.6 7.04-3.56-.1-1.99-.03-1.83-.39-2.14-.75-.57-2.14-.76-3.1-.79ZM22.58 12c-7.02.14-15.37 2.9-21.82 5.64v.3c7.07-2.44 20.45-4.98 25.78-3.4-.42.42-.89.79-1.36 1.14.72-.11 1.44-.23 2.16-.32.02-.07.08-.14.07-.23-.04-.67-.04-1.35-.11-2.02-.15-1.3-5.2-1.13-4.72-1.12Z"/></svg>