<svg xmlns="http://www.w3.org/2000/svg" width="40" height="40" fill="none"><path fill="#0066B7" d="M13.09 0h-1.27a.6.6 0 0 0-.6.62v30.95c0 .63.18 1.14.54 1.5.35.36.8.55 1.32.55.55 0 1.02-.2 1.35-.59.33-.38.5-.87.5-1.46v-5.6c0-3.02 1.23-6.17 3.64-9.37a27.76 27.76 0 0 1 7.71-6.9v25.27H8.01a3.08 3.08 0 0 1-3.09-3.06V6.85a3.08 3.08 0 0 1 3.1-3.06h1.3a.6.6 0 0 0 .6-.6V.61a.6.6 0 0 0-.6-.62H8.07A6.87 6.87 0 0 0 1.2 6.87v25.02a6.87 6.87 0 0 0 6.87 6.87H29.4a.6.6 0 0 0 .6-.61V7.19c0-.53-.17-1-.48-1.4a1.74 1.74 0 0 0-1.42-.65c-1.57 0-3.84 1.23-6.91 3.75a31.47 31.47 0 0 0-6.26 6.76V3.8H33.2c1.7 0 3.1 1.37 3.1 3.05v25.06c0 1.68-1.39 3.06-3.1 3.06h-1.3a.6.6 0 0 0-.6.6v2.58c0 .34.28.61.6.61h1.24A6.87 6.87 0 0 0 40 31.89V6.87A6.88 6.88 0 0 0 33.14 0H13.09Z"/><path fill="#0066B7" d="M11.88 1.24h-1.27a.6.6 0 0 0-.6.6v30.97c0 .63.18 1.14.54 1.5.35.36.8.55 1.32.55.54 0 1.02-.2 1.36-.6.32-.37.5-.86.5-1.45V27.2c0-3.02 1.21-6.16 3.63-9.36a27.73 27.73 0 0 1 7.72-6.9V36.2H6.8a3.08 3.08 0 0 1-3.09-3.06V8.09a3.08 3.08 0 0 1 3.1-3.06h1.3a.6.6 0 0 0 .59-.6V1.84a.6.6 0 0 0-.6-.61H6.87A6.87 6.87 0 0 0 0 8.1v25.03A6.87 6.87 0 0 0 6.87 40h21.31a.6.6 0 0 0 .6-.61V8.43c0-.53-.16-1-.47-1.4a1.74 1.74 0 0 0-1.42-.65c-1.57 0-3.84 1.23-6.92 3.75a31.46 31.46 0 0 0-6.25 6.76V5.03H32c1.71 0 3.1 1.38 3.1 3.06v25.06a3.08 3.08 0 0 1-3.1 3.06h-1.3a.6.6 0 0 0-.6.6v2.58c0 .34.27.61.6.61h1.24a6.87 6.87 0 0 0 6.86-6.87V8.1a6.87 6.87 0 0 0-6.86-6.86H11.88Z"/><path fill="#fff" fill-rule="evenodd" d="M6.87 1.85H8.1v2.57H6.8A3.69 3.69 0 0 0 3.11 8.1v25.06a3.69 3.69 0 0 0 3.7 3.67h18.86V9.84c-3.52 2-6.45 4.54-8.78 7.63-2.5 3.32-3.77 6.57-3.77 9.73v5.6c0 .45-.11.8-.34 1.06-.23.26-.53.39-.91.39a1.2 1.2 0 0 1-.9-.37c-.24-.25-.36-.6-.36-1.07V1.85h21.32a6.27 6.27 0 0 1 6.26 6.26v25.02a6.27 6.27 0 0 1-6.26 6.26H30.7v-2.57H32a3.7 3.7 0 0 0 3.69-3.67V8.09a3.7 3.7 0 0 0-3.7-3.67H13.12v14.56a29.18 29.18 0 0 1 7.23-8.37C23.29 8.2 25.47 7 26.89 7c.4 0 .72.14.95.43.23.28.34.62.34 1.01V39.4H6.87A6.28 6.28 0 0 1 .6 33.13V8.11a6.28 6.28 0 0 1 6.27-6.26Z" clip-rule="evenodd"/></svg>