<svg xmlns="http://www.w3.org/2000/svg" width="40" height="40" fill="none"><path fill="#D6B36A" fill-rule="evenodd" d="M5.11 18.43h7.37c-.02-1.5.06-2.07.52-2.9h7.34c-.02.03-6.7 8.3-8.34 10.09-1.64 1.79-2.19 2.86-3.36 2.82-1.18-.04-2-1.32-2-3.33H0c.18 1.18 1 3.73 3.92 4.23 2.92.5 5.51.22 5.74.36.23.14 1.67.33 2.68.22 1-.1 3.05-.14 4.88-1.8.96.75 2.21 1.98 5.97 1.98 3.75 0 7.56-2 8.68-4.78 1.13-2.78-.64-5.23-3.07-5.88-2.43-.64-4-.34-4-.34l2.95-3.58h8.83L40 10.3H17.9a7.4 7.4 0 0 0-5.86 3.15c-3.54.53-5.8 2.07-6.93 5Zm20.86-6.63h10.75l-1.06 1.63H24.6l1.37-1.63Zm-11.4 1.64a5.2 5.2 0 0 1 3.38-1.64h5.5l-1.37 1.64h-7.5Zm-3.78 2.11a6.04 6.04 0 0 0-.42 2.07h-2.6c.32-.6 1.09-1.62 3.02-2.07Zm7.02 6.1 5.08-6.11h2l-4.86 5.82c-1.6 0-2.22.28-2.22.28Zm-11.3 6.98c-.8 0-1.22-.06-2.12-.43-.9-.36-1.86-1.33-2.08-2.07h2.36c.06.4.24.8.62 1.37.4.56.78.77 1.22 1.13Zm4.83.18c1.74-1.15 3.36-3.2 4.2-3.96-.03.7.13 1.2.3 1.56-1.1 1.04-2.8 2.61-4.5 2.4Zm6.93-1.86L21.54 23s.75.34 1.14.84c.39.5.47 1.26.47 1.26h2.7c-.12-.6-.54-1.5-1.19-2.11a4.45 4.45 0 0 0-2.1-1.22l1.04-1.25s2.15-.14 3.17.37c1.09.55 2.52 1.75 2.1 3.82-.44 2.07-3.33 3.4-4.86 3.58-1.52.18-2.5.2-3.67-.23-1.18-.43-2.07-1.12-2.07-1.12Zm.7-4.29-2 2.4c-.06.06-.41-.89.35-1.82s1.64-.58 1.64-.58Z" clip-rule="evenodd"/></svg>