<svg xmlns="http://www.w3.org/2000/svg" viewBox="0 0 67.46 52.97"><path fill="#c60c46" fill-rule="evenodd" d="M53.73 8.6a41 41 0 0 0-9.15-1c-10.13 0-18.52 2.72-23.52 7.13C13.49 21.35 9.6 32.1 17.57 40 12.34 38.2 7.43 35.3 5 33a14.79 14.79 0 0 1-5-11.11 18.12 18.12 0 0 1 3.8-10.45 27.2 27.2 0 0 1 10.73-8.15A43.22 43.22 0 0 1 31.52 0c7.85 0 13.75 1.06 22.21 4.94Z"/><path fill="#c60c46" fill-rule="evenodd" d="M51.19 28.23v9.41c-6.19-3.89-12.33-7.81-18.5-11.72-2.09-1.24-2.72-2.2-3.08-3.06h16.71c4.75.12 4.75 2.95 4.87 5.37"/><path fill="#c60c46" fill-rule="evenodd" d="M67.46 30.9v17.42C60.21 51.46 51.62 53 42.15 53c-9.22 0-20-4.24-31.16-12.19h-.09C19 44.23 23.64 45 31.78 45.8c10.48.2 16.41-1.35 23.22-5.4V22.83h.26l12.2 8.07"/></svg>
