<svg xmlns="http://www.w3.org/2000/svg" viewBox="0 0 67.46 67.46"><path fill="#c60c46" fill-rule="evenodd" d="M53.73 15.84c-3-.68-6.07-1.01-9.15-1-10.13 0-18.52 2.72-23.52 7.13-7.57 6.62-11.46 17.37-3.49 25.27-5.23-1.8-10.14-4.7-12.57-7a14.8 14.8 0 0 1-5-11.11c.14-3.8 1.47-7.45 3.8-10.45a27.25 27.25 0 0 1 10.73-8.15 43.21 43.21 0 0 1 16.99-3.29c7.85 0 13.75 1.06 22.21 4.94v3.66Z"/><path fill="#c60c46" fill-rule="evenodd" d="M51.19 35.47v9.41c-6.19-3.89-12.33-7.81-18.5-11.72-2.09-1.24-2.72-2.2-3.08-3.06h16.71c4.75.12 4.75 2.95 4.87 5.37"/><path fill="#c60c46" fill-rule="evenodd" d="M67.46 38.14v17.42c-7.25 3.14-15.84 4.68-25.31 4.68s-20-4.24-31.16-12.19h-.09c8.1 3.42 12.74 4.19 20.88 4.99 10.48.2 16.41-1.35 23.22-5.4V30.07h.26l12.2 8.07"/></svg>
