<?xml version="1.0" encoding="UTF-8"?><svg id="a" xmlns="http://www.w3.org/2000/svg" viewBox="0 0 40 40"><polygon points="35.3 10.36 35.3 11.49 35.3 12.62 35.3 13.76 35.3 14.89 35.3 16.03 35.3 17.16 35.3 18.3 35.3 19.43 35.3 20.57 35.3 21.7 35.3 22.84 35.3 23.97 35.3 25.1 35.3 26.24 35.3 27.38 35.3 28.51 35.3 29.64 36.44 29.64 36.44 28.51 36.44 27.38 36.44 26.24 36.44 25.1 36.44 23.97 36.44 22.84 36.44 21.7 36.44 20.57 36.44 19.43 36.44 18.3 36.44 17.16 36.44 16.03 36.44 14.89 36.44 13.76 36.44 12.62 36.44 11.49 36.44 10.36 35.3 10.36" fill="#005092" stroke-width="0"/><polygon points="28.5 1.28 28.5 2.41 28.5 3.55 28.5 4.68 28.5 5.82 28.5 6.95 28.5 8.09 28.5 9.22 28.5 10.36 28.5 11.49 28.5 12.62 28.5 13.76 28.5 14.89 28.5 16.03 28.5 17.16 28.5 18.3 28.5 19.43 27.37 19.43 26.23 19.43 25.1 19.43 23.97 19.43 22.83 19.43 21.7 19.43 20.57 19.43 19.43 19.43 18.3 19.43 17.17 19.43 16.03 19.43 14.9 19.43 13.77 19.43 12.63 19.43 11.5 19.43 11.5 18.3 11.5 17.16 11.5 16.03 11.5 14.89 11.5 13.76 11.5 12.62 11.5 11.49 11.5 10.36 11.5 9.22 11.5 8.09 11.5 6.95 11.5 5.82 11.5 4.68 11.5 3.55 11.5 2.41 11.5 1.28 11.5 .14 10.36 .14 10.36 1.28 10.36 2.41 10.36 3.55 10.36 4.68 10.36 5.82 10.36 6.95 10.36 8.09 10.36 9.22 10.36 10.36 10.36 11.49 10.36 12.62 10.36 13.76 10.36 14.89 10.36 16.03 10.36 17.16 10.36 18.3 10.36 19.43 10.36 20.57 10.36 21.7 10.36 22.84 10.36 23.97 10.36 25.1 10.36 26.24 10.36 27.38 10.36 28.51 10.36 29.64 10.36 30.78 10.36 31.91 10.36 33.05 10.36 34.18 10.36 35.32 10.36 36.45 10.36 37.58 10.36 38.72 10.36 39.86 11.5 39.86 11.5 38.72 11.5 37.58 11.5 36.45 11.5 35.32 11.5 34.18 11.5 33.05 11.5 31.91 11.5 30.78 11.5 29.64 11.5 28.51 11.5 27.38 11.5 26.24 11.5 25.1 11.5 23.97 11.5 22.84 11.5 21.7 11.5 20.57 12.63 20.57 13.77 20.57 14.9 20.57 16.03 20.57 17.17 20.57 18.3 20.57 19.43 20.57 20.57 20.57 21.7 20.57 22.83 20.57 23.97 20.57 25.1 20.57 26.23 20.57 27.37 20.57 28.5 20.57 28.5 21.7 28.5 22.84 28.5 23.97 28.5 25.1 28.5 26.24 28.5 27.38 28.5 28.51 28.5 29.64 28.5 30.78 28.5 31.91 28.5 33.05 28.5 34.18 28.5 35.32 28.5 36.45 28.5 37.58 28.5 38.72 28.5 39.86 29.64 39.86 29.64 38.72 29.64 37.58 29.64 36.45 29.64 35.32 29.64 34.18 29.64 33.05 29.64 31.91 29.64 30.78 29.64 29.64 29.64 28.51 29.64 27.38 29.64 26.24 29.64 25.1 29.64 23.97 29.64 22.84 29.64 21.7 29.64 20.57 29.64 19.43 29.64 18.3 29.64 17.16 29.64 16.03 29.64 14.89 29.64 13.76 29.64 12.62 29.64 11.49 29.64 10.36 29.64 9.22 29.64 8.09 29.64 6.95 29.64 5.82 29.64 4.68 29.64 3.55 29.64 2.41 29.64 1.28 29.64 .14 28.5 .14 28.5 1.28" fill="#005092" stroke-width="0"/><polygon points="33.03 8.09 33.03 9.22 33.03 10.36 33.03 11.49 33.03 12.62 33.03 13.76 33.03 14.89 33.03 16.03 33.03 17.16 33.03 18.3 33.03 19.43 33.03 20.57 33.03 21.7 33.03 22.84 33.03 23.97 33.03 25.1 33.03 26.24 33.03 27.38 33.03 28.51 33.03 29.64 33.03 30.78 33.03 31.91 33.03 33.05 34.17 33.05 34.17 31.91 34.17 30.78 34.17 29.64 34.17 28.51 34.17 27.38 34.17 26.24 34.17 25.1 34.17 23.97 34.17 22.84 34.17 21.7 34.17 20.57 34.17 19.43 34.17 18.3 34.17 17.16 34.17 16.03 34.17 14.89 34.17 13.76 34.17 12.62 34.17 11.49 34.17 10.36 34.17 9.22 34.17 8.09 34.17 6.95 33.03 6.95 33.03 8.09" fill="#005092" stroke-width="0"/><polygon points="30.77 4.68 30.77 5.82 30.77 6.95 30.77 8.09 30.77 9.22 30.77 10.36 30.77 11.49 30.77 12.62 30.77 13.76 30.77 14.89 30.77 16.03 30.77 17.16 30.77 18.3 30.77 19.43 30.77 20.57 30.77 21.7 30.77 22.84 30.77 23.97 30.77 25.1 30.77 26.24 30.77 27.38 30.77 28.51 30.77 29.64 30.77 30.78 30.77 31.91 30.77 33.05 30.77 34.18 30.77 35.32 30.77 36.45 31.9 36.45 31.9 35.32 31.9 34.18 31.9 33.05 31.9 31.91 31.9 30.78 31.9 29.64 31.9 28.51 31.9 27.38 31.9 26.24 31.9 25.1 31.9 23.97 31.9 22.84 31.9 21.7 31.9 20.57 31.9 19.43 31.9 18.3 31.9 17.16 31.9 16.03 31.9 14.89 31.9 13.76 31.9 12.62 31.9 11.49 31.9 10.36 31.9 9.22 31.9 8.09 31.9 6.95 31.9 5.82 31.9 4.68 31.9 3.55 30.77 3.55 30.77 4.68" fill="#005092" stroke-width="0"/><polygon points="25.1 21.7 23.97 21.7 22.83 21.7 21.7 21.7 20.57 21.7 19.43 21.7 18.3 21.7 17.17 21.7 16.03 21.7 14.9 21.7 13.77 21.7 12.63 21.7 12.63 22.84 12.63 23.97 12.63 25.1 12.63 26.24 12.63 27.38 12.63 28.51 12.63 29.64 12.63 30.78 12.63 31.91 12.63 33.05 12.63 34.18 12.63 35.32 12.63 36.45 13.77 36.45 13.77 35.32 13.77 34.18 13.77 33.05 13.77 31.91 13.77 30.78 13.77 29.64 13.77 28.51 13.77 27.38 13.77 26.24 13.77 25.1 13.77 23.97 13.77 22.84 14.9 22.84 16.03 22.84 17.17 22.84 18.3 22.84 19.43 22.84 20.57 22.84 21.7 22.84 22.83 22.84 23.97 22.84 25.1 22.84 26.23 22.84 26.23 23.97 26.23 25.1 26.23 26.24 26.23 27.38 26.23 28.51 26.23 29.64 26.23 30.78 26.23 31.91 26.23 33.05 26.23 34.18 26.23 35.32 26.23 36.45 27.37 36.45 27.37 35.32 27.37 34.18 27.37 33.05 27.37 31.91 27.37 30.78 27.37 29.64 27.37 28.51 27.37 27.38 27.37 26.24 27.37 25.1 27.37 23.97 27.37 22.84 27.37 21.7 26.23 21.7 25.1 21.7" fill="#005092" stroke-width="0"/><polygon points="22.83 23.97 21.7 23.97 20.57 23.97 19.43 23.97 18.3 23.97 17.17 23.97 16.03 23.97 14.9 23.97 14.9 25.1 14.9 26.24 14.9 27.38 14.9 28.51 14.9 29.64 14.9 30.78 14.9 31.91 14.9 33.05 16.03 33.05 16.03 31.91 16.03 30.78 16.03 29.64 16.03 28.51 16.03 27.38 16.03 26.24 16.03 25.1 17.17 25.1 18.3 25.1 19.43 25.1 20.57 25.1 21.7 25.1 22.83 25.1 23.97 25.1 23.97 26.24 23.97 27.38 23.97 28.51 23.97 29.64 23.97 30.78 23.97 31.91 23.97 33.05 25.1 33.05 25.1 31.91 25.1 30.78 25.1 29.64 25.1 28.51 25.1 27.38 25.1 26.24 25.1 25.1 25.1 23.97 23.97 23.97 22.83 23.97" fill="#005092" stroke-width="0"/><polygon points="20.57 26.24 19.43 26.24 18.3 26.24 17.17 26.24 17.17 27.38 17.17 28.51 17.17 29.64 18.3 29.64 18.3 28.51 18.3 27.38 19.43 27.38 20.57 27.38 21.7 27.38 21.7 28.51 21.7 29.64 22.83 29.64 22.83 28.51 22.83 27.38 22.83 26.24 21.7 26.24 20.57 26.24" fill="#005092" stroke-width="0"/><polygon points="19.43 13.76 20.57 13.76 21.7 13.76 22.83 13.76 22.83 12.62 22.83 11.49 22.83 10.36 21.7 10.36 21.7 11.49 21.7 12.62 20.57 12.62 19.43 12.62 18.3 12.62 18.3 11.49 18.3 10.36 17.17 10.36 17.17 11.49 17.17 12.62 17.17 13.76 18.3 13.76 19.43 13.76" fill="#005092" stroke-width="0"/><polygon points="17.17 16.03 18.3 16.03 19.43 16.03 20.57 16.03 21.7 16.03 22.83 16.03 23.97 16.03 25.1 16.03 25.1 14.89 25.1 13.76 25.1 12.62 25.1 11.49 25.1 10.36 25.1 9.22 25.1 8.09 25.1 6.95 23.97 6.95 23.97 8.09 23.97 9.22 23.97 10.36 23.97 11.49 23.97 12.62 23.97 13.76 23.97 14.89 22.83 14.89 21.7 14.89 20.57 14.89 19.43 14.89 18.3 14.89 17.17 14.89 16.03 14.89 16.03 13.76 16.03 12.62 16.03 11.49 16.03 10.36 16.03 9.22 16.03 8.09 16.03 6.95 14.9 6.95 14.9 8.09 14.9 9.22 14.9 10.36 14.9 11.49 14.9 12.62 14.9 13.76 14.9 14.89 14.9 16.03 16.03 16.03 17.17 16.03" fill="#005092" stroke-width="0"/><polygon points="14.9 18.3 16.03 18.3 17.17 18.3 18.3 18.3 19.43 18.3 20.57 18.3 21.7 18.3 22.83 18.3 23.97 18.3 25.1 18.3 26.23 18.3 27.37 18.3 27.37 17.16 27.37 16.03 27.37 14.89 27.37 13.76 27.37 12.62 27.37 11.49 27.37 10.36 27.37 9.22 27.37 8.09 27.37 6.95 27.37 5.82 27.37 4.68 27.37 3.55 26.23 3.55 26.23 4.68 26.23 5.82 26.23 6.95 26.23 8.09 26.23 9.22 26.23 10.36 26.23 11.49 26.23 12.62 26.23 13.76 26.23 14.89 26.23 16.03 26.23 17.16 25.1 17.16 23.97 17.16 22.83 17.16 21.7 17.16 20.57 17.16 19.43 17.16 18.3 17.16 17.17 17.16 16.03 17.16 14.9 17.16 13.77 17.16 13.77 16.03 13.77 14.89 13.77 13.76 13.77 12.62 13.77 11.49 13.77 10.36 13.77 9.22 13.77 8.09 13.77 6.95 13.77 5.82 13.77 4.68 13.77 3.55 12.63 3.55 12.63 4.68 12.63 5.82 12.63 6.95 12.63 8.09 12.63 9.22 12.63 10.36 12.63 11.49 12.63 12.62 12.63 13.76 12.63 14.89 12.63 16.03 12.63 17.16 12.63 18.3 13.77 18.3 14.9 18.3" fill="#005092" stroke-width="0"/><polygon points="8.1 4.68 8.1 5.82 8.1 6.95 8.1 8.09 8.1 9.22 8.1 10.36 8.1 11.49 8.1 12.62 8.1 13.76 8.1 14.89 8.1 16.03 8.1 17.16 8.1 18.3 8.1 19.43 8.1 20.57 8.1 21.7 8.1 22.84 8.1 23.97 8.1 25.1 8.1 26.24 8.1 27.38 8.1 28.51 8.1 29.64 8.1 30.78 8.1 31.91 8.1 33.05 8.1 34.18 8.1 35.32 8.1 36.45 9.23 36.45 9.23 35.32 9.23 34.18 9.23 33.05 9.23 31.91 9.23 30.78 9.23 29.64 9.23 28.51 9.23 27.38 9.23 26.24 9.23 25.1 9.23 23.97 9.23 22.84 9.23 21.7 9.23 20.57 9.23 19.43 9.23 18.3 9.23 17.16 9.23 16.03 9.23 14.89 9.23 13.76 9.23 12.62 9.23 11.49 9.23 10.36 9.23 9.22 9.23 8.09 9.23 6.95 9.23 5.82 9.23 4.68 9.23 3.55 8.1 3.55 8.1 4.68" fill="#005092" stroke-width="0"/><polygon points="5.83 8.09 5.83 9.22 5.83 10.36 5.83 11.49 5.83 12.62 5.83 13.76 5.83 14.89 5.83 16.03 5.83 17.16 5.83 18.3 5.83 19.43 5.83 20.57 5.83 21.7 5.83 22.84 5.83 23.97 5.83 25.1 5.83 26.24 5.83 27.38 5.83 28.51 5.83 29.64 5.83 30.78 5.83 31.91 5.83 33.05 6.96 33.05 6.96 31.91 6.96 30.78 6.96 29.64 6.96 28.51 6.96 27.38 6.96 26.24 6.96 25.1 6.96 23.97 6.96 22.84 6.96 21.7 6.96 20.57 6.96 19.43 6.96 18.3 6.96 17.16 6.96 16.03 6.96 14.89 6.96 13.76 6.96 12.62 6.96 11.49 6.96 10.36 6.96 9.22 6.96 8.09 6.96 6.95 5.83 6.95 5.83 8.09" fill="#005092" stroke-width="0"/><polygon points="3.56 11.49 3.56 12.62 3.56 13.76 3.56 14.89 3.56 16.03 3.56 17.16 3.56 18.3 3.56 19.43 3.56 20.57 3.56 21.7 3.56 22.84 3.56 23.97 3.56 25.1 3.56 26.24 3.56 27.38 3.56 28.51 3.56 29.64 4.7 29.64 4.7 28.51 4.7 27.38 4.7 26.24 4.7 25.1 4.7 23.97 4.7 22.84 4.7 21.7 4.7 20.57 4.7 19.43 4.7 18.3 4.7 17.16 4.7 16.03 4.7 14.89 4.7 13.76 4.7 12.62 4.7 11.49 4.7 10.36 3.56 10.36 3.56 11.49" fill="#005092" stroke-width="0"/></svg>