<svg xmlns="http://www.w3.org/2000/svg" viewBox="0 0 40 40">
  <g fill="#005092">
    <path d="M35.3 10.36V29.64h1.14V10.36H35.3zM28.5 1.28V19.43H11.5V.14h-1.14v39.72h1.14V20.57H28.5v19.29h1.14V.14H28.5v1.14zM33.03 8.09V33.05h1.14V6.95h-1.14v1.14zM30.77 4.68V36.45h1.13V3.55h-1.13v1.13z"/>
    <path d="M25.1 21.7H12.63V36.45h1.14V22.84H26.23v13.61h1.14V21.7H25.1z"/>
    <path d="M22.83 23.97H14.9V33.05h1.13V25.1H23.97V33.05h1.13V23.97H22.83z"/>
    <path d="M20.57 26.24H17.17V29.64h1.13v-2.26H21.7v2.26h1.13V26.24h-2.26zM19.43 13.76H22.83V10.36H21.7v2.26H18.3v-2.26h-1.13V13.76h2.26z"/>
    <path d="M17.17 16.03H25.1V6.95h-1.13V14.89H16.03V6.95H14.9V16.03H17.17z"/>
    <path d="M14.9 18.3H27.37V3.55h-1.14v13.61H13.77V3.55h-1.14V18.3H14.9zM8.1 4.68V36.45h1.13V3.55H8.1v1.13zM5.83 8.09V33.05h1.13V6.95H5.83v1.14zM3.56 11.49V29.64H4.7V10.36H3.56v1.13z"/>
  </g>
</svg>
