<svg xmlns="http://www.w3.org/2000/svg" viewBox="0 0 42.77 42.77">
  <path d="M21.38 41.19c-.76 0-1.53-.29-2.11-.87l-4.05-4.05H9.49a2.98 2.98 0 0 1-2.98-2.98v-5.73L2.45 23.5a3 3 0 0 1 0-4.22l4.05-4.05V9.5a2.98 2.98 0 0 1 2.98-2.98h5.73l4.05-4.05a3 3 0 0 1 4.22 0l4.05 4.05h5.73a2.98 2.98 0 0 1 2.98 2.98v5.73l4.05 4.05a3 3 0 0 1 0 4.22l-4.05 4.05v5.73a2.98 2.98 0 0 1-2.98 2.98h-5.71l-4.05 4.05c-.59.59-1.35.88-2.12.88Z" fill="#f8ae00"/>
  <path d="m41.45 19.41-4.48-4.48V8.59a2.8 2.8 0 0 0-2.79-2.79h-6.34l-4.48-4.48a2.8 2.8 0 0 0-3.95 0L14.93 5.8H8.59A2.8 2.8 0 0 0 5.8 8.59v6.34l-4.48 4.48a2.8 2.8 0 0 0 0 3.95l4.48 4.48v6.34a2.8 2.8 0 0 0 2.79 2.79h6.34l4.48 4.48a2.8 2.8 0 0 0 3.95 0l4.48-4.48h6.34a2.8 2.8 0 0 0 2.79-2.79v-6.34l4.48-4.48a2.8 2.8 0 0 0 0-3.95Zm-1.86 3.36-4.35 4.35v6.16c0 1.08-.88 1.96-1.96 1.96h-6.16l-4.35 4.35c-.77.77-2.01.77-2.77 0l-4.35-4.35H9.49a1.96 1.96 0 0 1-1.96-1.96v-6.16l-4.35-4.35a1.95 1.95 0 0 1 0-2.77l4.35-4.35V9.49c0-1.08.88-1.96 1.96-1.96h6.16L20 3.18a1.95 1.95 0 0 1 2.77 0l4.35 4.35h6.16c1.08 0 1.96.88 1.96 1.96v6.16L39.59 20c.77.77.77 2.01 0 2.77Z" fill="none" stroke="#008669" stroke-miterlimit="10"/>
  <path d="M19.95 5.51 5.51 19.95a2.05 2.05 0 0 0 0 2.88l3.55 3.55a15.76 15.76 0 0 1 5.49-4.24c5.5-2.58 8.83-.24 12.24-4.26a6.58 6.58 0 0 0 1.06-6.79 4.7 4.7 0 0 0-1.04-1.6l-3.98-3.98a2.05 2.05 0 0 0-2.88 0Z" fill="#008669"/>
  <path d="m22.82 37.26 14.44-14.44c.79-.79.79-2.08 0-2.88l-3.55-3.55a15.76 15.76 0 0 1-5.49 4.24c-5.5 2.58-8.83.24-12.24 4.26a6.58 6.58 0 0 0-1.06 6.79c.23.6.59 1.14 1.04 1.6l3.98 3.98c.8.79 2.09.79 2.88 0Z" fill="#008669"/>
  <path d="m41.45 19.41-4.48-4.48V8.59a2.8 2.8 0 0 0-2.79-2.79h-6.34l-4.48-4.48a2.8 2.8 0 0 0-3.95 0L14.93 5.8H8.59A2.8 2.8 0 0 0 5.8 8.59v6.34l-4.48 4.48a2.8 2.8 0 0 0 0 3.95l4.48 4.48v6.34a2.8 2.8 0 0 0 2.79 2.79h6.34l4.48 4.48a2.8 2.8 0 0 0 3.95 0l4.48-4.48h6.34a2.8 2.8 0 0 0 2.79-2.79v-6.34l4.48-4.48a2.8 2.8 0 0 0 0-3.95Zm-1.86 3.36-4.35 4.35v6.16c0 1.08-.88 1.96-1.96 1.96h-6.16l-4.35 4.35c-.77.77-2.01.77-2.77 0l-4.35-4.35H9.49a1.96 1.96 0 0 1-1.96-1.96v-6.16l-4.35-4.35a1.95 1.95 0 0 1 0-2.77l4.35-4.35V9.49c0-1.08.88-1.96 1.96-1.96h6.16L20 3.18a1.95 1.95 0 0 1 2.77 0l4.35 4.35h6.16c1.08 0 1.96.88 1.96 1.96v6.16L39.59 20c.77.77.77 2.01 0 2.77Z" fill="#008669"/>
</svg>
