<svg xmlns="http://www.w3.org/2000/svg" viewBox="0 0 75.2 74.3"><path fill="#008060" fill-rule="evenodd" d="M12.6 12.4H25L37.6 0l12.6 12.4h12.5v12.3l12.5 12.4-12.5 12.5v12.2H50.2L37.6 74.3 25 61.8H12.6V49.6L0 37.1l12.6-12.4V12.4z"/><path fill="#fcaf17" fill-rule="evenodd" d="m2.2 37.1 13.5-13.3v-8.3h8.4L37.6 2.2l13.5 13.3h8.4v8.3L73 37.1 59.5 50.5v8.3h-8.4L37.6 72 24.1 58.7h-8.4v-8.3L2.2 37.1Zm13.5 9a28.6 28.6 0 0 1 22-10.2c6.7 0 12.3-5.5 12.3-12.2 0-3.1-1.3-6-3.3-8.2l-9-9-9.1 9-12.9 12.7-9 9 9 8.9Zm43.8-18a28.6 28.6 0 0 1-21.9 10.3 12.2 12.2 0 0 0-9.1 20.4l9.1 9 9-9 13-12.8 9-9-9-9Z"/></svg>
