<svg xmlns="http://www.w3.org/2000/svg" width="40" height="40" fill="none"><path fill="#2E56A6" d="M9.88 12.33c.15.93.4 1.85.74 2.73a16 16 0 0 1 3.8-.64c.4-4.17 1.56-7.58 5.58-10.88.78.64 1.5 1.34 2.15 2.1.92-.4 1.87-.74 2.84-.99A21.42 21.42 0 0 0 20 0c-4.12 3-7.25 6.51-8.14 11.86-.67.11-1.33.27-1.98.47Zm2.45 17.79c.93-.15 1.85-.4 2.73-.74a16 16 0 0 1-.64-3.8c-4.17-.39-7.59-1.56-10.88-5.58.64-.78 1.34-1.5 2.1-2.15A18 18 0 0 1 4.66 15 21.41 21.41 0 0 0 0 20c3 4.11 6.5 7.25 11.86 8.14.11.67.27 1.33.47 1.98Zm15.82-18.26c-.12-.67-.27-1.33-.47-1.98-.94.15-1.86.4-2.74.74.37 1.23.58 2.51.64 3.8 4.18.4 7.59 1.56 10.88 5.58a16.9 16.9 0 0 1-2.1 2.15c.4.92.74 1.86.99 2.83 1.8-1.4 3.38-3.08 4.65-4.98-3-4.13-6.5-7.25-11.85-8.14Zm1.97 15.81c-.14-.93-.4-1.85-.74-2.73a15.9 15.9 0 0 1-3.8.64c-.38 4.17-1.56 7.59-5.58 10.88-.77-.64-1.5-1.34-2.15-2.1-.91.4-1.86.74-2.83.99A21.4 21.4 0 0 0 20 40c4.14-3 7.26-6.52 8.15-11.86.66-.11 1.32-.27 1.97-.47Z"/><path fill="#2E56A6" d="M18.28 7.42c-.56.76-1.04 1.59-1.42 2.45A15.9 15.9 0 0 1 20 12.11c3.23-2.68 6.47-4.26 11.64-3.75.1 1 .11 2 .04 3 .93.37 1.84.8 2.7 1.31.29-2.27.2-4.57-.24-6.81-5.06-.8-9.73-.53-14.14 2.62-.55-.39-1.13-.74-1.72-1.06ZM7.42 21.72a13 13 0 0 0 2.46 1.42A15.88 15.88 0 0 1 12.1 20c-2.67-3.22-4.26-6.46-3.75-11.64 1-.1 2.01-.11 3.01-.04.36-.93.8-1.84 1.3-2.7a21.5 21.5 0 0 0-6.81.24c-.8 5.08-.5 9.75 2.63 14.14-.4.55-.75 1.13-1.07 1.73Zm25.16-3.45a13.06 13.06 0 0 0-2.45-1.41A15.84 15.84 0 0 1 27.89 20c2.67 3.22 4.27 6.46 3.75 11.64-1 .1-2 .11-3 .03-.36.94-.8 1.84-1.31 2.7 2.27.3 4.57.21 6.81-.23.8-5.03.53-9.72-2.62-14.14.4-.55.75-1.13 1.06-1.73ZM21.73 32.58a13 13 0 0 0 1.42-2.45A16.01 16.01 0 0 1 20 27.88c-3.23 2.68-6.47 4.26-11.63 3.75-.1-1-.12-2-.04-3-.94-.37-1.84-.8-2.7-1.31-.29 2.27-.21 4.57.23 6.81 5.03.8 9.72.53 14.14-2.62.56.39 1.13.74 1.73 1.06Z"/></svg>