<svg xmlns="http://www.w3.org/2000/svg" viewBox="0 0 408 408">
  <path d="m198.7 1.6-10.6.8a196.3 196.3 0 0 0-77.8 22.1c-11.6 6-27.5 16.3-34.5 22.3a268.2 268.2 0 0 0-28.2 27.7 244.3 244.3 0 0 0-31.1 50.8 181 181 0 0 0-6.5 17.9c0 .3 3.3.5 7.3.2a2121 2121 0 0 0 30.7-1.9l31-2.1 13-.9c9.2-.9 41-1.9 63.5-1.9 50.8 0 67.2 2.4 88.5 12.6a72.9 72.9 0 0 1 38.8 42.1c11.7 35.5-6.3 71.5-43 86.3l-7.8 3.1 11.2 3.3a121 121 0 0 1 28.4 11.3 85.4 85.4 0 0 1 35.5 45.7c1.9 6.2 2.3 9.9 2.3 21.7.1 7.9.4 14.3.9 14.3.7 0 10.2-6 13.7-8.7A204.2 204.2 0 0 0 404.6 176l-2.1-11-1.9-9.5A203.6 203.6 0 0 0 207.2 1.7l-8.5-.1Zm-86.3 63.3a29.1 29.1 0 0 1 16.9 26.6c0 8.4-2.3 14.5-7.9 20.2-6.5 6.7-11.5 8.8-21.4 8.8-7.6 0-9.1-.3-13.9-3A29.5 29.5 0 0 1 91 63.7a32.7 32.7 0 0 1 21.4 1.2Z" fill="#225a7f"/>
  <path d="M144.9 148.4c-.2.2-2.9.6-5.9 1-5.4.6-8.9 1.1-14.1 2.2-1.5.3-2.9 1.3-3.1 2.2-.3 1.4-.2 118.5.1 124.7.1 1.4.9 2.1 2.4 2.3 15.1 1.4 21.2 1.8 28.6 1.6 36.4-.7 59.2-9.2 72.7-26.9 5.6-7.4 11.3-17.9 14-26a66.8 66.8 0 0 0-5.7-52.6 57.7 57.7 0 0 0-20.1-18.1c-8-3.8-21.8-7.8-32.8-9.5-3.7-.6-35.6-1.4-36.1-.9ZM6.6 154.9c-.3.5-1.8 7.2-3.2 14.7a243.6 243.6 0 0 0-1.9 56.9l1 7.5a176.6 176.6 0 0 0 2.9 16 202.6 202.6 0 0 0 69.2 111.7l3 2.2V261a5612 5612 0 0 0-.6-103.3c-1.7-1.7-69.5-4.4-70.4-2.8ZM130.5 294.7l-6 .8-3 .5.2 46.7c0 25.8.2 47.1.2 47.5.3 2.2 31.8 12.3 44.6 14.3l9.5 1.6c4.2.7 16.1 1.3 27 1.3 21 0 35.8-1.7 49.8-5.7 7.2-2.1 7.6-2.4 8.9-6.2a78 78 0 0 0-.3-48.3c-7.1-24.5-20.9-38-48.2-47.2-14.6-4.9-25.4-6-54.3-5.8-14 .1-26.7.4-28.4.5Z" fill="#225a7f"/>
</svg>
