<svg xmlns="http://www.w3.org/2000/svg" width="40" height="40" fill="none"><path fill="#173A79" d="M28.11 27.6a5.64 5.64 0 0 1-3.18-2.8 6 6 0 0 1-3.91 2.87 5.76 5.76 0 0 1-2.41-.04c-.85 1.3-2 2.4-3.33 3.22A9.88 9.88 0 0 0 28.1 27.6Zm4.76-14.87-.39-.09 1.93-2.26L31.16 7l-6.58 6.7c-.38.45-1.14 1.29-2.67 2.92a9.05 9.05 0 0 0-1.76 5.63c0 1.77.47 3.43 1.29 4.87a5.32 5.32 0 0 0 3.22-2.78l.06-.11a5.72 5.72 0 1 1 3.82 3.52 10.37 10.37 0 0 1-3.3 3.16 9.94 9.94 0 1 0 7.63-18.18Zm-14.72 14.8a5.73 5.73 0 0 1-3.26-2.71 5.78 5.78 0 0 1-3.75 2.75l-.09.02a5.72 5.72 0 1 1 .1-11.17 11.4 11.4 0 0 1 1.93-2.13l.05-.04c.44-.38.9-.72 1.4-1.03a9.92 9.92 0 1 0-4.6 18.7c1.58 0 3.1-.34 4.49-1.08l.12-.06.3-.17a9.91 9.91 0 0 0 3.31-3.08Zm-4.42-13.24a9.78 9.78 0 0 0-3.76 7.77c0 1.84.5 3.55 1.37 5.03a5.33 5.33 0 0 0 3.32-2.73 5.7 5.7 0 0 1 5.23-8c.39 0 1.24.1 1.54.15 1.02-1.08 2.53-2.72 2.99-3.26a9.91 9.91 0 0 0-9-.04l.03.02-.34.18c-.48.26-.95.55-1.38.88Z"/></svg>