<svg xmlns="http://www.w3.org/2000/svg" viewBox="0 0 165.6 165.6">
  <path d="M82 43.2h.8v59.1c-.1 7.8 8.6 11.4 14.4 7l11.5-9.3c3.9-3.2 6.6-7.6 7.7-12.7l1.8-8.2c3.4-1.3 5.8-3.7 6.2-8.5.2-2.7-.2-5.5-.8-8a42 42 0 0 0-5-12.4c-2.7 2.1-4.4 5-5.4 8.4-1.1 3.6-1 6-.2 9.5 1 4.2 2.1 7.5 3.6 10l-1.8 9c-1 4.6-3.7 8.5-7.3 11.4l-11.4 9.3c-1.9 1.7-11.3 3.5-11.2-5.5 0-29.6.2-1.5.2-31.1l6.1-9c5.5 1.6 9.9 1 12.9-3a17 17 0 0 0 3-7c.4-2.8.1-6.4-1.2-11.4-3.7.2-7.3 1-10.8 2.7-4.8 2.4-6.5 4.7-6.5 10.4 0 2.4.4 4.8 1.4 7.2l-5.1 6.3c-.3-8 .2-16.5 0-24.6 1.8-.5 2.6-1.6 3.7-3.4 2.1-3.5 1.7-6.5-.8-9.6-1.6-2-3.8-4.2-5.8-5.6-2 1.4-4.2 3.6-5.8 5.6-2.5 3-3 6.1-.8 9.6 1 1.8 1.9 3 3.7 3.4-.3 8.1.3 16.5 0 24.6l-5-6.3c.8-2.4 1.3-4.8 1.3-7.2 0-5.7-1.8-8-6.5-10.4A26 26 0 0 0 58 40.8c-1.3 5-1.6 8.6-1.3 11.3a17 17 0 0 0 3.1 7.1c3 4 7.4 4.6 12.8 3l6.1 9c0 29.6.3 1.5.3 31 0 9-9.4 7.3-11.2 5.6l-11.5-9.3c-3.5-2.9-6.2-6.8-7.2-11.5l-1.8-8.9c1.5-2.5 2.6-5.8 3.6-10 .8-3.6.9-5.9-.2-9.5-1-3.4-2.7-6.3-5.4-8.4a42 42 0 0 0-5 12.3c-.6 2.6-1 5.4-.8 8 .4 4.8 2.8 7.3 6.2 8.6l1.7 8.2c1.1 5.1 3.9 9.5 7.7 12.7l11.5 9.2c5.9 4.6 14.6.9 14.5-6.9 0-.2 0 0 0 0v-59h.8Zm1-34c6.5 0 12.8.7 18.9 2C97.3 5 91.9 1.2 86.3 0L82.8 0h-2.7c-5.6 1.1-10.8 5-15.4 11 5.9-1.2 12-1.8 18.3-1.8Zm20.2 2.2A88.9 88.9 0 0 1 131 22.8 64.7 64.7 0 0 0 86.6.1c6 1 11.7 5 16.6 11.3Zm31.3 13.7a75.8 75.8 0 0 1 27.4 34A85.1 85.1 0 0 0 100.5 2a69.5 69.5 0 0 1 34 23.1Zm29.7 73.2a69.2 69.2 0 0 1-26 36.4 91.4 91.4 0 0 0 16-51.3h11.4c0 5.1-.5 10.1-1.4 15Zm1.4-16.3H154c0-20.7-6.6-39.6-17.5-54.1a74 74 0 0 1 26 33.9 78.6 78.6 0 0 1 3 20.2Zm-1.7 17.8a71.2 71.2 0 0 1-27.7 37.8 69 69 0 0 1-40 26.4 80.1 80.1 0 0 0 67.7-64.2ZM93.5 164a67 67 0 0 0 40.3-24.8 89.2 89.2 0 0 1-29.1 12.4c-4 5.5-8.4 9.5-13.1 11.7.6.3 1.2.6 1.9.7Zm-2.1-.8c4.3-2.2 8.3-6 12-11.3a95.8 95.8 0 0 1-16.6 2c.3 3.6 1.6 7.5 4.6 9.3Zm-4.7-10.9c6.2-.2 12.1-1 17.8-2.3 4.4-7 8-15.9 10.7-26.3l2-.4a91.8 91.8 0 0 1-11.2 26.4 89.9 89.9 0 0 0 30-13.3 91 91 0 0 0 16.9-53h-11.2V82h11.2c-.1-21.6-7.6-41.6-19.6-56.4A89 89 0 0 0 104.5 13a86 86 0 0 1 12.2 26.8l-2-.4c-2.9-10.8-6.9-20-11.6-26.7a93.3 93.3 0 0 0-39.6-.2c-4.8 6.8-8.8 16-11.7 26.7l-2 .4c3.1-10.8 7.3-20 12.3-26.8a89.5 89.5 0 0 0-27.9 11.6A90.7 90.7 0 0 0 13.7 82H21v1.4h-7.4a90.8 90.8 0 0 0 17 53.5 90 90 0 0 0 29.9 13c-4.6-7-8.5-16-11.3-26.4l2 .4A93.4 93.4 0 0 0 62 150c5 1.1 10 1.8 15.2 2.1V127.4a12 12 0 0 0-3.3-7.2h-.2l-.2-.2-21.2-17-13.3 5.6c0 5.2-1 7.9-2.7 8.6-1.2.4-2.5-.1-3.6-.5-2.5-1-5-2.6-7.2-5 0-5.3 1.7-9.3 5.8-11.3 2-.4 4.2 1 7 5.7l12-5L36 83.8c-4 4.6-7 3.4-9.3-2.7a32.4 32.4 0 0 1-1.3-16.4c2.5-1 4.7-1.3 6.6-.6 1.8.5 2.7 1 3.7 2.6 1.8 2.7 1.9 7.7 1 14.7l14.5 17.4c.8 1 1.2 1.5 2.2 2.4l21.4 17.3c2.6 2 4.4 6.9 4.4 8.8v25.4c0 2-.8 10-6.2 11.8a62 62 0 0 0 19.9.4c-6.4-.4-8-8-8-12.3V127.4c0-1.8 1.8-6.9 4.5-8.8l21.4-17.3c1-.9 1.4-1.4 2.1-2.4l14.5-17.4c-.8-7-.7-12 1-14.7 1.1-1.6 2-2 3.7-2.6 2-.6 4.2-.3 6.7.6 1 6.6.3 12-1.4 16.4-2.3 6.1-5.3 7.3-9.2 2.7L113.6 101l12 5.1c2.8-4.6 5.1-6.1 7.1-5.7 4.1 2 5.7 6 5.8 11.3-2.3 2.4-4.7 4-7.2 5-1 .4-2.4 1-3.6.5-1.7-.7-2.7-3.4-2.7-8.6l-13.3-5.6-21.2 17-.2.1-.2.1c-2 1.7-3.4 5.6-3.4 7.2v24.9Zm-9.5 1.6c-4.8-.3-9.4-1-14-1.9 3.3 4.7 6.8 8.3 10.6 10.5 2.2-2 3.2-5.5 3.4-8.6Zm-3.6 8.8a36 36 0 0 1-11.7-11 89.7 89.7 0 0 1-29-12 67.2 67.2 0 0 0 38.9 24c.7-.2 1.3-.6 1.8-1Zm-3 1.4A68.8 68.8 0 0 1 31 138.4 70.6 70.6 0 0 1 1 96a80.2 80.2 0 0 0 67.8 68.2l1.9-.1ZM2 65.4A73.4 73.4 0 0 1 30.5 27a90.9 90.9 0 0 0-18.2 55H.1v1.4h12.2c.2 19.8 6.3 38 16.4 52.1A68.7 68.7 0 0 1 1 94.9 77.5 77.5 0 0 1 2 65.4Zm.6-2.4c5-15.4 15.7-29 30-38.7a68.6 68.6 0 0 1 36-23c-32.2 6-58 31.2-66 61.7Zm34-41.2a89 89 0 0 1 26.8-10.5C68.3 5.1 73.9 1.2 79.9.1a64.1 64.1 0 0 0-43.3 21.7Z" fill="#008dd2" fill-rule="evenodd"/>
</svg>
