<svg xmlns="http://www.w3.org/2000/svg" width="40" height="40" fill="none"><path fill="#B91C6B" d="M5.9 5.8 10 9.9c2.7-2.6 6.3-4.2 10.1-4.2s7.4 1.5 10.1 4.2l4.1-4.1C30.5 2.1 25.3 0 20.1 0 14.8 0 9.7 2.1 5.9 5.8Z"/><path fill="#106E53" d="M15.3 27.1c1.4.9 3.1 1.4 4.7 1.4 2.3 0 4.4-.9 6.1-2.5 1.6-1.6 2.5-3.8 2.5-6 0-1.7-.5-3.4-1.4-4.8-.9-1.4-2.3-2.5-3.8-3.1a8.54 8.54 0 0 0-9.3 1.8 8.33 8.33 0 0 0-2.4 4.4c-.3 1.6-.2 3.4.5 4.9.6 1.6 1.6 2.9 3.1 3.9Z"/><path fill="#106E53" d="M33.2 25.5c-.7 1.7-1.7 3.4-3.1 4.7-1.3 1.3-2.9 2.3-4.6 3-1.7.7-3.6 1.1-5.4 1.1-1.8 0-3.7-.4-5.4-1.1-1.7-.7-3.3-1.7-4.6-3-1.3-1.3-2.4-3-3.1-4.7-.7-1.7-1.2-3.6-1.2-5.5H0c0 5.3 2.2 10.4 5.8 14.1a20.06 20.06 0 0 0 28.4 0C38 30.3 40 25.3 40 20h-5.7c.1 1.8-.4 3.8-1.1 5.5Z"/></svg>