<svg xmlns="http://www.w3.org/2000/svg" viewBox="0 0 20 26.3" width="20" height="26.3">
    <path fill="#234a98" fill-rule="evenodd" d="M0 8.88A2.58 2.58 0 0 1 2.59 6.3h2.77a2.87 2.87 0 0 0 .23.7c0 .07.07.14.11.2.8 1.37 2.71 2 4.8 1.68a6.43 6.43 0 0 0 1.23-.27 8.38 8.38 0 0 0 1.16-.45h.06c.23-.11.44-.2.62-.31a7 7 0 0 0 1.84-1.55h2A2.61 2.61 0 0 1 20 8.9v14.81a2.59 2.59 0 0 1-2.59 2.59H2.61A2.62 2.62 0 0 1 0 23.71ZM7 19.3v-8.72a.3.3 0 0 1 .32-.28h4.42a.3.3 0 0 1 .31.28l.05 8.72h2.66c.16 0 .29.21.29.44v1.11c0 .26-.13.45-.29.45H5.29c-.16 0-.29-.22-.29-.45v-1.11c0-.26.13-.44.29-.44Z"/>
    <path fill="#9b3589" fill-rule="evenodd" d="M8.38.63c2.22-1.07 4.7-.75 5.54.73s-.25 3.49-2.46 4.56-4.68.75-5.54-.73S6.17 1.7 8.38.63Zm6.69 3.24a4.53 4.53 0 0 1-2.71 3.2 5.59 5.59 0 0 1-3.82.48 6.08 6.08 0 0 0 1-.07 5.35 5.35 0 0 0 1.22-.27 7.4 7.4 0 0 0 1.15-.45h.07c.21-.09.41-.2.61-.31a6.69 6.69 0 0 0 2.48-2.58ZM8.7 1c1.72-.78 3.68-.53 4.3.61a1.93 1.93 0 0 1 .23.77 1.13 1.13 0 0 0-.12-.21c-.64-1.17-2.58-1.4-4.3-.56a3.29 3.29 0 0 0-2.14 2.81C6.21 3.28 7.07 1.83 8.7 1Z"/>
</svg>