<svg xmlns="http://www.w3.org/2000/svg" viewBox="0 0 700 700">
  <path d="M0 350v350h121l121-1a209 209 0 0 0-17-39c0-2 40-16 50-17l4-1 3 7 6 10 2 3-2 3-11 12-15 16-7 7h97c77 0 96 0 95-1l-5-7c-5-6-8-13-9-18l-3-11c-2-7-2-7-1-10l5-2 2-1c0-2 4-1 10 1l10 2c5 1 8 2 11 5s4 6 5 19l2 18 1 5h23v-6l-2-11c-1-6-2-23-1-27s8-8 22-11l13-3 4 24c0 11-1 15-7 25l-6 9a485 485 0 0 0 42-2c-3 0-5-2-6-3l-2-14-2-21v-11c1-3 5-6 10-10l20-8 1 23c0 21 0 23 3 34l3 12h110v-52h-6l-14-4c-11-3-15-7-20-23l-4-16c-1-3-1-3 1-3l7 2 7 1c4 0 10 3 11 5 1 5 7 16 12 23l6 8V541l-3-3c-6-5-46-24-78-38l-7-3-5 8c-7 9-11 12-15 12l-14-9c-21-14-26-16-47-20-8-2-10-4-10-8l-2-10c-3-10-3-11 5-16 9-6 14-14 14-22 0-4 2-5 7-3l7 2c8 0 12-13 7-23-2-4-3-4-22-10-9-2-11-3-28-3-19 0-23 1-36 5-10 3-13 5-14 8-2 5-2 9-1 16 3 9 8 10 19 4l5-3v7c0 7 1 8 4 13l9 9 6 5-1 12-2 7c-1 8-3 10-13 12-15 4-39 12-51 18-14 7-17 8-22 2l-6-7c-1-2-2-3-7-4h-9a665 665 0 0 0-100 49c-2 0-3-3-4-12l-2-8 16-10 75-38 9-4v-5l-2-8-1-3h-12c-24 1-52 9-85 24l-11 4-3-17c0-3 2-4 14-10 20-9 38-15 50-18l48-6-3-13c-4-6-12-17-24-30-9-10-12-13-15-20l-7-21 2-3c2-1 4-1 9 1l8 3-2-9-3-15-2-15c-2-9-1-25 1-37l1-8c0-2-9-6-20-11-5-2-6-3-10-9-19-30-20-39-7-72 5-13 9-18 22-25 12-8 14-8 28-8 14 1 22 3 32 7 25 12 36 22 41 38l3 6 15 1c19 1 33 4 51 12l5 2 4-3c13-9 38-16 56-16 10 0 10 0 12-9 2-16 12-30 24-36 8-4 29-8 38-7s19 5 25 10c9 6 25 26 30 37 2 5 2 7 3 20l-1 25-2 14c0 6-4 14-8 18l-16 9c-1 1-2 2-3 11l-4 22a279 279 0 0 0-6 33l-2 6-1 3 7-4c13-7 14-6 10 8-3 11-6 17-12 25-6 7-8 10-11 20-2 6-9 19-14 25l-10 8c-5 3-7 7-7 7l2 4c1 1 3 2 12 2a211 211 0 0 1 67 17V283l-1-176-6 5c-8 7-12 8-19 8s-15-2-27-8-26-10-37-11c-7 0-8 0-13 2l-17 14c-18 17-19 17-38 22l-33 10-8 3c-3-1-4-4-5-23l-2-14-11-3-13-4c-3-1-3-1-5 5-3 9-13 30-16 30-6 0-73-39-82-48l-2-3-6 5-46 30-14 8-6 9c-9 13-13 19-15 19l-27-11a191 191 0 0 1 46-62c9-9 11-10 19-13l15-7c11-5 20-8 33-11l11-2 7 6c8 8 22 19 37 30l12 8 2-5 6-19 5-13 12 5 18 7q6 1 14-3l13-7c3-2 11-4 18-5l13-4 1 2-4 14c-5 11-5 11-5 22v11l4-1 7-2c10-5 13-12 22-47 1-4 1-4 4-4l11 2h9l-1 13c0 14 0 14 2 15 4 2 11-1 28-16l11-9 11 5a492 492 0 0 1 66 37l2 1V0H0v350Zm273-179-2 15-3 27v13l7 14c8 19 8 21 4 26l-9 6-8 5-18 15-21 19-4 5-3-21-3-23c0-3 0-4 4-6 6-3 23-16 24-17l-2-18c-3-12-3-18-3-28 1-12 1-13 4-19 5-11 10-14 24-14l9 1Zm13 137c2 2 2 4 0 10l-1 9c0 5-2 7-7 10a481 481 0 0 0-53 40c-3 4-6 6-6 5l-3-11c-3-12-3-34-1-42 2-6 5-9 16-13 20-8 51-13 55-8Zm-4 72-3 16-3 10-8 4c-14 8-20 13-30 23a649 649 0 0 0-39 43l-2-17-3-21-1-13v-8l21-14c12-8 23-15 27-16l40-13v6Zm-45 98-3 22c-1 10 0 13 1 20l5 21 2 13-5 10c-5 10-15 24-19 26-2 1-2 1-2-2l-4-10a307 307 0 0 0-7-27l-4-62c1-1 37-21 38-20l-2 9Zm307 36c13 2 27 7 35 11l5 3v8c0 11-2 21-6 31-3 7-9 18-11 18l-6-6-18-15-1 6c0 7-3 20-4 22l-11 2c-8 0-9 0-13-2-5-3-11-9-13-13l-2-3-2 5c-1 7-4 12-8 14-6 4-21 2-23-2-3-4-5-17-5-28l-1-10-10 8-10 8c-1 0-8-7-10-11l-6-15-3-11 3-2c9-7 31-16 47-19 14-2 16-2 40-2 16 1 24 1 33 3Zm-285 65c4 5 11 17 11 20l-10 10c-16 16-22 22-24 27l-8 9-2-16c-2-13-2-16-4-20-4-8-4-10 3-13l11-8 17-14 6 5Zm67-2c11 6 14 12 12 25 0 8 1 16 9 40l3 12-21-12c-16-9-16-8-18-18-5-24-5-40 3-47 3-4 5-4 12 0Zm59 22c10 5 17 15 20 29 3 13 2 21-5 37l-5 9-3-6-6-15c-3-11-5-15-11-24l-5-7 1-4a117 117 0 0 0 4-21c1-2 5-1 10 1Zm238 25 12 4 3 2c2 2 2 3 2 11a98 98 0 0 0 15 49c0 2-6 4-11 4-13 0-17-3-25-16-5-10-8-16-10-24-3-13-2-34 2-34l12 4Z" fill="#ff6200"/>
  <path d="M628 170c-9 3-14 8-21 21l-3 12v6l4 1c12 4 25 12 37 25l8 8 4-1c13-3 17-13 17-38 0-14-1-20-8-26-5-4-6-5-17-8-8-2-14-2-21 0ZM359 174c-15 6-23 12-27 20-3 6-2 17 1 24 7 13 24 31 28 30l9-8c6-8 21-21 33-28 3-3 6-5 6-7 1-3-2-12-6-16-2-4-5-6-14-10-14-8-20-8-30-5ZM528 230c0 4 4 8 10 12l7 4c3 0 4 4 5 11v6h14c14 0 14 0 20-3 11-6 12-10 7-15-4-3-17-8-24-9l-18-4c-14-3-21-4-21-2ZM470 233l-7 3a73 73 0 0 0-32 25l-1 2c0 2 1 2 5 2l15 1 12 1c3-1 17-18 20-23l1-7 1-4-5-1-9 1ZM386 290l-9 1c-1 2 3 7 16 20l20 18c6 2 6 2 17 1h12c1 1 0 32-1 37-2 7-4 9-13 12-16 7-25 18-25 31 0 5 0 7 2 10 3 4 5 4 13-1l11-6c4-2 5-3 7-10 3-7 3-7 17-15 4-3 5-4 5-8a1397 1397 0 0 1 8-79c0-3-6-9-10-11l-33-1-37 1ZM555 291c-5 2-12 8-12 10a630 630 0 0 1 8 72c-1 4-1 4 5 8 9 5 11 7 15 16l5 8 12 7 17 10c5 3 5 3 7 2l8-16 3-3v-1c-2-2-26-17-30-18l-9-10c-5-8-7-10-12-12-6-2-5-1-7-22l-1-17v-7l4 4c4 4 10 6 20 6 12 0 21-5 25-14 1-3 3-4 8-7 6-3 17-14 15-15-1-1-16-2-48-2-27-1-31-1-34 1ZM569 452l-2 6c0 4-1 4 8 5l12 5 11 5c3 0 3 0 4-5 2-12 3-11-5-14-9-3-26-4-28-2ZM423 455c-8 0-15 2-15 3 0 3 4 14 6 15l28-14c2-2 2-2-1-3s-13-2-18-1ZM624 471c0 10 0 11 2 12a314 314 0 0 1 23 10 816 816 0 0 1 51 26 248 248 0 0 0-2-39 314 314 0 0 0-72-20c-2 0-2 1-2 11Z" fill="#ff6200"/>
</svg>
