<svg xmlns="http://www.w3.org/2000/svg" width="40" height="40" fill="none"><path fill="#fff" d="m5.44 14.8.2-1.43.28-1.34.47-.67.29-1.43.57-1.15.76-.29 1.24-.1s2 .3 2.29.3c.28 0 2.55.1 2.55.1l1.8-.3.96.58.47 1.72 1.15 2.4s.28 1.14.48 1.43c.18.28 1.14 4 1.42 4.19.29.19 3.32 1.81 3.32 1.81l2.57-.48.38-1.53 1.24-.47 1.9 1.24s1.9 4.88 2.1 5.17c.18.28.27 3.13.27 3.13v1.63l1.33 1.43s-.66-.94.29 0c1.43 1.44 11.31-7.34-.1-16.6l-1.6-.1-1.67.02-1.54-.9-.3-.51-.03-1.65 1.63-.36.72-.23.6.17 1.4 1.62.95 1.16.99.9 3.69 4.55 1.08 3.1-.77 5.38-2.77 3.79-4.45 1.16-5.29.62H11.1L.75 32.51l-.43-1.58.8-1.22 2.25-1.11 1.3.5.31-.52 1.56-4.31-.97-3.45.05-.8.55-1.25-.73-3.96Z"/><path fill="#FF6200" d="M32.48 13.06a.74.74 0 0 0-.61-.43c-.22-.28-.5-.63-.78-.63.21 0 .5-.22.85-.22.13.35.4.57.47.85l.07.43ZM40 23.7c0-3.1-1.26-6.22-3.51-8.46-.99-.98-2.11-1.48-2.96-2.47a5.21 5.21 0 0 1-1.05-1.41c-.35-.35-.54-.56-.96-.78l.2.64h-.06c-.36 0-.7-.21-.99-.42l.28-.3c-.06-.13-.28-.13-.42-.13-1.12-.21-2.18.43-3.3.64v.14c.7.21.84 1.06 1.26 1.48h.42c.15 0 .36.14.5.14 0-.14-.14-.42-.14-.42.14-.14.28-.14.42 0 .35.21.84-.14 1.2.42-.43 0-.85 0-1.2.22 0 .07.21.2.14.35-.35-.14-.77 0-.92-.28l-.06.07c.45.51 1.03.9 1.68 1.13.91.14 1.67-.29 2.59-.07a10.13 10.13 0 0 1 5.48 8.88c0 5.2-2.95 7.32-4.85 7.32-.35 0-.91-.2-1.13-.42.22-.78.36-1.63.36-2.9 0-3.01-1.18-6.26-2.8-7.96-.77-.77-1.61-1.41-2.53-1.41-.42 0-.85 0-1.13.35-.35.29-.56.85-.49 1.2-.56.43-1.47.64-2.18.64-.77 0-1.73-.28-2.65-1v-1.05c-.21-.07-.91-.5-.56-.83.2.07.35.2.42.27-.07-.48-.07-1.05-.42-1.47-.14 0-.35 0-.56-.14-.21-.21-.43-.5-.43-.85.22.35.56.21.78.42-.35-.84-.22-1.2-.85-2.47-.14-.64-.77-.99-1.2-1.41-.2-.14-.28-.35-.56-.35-.28-.08-.28-.43-.28-.64.07 0 .28.14.42.21-.42-.99-.7-2.04-1.61-2.6l-.2.13h-1.13c.13-.12.41-.19.63-.33-.22-.22-.35-.29-.78-.29-.21.07-.5.29-.77.29h-.07c0-.22-.07-.5.35-.64a3.68 3.68 0 0 0-1.25 0c-.07.35-.28.57-.28.85-.21.12-.28.33-.5.55 0-.43.22-.83.29-1.26-.28.08-.63.28-.77.28A5.21 5.21 0 0 0 10.32 7c.42.28.2.78.28 1.1L10.32 8c-.07-.28-.42-.5-.5-.85-.41 0-.7.14-1.05.35v.07c.21 0 .5.22.64.43-.5 0-.85-.21-1.34-.21L8 7.7c-.2.07-.42.28-.56.4-.5.43-.84.78-1.06 1.41.14 0 .35 0 .43.07-.29.07-.43.43-.7.5v1.06c-.22.21-.5.42-.64.85-.35 1.12-.42 2.4-.42 3.81-.07.28-.2.35-.33.42v1.12s.4-.41.61-.55v.9c-.28 0-.48.35-.48.56 0 .28.06.57.06.85 0 .14 0 .14.07.28 0-.14.14-.28.35-.35 0 0 .14-.14.42-.14-.21.2-.28.5-.42.78l-.21.2-.07.22c.28 1.48.7 2.76 1.26 4.17-.56.91-1.19 2.66-1.6 4.35-.35-.35-.84-.42-1.26-.42-.42.07-.84.22-1.13.64-.42-.22-.98-.15-1.26.14-.63.56-.63.85-.63 1.27-.14.14-.43.5-.43.99 0 .63.07 1.06.43 1.62h10.66a1.8 1.8 0 0 0-.35-.63c-.2-.42-.06-1-.06-1.41.2-.43.42-.85.7-1.2.07-.22 0-.22.07-.29l.49-.14c.28 0 .5-.21.84-.21.22.35.22-.21.57-.36.75-.13 1.52 0 1.95.57 0 .14.06.14.06.21h-.34c-.43-.21-.92-.42-1.4-.21 0 .21-.06.21-.06.43v.35c.28 0 .47.28.75.42.14-.21.56-.42.84-.42.35 0 .85.21.85.78v.77c.28.29.63.35.98.5-.14.28-.35.28-.56.28h-.57c-.06-.07-.2-.07-.2-.28-.22.28-.35.56-.5.84h8.2c-.13-.28-.27-.5-.33-.63-.13-.42-.13-.99-.13-1.41l.75-1.06c.42 0 .78-.14 1.55-.22.14-.2 0-.35.63-.35.49 0 .84.14.98.21.07.14.07.14 0 .29-.14.14-.42-.15-.63-.07-.14.14.07.2.07.35.14.14-.63-.14-.63-.14s-.14.42-.21.56l.42.43c.14.2-.2.42-.2.63-.15-.07-.43-.28-.43-.21-.14.56 0 1.06-.07 1.62h.77l.07-1.2c.07-.7.91-1.97 1.4-1.97.29 0 .5.14.7.28.15.28.5.42.5.56 0 .14-.2.22-.56.22-.14 0-.14-.22-.35-.36l-.42.43s.49.42.49.7c0 .35-.07.5-.28.7l-.42-.84c-.22 0-.57.42-.57.64 0 .28-.14.42-.14.84h4.36c.5 0 .92-.14 1.4-.42h.83c1.76 0 3.17-.5 4.43-1.77A10.13 10.13 0 0 0 40 23.7Zm-15.23 6.48-.7.07c.28.14.28.5.28.57 0 .2-.15.42-.29.56-.14-.14-.14-.35-.28-.56-.14 0-.2.34-.2.49 0 .64.27 1.13.48 1.55h.63c-.06-.56-.2-1.06-.2-1.7 0-.34.2-.77.28-.98Zm-9.27.85c0-.29-.2-.36-.48-.36-.15 0-.5.22-.5.36 0 .28-.14 1.83-.14 1.83h.5c.2-.63.62-1.48.62-1.83Zm-1.54-.08c-.06 0 .07.15-.61-.56-.15 0-.36.42-.36.56 0 .57.14 1.35.36 1.91h.55c0-.63.06-1.34.06-1.9Zm-1.18 1.91a4.64 4.64 0 0 1-.42-1.83c0-.36 0-.85.21-1.2l-.77.14c-.21.28-.28.42-.28.56l.35-.14c.07 0 .14.14.2.28-.06.36-.48.36-.62.5-.22.7.42 1.13.49 1.7h.84ZM30.4 11.57h-.77c-.14-.21-.35 0-.5 0-.14 0-.2 0-.49-.21.43 0 .64-.21.99-.35.28.2.56.28.77.56Zm-1.69 8.1c-.5-.14-.77-.35-1.2-.35-.13 0-.76.21-.84.35-.2-.28.14-.84.43-.98.28-.15.42-.07.56 0 0 .42.5.2.77.35.14.21.21.35.28.63Zm-.07 1.07c-.42 0-.49-.08-.77-.08-.35 0-.77.15-.99.5-.13-.28-.07-.42 0-.64.22-.2.57-.5.85-.5.5 0 .91.36.91.72Zm1.62 1.55a4.15 4.15 0 0 0-1.9-.56 3.1 3.1 0 0 0-1.4.63l-.15-.63c.43-.08.43-.43.7-.43.22 0 .5-.07.71-.07.21 0 .36-.14.42-.14.35 0 .22.35.43.35.2 0 .35-.14.49-.14.35 0 .63.56.7.99Zm.21 1.55c-.5 0-.98-.14-1.05-.35-.14-.14 0-.42-.35-.42-.15 0-.36.2-.36.2-.14.08-.56-.2-.56 0 0 .36-.28.5-.63.5-.14 0-.28 0-.42-.07V23c.9 0 .84-.29 1.26-.29.28 0 .5.15.7.15.36 0 .15-.15.5-.15s.5.29.7.36c0 .2.21.49.21.77Zm-.63 1.55c-.21-.06-.7-.13-.7-.35 0-.28-.15-.35-.5-.35-.28 0-.49.07-.91.21 0 0-.21-.28-.28-.56.14-.07.7-.22.98-.22.5 0 .99 0 .99.22 0 .28.42.35.42 1.05ZM17.54 14.33l-.14.7-.56.14.35-1.55c.14.28.35.57.35.7Zm13.62 13.52c0 .42 0 .56-.2.92l-.43-.64c.14-.21.14-.5.35-.85l.28.57Zm-1.68-.92c-.5 0-.21-.97-1.27-.97-.21 0-.35.34-.63.4l.07-.47c0-.14.07-.43.35-.56.56 0 .42.2.85.35.2.07.35.21.63.21v1.04Zm-4.43-4c-.63-.36-.99-1-1.55-1.63.56 0 .7.56 1.13.63.14.14.28.22.42.43v.56Zm-6.03-5.23c-.42 0-.63-.22-.85-.62 0-.21-.07-.5 0-.85.15.28.15.42.29.57.28-.15.28.21.35.28.07.2.2.4.2.62Zm11.65 12.05c-.14.22-.14.22-.2.43 0-.35-.43-.56-.71-1.2l.28-.5c.21.14.5.35.5.7 0 0-.08.22 0 .36-.01.08.13.08.13.21Zm-1.4-2.04c0 .28-.07.35-.14.7-.5-.07-.5-.63-.57-.7-.35-.43-.84-.07-1.2-.07-.13-.43.08-.43.08-.71.21 0 .42-.14.63 0 .35-.14.56.21.91.21.08.14.22.5.29.57Zm-3.59-2.88c0 .28-.14.5-.07.78-.14-.43-.42-.85-.56-1.27 0-.07-.07-.07.07-.14l.35.07c.07.14.21.35.21.56Zm-6.17-5.58c-.07.28-.35 0-.42 0h-.63c-.07-.14-.14-.2-.14-.35.28-.07.5-.21.7-.07.14.21.28.42.5.42Zm1.55 1.63c-.21.2-.77.28-1.2-.07l.57-.29c.2.22.49.29.63.36Zm3.63 4.02c0 .42-.06.92-.06 1.4-.21 0-.21-.13-.21-.41-.07-.43-.22-.78-.36-1.2-.14-.57-.49-1.06-.77-1.7-.07-.28-.4-.42-.69-.63.35 0 .69 0 .97.28 0 .14.07.22.28.43.5 0 .35.63.78.91-.21.22-.28.36-.43.5.22.14.43.2.5.42Zm-2.71-2.12c0 .22-.15.29-.29.42 0 0-.28-.34-.28-.49 0-.28 0-.42.07-.63.21.2.5.49.5.7Zm6.58 6.4-.14.22a1.59 1.59 0 0 0-.98-.28c0-.28-.21-.63-.35-.63-.42 0-.35.28-.7.28l.63-.64c.07-.14.07-.14.2-.14.22.14.29.21.5.21 0 .14 0 .21-.07.42.21.15.35-.07.5.15.2.07.41.14.41.42Zm-5.67-4.84c0 .14-.21.28-.29.28 0 0-.34-.35-.41-.7-.08-.29.2-.78.2-.78l.21.14c.08.07 0 .28.08.5.2.13.34.42.2.56Zm-5.49-6.86a6.53 6.53 0 0 0-2.81-.9c0 .22 0 .43-.07.5.84.4 1.62.76 2.32 1.4v.63a5.38 5.38 0 0 0-2.4-1.63c-.06.15-.34.29-.41.57a3.66 3.66 0 0 0-1.6-.78c-.21 0-.35-.76-.35-.76.35-.14.56-.35.7-.7h.28c.21 0 .21-.14.21-.35 0-.43-.91-.43-1.33-.43-.5 0-.85 0-1.13.21-.14 0-.07.22-.07.36l.21.21c.14 0 .28-.14.43-.14-.07.42.06.63.49.85l-.07.68c-.85 0-1.41.36-2.04.64-.21-.14-.35-.36-.5-.57-.84.29-2.31 1.42-2.31 1.42v-.5c.63-.56 1.47-.84 2.1-1.18v-.5c-.28-.14-.56 0-.84 0-.61.08-1.2.32-1.69.69 0-.19-.07-.47-.07-.47a4.43 4.43 0 0 1 2.68-.64v-.28c-.07-.14-.07-.35-.22-.35-.42-.43-.84-1.06-.84-1.49l.28-.14c-.14-.42-.28-1.48 0-1.83a2.42 2.42 0 0 1-.98-.85c-.14-.36-.28-.57-.36-1 .22-.42.36-.56.57-.98.14 0 .35-.07.42-.21.35-.07.56-.42.98-.21.28 0 .57.14.78.2 0 .15 0 .22.14.36.42 0 .42.42.63.78.21.07.42.07.56.07.43.14.78.14.92.35.56-.35 1.12-.42 1.75-.35.07-.21.2-.5.27-.85.07.21.07 0 .2 0 .29-.2.64-.56 1.13-.42.28.21.78.07 1.06.42.2.28.35.7.56 1.06-.21.42 0 .99-.42 1.2l-.42.43c-.15 0-.15.13-.36.13.21.5.07 1.2-.14 1.7.14-.07.35-.07.35-.28v.5c0 .35-.2.7-.49.98-.14.43-.49.99-.98 1.06v.14c1.05 0 1.9.28 2.88.78v.47Zm2.89 4.46-.35.14c-.78 0-1.13-.21-1.48-.5.28 0 .63-.35.63-.35.35.35.84.63 1.2.7Zm-1.97-1.63c-.43 0-.92.21-1.13-.21.14-.07.28-.28.42-.43l.7.64Zm5.74 6.62c0 .35-.42.78-.56 1.06.14-.35.14-1.06 0-1.06-.14-.07-.42 0-.42-.14 0-.21.07-.5.07-.62 0-.28-.2-.42-.2-.56 0-.43.48-.5.62-.78.07.28.07.56.07.92 0 .14.21.55 0 .9 0 .21.42.07.42.28Zm-1.6-.76c0 .4-.27.76-.34 1.18 0-.42-.07-.77-.36-1.05 0-.13.22-.13.08-.34 0 0-.43-.22-.43-.5s.28-.49.43-.7c0-.07.28.14.28.56 0 .07 0 .29-.07.42-.07.22.42.22.42.43Zm-5.83-5.01c-.35.07-.63-.28-.98-.42-.15-.43-.15-.85-.29-1.07.29.22.92.22.78.85 0 .22.28.36.49.64Zm1.97 1.98c-.28 0-.78 0-1.06-.22-.42-.21-.56-.35-.77-.56.28-.21.63-.21.77-.29.28.29.56.79 1.06 1.07ZM6.73 12.2l-.49.14.07-.35c.14-.22.21-.43.42-.64v.85Zm9.06 9.86c-.29.08-.77.22-.92-.14-.42-.63-.21-1.2 0-1.7.15.43.21.86.28 1.21.07.29.5.42.64.63Zm-2.02-3.88c-.07.42-.21 1.06-.64 1.34 0-.28-.14-.42-.28-.63l-.07.2c0 .15-.14.43-.14.72-.14.07-.42.2-.7.07v-.22c-.07-.14-.07-.42-.07-.56l-.07-.07c-.2.07-.2.21-.2.35-.08.14-.22.28-.22.5a.97.97 0 0 1-.64-.22v-.63c0-.14 0-.14-.06-.14l-.36.35c-.28-.2-.35-.78-.35-1.13a4.03 4.03 0 0 1 3.38-.07c.13.07.27.07.42.14Zm3.63 5.72h-.2c-.78.29-1.42-.2-2.05-.63.35-.14.85-.21 1.27-.21l.2.42c.22.07.57.28.78.42ZM6.88 13.2l-.36.42c.08.7-.2 1.2-.2 1.84l-.36-1.13c.07-.29.14-.57.35-.92l.57-.21Zm7.22 9.16c-.33-.21-.97-.29-.82-.7.13-.36.34-.43.49-.57.07.5.13.85.33 1.27Zm6.54 7.26h-.08c-.13-.22-.2-.43-.35-.43.22-.78-.2-1.41-.34-2.05v-.21c.2.35.77.7.7 1.06.07.63.07 1.2.07 1.63Zm-1.62-2.69c-.35 0-.63 0-.85-.35-.07 0-.2-.21-.28-.07-.35.28-.7-.21-1.12-.14-.2.22-.48.36-.77.42v-.07c0-.21.14-.42.42-.55.42.13.77-.78 1.2-.28.2.07.41.07.55.07.5.21.64.62.85.97Zm-6.45-5.7c0 .5-.07 1.13-.56 1.34l-.14-.7c.2-.14.42-.29.7-.64Zm2.37 3.1c-.14.15-.56.29-.84.29-.4-.35-.69-.78-1.1-1.34l1.1.21c.2.14.63.63.84.85Zm4.22 4.01c-.28-.21-.7-.21-.84-.56-.29-.07-.5-.07-.85-.07-.28.07-.63.07-.91.07-.07 0 0-.07-.14-.14-.42.14-.85.14-1.27.56l.35-.85c.29 0 .5-.14.64-.14.28-.07.49-.07.7-.07v.07c.77 0 1.69-.07 2.25.57l.07.56Zm-8.07-5.98c-.42-.43-.77-.78-.77-1.2.2 0 .42 0 .63.14 0 .35.14.64.14 1.06ZM9.76 20.3l-.21.92c-.21-.42-.42-.85-.5-1.34l.7.42Zm10.1 9.52c-.1.27-.2.56-.28.84-.14-.42-.28-1.05-.77-1.05a.93.93 0 0 0-.42-.64l-.57-.07c.07.28.5.28.21.7.29.22.5.22.64.57.14.21 0 .5.07.64l-.42.2c0-.35.06-1.05-.43-1.2-.42.15-.49-.42-.77-.63-.14 0-.14-.35-.35-.21-.35.2-.77 0-1.12.2l.35-.56c.28-.2.56-.13.84-.2l.56-.08c.56 0 1.06.28 1.62.5.28.14.42.35.42.7.14.08.43.08.43.29Zm-5.62-3.32h-.14c-.07 0-.54-.21-.69-.34-.06-.21-.06-.42-.06-.42h.55l.34.76Zm-5.4-5.07a2.42 2.42 0 0 1-1.12-.92c-.13-.26-.2-.55-.21-.84.28 0 .49.2.56.35v.07c.35.42.7.78.77 1.34Zm3.38 2.47c-.07.43-.28.57-.63 1.06-.21.15-.64.21-1.06.42.07-.2.28-.27.42-.49.14-.21.43-.56.5-.78.35-.2.49-.2.77-.2Zm5.18 6.9-.2.22c-.22-.21-.08-.78-.43-.85-.35 0-.63-.35-.77-.43l.28-.13s.14-.08.28 0c.14.13.28.2.28.35.14.21.35 0 .5.21.06.21.13.5.06.64Zm-6.45-7.46c-.2.42-.42.85-.84.99-.21 0-.56.14-.98 0 .2-.14.42-.22.7-.43l.56-.56h.56Zm1.4 3.23c-.27.2-.48.2-.83.14l-.43-.55h1.06l.2.4Zm-5.12-5.35c-.35.35-.7.5-.85.92 0-.22-.07-.42-.14-.57.07-.28.28-.42.35-.5.22.08.36.08.64.15Zm.84 1.06c0 .28-.14.63-.5.99l-.27.21c0-.42.2-.78.2-1.13.22-.07.43-.21.57-.07Zm.99.85-.29 1.06c-.35.28-.84.14-1.26.14.56-.14.98-.78 1.26-1.2.07-.07.14 0 .29 0Zm.35 3.58c0 .21-.07 1.06-.07 1.06-.14-.5-.5-1-.92-1-.2-.2-.42-.41-.49-.6-.21-.22-.42 0-.7-.22-.28 0-.63 0-.92.21v-.2l.5-.58c.49.07 1.12 0 1.26.36.35.21.7.42.78.55v.2c.13.08.42.15.56.22Zm-.35 2.19-.5.5c-.14-.22 0-.57-.2-.79 0-.13.13-.2.06-.28-.07-.14-.91-.42-.91-.42-.28-.21-.63-.43-.91-.7-.29-.08-.5.06-.85.13v-.14c.14-.28.14-.63.56-.63.21 0 .5 0 .64.2.28 0 .42.3.63.36.35.35.63.5.84.64 0 .21.07.35.21.42.43 0 .28.42.43.7ZM8 29.97l-.2.7-.5-1.27c-.57-.56-1.2-.63-1.55-.91-.28-.08-.28.13-.42 0 0-.15 0-.36.2-.57h.43l.42.21c.22.21.7.21.7.64 0 .07-.07.14.15.42l.7.21.07.57Zm-1.97.7c0 .57-.91 1.35-.91 1.35 0-.36.21-.78.21-1.2 0 0-.28-.29-.55-.29-.2.14-.2.29-.27.5-.21.42-.64.84-.7 1.27l-.08-.07c0-.71.07-1.91.5-2.4.35-.43.62-.43 1.03-.5l.35.07-.28.43c.28.14.7.42.7.84Zm-2.44-.42c0 .28-.07.57-.21.78-.07-.29-.28-.64-.63-.64-.28.57-.36.78-.07 1.63-.21.2-.36.28-.63.42-.15-.28-.15-.78-.15-1.06 0-.5.07-.99.22-1.41.2-.22.35-.57.56-.78h.77c-.35 0-.35.35-.35.56.21.08.5.15.5.5Zm-1.83.78c-.07 0-.28-.21-.49-.21-.21.42 0 .7 0 1.2 0 .2-.07.42-.07.42-.14 0-.42-.28-.5-.57v-1.13l.64-.78c.42.29.56.71.42 1.07Zm14.52-19.67c.14-.35.14-.99-.14-1.34-.15-.29-.5-.43-.84-.7l-.5.27c-.28.14-.42.43-.42.78.49.21.98.78 1.2 1.2h.2c.21-.21.36 0 .5-.21Zm-2.38.42c0-.2-.06-.2-.14-.2-.35 0-.35-.57-.63-.43-.14 0-.28-.14-.5 0 0 .07 0 .07.15.07.35 0 .21.5.5.57h.62Zm1.12.85s.13 0 0-.07l-1.54-.2c-.13.2-.49.2-.49.41h-.14c.14.57.14 1.2.14 1.84.29.07.57.21.57.63.28.15.54.22.82.43.14-.07.21-.28.28-.5-.28-.35-.9-.14-.9-.77l-.41-.14c0-.43 0-.85-.07-1.14l.07-.06c0 .06.06.14.2.28.29 0 .55.07.83-.14.14-.08.14-.43.28-.43s.28 0 .36-.14Zm-3.5-1.48c-.14-.14-.57.07-.78.14-.28.07-.5.28-.5.5h.79c.06-.22.35-.5.49-.64Zm-1.55-.78c-.07-.7-.84-.78-1.2-1.06H8.5c-.56.21-.7.78-.77 1.27.21.64.63.21.91.64.28-.21.99-.71 1.34-.85Zm4.13 6.5v-.36h-.69l-.06.08.75.28Zm-3.15-4.1c0-.14-.14-.28-.35-.42H8.91c0 .28.22.42.43.42 0 .29.2.35.27.43.22.14.29.14.5 0 .21.14.28-.14.35 0 0 .42 0 .63-.07.98-.07.5-.5.43-.84.64 0 .21-.21.57 0 .78.2-.14.35-.21.7-.36 0-.2.21-.42.5-.56 0-.64.2-1.27.2-1.9Zm-.56 3.74c-.14-.28-.49 0-.84-.14 0 .14 0 .28.2.43.22-.21.57-.29.64-.29Z"/></svg>