<?xml version="1.0" encoding="UTF-8"?><svg id="a" xmlns="http://www.w3.org/2000/svg" viewBox="0 0 700 700"><path d="M0,350v350h121c78.3,0,121-.3,121-1,0-2-8.3-21.9-12.6-29.9-2.4-4.6-4.4-8.7-4.4-9.1,0-1.8,40.2-15.9,49.7-17.5l4.2-.7,3.1,6.8c1.7,3.7,4.2,8.3,5.6,10.2l2.6,3.3-2.3,2.7c-1.3,1.5-6.2,6.8-10.9,11.8-4.7,5.1-11.5,12.4-15.1,16.3l-6.6,7.1h96.5c77,0,96.2-.3,95.5-1.3-.6-.6-2.9-3.6-5.2-6.6-5-6.4-8.6-13.2-9.5-18.1-.4-1.9-1.7-6.7-2.8-10.7-1.9-6.8-2-7.4-.4-9.8,1-1.5,2.6-2.5,4.1-2.5,1.4,0,2.5-.5,2.5-1,0-1.5,4.1-1.2,10.1.9,3.1,1,7.5,2.2,10,2.6,5.1.8,7.5,1.9,10.8,4.9,3.4,3.1,4.1,5.6,5.1,19,.5,6.7,1.5,14.5,2.1,17.3l1.2,5.3h22.7v-5.8c0-3.2-.7-8.3-1.6-11.3-1.8-5.6-2.5-22.4-1.2-26.9,1.2-4.2,7.9-7.6,21.6-10.9,6.9-1.7,12.7-2.9,12.9-2.8.9.9,3.5,16.5,4,23.7.7,11-.5,15-7.2,25.1-3,4.5-5.5,8.4-5.5,8.6,0,.1,10.5.3,23.3.2,21.8,0,22.9-.1,18.5-1.5-2.7-.8-5.2-2.3-5.8-3.5-.6-1.1-1.5-7.3-2-13.7s-1.4-15.9-1.9-21c-.6-5.2-.6-10.3-.1-11.5.9-2.4,4.7-6.1,9.8-9.6,3-2.1,18.1-8.1,20.2-8.1.6,0,1,8.7,1,22.7.1,21.3.3,23.6,2.8,34.3l2.8,11.5,55.2.3,55.2.2v-51.7l-6-.6c-3.3-.4-9.6-1.9-14-3.3-11.5-3.8-14.7-7.6-19.9-23.8-2.1-6.6-4.2-13.6-4.6-15.4-.6-2.9-.4-3.2,1.7-3.2,1.3.1,4.1.7,6.3,1.5s5.5,1.5,7.3,1.5c4.4,0,10.1,2.5,10.8,4.7,1.5,4.9,7.8,16.6,12.5,23.3l5.4,7.5.3-50,.2-50-2.7-2.2c-6.1-5-46.2-24.5-78.4-38.3l-6.7-2.8-5.6,7.8c-6.5,9.1-10.6,12.5-14.1,11.6-1.3-.3-7.8-4.2-14.5-8.6-20.8-13.8-25.8-16-46.5-20.4-8.6-1.9-10.5-3.3-10.5-8,0-1.7-.9-6-2-9.4-3.3-10.5-3-11.4,4.9-16.6,9-6,14.1-13.9,14.1-21.8,0-3.7,2-4.4,7-2.4,2.2.9,5.6,1.6,7.5,1.6,7.6,0,11.5-13.1,6.9-22.7-2.1-4.2-3.1-4.6-22.4-10.1-8.7-2.5-11-2.7-28-2.7-18.8,0-22.5.5-36,4.7-10.1,3.2-12.7,4.7-14.4,8.3-2,4.2-2,8.7-.1,15.3,2.7,9,7.5,10.1,18.1,4.1l5.2-2.9.3,7.3c.4,6.2.9,8.1,3.7,12.4,1.8,2.8,5.8,6.9,9.2,9.4,3.3,2.4,6,4.8,6.1,5.4.3,3-.3,9.3-1.1,11.5-.5,1.4-1.1,4.6-1.5,7.2-1,7.6-3.8,10.1-13.7,12.2-15.1,3.3-38.8,11.5-50.6,17.7-14.3,7.4-16.9,7.6-22.4,1.6-2.2-2.3-4.7-5.4-5.6-6.9-1.3-2.2-2.5-2.8-6.9-3.4-2.9-.3-6.9-.3-8.9.1-8.7,1.6-61.4,26.8-87.5,41.8-6.4,3.7-12.1,6.7-12.8,6.7-1.7,0-3-3.5-4.4-12.3l-1.3-7.7,16-9.6c15.3-9.1,55.7-29.6,75.1-38.1l9-3.9-.1-5c-.1-2.8-.9-6.5-1.9-8.3l-1.7-3.4-11.6.6c-24,1.1-52.6,9.1-85.5,23.9-4.9,2.2-9.4,3.7-10.2,3.5-1.4-.6-3.9-12.9-3.3-17.1.3-2.3,2-3.4,14.3-9.2,19.1-8.9,38-15.8,50-18.3,7.8-1.6,42.6-6.1,47.3-6.1,1.3,0-.6-7.7-3.2-12.8-3.2-6.6-11.7-17.4-23.8-30.3-9.1-9.8-11.4-13.1-14.8-20.3-4.1-9-7-17.6-7-20.8,0-1,1.1-2.3,2.4-2.9,1.9-.9,3.6-.6,9.1,1.6,3.7,1.4,6.9,2.5,7.1,2.2.2-.2-.5-4.2-1.6-8.8s-2.2-11.3-2.6-14.9c-.3-3.6-1.3-10.1-2.1-14.5-1.8-9.3-1.3-25.6,1.1-37.2.9-4,1.3-7.9,1-8.7-.6-1.4-8.9-5.9-20.3-10.8-4.7-2-6-3.2-9.8-9.1-19-29.6-19.9-38.9-7.2-71.9,5.2-13.2,8.7-17.4,21.7-25.1,12.2-7.4,14.7-8,28.2-7.2,14.3.8,22,2.5,31.8,7,24.9,11.6,35.8,21.4,41.7,37.8l2.3,6.2,15.3.6c18.6.8,32.5,4,50.7,11.9l5.3,2.3,4.2-3c12.6-9,37.6-16.3,56.2-16.3,9.9,0,9.9-.1,11.3-8.8,2.5-15.8,12.4-30.2,24.6-36.2,7.7-3.7,29.1-7.5,38.1-6.7,8.2.8,18.3,4.6,24.5,9.3,9,6.8,24.9,26.7,29.7,37,2.5,5.3,2.8,7.2,3.1,20,.3,9.5-.1,17.5-1.2,25-.9,6-1.6,12.7-1.6,14.9,0,5.2-3.8,13.2-8.1,17.1-3.8,3.4-12.4,8.9-15.4,9.8-1.8.5-2.2,2-3.3,10.3-.6,5.4-2.5,15.4-4.2,22.3-1.6,6.9-3.4,16.2-4,20.7s-1.6,9.9-2.4,12c-.7,2.1-1.6,5.1-2,6.6l-.7,2.9,7.4-4.1c12.3-6.8,13.4-5.9,9.7,8.4-2.7,10.7-5.8,16.8-12.1,24.5-5.9,7.2-7.7,10.4-10.9,19.7-2.3,6.6-9.2,19.2-13.5,24.9-1.4,1.9-5.9,5.9-10,8.9s-7.5,6.1-7.5,6.8.9,2.2,1.9,3.4c1.6,1.7,3.6,2.1,12.2,2.6,16.8,1,38.5,6.1,59.3,14.1,3.8,1.4,7.1,2.5,7.3,2.3.1-.2.2-79.6.1-176.5l-.3-176.1-6.5,5.1c-8.1,6.4-12.1,8.1-18.7,8-7.1-.1-14.9-2.5-26.8-8.2-12.2-6-26.3-10-37-10.7-7.3-.5-8.6-.3-13.2,2-2.8,1.5-10.7,7.7-17.5,14-17.7,16.3-18.8,16.9-37.4,21.6-19.5,5-26.2,7.1-33.6,10.6-3.2,1.4-6.8,2.5-8,2.3-2.9-.4-3.6-3.8-5.1-22.7l-1.2-14.5-11-2.6c-6-1.4-12.1-3.2-13.4-3.9-2.8-1.5-3.4-1-5,4.9-2.7,9.4-13.3,30-15.6,30-6.6,0-73.9-39.4-82.5-48.2l-2.4-2.5-6,4.7c-8.4,6.6-29.4,20.2-45.8,29.7l-13.7,8-6.3,9.4c-8.7,13-13.1,18.8-14.3,18.9-1.2,0-26.7-10-27.8-11-.7-.6,1.5-4.5,14.4-25.2,6.9-11,17.4-23.3,31.4-36.4,9.8-9.3,11.9-10.7,19.5-13.8,4.7-1.9,11.7-4.9,15.5-6.6,10.8-5,20-7.9,32.5-10.5l11.5-2.4,6.5,6.3c7.9,7.7,21.6,18.5,37.2,29.3l11.7,8.2,1.9-5.2c1.1-2.9,3.8-11.1,6.2-18.2,2.3-7.2,4.4-13.3,4.7-13.7.2-.4,5.9,2,12.7,5.2,6.9,3.2,14.9,6.4,18,7.1q5.5,1.2,13.8-3c4.6-2.2,10.3-5.2,12.8-6.6s10.6-4,18-5.9l13.5-3.5.3,2.4c.2,1.3-1.7,7.3-4.2,13.4-4.5,10.8-4.6,11.2-4.6,22.1v11.1l3.8-.7c2-.4,5.4-1.5,7.4-2.5,9.6-4.8,12.9-11.9,21.8-46.8,1.1-4,1.3-4.3,3.8-3.6,1.5.3,6.7.9,11.5,1.2l8.8.6-.7,13.2c-.6,13.1-.6,13.3,1.6,14.5,4.5,2.4,10.6-1,28.3-15.7l10.8-9.1,11.1,5c16.5,7.4,43.6,22.3,57.8,31.8,3,2,6.5,4.2,7.8,4.9l2.2,1.2V0H0v350ZM272.7,171.4c.3.3-.5,6.8-1.8,14.3-1.6,9.5-2.3,17.8-2.4,26.8v13l6.4,14.5c8.2,18.7,8.4,20.5,3.7,25.8-2,2.2-5.9,4.9-8.9,6.2-2.8,1.2-6.1,3.2-7.2,4.5-1.1,1.2-9.4,8.3-18.4,15.6-10.9,8.8-17.8,15.3-20.7,19.3-2.6,3.6-4.5,5.4-4.7,4.5-.3-.8-1.5-10.4-2.7-21.4-1.3-11-2.5-21.4-2.8-23-.3-2.7.1-3.3,4-5.4,5.7-3.2,22.8-16,23.4-17.6.3-.7-.7-8.4-2.1-17.1-2.2-12.8-2.6-18.2-2.3-28.4.3-11.8.5-13,3.5-19.1,5.6-11.4,10.6-14.2,24.1-13.5,4.6.2,8.6.7,8.9,1ZM286.2,307.7c2.2,2,2.2,4.2.3,10.7-.8,2.7-1.5,6.8-1.5,9.1,0,4.3-1.8,6.9-6.8,9.4-1.3.7-11,7.9-21.5,16-10.6,8.1-20.5,15.6-22.2,16.6-1.6,1-5.8,4.5-9.1,7.8-3.7,3.6-6.4,5.5-6.8,4.8-.4-.6-1.7-5.7-2.9-11.3-2.5-11.9-2.8-33.7-.5-42.3,1.5-5.7,5-8.5,15.8-12.8,19.5-7.7,50.5-12.2,55.2-8ZM281.5,380.2c-.3,3.5-1.7,10.6-2.9,15.8l-2.3,9.5-7.9,4.5c-14,8.1-20.7,13.1-30.9,23.4-9.2,9.3-30.9,33.7-36.2,40.9-1.6,2.1-2.4,2.6-2.7,1.6-.2-.8-1-8.4-1.6-16.9-.7-8.5-1.8-18-2.6-21s-1.4-9-1.3-13.5l.1-8,20.6-13.7c11.7-7.7,23.3-14.6,26.7-15.8,6.6-2.4,39.5-12.8,40.9-12.9.4-.1.5,2.7.1,6.1ZM237,478.1c-1.2,5.2-2.5,14.8-2.9,21.4-.7,10-.5,13.4,1,20.5,1,4.7,3,14.2,4.5,21.1l2.6,12.6-5,9.9c-5,10-15.5,24.4-19.2,26.4-1.7.9-2,.7-2.5-1.7-.4-1.6-1.9-6-3.5-9.8-1.6-3.9-3.6-10.9-4.4-15.5-.9-4.6-2.1-10-2.6-12-.9-3.8-4.6-61.7-3.9-62.4.9-.9,37.4-20.4,37.7-20.1.1.1-.7,4.5-1.8,9.6ZM544,513.8c12.8,2.3,26.8,6.9,34.8,11.4l5.2,2.9v8.4c0,10.6-2,21-5.9,30.4-3,7.4-9.5,18.1-10.9,18.1-.4,0-3.2-2.5-6.2-5.6-5.2-5.3-17.2-15.4-18.3-15.4-.3,0-.5,2.6-.5,5.7.1,7-2.9,20.8-4.7,22.3-.7.6-5.4,1.4-10.3,1.7-8.3.5-9.3.4-12.9-1.8-5.4-3.3-10.9-8.5-13.4-12.6l-2.2-3.6-1.4,5.3c-1.8,7-4.8,12.3-8.3,14.3-5.6,3.3-20.7,1.6-23.4-2.6-2.4-3.7-4.6-17-4.6-27.7,0-8.3-.3-10-1.5-10-.9,0-5.3,3.6-9.9,8s-8.7,8-9.2,8c-1.9-.1-8.2-6.7-10.3-10.8-1.2-2.4-3.8-9.2-5.7-15l-3.5-10.7,2.7-2.1c9-7.3,31.7-16.3,47.6-18.9,14-2.2,15.5-2.3,39.3-2,16.6.2,24.8.8,33.5,2.3ZM258.5,579.2c4.1,4.6,11.5,17.2,11.5,19.6,0,.5-4.4,5.2-9.7,10.3-16.2,15.8-22.2,22.2-24.2,26.4-1.8,3.8-7.7,10.3-8.4,9.4-.2-.2-1.1-7.4-2-15.9-1.3-12.7-2-16.4-4.2-20.5-3.7-7.2-3.1-9.4,3.4-13,3-1.7,7.8-5.2,10.7-7.8,5.7-5.2,16.5-13.6,17.6-13.7.3,0,2.7,2.3,5.3,5.2ZM326.2,577.2c10.5,5.6,13.5,11.5,12.3,24.7-.7,8.3.8,15.7,8,39.6,1.9,6.3,3.5,11.7,3.5,12,0,.5-3-1.1-21.5-11.3-15.8-8.8-15.1-8-17.4-18-5.5-24.2-4.7-39.8,2.6-47.4,3.4-3.6,5.2-3.5,12.5.4ZM385,598.5c9.8,5,16.9,15.2,20.4,29.6,3.1,12.8,1.9,20.6-5.7,36.8l-4.3,9-3.1-6.2c-1.7-3.4-4.3-10-5.8-14.7-3.4-10.5-5.4-14.6-11.6-23.5l-4.9-7,1.4-4.5c.7-2.5,1.9-7.9,2.5-12,.7-4.1,1.4-8.1,1.6-8.8.7-1.9,4.1-1.4,9.5,1.3ZM622.7,624c5.9,2.2,11.3,4,12,4s2.2.9,3.3,2c1.7,1.7,2,3.3,2,10.9,0,13.4,4.8,30.8,12.1,43.8,1.6,2.9,2.9,5.5,2.9,5.8,0,1.4-6.5,3.5-10.7,3.5-12.8-.2-17.2-3-24.8-16-5.7-9.8-8.2-15.7-10.2-24.4-2.8-12.5-2-33.6,1.3-33.6.9,0,6.3,1.8,12.1,4Z" fill="#ff6200" stroke-width="0"/><path d="M628.3,169.9c-9.1,3.1-14.4,8.5-20.8,21.1-1.8,3.5-2.9,7.7-3.3,11.5l-.4,6.1,4.3,1.3c12.2,3.7,25.1,12.4,37.3,25.1l7.7,8.1,3.8-1.1c13-3.5,17.4-12.9,17.5-38,.1-14.5-1.6-20.1-8-26-4.9-4.5-6.8-5.4-16.9-8.1-8.7-2.3-14.5-2.3-21.2,0Z" fill="#ff6200" stroke-width="0"/><path d="M359,174.3c-14.6,5.3-22.7,11.2-27.1,19.9-3,5.9-2.3,16.4,1.5,24,6.6,13.1,23.2,30.6,27.8,29.4,1.3-.3,5.1-3.9,8.6-8,6.2-7.5,21.1-20.2,32.9-28,3.5-2.3,6.3-5,6.6-6.2.5-3-2.7-12-6-16.8-2.3-3.2-5.3-5.3-14.2-10-13.9-7.2-19.7-8-30.1-4.3Z" fill="#ff6200" stroke-width="0"/><path d="M528,230c0,3.6,3.8,8,9.9,11.6,3.6,2.1,7.1,4,7.6,4.2,2.1.5,3.6,4.5,4.2,10.8l.6,6.4h14c13.8,0,14.1,0,19.6-3.1,11-6.1,12.5-9.5,6.7-14.7-3.4-3-16.9-8.4-24.1-9.6-2.2-.4-10.2-2-17.7-3.6-14-3.1-20.8-3.7-20.8-2Z" fill="#ff6200" stroke-width="0"/><path d="M470,233.4c-1.9.7-5.3,1.9-7.5,2.6-6.8,2.1-17.9,9.7-24.8,16.9-3.7,3.8-6.7,7.4-6.7,7.9,0,.6-.3,1.7-.6,2.6-.5,1.3.2,1.6,4.5,1.6,2.7,0,9.6.5,15.1,1.1,5.6.6,11.1.8,12.3.5,2.2-.6,16.7-17.8,19.4-23,.8-1.5,1.5-4.6,1.6-6.9l.2-4.2-5-.2c-2.7-.1-6.6.4-8.5,1.1Z" fill="#ff6200" stroke-width="0"/><path d="M385.5,290.2c-4.3.5-8.1,1-8.3,1.3-1.4,1.4,2.9,6.9,15.7,19.7,11.7,11.8,15.8,15.2,20.5,17.4,5.9,2.7,6,2.7,17,1.6,6.1-.6,11.3-.8,11.6-.5,1.2,1.2,0,32.8-1.4,37.7-1.9,6.3-4.1,8.4-12.8,12-16.3,6.8-25.2,17.5-25.3,30.8,0,5.2.4,7.2,2.1,9.5,3,4.1,5.6,4,13.2-.5,3.7-2.2,8.7-5,11.2-6.3,4-2.2,4.7-3.2,7.1-9.4,2.9-7.4,3.2-7.8,16.6-16,4.5-2.8,4.8-3.3,5.1-7.5.4-7.3,4-39.1,6.6-58.7,1.3-10.1,2.2-19.3,1.9-20.5-.8-3.2-6.2-8.7-10.2-10.4-2.7-1.1-9.4-1.4-33-1.3-16.3.1-33.2.6-37.6,1.1Z" fill="#ff6200" stroke-width="0"/><path d="M554.5,290.6c-5,2.8-11.3,8.3-12,10.5-.4,1.2.4,9.8,1.9,19.3,2.6,17.4,5.6,46.1,5.6,52.8,0,3.4.4,3.9,6.3,7.4,8.9,5.3,10.8,7.4,15.2,16.5l4,8.1,12.5,6.4c7,3.5,14.7,8,17.3,10,4.5,3.5,4.8,3.6,6.6,2,2.3-2,7.6-12,8.5-15.9.4-1.6,1.3-2.7,2.3-2.7,1.5,0,1.5-.2.3-1.4-2.1-2-25.7-16.5-29.6-18.1-2-.8-5.3-4.3-9.4-10-5.3-7.4-7.2-9.1-11.6-11.2-6-2.7-5.7-1.7-6.9-22.3-.3-5.2-.8-12.8-1.2-16.9l-.6-7.4,4,4c4.7,4.7,9.9,6.3,20.2,6.3,12.3,0,21.1-4.8,25-13.6,1.5-3.2,3.2-4.9,7.7-7.4,6.2-3.5,17.1-13.6,15.9-14.8-1.1-1.1-16.2-2-48.5-2.6-27.4-.6-30.8-.5-33.5,1Z" fill="#ff6200" stroke-width="0"/><path d="M569.3,452.2c-.7.8-1.5,3.3-1.9,5.6-.7,4.5-1,4.2,7.2,5.6,1.8.3,7.2,2.3,12,4.5,4.9,2.2,10.1,4.3,11.6,4.6,2.5.6,2.7.5,3.6-4.7,2.3-11.6,2.7-10.4-5.2-13.4-8.6-3.3-25.3-4.6-27.3-2.2Z" fill="#ff6200" stroke-width="0"/><path d="M422.5,454.8c-7.2.5-14.5,2.3-14.5,3.6,0,2.7,4.3,13.8,5.6,14.3,1.2.4,23.3-10.7,27.9-14.1,2-1.4,2-1.5-.5-2.4-3-1.1-12.9-1.9-18.5-1.4Z" fill="#ff6200" stroke-width="0"/><path d="M624,471c0,9.6.2,11.1,1.8,11.7.9.3,6,2.5,11.2,4.8,5.2,2.4,10.6,4.6,12,5,2.4.7,29.7,15,43.3,22.6,3.8,2.2,7.1,3.9,7.3,3.9s.4-8.7.4-19.4c0-17.5-.2-19.5-1.7-20.1-11.8-4.8-25.6-8.6-50.3-14.1-11.3-2.4-21.3-4.7-22.2-5-1.6-.5-1.8.5-1.8,10.6Z" fill="#ff6200" stroke-width="0"/></svg>