<svg xmlns="http://www.w3.org/2000/svg" viewBox="0 0 25.52 48.59" width="25.52" height="48.59">
    <path fill="#24aa7b" d="M11 36.75H9.8V8.65l.2-.08.17-.08.51-.25.14-.06h.07l.11-.11Zm-2 0H7.76V9.92l.14-.1.1-.08.66-.43.11-.07.23-.13Zm-2.06-26.2.21-.17v26.37H5.72v-25.1l.1-.09.18-.15.86-.76Zm-1.63 26.2H2.87V15.24l.13-.13.07-.11a18 18 0 0 1 2-2.62l.1-.11.05-.05.06-.07Zm-3.1-20.24v-.06l.25-.45v20.75H.79a.86.86 0 0 1-.79-.86v-8.53a31 31 0 0 1 .48-5.85 19 19 0 0 1 1.65-4.87Zm20.45 20.24V15.31A19.65 19.65 0 0 1 24.93 21a29.69 29.69 0 0 1 .58 6.16v8.76a.88.88 0 0 1-.91.82h-1.94Zm-2.04 0V12.52l.11.13.15.17c.38.46.74.93 1.08 1.42l.11.16.15.23v22.12Zm-.62 0h-1.42v-26.2l.2.17.22.19c.24.21.47.42.7.65l.1.1.17.17Zm-2.24 0h-1.22V9.11l.18.11h.06l.08.05c.23.14.45.29.67.45h.11l.12.09Z"/>
    <path fill="#24aa7b" d="M12.25 0v3.65a1.77 1.77 0 0 0 0 3.39v29.71h1V7a1.77 1.77 0 0 0 0-3.39V0Z"/>
    <path fill="#24aa7b" d="M15.12 36.75V8.27L14.61 8v28.75ZM.32 37.87h24.87v.47H.32Zm24.87 10.25H.32v.47h24.87Zm0-5.38h-1.45v-.17h.34a.19.19 0 0 0 .11-.08.26.26 0 0 0 0-.14V40a.25.25 0 0 0 0-.13.19.19 0 0 0-.12-.09l-.17-.06h-.17v-.22h1.45v.17h-.35a.2.2 0 0 0-.11.09.32.32 0 0 0 0 .14v2.33a.32.32 0 0 0 0 .14.2.2 0 0 0 .11.09h.34Zm-1.7 0 .07-1h-.16a2.59 2.59 0 0 1-.39.67l-.1.06a.58.58 0 0 1-.14 0h-.64a.25.25 0 0 1-.16 0 .23.23 0 0 1-.07-.13 1.42 1.42 0 0 1 0-.23V40a.32.32 0 0 1 0-.14.13.13 0 0 1 .1-.09.39.39 0 0 1 .15 0 .53.53 0 0 1 .16 0v-.27H21v.17h.16a.38.38 0 0 1 .14 0 .22.22 0 0 1 .11.1.51.51 0 0 1 0 .13v2.4a.29.29 0 0 1 0 .14.18.18 0 0 1-.1.09H21v.17Z"/>
    <path fill="#24aa7b" fill-rule="evenodd" d="M19.11 39.89a1.54 1.54 0 0 1 .33.54 2.07 2.07 0 0 1 0 1.39 1.66 1.66 0 0 1-.34.54 1.46 1.46 0 0 1-.49.33 1.53 1.53 0 0 1-.6.12 1.56 1.56 0 0 1-.62-.12 1.63 1.63 0 0 1-.82-.89 2.15 2.15 0 0 1-.11-.68 1.94 1.94 0 0 1 .12-.7 1.61 1.61 0 0 1 .34-.53 1.46 1.46 0 0 1 .5-.35 1.67 1.67 0 0 1 .59-.11 1.5 1.5 0 0 1 .6.12 1.43 1.43 0 0 1 .5.34Zm-.34 2.29a1.76 1.76 0 0 0 .18-.47 2.68 2.68 0 0 0 .06-.59 2.93 2.93 0 0 0-.06-.61 1.84 1.84 0 0 0-.19-.47.91.91 0 0 0-.32-.3.86.86 0 0 0-.43-.11.83.83 0 0 0-.46.12 1 1 0 0 0-.32.34 1.84 1.84 0 0 0-.17.47 3.43 3.43 0 0 0 0 .56 2.61 2.61 0 0 0 .06.59 1.54 1.54 0 0 0 .18.47 1.06 1.06 0 0 0 .31.32.94.94 0 0 0 .45.11.93.93 0 0 0 .44-.11 1 1 0 0 0 .27-.32Z"/>
    <path fill="#24aa7b" d="M16.28 39.7h.12v-.2h-1.12v.17h.28a.28.28 0 0 1 .11 0 .13.13 0 0 1 0 .09 1.68 1.68 0 0 1-.19.38l-.55.9-.29-.52-.22-.41-.07-.14a.45.45 0 0 1-.06-.12.41.41 0 0 1 0-.08s0-.06.1-.08a1.21 1.21 0 0 1 .33 0v-.19h-1.41v.17h.14l.13.05a.49.49 0 0 1 .13.12s.08.11.14.19l.28.53.31.57.1.22a.36.36 0 0 1 .05.13v.78a.33.33 0 0 1 0 .15.19.19 0 0 1-.12.09.47.47 0 0 1-.17 0h-.2v.17h1.52v-.17h-.2a.7.7 0 0 1-.17 0 .24.24 0 0 1-.12-.1.29.29 0 0 1 0-.14v-.61a.84.84 0 0 1 0-.26 1.16 1.16 0 0 1 .11-.24l.38-.65c.1-.17.2-.34.32-.51a.75.75 0 0 1 .13-.15l.12-.09a.35.35 0 0 1 .09-.05Zm-5 3.04h-.9c-.18-.28-.37-.54-.58-.81s-.44-.52-.67-.77h-.06v1.12a.25.25 0 0 0 0 .13.19.19 0 0 0 .1.1h.3v.17H8.16v-.17h.29a.18.18 0 0 0 .1-.09.25.25 0 0 0 0-.13V40a.27.27 0 0 0 0-.13.2.2 0 0 0-.11-.09l-.14-.06h-.15v-.22H9.5v.17a.5.5 0 0 0-.16 0H9.2a.15.15 0 0 0-.1.09.32.32 0 0 0 0 .14v1.12l.41-.36.36-.38.26-.33a.46.46 0 0 0 .08-.22.07.07 0 0 0 0-.06h-.32v-.17h1.21v.17h-.18l-.17.06a.43.43 0 0 0-.13.09l-.49.56c-.17.19-.34.36-.51.52l.57.67.48.6a1.26 1.26 0 0 0 .2.2.94.94 0 0 0 .17.11l.15.05h.14Z"/>
    <path fill="#24aa7b" fill-rule="evenodd" d="M6.69 42.74H8v-.17h-.27a.44.44 0 0 1-.12-.11.64.64 0 0 1-.08-.14l-1.05-2.86H6.3l-.41 1.06-.11.29-.54 1.36a.56.56 0 0 1-.1.19.44.44 0 0 1-.14.13l-.14.06h-.15v.17h1.21v-.17a.79.79 0 0 1-.32-.06c-.1 0-.14-.08-.14-.14a.41.41 0 0 1 0-.1.73.73 0 0 1 0-.16c0-.06 0-.14.07-.21s.06-.18.1-.28h1.18l.27.72s0 .07-.12.09a1.06 1.06 0 0 1-.29 0Zm-.45-2.58.49 1.25h-1Zm-1.58.14a1.06 1.06 0 0 1-.1.45.87.87 0 0 1-.28.32 1 1 0 0 1-.38.19 1.56 1.56 0 0 1-.44.06H3.1v1a.32.32 0 0 0 0 .14.17.17 0 0 0 .11.09h.33v.17H2.18v-.17h.31a.22.22 0 0 0 .1-.09.29.29 0 0 0 0-.14V40a.33.33 0 0 0 0-.15.15.15 0 0 0-.1-.09h-.32v-.26h1.47a1.17 1.17 0 0 1 .73.22.71.71 0 0 1 .29.58Zm-.7.55a.57.57 0 0 0 .11-.22 1.83 1.83 0 0 0 0-.21 1.24 1.24 0 0 0 0-.27.45.45 0 0 0-.07-.23.55.55 0 0 0-.2-.17.81.81 0 0 0-.33-.06H3.1v1.43h.23a.89.89 0 0 0 .4-.08.49.49 0 0 0 .27-.19Z"/>
    <path fill="#24aa7b" d="M.33 42.74h1.45v-.17h-.34a.2.2 0 0 1-.11-.09.33.33 0 0 1 0-.14V40a.32.32 0 0 1 0-.14.19.19 0 0 1 .12-.09h.34v-.27H.33v.17H.5l.17.06c.06 0 .1 0 .11.09a.25.25 0 0 1 0 .13v2.34a.26.26 0 0 1 0 .14.23.23 0 0 1-.11.08H.33Zm20.72 4.46h-.89a8.27 8.27 0 0 0-.57-.79 15.8 15.8 0 0 0-.66-.77h-.06v1.11a.25.25 0 0 0 0 .13.24.24 0 0 0 .1.1h.3v.16H18V47h.29a.2.2 0 0 0 .09-.09.25.25 0 0 0 0-.13v-2.3a.27.27 0 0 0 0-.13.18.18 0 0 0-.1-.09l-.15-.06h-.14V44h1.31v.16H19a.15.15 0 0 0-.1.09.32.32 0 0 0 0 .14v1.1l.4-.36.36-.37a3.27 3.27 0 0 0 .25-.32.4.4 0 0 0 .09-.22s0 0-.05-.06h-.28V44h1.19v.16h-.23l-.16.06a.67.67 0 0 0-.14.09l-.46.52-.49.51.56.66.47.6a1.17 1.17 0 0 0 .2.19l.16.11h.29ZM15 44.22h.2V44h-1.3v.16a.73.73 0 0 1 .22 0l.21.08a.37.37 0 0 1 .1.2 2.31 2.31 0 0 1 0 .43v1.51L12.66 44h-.91v.16a.78.78 0 0 1 .44.18.49.49 0 0 1 .1.16.76.76 0 0 1 0 .21v1.59a2.15 2.15 0 0 1 0 .44.38.38 0 0 1-.1.2L12 47h-.21v.16h1.31V47h-.22a.41.41 0 0 1-.21-.09.35.35 0 0 1-.1-.21 1.56 1.56 0 0 1 0-.42v-1.64l1.93 2.6h.19v-2.33a2.17 2.17 0 0 1 0-.4.31.31 0 0 1 .11-.22.84.84 0 0 1 .2-.07Z"/>
    <path fill="#24aa7b" fill-rule="evenodd" d="M9 47.2H7.64V47a1.19 1.19 0 0 0 .29 0C8 47 8 47 8 46.92v-.11l-.27-.71H6.65c0 .11-.08.2-.1.28a1.72 1.72 0 0 0-.07.21l-.05.16v.1c0 .03 0 .1.14.14a1.07 1.07 0 0 0 .32 0v.16h-1.2V47H6a.4.4 0 0 0 .13-.13.5.5 0 0 0 .1-.18l.53-1.34.18-.46.34-.87h.17l1.06 2.74a.58.58 0 0 0 .08.14.65.65 0 0 0 .12.11l.13.05L9 47Zm-1.32-1.3-.48-1.23-.47 1.23Zm-4.86.1a.76.76 0 0 0-.23-.24.81.81 0 0 0-.31-.15 1.28 1.28 0 0 0-.3-.07 1 1 0 0 0 .29-.1.91.91 0 0 0 .23-.15.52.52 0 0 0 .17-.29.73.73 0 0 0 .06-.3.58.58 0 0 0-.08-.33.63.63 0 0 0-.22-.21.79.79 0 0 0-.3-.12 1.66 1.66 0 0 0-.32 0H.34v.16h.29a.15.15 0 0 1 .1.09.32.32 0 0 1 0 .14v2.29a.25.25 0 0 1 0 .13.22.22 0 0 1-.1.09L.48 47H.33v.16h1.5a1.23 1.23 0 0 0 .39-.06 1 1 0 0 0 .34-.1.81.81 0 0 0 .25-.27.71.71 0 0 0 .1-.39.72.72 0 0 0-.09-.34Zm-.65-.17a.63.63 0 0 1 .19.46.84.84 0 0 1-.18.58.66.66 0 0 1-.51.19.58.58 0 0 1-.32-.06.23.23 0 0 1-.11-.21v-1.17h.39a.77.77 0 0 1 .54.18Zm0-.76a.71.71 0 0 1-.11.21.55.55 0 0 1-.22.14.93.93 0 0 1-.31 0h-.29v-1.21h.36a.61.61 0 0 1 .45.15.55.55 0 0 1 .14.41 1.14 1.14 0 0 1-.03.23Z"/>
    <path fill="#24aa7b" d="M25.19 47.21h-1.45V47h.18a.32.32 0 0 0 .16 0 .19.19 0 0 0 .11-.08.26.26 0 0 0 0-.14v-2.34a.25.25 0 0 0 0-.13.19.19 0 0 0-.12-.09.69.69 0 0 0-.17 0h-.17V44h1.45v.16h-.35a.2.2 0 0 0-.11.09.32.32 0 0 0 0 .14v2.34a.28.28 0 0 0 0 .13.2.2 0 0 0 .11.09L25 47a.62.62 0 0 0 .18 0Zm-4.72-7.66.18-.11-.08-.13-.18.11a1.57 1.57 0 0 0-.21.17.71.71 0 0 0-.15.22.5.5 0 0 0-.07.27.59.59 0 0 0 .09.34.3.3 0 0 0 .28.13.28.28 0 0 0 .2-.08.27.27 0 0 0 .07-.18.29.29 0 0 0-.08-.21.31.31 0 0 0-.22-.08h-.11a.53.53 0 0 1 0-.2.33.33 0 0 1 .1-.14.71.71 0 0 1 .18-.11Z"/>
</svg>