<svg xmlns="http://www.w3.org/2000/svg" width="40" height="40" fill="none"><path fill="#E77128" d="m31.8 28.3-.7 1c-2.3 2.8-5.4 3.9-9 3.7a9 9 0 0 1-5.1-1.4 7.8 7.8 0 0 1-3.4-6.2c-.2-3.6-.2-7.2-.2-10.8v-1.5c-.5-.1-1-.1-1.4-.3-1.4-.3-2.1-1.3-2.1-2.7V7.2C9.9 6.3 10 6 11 6l10 .2c.6 0 .8.4.9.9v14.6l.2 1.5c.6 2.2 2.7 3.2 5 2 2-1 3.2-2.9 3.5-5.2.2-.8.2-1.6.2-2.5v-10c0-1 .3-1.3 1.4-1.3h6.3c1 0 1.2.2 1.2 1.2v8.5l.1 14 .1 1.7c0 .7-.3 1-1 1h-4.9c-.8 0-1.4-.4-1.6-1.1-.3-.8-.3-1.6-.5-2.4v-.8h-.2Zm-22.3.3c0 2.6-2 4.7-4.7 4.8a4.8 4.8 0 0 1-4.8-5c0-2.5 2.1-4.6 4.7-4.6 2.7 0 4.8 2 4.8 4.8Z"/></svg>