<?xml version="1.0" encoding="UTF-8"?><svg id="a" xmlns="http://www.w3.org/2000/svg" viewBox="0 0 214 214"><path d="M87.98,29.84v2.9s7.74.35,7.74,7.3v48.19l19.79,11.17v-59.63s-.35-7.04,7.56-7.04v-2.9h-35.09Z" fill="#00428a" stroke-width="0"/><path d="M117.8,47.04v4.66s17.95,7.42,19.11,28.72h3.05v-33.32h-2.7s-1.78,4.55-6.56,4.55-12.89-4.6-12.89-4.6Z" fill="#00428a" stroke-width="0"/><path d="M93.4,45.22v4.08s-17.92,2.75-17.92,18.83c0,0-1.42,12.75,20.25,23.75l26.83,14.75s19.33,8.75,25.25,24.33c5.92,15.58,2.08,36.42-17.58,46.33-8,4.08-15.17,4.5-17.75,4.83,0,0,6.5,3.25,6.5,11.17s-8.83,20.17-12.67,20.25h-2.25s-.33-.42.83-1.75c1.17-1.33,6.59-7.83,5.25-11.58,0,0-3.16,1.4-6.28,1.4s-9.17-2.7-9.17-9.81,5.39-10.03,7.33-10.03c0,0-3.02-.32-12.62-3.77-9.6-3.45-17.04-6.79-21.89,1.51h-2.59v-35.38h3.13s7.12,33.65,41.95,33.65c24.16-.11,27.07-20.06,27.07-23.73s0-14.88-18.01-25.13c-18.01-10.25-35.27-19.63-35.27-19.63,0,0-20.17-9.38-20.17-31.6s20.38-32.48,29.76-32.48Z" fill="#00428a" stroke-width="0"/><path d="M95.65,118.97l19.75,11.17v22.83s-.25,6.92,7.67,6.92v3.08h-35.17v-3.33s7.75.17,7.75-7.08v-33.58Z" fill="#00428a" stroke-width="0"/><path d="M116.44,11.39c0-6.04-4.9-10.94-10.94-10.94s-10.94,4.9-10.94,10.94,4.9,10.94,10.94,10.94,10.94-4.9,10.94-10.94Z" fill="#00428a" stroke-width="0"/></svg>