<svg xmlns="http://www.w3.org/2000/svg" viewBox="0 0 841.7 841.7"><path d="M39.9 311a20 20 0 1 1-20-20h.1c11 0 20 8.9 20 20h-.1Zm70.6 185c1 0 1 .3.2.8a18.2 18.2 0 0 0-6.4 24.7c3.7 6.7 9.4 9.4 17 8l6.1-1.3h1.3c.5.1 1 .7.8 1.2a41.8 41.8 0 0 1-10.8 19.8c-.2.3-.2.8.1 1l.2.1c2.9.9 6 .1 8.1-2 9.1-8.4 19.4-24.6 16.5-37.4a22.3 22.3 0 0 0-9.5-13.9c-1-.7-1-1 .3-1.2 15.4-1 31.6-5.2 42.8-14.9 11.7-10 16.3-25 14.3-40.5s-12.3-25.8-26.2-32c-14.4-6.4-29.6-8.9-45.3-12.2-5.6-1.2-11-2.9-16.3-5.2-5-2-7.6-5.5-7.7-10.3-.2-9.3 10-13.2 17.4-14 16.4-2 31 1.7 43.6 11.1l4.7 3.5c.5.4 1.1.4 1.6 0l24-20.2a.9.9 0 0 0 0-1.5 90.4 90.4 0 0 0-54.6-23.3c-6.3-.5-12.7-.5-19 0-30.3 2.6-61 20.4-53.7 55.8 3.1 15.2 15.3 24.2 29.1 29 14 5 27.2 7.1 41.5 10.3 5.5 1.2 10.9 3 16 5.4 5.6 2.7 8.6 6.6 8.1 13-.5 8.8-6.5 12.8-14.4 14.6a80 80 0 0 1-20.5 1.4 60.9 60.9 0 0 1-41.6-17.2.6.6 0 0 0-.8 0l-24.3 18.7c-.6.4-.8 1.2-.4 1.8l.2.2c14.5 17 35.8 24.2 57.5 26.6h.1Zm610.8-88.3c.2-2.1.5-4.3.5-6.6v-59.5c0-.4-.3-.8-.7-.8h-34.7c-.2 0-.4.2-.4.5v153a2 2 0 0 0 2.2 2.2h32c.8 0 1.5-.6 1.6-1.4v-43.3c0-.8.3-1.5.8-2l27.1-27.8a1 1 0 0 1 1.4 0l.1.2 45.5 70.5 2.6 3.4c.2.2.5.3.8.3h40.5c1 0 1.3-.4.7-1.2l-64.5-100c-.3-.5-.2-1 .2-1.5 5.5-5.3 11.5-11.3 18-18.1l29.3-30.3 3.6-4c.2 0 .2-.2.2-.4-.1-.2-.3-.2-.5-.1h-40.8a3 3 0 0 0-2.2 1L739 390.4c-6 6.2-11.5 12.2-16.5 18-.8 1-1.2.8-1-.4l-.2-.2ZM38 495.8V341.6c0-.5-.4-.9-.8-.9H2.8c-.4.1-.7.4-.7.9v154.1c0 .5.3.8.7.9h34.3c.4 0 .8-.4.8-.9h.1Zm291.3-83a.7.7 0 0 1 0-1.1 33.7 33.7 0 0 0 17.4-34c-2-21.3-19-32-38.4-35.3-4.6-.8-9.3-1.3-14-1.4H209a.5.5 0 0 0-.5.6c-.3 2.3-.4 4.7-.4 7v141.3l.3 5.6c0 .6.4 1 1 1.2h81.2c28.8-.2 58.8-11.6 62.1-44.3 2.7-17.1-7.1-33.6-23.4-39.4M243 370c0-.3.3-.7.7-.7h48.7c10 0 18 6 18.1 13.4v3c0 7.3-8 13.3-18 13.4h-48.7a.8.8 0 0 1-.8-.6v-28.4m0 57.4c0-.6.5-1 1-1l49.5-.2c12.5 0 22.6 8.2 22.7 18.4v3.7c0 10.2-10.1 18.4-22.6 18.5h-49.5a1 1 0 0 1-1-1v-38.6l-.1.2Zm218.4 34.3c.3 0 .6.3.8.6a24 24 0 0 1 1.7 3.3l11.6 28.8c.4 1.1 1.4 1.8 2.5 1.8h36.2c1 0 1.2-.3.8-1.1l-67-153.6c-.2-.6-.8-1-1.5-1h-33c-.5 0-1 .4-1.1.9l-67.5 153.1c-.5 1.3-.1 1.9 1.2 1.9h35.2c.8 0 1.5-.5 1.7-1.3 4-9.5 7.6-18.7 11-27.3.8-2 1.7-3.8 2.6-5.6.1-.3.4-.4.7-.4a4745.8 4745.8 0 0 0 64.2 0m-50.8-34.3c5-12 9.7-23.9 14.3-35.7a121 121 0 0 0 3.6-10.5c.4-1.1.8-1.1 1.2 0 6 16.4 12.6 33 19.9 50 .1.2 0 .5-.1.6h-39.8a.5.5 0 0 1-.5-.4v-.1l1.4-3.9ZM555 395.6c0-.8.2-.9.7-.3 3.3 4.7 6.5 9.4 10 13.9l66.8 86.4c.5.6 1.2 1 2 1h29c.9-.1 1.6-.8 1.6-1.7v-153c0-.5-.5-1-1-1h-33.6c-.4 0-.7.4-.7.8V403c0 9.9.7 19.9.2 29.8 0 2.1.2 4.3.8 6.5.2 1 0 1-.8.5l-.6-.6c-3.8-5.6-7.7-10.9-11.6-16l-62.4-81a3.7 3.7 0 0 0-2.9-1.3h-32.3l-.2.2v154.5c0 .5.4 1 1 1h33.7c.3 0 .6-.3.7-.6v-69.4c0-10.1-.7-20.6-.4-31Z" style="fill:#0038a8;stroke-width:0"/></svg>
