<svg xmlns="http://www.w3.org/2000/svg" viewBox="0 0 841.7 259.8"><path fill="#0038a8" d="M39.9 20A20 20 0 1 1 20 0a20 20 0 0 1 20 20Zm70.6 185c1 .1 1 .4.2.9a18.2 18.2 0 0 0-6.4 24.7q5.6 10 17 8 3.3-.6 6.1-1.3a2.6 2.6 0 0 1 1.3 0 1 1 0 0 1 .8 1.2 41.8 41.8 0 0 1-10.8 19.8.7.7 0 0 0 .3 1.1 8.3 8.3 0 0 0 8.1-2c9.1-8.4 19.4-24.6 16.5-37.4a22.3 22.3 0 0 0-9.5-13.9c-1-.7-1-1 .3-1.2 15.4-1 31.6-5.2 42.8-14.9 11.7-10 16.3-25.1 14.3-40.6s-12.3-25.7-26.2-32c-14.4-6.3-29.6-8.8-45.3-12.1a88.2 88.2 0 0 1-16.3-5.2Q96.2 97 96 89.8c-.2-9.3 10-13.2 17.4-14.1q24.6-3 43.6 11.2l4.7 3.5a1.3 1.3 0 0 0 1.6 0l23.9-20.2a.9.9 0 0 0 0-1.5 90.4 90.4 0 0 0-54.5-23.3 114 114 0 0 0-19 0C83.4 48 52.7 65.8 60 101.2c3.1 15.2 15.3 24.2 29.1 29 14 4.9 27.2 7.1 41.5 10.3a73.5 73.5 0 0 1 16 5.4c5.6 2.7 8.6 6.6 8.1 13-.5 8.8-6.5 12.8-14.4 14.6a80.1 80.1 0 0 1-20.5 1.4q-25-1-41.6-17.2a.6.6 0 0 0-.8 0l-24.3 18.7a1.3 1.3 0 0 0-.2 2c14.5 16.9 35.8 24.2 57.5 26.6Zm610.8-88.2c.2-2.2.5-4.4.5-6.7q.1-28.4 0-59.4a.8.8 0 0 0-.9-.9h-34.5a.5.5 0 0 0-.4.5v153a2 2 0 0 0 2.2 2.2h32a1.5 1.5 0 0 0 1.6-1.7v-43a2.8 2.8 0 0 1 .8-2l27.1-27.8a1 1 0 0 1 1.5.2l45.5 70.5a31 31 0 0 0 2.6 3.4 1 1 0 0 0 .8.4h40.5c1 0 1.3-.5.7-1.3l-64.5-100a1.1 1.1 0 0 1 .2-1.4q8.3-8 18-18.2l29.3-30.2 3.6-4a.3.3 0 0 0-.3-.6h-40.8a3 3 0 0 0-2.2 1Q761 76 739 99.4q-9 9.4-16.5 18c-.8 1-1.2.8-1.1-.4ZM38 204.8V50.6a.8.8 0 0 0-.8-.8H2.8a.8.8 0 0 0-.7.8v154.2a.8.8 0 0 0 .7.8h34.3a.8.8 0 0 0 .8-.8Zm291.3-83a.7.7 0 0 1 0-1.2 33.7 33.7 0 0 0 17.4-34c-2-21.2-19-31.9-38.4-35.2a85.1 85.1 0 0 0-14-1.5h-85.3a.5.5 0 0 0-.5.6c-.3 2.3-.4 4.7-.4 7q.2 66.1 0 141.3l.3 5.6a1.1 1.1 0 0 0 1.2 1.2h81c28.8-.2 58.8-11.6 62.1-44.3a35.9 35.9 0 0 0-23.4-39.4M243 79.2a.7.7 0 0 1 .7-.7h48.7c10 0 18 6 18.1 13.3v3c0 7.4-8 13.4-18 13.5h-48.7a.8.8 0 0 1-.8-.7V79.3m0 57.3a1 1 0 0 1 1-1l49.5-.1c12.5 0 22.6 8.1 22.7 18.3v3.8c0 10.1-10.1 18.3-22.6 18.4h-49.5a1 1 0 0 1-1-1v-38.5ZM461.4 171a1.1 1.1 0 0 1 .8.5 24.1 24.1 0 0 1 1.7 3.4l11.6 28.8a2.8 2.8 0 0 0 2.5 1.8h36.2c1 0 1.2-.4.8-1.2L448 50.8a1.5 1.5 0 0 0-1.5-1h-33a1.3 1.3 0 0 0-1.1.8l-67.5 153.2c-.5 1.2-.1 1.8 1.2 1.8h35.2a1.7 1.7 0 0 0 1.7-1.2q5.9-14.4 11-27.4c.8-2 1.7-3.8 2.6-5.6a.8.8 0 0 1 .7-.4q31 .1 62-.2a11 11 0 0 1 2.2.2m-50.8-34.2q7.4-18 14.3-35.8 2-5 3.6-10.4.6-1.8 1.2 0 9 24.5 19.9 50a.4.4 0 0 1-.4.6h-39.5a.5.5 0 0 1-.5-.6l1.4-3.8ZM555 104.6c0-.7.2-.8.7-.2 3.3 4.6 6.5 9.3 10 13.8l66.8 86.4a2.5 2.5 0 0 0 2 1h29a1.7 1.7 0 0 0 1.6-1.7V51a1 1 0 0 0-1-1h-33.6a.7.7 0 0 0-.7.7v61.3c0 9.9.7 19.9.2 29.8a22.6 22.6 0 0 0 .8 6.5c.2 1 0 1.1-.8.5a2.8 2.8 0 0 1-.6-.6q-5.7-8.3-11.6-15.9l-62.4-81a3.7 3.7 0 0 0-2.9-1.4h-32.3l-.2.2v154.5a1 1 0 0 0 1.1 1h33.6a.7.7 0 0 0 .7-.6v-69.4c0-10.1-.7-20.6-.4-30.9Z"/></svg>
