<svg xmlns="http://www.w3.org/2000/svg" viewBox="0 0 68 66.7"><path fill="#000093" d="M54.2 25.6c-8.8 14.1-32.6 13.7-40.6-1C8.3 15 14.3 4.8 23.3.5q2.6-1.3.6.8c-5.8 5.9-4.5 16 2.4 20.6C40 31.3 55.6 13.3 44 .8c-.7-.8-.6-1 .4-.6 9.8 4 16 15.5 9.8 25.4Zm9.5-3.4a26 26 0 0 0-8.2-17c-.4-.3-.5-.3-.2.2q6.8 9.4 3.1 18.7c-5 12.9-20.7 17.1-33.3 13.4-6.6-1.9-13-7.1-15.4-13.8q-3.4-9.2 3.2-18.3a.1.1 0 0 0 0-.1.1.1 0 0 0-.3 0q-10 10-7.4 24.3c5 18 24.6 25 41 18.7a27 27 0 0 0 17.5-26.1ZM2 31.5 1 25.7c-.2-1-.3-1-.5 0A50.6 50.6 0 0 0 0 33a34 34 0 0 0 47.4 30.7 34 34 0 0 0 19.9-38.4.2.2 0 0 0-.1-.2H67a.2.2 0 0 0-.2.2q-1.2 12.8-10.3 20.2-15.8 12.8-35.8 5.6Q7 46.2 2.1 31.5Z"/></svg>
