<svg xmlns="http://www.w3.org/2000/svg" viewBox="0 0 535.3 535.3"><path fill="#00a759" d="M535.3 267.6a267.6 267.6 0 1 1-535.3 0 267.6 267.6 0 0 1 535.3 0m-504-98.5Q5 232.9 14 303a.1.1 0 0 0 .2.1.7.7 0 0 0 .3-.1.3.3 0 0 0 .1-.2q16.2-44 32-88.3A141 141 0 0 1 65.5 179q16.3-22.5 41.8-30.6c24.8-7.8 50-3.6 75.1-1.9a1.1 1.1 0 0 0 1.2-.8q4-15 8.3-30a125.8 125.8 0 0 1 13.8-32.3q16.7-27.1 47.8-36.4a165 165 0 0 1 50.1-5.6l14.8.2h67.9c1 0 1-.3.1-.7a256 256 0 0 0-355 128.4m169.9 2.2a.9.9 0 0 1-1 .6l-37.6-3a155 155 0 0 0-20-.7c-39 2.3-64.3 29.6-77 64.6q-20.8 57.3-41.2 112.7a3.3 3.3 0 0 0 0 2.2A260 260 0 0 0 37.1 379a.3.3 0 0 0 .6 0L82 257.5a142.5 142.5 0 0 1 16.3-31.8q18.3-26.9 50.6-32.7a111.7 111.7 0 0 1 27.4-1.7q19.4 1.3 39.7 3a.9.9 0 0 0 .9-.6q5.3-20 10.8-38.7c7.2-24.5 21.4-45.8 45.1-56.4 15.5-7 33.4-9.3 50.1-9.3h127.3c.7 0 .7-.3.3-.7A270.2 270.2 0 0 0 425.4 66a3.7 3.7 0 0 0-2.3-.8q-62.9.3-119.2.3c-36 0-69.4 14.1-85.3 47.7a114.5 114.5 0 0 0-6.5 18.9q-5.6 20.6-10.9 39.2m33.6 47.7a1.1 1.1 0 0 1-1.2.8l-51-4c-40-3.1-68.3 23.4-81.4 59.3l-48 131.3a1.5 1.5 0 0 0 .2 1.4 255.3 255.3 0 0 0 16.2 22c.3.3.5.3.6-.1l44.5-121.8c5.8-16 9.4-25.8 17-37.8q16.7-26.2 47.7-30.6a121.8 121.8 0 0 1 26.2-.8l43.8 3.4a1 1 0 0 0 1-.7q5.8-21.3 11.7-42a98.3 98.3 0 0 1 21.1-40.7c12-12.6 28.1-18.5 45.5-20.5a118.1 118.1 0 0 1 13.1-.9l145.3-.3a.4.4 0 0 0 .4-.5q-7-11.5-15-22.5a2.5 2.5 0 0 0-2.1-1q-65.8.3-131.3.3-7.1 0-14.2.4c-29.5 1.3-58.6 15.3-71.7 43a117.8 117.8 0 0 0-6.5 19q-5.7 21.1-12 43.4m33.5 48a.7.7 0 0 1-.8.6l-56.7-4.5a93.6 93.6 0 0 0-37.3 2.4c-16.7 5.8-25.5 21.4-31.6 38L88.3 449.9a.5.5 0 0 0 .2.5 255.3 255.3 0 0 0 159 72.4q59.2 4.4 112.8-16.5a250.8 250.8 0 0 0 75-45.3q63-55.3 82-136.7 2.2-9.8 3.6-19.6 10.4-74.2-20.2-143a1.2 1.2 0 0 0-1.1-.8l-152.3.3a120.5 120.5 0 0 0-23.7 2.2c-22.8 4.6-32.6 21.9-38.5 42.8L268.2 267Z"/></svg>
