<svg xmlns="http://www.w3.org/2000/svg" width="250" height="50" fill="none" viewBox="0 0 1447 319">
  <path fill="#B61D29" d="M310.1 318.6H8.5l150.8-150.8 150.8 150.8ZM150.8 159.3 0 310.2V8.5l150.8 150.8ZM310.1 0 159.3 150.9 8.5 0H310Z"/>
  <path fill="#000" d="M413.4 174.8 402 187.3v33.5h-24.6v-123H402V154l50.4-56.2h31.4l-54.4 59.4 56.7 63.6h-32l-40.7-46Z"/>
  <path fill="#000" d="M581.1 130v90.8H558V210c-7.3 8-17.4 13-29.5 13-25.4 0-44.4-20.5-44.4-47.6s19-47.6 44.4-47.6c12 0 22.2 5 29.5 13v-10.9h23.2ZM558 175.3a24.6 24.6 0 0 0-25.1-25.2c-14.3 0-25 10.9-25 25.2a24.5 24.5 0 0 0 25 25.1 24.6 24.6 0 0 0 25.1-25.1ZM697.5 175.4c0 27-19 47.6-44.2 47.6a38.6 38.6 0 0 1-29.6-13v44.7h-23.2V130h23.2v10.9c7.3-8.2 17.5-13 29.6-13 25.3 0 44.2 20.5 44.2 47.6Zm-23.9 0a24.4 24.4 0 0 0-25-25.2c-14.2 0-25 10.9-25 25.2a24.5 24.5 0 0 0 25 25.1c14.5 0 25-10.9 25-25.1ZM708.5 102.1c0-8.2 6.5-14.4 14.6-14.4 8.3 0 14.7 6.2 14.7 14.4s-6.4 14.4-14.6 14.4c-8.3 0-14.7-6.2-14.7-14.4Zm3 27.8h23.2v91h-23.1v-91ZM786.8 151.1V189c0 7.7 4.3 11.6 12.5 11.6 4.6 0 8.5-1.4 12-3V219a34 34 0 0 1-17 3.9c-20.9 0-30.7-12.2-30.7-30.3V151h-14.4V130h14.4v-23h23.2v23h24.4v21.2h-24.4ZM920.5 130v90.8h-23.2V210c-7.3 8-17.5 13-29.6 13-25.3 0-44.4-20.5-44.4-47.6s19.1-47.6 44.4-47.6c12.1 0 22.3 5 29.6 13v-10.9h23.2Zm-23.2 45.4a24.6 24.6 0 0 0-25.1-25.2c-14.3 0-25 10.9-25 25.2a24.5 24.5 0 0 0 25 25.1 24.6 24.6 0 0 0 25.1-25.1ZM939.8 92.5H963v128.3h-23.2V92.5ZM1123.6 187.5c0 19.4-14.8 33.3-34.6 33.3h-61.8v-123h57.7c18.4 0 32.7 13.2 32.7 31.4 0 11.6-6.1 21.8-14.3 26.4 12 4.3 20.3 17.3 20.3 31.9Zm-72.5-67.6V147h27.8c7.3 0 13.3-5.8 13.3-13.5s-5.7-13.6-13.3-13.6H1051Zm47.2 63.3c0-8.5-6.6-15.3-15.3-15.3h-32v30.8h32c8.7 0 15.3-6.8 15.3-15.5ZM1233.3 130v90.8H1210V210c-7.3 8-17.5 13-29.6 13-25.3 0-44.4-20.5-44.4-47.6s19-47.6 44.4-47.6c12.1 0 22.3 5 29.6 13v-10.9h23.2Zm-23.2 45.4a24.6 24.6 0 0 0-25.2-25.2c-14.2 0-25 10.9-25 25.2a24.5 24.5 0 0 0 25 25.1 24.6 24.6 0 0 0 25.2-25.1ZM1340.2 163v57.8H1317v-50.2c0-12.3-7.8-20.4-20-20.4-12.6 0-21.2 8.2-21.2 20.7v50h-23.1v-91h23.1v10.2c7.2-8 17.1-12.3 29-12.3 21.3 0 35.4 13.9 35.4 35.3ZM1390 189.5l-8 8.7v22.6h-23.3V92.5h23.2v74.7l33.5-37.3h30l-39 42 40.2 49h-30.3l-26.4-31.4Z"/>
</svg>
