<svg xmlns="http://www.w3.org/2000/svg" width="64" height="64" viewBox="0 0 32 32"><path d="M16.75,17.15c2.86.44,3.25,2.14,3.48,3.71l0,.27,0,.19.14.93a62.24,62.24,0,0,1,.85,7.36,3.69,3.69,0,0,1-.12,1.06,2.06,2.06,0,0,1-1,.86,16.74,16.74,0,0,1-3.91.47h-.42a1.9,1.9,0,0,1-1.17-.77c-.66-1.06-.7-3.43-.71-6.2V23.86c0-2.93,0-5.46,1-6.37A2.17,2.17,0,0,1,16.75,17.15ZM10.5,23.54c.62,0,1,3,1.1,5.33.06,1.61-.11,2.28-.38,2.51q-.47-.15-.9-.33a5,5,0,0,1-.45-1.66C9.58,27.06,9.83,23.58,10.5,23.54ZM26.06,28.1a2,2,0,0,1-.16.52,16,16,0,0,1-1.67,1.16.38.38,0,0,1-.43-.12c-.78-1.36-1.07-5.63-.32-6C24.46,23.19,26.21,27.36,26.06,28.1ZM16,0A15.94,15.94,0,0,1,32,15.49v.43A15.69,15.69,0,0,1,28.2,26.1a2.1,2.1,0,0,1-.52-.61,17.2,17.2,0,0,1-2.81-8.73c0-.87,1.26-2.23,2.37-3.43a11.12,11.12,0,0,0,1.91-2.41c.37-.86.11-1.46-.3-1.66s-.92,0-1.31.64A5.5,5.5,0,0,1,25.76,12c-.92.75-2.37,1.5-2.37.52A11.5,11.5,0,0,1,24.6,10c.41-.85,0-1.46-.88-1.46-1.66,0-2.76,2.12-2.76,2.85s.35.84.35,1.69-1.82,2-3.54,2-2.61-.33-3-1.27l0-.13-.12-.34a16.84,16.84,0,0,0-1.21-3,3.93,3.93,0,0,0-1-1.1,1.9,1.9,0,0,1-.77-.95c-.05-.25-.07-.72.73-1.8s.92-1.89.52-2.31a1,1,0,0,0-.72-.25A3.21,3.21,0,0,0,10,5C8.7,6.3,9.41,7.52,9.41,8.06s-.23.84-1,1.57-1,1.36-1.11,3.88a8.62,8.62,0,0,1-.47,2.71,6.58,6.58,0,0,0-.35,1.92,7,7,0,0,0,.31,2.09,13.78,13.78,0,0,1,.45,2.45,14.85,14.85,0,0,1-.21,4.84L7,27.9,7,28a2.35,2.35,0,0,1-.26.73A15.82,15.82,0,0,1,16,0Z" fill="#f14635" fill-rule="evenodd"/></svg>
