<svg xmlns="http://www.w3.org/2000/svg" viewBox="0 0 384 384"><path d="M192,19A173,173,0,0,1,314.33,314.33,173,173,0,0,1,69.67,69.67,171.9,171.9,0,0,1,192,19m0-19C86,0,0,86,0,192S86,384,192,384s192-86,192-192S298,0,192,0Z" fill="#284583"/><path d="M218.42,304.32c-4.12,4.64-7.88,9.14-11.95,13.35-2.26,2.33-2.58,3.94-.09,6.4,3.91,3.84,7.41,8.09,11.37,12.48l-21.39,20.3L175,336.59c3.79-4.23,7.26-8.45,11.1-12.29,2.47-2.47,2.58-4.17.07-6.71-4.1-4.16-7.83-8.7-11.91-13.3l11.28-12.49c-5.77-.33-6.41-4.25-7.69-7.75q-13.32-36.65-26.71-73.25c-.46-1.27-.88-2.56-1.49-4.34,1.52-.11,2.68-.25,3.84-.26,7.12,0,14.26.24,21.37-.11,3.71-.18,5.19,1.29,6.37,4.54,4.2,11.64,8.68,23.17,13.06,34.73.48,1.27,1.05,2.51,1.93,4.63.82-1.68,1.39-2.65,1.79-3.69,4.8-12.61,9.64-25.2,14.29-37.87a16.49,16.49,0,0,0,1-6.94c-1.27-13.78,3.37-24.67,15-32.54,7.9-5.38,13.49-12.52,15.87-22a68.12,68.12,0,0,1,3.18-8.81c1.34-3.33,5-4.42,7.56-2,1.64,1.56,3.41,3.72,3.72,5.82,1.37,9.55,1.94,19.24-.78,28.63a20.27,20.27,0,0,1-5.42,8.61c-5,4.67-7.1,10.27-8.08,16.81a98.65,98.65,0,0,1-4.12,18.13c-8.37,23.68-17.15,47.21-25.72,70.81-1.17,3.22-2,6.62-7.36,6.73Zm-22.09,23.47c-6.2,6.34-6.12,9,.22,13.89C202.91,333.84,202.9,335.31,196.33,327.79Zm-59-101q0-21,0-42c0-8.32,1.07-9.2,9.31-7a8.57,8.57,0,0,1,4.16,3.21c1.92,2.6,3.31,5.58,5.15,8.25a21.81,21.81,0,0,0,4.43,5,8.47,8.47,0,0,0,13.85-5.65c.52-4.47.68-9,1.12-13.45.7-7,1.69-13.92,5.83-19.91,2.44-3.54,1.56-6.46-2.73-7.28a39.34,39.34,0,0,0-10.78-.53,552.06,552.06,0,0,1-77.91,1c-6.36-.35-12.71-1-19.07-1.2a18.9,18.9,0,0,0-7.28,1.32c-3.11,1.24-3.16,3.3-1.68,6.2,2,4,4.17,8.07,5,12.37,1.35,7.09,1.56,14.39,2.48,21.57.24,1.83.82,4.18,2.11,5.21,4.52,3.61,9.93,3,13.68-1.51a39.36,39.36,0,0,0,6.14-9.37c2-4.77,5.7-5.77,10.16-6,4.26-.2,4.65.11,4.66,4.49.08,29.5.05,59,.32,88.49,0,4.93-1.79,8.08-5.83,10.37a24.91,24.91,0,0,0-5.06,3.19A15.45,15.45,0,0,0,91.59,289c-1.26,3.35-.25,4.49,3.4,4.49q26.63,0,53.25,0c3.94,0,5-1.41,3.53-5a14.1,14.1,0,0,0-3.86-4.88,42.57,42.57,0,0,0-5.7-3.6,9.77,9.77,0,0,1-5.07-9.27c.21-14.62.08-29.25.08-43.87ZM282,292.26c-10.12,0-20.24.08-30.36,0a51,51,0,0,1-9.29-1c-3.23-.64-3.79-2.5-1.92-5.14a3.4,3.4,0,0,1,.73-.86c6.43-4.37,6.76-10.75,6.64-17.8-.34-19.61,0-39.24-.23-58.85a33,33,0,0,1,8-22.41c10.7-12.72,21.59-25.28,32.49-37.83,3.69-4.24,7.89-7.14,14.18-6.67s12.73-.38,19.1-.27a13.4,13.4,0,0,1,6.6,2c1,.63,1.81,3.43,1.25,4.27-5.52,8.22-5.77,17.67-6.75,27-.26,2.49-.55,5-.58,7.47,0,3.53-1.45,5.84-4.88,7.11-3.69,1.38-7.15,1.51-10.16-1.24a30,30,0,0,1-4.29-5.16c-1.69-2.48-3.14-5.11-4.7-7.67-2.24-3.69-3.41-3.88-6.6-.91q-6.86,6.41-13.61,12.9a16.44,16.44,0,0,0-2.61,3.16c-2.76,4.44-1.87,7.71,2.69,10.13C292,208,306.16,215.65,320.48,223c3.2,1.65,4.51,3.69,4.52,7.29.06,16.5.35,33,.55,49.49.09,7.53-4,11.71-11.68,11.75-10.62.07-21.24,0-31.87,0Zm-7.39-45.58c.47,9,.88,16,1.17,23,.09,2.1.94,3.4,3.06,3.43,5.45.08,10.92.2,16.36,0a5.1,5.1,0,0,0,5.3-5.59c-.08-8.58-.22-17.16-.55-25.73-.11-2.79-1.77-4.6-4.57-5.76-4.82-2-9.48-4.41-14.14-6.76-4.17-2.1-6.54-.83-6.61,3.8C274.56,238.28,274.61,243.52,274.61,246.68Z" fill="#284583"/><path d="M160.92,95.87c3.18,2.57,6,4.67,8.57,6.94,6,5.18,10.49,11.34,12.21,19.27,1.53,7.06.85,7.82-6.85,6.68-.5-12.1-9-18.9-17.64-25.72-2-1.61-3.39-1.82-5.39.11-6.87,6.62-13,13.59-13.34,23.86a2.87,2.87,0,0,1-1.86,2.06c-2.56.25-5.17.1-8.13.1-.11-14.55,6.63-25.15,15.76-33.12-4.91-4.92-9.7-9.71-14.52-14.55-6.26,9-17,14.93-26.43,22.46a99.72,99.72,0,0,0-9.21,8.22c-4.4,4.51-7.17,9.89-7.15,16.68H79.23c-.06-6.69,1.43-12.82,5.49-17.69A109.37,109.37,0,0,1,98.35,97.93c4.57-3.85,9.77-7,14.49-10.64,7.25-5.66,12.47-12.57,12.7-22.32.08-3.09,2.42-4.43,5.06-4.51,2.82-.08,5.27,1.26,5.39,4.52.38,10.18,6,17.24,13.66,23,1,.75,3.24,1.11,4.11.51,6.86-4.79,13.75-9.58,20.19-14.91,7.9-6.53,12.86-14.84,13.15-25.49.1-3.62,3.13-6.09,6.78-6.06s6.5,2.35,6.61,5.81c.38,12.17,6.74,20.93,15.84,28.05,5.61,4.39,11.44,8.49,17.34,12.47a4.49,4.49,0,0,0,4.12-.23c7.65-5.73,13.51-12.63,13.79-22.87.09-3.26,2.4-4.75,5.21-4.79s5.25,1.39,5.33,4.64c.27,9.6,5.37,16.42,12.49,22,4,3.17,8.34,6,12.39,9.08s8.11,6.26,11.82,9.77a30.74,30.74,0,0,1,9,16.14c1.53,7,.72,7.81-6.88,6.62-.58-12.77-9.83-19.62-18.9-26.59-5.15-4-10.38-7.81-15.54-11.76-3.67-2.81-7.29-5.7-9.74-7.62L243.42,96.11c9,7.6,15.64,18.33,15.87,33-3,0-5.75.12-8.52-.09-.59,0-1.54-1.25-1.57-2-.42-10.55-6.65-17.75-14-24.27-.76-.68-2.87-1.08-3.4-.59-5.42,5.1-11.05,10.08-15.76,15.79-2.21,2.67-2.57,6.88-4,11,.43-.28.24-.05,0,0-6.9.89-7.69,0-6.21-6.8,1.75-8.06,6.33-14.31,12.47-19.54,2.55-2.18,5.22-4.21,8.23-6.63-11.28-9.33-24.33-16.28-32.71-29.23C185.39,79.37,172.72,86.69,160.92,95.87Z" fill="#284583"/></svg>