<svg xmlns="http://www.w3.org/2000/svg" viewBox="0 0 157.4 169.9"><path fill="#051b4d" d="M42.6 53.3c12.4-8 26-9.6 40.5-8.7-8.3-4.6-23.4-2-45.3 7.6l-5-11.2A90.7 90.7 0 0 1 78 33.2c13.2 1.3 25.7 5 36.5 13a47.6 47.6 0 0 1 20.6 43.2 58 58 0 0 1-7.8 26.1V112c0-10.1.2-20.3-.2-30.4-.3-6.1-2.6-11.9-7.4-16.2l-1-.7-1 .1a48.3 48.3 0 0 1 6.3 31.7c-.5 5-1.9 10-3 15-.2 1-1 1.8-1.6 2.5-6.6 6.2-7 13.4-3.5 21.2l3.8 9.3c-1.2.4-2.2.9-3.2 1-10.8.9-21.5.7-31.7-3.8-4-1.8-7.7-4.5-7.7-9.6 0-2.2.8-4.6 1.9-6.5 2-3.5 4.6-6.6 6.6-10 2.3-4.1 1.9-7.7-.8-10.3-3.3-3.3-7.6-3.3-10.2.7-2.5 4-4.7 8.2-6.2 12.6a34.2 34.2 0 0 1-18.2 21.6c-12.1 5.6-24 11.6-36.2 17-4 1.8-8.6 2.3-14 3.6 2.4-7.8 4.3-14.4 6.6-20.9 3.7-10.2 7.6-20.3 11.4-30.4 2.2-5.6 6.1-7.8 12.1-6.8 6.8 1 13.2 0 19.1-2.8l-12.5-9.4c-1-.8-2.1-1.6-3.3-2.3-3.4-1.9-6.4-1.4-8.3 2-4.4 8-8.5 16.1-12.7 24.2l-1.7 3.1c-5.2-2.1-6-4.5-3.5-8.7 1.3-2.1 2.3-4.4 3.5-6.6l9.5-16.4c2.2-3.8 4-7.7 6.3-11.4C29.6 69 33 64.2 36 59l2.3-4.1c10 1.9 18 7 23.7 15.7 5.6 8.6 11.5 17 21.3 21.5l2 1c5.2 1.3 7.2 4.9 7.3 10 0 1.3 0 2.7.2 5 3.1-6.7.6-14.4-5-16-9.2-2.5-14.8-8.8-19.5-16.5A46.3 46.3 0 0 0 52.7 58c-3-1.8-6.4-3-10-4.8ZM29.8 36c1.2 2.5 2.4 2.7 4.7 1.8 11-4.2 22.2-6.4 34-6.7a75.8 75.8 0 0 1 45.7 11.3 51.8 51.8 0 0 1 23.4 34.7 58.8 58.8 0 0 1-8.6 41.6c-3 4.8-2.3 9.9 1.7 15.2 3.7 5 9.3 7.2 14.9 5.7-6.3-6.2-6-13.4-3.2-20.8a55 55 0 0 1 3.6-7.9 92.5 92.5 0 0 0 11.2-52.7 53.2 53.2 0 0 0-17-36.7A85.5 85.5 0 0 0 85.6.2c-15.8-1-31.1 1.9-46.2 6.2-6.8 2-13.3 4.8-20.3 7.3 3.8 8 7.4 15.2 10.7 22.4ZM48.6 163c7.3-1.2 14.8-1.9 22-3.8 13.3-3.4 26.4-7.4 40.3-7.5 2.6 0 5.2-.5 8-.8l-1.1-4.4-7.7.5a52 52 0 0 1-28.4-5c-7.8-4.4-9-11.8-3.2-18.7 1.2-1.3 2.6-2.5 3.4-4 1.4-2.5 2.8-5 3.4-7.7.6-3-.7-5.4-3.8-6.4-3-1-5.2-.1-6.5 2.7-2.4 5-4.6 10-6.8 15-2.5 5.4-5 10.8-10.5 14.1l-19.3 11.9 4.1.7c1.5.2 3 .3 4.5.7 4.2 1 5.3 3.3 3.4 7.2l-2.3 4.2.4 1.3Zm-2.3 7c18 .3 36-.1 53.9-3 6.4-1 12.8-2.2 19.3-2.2 5.4 0 10.8 1.6 16.2 2.5-1.1-3.4-3.5-6.5-7.4-7-5.4-.8-10.9-1-16.3-.6-4.5.3-8.9 1.8-13.3 2.7a62.4 62.4 0 0 1 25.7-5.4 10.3 10.3 0 0 0-5.5-2.8c-10.3-.9-20.3.5-30.4 3-12.3 3.3-24.5 7.2-37.4 6.6-5.1-.2-8 2.4-11.8 6.1h7Zm-8.2-75.3c-8-7.5-11.5-6.7-15 3.7v.5c3.6.7 7 1.7 10.3 2 3.4.2 6.9-.3 11.4-.6L38 94.7Z"/></svg>
