<svg xmlns="http://www.w3.org/2000/svg" width="40" height="40" fill="none"><path fill="#00008B" fill-rule="evenodd" d="M11 1h29v4.6h-1c0-1.6-1.2-2-2.2-2H11V1ZM6 5h31.2v4.7h-1c0-1.6-1.1-2-2.2-2H6V5Zm20.4 32.4-9.7-17.6 10-8.3c.8-.7 1.3-1.2 2.6-1.3v-1h-7.7v1c2 .1 1.8 1.2 1.2 1.7L11 21.7v-9.9c0-.4 0-1.3 1.3-1.4V9.2H.4v1.1c1.4.2 1.4.9 1.4 1.6V37c0 .5-.7 1.6-1.8 1.6v1h12.4v-1.3c-1.4 0-1.4-1-1.4-1.5V24.9l7.5 13.7H18v1h10.4v-1c-.7 0-1.5-.4-2-1.2ZM2.8 10.6h1.5v27.1H2.8v-27Zm9.1 13.1 8 14.8h1.5l-8.3-15.7-1.2 1Zm9.2-6.2h12c4.5 0 6.2 4.4 6.3 7.7 0 4-2.4 6.2-5.8 7.4a14.7 14.7 0 0 1-6.1 3.5l-.6-1a7.3 7.3 0 0 0 4.6-6.6c0-2-1-5.4-3.6-5.4H26v.3c2.2.3 3.4 2.8 3.4 4.8a8 8 0 0 1-2.9 6.3l-.3-.6c1.1-1.5 2.1-3.1 2.1-5 0-1.8-.6-4.6-4.4-4.6h-3.5L19 21.8h9.9c1.3 0 2.5.8 3.6 1.9-.4-2-2.1-3.6-4-3.6H18.2l3-2.6Zm7.7 1h3c4.8 0 5.6 11 2 13 .5-.8.9-4 .2-6-.1-3.3-2.4-6.5-5.2-6.7v-.2Z" clip-rule="evenodd"/></svg>