<svg xmlns="http://www.w3.org/2000/svg" viewBox="0 0 222.3 223.5"><path d="M111.6,104.5a.6.6,0,0,1-.9,0L59.5,53.3a.6.6,0,0,1,0-.8L111.8.2a.6.6,0,0,1,.9,0l51.1,51.2a.5.5,0,0,1,0,.8l-52.2,52.3Zm58.1,58.3,52.4-52.4a.6.6,0,0,0,0-.8L170.9,58.4a.6.6,0,0,0-.8,0l-52.4,52.4a.5.5,0,0,0,0,.7l51.2,51.3a.6.6,0,0,0,.8,0ZM52.2,164.9l52.3-52.3a.7.7,0,0,0,0-.9L53.3,60.6a.5.5,0,0,0-.8,0L.2,112.9a.5.5,0,0,0,0,.8l51.1,51.2a.7.7,0,0,0,.9,0Z" fill="#006b6d"/><path d="M110.8,223.3a.8.8,0,0,1-1.1,0l-51-51a.8.8,0,0,1,0-1.1l52.1-52.1a.9.9,0,0,1,1.2,0l50.9,51a.8.8,0,0,1,0,1.1l-52.1,52.1Z" fill="#dfc298"/></svg>