<svg xmlns="http://www.w3.org/2000/svg" viewBox="0 0 32.89 29.59" width="32.89" height="32.89">
    <path fill="#073e75" d="M.4 16a3.09 3.09 0 0 0 0 3l5.8 9.09a3.69 3.69 0 0 0 3 1.51h7.7L6.28 12.92C5.5 11.71 4.88 9.21 5.49 8ZM10 4.91a3.41 3.41 0 0 0-3 1.5l-.64 1c-.6 1.21 0 3.72.8 4.93L10.7 18a2.63 2.63 0 0 1 .12-2.35L17.6 4.9ZM16 0l10.61 16.68c.77 1.2 1.4 3.72.78 4.94l5.09-8a3 3 0 0 0 0-3l-5.8-9.1A3.63 3.63 0 0 0 23.75 0Zm6.08 14.08-6.8 10.73h7.64a3.43 3.43 0 0 0 3-1.51l.64-1c.61-1.22 0-3.73-.79-4.94l-3.58-5.63a2.64 2.64 0 0 1-.11 2.34"/>
</svg>