<svg xmlns="http://www.w3.org/2000/svg" width="41" height="40" fill="none"><path fill="#008375" d="M26.9 23.5c.2 1.5.1 3-.1 4.3-.1 1-.5 2-.7 3a18 18 0 0 1-4 7c-.4.4-.7.6-1.2.5a.2.2 0 0 1-.2-.2v-.9l.2-1a33 33 0 0 0 1.5-9.9c0-.7-.1-1.5-.5-2.2-.4-.6-1-1.2-1.7-1.4-.5-.1-.9 0-1.2.2-.1.1-.4.1-.5.4a2 2 0 0 0-.5.9c-.4 1-.2 2-.1 3 .1.7 0 1.6-.7 2.1-.5.4-1.2.4-2 .1-.6-.2-1.1-.7-1.5-1.2-1.1-1.7-1.1-4.2-.5-6.2.1-.4.2-.7.5-1.1.5-1.1 1.4-2 2.3-2.6a6.9 6.9 0 0 1 7.3 0 7 7 0 0 1 3.1 3.7c.3.4.4.9.5 1.5ZM41 7.9c0 .4-.4.7-.6 1a19.5 19.5 0 0 1-5.1 2.8c-5.4 2.2-11.6 3-17.4 3.7-3.5.5-6.8.7-10.3 1-1.2.1-2.6-.6-3.6-1.2a6.4 6.4 0 0 1-2.7-2.7c-.5-1-.5-2.3.4-3.2.6-.6 1.7-.5 2.6-.5 1 .1 2 .2 2.8.5l4.7.7c9 1.2 18.7.7 27.2-2.6l1.4-.5c.1.2.6.5.6 1Z"/><path fill="#D70035" d="M16.3 5.1c0 1.9 1.5 3.3 3.5 3.3 1.9 0 3.5-1.5 3.5-3.3l-.1-.9c-.2-.6-.6-.9-.6-1.6 0-1-1.2-1-2-1-.7 0-1.6.1-2.2.5-.5.2-1 .6-1.4 1.2-.5.4-.7 1.1-.7 1.8Z"/></svg>