<svg xmlns="http://www.w3.org/2000/svg" viewBox="0 0 60.32 30.14"><path fill="#1a9fda" fill-rule="evenodd" d="M16 13.66 29.37.32a1.08 1.08 0 0 1 1.54 0l13.34 13.34c.43.42.43 1.11 0 1.54L33.84 25.61l-3.71-3.71-3.7 3.71L15.99 15.2a1.08 1.08 0 0 1 0-1.54"/><path fill="#4db847" fill-rule="evenodd" d="M.32 29.37 13.66 16a1.08 1.08 0 0 1 1.54 0l10.41 10.44-3.71 3.7H0c0-.29.12-.57.32-.77M46.63 16 60 29.37c.2.2.32.48.32.77H38.37l-3.7-3.7L45.08 16a1.08 1.08 0 0 1 1.54 0"/><path fill="#d2ae6d" fill-rule="evenodd" d="m23.61 30.14 6.53-6.53 6.54 6.53H23.61z"/></svg>
