<?xml version="1.0" encoding="UTF-8"?><svg id="a" xmlns="http://www.w3.org/2000/svg" viewBox="0 0 53.54 54.15"><path d="M27.11,37.76h.15l.17.04.1.02h.05l-.06.17-.06.37-.03.2-.03.4-.02.39.02.35.03.28v.28l.04.03.03.02h.14l.08-.03.09-.02.08-.08.24-.12.15-.11h.08s.07-.05.07-.05h.08s.09-.03.09-.03l.14-.03h.13s.06.02.06.02l.03.03.11-.02h.1s.07,0,.07,0l.09.03.15.1-.07.06-.06.1-.02.02v.08h.06l.03.03.06.03.02.02.04.06v.03l.02.06v.05l-.02.06-.03.05-.03.07-.07.04-.14.06-.1.07-.11.07-.08.1-.03.04v.1s.08.05.08.05l.04.03.03.02h.05s.06,0,.06,0h.07s.11-.04.11-.04v-.04s-.01-.04-.01-.04l.03-.1.07-.03h.05s.07-.03.07-.03h.05l.06-.07.08-.1.06-.06.09-.04.09-.04.08-.04v.03s.04,0,.04,0l.03.04.06-.04.06-.07h.05l.03-.02h.04s.1.03.1.03l.06.06h.06s.07-.04.07-.04h.06l.08.03.06.03.02.03v.14s.06.05.06.05h.12l.03-.02h.06s.1,0,.1,0l.04.03.03.04-.02.05-.03.05v.03s-.04.04-.04.04l-.03.03v.05l.06.06h.21s.05,0,.05,0l.04.03.05.02.06.06.03.05.03.09v.17s.03.03.03.03l.03.03h.12l.03.02.03.04-.03.07v.07s.12.1.12.1l.1.07.04.05v.05l-.02.03v.04s-.09.08-.09.08l-.04.08.03.03.07.03.13.03.03.05v.07s.04.07.04.07v.06l-.1.15-.08.17.1.11.08.16v.06s-.03,0-.03,0l-.04.03-.05.05-.03.02v.06l.03.04.02.05.04.1.02.06-.03.06-.05.06-.15.08h-.06s-.08.03-.08.03l-.1.03-.04.03v.12l-.03.03-.03.07-.07.06-.05.03h-.06s-.06,0-.06,0l-.08-.02-.04-.03-.08-.03-.04-.03h-.06l-.03.02v.12l-.03.16-.05.03-.03.04h-.09s-.08-.06-.08-.06l-.03-.03-.06-.03-.05-.06-.06-.1-.1-.09-.03.1-.02.1-.04.03-.05.02h-.12l-.14-.16-.15-.14v.05s-.03.03-.03.03h-.05l-.09-.03-.03-.03-.09-.05-.06-.07-.26-.27-.04.05-.03.02-.03.03h-.07l-.04-.03-.03-.05-.03-.03-.02-.08-.03-.08v-.07l-.03-.08-.03-.1-.03-.07-.06-.1-.06-.07-.08-.1-.13-.13-.1-.05-.07-.06-.1-.08-.14-.03-.05-.02h-.06s-.06,0-.06,0l-.05.02-.09.05-.07.06-.06.08-.04.07-.04.1-.03.09-.03.18v.13s.04.1.04.1l.02.15.04.1.04.14v.22s.03.08.03.08l.03.07.03.05v.06s.03.05.03.05v.08s.06.06.06.06l.07.1.06.1.08.1.06.04.1.06.11.05.17.07.17.07.2.07.15.07.21.09.21.12.05.02.03.04.03.07v.09s-.06.08-.06.08v.12l.08.08.06.04.07.08.03.05.05.04.03.07v.04l-.08.06-.1.05.09.1.06.07v.05l-.02.03-.04.03-.06.03-.06.05h-.03v.1s.04.08.04.08v.08s-.03.08-.03.08v.03s-.09.07-.09.07l-.08.07-.06.03h-.04s-.1,0-.1,0l-.1-.04-.1-.07v.02l-.07.1v.2l.19.13.15.16v.04l.03.08.07.05.06.03.03.08v.07s-.06.07-.06.07l-.09.04-.1.05.04.03v.2l-.03.03-.04.03-.03.02h-.05s-.05,0-.05,0h-.04l-.03-.03-.05-.02h-.03s-.03,0-.03,0v.03s-.03.1-.03.1l-.04.07-.07.08-.07.06-.06-.03-.06-.06h-.22s.02.08.02.08l.03.04.05.05.04.06.02.03v.08s.04.03.04.03l.03-.03h.05l.03.02h.04s.08.06.08.06l.05.06-.13.12.05.05v.08s.05.04.05.04v.2s0,.13,0,.13h-.1s-.01.04-.01.04v.05l.04.1v.13l-.04.03-.03.05-.02.03-.04.05h-.08s-.04,0-.04,0h-.08s-.08-.04-.08-.04l.02.07-.02.11v.05l-.04.03-.02.03h-.06l.03.1v.1l-.03.13h-.01s-.06.06-.06.06h-.14l-.06.03-.02.03v.08s-.01.15-.01.15l-.02.05-.04.03-.03.03h-.06l-.06-.05h-.05s-.03-.06-.03-.06l-.03.1v.29s.03.1.03.1v.13l-.02.05v.03s-.06.04-.06.04l.03.05v.06s-.04.02-.04.02l-.18.06.04.14.02.18-.02.17v.14s-.09.2-.09.2l-.1.2-.08.35-.02.06-.04.08-.03.03-.02.04-.1.03-.05-.03-.03-.04-.05-.03-.03-.08v-.06s-.06-.17-.06-.17l-.06-.17-.15-.4-.02-.15v-.17s0-.18,0-.18l.03-.14-.07-.03-.1-.03-.04-.05v-.03l.03-.05-.06-.04v-.08s-.03-.03-.03-.03l.02-.1v-.1s.01-.28.01-.28v-.1s-.06.04-.06.04h-.03s-.06.06-.06.06h-.06l-.03-.03-.06-.03-.02-.05v-.26s-.08-.03-.08-.03h-.13l-.05-.05h-.04v-.08l-.02-.06v-.1l.02-.1h-.06l-.02-.03-.03-.03v-.05s-.01-.1-.01-.1v-.08s-.09.03-.09.03h-.05s-.03,0-.03,0h-.06s-.03,0-.03,0l-.08-.08-.03-.05-.03-.03v-.12l.03-.11v-.08s-.05,0-.05,0h-.06v-.25l.02-.08.03-.04v-.08s.05-.05.05-.05l-.05-.06-.06-.06.04-.06.08-.05.03-.02h.05s.03,0,.03,0l.03.03.03-.03.03-.05.06-.12.03-.05.06-.04v-.07h-.1s-.14,0-.14,0v.03l-.03.03-.03.02h-.05s-.14-.13-.14-.13v-.07s-.03-.1-.03-.1l-.03-.03h-.03s-.04,0-.04,0l-.03.02-.05.03h-.08s-.04,0-.04,0l-.06-.02-.03-.03v-.03l-.02-.06v-.08l.02-.06v-.03s-.17-.1-.17-.1l-.05-.06-.03-.03v-.04l.05-.08.06-.03.08-.05.03-.08v-.04l.15-.16.17-.12v-.22l-.03-.04-.02-.06-.03-.02-.1.07-.08.04h-.15s-.14-.11-.14-.11l-.06-.07-.02-.03-.04-.08v-.08l.06-.08v-.06s.01,0,.01,0v-.02s-.06,0-.06,0l-.04-.05-.12-.06-.02-.03v-.05l.08-.06.07-.11-.1-.05-.07-.06v-.04l.02-.07.05-.04.03-.05.09-.08.07-.04.03-.05.02-.03v-.05s.01-.07.01-.07l-.03-.08-.03-.1.03-.06.03-.04.05-.02.1-.08.1-.04.1-.03.11-.06.18-.07.17-.07.2-.07.15-.07.1-.05.08-.06.1-.05.05-.1.08-.1.08-.1.03-.05.03-.08v-.05s.01-.06.01-.06l.05-.05v-.07s.04-.08.04-.08l.02-.06v-.16s.03-.14.03-.14l.03-.1.03-.14.03-.11v-.22l-.03-.1v-.08s-.06-.1-.06-.1l-.03-.07-.06-.08-.1-.06-.07-.05-.12-.03h-.05s-.06.03-.06.03l-.13.03-.08.08-.1.06-.1.05-.06.07-.07.07-.07.09-.06.08-.06.09v.08s-.06.09-.06.09l-.04.08v.07l-.03.16-.11.1h-.06l-.05-.02-.03-.02-.03-.05-.15.14-.1.13-.07.07-.09.05-.04.03-.05.02h-.03s-.05,0-.05,0v-.03s-.04-.05-.04-.05l-.06.08-.06.06-.03.05-.08.08-.06.03h-.12l-.03-.02-.05-.03v-.1s-.06-.1-.06-.1l-.18.19-.18.17h-.06s-.03,0-.03,0l-.05-.04-.05-.03-.03-.16v-.14h-.06l-.07.03-.06.03-.08.03-.05.02h-.07s-.05,0-.05,0l-.07-.03-.1-.13v-.15l-.06-.03-.09-.03-.15-.03-.07-.05-.08-.03-.03-.06-.02-.06v-.07l.03-.09.05-.05v-.04h.04v-.02l-.02-.04-.06-.07-.04-.03h-.03s-.02-.04-.02-.04v-.03l.08-.16.1-.1-.09-.18-.09-.15v-.06l.02-.07.03-.07.03-.05h.06s.05-.03.05-.03l.07-.03.06-.03-.07-.08-.06-.08-.02-.04-.02-.03v-.05l.02-.05.12-.07.14-.1-.03-.07-.03-.07.03-.04.04-.02h.13l.03-.03v-.03s.03-.02.03-.02v-.15l.03-.1.03-.04.06-.06.04-.02.05-.03h.04s.08,0,.08,0h.14l.06-.06-.03-.08-.06-.07-.03-.05v-.09s.07-.03.07-.03h.14s.06.03.06.03h.1l.04-.05v-.05s.01-.07.01-.07l.02-.02v-.03s.13-.06.13-.06h.08l.06.03h.08s.04-.05.04-.05l.08-.03h.03s.03,0,.03,0l.05.02h.03l.07.07.06.04.03-.04.03-.04.1.04.09.04.09.04.07.06.05.1.09.07h.05l.12.03.04.04.03.04.02.05v.04l-.02.04.1.03h.09s.04,0,.04,0h.06s.03-.03.03-.03l.05-.03.06-.05v-.04s.01-.06.01-.06v-.04s-.11-.1-.11-.1l-.11-.07-.11-.07-.1-.06-.08-.04-.05-.07-.04-.05-.02-.06v-.05l.02-.06v-.03s.06-.06.06-.06l.03-.02.03-.03.04-.03h.06v-.08s-.03-.03-.03-.03v-.04s-.07-.05-.07-.05l-.03-.06.04-.05.1-.05.09-.03h.06s.2.02.2.02l.04-.03.05-.03h.13s.14.04.14.04l.1.02h.08s.06.05.06.05h.1s.15.11.15.11l.13.09.1.04.09.08.07.02.08.03h.13l.05-.02.03-.03.02-.08v-.48s.03-.35.03-.35l-.02-.39v-.4s-.05-.2-.05-.2l-.03-.19-.04-.18-.05-.17h.03l.13-.02.15-.03.15-.02v.02ZM27.11,16.4l.15-.03h.27s.05-.01.05-.01l-.06-.17-.06-.38-.03-.2-.03-.4-.02-.39.02-.37.03-.28v-.27l.04-.02.03-.03h.14s.08.03.08.03l.09.03.08.05.09.06.3.18.15.07h.17l.14.06h.13s.06-.02.06-.02l.03-.04.11.03h.1l.07-.03.09-.02.08-.05.07-.03-.07-.06-.03-.06-.04-.03v-.05s-.01-.07-.01-.07l.06-.02h.03l.06-.03.02-.03.04-.05v-.04l.02-.05v-.06l-.02-.06-.03-.07-.03-.04-.07-.03-.14-.07-.1-.07-.11-.1-.08-.07-.03-.05v-.11s.08-.04.08-.04l.04-.02.03-.02h.05s.06-.01.06-.01h.07s.11.03.11.03v.05s-.01.03-.01.03v.06s.03.01.03.01v.04s.07.03.07.03h.12s.05.03.05.03l.06.07.08.08.06.08.09.05.09.03.08.04v-.04s.04-.02.04-.02l.03-.03.12.1.05.02.03.02.04.02.04-.02.06-.05.06-.06.06.03.07.03h.06l.08-.03.03-.03h.03l.02-.03v-.14s.07-.06.07-.06h.11s.03.03.03.03l.06.02h.05l.06-.02.06-.06-.02-.06-.03-.03v-.04s-.04-.04-.04-.04l-.03-.03v-.08s.04-.02.04-.02h.06s.1-.01.1-.01h.07s.05,0,.05,0l.04-.05h.05s.09-.11.09-.11l.03-.09v-.18s.03-.02.03-.02l.03-.02.04-.03h.08s.06-.04.06-.04l-.03-.06v-.1s.12-.07.12-.07l.1-.08.04-.06v-.04l-.02-.03v-.06s-.09-.06-.09-.06l-.04-.08.03-.04.07-.02h.06s.07-.05.07-.05l.03-.06v-.04s.04-.07.04-.07v-.06l-.03-.09-.07-.08-.04-.04-.03-.04v-.04s0-.05,0-.05l.1-.14.08-.1v-.04l-.03-.06h0s-.04-.03-.04-.03l-.05-.03-.03-.03v-.08h.03s.02-.08.02-.08l.04-.07.02-.08-.03-.06-.05-.05-.06-.05h-.1s-.05-.06-.05-.06l-.08-.03h-.1s-.04-.03-.04-.03v-.12l-.06-.13-.07-.04-.05-.03-.06-.02-.06.02-.08.03h-.04s-.08.04-.08.04l-.04.05h-.06l-.03-.05v-.1l-.03-.14-.08-.08h-.1l-.07.04-.03.04-.06.04-.05.03-.06.13-.1.09-.03-.1-.02-.12-.04-.03-.1-.03-.07.02-.14.14-.15.14v-.02s-.03-.05-.03-.05h-.1l-.04.05-.03.02-.09.06-.06.04-.12.14-.14.14-.04-.03-.03-.05h-.02s-.08-.01-.08-.01l-.04.03-.06.1-.02.04-.03.08v.09l-.03.08-.06.18-.06.1-.06.07-.08.1-.13.13-.1.07-.07.03-.1.06-.14.06-.05.02h-.12l-.05-.03-.09-.05-.13-.14-.04-.08-.04-.07-.03-.1-.03-.18v-.13s.04-.12.04-.12l.02-.12.04-.13.04-.14v-.15l.03-.13.03-.07.03-.06.03-.13v-.04l.05-.06.07-.1.06-.11.08-.08.06-.08.1-.03.11-.05.17-.09.17-.06.2-.08.15-.06.12-.05.1-.04.1-.05.1-.06.08-.08.03-.06v-.08s-.06-.1-.06-.1v-.11l.08-.08.06-.05.07-.06.03-.06.05-.05.03-.04v-.07l-.08-.06-.1-.06.15-.15v-.05l-.02-.03-.04-.02-.06-.04-.06-.03-.03-.04v-.03l.04-.14v-.04l-.04-.14-.08-.08-.08-.06-.06-.03h-.15l-.09.03-.1.06v-.03l-.07-.06v-.22l.19-.15.15-.14v-.06l.03-.07.07-.04.06-.03.03-.07v-.09s-.06-.04-.06-.04l-.09-.07-.1-.04.04-.05v-.19l-.03-.03-.04-.03-.03-.03h-.05l-.1.03-.02.02h-.05s-.06.01-.06.01v-.03s-.03-.07-.03-.07l-.04-.1-.07-.07-.07-.07h-.03l-.05.05-.04.03-.1.02-.12-.03.05-.1.1-.1v-.07l.02-.03.03-.04h.03s.08.01.08.01l.04-.03.08-.03.05-.06-.13-.13.05-.07v-.04s.05-.07.05-.07v-.18s0-.13,0-.13h-.05s-.05,0-.05,0v-.05s-.01-.04-.01-.04l.04-.11v-.13l-.07-.07-.02-.05-.04-.02-.05-.03h-.03s-.04-.01-.04-.01l-.16.06.02-.08-.02-.1v-.05l-.04-.03-.02-.03h-.06l.03-.1v-.15s-.03-.08-.03-.08v-.03s-.07-.03-.07-.03l-.06-.02h-.14l-.03-.12v-.16l-.02-.03-.06-.07h-.06l-.06.04-.05.03-.03.02-.03-.1v-.29s.03-.1.03-.1v-.12l-.02-.05v-.03s-.06-.05-.06-.05l.03-.04v-.07s-.13-.06-.13-.06h-.1s.05-.17.05-.17l.02-.17-.02-.17v-.15s-.09-.19-.09-.19l-.1-.2-.08-.34-.02-.05-.04-.07-.03-.05-.02-.05-.04-.03h-.08l-.03.03-.03.05-.05.05-.03.07v.05s-.06.17-.06.17l-.06.17-.08.2-.07.19v.07l-.03.16v.26s.04.16.04.16h-.07s-.1.06-.1.06l-.04.04v.04l.03.04-.06.05v.03l-.03.1.02.07v.1s.01.3.01.3v.09s-.06-.02-.06-.02l-.03-.03-.06-.04h-.06l-.03.03-.06.04-.02.03v.28h-.15l-.06.02-.1.06v.32h-.05l-.02.03-.03.03v.06s-.01.1-.01.1v.07s-.09-.03-.09-.03l-.05-.03h-.09s-.03.04-.03.04l-.05.02-.03.05-.03.03-.03.04v.13l.03.1v.1s-.05.01-.05.01h-.06s0,.22,0,.22l.02.08.03.07v.04s.05.07.05.07l-.05.06-.06.07.04.06.08.03.03.03h.11s.03.03.03.03l.03.03.03.06.06.11.06.1-.1.03-.14-.02v-.03l-.03-.02-.03-.03h-.05l-.14.14v.1s-.03.07-.03.07l-.03.03h-.1s-.1-.04-.1-.04l-.03-.02h-.04l-.06.03-.03.03v.03l-.02.07v.07l.03.1-.09.04-.09.07-.08.07v.06l.05.07.06.03.08.04.03.07v.06l.15.14.17.15v.22l-.03.03-.02.03-.03.03-.1-.06-.08-.03h-.15l-.14.1-.06.07-.02.04-.04.05v.1l.06.09v.04s.01.02.01.02h-.01s-.1.08-.1.08l-.05.04-.06.02-.02.03v.05l.08.06.07.09-.1.06-.07.06v.07l.02.04.05.05.03.06.09.06.07.05.03.05.02.03v.06s.01.04.01.04l-.03.11-.03.08.03.06.08.08.1.06.31.14.18.06.17.08.2.06.15.1.1.04.08.03.1.08.05.08.16.21.03.06.03.05v.06s.01.07.01.07l.05.06v.07s.04.07.04.07l.02.06v.15s.03.14.03.14l.1.37v.22l-.04.1v.09s-.06.07-.06.07l-.03.08-.06.06-.1.08-.07.05-.06.03h-.1l-.07-.02-.13-.06-.08-.06-.1-.03-.1-.06-.06-.08-.07-.06-.07-.1-.06-.07-.06-.1v-.09s-.06-.1-.06-.1l-.04-.07v-.1l-.02-.07v-.05s-.04-.04-.04-.04l-.08-.08h-.11s-.03.06-.03.06l-.03.03-.09-.06-.06-.08-.08-.06-.03-.08-.06-.04-.09-.06-.04-.02-.05-.05h-.08v.05s-.04.02-.04.02l-.12-.14-.17-.14-.06-.02-.06.02h-.03s-.05.04-.05.04v.11s-.06.11-.06.11l-.09-.1-.1-.12-.07-.07-.06-.04-.04-.04h-.1l-.04.03-.05.05-.03.14v.15h-.06l-.07-.05-.06-.03h-.08s-.05-.04-.05-.04l-.07-.02-.05.02-.07.03-.05.04-.04.07v.18l-.07.02h-.09s-.07.04-.07.04l-.08.05h-.07s-.08.06-.08.06l-.03.05-.02.06v.08l.03.07.05.07h.01s.02.04.02.04v.02l-.03.06-.05.03-.04.02h-.02s-.03.07-.03.07v.03l.08.11.1.14-.18.34v.06l.02.07.03.04.03.06.06.04h.05s.07.03.07.03l.06.04-.13.14-.02.06-.02.04v.03l.02.06.12.08.14.07-.03.1-.03.06.07.03h.06s.1.06.1.06v.02s.03.03.03.03v.15l.03.1.09.09h.04s.05.06.05.06h.04s.08,0,.08,0h.14s.01.01.01.01l.03.02.02.03-.03.08-.06.08-.03.03v.09s.07.03.07.03l.05.02h.04l.05-.02.06-.02h.03s.06-.01.06-.01h.02s.03.06.03.06v.06s.01.05.01.05l.03.06h.03l.03.03.06.03h.08l.06-.03.08-.03.04.06.08.05.03.02.03-.02.05-.02.03-.03.07-.04.06-.05.03.03.03.06.1-.04.09-.03.09-.05.07-.08.05-.08.09-.07.05-.02h.06s.06-.01.06-.01v-.03s.04-.04.04-.04h.03s.02-.07.02-.07v-.03l-.02-.05.19-.03h.1s.03.03.03.03l.05.02.06.04v.06s.01.05.01.05v.05s-.11.07-.11.07l-.11.1-.11.07-.1.07-.08.03-.05.04-.04.07-.02.06v.06l.03.1.1.1h.05l.06.02v.07s-.03.05-.03.05v.03s-.07.06-.07.06l-.03.06.04.03.1.05.09.02.06.03h.1l.1-.03.04.04.05.03h.13s.14-.07.14-.07h.18l.06-.03.1-.04.15-.09.13-.1.1-.05.09-.05.07-.03.15-.03h.06l.05.03.03.02.02.07v.48s.03.37.03.37l-.02.4v.4s-.05.2-.05.2l-.03.18-.04.19-.05.17h.16s.15.01.15.01l.15.03h0ZM39.34,14.26l-.25-.2-.12-.09-.07.16-.32.46-.26.33-.3.28-.46.43-.2.18h-.05s-.06-.03-.06-.03l-.03-.04-.04-.05-.05-.08v-.07s-.04-.08-.04-.08l-.03-.11-.05-.19-.05-.17v-.07s-.06-.08-.06-.08l-.04-.05-.05-.07-.07-.13-.11-.1-.1-.05-.05-.06-.05-.07-.15-.09-.1-.03-.08-.02v.08l-.02.1v.06s-.06.03-.06.03h-.04l-.05-.03h-.15l-.05.03h-.04l-.03.06-.05.05v.2l.05.15.03.14.03.12v.13l-.06.1h-.17l-.1-.06-.02-.03-.05-.07-.06-.08.06-.02.02-.04.03-.03v-.05s0-.08,0-.08l-.03-.04-.05-.05-.03-.08v-.1l.02-.1v-.08l-.03-.1-.03-.1-.05-.08-.05.02-.04-.02-.02-.06v-.09s0-.03,0-.03l-.05-.05v-.03l-.03-.03h-.06s-.09-.01-.09-.01l-.03-.05-.05-.08-.03-.03-.07-.03-.05-.02h-.03s0,0,0,0l-.03.02-.05.03-.06.03-.05.02-.03-.02-.06-.06v-.05l-.03-.06-.04-.03-.03-.03h-.07l-.04.02-.03.06-.02.12-.03.06-.04.02h-.03l-.02-.03-.04-.02-.11-.1-.03-.05-.06-.02h-.05s-.09-.01-.09-.01h-.04s-.03.03-.03.03l-.06.04-.05.05-.05.03-.04.02h-.06l-.05-.02h-.03s-.06-.08-.06-.08h-.05l-.06.16-.15-.03-.14-.05-.09.06-.03.05v.22h-.07l-.08-.02-.04-.03-.07-.02h-.04l-.08.03-.06.02-.03.05-.04.18-.06.16-.16.04-.16.03-.02.02v.03s-.01.03-.01.03v.08s.01.08.01.08h-.01s-.02.04-.02.04v.02s-.06.01-.06.01h-.06l-.08.03-.04.05-.03.08v.14l.03.06.04.08.03.07.06.08v.05h-.03s-.03.08-.03.08l-.03.04v.1s-.01.06-.01.06v.07s.09.08.09.08l.07.03.07.03.07.02.05.03.03.03.03.05-.1.09-.08.1v.12l.03.03.06.03h.04s.08.03.08.03h.12l.14-.02h.12l-.06.1-.05.07v.07l.02.04.03.05.07.03.19.02.22-.02v.05s-.04.03-.04.03l.04.04.03.02.1.03.09.02h.09l.18-.04h.18v.07l.02.06h0s0,.03,0,.03l.02.03.03.02h.1l.11-.04.12-.12h.08s.1-.06.1-.06l.07-.02.1-.03.11-.04h.3l.11.03.1.03h.11s.11.08.11.08h.06s.05.07.05.07l.03.03.04.07.02.09v.18l-.02.11-.06.08-.03.1-.04.07-.06.08-.1.06-.1.06-.1.08-.13.04-.1.1-.14.09-.1.1h-.07l-.06.02-.06.05-.05.03-.06.03-.08.02-.12.03h-.24s-.08,0-.08,0l-.09-.02-.12-.04-.17-.08-.16-.06-.2-.08-.17-.06-.1-.06-.11-.05-.1-.03-.11-.02h-.07s-.04,0-.04,0h-.03l-.08.08-.04.1-.05.04-.04.03-.05.02h-.03l-.21-.03h-.05s-.07.03-.07.03l-.1.06.03.18-.12.02-.07.02-.03.03-.02.03v.04l.03.08.02.06v.03s0,.03,0,.03l-.02.02-.12.06-.05.03v.03s-.04.1-.04.1l-.02.1.02.1.03.06v.06l.04.02.03.03.1.04h.11v.1l-.03.04-.02.03-.13.14-.22-.03h-.2s-.06.03-.06.03l-.06.02h-.09l-.07-.02-.06.02-.04.03v.05s-.01.06-.01.06l.03.1.03.1-.05.02-.06.03h-.01s-.03.06-.03.06l-.03.03-.02.05v.04l.02.05.06.06.09.03.06.03.02.03v.03l-.08.16-.02.1.02.1.03.03h.1l.08.06.08.11-.06.03-.06.02h-.12l-.07.03h-.09s-.01-.03-.01-.03l-.02-.02h-.03s-.06-.03-.06-.03h-.07s-.08-.01-.08-.01v.18l-.06.02h-.08s-.03.03-.03.03l-.06.04-.1.1-.08.07.03.05.03.03-.03.03-.03.05-.08.06-.07.03-.03.05v.28s.06.03.06.03l.07.03h.08s-.17.18-.17.18v.05s0,.05,0,.05l.03.03-.07.08-.1.06-.03.04v.05s-.03.06-.03.06l.02.05.06.1h.05v.02s.01.03.01.03v.05s-.07.08-.07.08l-.07.06h-.04s-.02.09-.02.09v.03l.03.06.03.04h.07s.07.03.07.03h.03l-.04.07-.06.08-.08.06-.06.08-.1.03-.08.1-.02.06v.03s-.03.04-.03.04l-.05.02-.03.05v.06l.05.09.05.06-.14.06-.12.13-.12.14-.1.1-.07.2-.1.2-.08.16-.08.17-.03.03-.02.1v.04s-.03.06-.03.06l.02.05.06.03.05.02.03-.02h.06l.07-.03h.05s.15-.11.15-.11l.17-.09.2-.08.2-.09.11-.1.14-.1.1-.13.08-.13.05.04.14.05.04-.02h.03s.02-.06.02-.06h.09s.03-.03.03-.03l.03-.05.08-.06.04-.1.05-.05.07-.07.06-.07.1-.05v.12s.03.05.03.05l.03.05h.15l.03-.05.07-.08.08-.04h.1l.04.09.04.03h.1l.05-.03.07-.02.07-.09.06-.1.03.04.03.02.1-.04.07-.07.05-.06.06.15.04.03.03.02h.05s.14.01.14.01l.09-.03.03-.08.07-.09h.03s.03-.06.03-.06l.03.03.05.03.23-.23v-.05l.04-.04.02-.08h.08l.07-.02v-.2s-.06-.04-.06-.04l-.05-.02v-.05l.02-.04.02-.02.03-.04v-.21s.04-.04.04-.04l.1.08.05.07.02.08.03.06.09.02.1-.02.07-.03.07-.05h.05l.03.02.03.06.02.05.03.03v.06l.04.02h.14l.04-.02.03-.03.03-.05.02-.04v-.03h.1s.13.04.13.04h.04l.1-.03v-.15l-.04-.1.03-.06.05-.03.02-.06v-.1l-.02-.07-.03-.05-.02-.04v-.07l.02-.06.05-.06.07-.06.03-.03h.05l.04-.02h.05v.11s.07.12.07.12l.08.08.08.02h.2l.06-.02h.04s.02-.04.02-.04l.06-.05.03-.12h.13l.07.03h.1l.02-.03v-.08s0-.14,0-.14l.22.03.03-.05v-.04s.04-.08.04-.08v-.16s-.03-.09-.03-.09v-.04l.02-.07h.04s.03-.06.03-.06l.1-.06.05-.03.03-.03v-.14l-.06-.22-.09-.2-.06-.18-.07-.19-.08-.17-.08-.19-.03-.1-.04-.08v-.22l.04-.12.02-.13v-.06s.03-.08.03-.08l.03-.04.04-.05.02-.08.03-.04.03-.06.06-.07.08-.13.09-.1.04-.12.16-.19.07-.1.08-.05.15-.13h.08s.1-.04.1-.04l.11-.02.08.02h.09s.06.03.06.03l.04.05.05.06.03.04.05.13.04.1.02.1v.22s0,.09,0,.09v.1l-.02.11v.1s-.06.07-.06.07l-.05.11v.07s-.07.07-.07.07l-.06.06-.02.05v.06s0,.13,0,.13l.04.03h.05s.1.01.1.01v.37s0,.1,0,.1v.09s.03.06.03.06l.02.05h.03s.03.04.03.04h.07s0,.39,0,.39l.03.05.05.04.06.02h.03l.1-.03.08-.06v.32s0,.05,0,.05l.04.18.05.02h.03s.07.01.07.01l.22-.18h.03s.04.08.04.08l.02.04.03.05.03.08v.06s.06.08.06.08h.03s.08.03.08.03h.07l.08-.02h.06l.04-.08h.04s.03-.01.03-.01l.07.04.1.05.05.05.1.03h.13l.06-.03.05-.05.04-.14v-.03l.03-.06.07-.02h.04l.06.02h.03s.02,0,.02,0h.03l.04-.02.03-.3.17-.07.18-.04.05-.05.04-.06v-.06l.02-.07-.05-.1-.03-.14h.2l.03-.02.05-.03.03-.03v-.05s-.02-.14-.02-.14l-.04-.17h.09s.07-.04.07-.04v-.05l-.06-.06v-.03s-.04-.05-.04-.05v-.08h0s.03-.06.03-.06l.1-.08v-.07s.03-.1.03-.1v-.04l-.02-.03v-.06s-.03-.04-.03-.04l-.08-.06-.04-.06-.03-.02v-.09l.07-.06.1-.02h.07s.03-.06.03-.06l-.03-.07-.09-.1h-.06l-.03-.03-.03-.04-.02-.04.02-.04.06-.1v-.03s0-.04,0-.04v-.06s-.04-.05-.04-.05l-.05-.05-.07-.04-.05-.03v-.16s-.03-.03-.03-.03l-.04-.02h-.04s-.04-.01-.04-.01l-.1-.02h-.05v-.12s-.08-.03-.08-.03l-.1-.03-.07-.05h-.1l-.12.03h-.11l-.05-.03-.03-.05-.03-.03h-.16l-.02.02-.05.03v.05s-.16-.1-.16-.1l-.05-.03-.03-.04v-.1s0-.06,0-.06v-.08s.04-.01.04-.01l.05-.03h.26s.13.04.13.04l.14.05.06.03h.08l.07-.03.08-.05v-.03s.04-.03.04-.03l.02-.06v-.15l-.03-.03-.02-.05.02-.03h.03l.03-.02.05-.03h.07s.08-.01.08-.01v-.07l-.03-.1-.06-.08-.05-.08-.08-.05-.06-.04v-.13l-.24-.15-.1-.05-.04-.06-.07-.03-.1-.02-.15-.04-.18-.05-.27-.1-.06-.02-.06-.05-.05-.04v-.05s0-.05,0-.05l.16-.21.43-.47.29-.26.3-.26.17-.14.15-.1.15-.1.17-.08-.1-.13-.2-.24h0ZM14.64,14.42l-.18.25-.1.12.14.08.17.1.15.1.17.14.3.26.28.27.45.48.16.2v.06l-.05.1-.05.04h-.07s-.1.06-.1.06l-.08.03-.11.02-.17.04-.18.05-.08.02-.07.04-.05.05-.07.04-.13.08-.1.1-.02.04-.03.06-.06.05-.12.12-.03.08-.03.1v.07l.06.03h.08l.04.02h.03s.02.03.02.03l.04.03-.04.03-.02.06v.13l.02.06.04.04.03.02.06.05.08.03h.05l.07-.03.15-.05.13-.02.13-.03.12.02h.05s.03.03.03.03v.08s.01.06.01.06l-.03.1-.04.07-.15.1-.05-.04v-.05s-.06-.01-.06-.01h-.14l-.03.03-.06.03-.03.05h-.12l-.1-.03h-.08s-.1.04-.1.04l-.1.03-.08.03.02.07v.06h-.1s-.11.01-.11.01l-.06.03-.02.04-.02.09v.08l-.07.03-.05.04-.06.03-.04.07v.04l-.02.03.02.03v.02s.04.06.04.06l.05.05v.04s-.08.1-.08.1h-.04s-.06.03-.06.03l-.03.03-.02.03-.02.08.02.04.03.02h.06s.1.01.1.01l.07.07v.09l-.03.02-.08.06-.04.06-.02.03-.04.06-.02.05v.1l.02.02v.05s.04.03.04.03l.06.08.05.04v.02l.03.03-.03.05-.02.04v.03s-.04.03-.04.03l-.02.04v.04l.06.03.08.03-.02.16-.06.15.05.03.03.05.03.02h.04s.1.03.1.03h.09v.06l-.06.12-.02.05v.06l.06.12.05.07.18.03.18.06.02.15.03.16h.03s.01.01.01.01l.03.02.03-.02h.1s.04,0,.04,0l.02.02v.03s.01.02.01.02l.02.03v.04l.04.1.05.04.06.03h.14l.07-.03.1-.04.07-.03.08-.07h.04l.02.02.06.08h.06s.15.01.15.01h.05s.13-.25.13-.25l.14-.15.09.1.12.07h.05l.06-.02.06-.06v-.06s.01-.2.01-.2v-.12s-.01-.13-.01-.13l.1.06.07.03h.1s.05-.04.05-.04l.04-.05.02-.22v-.2l.03.02h.02l.06-.03v-.02l.03-.04v-.07s.03-.09.03-.09v-.1l-.03-.18v-.18h.13l.03-.02.03-.03v-.17l-.03-.06-.04-.06-.06-.06-.03-.08-.06-.19-.05-.1v-.08s-.03-.11-.03-.11v-.2l.02-.11.04-.11.03-.1.05-.13v-.05s.07-.06.07-.06l.05-.03.14-.05h.2l.08.03.08.02.08.06.09.05.06.06.09.1.08.1.06.1.06.13.07.11.1.1.06.07v.06s.06.05.06.05l.03.08v.04s.04.05.04.05l.02.08.03.06.03.14v.1s.01.22.01.22l-.03.1-.04.09-.06.18-.08.19-.08.17-.07.19-.03.09-.06.1-.05.13v.1s-.03.07-.03.07l.02.03v.05s.03.01.03.01l.07.07.08.03.06.04.03.03v.2s-.01.14-.01.14v.08s.04.05.04.05l.02.06.1-.03.1-.02v.14l.02.08.03.03h.1l.07-.03h.12l.03.06.03.1h.03s.04.04.04.04l.06.03h.3s.1-.08.1-.08l.02-.04.03-.1.02-.09h.13l.05.03.06.08.05.05v.07s-.02.1-.02.1v.06s-.04.1-.04.1v.05l.03.07.04.03.03.06v.1s-.04.07-.04.07v.08s.06.01.06.01l.03.03h.06l.1-.03.13-.03v.08s.06.04.06.04v.04s.06.01.06.01l.03.02h.06l.04-.02h.04s.03-.06.03-.06l.03-.1v-.02s.06-.05.06-.05h.06l.06.05.07.03h.1s.09,0,.09,0l.03-.07v-.07s.03-.03.03-.03l.06-.05.03-.03.04-.03.04.04v.07s.01.06.01.06l.02.06v.05s.03.03.03.03v.07l-.05.05-.05.02v.14s-.01.07-.01.07h.18l.02.08v.05s.04.04.04.04l.05.07.03.06.04.03.05.06.06.02.03-.04h.03s.03.02.03.02l.05.02.04.09.06.08.07.03h.04s.06.01.06.01l.14-.04.03-.04.06-.15.06.08.08.07.04.02h.06l.05-.03.06.08.08.09.04.02.05.03h.06s.04,0,.04,0l.05-.03.04-.07.04-.03h.06l.09.05.06.1.04.02h.14l.03-.04.02-.05v-.12s.09.04.09.04l.07.08.08.06.06.06.06.11.05.06.03.03.09.04h.04l.03.04.02.02h.03s.03,0,.03,0l.1-.03.07-.03.07.12.25.25.13.07.37.19.17.08.15.09.18.06h.1l.02-.03h.03v-.12l-.04-.14-.02-.03-.09-.17-.06-.16-.21-.4-.06-.1-.13-.15-.12-.09-.13-.1.04-.06.02-.09v-.04s0-.02,0-.02v-.05h-.06v-.06l-.02-.03v-.05l-.04-.03-.07-.06-.09-.04-.07-.08-.08-.05-.04-.1-.07-.05.07-.02h.04l.12-.06.02-.06v-.03l-.06-.1-.08-.06-.04-.08v-.07h.01v-.03l.05-.03.04-.07.02-.04-.02-.05-.03-.06-.1-.11-.1-.08.03-.03.02-.04-.02-.05v-.03s-.11-.08-.11-.08l-.04-.06.08-.02.07-.03.03-.03.02-.03v-.06s.03-.05.03-.05v-.04l-.02-.07-.03-.06-.06-.04-.1-.07-.03-.03-.02-.04v-.03l.06-.05-.07-.08-.11-.1-.05-.04-.12-.03h-.07v-.2h-.08l-.1.02h-.02s-.05.04-.05.04v.02s-.03.03-.03.03l-.06-.02-.09-.03h-.14l-.1-.04.04-.05.05-.06v-.02s.07-.03.07-.03h.07s.06-.05.06-.05l.03-.07v-.11l-.06-.08-.05-.08v-.04l.05-.05h.03s.06-.03.06-.03h.04s.06-.08.06-.08l.02-.04v-.03l-.02-.07-.06-.06-.04-.03-.03-.03h-.06l.06-.1.03-.12-.02-.06v-.04s-.06-.04-.06-.04h-.06s-.15.02-.15.02l-.08-.02-.03-.04-.07-.02h-.05s-.1.02-.1.02l-.11.03h-.05s-.06,0-.06,0l-.08-.05-.04-.09-.03-.03-.02-.05v-.03s0-.05,0-.05h.1s.1-.04.1-.04l.05-.03v-.03s.06-.07.06-.07v-.06s.01-.24.01-.24l-.07-.08-.02-.03-.09-.05h-.06v-.15s.03-.08.03-.08v-.05l-.03-.06-.08-.02h-.12l.03-.1v-.1l-.1-.06h-.11s-.12-.01-.12-.01h-.1s-.08.01-.08.01l-.04-.03-.03-.06-.06-.08-.03-.08h-.07s-.06-.03-.06-.03l-.06.02-.2.04-.22.1-.16.08-.18.07-.17.06-.18.08-.13.05-.18.03h-.12l-.1-.02-.14-.03h-.06s-.08-.04-.08-.04l-.05-.03-.04-.05-.08-.02h-.04s-.08-.06-.08-.06l-.05-.04-.12-.08-.1-.1-.22-.1-.2-.16-.05-.08-.07-.07-.06-.1v-.07s-.04-.1-.04-.1l-.03-.1.07-.24.03-.04.06-.06.07-.02.1-.05.12-.03.1-.03.1-.03h.21l.1.03.1.02.1.03.1.03.08.03.09.03.06.06.06.05.04.03h.17l.05-.03v-.05s.01-.1.01-.1l.18-.02.19.03h.09l.09-.02h.06s.03-.03.03-.03h.05s.01-.04.01-.04v-.08h.18l.22-.02.06-.03.06-.09-.03-.06-.03-.08-.06-.08h.13s.14,0,.14,0h.17l.07-.03.05-.03.02-.03v-.05s.01-.03.01-.03l-.08-.13-.09-.1v-.03l.05-.04h.06s.05-.04.05-.04l.09-.03.06-.03.09-.07v-.24l-.02-.05-.06-.05-.03-.03v-.04l.05-.08.06-.06.03-.1.03-.06v-.14l-.02-.07-.04-.05-.1-.02h-.05s-.05-.03-.05-.03h-.03s-.01-.04-.01-.04v-.17s.01-.03.01-.03v-.04s-.03-.01-.03-.01l-.15-.03-.15-.02-.13-.37-.04-.05h-.05s-.06-.04-.06-.04h-.12s-.06.04-.06.04l-.06.02h-.08v-.22s-.03-.03-.03-.03l-.03-.04-.06-.03-.14.04-.16.03-.02-.07-.03-.08h-.04s-.03.03-.03.03l-.04.03-.06.03h-.07l-.1-.05-.08-.09-.1-.03h-.09l-.09.03-.04.05-.06.04-.05.07h-.05s-.01.04-.01.04h-.06l-.05-.04v-.03s-.01-.11-.01-.11l-.02-.05v-.03s-.06-.02-.06-.02l-.06.02-.03.03-.03.02-.03.06-.03.04-.03.04-.02.03h-.03s-.06,0-.06,0l-.06-.03-.04-.05h-.11s-.08.05-.08.05l-.03.04-.04.06-.03.05-.08.02h-.1l-.02.03-.02.03v.07s-.03.1-.03.1v.06l-.04.02h-.05v-.02s-.04.1-.04.1l-.05.07-.03.1v.09l.02.1v.1l-.03.07-.04.05v.03s-.04.03-.04.03l-.02.03v.03l.02.05.03.03v.05s.08.01.08.01l-.13.16-.06.06-.1.03h-.13s-.03-.06-.03-.06v-.18s0-.12,0-.12l.03-.14.05-.16.02-.06v-.06l-.02-.06-.05-.07-.06-.06h-.06s-.04-.03-.04-.03h-.05l-.04.02h-.06s-.03.04-.03.04l-.05-.03-.02-.03v-.05h-.01v-.11l-.02-.06h-.07l-.1.04-.08.04-.07.05-.06.06-.06.1h-.09l-.1.12-.07.12-.06.08-.04.06-.03.06-.03.1-.05.16-.04.16-.02.12v.08s-.06.08-.06.08l-.03.08-.05.04-.03.05-.06.03h-.06l-.2-.19-.45-.43-.28-.28-.27-.32-.12-.16-.12-.14-.08-.17-.08-.15-.13.07s-.26.22-.26.22ZM39.51,39.8l-.23.21-.14.1-.08-.16-.09-.15-.12-.16-.12-.17-.28-.3-.25-.3-.48-.44-.2-.17h-.05l-.03.04-.05.03-.05.06-.03.06-.03.1-.04.09-.02.09-.04.17-.03.17-.08.15-.05.08-.06.06-.06.13-.1.12-.03.02h-.08l-.1.12-.07.06-.07.05h-.11s-.08.03-.08.03v-.16s0-.03,0-.03l-.03-.06h-.03s-.05,0-.05,0l-.06.02h-.03s-.06,0-.06,0l-.14-.04-.03-.05-.03-.06v-.05s0-.08,0-.08v-.06s.04-.15.04-.15l.05-.14v-.25l-.02-.05-.03-.04-.04-.02h-.08l-.09.03-.05.03-.03.03-.06.08-.04.08h.04l.05.1v.04s0,.08,0,.08l-.04.04-.03.05-.03.06-.02.05v.06l.03.1v.1l-.06.19-.06.07h-.04s-.05,0-.05,0v.16s-.05,0-.05,0v.07s0,0,0,0l-.03.03-.1.02h-.05l-.03.06-.05.06-.04.05-.07.03h-.04s-.05,0-.05,0h-.03s-.04-.04-.04-.04l-.06-.03-.06-.02-.03.02-.02.03-.03.03-.03.1-.06.02-.03.03-.05.02-.06-.02v-.03s-.03-.04-.03-.04v-.14s-.04-.03-.04-.03l-.04-.02h-.03l-.03.02-.09.09-.06.04-.03.04-.06.03h-.08s-.06,0-.06,0h-.03l-.09-.07-.12-.09h-.06s-.02,0-.02,0l-.06.02h-.03s-.04.06-.04.06h-.06l-.02-.06-.03-.08-.17.03-.12.03h-.06s-.04-.04-.04-.04l-.03-.1v-.18l-.14.03-.1.04h-.07l-.07-.03-.1-.06-.04-.18-.06-.17-.15-.05-.17-.02h-.02v-.07s0-.02,0-.02v-.18h-.03l-.04-.04h-.08s-.03,0-.03,0l-.05-.02-.03-.03v-.03s-.04-.05-.04-.05v-.13l.03-.1.04-.06.1-.15v-.05l-.02-.03-.06-.05-.03-.06v-.23s.24-.13.24-.13l.16-.12-.08-.1-.1-.12v-.04l.02-.05h.02s.06-.06.06-.06l.06-.03h.46l-.08-.08-.03-.1v-.07s.03-.06.03-.06l.1-.03.17-.02h.2v-.06s.02-.05.02-.05l.06-.03h.06s.09-.03.09-.03h.1l.17.02h.2v-.14l.03-.03.03-.02h.15l.06.03.07.05.07.06.06.03.18.06.1.05.2.03h.2s.13-.03.13-.03l.09-.05h.1s.13-.06.13-.06l.06-.03.04-.06.08-.08.02-.09v-.2l-.03-.08-.05-.1-.03-.08-.05-.08-.06-.06-.1-.1-.1-.06-.1-.08-.12-.04-.25-.19-.04-.04-.08-.04-.06-.03h-.06s-.1-.07-.1-.07l-.05-.03-.08-.02-.12-.03-.12-.02h-.12l-.08.02h-.1s-.11.05-.11.05l-.18.07-.19.06-.16.1-.17.06-.1.06-.13.03-.1.05h-.1s-.12,0-.12,0h-.01s-.03-.03-.03-.03l-.05-.06-.06-.08-.03-.06h-.05s-.33,0-.33,0l-.08-.03-.04-.02-.05-.03.02-.08v-.12s-.13,0-.13,0l-.09-.02v-.03s-.01-.08-.01-.08l.03-.15v-.05h-.02s-.04-.03-.04-.03l-.08-.03-.03-.05-.03-.03-.03-.04v-.06s-.01-.1-.01-.1v-.09s.03-.06.03-.06l.06-.1.03-.03.1-.03h.11v-.06l-.03-.1-.03-.02-.06-.08-.05-.05h-.07s-.05,0-.05,0l-.12.03-.03.02-.06.02-.12-.04-.03-.04-.05-.02-.1.02h-.13l-.04-.03-.02-.05v-.06l.03-.1.03-.1-.04-.02-.1-.06v-.05s-.02,0-.02,0l-.02-.05v-.09l.03-.05h.03s.05-.03.05-.03l.04-.03.1-.05v-.04l-.07-.08-.03-.08v-.1s0-.08,0-.08l.12-.03.05-.05.04-.03.08-.08-.04-.06h-.2l-.06-.05h-.1v.04s-.06.04-.06.04l-.04.03-.08.02-.07-.02v-.09l-.02-.08-.06-.03h-.06s-.06-.05-.06-.05l-.06-.04-.18-.16.06-.04v-.03l-.02-.05-.03-.03-.09-.05-.1-.09v-.23l.04-.05.03-.03.08-.03.06-.03-.16-.16v-.04s0-.05,0-.05l.05-.03-.1-.06-.07-.1-.04-.03-.02-.04v-.06s0-.05,0-.05l.06-.1.02-.02h.01l.03-.04v-.04l-.06-.08-.07-.06-.05-.03v-.06s-.01-.03-.01-.03v-.07s.06-.01.06-.01l.06-.05h.07s.03-.01.03-.01l-.03-.08-.13-.14-.08-.05-.1-.06-.05-.06-.03-.02-.05-.06v-.08h-.06v-.07s0-.05,0-.05l.06-.15-.06-.03-.07-.05-.25-.25-.07-.1-.08-.22-.1-.19-.08-.17-.08-.15-.03-.05-.03-.08v-.09s0-.06,0-.06l.02-.02.04-.03h.08l.06.02.07.03h.05l.15.09.17.1.4.18.12.08.13.1.1.14.09.13.06-.05.07-.03h.08l.03.03v.05h.14s.01.03.01.03l.05.03.06.06.03.1.06.06.09.07.06.08.1.05v-.17l.05-.05.05-.02h.04l.07.02.03.03.06.08.07.06h.06l.03-.02h.02s.03-.07.03-.07l.04-.03.07-.02.04.02.1.06.07.08.06.09.05-.05h.09l.16.17.02-.07.03-.08.03-.03.05-.03h.04l.05-.02h.04l.06.02h.05s.03.03.03.03l.04.07.07.08.03.05h.03s.03.01.03.01l.03-.03v-.03s.18.17.18.17l.05.08.03.03.03.06v.08h.18v.08l-.02.09v.06s-.06.05-.06.05h-.03l.02.08v.06s.04.14.04.14l.03.12.05-.05.06-.04.03-.03.02-.05v-.06s.06-.06.06-.06l.09-.02h.07l.08.03.08.06h.07l.02-.06h.03s0-.08,0-.08l.02-.03v-.04s.04-.02.04-.02h.06s.03-.01.03-.01h.07s0,.03,0,.03l.06.04.03.03v.06l.02.03.1-.03.13-.03h.04l.1.05v.15l-.02.1v.06s.06.03.06.03l-.02.21-.03.22.14.14h.03s.04.03.04.03h.08l.02-.1.04-.09.03-.04.05-.03.03-.03.06-.02h.26l.06.03v.05s.06.01.06.01l.03.08v.06s.03.02.03.02h.02l.04-.02.12-.03h.08s.04.03.04.03l.02.08v.14l.1-.03h.11l.03.03.02.06v.08s.03.03.03.03l-.02.12v.1s0,.04,0,.04v.05s.04.03.04.03l.06.03.08.06.06.05h.03v.28s-.15.32-.15.32l-.08.17-.06.17-.09.19-.06.17-.03.1-.05.1v.1s0,.1,0,.1l.04.12.03.14v.07l.03.07.03.05.04.03.02.08.03.06.03.08.04.04.1.13.09.09.04.12.1.11.05.1.08.1.06.05.1.06.07.06.09.02.09.03.08.02.1-.02.1-.03.05-.02.05-.03.05-.06v-.05s.07-.12.07-.12l.06-.22.02-.1v-.2l-.02-.1v-.1s-.04-.1-.04-.1l-.05-.1-.03-.09v-.07s-.14-.13-.14-.13v-.04s0-.06,0-.06l-.02-.07.02-.04.03-.05h.03s.06,0,.06,0l.05-.02v-.17s0-.19,0-.19v-.19s0-.05,0-.05l.03-.05.02-.02.04-.03h.06v-.18s0-.22,0-.22l.05-.05.05-.03h.03s.06,0,.06,0l.07.03.1.05v-.38l.02-.12.03-.05h.03s.05-.03.05-.03h.06l.1.08.11.1.13-.18.13-.21.06-.02h.16l.06.03.07.08h.03l.1-.06.07-.05.06-.03.08-.03h.21s.05.08.05.08l.04.07v.11l.03.03.06.03h.06l.06-.03h.03l.07.03.03.16v.15s.04.03.04.03l.03.02.06.02h.15s.1.03.1.03l.04.06.02.06.03.06v.05s-.05.14-.05.14v.1s.08,0,.08,0l.07.04h.05s.05,0,.05,0l.03.05.03.03-.03.15-.05.17.08.02.07.03-.03.08-.03.05-.03.06v.06h.02s.03.08.03.08l.09.09v.05s.03.06.03.06v.07l-.02.07-.03.04-.03.03-.04.07-.11.1v.04l.02.04.03.03h.04l.05.02h.09s.03,0,.03,0v.05s0,.08,0,.08l-.06.06-.04.03-.05.02-.03.04-.04.05v.06s.04.06.04.06l.03.03v.02l.02.03v.03l-.02.06-.03.05-.06.03-.06.06-.05.02v.07s0,.08,0,.08l-.05.03v.03s-.06.02-.06.02h-.12s-.08,0-.08,0v.08s0,.03,0,.03l-.07.05-.1.03-.08.05h-.1l-.09-.03h-.11l-.04.03-.05.04-.06.03h-.12l-.05-.03v-.03s-.04-.04-.04-.04l-.1.06-.07.04-.05.08-.03.1v.07l.02.06.04.02h.07s.1.03.1.03l.12-.03.14-.03.14-.05h.15l.06.02.06.04.05.02.03.1v.15l-.02.04-.03.03.03.03.02.04h.04s.03,0,.03,0l.08.02h.09l-.02.07-.03.1-.06.09-.04.06-.06.06-.06.05-.02.06v.05s-.12.1-.12.1l-.21.11-.05.07-.08.03h-.07s-.17.04-.17.04l-.17.08h-.09l-.1.03-.1.05h-.06s-.1.12-.1.12l-.02.03v.05l.17.22.44.46.27.28.32.26.16.14.16.1.3.18-.07.12-.23.24h0ZM14.51,39.66l-.2-.24-.08-.13.15-.08.15-.1.17-.12.15-.12.3-.27.28-.26.44-.46.17-.2v-.05l-.02-.06-.04-.03-.06-.05-.16-.08h-.09s-.09-.04-.09-.04l-.18-.05-.17-.03-.07-.03-.06-.05-.08-.03-.08-.08-.12-.06-.1-.08-.02-.06v-.04s-.06-.07-.06-.07l-.08-.06-.04-.06-.06-.1-.03-.07-.02-.08h.15s.05,0,.05,0l.04-.02.04-.03h.03s-.03-.08-.03-.08l-.04-.03v-.15l.02-.05.03-.03.03-.05.06-.04.06-.02h.08l.07.02.28.1h.23l.06-.02.03-.04.02-.06v-.06l-.03-.1-.06-.07-.08-.06-.08-.03v.03s-.04.03-.04.03l-.05.03-.06.02h-.01l-.05-.02-.06-.03-.03-.05-.06-.03-.1.02h-.2l-.08-.02-.1-.04-.1-.05.02-.03h.01v-.08h-.17l-.04-.03-.03-.02h-.05s-.01-.03-.01-.03l-.02-.07v-.08l-.04-.03-.08-.05-.04-.06-.03-.03-.04-.06v-.07h.04s.03-.06.03-.06l.04-.04v-.1s-.04-.03-.04-.03h-.03l-.07-.03-.03-.03-.04-.03-.03-.05-.02-.06.02-.04.09-.04h.1s.07-.03.07-.03v-.04s.01-.02.01-.02l-.03-.06-.07-.08-.07-.03v-.06s-.03-.05-.03-.05v-.03s-.01-.1-.01-.1v-.05s.03-.03.03-.03v-.05l.08-.06.04-.05.02-.03v-.03l-.02-.05v-.03s-.08-.06-.08-.06v-.05s-.01-.03-.01-.03l.15-.06-.03-.15-.03-.14.02-.06v-.02s.11-.05.11-.05h.17s.02-.09.02-.09l-.06-.1-.02-.07.02-.05v-.06l.04-.06.04-.05.2-.03.16-.07.02-.16.03-.15.04-.02.02-.02h.04l.06.02h.08l.03-.02h.01s.02,0,.02,0v-.06l.02-.06.03-.08.04-.03.06-.05h.06s.1,0,.1,0l.06.05.07.03.1.04.07.05h.03l.07-.08h.07s.07-.03.07-.03h.08l.07.02.03.04.03.04.04.07.03.06.03.08v.06s.06.02.06.02l.03.02.07-.08.14-.1h.06s.05.01.05.01l.06.09v.04s.03.07.03.07v.07l-.02.07v.24l.08-.06.1-.03h.04l.06.02h.04s.03.07.03.07v.4h.08s.03.02.03.02l.03.05v.07s.04.11.04.11v.08l-.03.2.03.19h.05l.1.03.04.03v.1l-.02.05v.03s-.07.08-.07.08l-.14.23-.02.1-.03.09-.03.1v.32l.02.1.06.22.06.13.03.04.08.08.06.03.07.03h.1l.2-.03.08-.05.08-.03.08-.06.15-.15.07-.11.08-.1.06-.1.08-.13.13-.18.03-.05.03-.08.02-.06.05-.03.03-.08v-.04s.01-.08.01-.08l.03-.1.03-.15.02-.1-.02-.08-.06-.22-.08-.19-.06-.17-.07-.17-.1-.17-.04-.12-.03-.1-.05-.1v-.1s-.01-.15-.01-.15l.08-.08.15-.07.03-.05v-.03s.01-.06.01-.06v-.08s-.04-.12-.04-.12l.03-.05v-.06s.03-.08.03-.08l.03-.03.1.02h.1s.01-.13.01-.13l.02-.08h.01s.1-.01.1-.01h.07s.1.05.1.05v-.02l.04-.02v-.03s.03-.09.03-.09l.04-.03.03-.03.05-.02h.06s.1-.03.1-.03l.1.02.06.03h.04s.06.08.06.08l.07.09v.12h.04l.03-.03h.06s.03-.03.03-.03l.08-.06.04-.06v-.22s-.04-.05-.04-.05l-.03-.06.03-.04v-.05s.07-.12.07-.12v-.07s-.03-.09-.03-.09l.02-.06.03-.03.05-.03h.06l.1.04.12.02v-.03l.02-.05.03-.05.03-.03h.08s.06-.01.06-.01h.04s.05.01.05.01v.05l.03.03v.06s.04.07.04.07l.03.03.04-.02.07-.05.1-.04h.19s.02.08.02.08v.06l.07.09.1.06.02-.04v-.13l.02-.06v-.03s.04-.03.04-.03l.02-.05v-.05h-.05l-.03-.03v-.03s-.03-.04-.03-.04v-.08s-.01-.08-.01-.08h.17s.01-.08.01-.08l.06-.12.05-.05.09-.1.07-.07.03.05h.08l.05-.05.06-.1.03-.05.04-.03h.08l.06-.03.05.03h.06v.03s.07.03.07.03l.02.06.03.08.04-.06.08-.06.04-.04h.04s.04.01.04.01l.05.03.03-.08.09-.1.04-.03h.06s.1-.01.1-.01l.06.03v.03s.06.05.06.05h.04l.1-.05.07-.06.05-.06.04-.02h.03l.06.03.05.05v.05s.03.06.03.06v.04l.08-.04.07-.06.06-.07.06-.07.05-.08.1-.1.04-.02.06-.02h.04l.02-.05v-.03s.04-.01.04-.01h.06s.08.06.08.06l.08.03.06-.14.1-.12.14-.11.12-.08.4-.18.16-.1.14-.07.06-.02.08-.02.06-.03h.08l.05.03.02.04v.04s0,.03,0,.03l-.02.06-.03.08-.02.05-.07.15-.1.16-.1.21-.06.19-.1.14-.11.1-.14.12-.12.07.09.16v.08l-.03.03h-.05s-.01.06-.01.06v.04l-.03.04-.03.04-.06.06-.08.05-.09.05-.06.07-.08.08-.03.08h.11s.06.03.06.03v.03s.06.05.06.05v.06l-.06.06-.08.1-.06.06v.06l.02.03h.04s.08.09.08.09v.06l-.03.1-.05.06-.07.08-.06.04v.06s.03.02.03.02l-.02.05v.03s-.09.07-.09.07l-.08.07h.08s.08.07.08.07l.03.02.03.03v.19l-.03.09-.15.1-.05.04-.02.03v.03h.02l.06.03-.1.1-.1.09-.04.04-.05.03h-.07l-.07.02v.18h-.15s-.06-.03-.06-.03h-.03s-.01-.03-.01-.03l-.02-.06-.1.02-.07.06h-.1l-.1.03.04.1.09.07h.1l.03.03.02.1v.09l-.05.09-.06.06v.05l.02.03.09.03h.03l.05.03h.03s.03.06.03.06v.14l-.03.03-.03.05h-.03s-.1.04-.1.04l.05.1v.14s.01.03.01.03v.06s-.04,0-.04,0l-.08.02-.06-.02h-.09s-.06.02-.06.02l-.06.05h-.2l-.21-.02-.06.03-.06.06-.03.05-.03.1v.02l.12.02.07.05.05.03.03.03.02.04.03.07v.09s0,.1,0,.1l-.02.07v.05s-.08.06-.08.06l-.09.03h-.03s-.01.03-.01.03v.12s.04.08.04.08v.09h-.04l-.1.02h-.1s.02.12.02.12v.1l-.04.03-.07.03h-.11s-.1,0-.1,0h-.2l-.03.03-.03.04-.05.1-.04.06-.03.03-.05.02h-.1l-.11-.04-.11-.04-.1-.05-.1-.04-.16-.08-.2-.06-.17-.08-.17-.06-.12-.05-.09-.03-.08-.02-.12.02-.12.03-.14.02-.07.03-.1.03-.04.04-.07.02-.08.03-.05.05-.06.03-.12.1-.09.08-.14.07-.09.06-.12.08-.15.15-.05.06-.04.08-.05.1v.1s-.03.08-.03.08l.03.18.03.07.05.04.09.06.1.07.14.03h.1s.2.04.2.04h.1s.1,0,.1,0l.13-.03.07-.02.1-.03.08-.05.08-.04.08-.03.04-.07.12-.03h.05l.06.02.03.03.03.05v.1h.37s.09,0,.09,0h.09s.06.03.06.03l.03.02.04.03h.02s-.02.06-.02.06h0s.22,0,.22,0l.2.03.06.04.03.03v.06s.01.04.01.04l-.04.1-.06.08h.5s.09.07.09.07v.03s0,.08,0,.08l-.1.12-.08.08v.05s.11.06.11.06l.07.03.06.02.08.03.04.03.03.04.02.07v.07l-.02.08v.05s-.06.08-.06.08h-.03v.06l.06.07.03.08.06.08v.08l.02.07v.07l-.02.04-.07.05-.06.05h-.07s-.04,0-.04,0l-.02.02h-.01l-.03.03v.09l.03.05v.04l-.03.03-.02.03-.13.02-.17.03-.06.17-.05.19-.03.04-.06.03-.08.02-.04.02-.1-.05-.16-.05v.25s-.03.03-.03.03l-.05.03-.04.02-.14-.03-.15-.03-.05.06v.09h-.06l-.06-.06h-.03l-.04-.05h-.06l-.05.02-.1.1-.05.02-.03.02h-.06s-.08,0-.08,0h-.04s-.07-.03-.07-.03l-.13-.14-.05-.03h-.09v.02s-.03.06-.03.06v.09s-.01.05-.01.05l-.02.03h-.06s-.06,0-.06,0l-.05-.03-.03-.04v-.03s-.04-.05-.04-.05l-.02-.03-.03-.05h-.04s-.04,0-.04,0l-.07.06-.06.03h-.02s-.03,0-.03,0h-.06s-.06-.04-.06-.04l-.04-.06-.07-.13h-.09s-.06,0-.06,0l-.04-.05-.03-.05v-.03l-.02-.09v-.06h-.11s-.04-.08-.04-.08l-.06-.18v-.19s.01-.12.01-.12l-.07-.08-.02-.05v-.03s-.01-.12-.01-.12l.06-.06.04-.02-.04-.1-.1-.09-.05-.04-.03-.02h-.17l-.05.06v.05s-.03.12-.03.12l.03.11.1.28v.14l-.02.08-.03.06-.05.03-.04.02-.03.03h-.11l-.05-.02h-.06s-.03-.04-.03-.04l-.03.03v.03s-.03.04-.03.04v.03l-.03.08v.08h-.07l-.1-.03-.07-.06-.08-.05-.04-.06-.06-.08h-.05s-.08-.03-.08-.03l-.07-.1-.08-.12-.04-.07-.05-.07-.04-.07-.02-.08-.05-.17-.06-.16v-.1s-.04-.11-.04-.11l-.02-.08-.04-.08-.05-.04-.04-.03-.05-.02h-.05l-.2.17-.46.43-.3.27-.25.3-.12.16-.11.17-.18.31-.12-.08-.23-.21h0ZM37.19,26.61l.03-.15v-.16l.02-.1v-.05s.35.1.35.1l.4.05.39.04h.76l.29-.02.18-.02h.08s.03-.04.03-.04v-.05s0-.14,0-.14v-.08s-.06-.09-.06-.09l-.04-.08-.07-.09-.09-.15-.07-.16-.05-.06-.03-.08v-.17s-.04-.12-.04-.12v-.22s.03-.03.03-.03v-.08l-.02-.1.02-.07.03-.1.03-.1.06-.06.04.06.08.05.03.03h.1l.02-.03.03-.1.05-.04.04-.02.05-.04.03-.02h.08l.06.05.06.03.09.1.07.13.06.13.08.1.1.08.04.03h.03l.07-.03.03-.05.03-.03.02-.06.02-.04v-.14l-.04-.08h-.04s-.03.01-.03.01h-.06s-.03-.06-.03-.06h-.03s-.02-.04-.02-.04l-.03-.03v-.1l-.03-.06-.06-.1-.1-.04-.04-.06-.06-.1-.03-.07-.03-.1h.02l.03-.02.03-.04-.05-.06-.04-.07-.05-.04v-.12l.05-.05.04-.07v-.05s-.03-.08-.03-.08v-.07l.02-.08v-.03s.06-.05.06-.05h.13l.05-.03.02-.05v-.07l-.02-.05v-.06s0-.06,0-.06l.04-.1h.03s.03,0,.03,0l.05.02.07.08h.12l.02-.02.02-.05v-.2l.03-.09.03-.05v-.03s.04-.03.04-.03l.14-.04h.09l.06-.02h.05l.03-.06v-.05s0-.03,0-.03l.02-.05v-.07s.16.07.16.07l.1-.13.09-.13h.06s.06-.01.06-.01l.04.03.07.06.09.06.04-.06.03-.06.02-.05v-.06s.04-.05.04-.05h.08s.06-.03.06-.03h.08s.15.09.15.09l.17.08.13-.1.12-.08h.03s.02.01.02.01l.03.03h.02l.06.1.03.03h.07l.03-.04.05-.03.07-.04h.07l.07.03.05.04.04.07.05.07.03.16.03.1v.02h.14l.06.03.12.1.03.06v.1l-.03.08-.05.08v.06s-.04.07-.04.07v.03l.03.04h.12l.14.03.06.05v.05s0,.03,0,.03v.04s-.04.07-.04.07l-.05.04-.03.05-.06.04-.18.19.12.02.06.03.05.03.03.04v.05l-.02.08-.12.15-.15.13.03.03h.04v.11s-.03.04-.03.04l-.03.03-.06.1-.06.06-.14.1-.13.15.03.04.04.03.03.06v.05s-.04.05-.04.05h-.05s-.04.07-.04.07h-.14l-.08.02-.07.03-.1.03-.1.06-.08.04-.09.06-.07.07-.08.07-.08.09-.04.08-.05.09-.06.1-.06.12v.06s0,.12,0,.12l.03.05.04.1.08.05.06.08.07.05.1.03.07.04h.32l.37-.09.13-.03.16-.02h.09s.06-.01.06-.01l.07-.05.05-.03h.04l.13-.03.06-.05.1-.07.1-.07.09-.07.06-.08.06-.1.04-.09.16-.34.07-.2.06-.18.06-.08.03-.12.03-.11.08-.1.1-.09h.05l.06.02h.11s.1.01.1.01h.04s.03-.04.03-.04l.06-.08.07-.1.05-.02.05-.02.04-.03h.06l.06.06.08.1.07-.1.1-.03h.04l.05.05.03.04.03.08.03.02h0s.04.01.04.01h.03s.08-.03.08-.03l.06-.02.03.02h.05l.06.03.07.06.1.14v.08s0,.1,0,.1l-.03.07-.05.08v.04l.03.03h.05l.06.02.08.02.09-.02.27-.34h.12l.06-.08.04-.07.06-.04h.04l.06.04h.02s.07.11.07.11l.05.1h.04s.04-.03.04-.03h.04s.06-.01.06-.01h.03s.03.04.03.04l.05.03.03.05v.08l-.03.03-.02.06-.03.03v.06l.05.03.07.03.1.02.07.06.05.1-.02.04-.06.05v.17l.03.07h.05s.09-.11.09-.11l.09-.04.05-.02h.03l.03-.06h-.02v-.09l.02-.05.12-.12.04.08.08.04.12-.06h.05s.07-.03.07-.03l.12-.02.13.02v.08l.04.04h.06l.1-.04.07-.02.1.03.07.08.03.05v.03s.03.04.03.04v.05l-.02.06-.03.08h.18l.04.02h.04s.02.04.02.04v.06l.09-.03h.12l.06.03.1.03.02.05.02.06v.11l.03.02h0s.1.03.1.03h.08l.05.03h.05s.03.03.03.03l.04.06-.03.03v.06s-.04.07-.04.07l-.03.03h.07s.1.04.1.04h.1l.1-.03.1-.03h.12l.06.02.03.04.05.03.03-.03h.06v.02s.04.05.04.05l.02.07.03.08.15-.05h.33l.16.03.4.16.16.05.18.06.05.03.07.03.06.03.05.05v.09l-.05.05-.06.03-.07.04-.23.08-.17.05-.4.15-.05.02-.19.03h-.07l-.17-.03-.15-.03-.03.07-.02.1-.03.03v.03h-.07l-.03-.03-.05.04-.03.02-.06.02h-.12l-.1-.04h-.1s-.1-.01-.1-.01h-.1s-.07.03-.07.03l.03.03.03.06v.06s.04.04.04.04l-.04.06-.03.03-.1.03h-.18s0,.03,0,.03l-.03.02v.12l-.02.05-.03.04-.09.06h-.28s0,.07,0,.07l-.05.03h-.22l.03.09.02.06v.05l-.02.04v.04s-.04.04-.04.04l-.05.02-.03.04-.03.03h-.14s-.09-.03-.09-.03h-.06s-.03,0-.03,0v.02s0,.06,0,.06l-.05.02h-.08s-.07,0-.07,0l-.05-.02h-.12s-.12-.08-.12-.08l-.08.07-.04.06-.12-.13-.02-.04v-.08l.02-.02-.03-.04-.03-.02h-.05s-.1-.06-.1-.06l-.04-.05-.09-.06-.03.08v.17l.06.05.02.06-.05.08-.07.07-.1.02h-.07s-.05.04-.05.04v.07l.03.04.02.05.03.03v.1l-.03.02-.05.04-.03.03h-.03s-.06.01-.06.01h-.04s-.04-.03-.04-.03h-.04s-.05.09-.05.09l-.07.1h-.02s-.06.06-.06.06l-.04-.03-.06-.02-.04-.06-.06-.1h-.12l-.27-.32h-.1s-.07-.01-.07-.01h-.06s-.05.01-.05.01l-.03.05v.03l.05.08.03.09v.15s-.11.14-.11.14l-.07.07-.06.03h-.08s-.06,0-.06,0l-.08-.02-.03-.03h-.04v.03l-.03.02-.03.07-.03.05-.05.05h-.03s0,0,0,0l-.1-.03-.07-.08-.08.08-.06.07h-.06l-.05-.04-.04-.02-.05-.05-.07-.06-.06-.09-.03-.03-.03-.02h-.11l-.1.02h-.07s-.06.01-.06.01h0s-.05-.04-.05-.04l-.03-.05-.08-.1-.03-.1-.03-.12-.06-.08-.06-.19-.07-.17-.16-.37-.04-.09-.06-.1-.06-.06-.19-.15-.1-.08-.12-.06h-.07s-.04-.01-.04-.01l-.05-.04-.07-.03h-.06s-.1-.03-.1-.03h-.15s-.13-.04-.13-.04l-.13-.02-.12-.05-.24-.03-.1.02h-.1s-.07.05-.07.05h-.1s-.07.07-.07.07l-.06.06-.08.07-.04.09-.03.05v.18s.07.13.07.13l.06.1.05.1.04.07.16.16.07.06.1.06.07.05.1.04.1.04.07.03h.08s.08.01.08.01l.06.03.04.03.05.02.03.06v.05s-.02.04-.02.04l-.04.04-.03.04.13.14.14.1.12.16.03.04.02.06v.04s0,.03,0,.03l-.04.02-.03.02.15.13.12.16.02.08v.06l-.03.03-.05.03-.06.03-.12.02.18.2.17.18v.07s0,.03,0,.03v.06s-.07.03-.07.03h-.14s-.12.03-.12.03l-.03.03v.03l.03.06v.07s.06.07.06.07l.03.08v.1l-.03.07-.06.05-.06.06h-.06s-.13.01-.13.01v.04s-.04.1-.04.1l-.02.07v.09s-.06.06-.06.06l-.04.08-.05.04-.07.02h-.07l-.07-.03-.05-.03-.03-.05h-.06l-.07.08-.03.05h-.02s-.03.03-.03.03h-.02s-.03,0-.03,0l-.12-.08-.13-.1-.17.07-.15.11h-.08s-.06-.03-.06-.03l-.08-.02-.03-.03v-.07s-.03-.05-.03-.05l-.03-.06-.04-.06-.1.07-.06.05-.04.03-.03.02h-.03l-.06-.03-.19-.25h-.06s-.09.06-.09.06v-.03s0-.05,0-.05l-.03-.04v-.08s-.03-.03-.03-.03h0l-.05-.03h-.06l-.1-.02h-.04l-.04-.03h-.05l-.03-.05v-.03s-.04-.04-.04-.04l-.02-.05v-.06s0-.17,0-.17l-.02-.06-.02-.02h-.04l-.08.02-.07.06-.05.03h-.03l-.03-.02-.04-.09v-.09s.03-.08.03-.08v-.08l-.07-.06h-.06s-.07-.01-.07-.01l-.05-.05v-.03s-.03-.08-.03-.08v-.08l.02-.07v-.05s-.08-.12-.08-.12v-.11l.05-.05.04-.06.05-.05-.02-.04v-.02s-.04-.01-.04-.01h-.02l.03-.08.03-.11.06-.08.05-.07.09-.05.06-.1.03-.06v-.07l.03-.05.02-.03.03-.02.03-.03h.09s.04,0,.04,0l.04-.09v-.14l-.02-.05-.02-.03-.03-.04-.03-.06-.07-.04-.03.02-.05.02-.09.09-.08.1-.06.12-.07.13-.1.1-.05.04-.06.02h-.08l-.03-.02h-.05s-.04-.04-.04-.04l-.05-.05v-.05s-.03-.03-.03-.03v-.04h-.12l-.03.04-.08.03-.04.07-.06-.07-.06-.18-.02-.08.02-.1v-.08l-.02-.04v-.07s0-.13,0-.13l.03-.14v-.09s0-.08,0-.08l.03-.07.05-.08.07-.14.1-.15.06-.1.04-.07.05-.1v-.07s0-.14,0-.14v-.04s-.04-.04-.04-.04h-.08l-.18-.02h-.3s-.36-.03-.36-.03h-.4l-.39.03-.2.03-.2.05-.16.03-.17.06v-.06s-.03-.1-.03-.1v-.15l-.03-.17h0ZM16.36,26.61l-.03-.3-.02-.11v-.05l-.16.05-.19.04-.18.03-.2.03-.4.04h-.75l-.3-.02-.17-.02h-.08s-.05-.04-.05-.04v-.05s-.01-.14-.01-.14l.03-.08.04-.09.05-.08.05-.09.18-.3.04-.07.03-.15.02-.1.03-.12v-.16l-.02-.06v-.03s-.01-.08-.01-.08v-.1s0-.07,0-.07l-.03-.1-.05-.1-.06-.06-.03.06-.07.05-.03.03h-.11l-.02-.03v-.05s-.04-.04-.04-.04l-.05-.05-.03-.02-.04-.04-.06-.02h-.03l-.08.05-.06.03-.05.05-.06.04-.06.14-.07.13-.07.1-.09.08-.04.03h-.05l-.06-.03-.07-.08-.02-.06v-.04l-.02-.04.02-.1.03-.08h.05s.04.01.04.01h.05s.03-.06.03-.06h.03s.01-.04.01-.04v-.03l.02-.04v-.06l.04-.06.06-.1.1-.04.06-.06.04-.1.03-.07.03-.1h-.01l-.03-.02-.02-.02-.03-.02.06-.06.05-.07v-.04s.03-.04.03-.04v-.03s0-.05,0-.05l-.05-.05-.03-.07.02-.05v-.15s0-.08,0-.08l-.02-.03-.03-.03-.03-.02h-.13l-.05-.03-.02-.05v-.04l.02-.03v-.05s.03-.06.03-.06v-.06l-.05-.1h-.03s-.06,0-.06,0l-.06.07-.04.03h-.11v-.02s-.03-.05-.03-.05v-.2l-.03-.09-.03-.05-.02-.03-.06-.03h-.01s-.1-.04-.1-.04h-.08l-.08-.02h-.03l-.03-.06-.02-.05v-.03s-.01-.1-.01-.1l-.05-.02-.06.04-.07.03-.08-.13-.1-.13h-.04s-.07-.01-.07-.01l-.05.03-.08.06-.06.06-.06-.06-.03-.06v-.05s-.03-.06-.03-.06l-.04-.05h-.06s-.08-.03-.08-.03h-.06s-.15.09-.15.09l-.17.08-.12-.1-.15-.08h-.02s-.03.01-.03.01l-.03.03-.06.1-.02.03h-.07l-.05-.04-.03-.03-.09-.04h-.08l-.06.03-.04.04-.05.07-.04.07-.03.16-.03.1-.03.02h-.13l-.04.03-.05.05-.07.05-.03.06v.11s.03.07.03.07l.03.08.04.06v.07l.02.03-.02.04h-.13l-.14.03-.06.05-.02.05v.03l.02.04.03.07.06.09.06.04.1.08.08.11-.09.02-.09.03-.05.03v.04s-.01.13-.01.13l.15.15.14.13-.03.03h-.03v.11s.01.04.01.04l.03.03.05.1.07.06.07.06.09.05.06.06.06.08-.1.09v.09l.04.05h.04s.05.07.05.07h.14l.07.02.1.03.07.03.09.06.08.04.09.06.07.07.1.07.06.09.06.08.04.09.08.1.06.24-.02.06-.04.14-.08.06-.07.08-.08.05-.1.03-.08.04h-.32l-.1-.03-.25-.06-.14-.03-.15-.02h-.08s-.06-.01-.06-.01l-.07-.05-.06-.03h-.11s-.06-.03-.06-.03l-.06-.05-.12-.07-.11-.07-.08-.07-.06-.08-.03-.1-.06-.09-.15-.34-.08-.2-.06-.18-.04-.08-.05-.12-.03-.11-.06-.1-.05-.03-.03-.04-.04-.02h-.03l-.08.02h-.09s-.12.01-.12.01h-.03s-.03-.04-.03-.04l-.06-.08-.06-.1-.06-.02-.05-.02-.08-.03h-.03l-.07.06-.06.1-.08-.1-.08-.03h-.06l-.09.1v.07s-.03.02-.03.02h-.03s-.05,0-.05,0l-.09-.02-.03-.02-.06.02h-.07l-.04.03-.08.06-.06.1v.04s-.03.08-.03.08l-.02.03.02.06.02.08.06.08-.02.04-.03.03h-.02l-.06.02-.1.02-.07-.02-.13-.17-.16-.17h-.12l-.04-.08-.07-.07-.04-.04h-.03l-.08.04h-.01s-.06.11-.06.11l-.06.1h-.03s-.1-.04-.1-.04h-.09s-.03.04-.03.04l-.04.03-.02.05v.08l.02.03v.06s.03.03.03.03v.05s-.03.04-.03.04l-.1.03-.07.02-.08.06-.04.1v.04s.04.05.04.05l.02.07v.1l-.02.07h-.03s-.03-.06-.03-.06l-.08-.04-.03-.03-.09-.04h-.03l-.02-.06h.02v-.04l-.03-.1-.06-.06-.05-.06-.06.08-.07.04-.05-.03-.06-.03h-.06s-.08-.03-.08-.03l-.12-.02-.12.02v.06s-.05.06-.05.06h-.04l-.1-.04-.1-.02-.03.02h-.05s-.07.09-.07.09l-.02.05-.03.03v.04s0,.05,0,.05l.03.06.03.08h-.18l-.1.03v.03s0,.06,0,.06l-.1-.03h-.13l-.04.03-.1.03-.03.05v.06s0,.11,0,.11l-.02.02h-.03s-.09.03-.09.03h-.1l-.1.04-.04.02v.06s0,.03,0,.03v.06s.07.07.07.07l.02.03h-.1s-.07.04-.07.04h-.1l-.11-.03-.1-.03h-.11l-.05.02-.08.07-.04-.03h-.05l-.03.02v.05s-.06.07-.06.07v.08s-.16-.05-.16-.05h-.34l-.14.03-.2.08-.2.08-.19.05-.15.06-.06.03-.09.03-.04.03-.05.02v.03s-.03.04-.03.04l.02.05v.03s.06.02.06.02l.04.03.1.04.04.02.15.06.18.05.2.07.21.08.06.02.16.03h.1l.3-.06.02.07.06.13.03.03h.05l.04-.03.04.04.09.04h.12l.09-.04h.1s.11-.01.11-.01h.08s.09.03.09.03l-.08.1v.09s0,.06,0,.06l.05.03h.03s.06.03.06.03h.18s.03.03.03.03l.02.02v.17s.04.04.04.04l.1.06h.27s0,.04,0,.04v.03s.06.03.06.03h.23l-.03.09-.03.06v.09s.04.04.04.04l.02.04.03.02.04.04.05.03h.13s.1-.03.1-.03h.04s.03,0,.03,0l.03.03v.05s.11.03.11.03h.08s.04-.03.04-.03h.14s.06-.05.06-.05l.05-.03.07.07.06.06.05-.06.06-.07.03-.09v-.03l-.02-.02.02-.04.03-.02.1-.03.02-.03.08-.05.03-.03.04-.03.02.08v.1l-.02.07-.03.05v.06s.03.08.03.08l.08.07.08.02h.09s.03.04.03.04v.04s0,.03,0,.03l-.03.09-.02.03v.1l.02.02.04.04.03.03h.05s.04.01.04.01l.1-.03h.03s.06.09.06.09l.06.1h.01s.08.06.08.06l.03-.03.04-.02.07-.06.04-.1h.13l.16-.16.13-.16h.08s.09-.01.09-.01h.06s.03.01.03.01l.03.05.02.03-.06.08-.02.09-.02.05.02.06.03.1.06.08.08.07.04.03h.11s.03,0,.03,0l.1-.02.04-.03h.01l.05.05v.07s.11.1.11.1h.02s.03,0,.03,0l.08-.03.08-.08.06.08.07.07h.03l.08-.04.05-.02.06-.05.06-.06.06-.09.03-.03.03-.02h.12l.1.02h.07s.03.01.03.01h.04s.08-.09.08-.09l.18-.4.06-.19.08-.17.15-.37.06-.09.03-.1.14-.13.1-.08.13-.08.12-.06h.05s.06-.01.06-.01l.06-.04.07-.03h.06s.08-.03.08-.03h.15s.14-.04.14-.04l.12-.02.12-.05h.1s.16-.03.16-.03l.08.02h.09s.09.05.09.05h.09s.23.2.23.2l.04.14.02.07-.02.06v.05s-.04.13-.04.13l-.08.1-.04.1-.13.15-.09.08-.07.06-.1.06-.07.05-.1.04-.07.04-.09.03h-.07s-.1.01-.1.01l-.09.06-.04.02-.03.06-.02.02v.03l.02.03.09.1-.12.13-.16.1-.07.09-.05.07-.03.04v.1s-.01.03-.01.03l.06.04-.3.29v.14l.02.03.05.03.1.03.08.02-.07.1-.11.1-.06.03-.06.1-.03.05-.02.07v.03l.02.06.06.03.27.03.02.03-.02.03v.06l-.04.07-.03.07-.02.08v.05s-.01.06-.01.06l.03.06.07.05.05.06h.04s.13.01.13.01l.03.04.03.1v.07s.03.09.03.09l.04.06.05.08.04.04.06.02h.08l.1-.03.07-.08h.03l.04.02.02.03.03.03.03.05h0s.06.04.06.04h.02l.15-.08.12-.1.17.07.15.11h.06s.08-.03.08-.03l.06-.02.04-.03.02-.07v-.05s.04-.06.04-.06l.06-.06.06.07.08.05.05.03.04.02h.03l.05-.03.09-.13.08-.12h.07s.06.06.06.06l.05-.03v-.12s.03-.05.03-.05v-.03h.03l.03-.03h.08l.09-.02h.04l.05-.03h.01l.06-.05.02-.03.03-.04v-.05s.03-.06.03-.06v-.17l.02-.06v-.02h.06l.06.02.09.06v.03h.07l.03-.02.05-.09v-.06l-.02-.03v-.08s-.03-.03-.03-.03v-.05l.07-.06h.07s.06-.01.06-.01l.03-.02.03-.03.02-.03v-.08s0-.08,0-.08v-.07l-.02-.05.03-.06.05-.06v-.05s-.02-.06-.02-.06v-.05s-.06-.06-.06-.06l-.06-.05.03-.04.02-.02h.03s.01-.01.01-.01l-.03-.08-.03-.11-.04-.08-.06-.07-.1-.05-.06-.1-.04-.06v-.04l-.02-.03v-.08s-.04-.02-.04-.02l-.03-.03h-.09s-.05,0-.05,0l-.03-.09-.02-.1.02-.04v-.05l.02-.03.03-.04.04-.06.06-.04.1.04.08.09.07.1.07.12.06.13.06.05.05.05.06.04.08.02h.03l.06-.02h.04s.08-.09.08-.09l.03-.05v-.03s.03-.04.03-.04h.1l.04.04.07.03.03.07.06-.07.05-.09.03-.1v-.07s0-.1,0-.1v-.12s.03-.07.03-.07v-.13l-.03-.14-.02-.09-.03-.15-.04-.08-.1-.14-.08-.15-.05-.1-.05-.07-.04-.1-.03-.07v-.18s.06-.04.06-.04h.08l.18-.02h.29s.36-.03.36-.03h.4l.4.03.19.03.18.05.19.03.16.06v-.06l.02-.1v-.15s.03-.17.03-.17h0Z" fill="#0046aa" fill-rule="evenodd" stroke-width="0"/></svg>