<svg xmlns="http://www.w3.org/2000/svg" width="40" height="40" fill="none"><path fill="#335497" d="M40 0H0v40h40V0Z"/><path fill="#fff" d="M37.78 2.39H2.48v35.78h35.3V2.39Z"/><path fill="#335497" d="M3.16 3.26H37.1v34H3.16v-34Z"/><path fill="#fff" d="M4.21 10.43h2.83V4.95H35.5v30.9H7v-1.64H4.15l.05-23.78Z"/><path fill="#335497" d="M5.57 11.7h11.06c-3.59 3.54-7.13 7.07-10.66 10.6 3.53 3.63 7.07 7.26 10.66 10.88H5.57V11.7Z"/><path fill="#335497" d="M18.94 11.63h2.27c-3.72 3.53-7.46 7.1-11.16 10.66l11.16 11h-2.27c-3.74-3.66-7.47-7.33-11.17-11 3.73-3.56 7.42-7.13 11.17-10.66Zm3.43 4.45h11.58v17.15H22.37v-.19c.26.02.51.02.76 0 5.37.03 9.77-3.17 9.77-7.17s-4.4-7.25-9.77-7.25h-.76v-2.54Z"/><path fill="#B4966A" d="M23.08 20.98c1.55 0 2.78 2.33 2.78 5.23 0 2.9-1.23 5.21-2.78 5.21-1.55 0-2.8-2.37-2.8-5.24s1.22-5.2 2.8-5.2Z"/><path fill="url(#a)" d="M22.5 20.93c1.54 0 2.78 2.33 2.78 5.23 0 2.9-1.24 5.21-2.78 5.21-1.54 0-2.8-2.37-2.8-5.24s1.25-5.26 2.8-5.2Z"/><defs><linearGradient id="a" x1="17.87" x2="27.14" y1="19.53" y2="32.77" gradientUnits="userSpaceOnUse"><stop stop-color="#B4966A"/><stop offset=".5" stop-color="#FEF0C7"/><stop offset="1" stop-color="#B4966A"/></linearGradient></defs></svg>