<svg xmlns="http://www.w3.org/2000/svg" xml:space="preserve" width="3239" height="576" image-rendering="optimizeQuality" shape-rendering="geometricPrecision" text-rendering="geometricPrecision" viewBox="0 0 3239 576">
  <path fill="#0057B6" d="M2588 303h63c13 0 70-5 70-74 0-59-44-69-72-69h-10v-30h70V76h-121v227zm51-45v-52h8c6 0 23 0 23 24s-17 28-23 28h-8zm271-182h52v82h37V76h51v227h-51v-91h-37v91h-52zm267 0-30 82h-11V76h-51v227h51v-91h12l30 91h60l-46-119 40-108zm-446 228h54l6-40h37l6 40h54l-45-228h-67l-45 228zm79-159 10 69h-20l10-69zM828 76l-30 82h-11V76h-51v227h51v-91h12l30 91h60l-45-119 40-108zm79 227h53v-75h17c52 0 68-47 68-77 0-29-18-75-68-75h-70v227zm53-177h12c12 0 19 7 19 26 0 24-12 26-19 26h-12v-52zm201 92h-46v28h66v57h-120V76h120v56h-66v29h46v57zm999 85h53l7-39h36l7 39h53l-45-227h-66l-45 227zm78-159 10 70h-20l10-70zm-207 159h53v-75h18c52 0 68-47 68-77 0-29-19-75-68-75h-71v227zm53-177h13c12 0 19 7 19 26 0 24-13 26-19 26h-13v-52zm-321-50 1 56h-52v171h-53V132h-52V76zm-348 0h52v124l63-124h53v227h-53V179l-63 124h-52V76zm497 164-57-164h52l31 103 31-103h48l-57 182c-7 21-23 45-47 45-10 1-25-5-32-10l-5-3 7-47c4 2 17 8 23 9 5 1 8-4 6-12zm538-113h-35c-1 32-3 75-8 106-7 46-24 70-74 70l-6-49c17 0 26-6 30-14 12-19 11-133 12-156v-9h127v228h-46V127zM1224 255l4-6c6-12 8-27 9-41 4-41 5-85 7-127v-5h123v179h19v99h-46v-48h-88v48h-47v-99h19zm69-121c-1 28-2 58-5 86-1 12-4 24-9 35h37V134h-23zM11 288a278 278 0 1 1 557 1 278 278 0 0 1-557-1zm461-29-7 5c-16 13-41 22-76 32-72 19-125 22-184 37-12 2-24 6-35 11 11 6 23 11 35 15 24-6 36-10 71-16l85-15c53-12 132-37 111-69zm-34-68c-12-5-26-10-41-14-7 5-15 10-26 14 19 4 33 9 49 14 3 1 16-11 18-14zm-264 72c70-21 144-27 219-47-29-8-45-11-76-7-45 5-94 15-137 27-16 5-103 30-78 64 0 1 15-20 72-37zm-48 119c-1 6 3 12 12 19l5-10-17-9zm33-4 18-9-30-13-12 9 24 13zm270-149c-15 7-35 13-64 21-24 6-82 14-145 28-19 4-73 17-99 39 7 6 12 7 20 12 11-7 25-14 48-20 38-10 66-14 101-20 34-5 99-19 134-31 12-5 23-10 31-16-3-3-26-14-26-13zm20-13c7 4 14 6 20 11 4-9 1-14-8-22-3 4-7 8-12 11zM122 343l-16-9c-2 6 3 12 9 16l7-7zm299-194c-1 5-6 10-10 14l32 11c-1-10-12-19-22-25zM91 209c73-48 155-76 293-53 7-4 11-8 13-17-34-13-71-17-120-16-43 1-121 17-163 42l13-16c29-17 105-40 162-41 40-1 61 2 109 14-4-8-14-12-29-18-46-21-132-23-203 8a217 217 0 0 1 138-37c38 1 84 14 111 42 5 5 8 11 9 16 22 11 35 21 42 34 3 6 4 13 3 20 9 6 13 10 18 17l6 15c1 7 2 15-6 24 8 4 14 14 15 19 3 16-7 33-21 45-17 14-52 31-81 38-58 15-109 21-149 29 18 4 42 10 83 10 86 0 162-41 162-41l-4 10c-54 33-141 47-178 45-38-1-70-7-101-16-9 2-19 5-28 9 48 22 83 26 124 29s109-7 167-27c-3 2-4 6-7 9a385 385 0 0 1-225 26c-29-6-52-15-76-25-5 3-7 7-8 12 95 49 184 51 285 19l-9 9a311 311 0 0 1-266-5l-7-3c7 11 58 48 115 53 40 3 88-4 117-15l-17 9c-14 7-50 22-102 19-69-5-107-35-124-51-8-8-12-16-15-27-15-8-25-16-33-29-5-7-4-16-3-23l2-6c-7-5-15-11-18-17-7-12-3-22 2-31-4-4-8-9-9-14-2-5-3-11-2-17 1-10 7-19 14-27 15-18 38-31 79-44 39-13 55-15 85-22 35-8 76-11 111-23-97-17-198-2-280 55l6-16zM1 288a288 288 0 1 0 577-1 288 288 0 0 0-577 1zm2340 152 39-40 2-1h14l3 1c1 2 0 3-1 4l-40 42 44 49 1 3-3 2h-14l-2-1-43-47v45l-3 3h-11c-2 0-3-2-3-3v-95c0-2 1-3 3-3h11c1 0 3 1 3 3v38zM750 415v82l-3 3h-12l-2-3v-95c0-2 1-3 2-3h57c1 0 3 1 3 3v10l-3 3h-42zm73 45v37l-3 3h-12l-3-3v-95c0-2 2-3 3-3h34c18 0 33 11 33 30 0 20-15 31-33 31h-19zm92 17-37-74v-3l3-1h12l3 1 29 58 27-58 2-1h12l2 1v3l-34 73c-6 13-13 25-30 25l-8-2c-2 0-2-1-2-2v-10l1-2 2-1 7 1c6 0 9-3 11-8zm128-62h-46v82c0 1-1 3-3 3h-11c-2 0-3-2-3-3v-95c0-2 1-3 3-3h74c2 0 3 1 3 3v95c0 1-1 3-3 3h-11l-3-3v-82zm101 0h-46v82c0 1-1 3-3 3h-11c-2 0-3-2-3-3v-95c0-2 1-3 3-3h74c2 0 3 1 3 3v95c0 1-1 3-3 3h-11c-2 0-3-2-3-3v-82zm96 65h-42l-8 18c0 1-1 2-3 2h-11l-3-2v-2l41-97 3-2h4l3 2 41 97v2l-3 2h-12l-2-2-8-18zm175-65v82c0 1-1 3-3 3h-11c-2 0-3-2-3-3v-95c0-2 1-3 3-3h56c2 0 3 1 3 3v10c0 1-1 3-3 3h-42zm100 65h-42l-8 18-2 2h-12l-3-2v-2l41-97 3-2h4l3 2 41 97v2l-3 2h-12l-2-2-8-18zm92-35c8 5 14 14 14 24 0 20-18 32-37 32-17 0-31-8-39-22-1-1 0-3 1-4l8-6 2-1 2 2c6 9 15 15 25 15s20-6 20-16c0-11-10-15-19-15h-11c-2 0-3-1-3-3v-10c0-1 1-3 3-3h11c8 0 14-4 14-12 0-9-6-13-14-13-10 0-16 4-21 12l-2 1h-2l-8-6c-2-1-2-3-1-4 7-13 19-19 34-19 17 0 31 10 31 29 0 7-3 14-8 19zm91-30h-46v82l-3 3h-11c-2 0-3-2-3-3v-95c0-2 1-3 3-3h74c2 0 3 1 3 3v95c0 1-1 3-3 3h-11c-2 0-3-2-3-3v-82zm54 45v37c0 1-1 3-3 3h-11l-3-3v-95c0-2 2-3 3-3h34c18 0 33 11 33 30 0 20-15 31-33 31h-20zm112 41c-29 0-52-23-52-52s23-52 52-52 52 23 52 52-23 52-52 52zm143-64-25 35-3 1h-4l-2-1-25-35v60l-3 3h-12l-3-3v-97c0-2 2-3 3-3h4l3 1 37 52 38-52 2-1h4c1 0 3 1 3 3v97c0 1-1 3-3 3h-11c-2 0-3-2-3-3v-60zm54-22v23h18c19 0 35 11 35 30 0 21-16 32-35 32h-32c-2 0-3-2-3-3v-95c0-2 1-3 3-3h56c2 0 3 1 3 3v10c0 1-1 3-3 3h-42zm124 65h-43l-7 18-3 2h-12l-2-2v-2l41-97c0-1 1-2 3-2h4l2 2 42 97-1 2-2 2h-12l-3-2-7-18zm54-42h47v-36c0-2 1-3 3-3h11c2 0 3 1 3 3v95c0 1-1 3-3 3h-11c-2 0-3-2-3-3v-43h-47v43l-3 3h-11c-2 0-3-2-3-3v-95c0-2 1-3 3-3h11c1 0 3 1 3 3v36zm235 42h-43l-7 18-3 2h-12l-2-2-1-2 42-97 2-2h5l2 2 42 97-1 2-2 2h-12l-3-2-7-18zM823 444h19c9 0 16-5 16-15s-7-14-16-14h-19v29zm411 20-15-36-15 36h30zm275 0-15-36-15 36h30zm243-20h19c10 0 16-5 16-15s-6-14-16-14h-19v29zm112 41c20 0 35-16 35-36a35 35 0 1 0-70 0c0 20 15 36 35 36zm197-1h18c10 0 17-5 17-15 0-11-7-15-17-15h-18v30zm117-20-14-36-15 36h29zm289 0-15-36-14 36h29z"/>
</svg>
