<svg xmlns="http://www.w3.org/2000/svg" viewBox="0 0 52.5 52.5"><path fill="#b0cb1f" fill-rule="evenodd" d="M14.7 7.35h4.8a24.73 24.73 0 0 0-2 3.9h-2.8a7.21 7.21 0 0 0-7.1 7.2v.7c-1.31.09-2.62.3-3.9.6v-1.3a11.07 11.07 0 0 1 3.2-7.9 11 11 0 0 1 7.8-3.2Zm18.4 0h4.3a10.9 10.9 0 0 1 11.1 10.7v1.6l-3.9-.5v-.7a7.2 7.2 0 0 0-7.2-7.2h-2.3a24.73 24.73 0 0 0-2-3.9Zm15.4 25.5v7.9a11 11 0 0 1-3.2 7.8 11.2 11.2 0 0 1-7.9 3.3h-3.3v-.5l-.8-3.5h4.2a7.21 7.21 0 0 0 7.2-7.1v-3.8a19.2 19.2 0 0 0 3.9-4.1h-.1Zm-30.1 19h-3.7a11.11 11.11 0 0 1-11-11.1v-8.4a20.97 20.97 0 0 0 3.9 4.4v4a7.1 7.1 0 0 0 2.1 5 7.1 7.1 0 0 0 5 2.1h5c-.34 1.11-.7 2.21-1.1 3.3l-.2.7Z"/><path fill="#283b5b" fill-rule="evenodd" d="M26.3.65c5.2 6.7 8.1 11.4 8.1 15.5s-3.2 7-7.3 7.4c-.3 6.4 1.3 9.2 4.5 8-1.3-3.8.1-7.9 3.4-9.6 3.3-1.7 8.5-1.5 17.5.2-3.6 7.6-6.5 12.4-10.2 14.2a7.71 7.71 0 0 1-9.8-3c-4.8 2.7-1.9 11.2-.1 18.4H20.2c2.8-8 5.3-15.8.1-18.9a7.8 7.8 0 0 1-10.1 3.5c-3.6-1.8-6.6-6.6-10.2-14.2 9-1.7 13.8-2 17.5-.2a7.7 7.7 0 0 1 3.4 9.5c4 .7 4.3-3.2 3.9-8a7.7 7.7 0 0 1-6.5-7.3c0-4.1 2.4-8.3 8-15.5Z"/></svg>
