<svg xmlns="http://www.w3.org/2000/svg" width="40" height="40" fill="none"><path fill="#273981" fill-rule="evenodd" d="m20.22 0 8.6 5 8.61 5v20l-8.6 5-8.61 5-8.6-5L3 30V10l8.61-5 8.6-5Z" clip-rule="evenodd"/><path fill="#fff" fill-rule="evenodd" d="m34.14 11.81-13.4-7.74-.59 1.01 12.86 7.43v15.35h1.14V11.84h-.02l.01-.03ZM6.01 28.17l13.4 7.74.59-1-12.86-7.44V12.12H6v16.02h.03l-.02.03Zm24.03-2.94a2.13 2.13 0 0 0-2.44-2.1l-2.97-5.18-3-5.22a2.14 2.14 0 0 0-1.56-3.58 2.13 2.13 0 0 0-1.58 3.57l-3 5.23-2.89 5.03a2.11 2.11 0 0 0-.46-.05c-1.17 0-2.12.96-2.12 2.14a2.12 2.12 0 0 0 4.07.85H25.9a2.13 2.13 0 0 0 2.01 1.45c1.17 0 2.12-.96 2.12-2.14Zm-15.8-.47c-.07-.47-.29-.9-.62-1.22l2.87-5 2.99-5.2a2.09 2.09 0 0 0 1.17 0l2.98 5.2 2.91 5.07c-.34.3-.59.7-.7 1.15H14.25Z" clip-rule="evenodd"/></svg>