<svg xmlns="http://www.w3.org/2000/svg" width="40" height="40" fill="none"><path fill="#A70133" d="M0 0h40v40H0V0Z"/><path fill="#FBB701" fill-rule="evenodd" d="M27.1 27.22c-.4.52-1 1.67-1 1.67l-.14.26c-.08.13-.16.3-.23.44-.13.32-1.62 3.87-5.57 3.95-4.03.08-5.86-3.59-5.95-3.78-.07-.14-.24-.65-.31-.88-.08-.23-1.55-3.12-2.7-3.03-.04 0-.57.18-.57.18s-.57-.12-.62-1.25c-.03-.58.05-.85.16-.97.1-.12.2-.12.27-.12h.02c.06 0 .2.04.34.08l.1.04c.13.03.25.06.31.06.16 0 .96-.38.95-1.13 0-.28-.19-.75-.4-1.3-.35-.89-.8-2-.76-3.02.01-.91.18-1.8.51-2.65 0 0-1.16-1.31-1-2.64a5.1 5.1 0 0 1 1-2.41c.33-.45.59-.94.77-1.46 0 0-.28-.52-.5-1.01-.12-.3-.23-.6-.23-.76 0-.42.45-1.47 1.38-1.49.94-.02 1.22 1.11 1.22 1.3 0 .36-.23.97-.42 1.45-.12.32-.22.58-.22.68.01.52.78 1.54 1.3 2.14a8.1 8.1 0 0 1 1.32 2.1c1.4-.7 2.95-1.1 4.52-1.15 2.14-.09 2.96.8 2.96.8.38-.71.8-1.4 1.28-2.04a8.58 8.58 0 0 1 1.53-1.55c.06-.08.1-.17.12-.27-.02-.23-.1-.45-.23-.65 0 0-1.53-2.23.94-2.58 2.33.27 1.09 2.38 1.09 2.38a1.44 1.44 0 0 0-.28.86c.08.36.25.69.5.96 0 0 1.02 1.14 1 2.45-.02 1.19-1.07 2.81-1.07 2.81.19 1.04.28 2.1.26 3.15a12.3 12.3 0 0 1-.48 2.76c-.17.38-.26.8-.24 1.2.07.33.26.6.54.78 0 0 1.2-1.2 1.42.78.14 1.16-1.29 1.14-1.29 1.14-.59.52-1.13 1.1-1.6 1.72Zm-14.82-1.74c-1.2-.4-.3-1.16-.09-1.3.22-.13 1.38-.87.22-3.12a5.86 5.86 0 0 1-.32-4.48s1.84.54 2.74.36c0 0 1.62-.3 0-.65-.93-.04-1.91-.09-2.58-.8a3.15 3.15 0 0 1-1.03-2.14c-.06-1.04 1.55-3.26 1.55-3.26a1.81 1.81 0 0 0 .27.49c.31.37 2.13 2.41 2.5 3.61.2.7.68.24.68.24a11.5 11.5 0 0 1 4.29-1.16c1-.1 2 .2 2.78.8 0 0 .58.88.9-.24.53-1.8 2.94-3.74 2.94-3.74l.15-.33 1.11 1.88c.6 1.08.33 1.74-.1 2.81l-.09.23c-.66 1.65-2.3 1.84-3.07 1.92l-.3.05c-.73.11-.44.42.16.48.72.34 2.69-.3 2.69-.3s.3.07.35 1.62c.04 1.44-.32 2.5-.59 3.27-.14.42-.26.75-.26 1.01-.02.76.94 1.5 1.13 1.63l.05.04c.2.11.44.26-.74 1.15-.9.68-1.8 2.27-2.54 3.6-.38.68-.72 1.3-1.01 1.68-.86 1.14-2.13 1.87-4.2 1.92-1.97.05-3.14-1.07-3.83-1.73l-.1-.1c-.25-.23-.64-.97-1.1-1.83-.8-1.5-1.8-3.36-2.57-3.6h.01Zm9.29.17c.04.56-.8.9-1.52.9v.02c-1.05-.02-1.56-.4-1.57-.83-.02-.43.25-.8.25-1.33-.03-1.5-1.22-4.58-1.54-4.75-.25-.14-2.05-.06-2.89-.02l-.38.02c-.35 0-.4.4-.4.4s-.1 2.35 1.87 2.77c2.13.43 2.4 1.29 2.4 1.72.02.43-.2 1.24-.2 1.54a1.34 1.34 0 0 0 .85 1c.53.24.82.4.97.58.11.13.15.27.15.46 0 .3-1.14.66-1.48.67-.35 0-.67-.45-.92-.45a.54.54 0 0 0-.55.51c0 .33.96 1 1.46 1 .5-.01 1.4-.8 2-.81.32 0 .71.22 1.09.44.35.2.68.4.9.38.47-.06 1.08-.32 1.08-1.04s-.63 0-1.04 0c-.4.01-1.6-.33-1.61-.79-.01-.46.18-.53 1.08-.86a1.55 1.55 0 0 0 .97-1.28 5.9 5.9 0 0 1-.37-1.42c-.18-.9 2.04-1.88 3.32-2.44.46-.2.8-.35.86-.42.21-.27.03-1.53.03-1.53s.2-.32-.6-.42c-3.08-.38-3.32.08-3.47.35l-.02.03a32.8 32.8 0 0 0-1.07 4.41c.04.37.3.64.35 1.2Zm-4.55-3.74c.21-.6-1.67-1.32-1.76-.79-.13.74 1.33 1.1 1.76.79Zm6.15-.31c.48.45 2.28-.06 1.86-.71-.26-.4-2.34.25-1.86.7Z" clip-rule="evenodd"/></svg>