<svg xmlns="http://www.w3.org/2000/svg" width="40" height="40" fill="none"><path fill="#0039A6" d="M31.8 40H8.2a8.22 8.22 0 0 1-8.2-8.2V8.2C0 3.69 3.68 0 8.2 0H31.8C36.32 0 40 3.68 40 8.2v23.6c0 4.52-3.68 8.2-8.2 8.2ZM8.2.58A7.63 7.63 0 0 0 .58 8.21v23.58c0 4.2 3.42 7.63 7.63 7.63H31.8c4.2 0 7.62-3.43 7.62-7.63V8.21C39.42 4 36 .58 31.8.58H8.2Z"/><path fill="#00A1DE" d="M17.94 5.82a4.11 4.11 0 0 1-1.52 1.52L4.45 28.05a4.14 4.14 0 0 0 7.17 4.14L20 17.67l-3.58-6.2a4.14 4.14 0 0 1 1.51-5.65Z"/><path fill="#0039A6" d="M35.56 28.05 23.59 7.34a4.13 4.13 0 0 0-.01 4.14L20 17.68 28.4 32.2a4.14 4.14 0 0 0 7.17-4.15Z"/><path fill="#002C77" d="M22.07 5.82a4.11 4.11 0 0 0-1.93-.55h-.26a4.14 4.14 0 0 0-3.45 6.2l3.58 6.2 3.58-6.2a4.14 4.14 0 0 0-1.52-5.65Z"/><path fill="#EEAF30" d="M24.26 30.15a4.25 4.25 0 1 1-8.5 0 4.25 4.25 0 0 1 8.5 0Z"/></svg>