<svg xmlns="http://www.w3.org/2000/svg" width="40" height="40" fill="none"><path fill="#003869" d="M39.1 26c-.5 1.6-1.2 3.1-2.1 4.5-7.8-.7-15.7.6-22.8 3.8l.8-5.6A49.4 49.4 0 0 1 39.1 26Zm.9-6.1c0 1.5-.1 2.8-.4 4.2a48.3 48.3 0 0 0-24.4 3l.7-4.9c7.7-2.7 16-3.5 24.1-2.3Zm-.8-5.5c.3 1.2.6 2.4.7 3.6-8-1.2-16.2-.3-23.8 2.6l.6-4.2a49 49 0 0 1 22.5-2.2v.2Zm-2.8-5.9c.8 1.2 1.5 2.4 2.1 3.8-7.3-.9-14.7 0-21.6 2.5l.6-4c6.1-2 12.5-2.7 18.9-2.3Zm-5.2-5c1.5 1 2.8 2.2 4 3.5a50 50 0 0 0-17.6 2.4l.5-3.9c4.3-1.2 8.7-1.9 13.1-2 0 0 0-.1 0 0ZM20 0c3.3 0 6.6.8 9.5 2.4-3.8.3-7.5 1.1-11.2 2.2l.5-3.5A18.8 18.8 0 0 0 4 29.7c2.3 3.7 5.7 6.6 9.8 8l.3-2.1a47.3 47.3 0 0 1 22-3.6 19.9 19.9 0 0 1-17.8 7.8c-3.4-.3-6.6-1.5-9.5-3.4a19.4 19.4 0 0 1-6.6-7.6C.7 25.8 0 22.4.1 19c.2-3.4 1.2-6.7 3-9.6 1.8-2.9 4.3-5.3 7.3-6.9C13.2.9 16.6 0 20 0Z"/></svg>