<svg xmlns="http://www.w3.org/2000/svg" viewBox="0 0 206.1 206.1">
  <path d="m53 138.6-6 1.5a43.6 43.6 0 0 1-35.2-9.2c-.1 0-.3-.1-.2-.3.6-.1 1 .4 1.4.7 3.2 2.3 6.7 4.2 10.5 5.6 8.3 3 16.8 4.4 25.5 2 2.5-.7 5-1.5 7.3-3-3-2.4-6.2-4.4-9.6-6.2a1 1 0 0 0-1 0c-2.1.8-4.5.9-6.8 1-2 0-4 .3-6.1-.3 4.1 0 8-.3 12.3-1.4-3-1.4-5.7-2.4-8.5-3.3-.6-.2-1.2-.2-1.8 0-2.7.7-5.4 1.3-8.2 1.2 2.4-.6 5-.6 7.4-1.7-5.5-1.3-11-1.6-16.5-2 5.4-.2 10.9.4 16.3 1.3 0-.5-.6-.7-.4-1.2.4 0 .7.4 1 .7.2.3.4.7 1 .9 3.2.7 6.2 2 9.4 3 0-.9-.5-1.4-1-2l-2-2v-.1a5 5 0 0 1 2.7 2.2c1.2 2.5 3.4 3.5 5.7 4.6l1.3.8 5 3-.1-1c-1-5.8-4.2-10-9.1-12.7-8.5-4.8-17.5-6.1-27-4.4A33.7 33.7 0 0 0 3 124.5c-.1 0-.3.1-.4 0 1.5-2.2 3.7-3.6 6-4.8a40.6 40.6 0 0 1 37.1-.8c2 .9 3.6 2.1 5.2 3.4 1.3 1 2.3 2.3 3.5 3.8-.8-3-1.6-5.6-2-8.3a1 1 0 0 0-.6-.8l-2.2-1.6c-7.2-7.7-7-21.5.3-30.1l.2.2-.5.8a24 24 0 0 0-2 25.4c1 1.9 2.4 3.4 4.4 4.5l-.5-3.6c-.5-2.6 0-5.4-1.7-7.8l.1-.1c.6 0 .5.9 1.1 1 .2-1.7.2-3.3.5-5a7 7 0 0 0-.3-4.2 9.2 9.2 0 0 1-.6-3.7c.5 1.6.6 3.3 1.5 4.8.9-3.6 2.3-7 2.4-10.6v2.2c.8-1.1 1-2.4 2-3.4-.8 1.5-1 3.2-1.7 4.8a28 28 0 0 0-1.5 5.1c.8-.4.8-1.3 1.5-1.4a20.9 20.9 0 0 0-3 11.7c1.5-1 2.2-2.4 3.1-3.4l.2.2c-.6 1.2-1.5 2.1-2.2 3.2-.4.6-1 1.2-1 2 0 2.7.5 5.3 1 7.9.4 0 .6-.1.8-.3 6.4-5.4 10.4-12 10.4-20.5 0-3.6-.5-7.1-1-10.6-.5-3-1.2-6 2.1-8.2-2 .2-3.7.8-5.3 1.6-2 1-4 2.3-5.9 3.6l-.2-.2c.5-.4.9-1 1.1-1.6a73.5 73.5 0 0 1 22.8-33.2 73 73 0 0 1 64.5-15.3A72.7 72.7 0 0 1 183 56.7a73 73 0 0 1 16 58c-1.3 9-4.3 17.5-8.9 25.4a73.6 73.6 0 0 1-73.9 37.2 72.8 72.8 0 0 1-42-19.9c-1.3-1.2-2.6-1.3-3.7-.3-.2.2-.4.4-.4.7-.7.6-1.2 1.4-1.7 2.1a15 15 0 0 1-6.9 3.8c-4.3.9-8.6.6-12.8-.8-.1 0-.3 0-.3-.2.4-.1.8 0 1.2.1 3.2.8 6.5 1.4 9.9.8 5-.7 8.4-3.8 11.2-7.8L67 155c-1.6-.3-3.3-.6-4.7.8l-.2-.2c.2-.5.8-.5 1-1a9 9 0 0 0-5.1.2l-.2-.2c.2-.1.3-.3 0-.3l-1.6.1-3.7.8c1.1-.7 2.3-1 3.5-1.1.6 0 .9-.9 1.4-.7 1.8.7 3.7-.1 5.8.5l-.6-1 .2-.1c.6.2.8.9 1.5 1 2.6.4 5.1.9 7.8 1.8a14 14 0 0 0-3.2-3.7l-2.4-1.9c1-.3.2-.6 0-.8a69.5 69.5 0 0 1-5.8-8.8c-.7-1.4-2-2.4-3.1-3.4-.5-.4-.9-.3-1.3 0-.8.5-1.7.8-2.5 1.2a1 1 0 0 0-.8.4Zm58.2 32.9s0 .2.1.1l-.1-.1-.2-.3-.3-.2-.4-.2c0 .3.2.3.4.2 0 .3 0 .3.3.2-.1.3 0 .3.2.3Zm-1.2-1.2v.1-.1l-.3-.2c0-.4-.5-.5-.4-1 .8-.1 1.5.2 2.5.2-.8-.4-1.5-.4-2.1-.4-.5 0-1-.2-1.3-.7a40.7 40.7 0 0 1-5-11.6c5 .5 9.7 1 14.5 1.2.4 4 .8 7.9 1.7 11.8h-2.4c.3.2.7.3 1 .2 1.2-.2 1.7.3 2 1.4 0 .8.2 1.7 1 2.2 0 .3 0 .4.3.5l.2.3h.2-.2c0-.2 0-.3-.3-.2a60 60 0 0 1-3-16l.4-.2h13.3c.8 0 .8.4.8 1l-.4 3.1c-.4 2.6-.7 5.2-1.5 7.7l-1.2.1c.3.3.8 0 1 .4-.1 1.1-.7 2.2-1.2 3.5a5 5 0 0 0 1.3-2.2c.3-1 .5-2 2-1.7l-1.4-.1c.8-3 1.3-6 1.8-9 .8.4 1.5 1.5 2.5 1a9.8 9.8 0 0 1 4.3-1.3c1.7-.1 3-.7 4.3-1.6l3-2.1a44.2 44.2 0 0 1-4.2 10.4c-.7 1.2-1.4 2.2-3 2-.3 0-.7 0-1 .2.6.1 1.3 0 1.7.3.1.5-.3.7-.3 1 .5 0 .7-.5 1-.9.4-.3.6-.7 1.2-.7a75 75 0 0 0 7.7-1.4c.2 0 .6-.3.7.2 1-.7 2.4-1 3.6-1.3-4 .8-7.8 1.9-12 2.2v-.5c2.4-3.4 4-7.2 5-11 .2-.5.4-.6.9-.7 3.8-.5 7.7-1.2 11.5-2l.3.2c-.7 1.8-1.7 3.5-2.6 5.2-.4.5-1 1-1 1.7-.3 0-.3.2-.3.5.2-.1.4-.3.4-.5 1.6-2 2.7-4.3 3.8-6.5.2-.4.3-.9.8-1 3.2-.8 6.4-1.7 9.5-2.9.6-.2.5.3.8.5.2-1 1-1.1 1.6-1.4 2-1 4-1.7 5.7-3.1.2 0 .4 0 .3-.3.8.3 1-.2 1.3-1l-1.3 1c-.1 0-.3 0-.2.3-.5-.1-.8.2-1.1.4l-4.5 2.2c-.3.1-.6.6-1 0 .6-.7 1-1.5 1.3-2.4.3-.2.4-.6.5-.9 2.2-4.7 3.6-9.7 4.5-14.8 0-.5.2-.8.8-1a50 50 0 0 0 8.2-4.3l.2.3c-.4 3-1.4 5.8-2.2 8.7 1.2-3 2-5.9 2.6-9 0-.4.4-.7.7-1 1.3-1 2.5-2 3.4-3.4.2 0 .3-.2.2-.5.4.1.4-.1.4-.5-.2.2-.4.3-.4.5-.2.1-.4.2-.2.5-.5 0-.6.5-1 .7-.8.7-1.4 1.6-2.5 2-.3-.8 0-1.6 0-2.4-.3.7-.4 1.4-.5 2.1-.1.5 0 1-.5 1.3a46 46 0 0 1-9 4.6c1.2-7.8.9-15.5 0-23.3 3.3-1.3 6.4-2.8 9.3-4.8.5 1 0 2.3.9 3.2l-.3 2.3c-.4-.4-.3-.9-.7-1.1v1.5c.5.3.5-.4.9 0a58.5 58.5 0 0 0 0-2.6c.1-1.4-.8-2.8.2-4.2.6.6.6 1.2 1.1 1.5.4-.9 0-2 1-2.6.1 1.5 0 2.9.8 4.4 1-1.8 0-3.1-.6-4.5-.4-.5.1-.8.4-1.1.9-1 1.9-2.1 2.3-3.5.2-.5.5-1 .3-1.5 0 .5-.5.8-.6 1.3-.8 1.3-1.5 2.7-2.8 3.5-1.7-6-1.4-12-.6-18.4 1.7 1.8 2.2 4 3 6.2v-1.4c.5.3.3.8.8 1a69.1 69.1 0 0 0-23-37.4c-8.8-7.3-26.2-15.8-31.5-15.1 0 .1.5 0 .4.5a49.4 49.4 0 0 0-26.1-1c.7.4 1.6 0 2.3.2 0 .6-.8.5-.7 1.2.3.2.8.5.7 1.1-3.1-.3-5.4.2-6 1.6 2.4-.6 4.9.4 7.2-.5-.2-.9-1.1-.5-1.2-1.1 1 0 2.2.2 3.2.8-.4.7-.3.8.5.8 1 0 2-.3 2.3 1.3.1.7 1 1 1.7.7 1.2-.5 2.5-.5 3.6-.3 2.5.4 4.5-.8 6.6-1.2.2 0 .4-.3.4-.4.6-1.7 2-1.1 3-1.1h2c.6 0 1.1.2 1.5-.2-.1-.6-.9-.4-.8-1.1.6-.2 1.3.4 2 0l-.5-.5c1 0 1.8.2 2.4.9-.3.2-.7-.2-1 .3.6.3 1.4.5 1.2 1.4-.3.2-.6 0-.9-.1-1-.4-2-.8-3.2 0 1.6.6 2.2 2.6 4 2.8-.5 1.4.8 1 1.3 1.5q-.4.8-2.5 1l4 2.4c-1 .8-2 0-2.8.2 0 .5.6.5.6 1h-.1c-1.8.6-3.4 1.8-5.4 1.4h-.2c0 1-.7.6-1.1.6a7 7 0 0 1-4.8-1.3c-.2-.1-.4-.3-.6-.2-1.3.6-2.9.6-4 1.7-.4.4-1.1 1-2 1H123c0-1.3.3-2.4.4-3.6-.2.8-.5 1.7-.6 2.6 0 1-.5 1-1.3 1-2.8-.2-5.6-.5-8.4-1-1.5-.4-3-.6-4.5-1.3 1.4 0 2.5 0 3.7-.6l-1.1-.6c.6.2.8-.6 1.2-.6.4.2-.2.6.3.8 3.1-2 5.5-5.1 9-6.5-.2-.4-.6 0-1-.1-.3-.1-.2-.5 0-.6.3 0 .6 0 .5-.5-.2-.5-.6-.3-.9-.3-2.3 0-4.6-.7-7-.4-1.3.2-2.3.8-3.6 1 .4 1-1 2.3-4 3.4-.1.9-1.4 2-2.5 2.2-.7 0-1.7-1-2.2-2.6 1.6-.3 2.4-1.8 3.7-2.4.1-.3-.5-.3-.2-.5.6-.5.7.3 1 .2q.5-.4.8-1.4-1.3-.2-1.8-.8c-.4.5-2.3.8-3.2.4 1-.2 1.5-1 2.3-1.2.2 0 .5-.2.3.3-.1 0-.3 0-.3.3h.5c2-.6 4-.8 5.5-2.2-5.8.5-11.1 2.8-16.3 5.4-5.4 2.6-10.3 6-15 10 .4.3.8-.2 1.1.2-.7.7-1.2 1.5-2 2.1-.1-.7.7-1 .7-1.6 0-.2.2-.3 0-.4l-.2.2c-5 4.2-9 9-12.6 14.5-.8 1.2-1.4 2.6-1.7 4l-.3.1.2-.1h1.1a3 3 0 0 1 1.6-3.2 8 8 0 0 0 2.7-2.6c1-1.4 2.1-2.9 4.3-2.5l.4-.2c.7-1.4 2-1.4 3.5-1.6l-1.3 1.3c0 .1-.3.2-.1.3l.3-.1c1-.7 2.5.1 3.5-1.1-.8 0-1-.6-.8-1.1.2-.9.9-1.4 1.8-1.7l1.2 1.5c-.3.3-.7.3-.9.7 1.4.5 1 2 1.5 3-.3-.2-.3 0-.3.1-.2 0-.2 0-.2.3-.3-.1-.3.1-.3.3.1-.1.3-.2.3-.4l.2-.2.3-.2 1.6-1.8c1.6 1.1 3.2 2 4.8 2.7.7.3 1 .6.7 1.2-.5 0-.5.4-.7.7a6 6 0 0 0-1.3 1.8l-.5.8c-3.6 5-6.4 10.4-9 16a38.5 38.5 0 0 1-7.6-4.2l3-5.4C72 74.3 71 76.2 70 78c-3.1-2.3-5.6-5-5.8-9-.6 4.5 2.4 7.2 5.5 9.7L68 82a68 68 0 0 0-2.7 6.7c-.3 1-.9 2-.8 3.3 1.5-4.5 3.2-8.9 5.4-13.1 2.5 1.7 5 3 7.7 4.1C75 89.5 73 96 72 102.8c1.6-6.7 3.4-13.3 6.2-19.6 3.6 1.4 7.2 2.4 10.7 3.4-.4 2-1.1 3.6-1.2 5.5.9-1.7 1-3.6 1.9-5.4 4 1 8 1.7 12.1 2.4-.4.5-1 .3-1.6.6 1.5.2 3 .1 4.5.8-1 .9-2.1 1.3-3.2 1.7.5-.9 1.6-.8 2.3-1.6-3-.7-5.8-.4-8.7.1a39.7 39.7 0 0 0-32.4 36.8c-.2 5 .3 9.9 3.2 14.2.2.3.3.8.8.9a72.9 72.9 0 0 1 3-13.9c0-1.3-.3-2.7-.4-4-.3-2-.5-4-.4-6.1.4 2.8.5 5.6 1.5 8.6a71 71 0 0 1 4.4-9.5c.4-.6.6-1.3.5-2.1 0-2.8.3-5.4 1.2-8.3-.2 2.8-1 5.4-.4 8 2.5-4.3 6.2-8 7.8-12.8 0 .9-.5 1.6-.5 2.6l2.4-3c.8-.8 1.4-1.9 2.5-2.3 0 .5-.5.8-.8 1.1-1 1.3-2.1 2.5-3 3.9l-.2.2h.3c1-.3 2-1 3-1.2l-1.1.7c-1.2.7-2.6 1.2-3.4 2.2-1.7 2.1-3.2 4.3-4.5 6.7v.2h.2l1.6-1.1.2.2c-4.6 4-6.9 9.4-9 14.8 3.4-1.5 6.1-3.8 8.9-6.1l-.5.7c-2.2 2.6-5 4.5-7.8 6.5-1 .9-1.7 2-2.1 3.3-.6 2-1 4-1.4 6.1l-.7 4.9.8-.3a41.4 41.4 0 0 0 24.6-25.1c2-6.2 3.2-12.5 4.5-18.8.4-1.7.5-3.6 2-4.8-.3 1.3-1 2.4-1.3 3.7-1 4.8-1.8 9.7-3 14.5-.1.4 0 .7.1 1 .8 1.7 2 3 3.3 4.2.5.5.7.9.7 1.6-.2 4.5-.2 9 0 13.4 0 1.5 0 3 .2 4.4h-1c-4.7-.6-9.5-1.5-14.2-2.6-.6-.2-.9-.3-.7.5.9 6.3 2.2 12.4 4.7 18.4l-.3.2c-3.3-.7-6.5-1.8-9.6-3-.6-.2-.9-.5-1.1-1a61 61 0 0 1-3-7c-.2-.3-.2-.6-.7-1 1 3 2.2 5.6 3.6 8.5l-3.9-1.7c1.4 1.3 3.4 1.5 4.8 2.9 0 .2-.1.4.2.5 0-.3 0-.4-.2-.5.2-.6.5-.2.8-.1 3 1.1 6 2 9 2.8.7.2 1 .5 1.2 1 1.2 2.6 2.5 5.1 4.3 7.3.1.2.1.5.5.5-.1.2 0 .3.2.5.2.3.3.7.8.7v.2l.1-.1-.1-.1c-.2-.3-.3-.8-.8-.7.2-.3 0-.4-.2-.5 0-.3-.1-.6-.5-.5.2-.5-.2-.7-.4-1a41.2 41.2 0 0 1-3.6-6.5l.3-.3c4 .9 8 1.7 12 2.2.8 0 1 .4 1.2 1 1.1 3.8 2.5 7.3 4.6 10.5.1.2.3.4 0 .7-3.5-.4-7.2-1-10.8-2 1 .1 1.5.9 2.3 1.1v.1c-.2-.5 0-.5.3-.4 1 .2 2 .3 2.9.6 2.4.7 5.3.1 7.3 2.1 0 .2 0 .4.3.2Zm-14.2-5.7c0 .1.1.2.3.2.1 0 .2 0 .2.3l-.3-.3c0-.1 0-.2-.2-.2 0-.2 0-.3-.3-.2v-.2.2c.2 0 .2.1.3.2Zm75.5-12.5c-.2 0-.3.2 0 .5v-.5h.2v-.2l-.1.2ZM156 162.6c.3 0 .4-.2.4-.4-.3 0-.4.2-.4.5h-.2l.2.1v-.2ZM77.4 66.8c-.4 0-.4.1-.4.4.2 0 .3-.2.4-.4.2-.1.3-.3.2-.5.5 0 .5-.4.5-.8l-.5.8c-.2 0-.3.2-.2.5Zm1.1-1.7.3-.1v-.2l-.2.3-.2.1h.1v-.1Zm77 98.3c-.1-.1-.2 0-.2 0v.2l.2-.2.2-.2h-.2v.2ZM75.7 68.9c-1 1-1.7 2.3-2.3 3.6.7-1.2 1.8-2.2 2.3-3.6.3 0 .3-.2.4-.5-.3.1-.4.3-.4.5Zm-14 38.2c-1.9 3.2-4 6-6.5 8.2-.4.4-.4.8-.3 1.3a72 72 0 0 0 5.7 17.4l1.4 2.8c.3-.4.2-.6.2-.8a35.3 35.3 0 0 1 1-17.4c.5-1.7.7-3.2-1-4.3 1.2-2.5.4-4.7-.4-7.2ZM73 147.9c-.8-.9-1.8-1-2.3-1.8-.4-.7-.6-1.6-.7-2.5-.6 0-1 .4-1.3.6-1.3.7-1.4 1.1-.5 2.3l2.6 3.2c.4.5.7.6 1.2.4l-.8-3 1.8.8Zm69.9-103.2c-2-.8-3.4-1.8-3.3-4.1 0-.4-.3-.5-.6-.5-.6 1.4-.4 2.3 1.2 4 .6.8 1.5 1 2.7.6Zm-73 60.6c-2.2-1-4-2-6.3-3.2.8 1.5 5.4 3.8 6.3 3.2Zm57.9-62.4c0-1.4.8-2 1.6-2.6-1.3-.8-2.2.4-3.6.2.4 1 1 1.5 2 2.4ZM109 36.4c-1.2-.2-1.7.2-1.6 1.2.9.1 1.3-.4 1.6-1.2ZM63.2 69c-.8.8-1.3 1.8-1.5 3l1.5-3Zm65 101v-.1H123h5.3Zm6.4-131.2c-.8-.4-1.4-.4-1.7-.1-.1.1-.2.3 0 .5.5.4 1 0 1.5-.1 0 0 0-.2.2-.3Zm2.1-2c1 .9 1 .9 2 0-.7-.2-1.3-.1-2 0ZM73 142.1c-.6 0-.9.2-1.2.5q.8.5 1.2-.5Zm55.6-100.7c0 .5.3.7.8.5-.1-.4-.4-.5-.9-.5Zm-51.8 26c-.3.2-.5.4-.6.8.4-.1.5-.4.6-.7Zm18.7 98.7H95c.1.1.3.1.4 0Zm60.3 0h-.2s-.3-.1-.1 0h.3Zm-60 .2c.3.1.4.2.6 0h-.6Zm97.8-45.7v-.1h-.1v.1h.1ZM73.2 147.9H73h.1Z" fill="#295a87"/>
  <path d="M68.3 160c.5-.8 1-1.6 1.7-2.2l4.9 4-.4.2-4-4.9c1-1 2.4-.9 3.6.3a73.6 73.6 0 0 0 42 19.9 73.6 73.6 0 0 0 82.7-62.7 73 73 0 0 0-15.9-58 72.6 72.6 0 0 0-64.3-27 72.9 72.9 0 0 0-41 17 73.5 73.5 0 0 0-22.7 33c-.2.7-.6 1.3-1 1.7-1 .5-1.6 1.5-2.5 2a75.3 75.3 0 0 1 61-55.3A76.6 76.6 0 0 1 198.8 82l1.3 4.1c-6.5-24.7-20.1-43.9-44-54.4A81.8 81.8 0 0 0 86.2 33c1.7-1.1 3.6-2 5.6-3A80.5 80.5 0 1 1 68.4 160Zm7.2 2-.2-.3c-.2.2 0 .3 0 .3l.3.4c.1-.3 0-.4-.1-.5ZM44.8 127.9c-3.2-1-6.2-2.3-9.5-3-.5-.2-.7-.6-1-.9-.2-.3-.5-.6-1-.7-.1.5.5.7.5 1.2a82 82 0 0 0-16.3-1.3c5.4.4 11 .7 16.5 2-2.4 1.1-5 1.1-7.4 1.7a27 27 0 0 0 8.2-1.2 3 3 0 0 1 1.8 0c2.8.9 5.5 1.9 8.5 3.3-4.2 1-8.2 1.4-12.3 1.4 2 .6 4.1.4 6.1.3 2.3-.1 4.7-.2 6.9-1 .3-.2.6-.1.9 0 3.4 1.8 6.6 3.8 9.6 6.3a28.2 28.2 0 0 1-7.3 3c-8.8 2.3-17.2 1-25.5-2a44.7 44.7 0 0 1-10.5-5.7c-.4-.3-.8-.8-1.4-.7 0-.4-.3-.6-.7-.5-1.8-1.7-4-3-6.5-3.4-1-.1-2 .2-2.8 1-.2 0-.4 0-.5.2-.6 0-.3-.4-.4-.7l1-1.7c.2 0 .3 0 .4-.3.2 0 .3-.2.2-.4.2 0 .3 0 .3-.3.1.1.3 0 .4 0 4.9-4.6 10.9-7 17.3-8.2 9.4-1.7 18.5-.4 27 4.3 5 2.9 8.2 7 9 12.8l.2 1-5-3-1.3-.8c-2.3-1-4.5-2.1-5.7-4.6a5 5 0 0 0-2.6-2.2c-.1-.2-.3-.3-.5-.2 0-.2 0-.3-.2-.2l.2.1c0 .3.2.3.4.4l2 2c.5.6 1 1.1 1 2Zm-12-5.2-.2-.2c-.1-.1-.3-.2-.5 0l.4.2.2.2c.1.2.3.4.4.2.2-.2 0-.3-.2-.4Z" fill="#7eba04"/>
  <path d="M62.3 155.8c1.4-1.4 3-1.1 4.7-.8l3.6.7c-2.8 4-6.1 7.1-11.2 8-3.4.4-6.6 0-10-1h-1c-1.7-.7-3.3-1.5-5.2-.8-.7.4-1.3 1-2 1.6.3-5.8 2.6-10.4 7.3-13.6.3 0 .5 0 .6-.2 0 0 .2 0 .2-.3.2 0 .4 0 .5-.2.2 0 .4 0 .5-.3.2 0 .4 0 .6-.2h.4c3.2-1.2 6.4-1.1 9.7-.5 2 .3 3.7 1.2 5.5 1.8l2.5 1.8a14 14 0 0 1 3.1 3.7c-2.7-.9-5.2-1.4-7.7-1.7-.7-.1-1-.9-1.6-1l-.3-.2.1.3.6 1c-2-.7-4 .1-5.8-.6-.5-.2-.7.7-1.4.7-1.2.1-2.4.4-3.4 1.2l3.6-.8 1.6-.2c.3 0 .2.2 0 .4-.3.2-.7.2-.8.7.5 0 .7-.3 1-.5a9 9 0 0 1 5-.3c0 .5-.7.6-.9 1l-.2.3-.2.2-.2.3-.2.3c-.2 0-.3.1-.2.3H61v.1l.3-.4.3-.2.2-.2.3-.2.2-.3Zm-6.5.6.2-.2c.2 0 .3-.1.3-.3.1 0 .2 0 .2-.2.1 0 .2 0 .1-.2l-.1.2-.2.2-.3.3-.2.2Zm5-4.8c0-.1 0-.2-.2-.1l.2.1c.4.5.8.8 1.6 1-.5-.7-1-1-1.6-1Zm-9.2 3.7c.1 0 .3.3.6 0h-.6Zm8.1-4.3c-.2 0-.2 0 0 0Zm.6.3H60h.1ZM49.6 115.4l2.2 1.6c.3.2.5.4.6.7.4 2.7 1.2 5.4 2 8.3-1.3-1.4-2.2-2.7-3.5-3.7-.4-2.3-1-4.6-1.3-7ZM53 138.6c.3-.3.5-.4.8-.4 1.8 3.3 4.1 6.3 6.4 9.4l-2.2-.3c-1.8-2.8-3.6-5.7-5-8.8Z" fill="#7eba04"/>
  <path d="m58 147.3 2.2.2c.9.3 1.7.6 2.7.5 1 .9 2.6 1 3.7 2-2-.6-3.7-1.4-5.6-1.8-3.3-.6-6.5-.7-9.7.5H51c1.8-1 3.9-1.2 6-1.3H58ZM1.6 127.7c.8-.8 1.8-1.1 2.8-1 2.5.4 4.7 1.6 6.5 3.4-1-.2-1.7-1-2.6-1.5-2.1-1.4-4.3-2-6.7-1ZM51.4 83.3c.9-.5 1.4-1.5 2.4-2l.2.2-4 4-.1-.2 1.5-2ZM43.2 162c1.9-.7 3.5 0 5.1.7-.8 0-1.4-.3-2.1-.5-1-.3-2-.4-3-.3ZM.8 127.2c0 .3-.3.8.3.7-.2.4-.6.5-1 .8 0-.7.2-1.1.7-1.5Z" fill="#295a87"/>
  <path d="M11 130c.3 0 .6.2.7.6-.5 0-.7-.1-.8-.5ZM2.3 124.8c.1.2 0 .4-.2.4-.2-.2 0-.3.2-.4ZM50.9 148.7c-.2.3-.4.3-.7.3.2-.3.4-.3.7-.3ZM50.3 149c0 .3-.3.2-.5.2 0-.2.3-.2.5-.2ZM49 149.7c0 .2-.2.3-.4.2 0-.2.2-.3.5-.2ZM49.8 149.2c0 .3-.3.3-.5.3.1-.2.3-.3.5-.3ZM1.1 127.9c.1-.3.3-.3.5-.3 0 .3-.3.3-.5.3ZM2.5 124.5c.1.2 0 .3-.2.3 0-.2 0-.3.3-.3ZM2 125.2c0 .3-.1.3-.3.3 0-.1.1-.3.4-.3Z" fill="#295a87"/>
  <path d="M85.2 33.6H85v-.1h.1Z" fill="#7eba04"/>
  <path d="m49.3 149.5-.2.2c0-.2 0-.2.2-.2Z" fill="#295a87"/>
  <path d="M85.7 33.3h-.2.2Z" fill="#7eba04"/>
  <path d="M189.3 105.3c-.7-1-.3-2.2-.8-3.2-3 2-6 3.5-9.2 4.8.8 7.8 1.1 15.4-.1 23.3a47 47 0 0 0 9-4.6c.5-.4.4-.9.5-1.3 0-.7.2-1.4.4-2.1.2.8-.3 1.5 0 2.4 1.2-.4 1.8-1.3 2.7-2 .2-.3.3-.8.9-.7-.9 1.4-2.2 2.3-3.4 3.3-.4.3-.6.6-.8 1.2-.5 3-1.4 6-2.5 8.8.8-2.8 1.8-5.7 2.2-8.6v-.4h-.2a49.6 49.6 0 0 1-8.3 4.3c-.5.2-.7.5-.8 1-.9 5.2-2.3 10.2-4.4 14.9-.2.3-.2.7-.5.9v-.5a59.3 59.3 0 0 0 4.6-15.6h-.5a94.9 94.9 0 0 1-11.2 3.5c-.2 0-.5 0-.6.4l-.8 5.6c2-1 2.5-3 3.9-4.6 0 1.6 0 2.8-.5 4.2-.9 2.4-2.1 4.5-3.4 6.7-.5.9-.8 2-1.6 2.6-1.5.8-1.7 2.3-2.2 3.6l-.1.3h.2c3.1-.7 6-1.6 9-2.7.7-.2 1.4-.5 2-1 .3.5.6 0 .9-.1l4.5-2.2c.3-.2.6-.5 1-.4-1.7 1.3-3.7 2.1-5.7 3-.7.4-1.4.6-1.6 1.5-.3-.2-.2-.7-.8-.5-3.1 1.2-6.3 2.1-9.5 2.9-.5.1-.6.6-.8 1-1.1 2.2-2.2 4.5-3.9 6.5 0-.8.6-1.2 1-1.7 1-1.7 2-3.4 2.6-5.2.1-.4 0-.3-.3-.2-3.8.8-7.7 1.5-11.6 2-.4 0-.6.2-.7.6-1.2 4-2.7 7.7-5 11v.6c4-.3 8-1.4 11.9-2.3-1.2.5-2.5.7-3.6 1.3-.1-.4-.5-.2-.7-.1-2.5.6-5.1 1-7.7 1.4-.6 0-.8.4-1.2.7-.3.4-.5.8-1 1 0-.4.4-.6.3-1-.5-.5-1-.3-1.7-.4.3-.1.7-.3 1-.2 1.6.2 2.3-.8 3-2a44 44 0 0 0 4.3-10.5l-3 2.2a8.2 8.2 0 0 1-4.4 1.6c-1.5 0-3 .4-4.3 1.2-1 .6-1.7-.5-2.6-1-.4 3-.9 6-1.7 9l1.3.2c-1.4-.3-1.6.7-2 1.7a5 5 0 0 1-1.2 2.2c.5-1.3 1-2.4 1.3-3.5-.3-.4-.8-.1-1-.4h1.1c.8-2.6 1.1-5.2 1.5-7.8l.4-3c0-.7 0-1-.8-1H118.5c.4 5.3 1 10.5 2.7 15.5-.8-.5-.9-1.4-1-2.2-.4-1.1-.8-1.6-2-1.4a2 2 0 0 1-1-.2h2.4c-.9-4-1.3-7.8-1.7-11.8-4.8-.3-9.6-.7-14.4-1.3 1.1 4.3 2.6 8.1 4.9 11.7.3.5.8.6 1.3.7.6 0 1.3 0 2.1.3-1 0-1.8-.2-2.5 0-.1.4.4.5.4.9-2-2-4.8-1.5-7.3-2.2-.9-.3-1.9-.4-2.9-.6-.2 0-.5 0-.3.3-.8-.2-1.3-1-2.2-1a79 79 0 0 0 10.8 2c.2-.4 0-.6 0-.7a38.2 38.2 0 0 1-4.6-10.5c-.2-.7-.5-1-1.3-1.1-4-.5-8-1.3-12-2.2-.2-.1-.4-.1-.2.3 1 2.3 2.2 4.4 3.5 6.5.2.3.6.6.5 1a31.9 31.9 0 0 1-4.4-7.2c-.2-.5-.5-1-1.1-1-3-.8-6.1-1.8-9.1-3-.3 0-.6-.3-.8.2-1.3-1.4-3.3-1.6-4.7-2.9l3.8 1.7c-1.4-2.9-2.6-5.5-3.6-8.4.6.3.6.6.7 1 .8 2.3 1.8 4.7 3 7 .2.4.6.7 1.1 1 3.2 1.1 6.4 2.2 9.7 3h.3l-.1-.3c-2.4-6-3.8-12.1-4.7-18.4-.1-.8.1-.7.8-.5 4.7 1.2 9.4 2 14.2 2.6h1l-.3-4.4c-.1-4.5-.2-9 0-13.4 0-.7-.2-1.1-.6-1.6a12 12 0 0 1-3.3-4.2c-.2-.3-.3-.6-.2-1 1.2-4.8 2-9.7 3-14.5.3-1.3 1-2.4 1.3-3.7.3 0 .3 0 .2-.3.7-.3 1.2-.8 1.5-1.4 1-.4 2.1-.8 3.1-1.7-1.5-.6-3-.5-4.4-.8.5-.2 1.2-.1 1.6-.6a146 146 0 0 1-12.2-2.3c-.8 1.7-1 3.6-1.9 5.3.1-1.9.8-3.6 1.3-5.5-3.6-1-7.2-2-10.8-3.4-2.8 6.3-4.5 13-6.1 19.6 1-6.8 3-13.3 5.7-19.8a47.3 47.3 0 0 1-7.8-4.1c-2.2 4.3-3.9 8.6-5.3 13-.1-1.1.4-2.2.8-3.2a79.6 79.6 0 0 1 2.7-6.7l1.5-3.3c-3-2.5-6-5.2-5.5-9.8.3 4.1 2.7 6.8 5.9 9.1 1-1.8 2-3.7 3.3-5.2l-3 5.4c2.4 1.8 5 3 7.6 4.2 2.6-5.6 5.4-11 9-16l-.7 1.4c-3 4.7-5.6 9.5-7.8 14.7 3.5 1.5 7 2.6 10.7 3.4 2.4-7.2 5.3-14.1 9-20.8-2.7-.8-5.2-1.4-7.6-2.4-.6-.3-.8.2-1.1.4.2-.6 0-1-.7-1.2-1.7-.7-3.3-1.6-4.9-2.6L82.2 61c-.5-1 0-2.4-1.4-2.9.1-.5.5-.4.8-.7L80.4 56c-.9.2-1.5.8-1.8 1.7-.2.5 0 1 .9 1.1-1 1.2-2.5.4-3.5 1h-.2l1.2-1.4c-1.4.2-2.7.2-3.5 1.5 0 .2-.2.3-.3.3-2.2-.4-3.3 1.1-4.3 2.5a8 8 0 0 1-2.7 2.6 3 3 0 0 0-1.6 3.3l-1.1-.1a14 14 0 0 1 1.8-4 66.4 66.4 0 0 1 12.5-14.5l.2.1c0 .7-.7 1-.7 1.7 1-.6 1.4-1.5 2.1-2.1-.3-.4-.7 0-1-.3 4.5-3.9 9.4-7.3 14.9-10a46.2 46.2 0 0 1 16.3-5.3c-1.6 1.4-3.6 1.6-5.5 2l-.2-.1c.2-.5-.2-.4-.4-.3-.8.2-1.3 1-2.2 1.2.9.4 2.8.1 3.2-.4q.4.6 1.8.7-.3 1-.8 1.5c-.4 0-.5-.7-1-.2-.3.2.3.2.2.5-1.4.5-2.2 2-3.7 2.4.4 1.5 1.4 2.7 2.2 2.5 1 0 2.3-1.3 2.4-2.2 3-1 4.5-2.2 4-3.3 1.3-.2 2.4-.8 3.7-1 2.4-.3 4.7.4 7 .3.3 0 .7 0 .8.3.2.5-.2.5-.5.6 0 0-.2.4.1.5.3.1.7-.3 1 .1-3.5 1.5-6 4.5-9 6.6-.5-.2.1-.6-.3-.9-.5 0-.6.9-1.2.7l1.1.5c-1.2.6-2.4.7-3.8.6a62.9 62.9 0 0 0 13 2.3c.8.1 1.3 0 1.3-1 0-.8.3-1.7.6-2.6 0 1.2-.5 2.4-.5 3.7h4.3c.8 0 1.5-.6 2-1 1.1-1.2 2.6-1.1 4-1.7.2-.1.4 0 .6.2a7 7 0 0 0 4.7 1.3c.4 0 1.2.3 1.1-.6h.2c2 .4 3.7-.9 5.4-1.4h.1c0-.5-.6-.5-.5-1 .8-.3 1.8.5 2.7-.2l-3.9-2.5q2-.2 2.4-1c-.4-.4-1.7 0-1.2-1.4-1.9-.3-2.4-2.2-4-2.8 1-.9 2.1-.4 3.2 0 .2 0 .5.3.8 0v.2h.1V37c.1-1-.7-1.1-1.3-1.5.3-.4.7 0 1-.3-.6-.6-1.4-.7-2.4-.8l.5.6c-.6.3-1.3-.3-2-.1 0 .7.7.5.8 1-.3.5-.9.3-1.3.3h-2c-1.2 0-2.6-.6-3.1 1 0 .2-.3.4-.4.4-2.2.5-4.2 1.7-6.6 1.3a6.5 6.5 0 0 0-3.6.2c-.8.4-1.6.1-1.7-.6-.3-1.6-1.3-1.4-2.4-1.4-.8 0-.8 0-.5-.8-1-.5-2-.7-3.2-.7.2-.6-.3-1-.7-1.1 0-.7.7-.7.8-1.2-.8-.3-1.6.2-2.3-.2 8.7-2 17.4-1.8 26 1 .1-.5-.2-.4-.3-.6 5.2-.6 22.7 7.9 31.4 15.2a69.1 69.1 0 0 1 23 37.3c-.4-.1-.3-.6-.6-1v1.5c-1-2.3-1.5-4.4-3.2-6.2-.7 6.3-1 12.4.7 18.4 1.3-.8 2-2.2 2.8-3.5l.2.2c-.4 1.4-1.4 2.4-2.3 3.5-.2.3-.7.5-.3 1l-.2.2c-1 .6-.6 1.7-1 2.6-.6-.3-.6-1-1.1-1.5-1 1.4-.1 2.8-.2 4.1Zm-39-15.8-.2-.2c-.2.1 0 .2 0 .3l.3.5 4.3 6.4a11 11 0 0 1 1.5 3c.6 2.2 2 4 3.7 5.2 1 .7 2.1 1.3 3 2.2.3.3.6.6.7 1 .2 1.3.4 1.4 2 1 0-.7 0-1.4-.3-2.2-1.6.5-1.7.5-2.3-1l-.7-2.2a6.2 6.2 0 0 0-2.7-3.8c-1.2-.8-2-2-2.4-3.3-.2-.8-.4-1.6-1.2-2-2.1-1.3-2.7-4-4.7-5.5-.5 0 .7 1.6-.7 1 0-.2-.2-.3-.3-.4Zm-9-41.2c-.5 0-1-.5-1.6-.1.4 1 .2 1.3-.9 1.3h-2.2c2.2 1.9 2.5 2 3.5 1.8 0-.4-.6-.1-.6-.6h1.3c-.8-.8-.3-1.5.1-1.7.6-.1.2-.6.5-.7.4 0 .7.5 1.2 0l-.2-1c-.4.5-1.3 0-1 1Zm-34.9 28.6c-.5.5-.5 1.2-.6 1.8l-1.5 6.3 4.8-3.8 1.3.7c1.3.4 2.2-.2 3.3-.5 1.6-.4 3.3-.4 5-.8 0-2 .6-3.9.3-5.9-.8.4-1.6.6-2.2 1-1 .6-1.9 1.1-1.6 2.5 0 .6-2.3 2.3-3 2.1-1.2-.2-2 .1-3.2.8.1-2-1.5-1.4-2.5-1.9.3-.8.6-1.6-.1-2.3a5.5 5.5 0 0 0 1.4-4.4c1-.6 1.8-.6 2.7-.2 1.2.6 2.6.3 3.9.7.1 0 .3 0 .4-.2.3-.1 1.1-2.6 1-2.9-.8-1-1.4-2.2-2.8-2.3l-4-.4-2.2 7.5c-.2.7-.6 1.4-.4 2.2Zm-23-20.6.2.2c-.3 1.3.3 2.2 1.4 2.8l3.7 2c.8.4 1.4.6 2.1 0 0 .2-.4.4-.2.8a62 62 0 0 0 7 2.3c.7.1 1-.1 1.2-.6l2.3-3.9.3.2-2.6 4.5a83 83 0 0 0 10 1.9l.4-1.4c1.4-4 3-8 4.9-12 .2-.3.2-.8.7-1-1 2.9-2.6 5.5-3.4 8.4.6.2.7-.2 1-.4.4-.4.8-.3 1.2 0 .3.3.4.7 0 1-.2.1-.3.4-.3.6-.3.7-.5 1.2-1.4 1.3-.7.2-1.6.2-2 1.2-.1.7-.4 1.5-.7 2.3 2 .4 4 .4 6 .6.6 0 .5-.6.7-.8 1.9.7 2.4-1.2 3.6-1.7 1.7-.8.6-2.6 1.6-4l-.2 3c1-.7 1.9-1.3 3-1.4 1 0 1.1-.6.8-1.2-.7-1.4.3-1.9 1.2-2.6.2.7.2 1.2-.2 1.7-.3.3-.5.8 0 1.2.3.3.6.8 1.3.5.6-.4 1.2-.6 1.7.2.1.3.4.1.6 0 1.3-.4 1.5-1.1.7-2.6-.5.4-1.4.4-1.8 1.2-1.2-1.2-1-3-2.2-4l-1.4 1c-.7.5-1.4.4-1.9-.3a2.5 2.5 0 0 1 1.2-3.7c2-.7 3-2.3 4-4-2.4-.2-4.6 0-6.8-.2-4-.3-8.1-.7-12-2-1.3-.3-2.4-.8-3.7 0-.3.2-.8.2-1.1.1-2.2-.3-3.4 1.4-5.1 2-.9.4-1.7 1.1-2.5 1.6-.3-.4.3-.8 0-1-.9-1 .2-1.9.6-2.2 1.4-1.3 2.5-3.1 4.6-3.8a6.7 6.7 0 0 1-1.7-2.3l-.3.5c-.7 1.3-2 2-2.3 1.5 0-.4.6-.5.4-1-.7.2-1 .6-1.5 1-.6.5-1 1.1-1.7 1.3l-.2-.2v-.4l-.5.4-.3-.3c0-.8.8-.8 1.1-1.3.2-.2.7-.3.5-.7-.4-.9.5-.7.7-.7 1 .5 2 0 2.8-.4.7-.3 1.6-.7 1.5-1.8l.2-.1h-.2c-.8 0-1.5.8-2.2.5-1-.5-1.6.1-2.4.3-1.5-.3-3 .2-4.3.8-1.2.5-2.4 1-3.2 2-1.4 1.6-3 3.1-4.7 4.6-.7.6-1.7.9-2.1 1.9L93 43.1c-.4 2.4-2.6 3-3.7 4.6.8.1 1.3-.5 2-.3 0 .4-.4.5-.6.7-1.5 1.6-3.2 3-3.8 5.2-.3 1.2-1 1.9-2.3 2-1 0-2.2.5-2.9-.8l-.2.2c0 .3.3.7 0 1.1-.2.5.2.8.5 1 .6.5 1-.4 1.5-.4Zm33.5 62c-1.4.1-2.6.7-3.8 1.1-1.2.4-2.4.9-3.7.5a10 10 0 0 0-4 0c-1.8.2-3.6.2-5.2-1.2a184 184 0 0 0 .2 18.3c5.5.7 11 1.1 16.5 1.4-.2-6.8-.2-13.4 0-20Zm-16.5 19.3c.5 6.1 1.3 12 2.7 17.8.2.6.5.7 1.1.8l6 .6 7.6.5a334 334 0 0 1-1-18.3c-5.4-.2-10.8-.7-16.3-1.4ZM89.7 86.1c4.3 1 8.5 1.8 12.7 2.4.8.1.8-.5 1-1l2.1-9.5c.9-3.6 2-7.3 3.2-11-3.2-.4-6.4-1-9.5-1.7-.5-.1-.8 0-1 .5-3.5 6.5-6.2 13.2-8.5 20.3Zm89.1 21a82 82 0 0 1-7 2.3c-.4.2-.6.5-.7 1-1 3.1-1.6 6.4-3.8 9-.2.3-.1.6-.1.9 0 4.1 0 8.3-.5 12.5-.2 1 .3 1.3 1.2 1 1.2-.3 2.4-.8 3.6-1 2.3-.6 4.4-1.4 6.5-2 .6-.3.9-.6 1-1.3.8-5.5.8-11.2.5-16.8-.1-1.8-.2-3.6-.7-5.6Zm-94 27.6c-.3.5-.2.8-.1 1.2.8 5.6 2 11.2 4.2 16.5.3.8.7 1.2 1.5 1.4l7 1.4c1.7.3 3.5.7 5.4.7-1.6-6-2.4-12.2-3-18.4-5-.7-10-1.6-15-2.7Zm32.9 4.5c0 6 .3 12 .8 18.1 4.7.2 9.3.2 13.8 0 0-.5-.5-.6-.7-.9-.7-1-1.6-1.9-1.3-3.2.2-1 0-1.8-.6-2.6l-1.9-2.6c-.4-.5-.6-1-.5-1.7.2-1.9.7-3.6 2.2-5 .5-.4.6-1 .4-1.6-.1-.4-.4-.5-.9-.5h-11.3Zm61.6-33c3.2-1.3 6-2.7 8.8-4.5.5-.4.4-.8.3-1.2-.5-4-2-7.7-3.6-11.3-.1-.4-.2-.7-.6-.9-.3.4 0 1.2-.7 1.2-.5.1-.9-.4-1.3-.7-.5-.3.3-.8-.1-.9-1.4-.4-2.2-1.5-3-2.2-1.7.5-2.8 1.8-4.5 1.8a111.1 111.1 0 0 1 4.7 18.7Zm-50 32.3c0-1.7-.5-3.1-1.2-4.5-.7-1.5-1.7-2.5-2.8-3.7-.7-.8-1.7-1.8-1.2-2.7.6-1.3.7-2.7 1-4 .4-1.7-1-3-2.8-2.5l-1.2.2c-1 0-1.8-.1-2-1.3-.1-.6-.5-1.3-1.4-1.5-.2 6.7-.2 13.2 0 19.9 4 0 7.8.3 11.7 0Zm32.8 12.3c-.4-.2-1 0-1-.7 0-.8 0-1.7.3-2.3 1-1.4 2-2.7 1.7-4.6 0-.1.3-.3.3-.5 0-1 1.3-1 1.5-1.8.5-1.9.8-3.9 1-6l-5 1.1c-.4 1.5-.1 3-.3 4.4-.2 1.1-.7 2-1.7 2.6l-5 3.7c-.6.4-.9.9-.6 1.7.4 1.2-.3 3.3-1.3 3.5-2.3.4-2.3 2.6-3.8 4h1.4l8.9-1.6c2.2-.3 3.2-1.3 3.6-3.3v-.2Zm-24.4-74.4c0 .5.6.7.3 1.3-.3.7-.8.1-1.2.2.1 1 1.2 1 1.8 1.5-.8.3 0 .8-.2 1.2-.8 0-1.2-.4-1.5-1.1-.2-.9-.6-1.6-1.4-2.1-.4-.4-1-.9-1-1.6.3-1.5-.8-1.6-2-2 .1 1-.2 2 .8 2.6-.7.3-.5.8-.5 1.3l.8 9.5c0 1 .6 1.2 1.4 1.1 1-.1 1.1-.8 1.2-1.6.1-1.4 1.7-2.3 2.7-1.5.7.5 1.4.6 2.1.9 2 .7 4.1 0 6.3.3-.5-2.4-.9-4.6-1.6-7-.2.8-.6.9-1 .9-1.6 0-2.4-1.2-3.4-2.2.7-.4.2-.7-.1-1-.5-.4-.5-.7-.1-1.2q-1.1-.4-3.5.5Zm-6.3 2.8c0-1.8 0-1.7-1-2.5-1.5-1.4-3.3-2.6-4.6-4.2-.5-.6-1.2-.6-1.8-.2-1.2.6-2.4 1.6-4 .2l-.6 8.1 3.8-.2c1.1 0 2.4-.6 3 .4.2 1.3.8 2.5-.8 3.3 1.5.4 2.5 1.1 3.7 1.5 1 .2 2 .3 2.6 1.5.2.4.8.6 1.4.6l-.7-9.3c-.5.2-.3 1-1 .8Zm47.4 27.2c-.7-4.9-1.7-9.5-3.1-14.1-.3.2-.3.6-.4.9-.5.8 0 2-.4 2.7-.4.6-.9 1.2-1 1.8-.3 1-.7 1.8-1.7 2-.4.2-.8.5-.7 1 .1 1-.7 1.5-1.4 2.1l-2.6 2.1c-1.7 1-1.5 2.5-1 4.4 1.5-1.5 3.5-1.5 4.9-3.2v2.7c2.6-.6 5-1.5 7.4-2.4Zm-18.5 29.1 4.6-1c.9 0 1.2-.5 1.2-1.3l.5-7.8v-5.3l-1.1 1.3c-2.3 2.6-3.7 5.8-5.7 8.7 0 .2-.2.6-.1.8.7 1.4 0 3 .6 4.6Zm-15.3-61c1.1-1 2.2-1.3 3.5-.8 1.1.5 2.3.7 3.6.4.6 0 1.4 0 1.5-.7.2-.8-.4-1.3-1-1.5-1.4-.6-2.3-1.9-4-1.9.2-.7.9-1.3 0-1.7 0-.5.7-.4.7-1-.9 0-1.5.6-2.2 1-.8.4-1 1-.1 1.7v.2c-.2.3-.4.6-1 .6.3-.8-.6-.6-.8-1 0-.2.4-.2.2-.6-.7.2-1.2-1-2-.4l1.6 5.7Zm13.3-6.1c.3-.5.2-1 .6-1.5.4-.5 0-1.2-.8-1.1-.7 0-2.4 2.2-2.2 3l.1.2c.8.5 1 1.4 1.7 1.9 1.5.8 2.3 2 2.8 3.7.4 2 2.6 2.5 4.2 1.2-.3-.6-2.8-3.6-3-3.7 0-2.2-1.8-2.8-3.4-3.7ZM133.6 51c-1.4-.7-1.7-.6-2 .8l-.3.6c-1.3 1.4-1.4 2.3 0 3.8-1.9 1.5-.3 3.1-.5 4.7l.3.1c1.9.5 2.3.2 2.2-1.7 0-.4 0-.9.4-1.1.7 0 1 1 2 .7l-.8-1.5c-.2-.3-.7-.5-.5-.9.2-.4.7-.4 1-.4.8 0 1.5.1 2-.6-1-1-2-.2-2.8.2-1.1.4-1.7 0-2-1-.4-.8-.6-1.6.2-2.4l.8-1.3ZM174 87.7c-1 .3-1.7 0-2.2-.8-.4-.7-1-.5-1.3 0-.4.8-1 .7-1.5.6-.7-.2-1.4-.5-1.8-1-1-1-2-.7-3-.2.7 1.7 2.5 2.4 3 4 .2-.4-.2-.9.2-1.3.5.3.5 1 .6 1.4 0 .6.4 1 .9.7.8-.3 1.8-.6 2-1.8 0-.5.2-1 .4-1.5q1.5 2.3 3.4 2.1l-.7-2.2Zm-27.7-7.8 1.4 6.3c3.1.3 3.8-1.7 3.3-3.8-.2-1-.6-2-.7-3.2-.6 0-1.2-.1-1.6.4-.6.8-1.4.8-2.4.3Zm-3.5-10.8c-.9 1-1 2-1.2 3-.2.8-.4 1.6.3 2.3.8.7 1.6.4 2.5.3L143 69Zm-11 6.5c.7-3-2-3.3-3.5-4.7-.3-.2-.6 0-1 .3 1.1 1.9 2.2 3.7 4.5 4.4Zm22.8 49.7c-.6-.8-1.2-.8-2-.3-1.3.9-.6 2.2-1 3.4.8-.4 1.4-.2 2-.4 0-1 .7-1.8 1-2.7Zm-4 10.4c-1.2-1.6-1.1-3.7-2-5.8-.3 2.5.3 4.4 2 5.8Zm3.6 5.5c-.5-1.3.7-2.7-.3-4.1-.2 1.5-.7 2.8.3 4Zm10-74c.9-1.7-.6-2-1.3-2.7-.2 1 .7 1.7 1.3 2.8ZM76.2 52.4c.1 1.3-1.3 1.4-1.7 2.4 1.4-.3 1.8-.9 1.7-2.4Zm89.3 32.9c-.3-1-1-.8-1.6-.7-.3 0-.5.1-.5.5s.3.5.6.5l1.5-.3Zm-63.4-47.6-3 1.5c1.3 0 2.2-.4 3-1.5Zm86 60.2c.4 1 .3 2.1 1 3 .3-1.1-.5-2-1-3ZM150.9 46c-.5-.9-1-1.4-1.7-1.6.5.4.8 1.2 1.7 1.6Zm-9.1-11.8v.1h-.2.2ZM184 88Zm-41.3 80.6.1-.1h-.2.1Z" fill="#fefefe"/>
  <path d="m80.2 112.5-1.6 1-.1-.1c1.2-2.3 2.7-4.6 4.4-6.6.8-1 2.2-1.5 3.4-2.2l1.2-.8c-1.1.2-2 1-3 1.2l-.2-.2 3-3.8c.3-.4.7-.7.8-1.2l.3-.2v-.1.1c-.2 0-.3 0-.3.2-1.1.5-1.7 1.5-2.5 2.3l-2.5 3c0-1 .6-1.7.6-2.6-1.6 5-5.3 8.5-7.8 12.9-.5-2.7.2-5.2.4-8a24 24 0 0 0-1.2 8.2 4 4 0 0 1-.5 2.2c-1.7 3-3 6-4.4 9.4-1-3-1.1-5.8-1.5-8.6-.1 2 0 4 .3 6.1l.6 4-.1.7a72.9 72.9 0 0 0-3 13.2c-.5-.1-.6-.5-.8-.9a22.5 22.5 0 0 1-3.2-14.2A39.8 39.8 0 0 1 95 90.7a21 21 0 0 1 8.7 0c-.7.7-1.8.7-2.3 1.5-.7.2-1.2.6-1.4 1.4-.2 0-.3.1-.3.3-1.4 1.2-1.6 3-2 4.8-1.2 6.3-2.3 12.6-4.4 18.8a41.4 41.4 0 0 1-24.6 25.1l-.9.3.8-4.9c.4-2 .8-4 1.4-6.1.4-1.3 1-2.4 2.1-3.3 2.7-2 5.5-3.9 7.8-6.5l.4-.7a37.7 37.7 0 0 1-8.8 6.1 35.7 35.7 0 0 1 9-14.8c.4-.2.7-.5 1-.9.3 0 .6-.2.7-.5l.3-.2.4-.1c-.2-.2-.4-.1-.5 0l-.3.2a1 1 0 0 0-.7.5c-.5.1-.9.4-1.2.7Zm3.7-10.6v.2h.1v-.2Zm4.2 1.6ZM50 85.5l4-4c2-1.3 3.8-2.6 6-3.6 1.5-.8 3.1-1.4 5.2-1.6-3.3 2.3-2.6 5.3-2.1 8.2.5 3.5 1 7 1 10.6 0 8.6-4 15.2-10.4 20.6-.2.1-.4.3-.7.2-.6-2.6-1.1-5.2-1-7.9 0-.8.5-1.4.9-2 .7-1 1.7-2 2.2-3.2.4-.5.7-.9.7-1.5h.1v-.2l-.1.2c-.5.3-.7.8-.9 1.3-1 1-1.6 2.3-3 3.4a21 21 0 0 1 3.4-12.4h.1-.1l-.2.3c-.2 0-.3.2-.3.5-.7 0-.7 1-1.5 1.3a28 28 0 0 1 1.5-5.1c.7-1.6.9-3.3 1.7-4.8-1 1-1.2 2.3-2 3.4V87c0 3.7-1.5 7-2.4 10.6-1-1.5-1-3.2-1.5-4.8 0 1.3.2 2.5.6 3.7a7 7 0 0 1 .3 4.3c-.3 1.6-.3 3.2-.5 4.9-.6-.1-.6-.9-1.1-1v.1c1.6 2.4 1 5.2 1.6 7.9l.5 3.6c-2-1.2-3.4-2.7-4.3-4.6a24 24 0 0 1 1.9-25.4l.5-.8Zm-.7 18.2v.1h.2l-.2-.1c0-.3 0-.7-.4-.8 0 .3.1.6.4.8Zm.4.5h-.1v.2l.1-.1v-.1Zm7-18.9Zm-.3 15v-.1Zm-.2.4Z" fill="#7eba04"/>
  <path d="M61.8 107c.8 2.6 1.6 4.8.4 7.3 1.7 1 1.5 2.6 1 4.3a35.2 35.2 0 0 0-1 17.4c0 .2.1.4-.2.8l-1.4-2.8a72 72 0 0 1-5.7-17.4c0-.5-.1-1 .3-1.3 2.6-2.3 4.6-5 6.6-8.2Z" fill="#fefefe"/>
  <path d="M66.6 150c-1-1-2.6-1.1-3.7-2a74 74 0 0 1-6.5-11c.4-.3.8-.4 1.2 0 1.2 1 2.4 2 3.2 3.4 1.7 3 3.6 6 5.8 8.7.1.2.9.6 0 .8Z" fill="#7eba04"/>
  <path d="M56.4 137a75 75 0 0 0 6.5 11c-1 .1-1.8-.3-2.7-.5-2.3-3-4.6-6-6.4-9.3l2.6-1.2ZM73 147.9l-1.8-.8.8 3c-.5.2-.8 0-1.2-.4l-2.6-3.2c-.9-1.1-.8-1.6.5-2.3.4-.2.7-.5 1.3-.6.1 1 .3 1.8.7 2.5.5.8 1.5 1 2.3 1.8ZM116.7 35.6c0 .6 1 .2 1.2 1.1-2.4.8-4.8 0-7.2.5.6-1.4 2.9-2 6-1.6ZM189.3 105.3c.6 4.9.7 9.7 0 14.6.3-4 .4-8 0-12-.4-.3-.4.4-.9.1v-1.5c.4.2.3.7.7 1l.2-2.2ZM142.9 44.7c-1.2.3-2.1.2-2.7-.5-1.6-1.8-1.8-2.7-1.2-4.1.3 0 .7 0 .6.5-.1 2.3 1.3 3.3 3.3 4ZM70 105.3c-1 .6-5.6-1.7-6.4-3.2 2.2 1.1 4.1 2.3 6.3 3.2ZM127.8 42.9c-1-.9-1.5-1.4-2-2.4 1.4.2 2.3-1 3.6-.2-.8.7-1.6 1.2-1.6 2.6ZM70.5 157.1l4 5 .4-.4c-1.7-1.1-3.3-2.5-4.9-3.9 0-.3.2-.5.5-.7ZM191.8 100c.7 1.3 1.7 2.7.6 4.5-.7-1.5-.7-3-.7-4.4l.1-.1ZM75.7 68.9c-.5 1.4-1.6 2.4-2.3 3.6.6-1.3 1.3-2.5 2.3-3.6ZM109 36.4c-.3.8-.7 1.3-1.6 1.2 0-1 .4-1.4 1.6-1.2ZM63.2 69l-1.5 3c.2-1.2.7-2.2 1.5-3ZM128.2 170H123v-.1h5.3ZM134.6 38.8l-.2.3c-.5 0-1 .5-1.5 0-.2 0-.1-.3 0-.4.3-.3.9-.3 1.7.1ZM136.7 36.8a4 4 0 0 1 2 0c-1 .9-1 .9-2 0ZM174 147.3c-.3.9-.7 1.7-1.2 2.4.1-1 .5-1.7 1.2-2.4ZM73 142q-.4 1.1-1.2.6c.3-.3.6-.5 1.2-.5ZM87.3 65.7c.4-.7.8-1.3 1.3-1.8 0 .8-.7 1.3-1.2 1.9v-.1ZM179.5 146.8l1.3-1c-.3.7-.5 1.3-1.3 1ZM194.2 95.2c0-.5.5-.9.6-1.4.2.6 0 1.1-.3 1.6l-.3-.2Z" fill="#fefefe"/>
  <path d="M128.6 41.4c.4 0 .7 0 .8.5-.5.2-.7 0-.9-.5ZM76.8 67.5c-.1.3-.2.6-.6.7 0-.4.3-.6.6-.7ZM88.6 63.9c.2-.3.2-.8.8-.7-.2.3-.3.7-.8.7ZM77.6 66.3l.5-.8c0 .4 0 .8-.5.8ZM95.1 163.6c-.5 0-.5-.4-.7-.7.5 0 .5.4.7.7ZM78.3 150.9c.2 0 .3.2.2.5-.3-.1-.2-.3-.2-.5ZM81.7 61.5c0 .2-.2.2-.3.3 0-.2 0-.4.3-.3ZM96 164.8l.3.2-.2-.2ZM86.8 66.4l.5-.7.1.1c0 .3-.2.6-.4.7h-.2ZM155.5 163.4l-.1.2-.1-.1c0-.1.1-.2.2-.1ZM78.6 65l.1-.2s.1.1 0 .2c0 0 0 .2-.2 0ZM77.3 66.8c0 .2 0 .3-.3.4 0-.3 0-.5.4-.4ZM75.7 69c0-.3.1-.5.4-.6 0 .3 0 .6-.4.5ZM193 121.4c0-.2 0-.4.3-.5 0 .3 0 .6-.4.5ZM157 161.4c0 .3-.2.4-.5.5 0-.2 0-.5.5-.4ZM94.2 162.4c-.4 0-.5-.2-.5-.5.3 0 .4.3.4.5ZM156 162.7c0-.3.1-.4.4-.5 0 .2 0 .5-.4.4ZM95.5 166.1c-.1.1-.3.1-.4 0h.4ZM155.8 166.1h-.3c-.2-.1 0 0 0 0h.3ZM95.8 166.3h.6c-.2.2-.3.1-.6 0ZM104 36.1c-.1.2-.3.2-.5.2 0-.3.2-.3.3-.4l.2.2ZM192.7 122c-.2-.4 0-.5.2-.6.1.3 0 .4-.2.5Z" fill="#fefefe"/>
  <path d="M77.6 66.3c.1.2 0 .4-.2.5-.1-.3 0-.4.2-.5ZM76 59.8c-.1.2-.3.3-.4.2-.2-.2 0-.2.2-.4l.1.2ZM171.3 152v.6c-.3-.3-.2-.4 0-.5ZM121.7 174.2h.2-.2ZM94.1 162.4c.3.1.4.2.3.5-.2-.1-.4-.2-.3-.5ZM110.7 171c-.2 0-.3 0-.4-.2l.4.2ZM121.5 174c-.2-.2-.3-.3-.3-.6.3.1.3.3.2.6Z" fill="#fefefe"/>
  <path d="M84.4 105s-.2.2-.3 0l.2-.2.1.2Z" fill="#7eba04"/>
  <path d="m63.5 68.4-.2.2.2-.1Z" fill="#fefefe"/>
  <path d="m78.6 113.5-.2.1v-.2l.2.1Z" fill="#7eba04"/>
  <path d="M78.5 65v.3h-.1l.2-.2ZM82 61.3c-.2 0-.2 0-.3.2 0-.2 0-.3.3-.2ZM193.6 120.6h-.1v-.1h.1Z" fill="#fefefe"/>
  <path d="m82.2 61-.3.3c0-.2 0-.4.3-.2Z" fill="#fefefe"/>
  <path d="M44.7 127.9h.2-.1Z" fill="#7eba04"/>
  <path d="M179.5 146.8c0 .2-.1.2-.3.2 0-.2.1-.2.3-.2ZM73.2 147.9h-.1.1ZM171.3 152.1l.1-.2.1.1h-.2v.1ZM77.8 50l.2-.3c.2.2 0 .3 0 .4l-.2-.2ZM156 162.6v.2h-.2l.2-.2ZM155.5 163.4v-.2h.2l-.2.2ZM95.1 163.6l.2.1H95v-.1ZM95.6 164.3l-.2-.1h.2v.2ZM95.8 164.6l-.2-.3c.2 0 .2 0 .2.3ZM95.8 164.6c.2 0 .3 0 .3.2-.2 0-.3 0-.3-.2ZM99.2 167.7ZM151.2 167.6v.2-.1ZM109.7 170l.3.3c-.2.1-.3 0-.3-.2ZM110 170.3v.2-.2ZM110.7 171l.2.2c-.1 0-.3 0-.2-.2ZM111.2 171.5c-.2 0-.3 0-.2-.3l.2.3ZM111.2 171.5l.1.1c-.2.1-.1 0-.1-.1ZM121.7 174.2l-.2-.3c.2 0 .2.1.2.3ZM75.5 162c.2 0 .2.1 0 .4 0-.1 0-.3-.2-.4h.2ZM75.3 162s-.2-.1 0-.3c0 0 0 .2.2.2l-.2.1Z" fill="#fefefe"/>
  <path d="m32.5 122.7-.4-.2c.2-.2.4-.1.5 0l-.1.1ZM32.9 122.7c.1.1.4.2.2.4-.1.2-.3 0-.4-.2l.2-.2ZM41.4 123.6c.2 0 .4 0 .5.2-.3 0-.4 0-.5-.2Z" fill="#295a87"/>
  <path d="m32.6 122.5.3.2-.2.2-.2-.2.1-.2ZM41.4 123.6l-.2-.1c.2-.2.2 0 .2 0ZM60.9 151.6c.6 0 1 .3 1.5 1-.8-.2-1.2-.5-1.6-1ZM58 154.8c-.3.2-.5.5-1 .5.1-.5.5-.5.8-.7l.2.2ZM51.6 155.3h.6c-.3.3-.4 0-.6 0ZM59.7 151c-.2 0-.2 0 0 0ZM60.3 151.3H60h.1ZM60.8 151.6l-.2-.1h.2v.1ZM62.6 153l-.1-.3h.3l-.2.2ZM56.5 155.7l.1-.2c.1.2 0 .2-.1.2ZM56.5 155.7c0 .2 0 .2-.2.2l.2-.2ZM62.3 155.8l-.2.2-.2-.2.2-.2.2.1ZM56 156.2l.3-.3c0 .2-.1.2-.3.3Z" fill="#295a87"/>
  <path d="m61.7 156 .2-.2.1.2-.2.2-.1-.1ZM56 156.2l-.2.2.2-.2ZM61.4 156.3l.3-.2.1.1-.3.2v-.1ZM55.8 156.4Z" fill="#295a87"/>
  <path d="m61.2 156.6.2-.3.2.1-.3.3v-.1Z" fill="#295a87"/>
  <path d="m61.3 156.7-.2.2c0-.2 0-.3.2-.3ZM61 157v-.1ZM90.8 61.3c-.7.6-1.3.4-2 0l-3.8-2c-1-.6-1.7-1.5-1.4-2.8.5-.2 1-.5 1.6-1-.9.1-1.3.4-1.7.9-.6 0-.9.8-1.5.4-.3-.2-.8-.5-.5-1 .3-.4 0-.8 0-1.2h.2c.7 1.2 1.8.7 2.9.6 1.2 0 2-.7 2.2-1.9.6-2.2 2.3-3.6 3.8-5.2.2-.2.6-.3.6-.7-.7-.2-1.1.4-2 .3 1.1-1.7 3.4-2.3 3.8-4.7l-11.6 6.7c.4-1 1.4-1.3 2.1-2 1.7-1.4 3.3-2.9 4.8-4.6.8-.9 2-1.4 3.1-2a7.2 7.2 0 0 1 4.4-.8c-.3.5-1.2.2-1.3 1 .9.4 1.2-.4 1.8-.8-.2-.2-.3-.2-.5-.1.8-.2 1.4-.8 2.4-.3.6.3 1.4-.6 2.2-.4 0 1-.9 1.5-1.6 1.8-.8.3-1.7 1-2.8.4-.2 0-1-.2-.6.7.2.4-.3.5-.5.7-.3.4-1.1.5-1.1 1.3l-.2.2-.2.3c-.2.1-.3.3-.1.5l.3-.3.2-.2.2-.3c.2 0 .4-.2.5-.3v.5c0 .2.1.1.2 0 .8 0 1.2-.7 1.7-1.2.5-.4.9-.8 1.5-1 .2.5-.4.6-.4 1 .3.5 1.7-.3 2.4-1.5l.3-.6c.4 1 1 1.7 1.6 2.4-2 .7-3 2.4-4.5 3.7-.4.4-1.5 1.2-.6 2.2.3.3-.4.7 0 1.1.8-.5 1.6-1.2 2.4-1.5 1.7-.7 3-2.5 5.1-2 .4 0 .9 0 1.2-.2 1.2-.8 2.4-.3 3.6 0 4 1.2 8 1.7 12 2 2.3.2 4.5 0 6.8.1-1 1.8-2 3.3-4 4-1.4.6-2 2.5-1.1 3.8.4.7 1.1.8 1.9.4l1.4-1c1.2 1 1 2.7 2.1 3.9.5-.9 1.3-.8 1.9-1.2.7 1.4.5 2.2-.7 2.6-.3 0-.5.3-.7 0-.4-.8-1-.6-1.7-.3-.6.4-1-.2-1.3-.4-.5-.4-.2-1 0-1.2.5-.5.5-1 .2-1.7-.9.7-1.8 1.2-1.1 2.6.3.6.2 1.2-.8 1.2-1.2 0-2 .7-3 1.3 0-1 0-1.8.2-2.9-1 1.3 0 3.2-1.6 4-1.2.5-1.8 2.4-3.6 1.6-.2.3-.1.9-.8.8-2-.1-3.9 0-5.9-.5l.7-2.3c.3-1 1.3-1 2-1.2.8-.1 1.1-.6 1.3-1.3 0-.2.1-.5.3-.6.5-.3.3-.7 0-1-.3-.3-.7-.4-1.1 0-.3.2-.5.6-1 .4.8-2.9 2.3-5.6 3.3-8.4.2 0 .3-.2.2-.4-.3 0-.2.2-.2.4-.5.2-.5.7-.7 1a112 112 0 0 0-4.8 12l-.5 1.3a83 83 0 0 1-10-1.9l2.6-4.4-.2-.2-2.3 3.9c-.3.4-.6.7-1.2.5-2.4-.6-4.8-1.3-7-2.3-.3-.4.2-.5.1-.8.2-.1.4-.2.2-.5.5 0 .6-.4.8-.7l.2-.2h-.1l-.1.2c-.5 0-.5.4-.7.7-.2.1-.4.3-.2.5Zm8.7-9.4.2-.2.2-.3s.3 0 0-.2v.2c-.1 0-.2.1-.2.3-.2 0-.3 0-.2.2-.2 0-.4 0-.3.3-.2-.1-.4 0-.5.1l-.3.3-.2.2-.2.3-.3.2-.2.3-.2.2-.3.3-.2.2-.3.2-.2.3-.2.2-.3.2v.2-.2c.2.1.3 0 .2-.2.3 0 .4 0 .3-.3.2.1.3 0 .2-.2.2 0 .3 0 .3-.2.2 0 .3 0 .2-.3.2 0 .3 0 .2-.2.2 0 .3 0 .3-.2.2 0 .3 0 .2-.3.2 0 .3 0 .3-.2.2 0 .2 0 .2-.3.2 0 .3 0 .2-.2.2 0 .3 0 .3-.3.2.1.3 0 .5-.1l.3-.2Zm9-1.7.3-.2c.2-.1.5-.2.6 0 .3.4-.4.5-.3.8 1.2.8 2.6.8 3.6.1.4-.2.6-.6.5-1 0-.3-.5-.3-.9-.3-1-.1-1.8 0-2.8.2l-.2-.2c.1-.4.7.1.8-.5-1-.4-1 .3-1.3 1-.2-.2-.3 0-.2.1h-.2v.2l.1-.2Zm-20 4.6c-.2 0-.4 0-.3.2-.2 0-.3 0-.2.3-.3 0-.4 0-.6.2l-.2.2-.3.3-.2.2s-.3 0 0 .2v-.2c.2 0 .3 0 .2-.3.2 0 .3 0 .3-.2.2 0 .3 0 .2-.3.2.1.4 0 .5-.1l.3-.3.2-.2s.3 0 0-.2v.2Zm7 1.2c-.3-.1-.4 0-.4.2-.2 0-.3 0-.2.2-.2 0-.3.1-.3.3-.3 0-.2.1-.2.3 0 0 .3-.1.2-.3.2 0 .3-.1.3-.3.1 0 .2 0 .2-.2l.3-.2v-.2.2Zm20.2-5.8c.2 0 .3-.2 0-.5v.5h-.1v.2l.1-.2Zm-11.5 5.5c-.3 0-.4.2-.4.5.3 0 .4-.2.4-.5.2 0 .3-.2.2-.5.2.2.3 0 .3-.1l-.1-.1-.1.2c-.3.1-.4.3-.3.5Zm-12 3.6c.3 0 .5-.1.4-.6l-.4.6-.1.2.1-.2Zm11-2.4a9 9 0 0 0-1.8 3c.7-1 1.6-1.8 1.8-3 .4 0 .4-.2.5-.4-.3 0-.4.2-.4.4Zm14 1.3c-.2-.6-.7-.2-.7-.2-.5-.6.2-.6 0-.9-1.5-.3-2.4.8-2 2.5.1 0 .3-.2.4 0 .2.4-.4.5-.3 1 .7-.2 1.3.2 1.3.8 0 .9-.8.7-1.5.6.6 1-.3 1.1-.8 1.6.7 0 1.2.2 1.7.4-.5.4-1.4 0-1.8 1 1.7-.3 3.2-.4 5.1 0-1-1.3.5-1 .4-1.7-.2-.6-.8-.6-1.2-.7-.1-1.3-1-2.2-1.4-3.4l.8-1Zm4.1 1 .6-4.8c-.4 1.6-1 3-.6 4.7Zm-6.2-8v.1c0 .1 0 .1 0 0ZM97.4 44v-.1h-.1l.1.1Zm18 7v-.2.1ZM116.9 118.3c-.2 6.7-.2 13.3 0 20-5.6-.2-11-.6-16.5-1.3-.5-6-.4-12-.2-18.3 1.6 1.4 3.4 1.4 5.2 1.1a10 10 0 0 1 4 .1c1.3.4 2.5 0 3.8-.5 1.1-.4 2.3-1 3.7-1ZM100.5 137.6c5.5.7 10.9 1.2 16.4 1.4.1 6.1.4 12.2 1 18.3l-7.8-.5-6-.6c-.5 0-.8-.2-1-.8-1.4-5.8-2.2-11.7-2.7-17.8ZM89.6 86.1c2.3-7 5-13.8 8.5-20.3.2-.4.5-.6 1-.5 3 .8 6.2 1.3 9.5 1.8-1.2 3.7-2.3 7.3-3.2 11l-2.1 9.4c-.2.5-.2 1.1-1 1-4.2-.6-8.5-1.3-12.7-2.4ZM178.7 107.1a82.6 82.6 0 0 1 .1 22.4c0 .7-.3 1-.9 1.2-2.1.7-4.2 1.5-6.5 2l-3.6 1.1c-.9.3-1.4 0-1.2-1 .4-4.2.5-8.4.4-12.6 0-.2 0-.5.2-.8 2.2-2.6 2.9-5.9 3.8-9 .1-.5.3-.8.8-1 2.3-.6 4.5-1.4 7-2.3ZM84.7 134.7c5 1.2 10 2 15 2.8.6 6.2 1.4 12.3 3 18.4-1.9 0-3.7-.4-5.4-.7l-7-1.4c-.8-.2-1.2-.6-1.5-1.4a71.4 71.4 0 0 1-4.2-16.5c0-.4-.2-.7 0-1.2Z" fill="#295a87"/>
  <path d="M87 66.5c.2-.1.4-.4.4-.7.5-.6 1.2-1 1.2-2 .5.1.6-.3.7-.7.4-.1.6-.7 1.1-.4 2.5 1 5 1.7 7.7 2.4-3.7 6.7-6.6 13.6-9 20.9-3.7-1-7.3-2-10.8-3.5 2.2-5.1 4.8-10 7.9-14.7l.7-1.3ZM117.6 139.2h11.3c.5 0 .8 0 .9.5.2.7 0 1.2-.4 1.7-1.5 1.3-2 3-2.2 4.9-.1.6.1 1.2.5 1.7l1.9 2.5c.6.8.8 1.6.6 2.7-.3 1.3.6 2.3 1.3 3.2.2.3.6.4.7 1h-13.8c-.5-6.1-.8-12.2-.8-18.3ZM174 147.3c-.7.7-1 1.5-1.2 2.4-.5.6-1.2.9-2 1.1-3 1-5.9 2-9 2.7l-.1-.3c.5-1.3.7-2.8 2.2-3.6.8-.6 1-1.7 1.6-2.6 1.3-2.2 2.5-4.3 3.4-6.7.5-1.4.5-2.6.5-4.2-1.4 1.6-2 3.6-4 4.6l1-5.6c0-.3.3-.4.5-.4 3.8-1 7.6-2.1 11.2-3.5h.5a52.6 52.6 0 0 1-4.6 15.5v.6ZM179.2 106.2a101.3 101.3 0 0 0-4.7-18.7c1.7 0 2.8-1.3 4.4-1.8 1 .7 1.8 1.8 3 2.2.5.1-.3.6.2.9.4.2.8.8 1.3.7.7 0 .4-.8.7-1.2a48 48 0 0 1 4.2 12.2c.1.4.2.8-.3 1.1a49.2 49.2 0 0 1-8.8 4.6ZM129.3 138.5c-4 .2-7.8 0-11.7 0-.2-6.8-.2-13.3 0-20 1 .2 1.3.9 1.4 1.5.2 1.2 1 1.4 2 1.3l1.2-.2c1.8-.4 3.2.8 2.8 2.5-.4 1.3-.4 2.7-1 4-.5 1 .5 2 1.2 2.7 1 1.2 2.2 2.2 2.8 3.7.7 1.4 1.3 2.8 1.3 4.5ZM162 150.8v.2c-.4 2-1.4 3-3.6 3.4l-9 1.5h-1.3c1.4-1.3 1.5-3.6 3.8-4 1-.2 1.7-2.2 1.3-3.5-.3-.8 0-1.3.6-1.7l5-3.7c1-.6 1.5-1.5 1.7-2.6.1-1.4 0-2.9.2-4.4l5-1c-.1 2-.4 4-.9 6-.2.7-1.4.8-1.5 1.7l-.3.6c.2 1.8-.8 3-1.7 4.5-.4.6-.3 1.6-.3 2.4 0 .5.6.4 1 .6ZM137.6 76.4q2.3-1 3.4-.5c-.4.5-.3.9 0 1.2.4.3 1 .6.2 1 1 1 1.8 2.2 3.5 2.2.4 0 .7-.1 1-.9l1.5 7c-2.1-.3-4.2.4-6.3-.3-.7-.3-1.4-.4-2-1-1-.7-2.6.2-2.8 1.6 0 .8-.2 1.5-1.2 1.6-.8.1-1.3 0-1.4-1l-.7-9.6c0-.5-.2-1 .4-1.3-1-.6-.7-1.6-.7-2.5 1.1.3 2.2.4 2 2 0 .6.6 1.1 1 1.5.7.5 1.2 1.2 1.4 2 .2.8.7 1.2 1.5 1.2.2-.4-.7-1 .2-1.2-.7-.6-1.7-.4-1.8-1.5.3-.1.8.5 1.2-.2.2-.6-.4-.8-.4-1.3ZM131.3 79.3c.7 0 .5-.7 1-.8l.7 9.2c-.6 0-1.2-.2-1.4-.6-.6-1.1-1.6-1.3-2.6-1.5-1.2-.3-2.3-1-3.7-1.5 1.6-.7 1-2 .9-3.3-.7-1-2-.5-3.1-.4l-3.8.2.6-8c1.6 1.3 2.8.3 4-.3.6-.4 1.3-.4 1.8.2 1.3 1.7 3.1 2.8 4.7 4.2.9.8 1 .7 1 2.6Zm-3.3.3c1 .3 1.6 1 2.5 1.2.4-.5.2-1 .4-1.7-1 .4-2 0-2.8.5Zm-4-1.5c1.3-.5 1.1-1.3 1-2.1-1.6.1-.6 1.3-1 2Zm1-4.2c-1 .5-1 .6-.2 1.4.3-.4.3-.8.2-1.4Z" fill="#295a87"/>
  <path d="M178.7 106.4c-2.4 1-4.8 1.8-7.3 2.4l-.1-2.7c-1.4 1.7-3.4 1.7-4.8 3.2-.6-1.9-.9-3.3.9-4.4 1-.6 1.7-1.4 2.6-2 .6-.7 1.5-1.1 1.4-2.3 0-.4.3-.8.7-.8 1-.3 1.4-1.1 1.6-2 .2-.7.7-1.3 1-2 .6-.7 0-1.8.5-2.6.1-.3 0-.7.4-1a91 91 0 0 1 3.1 14.2ZM160.2 135.5c-.6-1.5 0-3.2-.6-4.6-.1-.2 0-.6.1-.8 2-2.9 3.4-6 5.7-8.7l1.1-1.3v5.3l-.5 7.8c0 .8-.3 1.3-1.2 1.4-1.5.2-3 .6-4.6 1ZM150.6 89.8c1.4.7.2-.9.7-.8 2 1.5 2.6 4 4.7 5.3.8.5 1 1.3 1.2 2a5.6 5.6 0 0 0 2.4 3.4c1.4 1 2.3 2.2 2.7 3.8l.7 2.1c.6 1.6.7 1.6 2.3 1.1.4.7.3 1.5.3 2.3-1.6.3-1.8.2-2-1.1-.1-.4-.4-.7-.7-1-.9-.9-2-1.5-3-2.2a9.8 9.8 0 0 1-3.7-5.2c-.3-1-.9-2-1.5-3l-4.3-6.4.2-.3ZM106.4 76.8c.7.8.4 1.5.1 2.4 1 .5 2.6 0 2.5 1.8 1.1-.6 2-1 3.1-.7.8.2 3.2-1.5 3-2.1-.2-1.4.7-2 1.7-2.5.6-.4 1.4-.6 2.2-1 .3 2-.2 4-.2 6-1.8.2-3.5.2-5.1.7-1 .3-2 .9-3.3.4l-1.4-.6-4.7 3.8 1.5-6.3c.1-.6.1-1.3.6-1.8Z" fill="#295a87"/>
  <path d="M106.4 76.9c-.2-.8.2-1.5.4-2.2L109 67l4 .5c1.4 0 2 1.2 2.7 2.3.2.3-.6 2.7-.9 3-.1 0-.3.1-.4 0-1.3-.3-2.7 0-3.9-.6-1-.4-1.8-.4-2.7.2.2 1.6-.2 3.1-1.4 4.4ZM145 74.5l-1.8-5.7c1-.6 1.4.7 2.1.4.3.4-.2.4-.2.6.2.5 1.1.2.9 1 .5 0 .7-.3 1-.6V70c-1-.7-.8-1.3 0-1.7.7-.4 1.4-1 2.2-1 0 .6-.6.5-.7 1 .9.4.3 1 0 1.7 1.7 0 2.6 1.3 4 1.9.6.3 1.2.7 1 1.5-.1.7-.8.6-1.5.7-1.3.3-2.4 0-3.6-.4-1.3-.5-2.4-.2-3.4.8ZM158.2 68.4c1.6 1 3.4 1.5 3.4 3.7.2.1 2.7 3.1 3 3.7-1.6 1.3-3.8.8-4.3-1.2a5.6 5.6 0 0 0-2.7-3.7c-.7-.5-1-1.4-1.7-1.9l-.1-.3c-.2-.7 1.4-2.9 2.2-3 .7 0 1.2.7.8 1.2-.4.5-.3 1-.6 1.5ZM133.6 51c-.3.6-.5 1.1-.8 1.4-.8.8-.6 1.6-.3 2.4.4 1 1 1.4 2 1 1-.4 1.9-1.3 2.9-.2-.5.7-1.2.6-2 .6-.3 0-.8 0-1 .4-.2.4.3.6.5.9.3.4.5 1 .7 1.5-.9.3-1.2-.7-1.9-.7-.4.2-.4.7-.4 1 0 2-.3 2.3-2.2 1.8l-.3-.1c.2-1.6-1.4-3.2.4-4.7-1.3-1.5-1.3-2.4.1-3.8l.3-.6c.3-1.4.6-1.6 2-.8ZM174 87.7l.8 2.2q-1.9.2-3.4-2l-.5 1.4c-.2 1.2-1 1.5-2 1.8-.5.2-.7-.1-.8-.7-.1-.5 0-1-.6-1.4-.4.4 0 .9-.2 1.3-.5-1.6-2.3-2.3-3-4 1-.5 2-.9 3 .2.4.5 1 .8 1.7 1 .6.1 1.2.2 1.6-.5.3-.6.9-.8 1.3-.1.5.8 1.1 1.1 2.2.8ZM146.4 80c1 .4 1.8.4 2.4-.4.4-.5 1-.4 1.6-.4l.7 3.2c.6 2.1-.2 4.1-3.3 3.8-.5-2-1-4-1.4-6.3Zm2.7 1c-.7.2-1.3.2-1.5.8.7.4 1.1 0 1.5-.8ZM142.9 69.1l1.6 5.6c-1 .1-1.7.4-2.5-.3-.7-.7-.5-1.5-.3-2.4.3-1 .3-2 1.2-2.9ZM132 75.6c-2.4-.7-3.5-2.5-4.5-4.4.3-.4.6-.5 1-.3 1.4 1.4 4.1 1.7 3.4 4.7ZM154.7 125.3c-.3 1-1 1.7-1 2.7-.6.2-1.2 0-2 .4.4-1.2-.3-2.5 1-3.4.8-.5 1.4-.5 2 .2ZM141.4 48.3c-.3.1.1.6-.5.8-.4 0-.9.8-.1 1.6h-1.3c0 .5.5.3.6.6-1 .2-1.3.1-3.5-1.8h2.2c1.2 0 1.3-.3 1-1.3.5-.3 1 .2 1.6.1ZM150.6 135.7c-1.6-1.4-2.2-3.3-2-5.8 1 2 .9 4.1 2 5.8ZM154.3 141.2c-1-1.3-.6-2.6-.3-4.1 1 1.4-.1 2.8.3 4ZM164.3 67.3c-.6-1.1-1.5-1.7-1.3-2.8.7.7 2.2 1 1.3 2.8ZM76.2 52.3c0 1.5-.3 2-1.7 2.4.4-1 1.8-1.1 1.7-2.4ZM165.5 85.2l-1.5.3c-.3 0-.6-.1-.6-.6 0-.3.2-.4.5-.4.6 0 1.3-.3 1.6.6ZM102.1 37.6c-.8 1.1-1.7 1.5-3 1.5l3-1.5ZM188.2 97.8c.4 1 1.2 1.9.9 3-.7-.9-.6-2-1-3ZM141.4 48.3c-.3-1 .6-.5 1-1l.2 1c-.5.5-.8 0-1.2 0ZM150.8 46c-1-.4-1.2-1.2-1.7-1.6.7.2 1.2.7 1.7 1.6ZM100 93.6c.1-.7.6-1.2 1.4-1.4-.3.6-.8 1.1-1.5 1.4ZM150.4 90l-.3-.4.2-.1.3.3-.2.2ZM141.7 34.3h-.1ZM99.7 93.9c0-.2 0-.3.2-.3.1.3 0 .4-.2.3Z" fill="#295a87"/>
  <path d="M150.1 89.6s-.2-.2 0-.3l.2.2-.2.1ZM184 88h-.1v-.1l.1.1zM188 126.3h.3v.3l-.3-.3ZM144.8 37v.2-.2ZM100.4 39.7v-.2h.1l-.1.2ZM88.5 153v.2h-.2l.2-.2ZM161.9 153.5h-.3v-.3l.3.3ZM89.7 154.4c-.2-.4 0-.4.2-.3l-.2.3ZM160.2 154.4c.3-.2.4-.2.3.2l-.3-.2ZM142.7 168.6h-.1v-.2l.2.1ZM81.5 111.9l-1.1.8-.2-.2c.3-.4.7-.7 1.1-.8l.2.2ZM81.3 111.7c.2-.3.5-.4.8-.4 0 .3-.3.5-.6.6l-.2-.2ZM84 101.9V102.2l-.1-.1v-.2ZM88.1 103.5h.1l-.1.1v-.1zM82.4 111s.2-.2.5 0l-.5.2v-.1Z" fill="#295a87"/>
  <path d="m82.5 111.2-.3.2-.1-.1.3-.2ZM88.4 99.6v-.1.1ZM88.2 99.8c0-.1 0-.2.2-.2l-.2.2ZM55 102.6c.2-.5.3-1 .8-1.3 0 .6-.3 1-.7 1.5l-.2-.2ZM49.3 103.7c-.3-.2-.4-.5-.4-.8.4.1.4.4.4.8ZM54.8 94.3c0-.2 0-.4.3-.4 0 .1 0 .3-.3.4ZM55.8 101.3v-.2l.1.1h-.1ZM55 93.8c.2 0 .2-.1.3-.2 0 .1 0 .3-.2.2ZM55.3 93.6v-.1h.1-.1v.1ZM49.3 103.7h.2l-.1.1v-.1h-.1ZM49.7 104.2v.2l-.1-.1v-.1ZM56.7 85.4h-.1v-.1l.1.1zM56.4 100.2zM56.2 100.7h-.1v-.1l.1.1z" fill="#295a87"/>
  <path d="m117.2 58.2-.8 1c.5 1.2 1.3 2 1.4 3.4.4.1 1 0 1.3.6 0 .7-1.5.5-.5 1.7-1.9-.3-3.4-.2-5 .1.4-1 1.3-.6 1.8-1-.6-.2-1.1-.4-1.8-.4.5-.5 1.4-.6.8-1.6.7.1 1.5.3 1.5-.6 0-.7-.6-1-1.3-.9 0-.4.5-.5.3-1-.1-.1-.3.1-.5.1-.3-1.7.6-2.8 2.1-2.5.3.3-.5.3 0 .9 0 0 .5-.4.7.2ZM108.8 50c.2-.6.4-1.3 1.3-.9 0 .7-.7.1-.8.5l.2.2c1-.2 1.9-.3 2.8-.2.4 0 .8 0 1 .3 0 .4-.2.8-.6 1-1 .7-2.4.7-3.6 0-.1-.4.6-.5.3-.9-.1-.2-.4-.1-.6 0ZM121.3 59.1c-.4-1.6.2-3.1.6-4.7l-.6 4.7ZM103.2 56.9c-.2 1.2-1.2 2-1.8 3 .5-1.1 1-2.1 1.9-3ZM95.8 40.4c.2 0 .3-.1.5.1-.5.4-.9 1.2-1.8.8.1-.8 1-.5 1.3-1ZM83.5 56.4c.4-.5.8-.8 1.7-1-.6.6-1 .9-1.6 1h-.1ZM92.2 59.3l.4-.6c.1.5 0 .6-.4.6ZM91.7 60c-.1.4-.2.8-.7.7.2-.2.3-.7.8-.6ZM94.6 56.7c0 .2-.1.2-.2.3 0-.2 0-.4.2-.3ZM104.5 55.3V55l.2.1c0 .1 0 .3-.3.1Z" fill="#fefefe"/>
  <path d="M103.3 57c0-.3 0-.5.4-.5 0 .2 0 .5-.5.4ZM104.2 55.7c0 .3-.1.4-.4.5 0-.3 0-.5.4-.5ZM88 55.3c-.2.1-.4.2-.6.1.2 0 .3-.2.6-.1ZM104.4 55.2c.1.3 0 .4-.2.5 0-.2 0-.4.3-.5ZM93.6 45.3l-.3.3V45l.3.2ZM115.7 50.2v-.5c.3.3.2.4 0 .5ZM91 60.7c.2.3 0 .4-.2.5-.1-.2 0-.3.2-.4ZM114.8 52.1c0-.1-.1-.3.1-.4.1.2 0 .3-.1.4ZM99.2 52.2c-.2 0-.3.2-.6.1.2-.1.4-.2.6-.1ZM115 51.2h.2v.1c0 .1-.1.1-.1 0ZM91.8 60v-.2h.1l-.2.2ZM92.2 59.3v.2H92l.1-.2ZM94.6 56.7c0-.2 0-.3.3-.3 0 .2-.1.3-.3.3ZM94.9 56.5c0-.2 0-.3.2-.3l-.2.2ZM86.7 56.2v.2c-.3-.1 0-.1 0-.2ZM95.4 56l-.3.2c0-.2 0-.3.3-.2ZM87 56c0 .1-.1.2-.3.2l.2-.3ZM100 51.4v-.2c.2.2 0 .1 0 .2ZM95.4 56v-.2.2ZM87.1 55.7c0 .2 0 .2-.2.2l.3-.2ZM87.2 55.7l.2-.3c0 .3 0 .3-.3.3ZM95.8 55.2v.2h-.1v-.2ZM95.8 55.2l.2-.2c0 .2 0 .3-.2.2Z" fill="#fefefe"/>
  <path d="m88.2 55-.3.3c0-.2.1-.3.3-.3ZM96.3 54.7c0 .3 0 .3-.3.3l.3-.3ZM88.4 54.8l-.2.2c0-.2 0-.2.2-.2ZM96.5 54.5c0 .2 0 .3-.2.2l.2-.2ZM88.4 54.8v-.2c.3.1 0 .1 0 .2ZM97.4 44l-.1-.1v-.1h.2v.1ZM96.5 54.5l.3-.2c0 .2 0 .2-.3.2ZM97 54c0 .2 0 .3-.3.2.1 0 .2 0 .3-.2ZM93.6 44.9l.2-.3.2.3-.2.2-.2-.2ZM97 54l.2-.2c0 .2 0 .3-.2.2Z" fill="#fefefe"/>
  <path d="m93.4 45.1.2-.2.2.2-.2.2-.2-.2ZM97.2 53.8l.3-.2c0 .1 0 .2-.3.2ZM97.5 53.5l.2-.2c0 .2 0 .3-.2.2ZM94.7 45c0 .2-.2.2-.3 0H94.7ZM98 53c0 .3-.1.3-.3.3l.3-.2ZM108.8 50l-.3.2c0-.2 0-.3.3-.2ZM108.5 50.2v.2l-.1-.2h.2Z" fill="#fefefe"/>
  <path d="m98 53 .2-.2c0 .2 0 .3-.3.3ZM115.7 50.2v.2l-.1-.1h.1v-.1ZM115.4 50.9v-.2.1ZM98.7 52.3c0 .3 0 .3-.3.3l.3-.3ZM100 51.4c-.2 0-.2.2-.3.3 0-.2 0-.3.2-.3ZM99.5 52c0-.3 0-.3.2-.3l-.2.2ZM99.2 52.2c0-.3 0-.3.3-.3l-.3.3ZM98.4 52.5c0 .3 0 .3-.2.3l.2-.2ZM128 79.6c1-.5 1.9 0 2.9-.5-.2.6 0 1.2-.4 1.7-.9-.2-1.5-1-2.4-1.2ZM124 78c.4-.7-.6-1.9 1-2 .1.8.3 1.6-1 2ZM125 74c0 .5.1.9-.2 1.3-.9-.7-.8-.9.2-1.4ZM149.1 81c-.3.9-.8 1.2-1.5.8.2-.6.8-.6 1.5-.8Z" fill="#fefefe"/>
</svg>
