<?xml version="1.0" encoding="UTF-8"?><svg id="a" xmlns="http://www.w3.org/2000/svg" viewBox="0 0 28 24.86"><defs><linearGradient id="b" x1="21.34" y1="-2.82" x2="21.92" y2="23.15" gradientTransform="translate(0 20.01) scale(1 -1)" gradientUnits="userSpaceOnUse"><stop offset="0" stop-color="#0092a1"/><stop offset="1" stop-color="#009c4d"/></linearGradient></defs><path d="M24.85,0c1.74,0,3.15,1.41,3.15,3.14v18.57c0,1.73-1.41,3.14-3.15,3.14-1.74,0-3.15-1.41-3.16-3.14v-10.99l-1.3,1.29c-1.24,1.22-3.23,1.22-4.47,0-1.23-1.23-1.23-3.22,0-4.45L22.61.92C23.2.33,24.01,0,24.85,0Z" fill="url(#b)" fill-rule="evenodd" stroke-width="0"/><path d="M0,3.15C0,1.41,1.41,0,3.15,0c.84,0,1.65.33,2.24.92l6.69,6.66c1.23,1.23,1.23,3.22,0,4.45-1.24,1.22-3.23,1.22-4.47,0l-1.3-1.29v10.98c0,1.73-1.42,3.14-3.16,3.14C1.42,24.86,0,23.45,0,21.72V3.15Z" fill="#fabf00" fill-rule="evenodd" stroke-width="0"/></svg>
