<svg xmlns="http://www.w3.org/2000/svg" viewBox="0 0 171.2 171.2"><path fill="#2e9ea1" d="M171.2 85.6A85.6 85.6 0 1 1 85.6 0a85.6 85.6 0 0 1 85.6 85.6m-7.1 0a78.5 78.5 0 1 0-78.5 78.5 78.4 78.4 0 0 0 78.5-78.5Z"/><path fill="#fff" d="M164.1 85.6A78.5 78.5 0 1 1 85.6 7.1a78.4 78.4 0 0 1 78.5 78.5"/><path fill="#ada06b" d="M23.2 73.3c-4.1-4.2-1.5-10.3 4.3-10.4.9 0 .9-.2.1-.7l-2.8-1.5a1.2 1.2 0 0 1-.7-1.1 1.8 1.8 0 0 1 .7-1.7 1.8 1.8 0 0 1 2.4-.1l1.3.8q.9.4.3-.3c-3.3-5.1.6-10.8 6.7-9.2.7.2.8 0 .3-.5a7.7 7.7 0 0 1-2.2-2.2c-1.2-2.2 2.4-3.9 3.8-1 .1.2.2.2.4.2a.5.5 0 0 0 .4-.5c-1.2-5.2 3-8.8 7.9-7.1 1.1.4 1.2.1.6-.7a2 2 0 0 1-.2-2.4c.5-.8 1.1-1.1 1.9-.7s1.8 1.3 2.6 2.8.7.8.7-.2c0-5.9 5.5-8.9 10-5.1q.8.8.6-.3l-.3-1a2 2 0 0 1 2.1-2.4c1.3.1 1.9.9 2 2.5a2.6 2.6 0 0 0 .4 1.5c.3.6.4.5.5-.1a5.4 5.4 0 0 1 2-3.6c3-2.1 5.8-1.8 8.5 1l.8 1.4c.3.4.5.5.6-.1l.2-1.8a1.2 1.2 0 0 1 .5-.9 2 2 0 0 1 2.9.4.8.8 0 0 1 .3.9l-.3 2.1a.3.3 0 0 0 .6.2c3.6-4.7 9.9-2.8 10.9 2.9.1.7.3.7.5.1l.8-1.5a1.8 1.8 0 0 1 3.2-.3c.6.9.1 2-.3 2.9s-.2 1 .6.5a5.3 5.3 0 0 1 7 .1c2.4 1.9 3.5 6.2.7 8.2s-6.9 7-8.9 12.8a3.8 3.8 0 0 1-.9 1.5c-.4.4-.6.4-.5-.2a15.9 15.9 0 0 0-3-9.9 11.8 11.8 0 0 1-2.3-6.2 1.6 1.6 0 0 0-1.8-1.6 6 6 0 0 1-6-2.5c-.7-1-1-.8-.9.3l.8 9.1a2.7 2.7 0 0 1-.2 1.3c-2.9 5.5-2 11.2.6 17.2a.8.8 0 0 1-.3.9c-.8.6-1.9.7-2.7 1.3a11.6 11.6 0 0 0-3.7 6.1 65.4 65.4 0 0 0 14.4 60.1c.6.7.4 1-.5 1a11.2 11.2 0 0 0-4.5.7.8.8 0 0 0-.7.8c-1.2 6.1-8.4 7.9-11.3 2.3a23.3 23.3 0 0 1-.7-2.5c-.2-.6-.4-.6-.5 0l-1.1 3.7a1.9 1.9 0 0 1-2.7 1c-1.3-.9-1.4-2.1-.2-3.7l-.2-.2c-.2-.2-.4-.1-.6 0a5.9 5.9 0 0 1-6.3 2.1c-3.5-1.3-4.8-4-3.9-7.9.2-.5 0-.6-.4-.3a24.4 24.4 0 0 0-3.7 3 2.2 2.2 0 0 1-3 .3 1.1 1.1 0 0 1-.6-1v-1a.6.6 0 0 0-.7-.6 4.9 4.9 0 0 1-3.2-.2c-3.4-1.6-4.5-4.4-3.4-8.2a.2.2 0 0 0-.3-.3c-1.2.4-2.9 1.6-4.2 1.4a1.4 1.4 0 0 1-1.4-1.4 3.9 3.9 0 0 1 .2-1.5c0-.3-.2-.6-.5-.5-4.6.3-6.5-4.8-5.3-8.5a2.5 2.5 0 0 1 .8-1.2l1-.9c.6-.5.5-.8-.3-.7l-4 .5a1.3 1.3 0 0 1-.9-.2c-1.3-.6-1.6-1.6-.8-3a.6.6 0 0 0-.2-.7c-5-2.5-5.3-8.4-.3-11.1.6-.3.6-.6-.1-.7l-4.9-.7a1.7 1.7 0 0 1-1.4-1.3c-.2-1.5.5-2.3 2.2-2.5s.6-.2.1-.4a5.9 5.9 0 0 1 2.1-10.9c1-.2 1.1-.4.1-.8s-5.2-1.3-4.9-3.7a1.6 1.6 0 0 1 1.9-1.3l1.3.2c.5.1.6 0 .2-.4M76.7 33a3.9 3.9 0 0 0-3.9-3.8 3.9 3.9 0 1 0 0 7.7 3.9 3.9 0 0 0 3.9-3.9m15.2 2a3.9 3.9 0 0 0-3.9-3.9 3.9 3.9 0 1 0 0 7.7 3.9 3.9 0 0 0 3.9-3.8m-30.4 1.1a4 4 0 0 0-7.9 0 4 4 0 0 0 7.9 0m16.5-.3c-1.9 3.2-5.7 4.4-8.6 1.9s-1.6-.9-.9.7A71.7 71.7 0 0 0 75 49a1.9 1.9 0 0 0 2.2.7 2.5 2.5 0 0 0 1.9-2.7 80.2 80.2 0 0 1-.6-11c.1-.6-.1-.7-.5-.2m28.1 5a4 4 0 0 0-4-3.9 4 4 0 0 0 0 7.9 4 4 0 0 0 4-4m-42.7-3.3a5.8 5.8 0 0 1-7.9 4.1c-1.1-.5-1.3-.3-.5.6a97.5 97.5 0 0 0 13.3 13.2 2.7 2.7 0 0 0 3.9-3.6 61.7 61.7 0 0 1-8.1-14.3c-.3-.8-.5-.8-.7 0m-15.6 5.9a4 4 0 0 0-4-3.9 4 4 0 0 0 0 7.9 4 4 0 0 0 4-4m2 .1q-.9 6.6-7.5 5.7c-.5-.1-.6.1-.2.4a80.4 80.4 0 0 0 22 14.4c3.5 1.6 6.2-2.5 3-4.6a64 64 0 0 1-16.8-17.2c-.4-.6-.6-.6-.7.1a.7.7 0 0 0 .1.6 1.3 1.3 0 0 1 .1.6M37.4 54.7a4 4 0 1 0-3.9 3.9 3.9 3.9 0 0 0 3.9-3.9m1.6-2.2a6 6 0 0 1-6.5 8.1c-.7-.1-.8 0-.2.4a74.4 74.4 0 0 0 31.3 12.1c2.2.3 4-2 2.3-3.7a4.3 4.3 0 0 0-1.9-1.3 74.6 74.6 0 0 1-24.6-15.9c-.5-.5-.6-.4-.4.3m-7.9 16.4a4 4 0 1 0-4 4 4 4 0 0 0 4-4m31.4 7.9a75.8 75.8 0 0 1-29.7-11c-.6-.4-.7-.3-.4.4 1.9 4.4-.9 8.9-5.8 8.7-.7 0-.7.1-.1.4A80.3 80.3 0 0 0 62.9 82a2.3 2.3 0 0 0 2.1-1.6c.6-2-.6-3.3-2.5-3.6m-32.3 4c-.3-.1-.4 0-.2.3 2.6 4.7 1.4 8-3.7 10.1h.1a110.6 110.6 0 0 0 37.2.2 2.7 2.7 0 0 0 2.4-2.1 2.2 2.2 0 0 0 .1-.8 2.8 2.8 0 0 0-3.3-2.6 83.2 83.2 0 0 1-32.6-5.1m-.9 4.3a3.8 3.8 0 0 0-3.9-3.9 3.9 3.9 0 0 0-4 3.9 4 4 0 0 0 4 4 3.9 3.9 0 0 0 3.9-4m34.8 10.3c-10.4 1.4-21 1.9-31.2.5-.5-.1-.5.1-.2.5 3.3 3.4 3.1 6.7-.6 9.8-.3.3-.3.4.2.4a120.1 120.1 0 0 0 31.4-5.5c2.1-.7 3.6-2 2.6-4.4a1.9 1.9 0 0 0-2.2-1.3m-31.2 5.8a4 4 0 1 0-4 3.9 3.9 3.9 0 0 0 4-3.9m6.8 9.3a5.8 5.8 0 0 1 1.9 8.7c-.3.4-.2.6.3.4l23.5-8.1a3.2 3.2 0 0 0 2.3-4.2l-.3-.6a3.1 3.1 0 0 0-3.9-1.5 125.2 125.2 0 0 1-23.7 4.6c-.7.1-.8.3-.1.7m.9 5.2a3.9 3.9 0 1 0-7.8 0 3.9 3.9 0 1 0 7.8 0m10.6 5.4c2.6 1.9 3.9 4.2 2.8 7.4-.3.9-.1 1 .6.5a89.3 89.3 0 0 1 16.4-9.2 2.5 2.5 0 0 0 1.2-1.1c.7-1.3.8-2.4.3-3.1s-1.7-1.6-2.5-1.3c-6 1.8-12.2 3.9-18.7 6.1-.5.1-.6.4-.1.7m18.6 13.1a31.4 31.4 0 0 1 6.4-9.2c.9-.7 1.2-1.8.1-2.6a1.5 1.5 0 0 0-1.6-.1l-10.5 5.2c-.6.3-.6.6.1.7 3.3.7 5 2.7 5.2 5.9 0 .2.2.3.3.1m-17.6-7.7a3.9 3.9 0 0 0-3.9-3.9 4 4 0 1 0 0 7.9 3.9 3.9 0 0 0 3.9-4m15.2 7.6a3.9 3.9 0 1 0-3.9 4 3.9 3.9 0 0 0 3.9-4m15.9 2.6a3.9 3.9 0 1 0-3.9 4 3.9 3.9 0 0 0 3.9-4ZM75.6 33a2.8 2.8 0 0 0-2.8-2.9 2.9 2.9 0 1 0 0 5.8 2.8 2.8 0 0 0 2.8-2.9Zm15.3 1.9a2.9 2.9 0 1 0-2.9 2.9 2.9 2.9 0 0 0 2.9-2.9Zm-30.5 1.2a2.8 2.8 0 1 0-2.8 2.8 2.8 2.8 0 0 0 2.8-2.8Zm44.6 4.7a2.9 2.9 0 1 0-2.9 2.9 2.9 2.9 0 0 0 2.9-2.9Zm-58.3 2.6a2.8 2.8 0 0 0-2.9-2.8 2.7 2.7 0 0 0-2.8 2.8 2.8 2.8 0 0 0 2.8 2.9 2.9 2.9 0 0 0 2.9-2.9Zm40.8 19.8h-.3c-2.9-6-1.7-12.1 1.4-17.9l.1-.4-.2-.2a.4.4 0 0 0-.6 0c-5.4 4.4-7.1 10-5 16.8l1.5 4.7c.1.2.4.4.6.3 3-1 9.4-3.4 9.9-6.8.9-5.3-2.2-9.9-4.8-14.3h-.4A18.8 18.8 0 0 0 88 62.5c.2.3.1.5-.2.6l-.3.2Zm6.3 72.9c.7.9 1.3.7 1.8-.3v-.4a2.8 2.8 0 0 0-.5-2.9 60.8 60.8 0 0 1-14.4-55.9c.8-2.9 2.4-5.6 5.3-6.7 4.6-1.7 10-4.3 13.1-8.1s3.9-10 8.9-13.1l1.7-1.1a1.9 1.9 0 0 0 1.1-2l-.1-.4a2 2 0 0 0-2.6-.5c-4.2 2-7.3 7-8.8 11.3-2.6 7.4-9.7 9.9-16.4 12.4a8.5 8.5 0 0 0-5.1 6.2 62.7 62.7 0 0 0 8.3 51.3 68.3 68.3 0 0 0 7.7 10.2ZM109.5 81a1.4 1.4 0 0 0 .9.2 19 19 0 0 0 10.3-1.9 4.7 4.7 0 0 1 4-.1c4.6 2.1 15.1 8.2 19.6 3.6.7-.7 1.2-.6 1.8.2s.2 1.1-.3 2a3.8 3.8 0 0 1-1.6 1.2 5 5 0 0 1-3 .3 41.3 41.3 0 0 1-12.8-3.5.7.7 0 0 0-.7.2l-.2.2a.2.2 0 0 0 .1.4 36.6 36.6 0 0 0 14 4 5.5 5.5 0 0 0 5.5-2.4c.2-.3.5-.4.7-.1 4 4 6.2 7 .1 10.8a1.7 1.7 0 0 0-.6 1 28 28 0 0 1-2.5 7c-4.7 8.8-12.1 10.8-21.7 9.2s-17.2 7.4-11.5 15.6a26 26 0 0 0 8.2 8 1.1 1.1 0 0 1 .5 1.1c-.6 3.3-2.3 5.2-5.2 5.8-5.5 1.2-9.3-.8-11.3-5.9-1.1-2.7-2.5-6.8-6.3-5.3a1 1 0 0 1-1-.3 70.1 70.1 0 0 1-12.3-19.6 53.8 53.8 0 0 1-1.4-38.5 5.7 5.7 0 0 1 3.2-3.1c5.1-1.9 10.6-4.5 14-8.5s3.1-6 4.9-8.9a15.8 15.8 0 0 1 4-4.5 1.7 1.7 0 0 1 2 .1C117 54.8 123 60 128.1 66.5a49 49 0 0 0 7.5 7.6c2.8 2.2 4.7 5 7.4 7.4.4.3.4.6 0 1-3.1 2.7-12.7-1.6-16.5-3.9-.3-.2-.5-.4-.4-.8v-.3a1 1 0 0 0-.4-1 3.4 3.4 0 0 1-1.6-2.1c-.2-.4-.4-.5-.8-.4h-.3a.4.4 0 0 0-.1.3 5.8 5.8 0 0 0 1.5 2.5c.8.8.7 1.1-.4.9l-1.1-.2a.8.8 0 0 1-.7-.8 6.2 6.2 0 0 0-.7-4.5c-.1-.3.1-.6.3-.5s1.7 0 1.6-.2a1.4 1.4 0 0 0-2.3-.8L109.4 80q-.6.5 0 .9m9.7-11.4a.8.8 0 0 0-.8-.1L108 78.3a.5.5 0 0 0-.1.8.8.8 0 0 0 .8.1l10.4-8.9a.6.6 0 0 0 0-.8m-16.3 25.8c1.6-.1 1.7.3.3 1.1-6.4 3.5-12.6 2.9-19.6 1.1l-.3.2-.2.4c0 .2 0 .4.3.4 8.7 2.8 15.9 2.1 21.4-1.9a18.8 18.8 0 0 1 4.5-2.2 131 131 0 0 0 11.3-4.1 28.5 28.5 0 0 1 8.3-1.8c.2 0 .2-.1.2-.3v-.3c-.1-.3-.3-.5-.6-.4a24.6 24.6 0 0 0-10.1 2.4c-10.9 5-21.7 6.4-32.2-.3h-.4l-.3.3a.6.6 0 0 0 .1.7 28.8 28.8 0 0 0 17.4 4.7m44.8-3.5a3.3 3.3 0 0 1-3.6 0 21.8 21.8 0 0 0-7.1-2.6c-9.3-1.5-18.2 9-23.7 15s-9.1 8.2-13 13.1c-2.4 3-4.8 7.4-4.7 11.4l.1.1h.3c.2 0 .3-.1.4-.3a23 23 0 0 1 4.7-10.7c.9-1.2 1.2-1.1.7.3a16.9 16.9 0 0 0-.4 10.2c0 .1.1.2.3.1h.2c.4-.1.5-.3.4-.6-.8-4.5-.1-11.7 3.7-15.1s9.3-9.1 13.2-13.3S129 90 136 90.3c3 .1 5.6 1.7 8.3 2.8s4.3.3 5.2-2.2a.9.9 0 0 0-1-1.2 18 18 0 0 1-3.2.6l-.2.2a.4.4 0 0 0 .4.4l2 .2c.5.1.5.3.1.5m-12.2 16.6c1.2.3 1.2.7.1 1-4.5 1.5-8.9 1.1-13.5.7-11.5-.9-20.2 10.7-13.3 20.8a.7.7 0 0 0 .7.2h.3c.2 0 .3-.1.1-.3-3.4-5.5-3.2-10.4.6-14.8 4.9-5.9 11.7-4.7 18.6-4.3 9 .5 14.7-6.2 15.8-14.6 0-.4-.1-.6-.5-.4l-.5.2a.1.1 0 0 0-.1.1l-.5 1.7a.6.6 0 0 1-.7.4 18.1 18.1 0 0 1-10.4-4.7.6.6 0 0 0-.8 0l-.2.2a.3.3 0 0 0 0 .4 17.4 17.4 0 0 0 10.7 5.3.7.7 0 0 1 .7.9v.3c0 .3-.2.5-.5.4a20.2 20.2 0 0 1-13.3-6 .5.5 0 0 0-.6.1v.2a.6.6 0 0 0 0 .9 23.6 23.6 0 0 0 12.8 6.1c.4 0 .6.5.5.8l-.2.3a1 1 0 0 1-1.2.6 26.4 26.4 0 0 1-14.3-6.6.3.3 0 0 0-.5.1v.3a.6.6 0 0 0 .2.8 25.3 25.3 0 0 0 13.6 6.4.5.5 0 0 1 .4.8.9.9 0 0 1-.3.5 2.2 2.2 0 0 1-1.9.5 29 29 0 0 1-12.1-5.5h-.4l-.2.2a.5.5 0 0 0 .1.8 27.4 27.4 0 0 0 11 5.3ZM36.3 54.7a2.9 2.9 0 1 0-2.8 2.8 2.8 2.8 0 0 0 2.8-2.8ZM30 68.9a2.9 2.9 0 0 0-5.8 0 2.9 2.9 0 0 0 5.8 0Zm81.9 10.7a.5.5 0 0 0 .4.9l7.6-1.7.3-.2 1.2-1.9.1-.3-.5-3.2a.5.5 0 0 0-.7-.3l-8.4 6.7Zm-83.7 5.5a2.7 2.7 0 0 0-2.8-2.8 2.8 2.8 0 1 0 0 5.6 2.7 2.7 0 0 0 2.8-2.8Zm3.6 16.1A2.9 2.9 0 1 0 29 104a2.8 2.8 0 0 0 2.8-2.8Zm7.9 14.5a3 3 0 1 0-2.9 2.9 2.9 2.9 0 0 0 2.9-2.9Zm87 6.7c-.3.6-.1.7.4.5 2.9-1.2 5.7-5.1 7.4-7.8.5-.7.3-.9-.5-.7a34.1 34.1 0 0 1-5.8.7.5.5 0 0 0-.5.8c1.1 1.9-.1 4.7-1 6.5Zm-75.5 4a2.9 2.9 0 1 0-2.9 2.9 2.9 2.9 0 0 0 2.9-2.9Zm66 6.1c-.6.2-.7.5-.2 1l1.7 1.5c.4.3.7.3 1 0a7.8 7.8 0 0 0 2.1-4c.1-.6-.1-.7-.6-.4a14.7 14.7 0 0 1-4 1.9Zm-50.8 1.6a2.9 2.9 0 1 0-2.9 2.9 2.9 2.9 0 0 0 2.9-2.9Zm15.8 2.6a2.8 2.8 0 0 0-2.8-2.8 2.9 2.9 0 1 0 0 5.7 2.8 2.8 0 0 0 2.8-2.9Z"/></svg>
