<svg xmlns="http://www.w3.org/2000/svg" width="40" height="40" fill="none"><path fill="#2E274D" d="M36.08 8.39a10.7 10.7 0 0 0-6.3-2.68 12.4 12.4 0 0 0-6.5 1.2V5h-6.69v1.81C11.82 4.8 6.31 5.08 2.01 10.41c-5.17 6.36.64 15.88 6.19 21.49l-4.06.52.14 3.06h9.7v-3.06c-5.71-7.05-8.95-14.34-6.47-19.41 2.09-4.29 5.85-4.48 9.01-2.29v24.75h6.75V10.86c2.7-1.76 5.04-1.88 6.51-1.04 3.41 1.94 3.76 5.38 3.31 8.8-.6 4.65-3.6 9.52-6.93 13.86v2.93h9.71v-3l-4-.52c5.08-5.43 7.87-10.36 8.11-14.7.2-3.27-1-6.28-3.9-8.8Zm2.08 10.89c-1.23 4.72-4.58 9.18-9.24 13.51l5.52.68v.63h-7v-1.17c2.4-3.2 4.61-6.34 5.67-9.33 1.2-3.4 2.25-6.86 1.05-10.2a9.48 9.48 0 0 0-2.37-3.74 6.17 6.17 0 0 0-4.65-1.63c-1.92.09-3.45.83-5.26 2.1v24.1h-4V9.96c-2.03-1.41-3.91-2.07-6.02-1.93-2.12.13-4.68 1.5-6.12 5.58-.71 2-.43 4.27-.05 6.24.87 4.51 3.58 8.8 6.86 13.03v1.17h-7v-.58l5.52-.6c-1.25-1.3-2.46-2.37-3.57-3.68-2.16-2.53-3.96-5.13-5-7.78-1.31-3.3-1.8-7.02.53-10.2 2.16-2.96 4.85-3.98 7.49-4.3 2.64-.32 4.97.42 7.36 2.19V6.3h4v2.93a10.51 10.51 0 0 1 5.97-2.42 10.86 10.86 0 0 1 9.38 4.76c1.35 2.15 1.7 4.79.93 7.71Z"/></svg>