<svg xmlns="http://www.w3.org/2000/svg" width="40" height="40" fill="none"><path fill="#072DA0" d="M.4 7.5C.4 3.6 3.6.4 7.5.4h25c3.9 0 7.1 3.2 7.1 7.1v25c0 3.9-3.2 7.1-7.1 7.1h-25a7.1 7.1 0 0 1-7.1-7.1v-25Z"/><path fill="#fff" fill-rule="evenodd" d="M7.5 40h25.1c4.1 0 7.4-3.3 7.4-7.5v-25C40 3.3 36.7 0 32.5 0h-25A7.4 7.4 0 0 0 0 7.5v25C0 36.7 3.3 40 7.5 40ZM.8 7.5C.8 3.8 3.8.8 7.5.8h25c3.7 0 6.7 3 6.7 6.7v25c0 3.7-3 6.7-6.7 6.7h-25c-3.7 0-6.7-3-6.7-6.7v-25ZM14 10h-4v8h4v4h-4v8h4v-4h4v4h4v-4h4v4h4v-4h-4v-4h4v-8h-4v-4h-8v4h-4v-4Zm8 12v4h-4v-4h4Zm0-4h4v4h-4v-4Zm0 0v-4h-4v4h4Z" clip-rule="evenodd"/></svg>