<svg xmlns="http://www.w3.org/2000/svg" width="40" height="40" fill="none"><path fill="#fff" d="M20 39.5c-3.9 0-7.6-1.1-10.8-3.3A18.5 18.5 0 0 1 2 27.5 19.9 19.9 0 0 1 6.2 6.2c2.7-2.7 6.2-4.6 10-5.3A19 19 0 0 1 27.5 2a20 20 0 0 1 8.8 7.2c2.1 3.2 3.3 7 3.3 10.8 0 5.2-2.1 10.1-5.7 13.8A19.8 19.8 0 0 1 20 39.5Z"/><path fill="#FF0500" d="M20 1a19.1 19.1 0 0 1 17.6 11.7c1.4 3.5 1.8 7.3 1.1 11s-2.5 7.1-5.2 9.8a19 19 0 0 1-27 0A19 19 0 0 1 20 1Zm0-1A19.9 19.9 0 0 0 1.5 12.4a19.6 19.6 0 0 0 4.4 21.7 20.1 20.1 0 0 0 30.8-3C38.8 27.8 40 24 40 20c0-5.3-2.1-10.4-5.9-14.1A19.7 19.7 0 0 0 20 0Z"/><path fill="#FF0500" d="M9.2 13.1v12.5l8.5-8.5v-4l-4.2-4.2-4.3 4.2Zm16-4.2H16l4.2 4.2v4l4.6 4.7 4.6-4.7v-4l-4.2-4.2ZM23.8 22.7 19 17.9 6.7 30.1h9.6l7.5-7.4Zm6.8-4.9L18.2 30.1h12.3V17.8h.1Z"/><path fill="url(#a)" d="m19 19.3-9.9 9.8H16l6.4-6.4-3.4-3.4Z"/><path fill="url(#b)" d="M19 19.3v-1.4L6.7 30.1l2.4-1 9.9-9.8Z"/><path fill="url(#c)" d="m29.6 20.2 1-2.4-12.4 12.3 2.4-1 9-8.9Z"/><path fill="url(#d)" d="M29.6 29.1v-8.9l-8.9 8.9h8.9Z"/><defs><linearGradient id="a" x1="20.7" x2="10.9" y1="21" y2="30.8" gradientUnits="userSpaceOnUse"><stop stop-color="#F9F6F1"/><stop offset="1" stop-color="#C8B67F"/></linearGradient><linearGradient id="b" x1="19.3" x2="7.1" y1="18.3" y2="30.5" gradientUnits="userSpaceOnUse"><stop stop-color="#F7F4EC"/><stop offset="1" stop-color="#CAB880"/></linearGradient><linearGradient id="c" x1="2652.1" x2="2500.3" y1="2651.8" y2="2500" gradientUnits="userSpaceOnUse"><stop stop-color="#F7F4EC"/><stop offset="1" stop-color="#CAB880"/></linearGradient><linearGradient id="d" x1="1902.8" x2="1825.2" y1="1904.5" y2="1826.8" gradientUnits="userSpaceOnUse"><stop stop-color="#F9F6F1"/><stop offset="1" stop-color="#C8B67F"/></linearGradient></defs></svg>