<svg xmlns="http://www.w3.org/2000/svg" width="40" height="41" fill="none"><path fill="#D3D5D6" d="M0 25.4h10.9L4 8 0 25.4Z"/><path fill="#ADAFB2" d="M.9 0 4 8l6.9 17.4 4-17.4-3.1-8H.9Z"/><path fill="#75BEE9" d="M12.5 25.4 16.6 8l6.8 17.4H12.5Z"/><path fill="#0072BC" d="m27.4 8-4 17.4L16.6 8l-3.2-8h10.9l3.1 8Z"/><path fill="#F37164" d="m25.1 25.4 4-17.4L36 25.4H25.1Z"/><path fill="#ED1B35" d="m40 8-4 17.4L29.1 8 26 0h10.8L40 8Z"/><path fill="#4D4D4F" d="m7.1 35-3.2-6.7H0v11.2h2.8v-7.8l3.6 7.8h1.2l3.7-7.8v7.8h2.8V28.3h-3.9L7.1 35Zm14.8-4.9c1.3 0 2.4.7 3 1.7l2.3-1a6 6 0 0 0-5.3-2.9c-3.8 0-6.7 2.5-6.7 6.1 0 3.7 3 6.1 6.7 6.1a6 6 0 0 0 5.3-2.9l-2.3-1c-.6 1-1.7 1.7-3 1.7a3.8 3.8 0 0 1-3.9-3.8c0-2.4 1.6-4 3.9-4Zm6.7-2v11.8h2.7v-9.6h5.9v9.6H40V28.1H28.6Z"/></svg>