<svg xmlns="http://www.w3.org/2000/svg" viewBox="0 0 1157 643"><path fill="#a479a9" d="M1031 28.4c-3.9 3.7-10.9 6.6-13.8 9.1l10.2 1.4a.3.3 0 0 1 .2.5 12.6 12.6 0 0 0-4.9 9.8 43.3 43.3 0 0 0-9.4-.5c-14-8.9-21.7-6-.9-12.5 9.9-11.8-.6-10.7 18.6-7.8Zm36.4 18.3c-1.1 1.5-.4 3.9-.9 5.7 8.5-2.3 4.8-3 4.8 6-1.6 4.3-9 4.7-12.4 6.4-7.6 1.7-12.6-1.8-21.4-4.4-10.5-.5-27.7 2.5-28.6 15.4 4.5.6 9-3.5 12.7-5.6 5.8-2.8-8 9.5-16.5 8.5-.2.4.7 7.5-.4 7.1s-7-.9-7.8.6l-4.9 6.3c-3.9-3.1-6-10.9-11.5-13.2-7.9-4.8-11 4.3-18.5 5.7-1.1.8 1.3 2.6 1.7 3.2s-8.9 6.5-9.2 7.2c-.3 3.1 2.5 5.9 1.9 8.9-1.8 6.7-9.2 5.3-14.4 7.2-.3.2.9 11.2-.4 10.3-6.6-3.6-4.2-1.9-2-9.3-7-1.7-6.3-1.3-7.4 4.9-2.2 2.1-4.7 4.1-6 7.6a1 1 0 0 1-.5.6c-10.3 5-4.8 2.2-2.3-4.8.1-1.9-9.2 2-10.4 2.7 10.9 11.5-12.3 13.7-16.1 22.3-2.3 2.3-6.9 10.4-9.9 9.3l-.2-7.6c-.7-.6-7.3 2.3-8.1 2.4l-1 .9c6.9 9.6 10.7 7.8-.5 10.4-.4 1 4.7 5.3 3.2 5.9l-11.8 1c-6.8 5.3-8.3 14.9-16.5 18.9a45.4 45.4 0 0 1-13.5 14.4c2.9 7.9-13.3 16.7-15.9 24.1 9-5.2 17.2-15.3 28.9-11.6l5-7.8c-10.3-5-1.7-13.9 3.4-3.9a195.5 195.5 0 0 1 17.4-17.9c-1.1-1.2-6.7.8-4.7-.9.1-.4 5-4 3.5-4.3s-2-.6-1-1c1.3-2.6 4.1-5.7 5-9.4 4.1 5.1 10.4 1.9 12.9-3a1.4 1.4 0 0 1 1.5-.6c8.1 3.2 12.1-3.3 17.2-7.9 6.5-6.4 14.6-10.8 21.3-16.9a20.5 20.5 0 0 0 2-3.1c.5-1.5-.2-3.6 1.5-4.6 7.4-4.6 14.7-9 22-13.1 1.5-.6.3-5.5.5-6.6s11.8-1.2 12.1-1.5-.2 2.1.4 2.9l1.5-1.1c4.4-15.2 3.6-9.1-8.1-19.6-.7 0-1.4-.6-.7-.8 8.9-1.1 15.5 4.5 20.5 11.8a55.6 55.6 0 0 0 15.3-5.4c1.1-.5 1.4-.3.9.9-1.2 4.4-6.8 5.8-9 9.1l1.2 5.5c-.2 1.9-5.7-2.2-6.7-1-4.1 3.5-9.1 7.2-13 10.9-.1.5-.2 5-.7 5.2a87.2 87.2 0 0 1-14.4 12.1c-3.8 1.6-10.5 9.3-13.6 8.8l-2.4-3.4c-.9 3.2.1 8.8.5 12.7 4.5-.7 11.4-5.9 15.7-2.3 1 .9 1.7 5.2 3.3 3.6l3.9-10.6c-2.3 1.5-4.1 1.4-5.3-.1-4-5.2 4.7-9.8 5.6-1.4 1.5-1 1-5.8 3.2-4.1s2.6 5.1 4.8 4.3l2.9-1.9c1.4 1.1.8 4.9 1.7 6.7s.4.9.7.1l2.2-5.5c2.3-2.1 8 4.8 10.7 4.2a63.4 63.4 0 0 1-5.8-20.5q-.2-1.1.6-.3c2.2.8 5.5 9.6 6.4 6.1.3-.6.2-2.2 1.1-2.2 7 4.1 39.4-8.5 15.6-5.2-12.3 2-6.5 2.3-5.8-7.6.3-5.3.1-9.5-2.2-14-.5-.8.1-1.6 1-1.8 22.3-5 3.7-10.5 25.2-6.1 6 1.1 9.5-5.2 14.4-6.3l7.5 2.3c1.8-3.4 1.1-9.4 1.3-13.5-.1-1.4 3.4-1.4 4.1-1.7s-3.9-7.9-3.8-8.5 4.8-.3 5-.5 2.9-6.7 3.8-5.5l2.5 7.6c.3 1.1 2.6 1.1 3.4 1.4s-1.4-5.7.7-6.5c6.5.6 12.2-.7 18.6-.4 2.3-.6 6.3 2.9 7.5 0a83.2 83.2 0 0 0 .3-13.2c-.3-2.3 2.6.4 3.4.6a2.8 2.8 0 0 1 1.3 2.3c0 7.2 1.4 13.2 2.5 20.2-.2 2 6.8.6 7.8 1l-1.8-8.2c8.7-6.1 18.3-8.6 26-11-6.2-1.8-12.5-5.5-18.4-5.3-1.4.6-4.3 6.1-5.4 4.9s-1.3-5.2-3.2-4.5c-9 4.8-4.7-4.6-4.8-9.7a14.6 14.6 0 0 1-12.5 1.2c-4.4 2.8-4.8 3.7-11.2 6l-2.3.8c-1.7-.8-1.1-4.8-1.4-6.6s-5-.8-6.3-1.8m-25.7 16.8c.7 0-1.3 4.2-1.7 3.9l-14.1 1.3c-1 .1-1.1-.2-.5-.9 4.7-5.5 10.2-6.9 16.3-4.3m-61.2 27.3c-2.6-1.5.7-7.3 3.3-5.7s-.7 7.3-3.3 5.7m-20.6 11.4c-2.8 2-4.3-4.9-.8-4.7s1.9 3.1.8 4.7m11.1 37c-2.2 3.2-3.6-1.7-1.8-2.1s3.1.2 1.8 2.1m-68.6 14.9c.4 3.7-6.4 4.3-6.7.6s6.5-4.4 6.7-.6Zm62.2-105.3c1.3-4.2-18.9.3-21.6 1.7-4.6 1.1 4.8 2.9 6 3.6s-9.2 2.9-11 3c-4.5.7-12.6-1-18.2.1-.3 1.1-3.3.3-4.3.7s.9-6.6-.9-6.6l-8.3 6.3c.6 2.7 2.9 5.4 1.4 8.7q-.2.4.3.3l17.7-5.5c.7-.4.6 7.6.8 7.7 8.3-7.4 17.2-7.2 26.4-5.9-.4-1.9.1-3.8 0-5.7 0-.3 0-.3.2 0s.9 7.3 2.8 6.4 10.6-3.5 10.1-4.8l-4-5.7c-1.3-1.5 1.9-3.3 2.6-4.3M959 51c.7 2.6-2.3 4.1-4.8 2.5-.7-2.9 2.7-4.1 4.8-2.5Zm-81.5 15.7c2-1 1.6-2.6-.6-2.8s-1.3 1.2-1.5 1.9 1.2 1.4 2.1.9Zm-31.3 20.9-.2-5c.2-1.3-2.5 2.5-2.7 2.5-5.1 1-12.8.9-11.4 8.9 0 1 6.7 0 7.2.1-1.2-8.2-1.3-5 6.9-3.8l.2-2.7Zm105.9 18.1c.2-3.8-4.3-1.7-5.4.5-.7 4.1 4.7 2.9 5.4-.5Zm-537.3 39.5-13.3 4.9q-1.7.6 0 1.2a101.8 101.8 0 0 1 10.8 4.4c-4.1.9-11.6 0-14.1-3.7-.5-1.5 2.9-8.9.8-8.9-8 2.5-14.6 6.6-4-2.5a.7.7 0 0 0-.2-1.1l-11-5.8c-2-1.6-.5 9.2-1.8 7.7a68.9 68.9 0 0 0-3.3-8.1c-3.6-2.6-7.9-.9-8.4 3.4-2.5 8.4 4 13.2 7.3 19.8 1.5 2.3.5 5.5 2.1 7.5s3 1.8 3.1 3.1l-8.4 18c-.6 1.4 3.9 4.7 3.8 6.1 1.1 3.6 1.5 7.9 2.9 11.2.1 0 3.6 14.2 4.2 13.5 4.4 1.1 11.7 1.5 3.6 6.1-1.9 1-6.2.2-6.6 3.1 0 6.9-2.3 12.7-5.9 18.6a1.8 1.8 0 0 0 .1 2c0 .6 8.9 10 7.3 10.5s-12.4 7.4-11.4 9 .9 4.5.6 4.8c-2.8 3.5-6 7.7-9.2 10.4-17.5 1.6-19 20.8-24.7 33-3.7 7.9-7.5 15.7-7.7 24.7-1.1 1.8-3.4 3.5-3.1 5l1.3 9.4c0 .4.4.6.8.5 8.6-2.9 16.1-6.7 20.3-14.6 2-5.5 13.7-6.3 16.4-2-1.4 4.6.8 8.7.7 13.5s6.6 5.3 9.6 7.6c4.6 2.2 4.6 3.9 4.8-2.3.3-1.2-4.6-3.9-5.3-4.5s-.7-.8.2-.9a214 214 0 0 0 18.5-3.9c1.5-.7 6.2-1 6-2.7l-6.6-5.1c-2.1-5 23.3-9.1 27.7-15.1s12.4-11.5 19.8-13.9v-4.2c3.9-5 11.8-4.3 17.3-6.2 8.7-2.2 17.5-6.8 26.7-5.9.2-.2 3.5-3.8 3.9-3.2s3 .2 4 1.2c5 .6 9.4 1.1 14.1 5.7a69.3 69.3 0 0 0-4.6-13.5 62 62 0 0 1-18.5 2.8c-1.3-.7 2.6-4.1 2.9-5.7s-2.6-1.7-3.4-2.9a18.5 18.5 0 0 1-4.3-7c-.5-5.7-6.2-1.6-7.1-5-.1-1 4.4-12.4 2.4-12.7l-8.7-3.7c-1.2-.2.6-5.1.4-5.7s-4.9-.6-5.6-.9-.7-1.1-.5-2c.5-2.7 3.8-1.9 5.6-2.7s3-5.6 3.3-6.1c1.8-1.8 11-.8 10.5-4.7-.1-.2-6.5-1-6-1.6l1.2-3.4c0-.6 5.3-2.7 5.7-3s-3.5-1.7-4.8-2.3.7-5.2.6-5.7c-1.4-4.2-4.6-8-5.9-12.2-.8-2.3 4 .7 5.7.3a16.4 16.4 0 0 0-6.7-12.4c1.5-7.9-3-14.2-8.7-20 .4 3.6 4.9 9.9 7 14.4-.4 8.3 1.2 18.8 1 26.1a99.5 99.5 0 0 1-13.8-19.6c-1.5-2.1-1.8-6.3-3.7-8.3-7.9 1.2-5.5 1.3-9.9-4.9l-1.5 4.3c-3.3-2.2-8.3-8.4-5.8-12.7-2.1-9-13.3-14.4-18.8-20.8-.4-.5-1.3.1-1.7.3m-14.7 109.9c0 1.2.2 3.2-1.5 3.1s-3.3.2-3.2-1.5-.2-3.1 1.5-3.1 3.3-.2 3.2 1.5ZM200.6 143.4c.5-1.2 5.1 7.2 5.3 5.7l.3-7.5c-8.7-.2-20 3.6-25.6 11q-.9 1.2.3.3c5.1-6 17.7-.4 19.7-9.5Zm742.2 17c-14.5-.1-10.7 2.4-8-10.8-14.4 12.8-31.3 25.4-45.7 40.2 1 .1 13.2-3.2 13.5-1.7s4.4 6.9 4.9 5.3.9-3.4 1.7-5.1.8-2.2.1-3.3-5.2.5-4.5-.3c6.6-7.3 12.5-15.7 19.4-22.9.2-.9 7.3 3.9 7.7 3.8a.9.9 0 0 1 .1 1.3c-3.5 4.4-14.5 13.9-18.9 17.8l15.1 2.5a1.6 1.6 0 0 0 1.8-1c2.3-6.7 9.6-10.1 16.1-11.4.6-.1 2.9-.7 1.3-1.1-6.6-1.6-9.4-.2-12.2-7.6.8-2.3 4.7-3.2 6.1-5.1.8.1 1.4.2 1.5-.6Zm-828.3 27.2c.7-1.5 7.3.5 7.9-1.3s2.6-6.3.4-6.7c-6.5 1.4-10.9 6.3-15 11.3l-8.3 2.2c-.8-.2.2 6.2.1 6.5s8.1-6.4 8.3-6.2c6.7.3 3.7 3.5 6.6-5.8Zm848.2-1 5.8 3.5c.7.6 1.4-2.5 1.7-2.8a.4.4 0 0 0-.3-.5c-3.2.3-6.6-1.9-8.7-4.1-.3-.3-.5-.2-.5.2-.9 9.7-3.9 6.8-7.8 13.7-.7.9 5.6 0 5.7.2a.6.6 0 0 0 .6-.5c.3-.1 2.8-10.6 3.5-9.7Zm.5 14.5c-.7.9-7.1-.5-7.4.7s-.2 6.1.4 5.5a255 255 0 0 0 28.9-18.2 123.2 123.2 0 0 0-21.9 12Zm-72.1 20c5.2-4.3 13.1-11.4 11.4-18.3l-8-2.1c-1.8-.4.1 4.2 0 4.8s-3.8-.2-4.5-.2l-6.5-.4c-2.8-.6-5.4-3.1-8.1-3.7-2 7.9-1 7.8-7.8 12.5s-11.1 12.1-15.4 19.1a14.8 14.8 0 0 1-4.8 2.6c-7.1 2.4-4.1 1.1-5-5.5l-4.9-.3c-.5-.2-.7.8-1 .3.2 6.2-2.3 3.4-6.4 5.7a2.5 2.5 0 0 1 .9.7c1.6.9 4.1.8 5.3 2.2s2.8 4.3 4.9 4.7c15.5-5.6 12.7-5.3 23.3-17.2.8-.8 8.4-.2 9.3-.9 5.7-3.2 10.1-11.2 17.7-9.8.9-.2-.5 5.6-.4 5.8ZM95.3 202c-4.7-.4-11.4 3.8-15.4 6.4-.5.4-.5.5.1.2 5.3-1.9 12.8-.6 15.3-6.6Zm516 29.3c-9.4-1.9-14.1 6.8-18.2 13.3-6.7-.5-9.9 5.1-13.3 10.2s-10.5 7.7-16.1 11.3c-11.5 9.5-21.2 19.8-32.4 30.1-7.2 4.6-17.4 10.1-15.2 19.2 1.5-.8 2.2-3.4 3.8-4.3 3.5-1.3 4.1-4.2 5.3-7.3-.2-.9 7.7-1.5 8.1-1.7 8.2-9.1 24-22.1 31.4-27.9s13.1-12.6 20.1-17.8 16-10 23-17.1c.9-1 .8 1.3.9 1.7s.9 1.1.6 1.9l1.1-5.2a3.4 3.4 0 0 1 .6-2.8 11.2 11.2 0 0 0 .3-3.6Zm266.2 2.6c-3.3 4.5-3.1 3.9-8.3 4.6-.6-.2-2.8 5.1-3 5.4 10.8 4.7 11.4-.3 11.3-10Zm-393.2 5.8c-.3-2.8-4.1-7.6-6.1-4.6s6 13.1 6.1 4.6Zm398.2 2c-4.3 13.2-2.5 7.7-14.6 8.2-4.8 2.8-7.6 10.5-13.7 11.5-1.4-.8-5.9-1.1-6.5-2.7s-1-4-2-5.2l-2.7 2c3.3 11.1-6.2 15.6-15.1 22-1.3.4-2.9-5.8-4.3-4.8l-1.9 7.2c-7.1 6.4-20.5 8.7-19.5 20.3-3.1 1.9-9.6 1.4-12.8 4.9a11.3 11.3 0 0 1-1.5 8.8c-.5 1.6-8 10.2-4.8 8.5 13.7-7.2 26.4-20.1 38.9-30.2s27-17.4 39-27.9c7-5.3 13.9-9.7 22.1-11.7 1.9-3.2.8-7.8-.6-10.9ZM54.9 267.1c-7.9.2-15.8 4.8-17.5 13l9.8-5.3c1.8-3.4 3.8-6.1 7.7-7.7Zm73.9 33.9a2.8 2.8 0 0 0-5.3-1c.6 2.6 4.2 3.4 5.3 1Zm622 42.6c-.6 1.1-7.8-.3-8.3.9l-6 14.5c-.3 1.1 41.3-34.5 41.5-34.4s.3-.4-.2-.6-6.5-2.5-6.4-1.5l-1.2 7.1c-3.2 2.5-7.5 4.5-11.1 6.8-.6.2-5.3-.2-5.4.7l-2.9 6.5Zm-245.7 22.6a1.1 1.1 0 0 0-.7-.9l-.5-1.6c-.2-1.5-4.4 3.1-4.8 3.1-7.1-1.6-5.7-7.2-6.1 5 0 1.5-7-.6-6.6 1.1s3.7 2.9 2.6 3.9l-10.4 3c-2.6.3 1.9-8.6-1.4-7.5-14.7 4.7-12.9 2.8-27-1-7.8.7 2.8 2 4.5 2.8-2.3 4.8-11.1 3.4-15.7 4.8-6.5 18.6.4 18.6 10.2 31.8-1.6 2.9-4.7 4.2-8.2 6.6-1.4 0-1.6-2.6-2.2-3.7-1.3-3.5-1.6 3.3-2 4.4-.4 5.8-7.3 7.4-9.7 2.3s-1.5-8.5-2-13.8c-4.6-1.7-11.7-.9-14.2 4.5-.3 1.9 10 .8 9 2.1l-5.2 5.4c-2.9-.3-5-2.5-8.3-.3s10.7 5.8 9 7-6.6 2.2-7.4 4.5c3.8 6.2 9.5 11 16.4 12.7 1.2.4 7-5 6-6.4-1.1-3.5-4.3-7.7-3.9-10.8 3.5-.1 19.8 1.3 19.5 3.4-3.1 2-7.7 1.5-10.1 3.7.1.4-1.7 5.7-.4 5.3s5.1 1.8 7.7 1.8l1.9-1.8c.3-.3.5-.2.6.2 3.7 5.2-6 8.5-3 9.4s9.4-.1 12.5 3.3c-17.7 6.6-13.1 11.8-17.2 1-2.3-.1-4.6 3.8-6.9 4.9-7.2 2.1-11-2.6-4.2 6.5-2.9 2.2-7.4 3.6-7.3 8.8a.4.4 0 0 0 .6.4 42 42 0 0 1 13.9-3.6c3.9-4.7 10.9-9.7 16.8-10.1-1 3.9-5.8 8.3-8.3 12.3-.4.5.3 1 .8.9 7.5 2.1 7.5 10.6 9.8 16.3l8.5 2.5c4.8-1.5 8.1-7.1 10.8-10.6 1.6-1.3 5.3.2 6.3-2.7s2.2-7.6 5.1-10.2c6.9-2.7 11.7 4.7 16.9 7.2l4.4-1.5c.8-.4 2.2 2 2.7.7s.3-6.3 1.4-5.7c8.2 2.7 10.8 0 2.9 7.7a.6.6 0 0 0 .4.9h6.1c1.5.3 1.5-3.8 1.9-4.5a.6.6 0 0 1 .8-.5c1.5.4 4.5 1.2 5.5-.3s2.8-3.5 2.2-5.3l-4.1-5.1c-1.9-1.2-9.2 4.8-13 4.8a49.1 49.1 0 0 1-17.5 1.1c-1.9-.1 1.2-2.4 1.4-2.9 4.8-2.1 10.8-1.7 15.4-5.1 4.3-1.8 9.2-6.8 13.3-7.4v4.1a.6.6 0 0 0 .7.4l5.4-2.4c2.4-.8 1.6-5.2 1.9-7-3.2-3.3-5.7.1-8.6-7.1-6.6-3.6-15.6-3.1-22.2-2.7-1.6-7.6 7-10.6 12.3-14.1 2.1 1.2-.6 5.8 1.4 7.1l9.3 4.5c.5.6 4.3-3.9 4.8-4 3.9-.4 8.2 5.9 11.9 8 6.7 4 7.3 12 7.8 19.1.1 1.3-1 .8-1.8.9-2.7.5-6.1-2.6-6.3 2s-10.9-1.1-4.5 6.5a2.1 2.1 0 0 1 .2 2.5c-4.9 4.4 1.6 5.8 3.6 9.9.2.5 1 .1.8-.3a28 28 0 0 1-1.3-8.1c-.2-.3-.1-.9.3-.5l5.8 3.8a.8.8 0 0 0 1.2-.3c5.4-12.5 12.6-8.7 6.2-17.3-.2-.3 0-.7-.4-.9s.9-1.1 1.4-1.2c15.5-5.2 13.3-.2 3.5-10.9v-6.8c-.1-1.6 4 3.6 4.2 3.5 4.4-1.1 2-4.5 5.4 3 9.2-7.6 3.8-10-4-16-1.7-1.4 2-2.7.9-4.1l-10.6-9.7c-1.4-1.1-2.7 1.2-3.9.8s-3.6-3.6-4.3-3c-8.5 4.1-15.8 14.5-24.5 15.8 1.6-9.6-17.1-17.1-24.2-21.7-4.1-3.2-6-8.4-9.4-12.4a.7.7 0 0 1 0-.9 40.5 40.5 0 0 0 11.7-22.1c.7-.3 5.8-1.9 5.6-3.2M443.4 379l13.4 1.7c1.2 3.8-5 5.5-7.4 7.5-1.3 7.4-1.7 2.7-8.9 1.7-.9-1.3 1.8-10.3 3.1-10.9Zm140.7 28.7c1.4-1.9 1.1-3.5-1.5-2.6s-.6 1.6-.5 2.4 1.4.8 2 .2Zm35.2 64.6-2.5-4.9c-1.7-1.2-6.2 6-7.4 6.7s-3.6-.6-4-.5l-14.7 7.1c-.2 2.3.7 4.7.6 7 10-3.7 20.4-7.6 28-15.4Zm-234.7 6.6c-.8-.3-.9-.1-.3.5l7.6 7.6c.1.1.4 0 .5-.1s3-5.1 1.7-5.3l-9.5-2.7Zm202.5 13.3c-5.1 3.6-10.9 7.5-13.6 13l2.6 6.7c3.9-3 9.9-5.5 11.2-10.2l-3.1-4.9c-.6-.3 2.8-4.3 2.9-4.6ZM568.3 510c-.1 2.2 2.7.9 3.3-.2s-.8-1.8-1.7-1.9-1.4 1.3-1.6 2.1Z"/><path fill="#8b4a93" d="M1031 28.4c-19.1-2.9-8.7-4-18.6 7.8l-12.7 4.2c-1.1 1.7 7.7 5 9 5.6a10.2 10.2 0 0 0-.2 4.2c-4.7 1.2-12.3 5.2-16.4 2.2a86.3 86.3 0 0 0-1-10.1c-8-.5-13.8 4.4-19.8 7.4-2-2.3-4.3-4.5-6.7-.9 3.3-4.5-36.4 1.7-17.6 4.5.7.2 1.2.9 2 .8s.8.1.1.4a46.8 46.8 0 0 1-24.3 2.1c5.4-4.2 1.1-12.1 8.2-14.3.5 1.4-1.3 5-.7 7s3.3 2.6 4.4 1c2.1-5.3 1.5-3.5 6.3-2.4 2.3-2.9 4.3-5.8 9.1-5.5 1.1-.2 3.1.5 3.9-.4s1.1-11.7 1.9-10.6 1.3 7 2.2 9.6c.4-.1 1.9.7 1.9 0-.8-9.6 1.2-3.1 12-7 1.5-.5-2.9 5.8-1.5 5.4s8.6-2.6 8.2-3c3.6-8.1 3.6-6.5 11.8-5.4 1 .3-.6-3.4-.4-3.7s6.4 1.7 6.5 1.5 1.8-4.7 2.1-4.9c3.4-1.2 11.3-6.2 13.6-1.3 1 1.3-.8-4.9.4-4.6 12.2.5 20.7-9.7 32.7-11.5 8.1-1.8 17-5 25.3-6.5l-.4 8.1c.2.7-12.3.3-12.6.5a27.1 27.1 0 0 1-13.3 10.3c-.4.1-.5 0-.5-.3v-5.7c0-.1-.1-.2-.3-.2s-1.7-.1-1.7.3l-.2 8.7c.2 1.3-4.7-4.6-4.9-4.4a8.9 8.9 0 0 1-7.7 11.1m-33.3 22.2c2 2.4 6.8-1.8 4.6-4.1s-6.8 1.7-4.6 4.1Zm68.7 1.8c-1.1 2.3-5.7 2.1-8.2 3.1-.7-2.1 2.4-4.6 4.8-4.8.3 0 .5-.2.5-.6v-3.9c-2.5.8-5.9 5.6-9.2 7.2-1.3-3.1 1.4-7.4 4.4-9.8 1.4-1.6 7-3.9 6.9-5.6l-16.1-8c-.4-.7-6.2 6.4-6.5 6.4l-6.5 1.2c-.6.1 2.7 6.9 2.5 7.2a.4.4 0 0 1 0 .5l-3.7 5.6c.9.9 3.5 2 3.1 3.6l-1 5.9c8.8 2.6 13.8 6.1 21.4 4.4 3.4-1.7 10.8-2.1 12.4-6.4 0-9.1 3.7-8.3-4.8-6Zm42.2 28.5c4.2 0 9.7.2 13-3-1 6.3-2.6 4.9-7.1 8.1s-10.9 9.9-18.4 10.7c-11.2 10.8-26.4 12.2-39 22.1 2.1 2.3 7.3 2.8 10.9 2.8.5 0 .5.2.1.5-3.7 3.3-7.5 7-12 9.1-8.1.1-14.5 6.4-20.7 10.7-.5.7-3.9-1.7-4.4-1.7-2.5 2.4-4.2 7.4-9 7-1.5 0 4.2 3 4.2 3.3s-3.2 2-3.2 2.1a16.1 16.1 0 0 0-8.8-3.5c-2.8-3.8-6.9-.2-3.4 3.3-4.6.6-23.9 3.8-25.5 7.6a142.5 142.5 0 0 0-1.5 14.5c-.3-.1-7.4 2.7-6.8 1.9 8.4-10.1 6.7-6.2-5-7-5.8 10.2-17.7 14.6-27 22.7-.4.3-.6.2-.8-.2-.8-2.5-4-5.2-5.9-1.6s-4.7 7.5-4.6 11c6.4.8 6.7-1.7 4.8 5.6-.1.4-.2.5-.4 0-1.8-5-.6-4.8-5.6-2.6-.9.5-.5-3.2-.7-3.5s-3 0-3.1-.1c-.8 4.9-3.3 8.3-6.4 12.2s-3.7 6.6-2.3 8.9c4.6-1.7 8.8-2.1 10.9-6.5.5-.1 3.7 1.9 3.9.9l1.5-4.9c-.4-.9 9.3-.1 9.6-.3s3.8-4.9 4.1-5.1.4-.3.6 0 1.7 3.3.7 3.7a39.9 39.9 0 0 0-12.1 8.7 30 30 0 0 0-5.8-.6 28.6 28.6 0 0 0-14.7 12.9c-.2-.3-6.3-1.4-5.8-2.1l2.2-11.3c-4.3-.5-10.6 4-11.9 8.7-.3-.1-.7-3.7-1.5-3.1-5 3.4-9.9 7.4-15 10.6-1.1 1.1-3.5-5-3.6-3.1s-.2 7.6 2.5 6.1a56.8 56.8 0 0 1 16.2-2.8c1.5-.2.6 4.1.8 4.8-5.4 2.3-12.5 5.9-16.9 8.3l.5-7.9c-1.2-.4-3.3 2.2-3.8 2.9-4.3 13.1-2.5 7.7-14.6 8.2-4.6 2.9-7.2 9.4-12.8 11.5-.7.5-4.9-1.5-5.6-1.5 5.5-5.1 1.7-13.5 7.9-17.8.9-1 .6 6.4.8 6.4 2.7.7 6.2-2.5 8-4.6 10.8 4.7 11.4-.3 11.3-10l3.8-5.8c3.3-1.8 8-3.3 9.8-7 5.2-4.3 13.1-11.4 11.4-18.3l-8-2.1c-1.8-.4.1 4.2 0 4.8s-3.8-.2-4.5-.2c0-4.4-5.8-6.1-6.5-.4-2.8-.6-5.4-3.1-8.1-3.7 0-.2-.1-.5.2-.7a158.6 158.6 0 0 0 13.5-10.7c.9.1 13.2-3.2 13.5-1.7s4.4 6.9 4.9 5.3.9-3.4 1.7-5.1.8-2.2.1-3.3c2.5-1 16.2 1.9 18.9 2.2s2-4 4-5.2a28.2 28.2 0 0 1 15.2-7.6c.8-.3.8-.5 0-.7-6.6-1.6-9.4-.2-12.2-7.6.8-2.3 4.7-3.2 6.1-5.1 1.1.2 1.3 0 1.6-.8 4.5-.6 11.4-5.9 15.7-2.3.9 1 1.8 5.1 3.3 3.6s4.5-11.4 4.2-12.1c2.8-6.1 2.3-5.6 6.4-.1a1.1 1.1 0 0 0 1.6.3l2.9-1.9c1.4 1.1.8 4.9 1.7 6.7s2.6-5.4 2.9-5.4 2.4.1 3.4.5c15.1 10.1 1.4-2.6 1.5-16.8.5-2 5.1 5.1 5.5 6s1.1 1.2 1.5-.2c.2-3 2.3-1.9 4.5-1.5 6.9 1.8 35.2-9.1 11.5-6-15.6 4.5 1.1-3.1-7.3-21.5-.4-4.2 12.7-2.2 14.2-9 1-1.6 2.4-.5 3.7-.3 10.6 2.8 13.7 1 22-4.8.1-.6 7.8 2.3 8.2 2.2 2.1-.8.2-13.8 2-14.5s4.5-.4 3.8-1.6l-4.2-7.6c-.7-.9 4.8-.3 5-.5s2.7-4.7 3.3-5.5 2.8 7.8 3 7.6 2.6 1.1 3.4 1.4-1.4-5.7.7-6.5c7.3.8 13.8-1.2 20.9-.1 2.9 1 5.9 1.7 5.5-2.6.8-2.1-1.4-12.7 1.1-11.6s3.9 1.6 3.6 3.6c0 7.2 1.4 13.2 2.5 20.2-.2 1.9 6.8.7 7.8 1m-131 86.9c2.9 1 4.9-5.3 2-6.2s-4.9 5.3-2 6.2m-25.6 7.1c-.3-.2-5.4 10.1-5.6 10.2.2 2.2 10.5-6.9 11.2-8.8.3-.4-5.5-1.3-5.6-1.4ZM892.2 73.4c-2-1.7-5.3-2.3-7.7-3.5-.3-.1-.4 0-.4.3v5c0 .6-.1.6-.4.1a14.9 14.9 0 0 0-8-7.2c-2 3.3-1.7 7.7-5.1 11.3-.3.8.9 1.3.2 1.8-3.2 1.1-6.8.9-10 1.6-3.9 3.2 8.8 1 10.2.7a86 86 0 0 0 21.2-10.1ZM811 102.7c-6.8.3-9.4-.3-11.4 5.3a12.1 12.1 0 0 0-10.8 2c.1 2.2 3.1 4.4 3.8 6.5-1.9-1.1-3.2-4.3-5.4-5-10.4 3.7-19.3 12.2-29.1 17.3s-16 10.1-25 15.7c-5.1 3.7-12.4 5.8-15.7 10.4 1.9.2 2.3 4 4.1 3.8 6.3-4.5 13-6.5 20-9.9a32.3 32.3 0 0 0 11.7-9c4.8-2.2 10.8-2.3 15-5.4 10.5-5.6 12.7-13.1 26-8.5 5-7.1 11.6-13 18.4-18.1.4-.4 1.5-1.1 1.3-1.9l-2.9-3.2Zm-437.2 23.9-17.1 2.8-1.6 6a.7.7 0 0 0 .7 1c2.4.7 5.6 1.3 7.5 2.8 4.7 35.1 21.9 24.3-.5 37.8-.5.4-.5.7-.1 1.1 19.7 18.2 7.8 16.7 13.7 37.3a32.6 32.6 0 0 1-1.8 22.6c-.2.2-11.2 1.5-10.2 2.4s5.1 5.2 4.1 6.4l-5.6 11.1c-.1.1 0 .3.1.4s3.2 2.8 2.5 3.4l-7.9 15.5a1 1 0 0 1-.6.5c-8.5 2.4-5.3 1-7.2 9.5 10.9-8.6 13.7-2.9 23.2-17.2.7-1.6-1.7-5.2.1-6.4.2-.8 12.3-7.4 10.8-8.5s-9-9.7-7.5-11.4c10.2-15.1.2-20 12.5-21.7 1.6-.3 5.4-3.7 2.7-4.6-.5-.2-6.9-1.3-6.8-2.1l-3.7-12.9c-1.6-3.5-1.7-8.2-3.1-12-.3-.7-4.3-4.4-3.6-5.3l8.4-18c-.1-1.4-2.1-2.2-3.1-3.1-1.7-9.4-5.7-11.8-9.4-19.7-3.5-10.2 7.6-19.4 10.8-4.8.3.7 1.3.8.9 1.9s0 .2.1.2-.5-8.4 1.7-7.9l11 5.8a.7.7 0 0 1 .2 1.1c-10.8 9.2-3.7 4.9 4 2.5 2.1-.2-1.4 7.6-.8 8.9.8 2.9 12.3 5.3 14 3.5-3.6-1-7.2-3.3-10.7-4.2q-1.7-.6 0-1.2l13.3-4.9c-10.3-10.7-26.8-15.2-41-18.6ZM260.3 261.9c9.2 3.7 3 4.9 13.7 2.1 1.3 0 .5 2.3 1.7 1.9 2.7-2.6 7.5-2.3 10-4.8l.9-4a.9.9 0 0 1 .9-.6c4 .8 8.2.3 12.3.7 5.4-4.8 5.8-19.8 1.4-26.1-.7-1.6-5.8 1.9-6.8 2s-.9.1-.6-.6l6-18.4c.8-1.2-4.8-4.7-5.3-5.4 1.4-3 5.9-1.7 7-4.7a79.7 79.7 0 0 1 7.3-13c.2-1.7-1.4-3.5-1.4-5.1-2-8 7.9-7 12.1-9.8-.6-14.6 3.2-9.9-9.1-16.5-.8-.7-3.3-3.4-2-4.6s7.4.8 6.7-1 .2-3.4-1.5-2.9l-7.6 1.6-.4.2c-1.3 1.2 0-7.2-.3-7.4s7.6-1.5 8.2-1.9c2.2-.3 0-4.6-1.6-3.7-5.9 2.1-12.2 1.3-18.4 1.4-1.5 1.5-.3 5.2-1.5 7.5-2.2-.4-4.7-2.5-7.7-1s-7.3 3.1-8.3 5.8l3 5.5c1.1 3-7.6-3.6-8.6-2.6s-2 2.2-2.8 1.3-1.9-5.8-3.4-4.5c-3.4 2.4-9.8 3.5-11 8.5.1 9.2.3 7.2-7 12.8-1.7 1.8 1.1 4.7-.5 6.6-6.3 6.2-1.8 4 2.7 8.4 1.8 1.1-5.1 8.4-5.4 9.5a.5.5 0 0 1-.8.2c-7.6-4.3-4.3-1.5-4.9 4.3 0 .8-4.4 3.3-4.9 3.8-7.5-3.4-16.9-4.7-23.7 1.3l8.8.4c2.1.3.2 3.1.5 4.6.2 12.7-1.3 6.5-9 2.3-.8-.7.1 7.1-.1 7.1.1 2.1-2.3.9-3.3 2.1 3 1.1 7.1.3 9.9 2.1s10 8 11.9 12.8l-4.8 5.8c-1.1 1.1.9 2.7 1.4 3.6s6.7-.7 7.7-.6a.6.6 0 0 0 .4-.9c-.3-.8-3.4-3.8-2.2-4.6l6.2-5.9c2.2-1.4 6.7 3.8 8.9 5.1 2.3-.5 3.8-4.6 6-6 3.8 3.2 4.7 10.2 6 15.3-.2.7 5.9 4.6 4.6 5.3-9.5 3.4-11.7-.2-20.1-4.1-4.1-2-9.7 3.5-17.5.6 0 .2-6.7-2-6.1-1.1 4.3 11 19 13.9 2.5 14.4-.7.9-4 .1-4.4 1.7l2.6 13.1c.7 1.4 3.8 2 5.1 2.7s6.2 2.2 6.2.3-.2-8.1 1-8.4l6.2-3c2.2-1.1-8.5-2.1-7.8-4.1 8.7-12 5.1-9.2 16.8-2.2 1.5-.6.4-4.9.7-6.3s6.2 2.2 6.4 2.1c2.3.3 4.6-2.3 7.1-1Zm618.4-111.8c-2.8 2.1-3.2 8.8-1.5 11.3-.3.7 3.3 4.6 3.5 5.2s-12 1.4-12.1 1.7c-6.8 5.3-8.3 14.9-16.5 18.9l-13.2 3c-1-.4-.1 11.2-.3 11.4 2.9 7.9-13.3 16.7-15.9 24.1 8.4-4.4 15.9-14.8 26.6-11.8-.1.5.3.7 1.1.5l-4.7 1.4c-2.8 3.9-2.8 9.9-3.3 14.1l-4.9-.3c-.5-.2-.7.8-1 .3s1.1-6.6-.4-5.1l-6.3 5.4c-.3.1-8 .3-7.9 1.1l-5.2 11a1 1 0 0 1-.4.5l-6.7 3.4c0 5.2-1.9 7.6-4.2 11.6-1.4 1.5 1.3 6.3 2.7 3.5 3.3-7.1 6.7-12.1 13.1-16.9s9.7 1.8 6.8-8.6c2.7.4 6.2 1.1 8.3 2.7-1.5 5.7-3.5 5.1 2.8 6.3-.6 2.7-6.6 3.5-8.8 5.9-6 5.3-11.1 14.5-20 13.5l-1.9 7.8c-.1 1.6-2.9-3.3-3.1-3.3s-.6-.5-.6.1c.1 2.4 1.2 7.9-2.8 7.8s-6.5-6.5-6.2-9.9l2.8-2.7c.5-.5.4-.6-.2-.3s-4.1 1.5-4.1 2.4l-.7 5.3c-.3 1.2-4.9-.8-3.6 1.7 8.8 8.3 3 .8-5.4 15.1-.6.3-5.5.2-5.7.9-3.1 5.6-6.4 7.9-10.9 11.6-14.3 10-10.5 5.3-12.7 20.8l-11.3 9.4c-.9.5 2.2 3.3 2.2 3.7s-.4 1.4-.6 1.8-.3.3-.4.1l-3.8-4.8c-3.6-2.3-7.8-6.7-11.6-7.1-3.5 9 0 11-9.8 7.1-1.7.7 2.5 9.8 1.3 11.7-3 3.7-3.9 15.8-10.8 14.9a23.6 23.6 0 0 1-6.1.9c-2.3 0-.6 1.3-.3 2.8-1.8 5-1.7 6.1 4.2 7.2-.1 6.8-5.2 4.4-7.6 9.3-1.3-3.4-2.1-6.6-6.3-8a.4.4 0 0 0-.6.3c-.9 8.5-5.7 17-11.2 23.8-.3.9-5-2.7-5.5-2.7-3 1.9-3.2 8.2-4.6 11.6s-.3 8.1-1.3 11.2c-2.8.6-6.1-1.4-8.1-.1-.4.3-4.3 11.9-5.4 10.7s-7.9-3.5-7.4-1.7 1.9 5 .2 5.6c-4.5 1.4-14.4 10.6-6.5 13.3l-7.4 3.4c-.5-.1-1.4 5.4-1.5 5.7-6.6-3.6-5.7-5.4-15-3.2-1.1 2.2-.5 5.6-1.2 8.1-.1.4 0 .6.2.6l-13.4 16.5-14.7 7.1a.4.4 0 0 0-.3.6c2.1 9.1 1.4 8.1-6.4 13-3.9 3.1-8.4 6.5-10.5 10.9l2.6 6.7c-4.2 6-9.9 9.4-17 9.5-3.9 7.3-13.6 10-18.8 16.3s-6.9 6.4-13.3 10.8c-5.6 13.5-20.9 20.7-31.1 30.6-3.6 3.4-8.6 5-12.3 7.5l-.4 5c-8 5.4-15.4 8.2-20.5 13.9-4.1 1.3-8.7 1.4-12.4 3.3s-15.8 9.6-21.6 8.9l-11.3-2.3c-1.4-1.6 4.9-3 5.9-4 9.5 3.4 17-5.8 26.2-8a44 44 0 0 0 21.3-14.7c-9.7 2.3-21 9.2-30.3 14.6-1.6 0-1.6-1.9-2-3.5s-.8-2.6.5-3.6c3.4-1.6 9.8-10.7 11.6-9.8l2.6 5.4c3.1-.4 5.4-5.9 9.2-6 22.1 1.1 28.3-28.5 49.3-29.9 1.8.2-.7-4.5-.5-5.2s8.3-7.3 8.5-7.6c2.2-1.7-5.2.2-5.8.4.8-4.8 3.9-10.9 3.1-16.1-1.1-3-8.9 5.4-9.6 6.7s-1.5-3.7-1.7-4c-.8-2.2 8.4-3.6 9.4-4.4-2.3-6-11.1-5.2-17.5-4.5 0 .4-6.5 5.5-5.5 6.1 6.3 8.7-1.5 1.1-5.9 2.1-5.9-.9-11 2.7-16.3 3-12.4-5.2-15 6.7-36.4-2.2-.8-.2-2.1-.4-2.8.3s-12.7 12.6-12.3 9c2.8-6.8-.2-6.9 8.1-6.7a.9.9 0 0 0 .9-.8c.6-7.7.9-15.8-3.7-22.5s-14.3-7.9-20.9-5.5c-3.8 3.5-5.5 9.4-9.6 10.3-6.7-1.2-7.2-11.9-8.6-9.4-3.4 7.6-6.7 5.4-13.5 5.4-1.7.9 8.3 5.3 10.2 6.4 21 9.2-22.7-1.4-26-4 2.9-5.9 2.9-24.2-3-27l-4.5 6.2c-5.2 2.8-11.3 4.1-16 7.8-.3.5-8.4-1.1-9-1.1a1.1 1.1 0 0 1-1-1.1c.3-13 .8-8.3-10.9-4.2-.4.4-10-3.1-10.5-3.1s-.8-.6-.1-1l7.6-4.8c.9-.8-1.2-.4-1.7-1.1-8.5-1.5 2.9-3.7 5.7-5.6s7 1.6 9.2-.4c-.1-.3 2-4.8 1-4.7-2.5-1.6-11.1.5-11.4-3s-.8-3.9-.7-5.9.5-4.3-.7-5a51.3 51.3 0 0 0-15.4 28l-11.5-10.9c-1.7-1.6-4 3.6-5 4.1 1.4-8.5-1.7-8.4 5.9-7.8q1.2 0 .6-.9c-1.6-3.6-4.8-7-2.9-10.9 3.2-6.1 4.2-13.2 5.5-19.6 6.4-16.8 14.4-33.3 22.1-49.6a170.5 170.5 0 0 1 10.2-26.5c3.2-7.5 4.7-15.3 9.3-21.5 1.7 12.8-.7 12 14.3 4.1 6.7-3 7.5-12.9 15.2-13.4 2.7.3 8.3-.4 9.3 2.6-1.4 4.6.8 8.7.7 13.5a2.4 2.4 0 0 0 1.3 2.8c3.9 2.5 8.1 4.6 12.1 6.9a.4.4 0 0 0 .7-.4c0-1.1.8-4.6-.4-5.3s-7.2-3.9-4.4-4.1c8.2-2 18.8-2.1 24.5-6.6-.6-1.1-9.2-5.3-6.5-7 15.4-7.9 23.3-7.2 37-21.5 3.1-2.9 6.7-3.8 10.4-5.6v-4.2c1.7-3.3 7.3-3.7 10.2-4.7 11.5-1.5 22.2-8.3 33.8-7.4l3.3-3.1c.2-.2.4-.3.6-.1s3 .2 4 1.2a1.7 1.7 0 0 0 1 .3c-.6.8-6 .3-5.6 1.8l4.9 3.3a53.5 53.5 0 0 0 8.7 13.9c.7.5-1.1 2.8-1.2 3.4s-3.1 0-4.2-.1c-5.4-1.7-14.6-.8-16.3 5.3-1-.1 9.9 9.4 5.8 10-.9 0-1.6-.4-2.5.9-.6-.3-2.6 0-2.1.3a9.9 9.9 0 0 0 4.8-.7c6 .3 14.4-10.6 18.8-10.2.5 3.3 4 7.8 3.1 11.6-9.5 11.5 1.1 22.8-4.5 35.6a1.1 1.1 0 0 0-.7-.9l-.5-1.6c-.2-1.5-4.4 3.1-4.8 3.1-7.1-1.6-5.7-7.2-6.1 5 0 1.5-7-.6-6.6 1.1s3.7 2.9 2.6 3.9l-10.4 3c-2.6.3 1.9-8.6-1.4-7.5-14.7 4.7-12.9 2.8-27-1-7.8.7 2.8 2 4.5 2.8-2.3 4.8-11.1 3.4-15.7 4.8-6.5 18.6.4 18.6 10.2 31.8-1.6 2.9-4.7 4.2-8.2 6.6-1.4 0-1.6-2.6-2.2-3.7-1.3-3.5-1.6 3.3-2 4.4-.4 5.8-7.3 7.4-9.7 2.3s-1.5-8.5-2-13.8c-4.6-1.7-11.7-.9-14.2 4.5-.3 1.9 10 .8 9 2.1l-5.2 5.4c-2.9-.3-5-2.5-8.3-.3s10.7 5.8 9 7-6.6 2.2-7.4 4.5c3.8 6.2 9.5 11 16.4 12.7 1.2.4 7-5 6-6.4-1.1-3.5-4.3-7.7-3.9-10.8 3.5-.1 19.8 1.3 19.5 3.4-3.1 2-7.7 1.5-10.1 3.7.1.4-1.7 5.7-.4 5.3s5.1 1.8 7.7 1.8l1.9-1.8c.3-.3.5-.2.6.2 3.7 5.2-6 8.5-3 9.4s9.4-.1 12.5 3.3c-17.7 6.6-13.1 11.8-17.2 1-2.3-.1-4.6 3.8-6.9 4.9-7.2 2.1-11-2.6-4.2 6.5-2.9 2.2-7.4 3.6-7.3 8.8a.4.4 0 0 0 .6.4 42 42 0 0 1 13.9-3.6c3.9-4.7 10.9-9.7 16.8-10.1-1 3.9-5.8 8.3-8.3 12.3-.4.5.3 1 .8.9 7.5 2.1 7.5 10.6 9.8 16.3l8.5 2.5c4.8-1.5 8.1-7.1 10.8-10.6 1.6-1.3 5.3.2 6.3-2.7 2.4-9.1 6.6-14.6 15.6-7.6 5.3 3.6 4.1 6.1 10.8 3.1.5-.2 1.6.8 2 1s.6-6.4 2.1-6c8.2 2.7 10.8 0 2.9 7.7a.6.6 0 0 0 .4.9h6.1c1.5.3 1.5-3.8 1.9-4.5s5.1 1.3 6.3-.8 2.8-3.5 2.2-5.3-4.1-6.7-5.7-5.3c-8.3 5.6-19 7.1-28.9 6.1-1.9-.1 1.2-2.4 1.4-2.9a73 73 0 0 0 28.1-12.8c1.2-.6.5 4 .7 4.4s5.6-2.1 6.1-2c2.4-.8 1.6-5.2 1.9-7s-4-1.4-5.5-2.5-2.1-4.1-3.7-5c-16.5-6.9-24.5 3.6-21-8.1 3.6-2.8 8-7.3 12.2-8 1 2.3-.8 5.2.9 6.8l9.3 4.5c1.6.3 4.6-5.7 6.4-4.1 5.2 4.6 12.6 8.1 16 14.4.4 2.7 3.8 12.8 1.1 13.7s-6.8-2.9-7.1 2a1.7 1.7 0 0 1-1.4 1.4c-.8.5-6.3.1-5.3 1.9 4.1 5.6 2.7 4 .3 9.2 1.8 2.1 4.2 4 5.7 6.4.2.5 1 .1.8-.3a28 28 0 0 1-1.3-8.1c-.2-.3-.1-.9.3-.5l5.8 3.8a.8.8 0 0 0 1.2-.3c5.4-12.5 12.6-8.7 6.2-17.3-.2-.3 0-.7-.4-.9s.9-1.1 1.4-1.2c15.5-5.2 13.3-.2 3.5-10.9v-6.8c-.1-1.6 4 3.6 4.2 3.5 4.4-1.1 2-4.5 5.4 3 9.2-7.6 3.8-10-4-16-1.7-1.4 2-2.7.9-4.1l-10.6-9.7c-1.4-1.1-2.7 1.2-3.9.8s-3.6-3.6-4.3-3c-8.5 4.1-15.8 14.5-24.5 15.8 1.6-9.6-17.1-17.1-24.2-21.7-4.1-3.2-6-8.4-9.4-12.4 1.4-3.6 5.8-6.7 7.7-11.1s2.4-8.3 4-11.9l4.9-2.1c.6 2.2-2.5 5.9.2 7a1 1 0 0 1 .6 1.6c-6.7 6.7 3.5 8.4-6.4 13.1a.4.4 0 0 0-.2.6c2 2.7 0 5.6-.8 8.3 1.2 1.7 4.8 1.5 7 2.2s3.2 1.2 5.1.1c4.8-2.9 11.1-2.4 13.7-7.6-12.5 2.3-3.8 2.4-4.1-13.7 1.3-2.7 3.9-.2 6-6.5 1.7-2.2 5-2.3 6.9-4.4.9-.3 6-6.3 5.4-2.5-7.7 31 11.2 22.4-13.8 21.8 9.8 7 20.3 13.9 21.6-3.7.8-1.6-6.9-5.2-7.5-6.1s6.8-1.2 5.7-2.7l-4.6-3.1c-.3-.2-.3-.6.1-.7 10.6-5.2 23.8-8.3 34.5-11.8 5.9-2.9 12.1-6.8 18.6-8 2-.6-4.3-5-3-5.6 6.8-1.7 16.2-2.4 22.2-6.8v-11.9c.5-3-13.7 6.9-14 5-.8-3.5-2.9-4-5.8-5.2-.9.3.1-5 .6-4.6l9.6-1.2c1.4-1.1-5.1-4.5-.7-4.8s20.7-1.1 19.1 7.6c3 3 8.6 4.1 10.7 7.4-.6 3.1.1 6-.7 8.6 5.9-5.9 9.9-14.6 15.3-21.9 2.1-2.9 7.2-.9 9.4-3.3-.3-.4 1.3-7.8-.3-7a36.2 36.2 0 0 0-14.1 12.7c-1.1 2.8-9.4 7.1-11 5.2 1.1-10.1-.6-17.3 7.2-25.1-.5-2-11.9-.7-11.4-3.2 4.6-11.7 16.8-15.8 27.5-21.9s19.1-16.4 29.3-23.5c1.2-.7 1.7.6 2.1 1.5 3.4 8.8 18.3 7.8 24.7 3.4 1-1.7-5.7-4.1-3.4-6s2.3-3.4 3.6-3.4l3.5 5.6c.6 1.2 1.4-3.2 1.6-3.3-.9-4.8-4.1-8.4-.9-14.2 1.4-1.9 2.5-8.3 4.7-7.9 13.6 14.9 8.2 10 26.9 5.3.4-3.7 2.8-8.5 1-11.5l-5.8-1.1c-1.9-.2 7-4.9 6.9-5.2 2.4-.8 2 6.1 4.2 6.1 9.2-7.9 22.8-10.9 28.5-22.7 26.6 3.3 7.8-.6 26.6-17.1 4.3-3 11.2 2.4 13.8-3.9s7.1-21.1 14.2-22c8.9-1.8 10.8 1.4 6.8-9a1.3 1.3 0 0 1 .9-1.7c1.6 0 3.8-2 5.1-1.4.9 3.6.5 5.4 4.5 6.4.9.3 1.3 0 1.1-.9s-1.4-5.4.2-6.4c13.6 9 23.1.2 25.6 7.8m-60 70.7c.3-3.8 3.2-8.5 3.2-11.1-5.9 2.9-10.8 7-15.9 11.3 2.3 1.6 10.9 2.6 12.7-.2M460.8 330.4l-6.5 1.3v.3c2.5.5 6-.2 7.9 1-.4 6-.6 4.6 4.2 2.6.9-.8-2.1-4.4-1.6-5.4 1.1-7.3 2.4-15.6-7.1-8.5-5.1.1-10.5-3.7-15.6-5-.8-.3 1.9 10.2 1.7 10.4s3.9-3.5 4.2-3.5c4.1.8 9.9 4.1 12.8 6.8m-97.3 50c-.3 0-4.7-4.9-5-4.1-3 3.8-7.8 17.5-4.2 21.4 6.2.9 5.4-10.4 11.2-10.4l4.2.4c-5.7-9.6 2.2-16.4-5-20.6-.3 4.4-.3 8.9-.6 13.1 0 .4-.2.5-.6.2m-24.9 4.1c-.4.5-5.2 4.8-4.9 5.5v14.7a82.4 82.4 0 0 0 17.5-15.7c1.2-1.2-4.1-5.8-3.1-6.9s4.1-1.8 3-2.3c-4.3-1.5-10.8-3.9-15.1-2.6 0 .6 3.4 6.9 2.6 7.3m245.7 23.2c1.4-1.9 1.1-3.5-1.5-2.6s-.6 1.6-.5 2.4 1.4.8 2 .2m-290.4 43.1c-9 1.4-7.6 10.8-8.6 18.6 3.2 1.8 7.1-3.4 7.3-6.4s2.1-8.6 1.3-12.2m90.6 28.6 7.6 7.6c.5.7 2.3-4.6 2.5-4.7s-9.7-3.1-9.8-3.4-.9-.1-.3.5m184 30.6c-.1 2.2 2.7.9 3.3-.2s-.8-1.8-1.7-1.9-1.4 1.3-1.6 2.1Zm333.9-355.9c-.2-3.8-7.1-3.2-6.7.6s7.1 3.1 6.7-.6Zm-184.7 3.1c.9 5.3-.7 6.4-3.6 9.3-6.1 5.1-14.3 8.7-16.6 16.8-1.1 2-14.7 3.4-13.2 5.8-3 .9-5.5 4.3-8.1 5.5l-14.4 4.9c-2.3.6 2.2 3.7 2.5 4.4 4.1-.1 8.5-2.4 12.8.2-6 4.1-3.4 7.9 3 4.8 1.5 2.7.9 4.8-1.2 6.8s-.8-1.4-1.2-2.9c-.4.2-5.6 1.2-5.3 1.9s.5 5.5-.7 6c-2.6 2.3-7.4 2.3-9.9 3.7-8.4 3.6-9.6 15.7-16.3 17.8-3.7 1.1-11 9.3-13.3 7.9-.4-.3-1.9-3.7-2.6-2.3-3 7.7-9.2 12.8-15.3 17.8-3.4 1.1-7.5-1.5-10.9-1.8-1.6-.5.3-.5.2-1.5 2.7-2.5 6.2-6.4 9.6-7.4 1.5-.7 4.7-.4 5.2-1.9-5.6-8.3 6-16.8 1.9-25.6.1-1.1-8 3.5-8.2 3.4s-.5 1.9-.7 2.3c-.6-1.1.4-5.7.3-6.9a.4.4 0 0 1 .4-.4c.5-.1 5.2.1 5.3-.7s2.7-6.7 3.5-6.5c7.8 0 8.4-3.2 13.1-7.8a136.9 136.9 0 0 0 14.4-11.5c12.8-2.7 8.6-3.2 14.3-12.7.4.1 2.9 2 3.4 1.5 4-3.4 9.1-5.8 13.3-9l1.7-3.7c13.2-2.4 22.8-16.5 36.6-18.2m-47.9 54.3c.8-.7-11.7-7.7-11-5.8 3 7.3 2.9 7.5 11 5.8m-29.2 15c.2.2-1.7 8-.7 7.4s6.6-1.6 6.6-2.1l4.6-7.6c.4-1 3.2 1.8 3.7 1.8 2.1-2.3 4.1-8.1 5.4-10.5-2 3.1-6 4.9-9.5 2.9-.2 0-2-6.3-2.6-5.4-3.5 6.1-12.6 8.1-18.2 10.4.3.1 1.8 10.3 2.4 9.9s8.4-8.2 8.3-6.8Zm-205.3-60.8c-2.5 4.3 2.5 10.5 5.8 12.7l1.5-4.3a25.2 25.2 0 0 0-7.3-8.4Zm280.2 27.5c-.3.7-.1 1 .7 1 21-2.2 5.9-22.1-.7-1Zm-7.3-5.6c0 .4-4.4 10-3.5 10s11.7-2.7 10.4-2.6c-.8-8.4 2.2-7.5-6.9-7.4Zm-491.4 64.6c-.9-2.3.1-6.1-1.9-8l-11.5-5c-.8-.5.1 9.9-.1 10s15.2 6.3 13.5 3Zm183.3 4.6c0-1.2.2-3.2-1.4-3.2s-3.3-.3-3.3 1.5-.2 3.1 1.4 3.1 3.3.3 3.3-1.4ZM81.2 279.2c1.2-2.5 7.4-1.3 3.5-3.9s-9.4-5.1-13.7-4.5c.1.4 5 9.1 3.9 9.2-10.8 6.8-13 3.5-6.5 11.5-4 2.1-11.3 0-16.3-.5-5 2.7-9.9 6-15.4 7.9.3 2.8 6.3 4.9 9.2 6.3s8.7 2 9.5 3.9c-5.5 4.4-13.5 2.6-19.8 3.7-4.3 8.7-13.1 13.9-4.5 23.4 1.3 1.7 10.9 3 10.3 4.9-5.8 10.9-4.5 7 6.4 17.1 5.4-1.2 9.7.7 14.6.9a1 1 0 0 0 .7-.9c-1.3-8.2 7.2-11.2 14-12.4 3.2.7 4.5 5.6 6.7 7.9 2.6-1 4.8-4.6 7.5-6.2.7-.7 7.1 2.4 7.6 1.4s1-5-.4-5.8c-16.3-13.6-18.1-7.8-7.5-18.8a.9.9 0 0 1 1.5.2c4.2 7.9 8.5 16 16.1 21 1.5 1-9.9 9-7.2 10.6 4.5-.5 8.8-2.1 13.5-3.2 1.3-.7.1-2.2-.1-3.2 0-6.4-5.7-6.2-8-10.8a28 28 0 0 1-2.7-11.7c-3.3-2.9-10.1-4.6-11.6-8.7 6.5-1.5 13.7-1 20.2-1.1l3.9-5c.7-1.2 3.4 1.9 4 2 2.4 1.5-1.3-5.1-.3-5.6s5.1-4.6 3-4.7c-21.2-2.8-27-2-26.4-24.7-1.7 1.2-20.8.5-15.7-.2Zm61.7 6.8c-1.5-.4 5.7-5.5 5.7-5.9 1.5-.9-7.6-1-7.6-1.3s-4.2-5.2-4.9-5.8c-2 4.4 1.2 11 4.8 14.8 1 2.6-1.5 6.4-.1 8.9s7.6.6 9.6-1.6c-1.1-7.3-1.3-5.1 4.9-6.9-4-.1-8.7 0-12.4-2.2Zm406.3 13.6c.1-1 .1-2.6-1.3-2.6s-2.8-.1-2.7 1.4-.1 2.6 1.3 2.6 2.8.1 2.7-1.4ZM443.6 379c-1.3.6-4 9.6-2.9 10.9 7.2 1 7.6 5.7 8.9-1.7 2.3-2 8.6-3.7 7.4-7.5l-13.4-1.7ZM308.5 519.9c4.1-2 9.7-3.9 11-8.6l-2.3-8.4c-2.7-.8-6.1-.1-6.2-.2l4.4 8.3c0 .1-16.8 2-14.3 3.9.4.3 5.7 1.3 5.2 2.1s-3 6.3-2.1 6.2c5.2 1.5 13.1 2 16 4.1l-6 2.7c-1.7.5 6.9 1.4 6.7 1.2 3.3-1.6 3.6-6.7 2.5-9.6l-3.3-1.6c-.9-.6-4.8 3.9-5.6 3.6s-6.5-3.4-6-3.7ZM276 588.8c-9.1-13.3-6.9-19.1 4.2-30.4 1.8 1.3 2.8 5.2 3.4 5.4s3.6 5.2 4.7 3.2c6.1-10.2 8.3-22.1 18.2-6 .9 1.1 4.1 5 5.4 3.1s.6-13.6-.2-13.9-4.2-2.4-4.2-3 .3-6.2-1.4-5.1c-3.9 3.1-5 1.6-5.9 7.3a1 1 0 0 1-.5.6c-2.7 1.3-6.4.7-9.1 2.2-.5 0-5.3 6.3-5.6 4-.2-.2.8-11.5-.1-11.1-5.5.7-13.9 14.3-17 10l-.7-.2c-1.1 5.3-1.3 8.5 2 11.3-1.4.2-4.1-1.2-4.6-.2a199.9 199.9 0 0 0 10.1 29.4q.2.6-.3.3l-5.8-2.6c-1.5 5.3 6.1 10.4 11.3 10.8l-3.3-6.5c.6-1.4 3.9-.2 5-.3s4.4 1.1 3.4-.2l-9-8.1Zm-17.5-44.3c-7.2 10.4-3.5 21.2-6.6 33.4 2.1 6 5.1 11.9 6.7 18 .2.7.4.7.5 0 2.2-9-4.5-19.9-1.7-28.6s6.5-13.9 1.1-22.8Z"/><path fill="#382739" d="m1100.7 51.7-.3 5.6a11.9 11.9 0 0 1 .3-5.6ZM968.8 92.9c-.2.1-7.4-.2-3.8.9-.1-.5 3.5-.7 3.8-.9ZM698.7 202.6c1.2 2.2 5.4 2.6 7.1 4.5 0 .6-.1 4.5.6 4.8 7.7 6.5 12.8 3.8 15.6-4.9 4.7-.6 8.6-2.9 10.6-7.5s-8.1 4.7-7.5 2.1c.3-9.3 5.3-9.1 12.5-6.3 1.4.5 6.7 3.7 6.4 2.1-7.2-12.8-6.3-8.5 8-8.6-3-3.5-11.7-5.9-13.7-12.1 4-6.5 17.9 4.8 14.9-8.9 0-2.5-3.3-5.7-1.5-7.5 9.1-5 19.7-2.7 27.2 2 4.6-5.7 3.7-3.4 9.5-1.1 1.9 1.5 4.9-9.2 5.7-9.9s3.5-2 4.5-2.6-1.2-6.1 3.6-5.9c2.1.3 5-.7 7 0 .9 6.2 1.8 15.1 6.6 18.4l3.9-7.1c1-2.2 3.9 1.1 5.1 1.5s1.1.3 1.2-.5 2.2-6 0-6.6-8-2.2-7.2-4c5.4-19.9 20.2-11.2 11.7-19.6-.7-2.3 9 .5 9.2-2.1l3.9-11.7c.5-1.5-4.1.1-4.9.2a21.5 21.5 0 0 0-10.3 7.9c-.6-.5-4.2-1.2-6.4-3.1l7.3-8.4c.7-.8.5-1-.5-.7-4.8.9-10.5 5.1-15.3 5.4l-.9-4.6c-7.3 4.9-13.3 12.1-19.1 18.2-9.8-5.7-17.7 4.3-25.3 8.4-4.2 3.1-10.2 3.2-15 5.4a32.3 32.3 0 0 1-11.7 9c-7 3.4-13.7 5.4-20 9.9-1.8.2-2.2-3.6-4.1-3.8.3 1.4.5 5.1.6 6.6-4.4 7.8-12.4 9.9-17.9 16.2 2.4 2.4 3.2 7.5 5.9 9.8 1.4.2 6.9.1 8.4.1s.5 7.2.7 7.4c-1.6 1.5-4.9 1.3-9.5 3-.5.2-.8 0-.9-.4s-5.3 5.5-6 5m26.7-18.8c5.6 6-4.4 10.3-9.2 10.4-.8 0-1-.3-.7-1 1.7-4.3 4-11 9.9-9.4Zm-368.7-54.4c.1-2.5 2.8-6.1-.3-7.3-1.9.6-3.3 2.5-5.8 2.8-.5.2-4.4-1.7-4.9-1.9s-35.2.6-36 1c-22.2 3.9-45.8 5.3-65.5 16-.8.7-2.6-4.6-3-4.9s-3.1-1.2-3.6-1.5-.8 1.1-1 1.4 4.9.8 5.1 2.1 1.8 3.4.8 3.8c-5.4 2.7-11.2 5.4-17.3 8-10.5 4.5-18 13.8-29.5 15.8-28.4 15-48.9 31-72.3 49-4.8 5-14.9 5-15.5 13.3a454.2 454.2 0 0 0 38-17.8c2.5-.9-2.5 5-3.4 5.7-2.6 2.7-6.1 4.5-9.3 6.2a.6.6 0 0 0-.2.9c6.9 7.3 16.7 12.5 26.8 10.4 6.3-.3 11.1-.2 15.1-6.2 2.2-2.6 7.1 1.4 9.4-1 .7-1 2.4-6.9 4-6.7 10.4-.1 7.3.5 11.7-8.2 1.8-2.2 6.8.6 8.7-1.6 2.9-5.4 8.1-12.2 10.1-17.1s3-3.8 8-4.1c1.9-.2-.2-5.6 1.6-5.8s4.4.2 4.9-.6l7.8-12.3a.6.6 0 0 0-.5-.9c-.4-.1-6.6.5-6.6-.3l-5.5-8.4c-1.1-1.6 8.8-.6 9-1a89 89 0 0 1 35.5-16.4c11.6-2.2 43-15.3 51.9-7.6 2.8.7-3.5 5.9 2.6 10.5 6.3 6.1 10.4 2.6 5.9 9.6 1.6 6.7 4.6 14.5 2 21.3-3.7 2.9-20.8 16.7-10.7 19.3 9.4 8.1 9.6 6.7.1 11.7 2.5 4.1 9.2 6.6 13.2 10.3.8 3-3.2 6.5-4.5 9.2-6 7.9-12.4 15.9-15 25.9-2 5.1-7 17.5-12.3 18.6-10.6-3.4-20.3.6-30.6 3.8a88.8 88.8 0 0 0-17.6 8.5c-6.1.3-13.4 1.4-18.3 5.1-12.2 6-11.3 9.3-16-3.5l-2.8-1.1c4.2 13.6.4 7.6-5.4 16-3.5 9.2-.3 10.7-7.8 5.2-1.4-1.7-3.1 8.6-3.6 9-11.8 1.5-18.7 5.4-30.9 11.8-.7.2-1.3 3.4-1.6 3.9s-10.9-2.8-12.3-1.9l-1.8 8.8c-2.4 3.1-7.7 2.9-11.1 4.8-.2.3-2 3.3-2.5 3.2-6.6 1.9-14.3 4.8-17.6 10.4l3.2 4.9c13-5.5 26.3-9.1 37.9-17.2 12.3-6.5 25.1-12 35.7-21.2 7.9-4.2 17.1-6.5 24.5-11.4s17.3-6.3 24.4-11.4c5.1-3.5 9.9-7.3 15.1-9.6l8.5-.2c.6.2 2.7-3.7 3-4 6.2-1.8 13.1-2.5 19.3-4.5a216.2 216.2 0 0 1 30.9-8.2 47.2 47.2 0 0 0 19.1-3.3c7.8 3.2 5 2.2 6.1 10.1.5-.3 3.4-.8 3.6-1.4s9-16.2 7.8-16.4l-2.4-2.5c-.1-.1-.2-.3-.1-.4l5.6-11.1c1.3-1.6-5.1-5.8-3.9-7l10-1.8a32.6 32.6 0 0 0 1.8-22.6c-6-20.7 6.1-19-13.7-37.3-.4-.4-.4-.7.1-1.1 22.4-13.5 5.2-2.7.5-37.8-1.9-1.6-5.1-2.1-7.5-2.8s1.1-6.2.9-7m-28 57.1c-1.1-.2 6.1-7.7 6-8a.9.9 0 0 1 1.1-.2c3 1.8 7.1 4.8 7.4 7.9-4.8 1-9.8 2.6-14.5.3Zm552.1-13.8a1.4 1.4 0 0 0 1.3.8c.6-.2-.7-1.2-1.3-.8ZM677 219.3l-.2 7.1.2-7.1Zm-569.3 8.2c-2.2-7.9-5.9 5-17 7.7-.2-.6-6.9 9.3-7.1 9.4l-4.2.8c-5.4 4.8-5.4 7.4-13 9.5-2.4 8.6-11.7 11-17.2 16.4-.7 1.1-1 2.6-2 3.5l-9.8 5.3a23.7 23.7 0 0 1-8.5 13.6c-3.9 5.8-7.4 12.4-11.2 18.2s-1.9 7.1-7.5 10.3c-.7.1.1 6.5-.1 6.9-2.3 3-6.4 4.7-9.7 6.7-.6.3-.5.5.2.5s5.1-.4 5.3.7l2.5 8.4c-.1.8 4.9.8 5.3 1 1.4 2.2 1.5 5.3 4.4 6.4 5.6 3.6 7.8-1.1 6.2 7.2-.1.4.1.5.4.3s5.7-4.5 5.9-3.5a22.5 22.5 0 0 0 10.6 10.5c1 .1.2-3.6.8-4.5s-.2 3 1 3a29.1 29.1 0 0 1 12.2 2.1c16.5-9.1-2.8.8-17.6-19.3-29.6-21-6.9-53.5 14.8-69.9 8.2-6.3 16-12 23.3-18.8 4.6-3.7 10.1-7.6 15.8-5.5a.7.7 0 0 0 1-.7c-2.3-11.9-2.7-7.3 6.8-6.9a61.6 61.6 0 0 1 8.4-19.3Zm373.2-.8c.3.2.2.7-.2 1.2s2.3-1.3.2-1.2Zm348.9 3.5c-.3.1-8 .3-7.9 1.1l-5.2 11a1 1 0 0 1-.4.5l-6.7 3.4c.3 0 6.7 1.6 6.7 1.2 9-5.6 4.8-16.5 11.7-11.6a11.1 11.1 0 0 1 3 .5 2.5 2.5 0 0 0-.9-.7c-.4-.2-.2-5-.3-5.4Zm-594 23.4H224a22.5 22.5 0 0 0 11.8 0Zm22.2 8.1c.3.5 1.7.2 2.3.2a3.6 3.6 0 0 0-2.3-.2Zm229 67c.1.9 1.8.7 2.7.1a5.2 5.2 0 0 1-2.2-.1Zm-385.2 40c-.4-10.1-11.1-2.4-16.6-2.9-7.1-.6-13.2-6-20.4-4.4-1.3.1 6.9 6.5 6.9 6.7a.4.4 0 0 1-.2.7 36.7 36.7 0 0 0-7.8 3.2l22.2 1.6a52.4 52.4 0 0 1 15.9-4.9Zm517.4 88.8-.4 4.2a6.7 6.7 0 0 0 .4-4.2ZM388.8 631c8.8-11.2 7.2-7.8-4.6-12.8-3.6-1.2-6.8-4-7.7-7.7a1.3 1.3 0 0 0-1.6-.8c-6.8 1.6-14.6-.3-21.3-1.4l-19.9-16.6a.5.5 0 0 1-.1-.7c5.2-10.4 2.8-6.8 12.5-.4 1.4-1.1.2-5 .2-6.8s5.3-4.1 5.6-4.5c-2.1-4-9.5-6.3-13.6-9.3-.5-.6-4.4 2.4-4.8 2.5-1.3 1.8 6.1 9.5 4.1 10.3-5.7.4-10.4-5-12.8-9.9a.8.8 0 0 0-1.1-.3c-5.3 2.4-7.2 8.4-8.6 12.9-6.6-7.6-8.7-6.9-7.2-17.3a.7.7 0 0 0-.9-.6c-6.1 1.7-11.8 7.4-18.1 3.8s-11.2 10.9-8.4 9.7c6.9-4.7 5.6-3.6 10.6 2-2.5 3.7-10.4 4.4-15.1 5.7l9 8.1c.8 1.7-6.4-.7-8.1-.1s3.1 6.9 3 7.1c5.4 1.2 6.6 5.7 9.7 10 7.8 2.9 7.8 8.3 17.2 7.3 1.2.5-3.5 7.5-3.9 8.6 9.2 9.6 21.8-1.3 29.3 7.5 2.6-5.4 9.5-3.9 14.9-4.3.5-.1 8-7.2 8.5-6.2l4.6 3.7c2.9-2.7 2.4-9.6 2.5-13.6a.4.4 0 0 1 .5-.4l9.6 1.2c1.9.7-3.9 3-4.9 3.9a1.1 1.1 0 0 0-.6 1.5 1.7 1.7 0 0 1 .1.7l1.4 12.2a52.4 52.4 0 0 1 17.9-2.8c.6.1 1.7-1.9 2.1-2.2m-90.5-34c-2.5 2.7-3 8.8-7.3 9.7-4.9-2.8-2.8-10.3-1.1-14.3 5.9-.4 11-1.8 14.5 3.2.7.6-6.1 1.2-6.1 1.4Z"/><path fill="#d4c5d4" d="M960.1 25.5c-.8 2.8-4.5 5.6-6.3 1.6-.2-1 1.1-1.6 1.4-2.4s5.5-1.8 4.9.8Zm117.3 28.8-.8-3.3c3-3.2 8-4.8 10.9-5.9 14.3-4.2 23.3-8 36.2-12.3-.1-.1 1.1-4.2.8-4.1-16.8 5.1-34 9.8-51.1 12.9-.4-.3-5.7 5-6 5.1 1.3 1 5.1-.2 6.3 1.8s-.3 5.8 1.4 6.7ZM936.2 35.1c-1.2-2.7-7.2.1-5.9 2.8s7.2-.1 5.9-2.8Zm196.7 26.6c7.3-2.7 22.1-4.8 24.1-12.4-9.4 1.4-17.6 6.2-27.1 7.6-.5-.2-4.2-3.3-4.7-3.1-27.7 2.7-18.3 2.2-2-10.2-3.4-1.4-9.6.7-13.8.6s-9.2-2.3-8.3 2.9c.2 1.4-2.2 12.4.8 11.2 5.1-1.9 5.2-2.6 7.2 3 1.1 1.2 4.1-4.4 5.4-4.9 5.9-.2 12.2 3.5 18.4 5.3ZM997.8 50.6c2 2.4 6.8-1.8 4.6-4.1s-6.8 1.7-4.6 4.1Zm-69-4.6c-9.8 3.8-8.3.4-9 11.2 1.5.4 3.5-.8 5-.6a15 15 0 0 0 4-10.6Zm79.9 0a10.2 10.2 0 0 0-.2 4.2l4.8-1.5-4.6-2.7Zm-28.2 44.8c2.6 1.6 5.9-4.2 3.3-5.7s-5.9 4.2-3.3 5.7Zm-154.7 3.9c-4.3.4-14.7 1.9-14.8 8 5.7 7.2 1.7-.1 17.9-2.2-7.4-.8-7.5.9-3.1-5.8Zm134.6 3.6c-4-3.6-4.5 6.2-.5 3.9.5-1.2 1.8-2.6.5-3.9ZM942 111.7c-3.2-.3-3.8 5.6-4.8 7.4s4.2 2.6 4.4 2.9.1-10.2.4-10.3Zm-610.7 5.2c-5.9-2.9-12.2-4.5-19-2.9s-17.5 1.3-25.8 2.1c.2.2-1.4 4.7-.7 4.6 10.6-.5 21 .2 31.4-1.7a9.6 9.6 0 0 1 7.6 2c.5.5-15 2.8-15.1 3s35.4.2 36-1-14.2-5.9-14.4-6.1Zm62.8 8.4c-.7.5-.2 1.7.1 2.3 2.2 2.5 4.9-4.9-.1-2.3Zm-179.4 15.2c.4-.1.6.1.5.5-.8 3-3.5 3.8-6.4 4.3.1.1.2 2.7.5 2.6l8.8-.8c.8-2.5-.2-6.2.4-9.3.5-.5-6.8-3.1-6.9-3.3s-2.7 7.1-2.9 7.3 5.9-1.4 6-1.3Zm756.3-1.3c1.3-1.9.1-2.8-1.8-2.1s-.4 5.3 1.8 2.1Zm-4.9 10.2c-.9-8.4-9.6-3.8-5.6 1.4 1.2 1.5 3 1.6 5.3.1l.3-1.5Zm-42.8 3.9c-.7-.9-1.9-1.8-2.9-.8s-1.9 1.9-.9 3 1.9 1.8 2.9.8 2-1.9.9-3ZM158 166.7a21.3 21.3 0 0 1 17.2-6.7c-.3-.1 4.8-7.4 3.3-7-16.4 1.9-38.3 15.7-52.4 25.5-.6.1 3.7 2.5 3.6 2.2 8.8-5.6 19.9-8.1 28.3-14Zm794.1 8.2c-.3-.2-5.4 10.1-5.6 10.2.2 2.2 10.5-6.9 11.2-8.8.3-.4-5.5-1.3-5.6-1.4Zm-100 12.3c-16.3 4.7-13.5-1.5-13.5 14.4 5.8-3.7 9.7-8.6 13.5-14.4Zm-167.8 1.9c-3 .9-5.5 4.3-8.1 5.5-.3 1.6-4.3 4.6-3 4.7l14.4-3.6c1.8-.3-3.3-6-3.3-6.6Zm-206.9 9.7c-1.7.4-6.5-2.5-5.7-.3 1.3 4.2 4.5 8 5.9 12.2.1.7-1.7 5.5-.6 5.7s4.9 1.1 4.8 2.3-5.7 2.3-5.7 3l-1.2 3.4c-.6.6 5.9 1.4 6 1.6 2.1-.1.5.6-.2 1.2-2.6 2.7-7.3 1.7-10.3 3.5-.3.5-2.6 6-3.3 6.1s-5.1 0-5.6 2.7c-.2.9-1 2.1.5 2s6-.8 5.6.9-1.6 5.5-.4 5.7c13.7 5.7 9.1 2.4 6.3 16.4.2 2.1 3.8 1.4 5.5 1.9 2.4 2.9 2.2 6.8 5.9 10.1.8 1.2 3.2 1.4 3.4 2.9s-4.2 4.9-2.9 5.7a62 62 0 0 0 18.5-2.8l-9.6-24.8c-.7-.8 7.4-.3 7.5-.5-6.4-5.2-10.7-6-8.7-17.5-2-4.5-8.5-8.1-7-13.8 0-.3.2-.3.4-.1 6.8 7.5 3 2.6 9.8-5.1.2-.3.1-.4-.2-.3-2.4.6-6.4 1.9-9.1.7-1.6-8.1-6.7-14.9-9.6-22.8m3.5 43.8c-2.4-1.9-4.8-8-1-8.4s6.8 11.4 1 8.4ZM890 205.3c0-4.4-5.8-6.1-6.5-.4Zm-212.9-1.2c-6 4.1-3.4 7.9 3 4.8a11.6 11.6 0 0 0-3-4.8Zm-599.5 5.7c.2-.2.2-.3-.2-.3s-11.1-.3-10.8.3c-1.2 2.3-4.3 5.7-3.3 7.9 5.3-2.1 9.6-3.9 14.3-7.9Zm744.6.2q.3-.6-.3-.3c-5.4 3-12.3 7.3-15.8 11.7 14.6 3.4 11.6-.6 16.1-11.4Zm96.6 20.6c-.2-.3-6.3-1.4-5.8-2.1l2.2-11.3c-4.3-.5-10.6 4-11.9 8.7l-7 7.9 5.6-.2c1.5-.2.6 4.1.8 4.8 4.7-4.1 10-5.9 16.1-7.8Zm-348 51.9c-1.6 2.2-5.5 2.4-8.1 3.9s-6.8 3.9-6.5 6.1c6.3-1.5 10.2-7.2 16-9.8 3.2-5.7 7.5-9 13.9-10.1 2.3-.8 6.5-3 5.8-5.3l-8.5-.5c-12.3 18-13.7 3.5-12.6 15.7Zm-17.4 21.4c3.6 2.6 8.2-3.9 4.6-6.4s-8.2 3.9-4.6 6.4ZM730 366.7c3.6 1 5.8-7.9 2.2-8.7s-5.9 7.9-2.2 8.7Zm-21.8 2.5c3.5-2.6-1.2-6.8-4.2-7.2-1.8 5-1.7 6.1 4.2 7.2Zm-421.5 88.2a73.5 73.5 0 0 0-1.4 12c8.7 1.4 7.8-11.9 9-18.3-3.3-1-7 2.9-7.6 6.3Zm-6.8 52.9c-3.6-1.6-9.8 5.9-5.7 8.8 3.5-.5 5.9-5.6 5.7-8.8Zm-16.7 17.4c-.2.1-.3 10.9-1.1 10.1s-5.6-2.6-5.1-1.6l1.5 8.3 2.6 6.2c.4-.7 1.5-6.8 2.3-7.1s4-3.2 3.8-2.2l-3.4 9.3c-.4.5 3.2 3.8 3.4 4.2l.7.2 3.3-10.4c-.3-.4 5.8-3.3 5.9-3.5-2.8-4.9-10-8.6-13.9-13.5Zm160.3 83.7c9.5 3.4 17-5.8 26.2-8a44 44 0 0 0 21.3-14.7c-16 4.1-31.2 16.8-47.5 22.7Zm27-2.6-13.5 7.1c9.1 5.4 10.5 1.5 13.5-7.1Z"/><path fill="#603267" d="M991.1 42.3c.9 2.5.1 10.3 1.9 11 10.2.9 19.3-7.1 29.7-4.1.4.3 2 2.7 2.6 2.6l10.1-.9c.9.9 3.5 2 3.1 3.6l-1 5.9c-10.5-.5-27.7 2.5-28.6 15.4l-6.1-.5c-2-.4 2.2 3.1 2.3 3.4-.1 8.3 2.1 7.2-6.6 6.9-1.6-.4-5.6 6.2-6.5 7.1-3.9-3.1-6-10.9-11.5-13.2s-8.8.6-13.6 3.7c-1.5 1.3-5.8 1.1-4.9 3.4-.4-.2-.9-1-1.3-.7l-5.6 2.5c-1 .2-1 6.2-1.3 6.8s.5.7.7.4c5.2 17.7-3 12-14.9 17.1-2.3-.5-5.4-1.7-6.7.1-5.4 8.7-3.8 3.6-9.5 8.2-.4-2-7.4 1.9-9.3 2-4 2.5-5.1 8.2-7.8 11.8-6.4 3.7-15.4 5.6-19.5 12.9-.7-.6-7.3 2.3-8.1 2.4-2.1-7.5-12.1 1.1-25.6-7.8-2.3.4 1.7 8.2-1.3 7.3s-3.6-3.1-4.5-6.4c-1.2-.8-3.6 1.5-5.1 1.4a1.3 1.3 0 0 0-.9 1.7c3.7 10 2.6 7.3-6.8 9-7 .8-10.4 16.4-14.2 22s-9.5.9-13.8 3.9c-18.8 16.5 0 20.4-26.6 17.1-5.8 11.8-19.3 14.8-28.5 22.7-2.2 0-1.8-6.9-4.2-6.1-6.7 5.2-11.4 4.7-1.1 6.3 1.9 2.7-.6 8-1 11.5-18.7 4.7-13.3 9.5-26.9-5.3-2.1-.5-3.4 6.1-4.7 7.9-3.2 5.8.1 9.4.9 14.2l-1.1 3.3c-.1.4-.3.4-.5 0l-3.5-5.6c-1.3 0-2.2 2.7-3.6 3.4s4.4 4.3 3.4 6c-6.3 4.3-21.3 5.4-24.7-3.4-.4-.9-.9-2.2-2.1-1.5-10.2 7.1-17.7 18.7-29.3 23.5s-22.9 10.2-27.5 21.9c-.4 2.6 10.8 1.1 11.4 3.2-7.9 7.8-6.1 15-7.2 25.1 1.5 2 10.1-2.5 11-5.2 3.2-5.4 8.3-9.5 14.1-12.7 1.6-.8 0 6.7.3 7-2.2 2.4-7.3.4-9.4 3.3-5.4 7.3-9.4 16-15.3 21.9a32.4 32.4 0 0 0 .4-9.4c-2.9-2.4-7.4-3.9-10.4-6.6 1.5-8.7-13.2-7.9-19.1-7.6-4.4.3 2.2 3.7.8 4.8l-9.7 1.2c-.2.1-.5.3-.5.6s-1 3.8-.1 4c3 1.3 4.9 1.8 5.8 5.2.3 1.9 14.5-8 14-5v11.9c-6 4.4-15.4 5.1-22.2 6.8-1.3.6 5 5 3 5.6-6.5 1.2-12.7 5.1-18.6 8-10.7 3.5-23.9 6.6-34.5 11.8-.4.1-.4.5-.1.7l4.6 3.1c1 1.6-6.7.5-5.7 2.7 9.5 6.2 8.6 5.2 4.7 15.7-5.3 5-13.8-2.8-18.8-5.9 25 .6 6.1 9.2 13.8-21.8.2-3.5-4 1.8-5.4 2.5s-5.2 2.2-6.9 4.4-2.2 5.1-5.1 5.3a1.2 1.2 0 0 0-.9 1.2c.3 16.2-8.4 16 4.1 13.7-2.6 5.2-8.8 4.7-13.7 7.6-1.9 1.1-3.3.2-5.1-.1s-5.7-.6-7-2.2a21.3 21.3 0 0 1 1.4-3.7c1.4-1.9-1.1-3.7-.4-5.2 9.9-4.7-.3-6.4 6.4-13.1a1 1 0 0 0-.6-1.6c-2.8-1 .5-4.9-.2-7 7.1-12.8-4.6-24.8 5.2-36.7.9-3.8-2.6-8.3-3.1-11.6-4.8-.5-12.7 11.3-19 9.7 4.3-1.1-7.6-10-5.8-10.6 4.2-7.5 13.1-5.2 20-4.2.7 0 1.5-2.6 1.8-3-2.4-4.4-6.5-8.6-8.4-14 .2-.8-4.9-3.5-5.3-4s5-.9 5.6-1.8c14.7-1 16.8 15.1 17.5 26.7.1.6 3.7-2 3.2-2.4 1.5-.8 2.2-3.4 3.8-4.3 3.5-1.3 4-4.2 5.3-7.3-.2-.8 7.7-1.5 8.1-1.7 8.2-9.1 24-22.1 31.4-27.9s13.1-12.6 20.1-17.8 16.8-12.2 23.7-16.9c-.1 1.2.9 2.3.8 3.4-.8 10.5-9.6 14.8-17.4 19.5 4.8 7.8 1.5 5.9 11.7-.1.1 1-1.8 1-.2 1.5 3.4.3 7.5 2.9 10.9 1.8 6.1-5 12.3-10.1 15.3-17.8a.5.5 0 0 1 .8-.2c.8.8 2 3.9 3.5 2.7 4.3-3.2 8.8-7.5 14.3-9 5.2-7.8 9.3-18.1 20.2-18.7l3.8 7.6c.5 1.1 3.2-1.3 3.8-1.4s.7-7.8 1-9.5l.7-6.5c.4 1.5-.5 5.1 1.2 2.9 4-3.1 1-8.7-1.8-11.6-4.3-2.6-8.7-.3-12.8-.2-.2-.7-4.9-3.8-2.5-4.4l14.4-4.9c-.3 1.6-4.3 4.6-3 4.7l14.4-3.6c1.8-.3-3.3-6-3.3-6.6-.9-2.3 10.4-3.8 12.7-5.2.4 0 2.8-5.9 3.1-6.2 1.6 2.4 4.6 6.5 3.8 9.6l-5.9 4c-1.5.3 1 10.5.7 11.3s5.4 2.6 7.1 4.5c0 .6-.1 4.5.6 4.8 7.7 6.5 12.8 3.8 15.6-4.9 4.7-.6 8.6-2.9 10.6-7.5.5-.9.3-1.1-.6-.7-4.7 1.4-8.3 7.4-6.2-1.4s13.2-1 17.8.5c.5.2.7.1.4-.5-5.5-10.9-8-8.9 5.1-8.9 11.1 2.4-13.6-7.5-10.4-12.7 5.9-3.9 17.2 4.3 14.5-8 0-2.5-3.3-5.7-1.5-7.5a25.2 25.2 0 0 1 26.6 2.1c1.4.3 3.3-4.6 4.9-3.7 9.1 4.7 5.5 2.9 10.9-7.4.5-1.2 3.5-2 4.5-2.6s-.3-4.4 1.3-5.4a29.3 29.3 0 0 1 9.3-.5c.9 6.2 1.8 15.1 6.6 18.4l3.9-7.1c1-2.2 3.9 1.1 5.1 1.5s1.1.3 1.2-.5 2.2-6 0-6.6-8-2.1-7.2-4c5.3-19.8 20.2-11.2 11.7-19.6-.7-2.3 9 .5 9.2-2.1l3.9-11.7c.6-1.6-4.2.1-4.9.2a21.5 21.5 0 0 0-10.3 7.9c-.6-.5-4.2-1.2-6.4-3.1l7.3-8.4c.7-.8.5-1-.5-.7-4.8.9-10.5 5.1-15.3 5.4l-.9-4.6c.5-.5 1.4-1.1 1.3-1.9a.7.7 0 0 0 1 0c3.9-4 9.3-4.1 14-5.4-.2-.3-6.9 0-6.2-1.1a50.1 50.1 0 0 1 7.7-9.5c1-.7-.6 7.4.5 6.8 4.6-1.5 11.4-3.1 15.1-6.4l.2-2.7c4 .7 11.5 2.4 11.8-3.3-.1-3.5-2.6-5.2-5.4-3.9-.4.1-.5.1-.2-.3s12.6-11 10.4-6.6c-2.1.8-4.1 2.7-3.5 5 3.3 4.5 7.7-.9 10.2-3.2 1.1-.8.9 3.8 1.1 4.1s.9 1.3.2 1.8c-3.2 1.1-6.8.9-10 1.6-3.8 3.2 8.8 1 10.2.7a86 86 0 0 0 21.2-10.1c2.1-1.2 3-5.1 4.7-7.1-2.7-1.7-6.4.2-7.8 3-.2.4-.3.4-.3-.1l.2-5.8c.1-.3.2-.5.6-.4 4.2 1.3 9.2 2.3 13.2 4.6l1.3 8.6c0 .4.2.4.4.1 7.3-15 2.6-5.6 16.2-12.3.8-.9 2.5 7.2 2.8 7.3 7.5-6.6 18.3-12.2 28.8-7.9 1.4-.4-.1-3.2.6-4.4 0 1.5.6.7.5-.3.5.7.8 5.8 2.5 4.9s10.6-3.4 10.1-4.8c9.2 0 14.2-16.4 24.5-14.1.8.2.4-2.1.6-2.4m19.6 13.6c.2-.3 0-.5-.4-.4-3.9 1-8.8 2-12.6 4.4.1.5-3.4 5.5-2.3 5.7 9.8 6.9 12.3-1.1 15.3-9.7m-72.4 40.5c-.9-3.6-8.7-1.6-7.7 2s8.7 1.6 7.7-2m13.8 9.3c.2-3.8-4.3-1.7-5.4.5-.7 4.1 4.7 2.9 5.4-.5M570.3 283.3c-4.4 2.1-13.4 4.2-14.1 9.2 6.3-1.5 10.2-7.2 16-9.8 3.2-5.7 7.5-9 13.9-10.1 2.3-.8 6.5-3 5.8-5.3l-8.5-.5c-4.7 4.9-5.4 9.4-13 10.5-.1.7 1 5.8-.1 6m-1.5 9.9c-5.2.1-5.8-1.9-6.2 4.4-.1.7.2.9.9.7 4.3 0 5.9-3.9 9-6.6 1.3-.8 5.5-8.2 3.1-6.1-.5.4-6 8.1-6.8 7.6m-19.6 5.1c0-1.5-1.7-1.4-2.7-1.3s-1.4 1.6-1.3 2.7 1.7 1.3 2.7 1.3 1.4-1.7 1.3-2.7m4.2 5.6c3.6 2.6 8.2-3.9 4.6-6.4s-8.2 3.9-4.6 6.4Zm415.4-211c-.3.2-3.9.3-3.8.9 11.7 10.5 12.5 4.4 8.1 19.6l11.7-8.6c-4.3-6.1-8.9-10.6-16-11.9Zm2.8 21.6c-.6-.8 1.1-2.8-.4-2.9s-12.5.5-12.1 1.5.9 6-.5 6.6c-7.3 4.1-14.6 8.5-22 13.1-2 1.1-.6 3.7-1.8 5.1 12.5-7.1 25.4-14.3 36.8-23.4Zm-597.8 12.1c-4.2-10.9-32-10.7-42.5-9.7.2.2 14.7 6.1 14.4 6.1s4.4 2.1 4.9 1.9c2.5-.3 3.9-2.2 5.8-2.8 3.1 1.2.4 4.8.3 7.3ZM223.7 284.5c4.7 12.8 3.8 9.5 16 3.5a35 35 0 0 1 18.3-5.1c14.7-8 31.5-16.5 48.2-12.3a2.1 2.1 0 0 0 2.5-1.1c10-11.6 11.3-28.3 21.9-39.6 12.7-16.1 6.9-11.9-5.9-22.8-1-.5 7-4 7.1-4.3-.5-3.8-6-7.3-9.6-9.1-4.8-3.7 11.4-16.2 13.8-19.1a39.1 39.1 0 0 0-2.6-19.5c-.3-.7 1.9-4 2.1-4.6-1.6-2.4-6-3.4-8-5.8-6.1-4.8.1-9.4-2.6-10.5-8.9-7.7-40.3 5.4-51.9 7.6a89 89 0 0 0-35.5 16.4c-.1.3-10.2-.5-9 1l5.5 8.4c-.1.7 6.3.2 6.6.3a.6.6 0 0 1 .5.9c-.2.3-8.2 13.5-8.7 12.8-5.7-.1-4.6-.3-4.9 5.1.1 1.5-5.6.5-6.3.8s-1.5 2.9-2.4 4.1c-1.9 4.7-6.9 11.1-9.6 16.5 7.8-5.1 15.3-4.2 23.2-.7 5-3.2 5.7-3.3 4.7-9.3-.7-2.9 4.3 1.2 5.1 1.2s6-7.9 6.4-8a1.4 1.4 0 0 0-.2-1.7c-4.3-4.3-9.1-2.2-2.7-8.4 1.6-1.9-1.2-4.8.5-6.6 7.5-5.7 7-3.5 7-12.8 1.2-5.1 7.6-6.1 11-8.5 1.6-1.2 2.8 3.9 3.4 4.5s2.6-2.3 3.9-1.3 8.5 5.1 7.5 2.6l-3-5.5c1-2.7 5.7-4.4 8.3-5.8s5.5.5 7.7 1c1.6-10.3-.2-7.1 9.9-7.4 3.4 1 10.1-2.9 11.8-.7s1.6 2.7-.2 2.9-8.4.8-8.2 1.9-1 8.7.3 7.4l.4-.2 7.6-1.6c1.7-.4 1.3 1.9 1.5 2.9s-5.8.7-6.7 1 1.1 4 2 4.6c12.2 6.5 8.6 1.9 9.1 16.5-4.2 2.8-14.1 1.8-12.1 9.8 0 1.6 1.6 3.4 1.4 5.1a79.7 79.7 0 0 0-7.3 13c-1.1 3-5.6 1.7-7 4.7.4.7 6.1 4.2 5.3 5.4l-6 18.4q-.4 1.1.6.6c.9-.2 6.2-3.6 6.8-2 4.4 6.4 4 21.2-1.4 26.1-4.1-.4-8.3.1-12.3-.7a.9.9 0 0 0-.9.6c-.4.7-.5 5.2-2 5.1a24.3 24.3 0 0 0-8.9 3.7c-1.2.4-.4-1.9-1.7-1.9s-4.8 2-7.2 1.6a14.1 14.1 0 0 0-8.8-3.9c-2-.1-3.1 1.7-4.8 1.2l-6-2.4c-1.4.2.7 6.4-1.1 6.6s-9.9-8.1-11-5.6c.1.3-7 8.3-5.7 8.4 7.4 4 12.4 1.4 1.5 6.5-1.2.2-.7 7.6-1 8.4s-5.4-.5-6.2-.3Zm790.6-135.4c-2.8-3.8-6.9-.2-3.4 3.3 1.9-.2 2-1.7 3.4-3.3Zm-5 3.6c-4.5.4-22.4 3.8-23.9 7.3a142.5 142.5 0 0 0-1.5 14.5c3.5-1.9 8.6-5.3 9.6-8.3l-6.2 1.5c-.8.2 0-1.8-.1-2.1s.2-.4.5-.4l3.4.2c1.9-1.4 2.7-4.5 5.3-5.3s6.7-1.9 10.2-3.5l2.7-3.9Zm-131.9 31.8c4.3-3.9 11.1-6.7 13.5-12.3-.2.2-10.8-.5-10.1.5s1.9.6 1.3.8 5.1 1.9 3.2 2.3-6.7 2-10.1 2.5c-1 .4.4 1 1 1s-3.5 3.9-3.5 4.3c-1.9 1.7 3.7-.3 4.7.9Zm-548.7 2c4.7 2.3 9.7.7 14.5-.3-.3-3.1-4.4-6.1-7.4-7.9-.9-1.1-6.6 7.4-7.2 7.6s-.1.5.1.6ZM860 202.4c-5.1-10-13.7-1.1-3.4 3.9l3.4-3.9Zm-190.2 9.1c.8-.7-11.7-7.7-11-5.8 3 7.3 2.9 7.5 11 5.8Zm-461.1-2.8c.9.4 10.2-.6 9.7 1.4s.4 12-1.8 11.1c-9-5.2-8.2-8.9-7.7 1.9.1 2.1-2.3.9-3.3 2.1s-3.1.1-2.1.4c3.9-.1 8.5-.1 12 1.7s10 8 11.9 12.8l-4.8 5.8c-1.1 1.1.9 2.7 1.4 3.6s6.7-.8 7.7-.6-1.8-3.7-1.9-4.3 5.9-6.4 6.3-7.1c2.3-1.3 6.7 3.7 8.9 5.1 7.6-5.8 5.3-10.8 10.5 2.7 1.5 6.3 1 6.9 6.3 11.3.2.2.1.5-.2.6-2.5.4-5.2 1.2-7.7 1.8-5.5-1.1-10.6-7.3-16.2-6.2-1 1.4-12.2.7-13.7.9l-5.8-1.4c1.1 4.7 6.2 9.5 10.2 12.9.3.3.3.5-.1.6-3.6 1.7-9.4.2-12.3 2.9l2.6 13.1c0 .8 1.9 1.2 2.3 1.6 4.2 13.6.4 7.6-5.4 16-3.5 9.2-.3 10.7-7.8 5.2-1.4-1.7-3.1 8.6-3.6 9-11.8 1.5-18.7 5.4-30.9 11.8-.7.2-1.3 3.4-1.6 3.9s-10.9-2.8-12.3-1.9l-1.8 8.8c-2.4 3.1-7.7 2.9-11.1 4.8-.2.3-2 3.3-2.5 3.2-6.6 1.9-14.3 4.8-17.6 10.4l3.2 4.9c-5.1 3-9.2 4.8-12.2 5.4s-11.6-.1-15.5 3.8c-.4-10.1-11.1-2.4-16.6-2.9-7.1-.6-13.2-6-20.4-4.4-1.3.1 6.9 6.5 6.9 6.7a.4.4 0 0 1-.2.7 36.7 36.7 0 0 0-7.8 3.2l-8.5-4.1c14.6-7.7.3-3-7.4-9.7 5.4-1.2 9.7.7 14.6.9a1 1 0 0 0 .7-.9c-1.3-8.2 7.2-11.2 14-12.4 3.2.7 4.5 5.6 6.7 7.9 2.6-1 4.8-4.6 7.5-6.2.7-.7 7.1 2.4 7.6 1.4s1-5-.4-5.8c-16.3-13.6-18.2-7.8-7.5-18.8a.9.9 0 0 1 1.5.2c4.2 7.9 8.5 16 16.1 21 1.5 1-9.9 9-7.2 10.6 4.5-.5 8.8-2.1 13.5-3.2 1.3-.7.1-2.2-.1-3.2 0-6.4-5.7-6.2-8-10.8a28 28 0 0 1-2.7-11.7c-3.3-2.9-10.1-4.6-11.6-8.7 6.5-1.5 13.7-1 20.2-1.1l3.9-5c.6-1.2 3.4 1.9 4 2 2.4 1.5-1.3-5.1-.3-5.6s5.1-4.7 3-4.7c-17.4-1.6-29.5-3.2-25.8-24.3-4.5-.2-10.7.6-15.7.1l-.6-.7c1.2-2.5 7.4-1.3 3.5-3.9s-9.4-5.1-13.7-4.5c0 .4 5.1 9.1 3.9 9.2-10.8 6.9-13 3.5-6.5 11.5-4 2.1-11.3 0-16.3-.5-5 2.7-9.9 6-15.4 7.9.3 2.8 6.3 4.9 9.2 6.3s8.7 2 9.5 3.9c-5.4 3.9-12.8 3.4-19.2 3.3-3.3 4.1-5.6 9.4-9 13.6.1 3 1.5 8.5 3.9 10.2 9.4 5.9 13.6-.6 6.5 12.4-29.6-21-6.9-53.5 14.8-69.9 8.2-6.3 16-12 23.3-18.8 4.6-3.7 10.1-7.6 15.8-5.5a.7.7 0 0 0 1-.7c-2.3-11.9-2.7-7.3 6.8-6.9a65.8 65.8 0 0 1 8.6-19.8 454.2 454.2 0 0 0 38-17.8c2.6-1-2.6 5.1-3.4 5.7-2.6 2.7-6.1 4.5-9.3 6.2a.6.6 0 0 0-.2.9c4.8 5 10.7 8.9 17.4 10.4a59.2 59.2 0 0 0 18.8-1.1c3.4-1.1 4.8-6.5 8.6-5.9 7.4 1.7 6.5-.5 9.2-6.1.5-1.6 7.5-.7 8.6-1s3.8-7.4 4.4-8c1.8-2.2 6.8.6 8.7-1.6m8.1 43.5c-.9-2.3.1-6.1-1.9-8l-11.5-5c-.8-.5.1 9.9-.1 10s15.2 6.3 13.5 3m-74 33c7.2-6.6 8.5-5.2-1.8-6.4-1.1.1-4.2-5.2-4.9-5.8-2 4.4 1.2 11 4.8 14.8 1 2.6-1.5 6.4-.1 8.9s7.6.6 9.6-1.6c-1.1-7.3-1.3-5.1 4.9-6.9-3.5-.4-10.9.4-12.5-3m-14 15.8a2.8 2.8 0 0 0-5.3-1c.6 2.6 4.2 3.4 5.3 1Zm774.5-75.1c-.3-.1-.7-3.7-1.5-3.1-5 3.4-9.9 7.4-15 10.6-1.1.8-2.6-2.9-3.2-3.3s-.4-.4-.4.2l.7 5.3a1.2 1.2 0 0 0 1.8.8c3.5-1.2 7.3-1.5 10.6-2.6l7-7.9Zm-292.3 9a3.4 3.4 0 0 0-.6 2.8 6.7 6.7 0 0 0 .6-2.8Zm-150.2 95.5-6.5 1.3v.3c2.5.5 6-.2 7.9 1-.4 6-.6 4.6 4.2 2.6.9-.8-2.1-4.4-1.6-5.4 1.1-7.3 2.4-15.6-7.1-8.5-5.1.1-10.5-3.7-15.6-5-.8-.3 1.9 10.2 1.7 10.4s3.9-3.5 4.2-3.5c4.1.8 9.9 4.1 12.8 6.8Zm280.5 1.3c-3.6-2.3-7.8-6.7-11.6-7.1-3.5 9 .1 11-9.8 7.1-1.7.6 2.4 9.9 1.3 11.7-3 3.6-4 15.8-10.8 14.9a23.6 23.6 0 0 1-6.1.9c-2.3 0-.6 1.3-.3 2.8 3 .4 7.7 4.6 4.2 7.2-.1 6.8-5.2 4.4-7.6 9.3l2.2 8.7c.1.5 0 .6-.4.3s-2.6-2-2.9-1.2c-2.7 4.7-5.6 10-9.2 14.3q-.9 1.1-1.2-.3c-1.2-3.9 1.5-5.9 2.9-9 .7-1.5.8-3.5 1.9-4.8a4.4 4.4 0 0 0 2.6-4.3c0-3.6-.9-5.9 2.4-8.2-7.7-9-4.8 2.9-8.3 8.1s-5 10-8.7 12.6l-4.9-2.8c-3.6 3-4.4 11.6-5.2 16.4-.4 8.2.1 6.7-7.7 5.8-1.3-1-5 10.4-5.5 10.8s-7-2-7.7-1.9.4 4.1.2 4.6c-.4 2.8-4.9 3-6.6 5.4s-4.2 5.3-3.2 8.3l2.6 1.2c8.1-.7 6.6 1.1 10.8-6.2.1-2.3-1.2-8.5 1.5-9.3.3.3 3.7 5.5 4.2 4.6l20.2-19.1c.9-.3-4.8-3.6-4.9-3.8-.2-3.3 5.5-8.1 8.6-7.2.2 0 .2 8 .9 7.4 5.2-9.7 16.8-15.2 23.4-23.6 8.5-11.7-1.8-13.9 13-12.1 3.6-4.8 2.4-11.8.1-16.6 2.8-4.3 5.2-8.7 10.4-8.6l-3.1-6.3c.7-5.4 8.5-6.8 12.3-10Zm-254.3-3c-.6-.3-1.3 0-2 .9l.6.3 2.1-.7c-.6 0-.8-.2-.7-.5Zm-122.9 51.5c.2 1.7-4.8-4-5.1-3.9-3.1.3-8.4 19.4-4.7 21.4 6.2.9 5.4-10.4 11.2-10.4l4.2.4c-2.9-5.3-2.4-11-1.7-17.7a29.7 29.7 0 0 0-3.4-2.8l-.5 13Zm-25.5 4.3c-.4.5-5.2 4.8-4.9 5.5v14.7a82.4 82.4 0 0 0 17.5-15.7c1.2-1.2-4.1-5.8-3.1-6.9s4.1-1.8 3-2.3c-4.3-1.5-10.8-3.9-15.1-2.6 0 .6 3.4 6.9 2.6 7.3Zm294.6 66.3c-3.5-4.1-8.5-3.6-13.2-2.4-1.1 2.2-.5 5.6-1.2 8.1-.1.4 0 .6.2.6a1.1 1.1 0 0 0 .2.4c.7 3.9-1.7 7.8-4.2 10.6.6-.4 1.5-1.3 2-.7l2.5 4.9c8.1-4.5 6.9-15.7 13.7-21.5ZM440.7 603.3c-7.3 4.6-16.5 6.8-23.5 11.6-.5.7 11.5 2.6 11.7 2.8-16.1 10.1-20.6 3.9-10.9 13-4.5 1-13.3 1.2-18.9 3.1-2.3 2.3-5.5 5.9-8.8 4.4l-1.5-7.2c8.8-11.2 7.2-7.8-4.6-12.8-3.6-1.2-6.8-4-7.7-7.7a1.3 1.3 0 0 0-1.6-.8c-6.8 1.6-14.6-.3-21.3-1.4l-19.9-16.6a.5.5 0 0 1-.1-.7c5.2-10.4 2.8-6.8 12.5-.4 1.4-1.1.2-5 .2-6.8s5.3-4.1 5.6-4.5c-2.1-4-9.5-6.3-13.6-9.3-.5-.6-4.4 2.4-4.8 2.5-1.3 1.8 6.1 9.5 4.1 10.3-5.7.4-10.4-5-12.8-9.9a.8.8 0 0 0-1.1-.3c-5.3 2.4-7.2 8.4-8.6 12.9-6.6-7.6-8.7-6.9-7.2-17.3a.7.7 0 0 0-.9-.6c-6.1 1.7-11.8 7.4-18.1 3.8s-11.2 10.9-8.4 9.7c6.9-4.7 5.6-3.6 10.6 2-2.5 3.7-10.4 4.4-15.1 5.7-9.1-13.3-6.9-19.1 4.2-30.4 1.8 1.3 2.8 5.2 3.4 5.4s3.6 5.2 4.7 3.2c6.1-10.2 8.3-22.1 18.2-6 .9 1.1 4.1 5 5.4 3.1s.6-13.6-.2-13.9-4.2-2.4-4.2-3 .3-6.2-1.4-5.1c-3.9 3.1-5 1.6-5.9 7.3a1 1 0 0 1-.5.6c-2.7 1.3-6.4.7-9.1 2.2-.5 0-5.3 6.3-5.6 4-.2-.2.8-11.5-.1-11.1-5.5.7-13.9 14.3-17 10l3.3-10.4c-.3-.4 5.8-3.3 5.9-3.5-2.8-4.9-10-8.6-13.9-13.5l1.5-13.1c.1-.2.2-.5.4-.6l6-4.3c-.9-3.8-3.7-7.9-3-12.3 3.7-.3 8.4 2.3 12 3.6.3.2.6.1.6-.3l1-4.4c.1-.4 0-.5-.3-.5-4 .6-6-1-6.1-4.8s1.6-11.3 5.6-15.1a1.2 1.2 0 0 1 1.7-.1c20.5 19.4 5.7 8.8 18.9-7.5 8.9-10.1 8.2-15.1 9.4 1.3.3 3.5 9 1.5 11.4 3 1-.1-1 4.3-1 4.7s-2.5.7-3.3.5c-5.7-1.8-9.2 1.9-13.8 3.3-1.5.6-1.5 1.1 0 1.7s2.5.8 3.8 1.1.6.2.1.5c-12.5 7.6-8.7 4.7 2.2 8.9.1.6 10.5-4.3 10.7-4.3 1.9-1 .7 7.9 1 8.5s8.5 1.9 9.2 2.4a91.8 91.8 0 0 1 16.2-7.5l5.1-6.7c5.9 2.8 5.9 21 3 27 3.1 2.5 47.1 13.2 26 4-2.4-1.4-15.8-7.2-7.8-6.4 2.3-.1 5.9 1.3 7.9-.6s3.4-7 4.3-4.6c.8 4.1 3.4 7.9 7.5 9.2 4.1-.9 5.8-6.8 9.6-10.3 19.7-5.3 27.2 10.7 24.6 28a.9.9 0 0 1-.9.8c-8.3-.3-5.4 0-8.1 6.7-.4 1.1-.1 1.3.9.7 16.2-11.1 6.4-12 27.3-6.7 8.1 2.1 15.7-5.9 23.3-1.1 7.2-1.1 15.5-5.6 23.1-1.4 4 1.9-.6-2.2-.9-3.7s5.4-5.5 5.5-6.1c6.4-.7 15.2-1.5 17.5 4.5-1.1.9-10.5 2.3-9.4 4.4 1.6 9 2 .3 10.1-3.4 3.7-.1-.9 13.5-2.2 16.4-.1.2.1.4.3.4a34.5 34.5 0 0 1 5.4-1.1c3.7-.8-8.3 7.6-7.9 7.8s1 4.4.9 4.9c-21.6 3.2-27 30.6-49.9 30.7-3.8.1-6 5.6-9.2 6l-2.6-5.4c-1.7-.8-8.2 8.1-11.6 9.8-1.3 1-1.1 2.4-.5 3.6s.5 3.6 2 3.5m-132.2-83.4c4.1-2 9.7-3.9 11-8.6l-2.3-8.4c-2.7-.8-6.1-.1-6.2-.2l4.4 8.3c0 .1-16.8 2-14.3 3.9.4.3 5.7 1.3 5.2 2.1s-3 6.3-2.1 6.2c5.2 1.5 13.1 2 16 4.1l-6 2.7c-1.7.5 6.9 1.4 6.7 1.2 3.3-1.6 3.6-6.7 2.5-9.6l-3.3-1.6c-.9-.6-4.8 3.9-5.6 3.6s-6.5-3.4-6-3.7m-33.7-.8a9.7 9.7 0 0 0 5.1-8.8c-3.7-2-10.5 7.3-5.1 8.8Zm22.9 78.4c0-.8 6.1-1.3 6.6-1.5-2-5.4-8.9-4-14.4-3.6-5.3 11.5 1.8 22 7.8 5.1Zm8.1 27a116.8 116.8 0 0 0-19-3.9c-1-.2-1 0-.1.3 6.6 3.1 11.8 2.6.2 3.8-2.9.5-6.3-.2-6.9-3.5-.1-.2-.3-.2-.5-.2s-3.8 1.9-3.9.9l-1.5-5.4q-.3-1.1-.3 0l-.2 9.3c0 .2.1.3.3.4 8.4 3.6 15.8 7.6 25 8.1a1 1 0 0 0 .9-.7 5.7 5.7 0 0 1 3.1-3.8l2.9-5.3Zm63 11.5-1.4-12.2a1.7 1.7 0 0 0-.1-.7 1.1 1.1 0 0 1 .6-1.5c1.1-.9 6.8-3.2 4.9-3.9l-9.6-1.2c-1.2 2.9-.1 7.5-1.5 11.1-.3.7-.4 3.2-1.5 2.9l-4.6-3.7c-.5-1.1-8 6.1-8.5 6.2l11.5.4c.6-.1 0 2.3.1 2.5-3.7.7-8.9-.9-12.6 0v7.1c8.8-1.6 16.8-4.2 22.3-5 .7-.2.9-.8.5-2Z"/></svg>
