<svg xmlns="http://www.w3.org/2000/svg" width="40" height="40" fill="none"><path fill="url(#a)" d="M.1 21.1c.1 3.3 1.2 6.6 3.1 9.5 1.6-1.4 8.7-2.4 16.9-2.4s15.3 1 16.9 2.4c1.8-2.9 2.9-6.2 3-9.6-2.5 1.6-10.5 2.7-19.9 2.7-9.7 0-17.6-1.1-20-2.6Z"/><path fill="url(#b)" d="M4.6 32.6c6.9 8.5 19.3 9.9 27.8 2.9 1.1-.9 2.1-1.9 2.9-2.9-2.9 1-8.8 1.8-15.4 1.8-6.6-.2-12.5-.8-15.3-1.8Z"/><path fill="url(#c)" d="M35.4 7.4C31.6 2.7 25.9 0 19.9 0h-.1c-6 0-11.6 2.7-15.4 7.4 2.9-1.1 8.8-1.8 15.5-1.8 6.7 0 12.7.8 15.5 1.8Z"/><path fill="url(#d)" d="M36.9 9.4c-1.6 1.4-8.6 2.5-16.9 2.5-8.3 0-15.4-1-16.9-2.5C1.3 12.3.2 15.6 0 19c2.4-1.5 10.4-2.7 19.9-2.7 9.5 0 17.6 1.2 19.9 2.7v-.1c-.1-3.5-1.1-6.6-2.9-9.5Z"/><defs><radialGradient id="a" cx="0" cy="0" r="1" gradientTransform="matrix(37.5 0 0 37.5 19.9 3.43)" gradientUnits="userSpaceOnUse"><stop stop-color="#FAC39D"/><stop offset=".24" stop-color="#F08436"/><stop offset=".48" stop-color="#EC6707"/><stop offset=".73" stop-color="#EC6508"/><stop offset="1" stop-color="#E74011"/></radialGradient><radialGradient id="b" cx="0" cy="0" r="1" gradientTransform="matrix(37.5 0 0 37.5 19.9 3.43)" gradientUnits="userSpaceOnUse"><stop stop-color="#FAC39D"/><stop offset=".24" stop-color="#F08436"/><stop offset=".48" stop-color="#EC6707"/><stop offset=".73" stop-color="#EC6508"/><stop offset="1" stop-color="#E74011"/></radialGradient><radialGradient id="c" cx="0" cy="0" r="1" gradientTransform="matrix(37.5 0 0 37.5 19.9 3.43)" gradientUnits="userSpaceOnUse"><stop stop-color="#FAC39D"/><stop offset=".24" stop-color="#F08436"/><stop offset=".48" stop-color="#EC6707"/><stop offset=".73" stop-color="#EC6508"/><stop offset="1" stop-color="#E74011"/></radialGradient><radialGradient id="d" cx="0" cy="0" r="1" gradientTransform="matrix(37.5 0 0 37.5 19.9 3.43)" gradientUnits="userSpaceOnUse"><stop stop-color="#FAC39D"/><stop offset=".24" stop-color="#F08436"/><stop offset=".48" stop-color="#EC6707"/><stop offset=".73" stop-color="#EC6508"/><stop offset="1" stop-color="#E74011"/></radialGradient></defs></svg>