<svg xmlns="http://www.w3.org/2000/svg" viewBox="0 0 94.8 94.8"><path fill="#bf945d" d="M22.71 17.6ZM23.11 15.8a9.35 9.35 0 0 0-.4 1.8c-5.31 1.8-7.5 5.5-7.31 11.8v65.4h19V5.9c-5.39 2.7-10 5.9-11.29 9.9Zm48.6 0c.19.59.33 1.19.4 1.8 5.3 1.8 7.5 5.5 7.3 11.8v65.4H60.4V5.9c5.51 2.7 10 5.9 11.31 9.9ZM47.61 0a83.96 83.96 0 0 0-9.5 4.1v90.7h18.6V4c-2.96-1.5-6-2.83-9.1-4Z"/><path fill="#fff" d="m28.51 83.3-5.8-16h-3.1v18.8h1.6V70.3l5.7 15.8h3.2V67.3h-1.6v16Zm47.2-16h-1.6v12.9c0 1.6-.4 4.5-3 4.5a2.73 2.73 0 0 1-2.4-1 6.73 6.73 0 0 1-.8-3.6V67.3h-2.8v13.5c-.05.87.02 1.75.2 2.6.21.6.55 1.15 1 1.6.53.49 1.14.9 1.8 1.2.71.23 1.45.36 2.2.4 1.8 0 3.2-.4 3.9-1.4a6.46 6.46 0 0 0 1.19-4.1V67.3h.31ZM50.4 76.4c1.2-.6 2-2 2-4.3 0-4.5-3.9-4.7-5.9-4.7h-4.4v18.8h4.6c2.2 0 6.3 0 6.3-5.3 0-2.7-1.19-3.9-2.6-4.5Zm-5.3-7.7h1.6c1.4 0 3.2 0 3.2 3.4 0 3.8-1.8 3.6-3.2 3.6h-1.6v-7Zm1.5 16.2H45v-7.7h1.6c1.6 0 3.4 0 3.4 3.8s-1.79 3.9-3.39 3.9h-.01Z"/></svg>
