<svg xmlns="http://www.w3.org/2000/svg" viewBox="0 0 64.03 94.8" width="64.03" height="94.8">
  <path fill="#bf945d" d="M7.32 17.6a12.31 12.31 0 0 1 .4-1.8 12.31 12.31 0 0 0-.4 1.8Z"/>
  <path fill="#bf945d" d="M7.72 15.8a9.35 9.35 0 0 0-.4 1.8C2.01 19.4-.18 23.1.01 29.4v65.4h19V5.9c-5.39 2.7-10 5.9-11.29 9.9Zm48.6 0a9.35 9.35 0 0 1 .4 1.8c5.3 1.8 7.5 5.5 7.3 11.8v65.4H45.01V5.9c5.51 2.7 10 5.9 11.31 9.9ZM32.22 0a84 84 0 0 0-9.5 4.1v90.7h18.6V4a92 92 0 0 0-9.1-4Z"/>
  <path fill="#fff" d="m13.12 83.3-5.8-16h-3.1v18.8h1.6V70.3l5.7 15.8h3.2V67.3h-1.6v16zm47.2-16h-1.6v12.9c0 1.6-.4 4.5-3 4.5a2.73 2.73 0 0 1-2.4-1 6.73 6.73 0 0 1-.8-3.6V67.3h-2.8v13.5a9.86 9.86 0 0 0 .2 2.6 4.25 4.25 0 0 0 1 1.6 6.82 6.82 0 0 0 1.8 1.2 8.62 8.62 0 0 0 2.2.4c1.8 0 3.2-.4 3.9-1.4a6.46 6.46 0 0 0 1.19-4.1V67.3Zm-25.31 9.1c1.2-.6 2-2 2-4.3 0-4.5-3.9-4.7-5.9-4.7h-4.4v18.8h4.6c2.2 0 6.3 0 6.3-5.3.01-2.7-1.19-3.9-2.6-4.5Zm-5.3-7.7h1.6c1.4 0 3.2 0 3.2 3.4 0 3.8-1.8 3.6-3.2 3.6h-1.6Zm1.5 16.2h-1.6v-7.7h1.6c1.6 0 3.4 0 3.4 3.8s-1.79 3.9-3.39 3.9Z"/>
</svg>
