<svg xmlns="http://www.w3.org/2000/svg" viewBox="0 0 159.9 160"><path d="M0,0H76.6V76.4c0,.2-.1.3-.4.3H0V0" fill="#a7cf43"/><path d="M83.3,0h76.6V76.4a.4.4,0,0,1-.4.4H83.8a.5.5,0,0,1-.5-.5V0" fill="#5b97de"/><path d="M159.3,83.2H83.5l-.3.3V160h76.6V83.8A.5.5,0,0,0,159.3,83.2Z" fill="#ff8401"/><path d="M47.6,34.6V20.1a.4.4,0,0,1,.4-.4h5.3a.4.4,0,0,1,.4.4V56.3a.4.4,0,0,1-.4.4H48a.4.4,0,0,1-.4-.4V40.7a.5.5,0,0,0-.5-.4H29.5a.5.5,0,0,0-.5.5V56.3a.4.4,0,0,1-.4.4H23.3a.5.5,0,0,1-.5-.4V20.1a.5.5,0,0,1,.5-.4h5.3a.4.4,0,0,1,.4.4V34.6a.5.5,0,0,0,.5.4H47.1a.5.5,0,0,0,.5-.4Z" fill="#fff"/><path d="M132.9,56.7H110.1a.3.3,0,0,0-.3.3v6.7a.3.3,0,0,1-.3.3h-5.4a.4.4,0,0,1-.4-.3V51.8c0-.2.2-.3.4-.3h3.4a.3.3,0,0,0,.3-.3L112.9,20a.3.3,0,0,1,.3-.3h21.3a.3.3,0,0,1,.3.3V51.2a.3.3,0,0,0,.3.3h4a.3.3,0,0,1,.3.3V63.7a.3.3,0,0,1-.3.3h-5.6l-.3-.3V57a.4.4,0,0,0-.4-.3m-18.8-5.6c-.1.2.1.4.3.4h14a.3.3,0,0,0,.3-.3V25.3c0-.2-.2-.3-.4-.3h-9.8a.3.3,0,0,0-.3.3l-4.2,25.8Z" fill="#fff"/><path d="M113,108.2c-.2,0-.3.2-.3.4v9.1c0,.1.1.2.3.2,8.8.5,22.6-2.7,23.7,10.2.7,8.6-5.2,12-12.9,12.1H106.9a.4.4,0,0,1-.4-.4V103.4a.3.3,0,0,1,.3-.3h26c.3,0,.4.1.4.4v4.3c0,.3-.2.4-.5.4H113m-.4,15.3v11.2a.5.5,0,0,0,.5.5h10.2c4,0,7.2-2.5,7.1-5.6v-1c0-3.1-3.2-5.5-7.2-5.5H113.1a.5.5,0,0,0-.5.4Z" fill="#fff"/></svg>