<svg xmlns="http://www.w3.org/2000/svg" width="41" height="40" fill="none"><path fill="#DD1F2A" d="M13.7 8.1c0-4.8 2.9-8 6.5-8.1 3.6-.1 6.7 3.1 6.8 7.1 0 1.9-.5 3.8-1.5 5.5-1.4 2.5-5.9 7-5.9 7L18 16.2l1.7-2.2c1.2-1.4 2.2-3.1 3-4.8.3-.6.4-1.3.4-2-.1-1.7-1.2-3-2.7-3-1.4 0-2.6 1.4-2.7 3-.1 1.2.3 2.4.9 3.4l.8 1.4-2.5 3-1.6-2.3c-1-1.7-1.6-3.5-1.6-4.6Zm-1 4.5a8.6 8.6 0 0 0-3.9-2.3c-3.7-1-7.6 1-8.6 4.6a7 7 0 0 0 .8 5.3c1 1.6 2.5 2.8 4.3 3.3 1.7.5 3.7.5 5.5 0l1.9-.6-1.9-3.6-1.4.4a5 5 0 0 1-3.4-.3c-1.5-.6-2.3-2.3-1.8-3.6.5-1.4 2.3-2 3.7-1.5.8.4 1.5.8 2.1 1.4 3.4 2.9 4.7 8 4.7 8s-4.4 1.5-6 2.5a7.8 7.8 0 0 0-3.2 9.1 5.7 5.7 0 0 0 2.3 3c1 .8 2.3 1.2 3.6 1.2 1.5 0 2.9-.4 4.1-1.3 1.2-.8 2.2-2 2.7-3.3.9-2.1 1.1-4.3 1.1-6.5 0-3-.6-5.9-1.7-8.7-1.1-2.5-2.8-5-4.9-7.1Zm1.6 21.3c-.6 1.1-1.6 1.8-2.9 1.7-.5 0-.9-.2-1.3-.5s-.6-.7-.8-1.1c-.5-1.3 0-2.3.8-3.3 1.3-1.8 5-2.7 5-2.7l.1 2c.1 1.3-.3 2.7-.9 3.9Zm7.8-.4c.4 1.5 1.1 2.9 2.1 4.1 2.7 2.9 7 3.2 9.7.7a7.3 7.3 0 0 0 .2-10 11.2 11.2 0 0 0-4.7-3l-1.9-.5-.2 4.1 1.4.4c1.1.3 2.1 1.1 2.8 2.1 1 1.4.8 3.2-.3 4.1-1.2.9-3 .5-3.9-.8-.5-.7-.8-1.5-1-2.3-1.4-4.3.1-9.4.1-9.4s4.5 1.1 6.4 1c3.7-.2 6.8-2.6 7.4-6a6.4 6.4 0 0 0-6.8-7.9c-1.5 0-2.9.5-4.1 1.4-1.8 1.3-3.1 3-4.3 4.9a23 23 0 0 0-3 8.3c-.8 2.9-.7 5.9.1 8.8Zm9.5-18.9c.5-.3 1.1-.5 1.7-.5.6 0 1.2.2 1.6.6.4.3.7.6.9 1.1.2.4.2.9.1 1.4-.3 1.3-1.2 1.9-2.3 2.4-2 .8-5.6-.4-5.6-.4l.9-1.8a7.3 7.3 0 0 1 2.7-2.8Z"/></svg>