<svg xmlns="http://www.w3.org/2000/svg" viewBox="0 0 160.8 160.8"><path d="M153.6,63a24.9,24.9,0,0,1-.1,35.1L97.8,153.6a24.9,24.9,0,0,1-35.1-.1L7.2,97.8a24.9,24.9,0,0,1,.1-35.1L63,7.2a24.9,24.9,0,0,1,35.1.1L153.6,63m-2.2,32.2a21.2,21.2,0,0,0-.1-29.9L95.3,9.5a21.1,21.1,0,0,0-29.9,0L9.5,65.5a21.3,21.3,0,0,0,.1,30l56,55.8a21.3,21.3,0,0,0,30,0l55.8-56.1Zm-6.2-24a12.9,12.9,0,0,1,0,18.3L89.6,145.1a12.9,12.9,0,0,1-18.3,0L15.6,89.4a13,13,0,0,1,0-18.3L71.2,15.5a13,13,0,0,1,18.3,0l55.7,55.7" transform="translate(0 0)" fill="#004b84"/><path d="M95.6,151.3a21.3,21.3,0,0,1-30,0L9.6,95.5a21.3,21.3,0,0,1-.1-30l55.9-56a21.1,21.1,0,0,1,29.9,0l56,55.8a21.2,21.2,0,0,1,.1,29.9L95.6,151.3M89.5,15.5a13,13,0,0,0-18.3,0L15.6,71.1a13,13,0,0,0,0,18.3l55.7,55.7a12.9,12.9,0,0,0,18.3,0l55.6-55.6a12.9,12.9,0,0,0,0-18.3L89.5,15.5Z" transform="translate(0 0)" fill="#fff"/><path d="M74.2,48.8a5.4,5.4,0,1,1-5.4-5.4,5.4,5.4,0,0,1,5.4,5.4Zm23.3.3a5.4,5.4,0,0,0-5.4-5.4,5.4,5.4,0,0,0-5.4,5.4,5.5,5.5,0,0,0,5.4,5.4,5.4,5.4,0,0,0,5.4-5.4Zm1.4,51.1c0-.5.2-.6.6-.5a4.1,4.1,0,0,0,5.1-4.4q-.1-5,0-10.2c.1-4.3-2.9-7.9-7.3-7.5a1.1,1.1,0,0,0-.8,1.8l.4.5.8.3c2.7.5,4.1,2.3,4.1,5.1s0,6.9,0,10a1.6,1.6,0,0,1-1.2,1.6c-.5.1-1-.2-1.6-1.1a.8.8,0,0,1-.2-.5V86a3.7,3.7,0,0,0-.6-2.1c-.5-.8-1-.8-1.5.1a3.3,3.3,0,0,0-.6,1.9v27.6a1.6,1.6,0,0,1-1,1.6,1,1,0,0,1-1.4-.4l-1.1-1.8a.8.8,0,0,0-.8-.2,1.7,1.7,0,0,0-1.3,2.2,4.3,4.3,0,0,0,8.4-1.3c-.1-4.9-.1-9.3,0-13.4ZM85.8,59.5a5.4,5.4,0,1,0-5.4,5.4,5.4,5.4,0,0,0,5.4-5.4ZM63,59.5a5.4,5.4,0,0,0-5.4-5.4,5.4,5.4,0,1,0,0,10.8A5.4,5.4,0,0,0,63,59.5Zm45.5,0a5.4,5.4,0,0,0-5.4-5.4,5.4,5.4,0,1,0,0,10.8,5.4,5.4,0,0,0,5.4-5.4ZM74.4,69.9A5.4,5.4,0,1,0,69,75.3a5.4,5.4,0,0,0,5.4-5.4Zm22.8,0a5.4,5.4,0,1,0-5.4,5.4,5.4,5.4,0,0,0,5.4-5.4ZM49.9,89.6c.5-.1.7.1.7.5v13.8c0,4.7,6.4,5.7,8.2,1.5a2.2,2.2,0,0,0-.2-2.4.9.9,0,0,0-1.5-.1,3.6,3.6,0,0,0-1.1,1.4,1.7,1.7,0,0,1-1,.7c-.6.2-1.2-.1-1.5-1a1.4,1.4,0,0,1-.2-.6V74.7A1.5,1.5,0,0,0,52,73.1h-.2a1.8,1.8,0,0,0-1.2,1.7V85.4a1.4,1.4,0,0,1-1,1.3h-.7a1.1,1.1,0,0,1-1.2-1.2c-.1-3.5-.2-7.1-.1-10.8s1.8-4.1,5.1-5.1a.7.7,0,0,0,.4-1.2l-.4-.4a2.3,2.3,0,0,0-2.2-.6c-4.3,1.2-5.9,4.4-5.7,8.6.1,2.5.1,5.1,0,7.7s1.2,6.6,5.1,5.9Zm60.4.6c0-.5.2-.6.7-.6,2.2.5,4.9-1.1,4.9-3.6s-.1-8,0-11.9a7.1,7.1,0,0,0-6.3-6.8,1.9,1.9,0,0,0-1.9,1.2.5.5,0,0,0,.2.8c2,1.5,5.1,1.3,5.2,4.9s0,7.2-.1,11.2c0,.9-.4,1.3-1.3,1.4h-.4a1.3,1.3,0,0,1-1-1.3v-9a5.4,5.4,0,0,0-.4-2.2c-.4-.8-.8-1.2-1.2-1a2.2,2.2,0,0,0-1.4,2.1v28.3a1.3,1.3,0,0,1-1.4,1.5.7.7,0,0,1-.9-.5,5.6,5.6,0,0,0-1.4-2,.6.6,0,0,0-.8,0c-2.5,1.9.1,4.9,2.3,5.4s5.2-1.9,5.2-4.8v-13Zm-24.5-10a5.4,5.4,0,1,0-5.4,5.4,5.4,5.4,0,0,0,5.4-5.4ZM61.1,99.7c.5-.1.8.1.7.7,0,4.5,0,8.8.1,12.9s1.4,4.6,4.3,4.8a4,4,0,0,0,3.1-1.1c1-1.1,1.7-3.2.1-4.2a.7.7,0,0,0-1,.1L67,114.8a.8.8,0,0,1-.9.4c-.8-.1-1.2-.5-1.2-1.5-.1-9.7-.1-19.2,0-28.4a2.4,2.4,0,0,0-1.4-2.1.5.5,0,0,0-.5,0,2.4,2.4,0,0,0-1.2,2.1V95.6c0,.9-.4,1.3-1.3,1.3h-.4a1.1,1.1,0,0,1-1-1V84.4c0-2.1,1.6-3.6,4.6-4.4a1.1,1.1,0,0,0,.8-.8c.1-.8-.3-1.4-1.4-1.6a3.7,3.7,0,0,0-1.8.1,6.7,6.7,0,0,0-5,6.8q.2,5.9,0,11.4a3.9,3.9,0,0,0,4.8,3.8Zm26.5,11.4c0,4.4-.1,8.9-.1,13.7,0,2.3-1.3,3.7-4.1,4.1a2.6,2.6,0,0,1-2.2-.5,1.2,1.2,0,0,0-1.4-.1,4.2,4.2,0,0,1-6.5-3.7V111.1c0-.5-.2-.7-.7-.6-3.6.7-5.2-2.3-5.1-5.4s.1-5.8,0-8.7,2.5-8.3,7.1-8.2H85.5c4.1-.1,7.7,2.5,7.6,6.8v11.4a3.9,3.9,0,0,1-4.7,4.1c-.5-.2-.8.1-.8.6m-.3-15.3a5.8,5.8,0,0,1,.3,1.9v8.6a1.4,1.4,0,0,0,1.4,1.4h.5a1.3,1.3,0,0,0,.8-1.1V95.3A4.2,4.2,0,0,0,86.1,91H74.8a4.5,4.5,0,0,0-4.5,4.5v10a1.4,1.4,0,0,0,.2.7c.9,2,1.8,2,2.8.1V96.2c0-.2.1-.3.1-.5,1-2.1,1.8-2.2,2.7-.1h0V124a2.4,2.4,0,0,0,.2.8c.6,1,1.2,1.4,1.6,1.2a1.9,1.9,0,0,0,1.1-1.8c.1-4.5.1-9.2.1-14.1a1.8,1.8,0,0,1,1.1-1.7c.3-.1.6.1,1,.6a3.7,3.7,0,0,1,.6,2.1v13.7a2.1,2.1,0,0,0,.3.7,1.6,1.6,0,0,0,1.2.5,1.4,1.4,0,0,0,1.3-1.5V95.6a2,2,0,0,1,1.3-1.7c.6-.2,1,.4,1.4,1.9Z" transform="translate(0 0)" fill="#fff"/><path d="M85.8,37.2a5.4,5.4,0,1,1-5.4-5.4,5.4,5.4,0,0,1,5.4,5.4Z" transform="translate(0 0)" fill="#e21c2b"/></svg>