<svg xmlns="http://www.w3.org/2000/svg" width="40" height="40" fill="none"><path fill="#057A55" d="M22.54 7.02a.11.11 0 0 0 .1.1H23c1.15 0 2.07.93 2.07 2.08v21.52l-6.2-20.13C18.25 8.64 16.34 7 14.3 7H9.84a.11.11 0 0 0-.1.12v.17c0 .06.04.11.1.11h.5c1.08 0 1.77.9 1.77 2.08v19.88a2.27 2.27 0 0 1-2.28 2.27h-.22a.11.11 0 0 0-.1.11v.15c0 .06.04.11.1.11h7.33c.06 0 .11-.05.11-.1v-.16a.11.11 0 0 0-.1-.11h-.55a3.32 3.32 0 0 1-3.32-3.32V12.27l4.46 14.2c.83 2.55 3.99 5.28 7.81 5.28 3.57 0 6.64-3.34 6.64-6.97 0-3.46-2.06-6.2-5.2-6.95h.01a4.97 4.97 0 0 0 4.06-3.66c.99-3.92-1.19-7.36-6.44-7.36h-1.77c-.06 0-.1.05-.11.1v.1ZM20 2.2c9.82 0 17.8 7.99 17.8 17.8S29.82 37.8 20 37.8C10.2 37.8 2.2 29.8 2.2 20S10.2 2.2 20 2.2ZM20 0a20 20 0 1 0 0 40 20 20 0 0 0 0-40Z"/></svg>