<svg xmlns="http://www.w3.org/2000/svg" width="40" height="41" fill="none"><path fill="#0063AB" d="M18.6 12.2h2.1l-4.3 13.3h-2l4.2-13.3Zm3.4 3.5h2l-4.3 13.2h-1.9L22 15.7ZM9.6 25.5h.8l2-6.3 1.6 5 1.1-3.3-2-5.9-3.5 10.5Zm4-11.9.4-1.1 1.8 6.2-.4 1.2-1.8-6.3Zm20.2 4.2.1.8h6l-.1-.7-6-.1Z"/><path fill="#0063AB" d="M39.7 17.1h-6.1l-.4-.7-.5-.7h2l-.1-.5C32.5 9.5 28.2 3.8 19.2 3.5A18 18 0 0 0 .5 21.2H.1C.2 10.3 8 1.3 19.2 1a20 20 0 0 1 20.5 16.1Z"/><path fill="#0063AB" d="m17.1 25.5 4.3-13.3h.6l-4.2 13.4-.7-.1Zm3.4 3.4 4.2-13.2h.8l-4.2 13.2h-.8Zm5.1-11.6.5-1.7H31c3 .5 2.7 5.9-.6 6.5 2.5 1.9.3 6.5-2.4 6.5h-6l.4-1.1h5.3c2.3-1.3 2.7-3.8 1.4-5.4 3.5-1.1 2.4-4.9 1.2-4.9-1.9.1-3 .2-4.7.1Z"/><path fill="#0063AB" d="m22.5 27 .3-.8h3.8c.9-.4 1.1-1.3.9-2.1h-4.1l.6-1.8h4.2c1.3.8.7 4.1-.9 4.6l-4.8.1Zm1.7-5.3h4.2c1.2-.2 2-1.5 2.1-2.3 0-.4-.2-1.1-.6-1.2h-4.6l-.2.5h4.2c.6.6 0 2.2-1.1 2.3h-3.9l-.1.7ZM6.3 25.6l4.3-13.4h2.6L9 25.5l-2.7.1Zm16.3-11.8.5-1.6h2l-.5 1.7-2-.1Zm2.6 0 .5-1.6h.8l-.5 1.7-.8-.1Zm-3 1.2.2-.6h2l-.2.6h-2Zm2.7 0 .2-.6h.8l-.2.6h-.8Zm-5.6-4.6.5-1.6h2l-.5 1.7-2-.1Zm2.6 0 .5-1.6h.7l-.5 1.7-.7-.1Zm-3 1.2.2-.6h2l-.2.6h-2Zm2.6 0 .2-.6h.6l-.2.6h-.6ZM6.4 23l.2-.8H0v.8h6.4Z"/><path fill="#0063AB" d="M.3 23.8h5.9l-.6 1.8h-.5l.1.4C7 31.8 11 37.7 20 38.5a18 18 0 0 0 19.6-16.6h.4c-.7 10.8-9 19.3-20.1 19.1A20 20 0 0 1 .3 23.8Z"/></svg>