<svg xmlns="http://www.w3.org/2000/svg" viewBox="0 0 289.5 289.5"><path fill="#263746" d="M290 290H0V0h290Z"/><path fill="#fff" d="m149 72-19 68a30 30 0 0 0 0 15 2559 2559 0 0 0 22 83h-28a1 1 0 0 1-1-1l-15-56-8-32a20 20 0 0 1 1-8l22-83a1 1 0 0 1 1 0h28s1 0 0 0l-3 14Zm29 76c-2-2-3-4-2-7l22-82-1-1h-28l-23 85a19 19 0 0 0 0 7 287 287 0 0 0 8 32 1 1 0 0 0 1 1h54a19 19 0 0 1 6 1 11 11 0 0 1 6 13c-2 5-6 8-11 8h-49a1 1 0 0 0-1 0l9 32a1 1 0 0 0 1 1h44a33 33 0 0 0 10-1c16-5 28-20 30-36 5-27-16-52-43-52h-31a2 2 0 0 1-2-1Zm-86 21-17-63-2-13V59a1 1 0 0 0-1-1H44a1 1 0 0 0-1 1l1 33a63 63 0 0 0 1 11l4 18 20 73a41 41 0 0 1 1 7l1 30a36 36 0 0 1 0 6v1h29a1 1 0 0 0 0-1v-33a47 47 0 0 0-1-10l-7-25Z"/></svg>
