<svg xmlns="http://www.w3.org/2000/svg" width="40" height="40" fill="none"><path fill="#123A92" fill-rule="evenodd" d="m28.84 36.79-4.02-8.77h-9.63l-4.03 8.77h17.68Zm3.27-30.27a18.61 18.61 0 0 1 6.28 13.87c0 5.3-2.37 10.45-6.28 13.87l-5.07-11.04H12.96L7.9 34.26A18.61 18.61 0 0 1 1.62 20.4c0-5.3 2.37-10.45 6.28-13.87l5.06 11.05h14.08l5.07-11.05ZM31.49 4 26 15.95H14L8.52 4a20.06 20.06 0 0 0 0 32.79L14 24.83h12L31.5 36.8a20.05 20.05 0 0 0 0-32.79Zm-2.65 0-4.02 8.77h-9.63L11.16 4h17.68Z" clip-rule="evenodd"/></svg>