<svg xmlns="http://www.w3.org/2000/svg" width="40" height="40" fill="none"><path fill="#363584" fill-rule="evenodd" d="M19.14.01a20.3 20.3 0 0 0-6.72 1.35c-1.07.4-2.98 1.34-4.07 2-.79.48-1.65 1.14-1.57 1.22.02.02 1.27-.06 3.98-.27a522.82 522.82 0 0 1 5.09-.38l1.04-.07c.97-.07 1.47-.12 1.5-.15l.52-.83a457.26 457.26 0 0 1 .98-1.62c.06-.1.13-.19.15-.18.04.01.68 1.04 1.4 2.25l.04.06c.1.18.16.26.23.3.08.06.18.07.38.08h.07a88.7 88.7 0 0 0 2.07.16 857.4 857.4 0 0 0 9.07.66c.05-.03-.05-.14-.36-.4a16.03 16.03 0 0 0-2.92-1.76A20.98 20.98 0 0 0 19.14 0Zm-2.08 4.57a58 58 0 0 0-7.2.8c-.72.12-1.1.2-2.05.44-2 .5-3.42 1.04-4 1.54-.22.19-.18.2.74.04a675.68 675.68 0 0 0 4.72-.77l2.21-.32a69.38 69.38 0 0 1 5.47-.48l.16-.02.36-.58c.2-.32.35-.61.35-.64 0-.03-.03-.05-.08-.05l-.68.04Zm5.16 0c0 .03.67 1.16.73 1.23 0 .01.39.04 1.66.12 1.68.11 3.3.28 4.94.51.97.14 1.46.22 3.31.53a312.38 312.38 0 0 0 3.2.52c.14.02.26.03.28.01.04-.04-.23-.27-.51-.43-.58-.33-1.43-.65-2.46-.95l-.66-.18A32.5 32.5 0 0 0 28 5.03a41.2 41.2 0 0 0-1.2-.15 60.5 60.5 0 0 0-4.58-.3Zm-5.87 2.06-.97.1a67.8 67.8 0 0 0-7.59 1.2 32.93 32.93 0 0 0-1.82.49A14.1 14.1 0 0 0 2.33 9.9c-.3.2-.69.56-.69.63 0 .04.22.04.36 0a5.48 5.48 0 0 1 .63-.16 55.5 55.5 0 0 1 7.98-1.7 47.48 47.48 0 0 1 4.67-.4l.34-.02.27-.44c.4-.65.66-1.12.66-1.17 0-.02-.02-.04-.04-.03l-.16.02Zm7.16 0c-.02.04.8 1.46.92 1.62l.8.05c1.44.07 2.41.16 3.92.34a59.27 59.27 0 0 1 6.08 1.12l.88.24c1.2.34 2.04.56 2.19.56.05 0 .1-.02.1-.04 0-.07-.4-.44-.7-.63-.67-.45-1.88-.95-3.35-1.4a27.14 27.14 0 0 0-2.62-.68 185.57 185.57 0 0 1-1.54-.3 74.61 74.61 0 0 0-6.68-.88ZM13.44 9.48a47.12 47.12 0 0 0-6.06 1.04 1070.66 1070.66 0 0 1-1.7.43c-.32.1-1.05.33-1.46.48-1.2.44-2.07.88-2.92 1.48A8.73 8.73 0 0 0 0 14.15c0 .03 1.67.04 6 .04l6.01-.01 2.87-4.71c0-.04-1-.03-1.44.01Zm11.73-.02c1.5 2.58 2.15 3.55 2.85 4.72h6c5.33.01 5.98 0 5.98-.04 0-.1-.77-.85-1.16-1.15-1.36-1.02-3.33-1.81-6.14-2.46a60.71 60.71 0 0 0-6.02-1.03 9.77 9.77 0 0 0-1.51-.04ZM0 25.85c0 .06.68.75.97.99 1.07.88 2.8 1.7 4.72 2.22a26.46 26.46 0 0 0 2.1.52l.82.17c1.97.4 3.36.63 4.76.76.6.06 1.5.08 1.5.03a210.41 210.41 0 0 1-2.56-4.2l-.3-.5-6-.02c-3.5 0-6 0-6 .03Zm27.95.1a1012.25 1012.25 0 0 0-2.78 4.6c0 .04 1 .01 1.5-.04a50.88 50.88 0 0 0 6.67-1.2c2.41-.58 4.25-1.35 5.5-2.3A6.56 6.56 0 0 0 40 25.88c0-.05-.66-.05-5.98-.05h-5.98l-.09.14Zm-26.3 3.52c0 .07.39.43.68.63.75.5 2.08 1.04 3.64 1.48.3.09.59.17.65.2a32.82 32.82 0 0 0 1.57.37 67.66 67.66 0 0 0 8.36 1.21c0-.05-.26-.52-.66-1.17l-.27-.44-.34-.03-.81-.04a51.03 51.03 0 0 1-12.15-2.13 5.55 5.55 0 0 1-.32-.08c-.14-.04-.36-.04-.36 0Zm36.08.08-.56.15c-.46.14-1.74.5-1.94.54l-.65.16c-1.37.33-3.88.77-5.43.96a50.72 50.72 0 0 1-4.72.4 17.5 17.5 0 0 0-.92 1.6c0 .02.07.03.14.02l1.33-.15c2.02-.23 3.67-.46 5.2-.74l.13-.02.1-.02.1-.02.07-.01.59-.12.06-.01.05-.01.08-.02h.05l.1-.03.06-.01.08-.02h.06l.02-.01a49.48 49.48 0 0 0 2.62-.68c1.47-.45 2.68-.95 3.35-1.4.3-.2.7-.56.7-.63 0-.07-.21-.04-.67.07ZM3.69 32.53c0 .05.38.32.67.49.7.37 1.94.8 3.45 1.17a28.68 28.68 0 0 0 3.2.64c.48.08 1.43.2 2.1.29a58.69 58.69 0 0 0 4.5.34c.17.01.21 0 .21-.04s-.54-.98-.68-1.16c-.05-.08-.09-.08-1.67-.18-2.65-.17-4.2-.37-8.96-1.15l-.06-.01a218.5 218.5 0 0 0-1.8-.3c-.04 0-.08 0-.14-.02l-.46-.07c-.22-.05-.36-.05-.36 0Zm32.29 0-.79.13-2.68.44-.44.07a130.52 130.52 0 0 1-2.57.4l-.1.02c-1.87.25-3.15.38-4.8.49a29 29 0 0 0-1.65.12c-.06.07-.73 1.2-.73 1.23 0 .03.07.04.21.03l.78-.04c.89-.04 2.8-.19 3.59-.29.04 0 .1 0 .16-.02l.3-.03.17-.02 1.15-.16a37.04 37.04 0 0 0 3.74-.72l.5-.14c1.3-.35 2.14-.65 2.83-1 .34-.18.7-.44.7-.51 0-.04-.14-.04-.37 0Zm-29.2 2.9c-.08.12 1.09.96 2.2 1.6 1.66.92 3.5 1.7 5.11 2.17 1.97.57 3.67.8 5.93.8 2.08 0 3.64-.19 5.4-.64 1.56-.4 2.88-.92 4.55-1.76a23.7 23.7 0 0 0 1.5-.8c.95-.55 1.95-1.3 1.83-1.38a140.38 140.38 0 0 0-6.05.43l-.35.03a632.97 632.97 0 0 0-4.74.35h-.08c-.19.03-.29.03-.36.08-.08.05-.14.14-.25.33l-.05.08c-.55.92-1.35 2.2-1.38 2.21-.02 0-.09-.08-.15-.18l-.3-.5a472.93 472.93 0 0 1-1.2-1.95c-.04-.04-.53-.08-2.5-.22a457.74 457.74 0 0 1-4.05-.3 1276.75 1276.75 0 0 0-5.07-.35Z" clip-rule="evenodd"/></svg>