<svg xmlns="http://www.w3.org/2000/svg" width="40" height="40" fill="none"><path fill="#005191" d="M22.2 37.2c2.3.2 5.5-1.7 9.5-6.2 3-3.2 5.7-6.6 8.3-10.2V36c-.2 1.7-1.7 3-3.5 3h-29c2.2-2 4.6-5 6.8-8.3 2.2-3.4 2.6-4.4 4.1-7.8l3.8-1.1a32.7 32.7 0 0 0-3.5 9.7c-.3 3.3 1.1 5.5 3.5 5.7Zm-8.4-12.7s-2.8 5.4-4.8 8c-1.1 1.3-5.3 8.2-8.3 6-2.8-2.8 4.4-8.7 5.9-9.7 2.5-2 7.2-4.3 7.2-4.3ZM3.7 5.4C1 7.6 0 9.8 0 9.8V4.4C0 2.5 1.6 1 3.6 1H31s-1.6.1-3.2 1.8c-.8 1-3.7 4.8-6.7 4-3.1-.8-2.5-3.3-5.5-4.1-3.1-.9-8.8 0-12 2.7Zm28.5-1.8c1.5-1 1-2.3 0-2.6h4.3c1.6 0 3 1 3.3 2.5-2.4-.3-6.4 1.3-9.6 5.2-3.2 4-6 8.9-6 8.9l-3.8 1.1c.4-.9 2.3-4.4 5.3-8.7 2.6-3.7 5.3-5.5 6.5-6.4ZM15.8 20A35 35 0 0 0 0 29.8V15a7.6 7.6 0 0 0 4.8 3.4c2.6.5 5.2.1 7.5-1.1 1-.6 2-1.3 2.8-2.2 1.8-1.7 1.1-3.8-.3-4.2-1.4-.4-2.7.6-3.4 1.7-.7 1.1-1.7 2.5-4.7 2.5C5.2 15 3.4 14 3 12c-.7-3.4 3.5-6.8 7.3-7.3 6.2-1 4.6 3.1 7.6 5.2a4 4 0 0 0 4.5 0c-1 1.3-5 7.4-6.5 10.1Zm18-11.2c1.7-2 4.7-3.5 6-2 1.2 1.5-2.5 4.5-5 6a51.4 51.4 0 0 1-6.7 3.6c1.3-2.3 4.3-6.1 5.6-7.6Zm1 7.4c1.4-1 3.7-2.8 5.2-4.2v5.8c-1.2 1.4-7.6 8.6-10.2 11-4.6 4.2-7.6 3.6-6.4-.8a35 35 0 0 1 3-7.5c1.5-.6 5.4-2.3 8.4-4.3Z"/></svg>