<svg xmlns="http://www.w3.org/2000/svg" width="40" height="40" fill="none"><path fill="#E3000F" d="M36.9 22.7A20.9 20.9 0 0 1 20 30.4c-7 .1-12.3-2.5-16.9-7.7L0 26.5A26.9 26.9 0 0 0 20 35c3.7 0 7.4-.8 10.9-2.2 3.4-1.5 6.5-3.6 9.1-6.3l-3.1-3.8Z"/><path fill="#44413E" d="M31.5 20.8h3.8l-6.7-8.3L35 5.4h-3.5L26 11.8V5.4h-3v15.4h3v-7.7l5.5 7.7ZM16.6 9.2a6.2 6.2 0 0 1 1.4 3.9c.1 1.4-.4 2.8-1.4 3.9-.5.5-1 .8-1.6 1.1-.6.3-1.3.4-1.9.4a4 4 0 0 1-1.9-.4c-.6-.3-1.2-.6-1.6-1.1a6.2 6.2 0 0 1-1.4-3.9c-.2-1.4.3-2.8 1.3-3.9 1-.9 2.2-1.5 3.6-1.5 1.3 0 2.6.5 3.5 1.5Zm4.1 7c.4-1 .6-2.1.6-3.2a8 8 0 0 0-2.2-5.8 8.5 8.5 0 0 0-5.8-2.3c-2.1 0-4.5.8-6 2.3a8 8 0 0 0-2.4 5.9A8 8 0 0 0 7.3 19a8.5 8.5 0 0 0 11.6 0c.8-.9 1.4-1.8 1.8-2.8Z"/></svg>