<svg xmlns="http://www.w3.org/2000/svg" viewBox="0 0 1104 1104"><path fill="#1a71c0" d="M0 0h1104v1104H0V0"/><path fill="#fefefe" d="M871 217a103 103 0 0 1 46 44q18 34 10 72c-10 44-47 79-84 102a418 418 0 0 1-65 34v-1c10-11 21-23 28-36 7-10 11-22 9-34-5-32-62-37-87-37a559 559 0 0 0-69 3q-59 6-116 18l-79 17-43 10a296 296 0 0 1-37 5c-19 2-38 0-53-11-28-20-28-53-16-82a154 154 0 0 1 18-30c17-24 40-44 65-60a395 395 0 0 1 53-29c0-1 0 0 0 0a185 185 0 0 0-21 32c-13 24 21 23 34 22l30-3 66-11 99-19c41-7 83-13 125-15a419 419 0 0 1 55 0c12 1 23 4 32 9ZM378 776c-18-16-30-35-35-60s-2-49 4-73c8-33 22-66 38-96a737 737 0 0 1 73-113 277 277 0 0 1 8-10 399 399 0 0 0-72 50 501 501 0 0 0-88 99c-38 57-64 123-61 192 4 83 55 153 136 175 67 18 137 0 196-33q74-42 123-109c32-43 55-93 64-145a228 228 0 0 0 4-29c1-31-4-63-21-89-29-44-82-52-131-46s-97 23-139 49a318 318 0 0 0-35 25 324 324 0 0 1 55-25 343 343 0 0 1 65-17c43-6 101-5 111 49q3 17 0 37c-4 21-13 41-23 60a308 308 0 0 1-86 98 231 231 0 0 1-40 24c-23 11-47 17-72 16a124 124 0 0 1-74-29Z"/></svg>
