<svg xmlns="http://www.w3.org/2000/svg" width="84" height="50" fill="none"><path fill="#383838" d="M65.82 15.62c-2.42.1-4.66.95-6.47 2.3v-.11a6.58 6.58 0 0 1 5.41-6.33l.28-.03h8.51V7.2H65.65a10.79 10.79 0 0 0-10.53 10.6v.61l.04 8.06a10.8 10.8 0 0 0 10.76 10.76 10.8 10.8 0 0 0 10.65-10.86 10.78 10.78 0 0 0-10.75-10.76Zm.07 17.42a6.55 6.55 0 0 1-6.5-6.5 6.51 6.51 0 0 1 6.44-6.56 6.5 6.5 0 0 1 6.5 6.5 6.5 6.5 0 0 1-6.44 6.56ZM41.59 15.65c-5.9 0-10.7 4.86-10.7 10.8V42.8h4.22V35a11.62 11.62 0 0 0 6.48 2.27c5.89 0 10.7-4.86 10.7-10.81s-4.81-10.81-10.7-10.81Zm-.01 17.25a6.5 6.5 0 0 1-6.47-6.53c0-3.6 2.98-6.53 6.47-6.53a6.5 6.5 0 0 1 6.46 6.53 6.5 6.5 0 0 1-6.46 6.53ZM23.82 24.37h-9.96v-8.72H9.63V37.3h4.23v-8.65h9.96v8.65h4.23V15.65h-4.23v8.72Z"/></svg>