<svg xmlns="http://www.w3.org/2000/svg" viewBox="0 0 66.94 66.94"><path fill="#383838" d="M56.19 24.09c-2.42.1-4.66.95-6.47 2.3v-.11a6.58 6.58 0 0 1 5.41-6.33l.28-.03h8.51v-4.25h-7.9a10.79 10.79 0 0 0-10.53 10.6v.61l.04 8.06A10.8 10.8 0 0 0 56.29 45.7a10.8 10.8 0 0 0 10.65-10.86 10.79 10.79 0 0 0-10.75-10.76Zm.07 17.42a6.55 6.55 0 0 1-6.5-6.5 6.5 6.5 0 0 1 6.44-6.56 6.5 6.5 0 0 1 6.5 6.5 6.5 6.5 0 0 1-6.44 6.56Zm-24.3-17.39c-5.9 0-10.7 4.86-10.7 10.8v16.35h4.22v-7.8a11.65 11.65 0 0 0 6.48 2.27c5.89 0 10.7-4.86 10.7-10.81s-4.81-10.81-10.7-10.81Zm-.01 17.25a6.5 6.5 0 0 1-6.47-6.53c0-3.6 2.98-6.53 6.47-6.53a6.5 6.5 0 0 1 6.46 6.53 6.5 6.5 0 0 1-6.46 6.53Zm-17.76-8.53H4.23v-8.72H0v21.65h4.23v-8.65h9.96v8.65h4.23V24.12h-4.23v8.72Z"/></svg>
