<svg xmlns="http://www.w3.org/2000/svg" width="41" height="40" fill="none">
    <path fill="#2F9A41" d="M15.76 5.98c-3.31 0-6.2.94-8.72 2.83.63-.63 1.31-1.2 2.05-1.78a13.9 13.9 0 0 1 10.6-2.52c3.89.63 6.99 2.52 9.3 5.67a13.76 13.76 0 0 1 2.52 10.66c-.1.78-.32 1.57-.53 2.25a15.52 15.52 0 0 0 2.42-10.71c1.1 2.47 1.42 5.1.94 7.93a13.73 13.73 0 0 1-5.72 9.3c-3 2.15-6.35 3.04-10.03 2.57a9.82 9.82 0 0 1-.16-1.79c-.1-2.3.32-4.46 1.21-6.46l-1.52-.31a14.57 14.57 0 0 0-3.36 9.97c0 .48.05.9.1 1.32a14.04 14.04 0 0 1-5.2-3.36 13.71 13.71 0 0 1-4.14-10.08c0-3.94 1.42-7.3 4.15-10.08a13.71 13.71 0 0 1 10.08-4.15c.78 0 1.57.05 2.3.15a13.89 13.89 0 0 0-6.3-1.41Zm3.04 27.25c.95.36 1.94.63 3 .78 4.04.63 7.66-.2 10.97-2.62a14.4 14.4 0 0 0 5.88-9.6c.63-4-.21-7.67-2.57-10.98a14.08 14.08 0 0 0-5.2-4.47c-.05-.05-.1-.15-.16-.2A14.04 14.04 0 0 0 21.12.2c-4.05-.63-7.67.21-10.98 2.63a14.3 14.3 0 0 0-5.67 8.4A14.05 14.05 0 0 0 1 20.73c0 4.1 1.42 7.56 4.3 10.45a14.28 14.28 0 0 0 9.62 4.3c.26 1.63.73 3.15 1.52 4.52h5.98a14.23 14.23 0 0 1-3.62-6.77Z"/>
</svg>