<svg xmlns="http://www.w3.org/2000/svg" xml:space="preserve" viewBox="0 0 386.9 76.2">
  <g fill-rule="evenodd" clip-rule="evenodd">
    <path fill="#3e3935" d="m377 59.1-.5.1-.2.5-.8 10.1c0 .5-.1.8-.3 1.1-.2.3-.5.5-1 .5-.2 0-.4 0-.4.2l-.1.5v1.7l.1.5.5.1c1.2 0 2.1-.1 2.8-.3.6-.3 1.1-.7 1.4-1.4.3-.6.4-1.6.5-2.8l.5-7.5h3.7v11.3c0 .3 0 .4.2.5l.5.1h2.3l.5-.1.2-.5V59.8c0-.3 0-.5-.2-.5-.1-.1-.3-.2-.5-.1H377v-.1zM108.5 17.5c-.2-.3-.5-.4-1.1-.4H87.7c-.4 0-.8.1-1 .3-.3.2-.4.5-.4 1.1v27.7c0 .4 0 .8.3 1 .2.3.5.4 1.1.4h11.8c4 0 7-.8 9.1-2.4 2.1-1.6 3.1-4 3.1-7.4 0-3.2-1-5.6-2.9-7.2a15 15 0 0 0-9.1-2.3h-6v-5h13.9c.5 0 .8-.1 1.1-.3.2-.3.3-.6.3-1v-3.5c-.2-.5-.2-.8-.5-1zm-5 17.7c.8.5 1.2 1.4 1.1 2.5 0 1.2-.4 2.1-1.3 2.6-.8.5-2.1.8-3.9.8h-5.9v-6.7h6c1.9 0 3.2.3 4 .8zm22.2-17.7c-.3.2-.5.6-.7 1.1l-10.3 27.7c-.1.3-.2.6-.1.8.1.3.4.4.9.5h4.8c.5 0 .9 0 1.1-.3.3-.2.5-.6.7-1.1l1.3-3.7h11.3l1.3 3.7.6 1.1c.3.2.6.3 1.1.3h4.8c.5 0 .8-.2.8-.5.1-.3.1-.5 0-.8l-10.2-27.7a3 3 0 0 0-.7-1.1c-.3-.3-.7-.4-1.2-.4h-4.4c-.4 0-.8.1-1.1.4zm6.8 18.5h-6.9l3.5-10.2 3.4 10.2zM172 17.4c-.3-.2-.6-.3-1-.3h-4.5c-.4 0-.8.1-1 .3-.3.2-.4.5-.4 1.1V29h-10.3V18.4c0-.5-.1-.9-.4-1.1-.2-.2-.5-.3-1-.3h-4.5c-.4 0-.8.1-1 .3-.3.2-.4.5-.4 1.1v27.7c0 .5.1.9.4 1.1.2.2.5.3 1 .3h4.5c.5 0 .8 0 1-.3.3-.2.4-.5.4-1.1V35.8h10.3v10.4c0 .5.1.9.4 1.1.3.2.6.3 1 .3h4.5c.4 0 .8 0 1-.3.2-.2.3-.5.3-1.1V18.4c.1-.5 0-.8-.3-1zm32.6-.3h-6.3c-.5 0-.9 0-1.2.2-.3.1-.7.5-1.1.9l-9.6 10.6V18.4c0-.5-.1-.9-.3-1.1-.2-.2-.5-.3-.9-.3h-4.6c-.4 0-.8.1-1 .3-.3.2-.4.5-.4 1.1v27.7c0 .5.1.9.4 1.1.2.2.5.3 1 .3h4.6c.4 0 .7 0 .9-.3.2-.2.3-.5.3-1.1V38l2.9-3 2.1 3.5a80.3 80.3 0 0 1 3.8 6.4l.7 1.2c.3.5.6.8 1 1.1.3.3.8.4 1.3.4h5.6c.5 0 .7-.2.8-.5.1-.3 0-.7-.1-1l-10-16.4L205 18.4c.2-.2.3-.5.3-.8-.1-.3-.3-.5-.7-.5zM91.9 58.7l-2.1.3a6.2 6.2 0 0 0-3.5 2.6 6 6 0 0 0-.6 2.4v5.5c0 .9.2 1.7.6 2.4.4.7.8 1.2 1.5 1.6a7.6 7.6 0 0 0 8.2 0c.6-.4 1.1-1 1.5-1.6.4-.6.5-1.4.6-2.4V64c0-.9-.2-1.7-.6-2.4-.4-.6-.9-1.2-1.5-1.6-.6-.4-1.3-.8-2-1l-2.1-.3zm-2.6 10.4v-4.8c0-.7.3-1.3.7-1.7.5-.4 1.1-.6 1.9-.6.8 0 1.4.2 1.9.6.5.4.7 1 .7 1.7v4.8c0 .8-.3 1.3-.7 1.7-.5.4-1.1.6-1.9.6-.8 0-1.4-.2-1.9-.6-.4-.4-.7-1-.7-1.7zm22.4-10h-9.9l-.5.1-.2.5v13.9c0 .2 0 .4.2.5l.5.2h5.9c2 0 3.5-.4 4.5-1.2 1-.8 1.5-2.1 1.5-3.7s-.5-2.8-1.5-3.6c-1-.8-2.5-1.1-4.5-1.1h-3v-2.5h6.9c.3 0 .4-.1.5-.2l.1-.5v-1.8l-.1-.5-.4-.1zm-7 8.6h3c.9 0 1.6.1 1.9.4.4.3.6.7.6 1.3 0 .6-.2 1.1-.6 1.3-.4.3-1.1.4-2 .4h-2.9v-3.4zm16.1-8.6h-4.5c-.3 0-.5 0-.5.2l-.1.5v2l.1.5.5.2h1.6v11.2l.1.5.5.2h5.2c2 0 3.5-.5 4.5-1.4 1-.9 1.5-2.2 1.5-3.8 0-1.6-.5-2.9-1.6-3.8-1.1-.9-2.5-1.3-4.5-1.3h-2.2v-4.3c0-.3 0-.4-.2-.5 0-.2-.1-.3-.4-.2zm2.9 8c.9 0 1.6.2 2 .5.4.3.6.8.6 1.4 0 .6-.2 1.1-.6 1.4-.4.3-1.1.5-2 .5h-2.2V67h2.2v.1zm19.7-8h-9.9c-.3 0-.5 0-.5.2l-.2.5v13.9c0 .2 0 .4.2.5l.5.2h10.3c.3 0 .5 0 .5-.2l.1-.5v-1.9l-.1-.5a.8.8 0 0 0-.5-.2h-7.4v-3h6.2c.3 0 .5-.1.5-.2.1-.1.2-.3.1-.5v-1.8l-.1-.5a.8.8 0 0 0-.5-.2h-6.2v-2.5h7c.3 0 .4 0 .5-.2l.1-.5v-1.9l-.1-.5c-.1-.2-.3-.2-.5-.2zm15.9.1c-.1-.1-.3-.2-.5-.1h-8.9l-.5.1-.2.5-.7 9.6-.2.8c-.1.3-.3.4-.5.5a2 2 0 0 1-.9.2c-.3 0-.5.1-.5.2-.1.1-.2.3-.1.5v4c0 .3 0 .5.2.5l.5.2h1.9c.2 0 .4 0 .5-.2l.2-.5V74h8.5v1.4c0 .3 0 .5.2.5l.5.2h1.9c.2 0 .4 0 .5-.2l.2-.5v-4l-.1-.5a.8.8 0 0 0-.5-.2h-1.1v-11l-.4-.5zm-7.2 10.3.6-7.3h3.3V71h-4.8l.7-.5.2-1zm12.3-10.4-.5.1-.2.5v13.9l.1.5.5.2h2.1l.6-.2.4-.6 4.9-7.9v8c0 .3 0 .4.2.5l.5.1h2.3l.5-.1.2-.5V59.7l-.1-.5a.8.8 0 0 0-.5-.2h-2.1l-.6.2-.4.5-4.9 7.9v-8c0-.3-.1-.4-.2-.5-.1-.1-.3-.2-.5-.1h-2.3v.1zm15.8 0-.5.1-.2.5v13.9c0 .3.1.4.2.5l.5.1h2.3l.5-.1.2-.5v-5.2h5.1v5.2c0 .3.1.4.2.5l.5.1h2.3l.5-.1.2-.5V59.8c0-.3-.1-.5-.2-.5-.1-.1-.3-.2-.5-.1H189l-.5.1-.2.5V65h-5.1v-5.2c0-.3 0-.5-.2-.5-.1-.1-.3-.2-.5-.1h-2.3v-.1zm15.3.1-.2.5v13.9c0 .2 0 .4.2.5l.5.2h10.3c.3 0 .5 0 .5-.2l.1-.5v-1.9l-.1-.5a.8.8 0 0 0-.5-.2H199v-3h6.2c.3 0 .5-.1.5-.2.1-.1.2-.3.1-.5v-1.8l-.1-.5a.8.8 0 0 0-.5-.2H199v-2.5h7c.3 0 .4 0 .5-.2l.1-.5v-1.9l-.1-.5a.8.8 0 0 0-.5-.2h-10l-.5.2zm23.8-.1-.5.1-.2.5V65h-5.1v-5.2c0-.3 0-.5-.2-.5-.1-.1-.3-.2-.5-.1h-2.3l-.5.1-.2.5v13.9c0 .3.1.4.2.5l.5.1h2.3l.5-.1.2-.5v-5.2h5.1v5.2c0 .3.1.4.2.5l.5.1h2.3l.5-.1.2-.5V59.8c0-.3-.1-.5-.2-.5-.1-.1-.3-.2-.5-.1h-2.3v-.1zm15.8 0-.5.1-.2.5V65h-5.1v-5.2c0-.3 0-.5-.2-.5-.1-.1-.3-.2-.5-.1h-2.3l-.5.1-.2.5v13.9c0 .3.1.4.2.5l.5.1h2.3l.5-.1.2-.5v-5.2h5.1v5.2c0 .3.1.4.2.5l.5.1h2.3l.5-.1.2-.5V59.8c0-.3-.1-.5-.2-.5-.1-.1-.3-.2-.5-.1h-2.3v-.1zm21.2 0-.5.1-.2.5v13.9c0 .3 0 .4.2.5l.5.1h2.3l.5-.1.2-.5V59.7c0-.3 0-.4-.2-.5-.1-.1-.3-.2-.5-.1h-2.3zm-11.4.1c-.1-.1-.3-.2-.5-.1h-2.3l-.5.1-.2.5v13.9c0 .2 0 .4.2.5l.5.2h5.2c2 0 3.5-.5 4.5-1.4 1-.9 1.5-2.2 1.6-3.8 0-1.6-.5-2.9-1.6-3.8-1.1-.9-2.5-1.3-4.5-1.3h-2.2v-4.3l-.2-.5zm.2 7.9h2.2a3 3 0 0 1 1.9.5c.4.3.6.8.6 1.4 0 .6-.2 1.1-.6 1.4-.4.3-1.1.5-1.9.5h-2.2v-3.8zm29.2-8h-2.1l-.6.2-.4.5-4.9 7.9v-8c0-.3-.1-.4-.2-.5-.1-.1-.3-.2-.5-.1h-2.2l-.5.1-.2.5v13.9l.1.5.5.2h2.1l.6-.2.4-.6 4.9-7.9v8c0 .3 0 .4.2.5l.5.1h2.3l.5-.1.2-.5V59.7l-.1-.5-.6-.1zm-6.9-2a5.7 5.7 0 0 0 3.6 0c.5-.2 1-.5 1.3-1 .3-.4.5-.9.7-1.6v-.3l-.2-.2h-1.2l-.2.1-.1.2c-.2.4-.5.7-.8.9l-1.2.3-1.2-.3c-.4-.2-.7-.5-.8-.9l-.1-.2-.3-.1h-1.1l-.2.2v.3c.1.6.3 1.2.7 1.6.1.5.5.8 1.1 1zm18 2-.5.1-.2.5v13.9c0 .3 0 .4.2.5l.5.1h2.3l.5-.1.2-.5v-4.1l1.4-1.5 1.1 1.7 1.1 1.8.8 1.4.3.5c.1.3.3.4.5.5l.7.2h2.8c.2 0 .4-.1.4-.3l-.1-.5-5-8.2 5.2-5.6c.1-.1.2-.3.1-.4l-.4-.2h-3.1l-.6.1-.5.5-4.8 5.3v-5.2c0-.3 0-.4-.2-.5-.1-.1-.3-.2-.5-.1h-2.2v.1zm21.4 0h-2.2c-.3 0-.5 0-.6.2l-.4.5-5.1 13.9v.4l.4.2h2.4l.6-.1.3-.5.7-1.9h5.6l.6 1.9.3.5.5.1h2.4c.3 0 .4-.1.4-.2v-.4l-5.1-13.9c-.1-.3-.3-.4-.4-.5.1-.2-.2-.2-.4-.2zm-2.8 9.4 1.7-5.1 1.7 5.1H304zm11.6-9.4-.5.1-.2.5v13.9c0 .3.1.4.2.5l.5.1h2.3l.5-.1.2-.5V62.3h5.1v11.3c0 .3.1.4.2.5l.5.1h2.3l.5-.1.2-.5V59.8c0-.3-.1-.5-.2-.5-.1-.1-.3-.2-.5-.1h-11.1v-.1zm26.8 0h-2.1l-.6.2-.4.5-4.9 7.9v-8c0-.3-.1-.4-.2-.5-.1-.1-.3-.2-.5-.1h-2.2l-.5.1-.2.5v13.9l.1.5.5.2h2.1l.6-.2.4-.6 4.9-7.9v8c0 .3 0 .4.2.5l.5.1h2.3l.5-.1.2-.5V59.7l-.1-.5-.6-.1zm15.1.7-.1-.5a.8.8 0 0 0-.5-.2H346c-.3 0-.4 0-.5.2l-.1.5v1.9l.1.5.5.2h3.6v11.3c0 .3 0 .4.2.5l.5.1h2.3l.5-.1.2-.5V62.3h3.5c.3 0 .4 0 .5-.2l.1-.5.1-1.8zm9.3-.7h-2.2c-.3 0-.5 0-.6.2l-.4.5-5.1 13.9v.4l.4.2h2.4l.6-.1.3-.5.7-1.9h5.6l.6 1.9.3.5.5.1h2.4c.3 0 .4-.1.4-.2v-.4l-5.1-13.9c-.1-.3-.3-.4-.4-.5 0-.2-.2-.2-.4-.2zm-2.9 9.4 1.7-5.1 1.7 5.1h-3.4z"/>
      <path fill="#2f9a41" d="M28.1 11.4c-6.3 0-11.8 1.8-16.6 5.4a26.5 26.5 0 0 1 24.1-8.2 26.4 26.4 0 0 1 17.7 10.8c4.4 6.1 6 12.8 4.8 20.3a27 27 0 0 1-1 4.3 29.6 29.6 0 0 0 4.6-20.4c2.1 4.7 2.7 9.7 1.8 15.1a26.1 26.1 0 0 1-10.9 17.7 26 26 0 0 1-19.1 4.9 26.8 26.8 0 0 1 2-15.7l-2.9-.6a27.8 27.8 0 0 0-6.4 19l.2 2.5a26.7 26.7 0 0 1-9.9-6.4 26.1 26.1 0 0 1-7.9-19.2c0-7.5 2.7-13.9 7.9-19.2a26.1 26.1 0 0 1 19.2-7.9c1.5 0 3 .1 4.4.3a26.5 26.5 0 0 0-12-2.7zm5.8 51.9c1.8.7 3.7 1.2 5.7 1.5a27 27 0 0 0 20.9-5c6.2-4.6 10-10.7 11.2-18.3 1.2-7.6-.4-14.6-4.9-20.9-2.7-3.7-6-6.6-9.9-8.5l-.3-.4A26.7 26.7 0 0 0 38.3.4a27 27 0 0 0-20.9 5 27.2 27.2 0 0 0-10.8 16A26.8 26.8 0 0 0 0 39.5a27 27 0 0 0 8.2 19.9 27.2 27.2 0 0 0 18.3 8.2 25 25 0 0 0 2.9 8.6h11.4c-3.5-3.7-5.8-8-6.9-12.9z"/>
  </g>
</svg>
