<svg xmlns="http://www.w3.org/2000/svg" viewBox="0 0 94 79.4"><path fill="#34498f" d="M62.3 55.2v13.1c0 .7-.3.9-.9.5a2.5 2.5 0 0 1-1-.8L47.6 55a.6.6 0 0 0-.9 0L33.4 68.3c-1.1 1-1.6.8-1.6-.7V55.1a.5.5 0 0 0-.5-.5H18.1a.7.7 0 0 1-.7-.7c.1-.2.1-.4.3-.5l13.8-13.5a.4.4 0 0 0 0-.6L17.7 25.9l-.2-.3a1.7 1.7 0 0 1 .1-.7.7.7 0 0 1 .6-.5l13.1.2c.3.1.5-.2.5-.5V10.4a.6.6 0 0 1 1.1-.4l14 14.3h.5l13.5-14.1a.6.6 0 0 1 .7-.2.6.6 0 0 1 .6.6v13.3a.6.6 0 0 0 .6.6c4.2.1 8.2.1 12.1-.1a2.3 2.3 0 0 1 1.1.3c.3.2.4.7.1.9L62.8 38.9a.9.9 0 0 0 0 1.3l13 12.7.6.8a.6.6 0 0 1-.6.9H62.9a.5.5 0 0 0-.6.6M47.5.1l10 10.1a.5.5 0 0 1 0 .7l-10 10.3a.5.5 0 0 1-.7 0L36.5 10.9a.5.5 0 0 1 0-.7L46.8.1Zm-33.1 54a.4.4 0 0 1 .1-.3l14.2-13.9c.2-.2.2-.5 0-.6L18.4 29.2a.5.5 0 0 0-.7 0L.1 46.7 0 47v31.9a.5.5 0 0 0 .5.5h13.4a.5.5 0 0 0 .5-.4V54.1Zm65-.3.2.3v24.7a.5.5 0 0 0 .4.5h13.5a.5.5 0 0 0 .5-.5V47.2l-.1-.4-17.6-17.6a.5.5 0 0 0-.7 0l-10.1 10a.5.5 0 0 0 0 .7l13.9 13.9ZM29.7 78.6V57.1a.5.5 0 0 0-.5-.4H17.3a.5.5 0 0 0-.5.4v21.5a.5.5 0 0 0 .5.4h11.9a.5.5 0 0 0 .5-.4Zm47.4.1V57c0-.2-.2-.3-.4-.3h-12c-.2 0-.4.1-.4.3v21.7c0 .2.2.3.4.3h12c.2 0 .4-.1.4-.3Zm-44.5-6.9a.4.4 0 0 0-.1.3v6.8a.4.4 0 0 0 .4.4h28.2c.3 0 .4-.1.4-.4v-6.8l-.1-.2-14-14a.3.3 0 0 0-.5 0L32.6 71.8Z"/><path fill="#f2ed41" d="m74.1 26.4-13.3 13c-.2.1-.2.3 0 .5l13.3 12.9a.4.4 0 0 1-.2.6H61.2c-.2 0-.4.1-.4.3v12.5c0 .3-.3.5-.5.3l-12.9-13a.4.4 0 0 0-.5 0L33.6 66.6a.3.3 0 0 1-.6-.2V53.7c0-.2-.2-.3-.4-.3H20c-.3 0-.5-.4-.3-.6l13.4-13c.2-.2.2-.4 0-.5L19.5 26.1a.3.3 0 0 1 .2-.6l13 .4a.4.4 0 0 0 .4-.4V12.6a.3.3 0 0 1 .6-.2l13.2 13.2h.4L60.6 12c.2-.2.6 0 .6.3l-.4 13.2a.3.3 0 0 0 .3.3h12.7c.3 0 .5.4.3.6Z"/></svg>
