<?xml version="1.0" encoding="UTF-8"?><svg id="a" xmlns="http://www.w3.org/2000/svg" viewBox="0 0 129 24"><path d="M122.49,15.1l5.86-7.32h-5.19s-4.88,6.67-4.88,6.67l.04-14.19h-4.26s-.06,23.5-.06,23.5h4.26s.02-7.91.02-7.91l5.11,7.93,5.33.02-6.23-8.7ZM107.67,23.74h4.28s.03-11.22.03-11.22c0-2.79-1.23-5.11-4.96-5.12-2.69,0-4.63,1.3-5.64,3.2l-.03-.04v-2.86s-3.77,0-3.77,0l-.02,16.02h4.27s.02-7.71.02-7.71c0-2.8,1.67-5.17,3.83-5.17,1.57,0,2.03,1,2.03,2.67l-.03,10.24ZM91.72,23.7h3.77c0-.31,0-3.14,0-3.14l.02-7.63c0-3.5-1.47-5.56-6.8-5.57-2.13,0-4.27.4-5.94.97l.36,3.45c1.4-.77,3.4-1.25,4.9-1.24,2.4,0,3.23.88,3.22,2.55v.86c-5.62-.02-9.56,2-9.58,5.83,0,2.57,1.72,4.22,4.71,4.23,2.46,0,4.5-1.24,5.31-3.04h.03v2.74ZM91.24,17c0,1.93-1.44,3.85-3.54,3.85-1.23,0-1.97-.68-1.96-1.71,0-1.28,1.01-2.54,5.5-2.53v.39ZM81,14.85c.02-4.73-2.11-7.52-6.07-7.54-2.14,0-3.85.91-4.77,2.39v-2.66s.02-4.91.02-4.91V.12s-4.27-.01-4.27-.01l-.06,23.06c1.89.52,3.77.78,6.17.79,5.7.02,8.97-3.71,8.99-9.12ZM76.5,15.26c0,3.95-1.75,5.43-4.17,5.42-.9,0-1.6-.1-2.2-.3v-4.5c.02-2.67,1.36-5.14,3.56-5.14,1.94,0,2.83,1.52,2.82,4.51ZM59.56,23.61h3.77c0-.31,0-3.14,0-3.14l.02-7.63c0-3.5-1.48-5.56-6.8-5.58-2.13,0-4.26.4-5.93.97l.36,3.45c1.4-.77,3.4-1.25,4.89-1.24,2.4,0,3.23.88,3.22,2.56v.86c-5.62-.02-9.56,2-9.57,5.83,0,2.57,1.72,4.22,4.71,4.23,2.47,0,4.5-1.24,5.31-3.04h.04v2.74ZM59.07,16.91c0,1.93-1.44,3.85-3.54,3.85-1.23,0-1.95-.68-1.95-1.71,0-1.29,1-2.54,5.49-2.53v.39ZM48.23,16.24c.1-.68.14-1.32.14-1.87,0-3.96-2.11-7.14-6.94-7.15-4.96-.01-7.77,3.57-7.78,8.46-.02,5.62,2.91,8.18,8.16,8.19,2.07,0,4.17-.35,5.92-1.01l-.39-3.19c-1.43.64-3.2.99-4.82.99-3.07,0-4.59-1.46-4.55-4.45l10.25.03ZM44.15,13.43h-6.09c.23-1.95,1.47-3.2,3.24-3.19,1.79,0,2.92,1.2,2.85,3.19ZM28.44,23.52h3.8S32.31.01,32.31.01h-4.28s-.02,7.29-.02,7.29c-.72-.1-1.39-.13-2.09-.13-5.49-.02-8.76,3.7-8.78,9.11-.01,4.56,1.97,7.53,6,7.54,2.53,0,4.36-1.24,5.23-3.01h.07s0,2.71,0,2.71ZM27.99,15.19c0,2.73-1.35,5.24-3.57,5.23-1.93,0-2.83-1.55-2.82-4.55.01-3.95,1.75-5.43,4.18-5.42.74,0,1.47.1,2.23.27v4.46ZM16.21,15.17c.02-5.5-3.01-8.03-7.71-8.04C3.46,7.11.02,10.7,0,15.7c-.02,5.7,3.01,8.07,7.71,8.08,4.97.02,8.48-3.59,8.49-8.61ZM11.81,15.38c-.01,3.26-1.62,4.9-3.72,4.89-2.47,0-3.71-1.68-3.7-4.97,0-3.29,1.88-4.7,3.79-4.7,2.5,0,3.63,1.69,3.63,4.78Z" fill="#2d353c" fill-rule="evenodd" stroke-width="0"/></svg>