<svg xmlns="http://www.w3.org/2000/svg" viewBox="0 0 129 24">
  <path d="m122.5 15.1 5.8-7.3h-5.1l-5 6.6.1-14.1h-4.2l-.1 23.5h4.3v-8l5 8h5.4l-6.2-8.7Zm-14.8 8.6h4.2V12.5c0-2.8-1.2-5-4.9-5.1a6.1 6.1 0 0 0-5.6 3.2V7.7h-3.8v16h4.2V16c0-2.8 1.7-5.2 3.9-5.2 1.5 0 2 1 2 2.7v10.2Zm-16 0h3.8V12.9c0-3.5-1.5-5.5-6.8-5.5a19 19 0 0 0-6 1l.4 3.4a11 11 0 0 1 5-1.3c2.3 0 3.2 1 3.1 2.6v.9c-5.6 0-9.5 2-9.5 5.8 0 2.6 1.7 4.2 4.7 4.2 2.4 0 4.5-1.2 5.3-3v2.7Zm-.5-6.7c0 2-1.4 3.9-3.5 3.9-1.2 0-2-.7-2-1.8 0-1.2 1-2.5 5.5-2.5v.4ZM81 14.8c0-4.7-2.1-7.5-6-7.5-2.2 0-4 1-4.8 2.4V.1h-4.3v23c1.8.6 3.7.8 6.1.9 5.7 0 9-3.8 9-9.2Zm-4.5.5c0 4-1.8 5.4-4.2 5.4-.9 0-1.6-.1-2.2-.3v-4.5c0-2.7 1.4-5.2 3.6-5.2 2 0 2.8 1.6 2.8 4.5Zm-17 8.3h3.8V12.8c0-3.5-1.4-5.5-6.7-5.5a19 19 0 0 0-6 1l.4 3.4a11 11 0 0 1 4.9-1.3c2.4 0 3.2 1 3.2 2.6v.9c-5.6 0-9.6 2-9.6 5.8 0 2.6 1.7 4.2 4.7 4.2 2.5 0 4.5-1.2 5.3-3v2.7Zm-.4-6.7c0 2-1.5 3.9-3.6 3.9-1.2 0-2-.7-2-1.7 0-1.3 1-2.6 5.6-2.6v.4Zm-10.9-.7a13 13 0 0 0 .2-1.8c0-4-2.1-7.2-7-7.2-5 0-7.7 3.6-7.7 8.5 0 5.6 2.9 8.2 8.1 8.2 2 0 4.2-.4 6-1l-.5-3.2c-1.4.6-3.2 1-4.8 1-3 0-4.6-1.5-4.5-4.5h10.2Zm-4-2.8H38c.2-2 1.4-3.2 3.2-3.2 1.8 0 3 1.2 2.9 3.2ZM28.4 23.5h3.8L32.3 0H28v7.3l-2-.1c-5.6 0-8.8 3.7-8.9 9 0 4.6 2 7.6 6 7.6 2.6 0 4.4-1.2 5.3-3v2.7Zm-.4-8.3c0 2.7-1.4 5.2-3.6 5.2-2 0-2.8-1.5-2.8-4.5 0-4 1.8-5.5 4.2-5.4.7 0 1.5 0 2.2.2v4.5Zm-11.8 0c0-5.5-3-8-7.7-8-5 0-8.5 3.5-8.5 8.5 0 5.7 3 8 7.7 8 5 .1 8.5-3.5 8.5-8.5Zm-4.4.2c0 3.2-1.6 4.9-3.7 4.9-2.5 0-3.7-1.7-3.7-5s1.9-4.7 3.8-4.7c2.5 0 3.6 1.7 3.6 4.8Z" fill="#2d353c" fill-rule="evenodd"/>
</svg>
