<svg xmlns="http://www.w3.org/2000/svg" viewBox="0 0 306.7 306.7" width="306.7" height="306.7">
    <path fill="#d1aa3b" d="M299.3 147.3c-5.7-4.8-9.9-11.3-14-17.5a83.3 83.3 0 0 0-19-23.3c.3-2.6.3-5.3.3-8-.2-7.7-1.7-14.4-3.3-21.9-1.5-7.2-3.2-14.8-2.5-22.2l1-9.5-9.5 1c-7.4.7-15-1-22.2-2.6-7.5-1.5-14.2-3-22-3.2-2.6 0-5.3 0-8 .2-1.6-2-3.5-4-5.5-5.8-5.5-5.3-11.3-9-17.7-13.2-6.2-4-12.8-8.2-17.5-14l-6-7.3-6 7.4c-4.7 5.7-11.3 9.9-17.5 13.9-6.4 4.2-12.2 7.9-17.8 13.2-2 1.9-3.8 3.8-5.5 5.8-2.6-.2-5.3-.2-8-.2-7.7.1-14.4 1.7-21.9 3.2-7.2 1.6-14.8 3.3-22.2 2.5L45 45l1 9.5c.7 7.4-1 15-2.6 22.2-1.5 7.5-3 14.2-3.2 21.9 0 2.7 0 5.4.2 8-2 1.7-4 3.6-5.8 5.5-5.3 5.6-9 11.4-13.2 17.8-4 6.2-8.2 12.8-14 17.5l-7.4 6 7.3 6c5.8 4.8 10 11.3 14 17.5 4.1 6.4 7.8 12.3 13.2 17.8 1.9 2 3.8 3.8 5.8 5.5-.2 2.7-.3 5.3-.2 8 .1 7.7 1.6 14.5 3.2 22a68.6 68.6 0 0 1 2.5 22.1l-.9 9.5 9.5-1c7.4-.6 15 1 22.2 2.6 7.5 1.6 14.2 3.1 21.9 3.2l8-.1c1.7 2 3.6 3.8 5.5 5.7 5.6 5.4 11.4 9 17.8 13.2 6.2 4 12.7 8.2 17.5 14l6 7.3 6-7.3c4.8-5.8 11.3-10 17.5-14 6.4-4.1 12.3-7.8 17.8-13.2 2-1.9 3.8-3.8 5.5-5.7 2.7.1 5.3.2 8 .1 7.7-.1 14.5-1.6 22-3.2 7.1-1.5 14.7-3.2 22.1-2.5l9.5 1-1-9.6c-.6-7.4 1-15 2.6-22.2a91.9 91.9 0 0 0 3-29.9c2-1.7 4-3.5 5.8-5.5 5.4-5.5 9-11.4 13.2-17.8 4-6.2 8.2-12.7 14-17.5l7.3-6Zm-85.7 8.4c16.2 3.5 31.7 21.9 36 37.5-14.1 8-38 10-52 1.1l-9.2-6 6 9.3c9 14 7 37.9-1.2 52-15.6-4.3-34-19.8-37.5-36l-2.3-10.8-2.4 10.8c-3.5 16.2-21.9 31.7-37.5 36-8-14.1-10-38-1.1-52l6-9.2-9.3 6c-14 9-37.9 7-52-1.2 4.3-15.6 19.8-34 36-37.5l10.8-2.3-10.8-2.4c-16.2-3.5-31.7-21.9-36-37.5 14-8 38-10 52-1.1l9.2 6-6-9.3c-9-14-7-37.9 1.1-52 15.7 4.3 34 19.8 37.5 36l2.4 10.8 2.3-10.7c3.6-16.2 22-31.7 37.6-36 8 14 10 38 1 52l-6 9.2 9.3-6c14-9 38-7 52 1.1-4.3 15.7-19.8 34-36 37.5l-10.7 2.4Zm31.5-94.1a124.1 124.1 0 0 0 2.6 18.2c1.2 6 2.7 11 3.3 16.8l-1.2-.5a60.4 60.4 0 0 0-35-4.3c2.5-11 .3-25.1-4.2-34.9l-.6-1.2c5.9.6 11 2 17 3.3a124.3 124.3 0 0 0 18 2.6Zm-106.5-27a124.5 124.5 0 0 0 14.7-11 124.4 124.4 0 0 0 14.7 11c5.1 3.4 9.8 5.9 14.3 9.6l-1.3.5a60.6 60.6 0 0 0-27.7 21.6 60.5 60.5 0 0 0-27.7-21.6l-1.2-.5c4.5-3.7 9.2-6.2 14.2-9.6ZM59 79.8a122.8 122.8 0 0 0 2.6-18.2A124.3 124.3 0 0 0 79.8 59c6-1.2 11-2.7 16.8-3.3l-.5 1.2a60.5 60.5 0 0 0-4.3 35A60.5 60.5 0 0 0 57 96l-1.2.6c.6-5.9 2-11 3.3-17ZM34.6 168a124.4 124.4 0 0 0-11-14.7 124.5 124.5 0 0 0 11-14.7c3.4-5 5.9-9.7 9.6-14.2l.5 1.2a60.5 60.5 0 0 0 21.6 27.7A61 61 0 0 0 44.7 181l-.5 1.3c-3.7-4.5-6.2-9.2-9.6-14.3Zm27 77a122.8 122.8 0 0 0-2.6-18c-1.2-6-2.7-11.2-3.2-17l1.2.6a60.5 60.5 0 0 0 34.9 4.3 60.5 60.5 0 0 0 4.2 34.9l.6 1.2c-5.8-.6-11-2.1-16.9-3.3a124.3 124.3 0 0 0-18.2-2.6ZM168 272.1a124.4 124.4 0 0 0-14.7 11 124.5 124.5 0 0 0-14.7-11c-5-3.4-9.7-5.9-14.2-9.6l1.2-.5a60.5 60.5 0 0 0 27.7-21.6A61 61 0 0 0 181 262l1.3.5c-4.5 3.7-9.2 6.2-14.3 9.6Zm79.7-45.2a124.2 124.2 0 0 0-2.7 18.2 124.3 124.3 0 0 0-18.1 2.6c-6 1.2-11 2.7-16.9 3.3l.6-1.2a60.6 60.6 0 0 0 4.2-35c11.1 2.5 25.1.3 35-4.2l1.2-.6c-.6 5.8-2.1 11-3.3 17Zm24.4-58.8c-3.4 5-6 9.7-9.7 14.2l-.4-1.3a60.4 60.4 0 0 0-21.7-27.7 60.5 60.5 0 0 0 21.7-27.6l.4-1.3c3.8 4.5 6.3 9.2 9.7 14.2a122.6 122.6 0 0 0 11 14.7 121.5 121.5 0 0 0-11 14.8Z"/>
</svg>