<svg xmlns="http://www.w3.org/2000/svg" width="40" height="40" fill="none"><path fill="#2F9A41" d="M15.8 6C12.4 6 9.6 7 7 8.8L9 7a14 14 0 0 1 10.7-2.5c3.9.6 7 2.5 9.3 5.7 2.3 3.2 3.1 6.7 2.5 10.6l-.5 2.3a15.5 15.5 0 0 0 2.4-10.7c1.1 2.5 1.4 5 1 8-.7 3.8-2.6 6.9-5.8 9.2-3 2.2-6.3 3-10 2.6l-.2-1.8a14 14 0 0 1 1.2-6.5l-1.5-.3a14.6 14.6 0 0 0-3.3 10v1.3a14 14 0 0 1-5.1-3.4 13.7 13.7 0 0 1-4.2-10c0-4 1.4-7.3 4.2-10.1 2.7-2.8 6.1-4.2 10-4.2.8 0 1.6 0 2.4.2-2-1-4-1.4-6.3-1.4Zm3 27.2c1 .4 2 .7 3 .8 4 .6 7.7-.2 11-2.6 3.2-2.4 5.2-5.6 5.8-9.6.7-4-.2-7.7-2.5-11a14 14 0 0 0-5.2-4.5l-.2-.2A14 14 0 0 0 21.1.2c-4-.6-7.7.2-11 2.6-2.9 2.2-4.8 5-5.6 8.4A14 14 0 0 0 1 20.7c0 4.1 1.4 7.6 4.3 10.5 2.7 2.7 5.9 4 9.6 4.3.3 1.6.8 3.1 1.5 4.5h6c-1.8-2-3-4.2-3.6-6.8Z"/></svg>
