<svg xmlns="http://www.w3.org/2000/svg" viewBox="0 0 109.3 260.8"><path fill="#205a80" d="m74.8 11.5-6.3-5.2a.6.6 0 0 1 0-.9L74.9.1a.5.5 0 0 1 .7 0L82 5.4a.6.6 0 0 1 0 .8l-6.4 5.3a.5.5 0 0 1-.7 0Zm16.8 7.9a.5.5 0 0 1 0 .7L80 29a.5.5 0 0 1-.6 0L75 25.6a.5.5 0 0 0-.6 0l-4.2 3.2a.5.5 0 0 1-.6 0l-11.6-8.6a.5.5 0 0 1 0-.8l3.5-2.8a.5.5 0 0 1 .6 0L68 21a.5.5 0 0 0 .5 0l5.4-3.5a.5.5 0 0 0 0-.8L62 7.7a.5.5 0 0 0-.6 0L46.6 19.6a.5.5 0 0 0 0 .7l23.2 17.2a.5.5 0 0 0 .6 0l4-3.1a.5.5 0 0 1 .6 0l4.3 3.3a.5.5 0 0 0 .6 0l23.3-17.3a.5.5 0 0 0 0-.8L88.6 7.8a.5.5 0 0 0-.6 0l-11.8 8.8a.5.5 0 0 0 0 .8l5.3 3.7a.5.5 0 0 0 .5 0l5.8-4.4a.5.5 0 0 1 .6 0l3.2 2.7Zm6.2 36.9v100.6a3.5 3.5 0 0 1-.8 2.3l-61.6 72.3a3.9 3.9 0 0 0-1 2.5v20.7a1.1 1.1 0 0 0 .6 1 47.6 47.6 0 0 0 10.2 5.1.6.6 0 0 0 .8-.6V250c.3-11.6 17-11.4 17.2-.4v10.5a.7.7 0 0 0 1 .7l44.1-22a1.5 1.5 0 0 0 .9-1.4V44.7a1.1 1.1 0 0 0-1.1-1.1q-26.9-.2-59.2 0a28.3 28.3 0 0 0-8 1 17 17 0 0 0-11.5 20.6c2 7.7 9 12.7 17 12.7H91a1 1 0 0 0 1.1-1v-9.2a1.3 1.3 0 0 0-1.3-1.2q-20.5-.2-43 0c-3.5 0-7-1.2-7.2-5.3-.3-6 4.4-6.2 9-6.2h47a1 1 0 0 1 1.3 1.2M69.6 246.3a.5.5 0 0 1-.7-.3 18.8 18.8 0 0 0-8-11.7c-3.2-2-7.2-1.8-10.8-1.2-.5.1-.6 0-.3-.5L97 176.3a.6.6 0 0 1 .3-.2.4.4 0 0 1 .5.3v55.3a1.6 1.6 0 0 1-1 1.4l-27.2 13.2Zm-22.2-95a12.5 12.5 0 0 1-1.5-4 .9.9 0 0 0-.9-.6H.3c-.2 0-.3 0-.3.2v90.5a1.2 1.2 0 0 0 .7 1l10 5.3a.5.5 0 0 0 .8-.5v-15a3.6 3.6 0 0 1 .9-2.4L74 153.4a3.4 3.4 0 0 0 .8-2.2V84.8a1.1 1.1 0 0 0-1.1-1h-9.1a1 1 0 0 0-1.3 1.2v60.6a14.4 14.4 0 0 1-.2 2.8c-1.6 7.9-11.3 9-15.7 3m1.5 13.2a.4.4 0 0 1 .3.6l-36.8 43.9c-.6.7-.9.6-.9-.4v-50.3a.3.3 0 0 1 .3-.2H38a1 1 0 0 1 .9.5 11 11 0 0 0 10 5.9Zm31.3-11.9a5.6 5.6 0 0 1-.7 1l-61 71.7a5 5 0 0 0-1.3 3.4v17a1.3 1.3 0 0 0 .8 1.1l10 5.1a.5.5 0 0 0 .7-.4V234a3.9 3.9 0 0 1 1-2.5L91 159.3a4 4 0 0 0 1-2.6V84.8a1 1 0 0 0-1.2-1.1h-9.1a1.2 1.2 0 0 0-1.3 1.2v66.3a3 3 0 0 1-.3 1.5Z"/></svg>
