<svg xmlns="http://www.w3.org/2000/svg" viewBox="0 0 34.7 34.7"><path stroke="#fff" stroke-width=".87" d="m13.74 16.59-3.16-13.2-.13-.54-.49.26a16.04 16.04 0 0 0-.01 28.48l.49.26.13-.54 3.16-13.2c.12-.5.12-1.02 0-1.52h.01Z"/><path fill="#ec1c24" stroke="#fff" stroke-width=".87" d="M17.66 1.3c-2.72-.05-5.29.58-7.55 1.72l-.58.29.49.42 15.73 13.61-15.73 13.61-.49.42.58.29a16.06 16.06 0 0 0 23.28-14.68 16.1 16.1 0 0 0-15.73-15.7v.02Z"/><path fill="#fefefe" d="M17.35 0a17.3 17.3 0 0 1 12.27 5.08c3.14 3.14 5.08 7.48 5.08 12.27s-1.94 9.12-5.08 12.26a17.32 17.32 0 0 1-24.53.01C1.94 26.48 0 22.14 0 17.35S1.94 8.22 5.08 5.09A17.27 17.27 0 0 1 17.35 0Zm10.91 6.44a15.39 15.39 0 0 0-21.82 0 15.39 15.39 0 0 0 0 21.82 15.39 15.39 0 0 0 21.82 0 15.39 15.39 0 0 0 0-21.82Z"/><path fill="#fefefe" d="M13.04 17.35 9.54 32.1l17.35-14.75L9.54 2.6l3.5 14.75Z"/><path d="M.87 17.35A16.8 16.8 0 0 0 9.54 32.1l3.47-14.75H.87Z"/><path fill-rule="evenodd" d="M9.52 2.61A16.8 16.8 0 0 0 .87 17.35h12.14L9.54 2.61h-.02Z"/><path fill="#ec1c24" fill-rule="evenodd" d="M26.66 17.35h7.18A16.48 16.48 0 0 0 9.54 2.84l.02.07 17.09 14.44Zm0 0L9.56 31.78l-.02.08a16.47 16.47 0 0 0 24.29-14.51h-7.18Z"/></svg>
