<svg xmlns="http://www.w3.org/2000/svg" width="40" height="40" fill="none"><path fill="#005BFF" d="M0 0h40v40H0z"/><path fill="#F91155" fill-rule="evenodd" d="M40 26.4V40H7.5V20a22 22 0 0 1 11.1-7c3.4-.9 6.7-1 9.7-.6L37.2 23l2 2.5.8.9Z" clip-rule="evenodd"/><path fill="#fff" fill-rule="evenodd" d="M8.6 23.5c.9 3 6.7 5.1 13.3 3.3 6.5-1.9 10.4-6.7 9.6-9.8-.9-3-6.7-5-13.3-3.2-6.5 1.8-10.5 6.6-9.6 9.7ZM2.9 25C.9 18.4 7 10.7 16.6 8c9.5-2.7 18.7.6 20.6 7.3 2 6.8-4.2 14.4-13.7 17-9.5 2.7-18.7-.6-20.6-7.3Z" clip-rule="evenodd"/></svg>
