<svg xmlns="http://www.w3.org/2000/svg" width="155" height="24">
    <path fill="#005bff" d="M17.79 15.29c0 5.08-3.76 8.58-8.9 8.58-5.13 0-8.89-3.5-8.89-8.58S3.76 6.7 8.9 6.7c5.13 0 8.89 3.5 8.89 8.58Zm34.67 0c0 5.08-3.77 8.58-8.9 8.58-5.13 0-8.9-3.5-8.9-8.58s3.77-8.58 8.9-8.58c5.13 0 8.9 3.5 8.9 8.58Zm18.1-1.88v9.9h-4.33v-8.99c0-2.59-1.22-3.65-3.3-3.65-2.19 0-3.76 1.21-3.76 4.72v7.92h-4.32V7.21h4.27v2.44h.1a5.84 5.84 0 0 1 5.23-2.95c3.5 0 6.1 1.93 6.1 6.7Zm65.12-6.2v16.1h-4.32v-6.5h-6.91v6.5h-4.32V7.21h4.32v5.84h6.91V7.21h4.32Zm-23.53 0v2.34h-.1c-.76-1.63-2.8-2.85-5.39-2.85-4.22 0-7.68 3.05-7.68 8.54 0 5.53 3.36 8.63 7.68 8.63 2.64 0 4.52-1.22 5.39-2.74h.1v2.18h4.32V7.21h-4.32Zm-22.87-.15c-2.65 0-4.68 1.22-5.75 3.15h-.1c.15-3.56 1.37-5.08 5.54-5.49l6.46-.6V0l-7.17.56c-7.01.56-9.1 5.33-9.1 12.95 0 6.75 3.92 10.36 9 10.36 5.03 0 8.9-3.6 8.9-8.63 0-5.03-3.51-8.18-7.78-8.18Zm-69.91.15v3.66h8.48l-8.69 8.99v3.45H33.6v-3.66h-9.1l8.7-9.04v-3.4H19.36Zm88.4 12.75c-2.58 0-4.26-1.93-4.26-4.62 0-2.75 1.68-4.73 4.27-4.73s4.37 1.93 4.37 4.68c0 2.69-1.78 4.67-4.37 4.67ZM4.53 15.29c0 2.79 1.73 4.62 4.37 4.62 2.65 0 4.38-1.83 4.38-4.62 0-2.8-1.73-4.62-4.38-4.62-2.64 0-4.37 1.82-4.37 4.62Zm34.67 0c0 2.79 1.73 4.62 4.37 4.62s4.37-1.83 4.37-4.62c0-2.8-1.73-4.62-4.37-4.62s-4.37 1.82-4.37 4.62Zm48.92 4.67c-2.5 0-4.43-1.88-4.43-4.67 0-2.85 1.93-4.52 4.43-4.52 2.49 0 4.42 1.67 4.42 4.52 0 2.79-1.93 4.67-4.42 4.67Zm61.4 3.35-5.84-7.72v7.72h-4.32V7.21h4.32v6.65l5.38-6.65h5.34l-6.6 7.31 7.21 8.79h-5.49Z"/>
</svg>