<svg xmlns="http://www.w3.org/2000/svg" xmlns:xlink="http://www.w3.org/1999/xlink" width="122" height="60">
    <defs>
        <path id="a" d="M0 59.3h121.7V0H0z"/>
    </defs>
    <g fill="none" fill-rule="evenodd">
        <path fill="#001689" d="M0 59.7h59V.3H0z"/>
        <path fill="#FFF" d="M17.9 19.5c.4 1 1.1 2 3 3.3.5.3 1 1 .6 1.8-.3.9-1 2.1-.6 2.6s1.9.7 3 .2c0 0 .3.8.8 1.3 0 0-.2.4-1 .2 0 0 .3.6 0 1.3 0 0-.8-.1-1.2-.9 0 0-.3.6-1 .8 0 0-.5-.3-.3-1.3 0 0-.4 1-1.6 1 0 0-.7-.8.2-2 0 0-.7.6-1.8.3 0 0-.2-.6.8-1.4 0 0-1.2 0-1.6-1 0 0 .5-.7 1.7-.6 0 0-1.1-.2-1.4-1.6 0 0 .9-.5 2.2.3l-.8-.9c-.6-.4-1.2-1.6-1-3.4zm4.8 13.9a3.2 3.2 0 0 1-.4-.7c.2 1.7.3 2.8 1.2 4 0 0 .5-.8.2-2.6a1.7 1.7 0 0 1-.5-.2s.2.7 0 1.4c0 0-.3-.2-.5-1.9m-1.6-.2a5.3 5.3 0 0 1-.4-.6c0 1-.3 3.5.5 4.3 0 0 .6-.4.8-4.1l-.4.5s.1 1.2-.3 2c0 0-.4-.3-.2-2m-2 1.9c.7-.9 1-3.5 1-3.5l.2-.2h.1v.2c0 1.6-.2 3.2-.6 4-.5.7-1.4 1.2-1.4 1.2-.8-1.5.2-3.5 1-4.8l.3-.2c-.3 1-.8 2.3-.6 3.3m-2-4.5a1.2 1.2 0 0 0 0 .5c-.6.6-1.1 1.3-2.1 2.7a3.6 3.6 0 0 1-2.7 1.5c.2-1.2.5-2 1.4-3 .8-1 2-2 2.7-2.5a1.5 1.5 0 0 0 1 0 1.2 1.2 0 0 0-.3.5c-.6.4-2.4 1.3-3 2.7 0 0 1-.3 3-2.4m-1.3-1.4V29h.1c-.6.2-3 1-3.7 1.5-.8.4-1.9 1.3-2.5 3.1 0 0 1.6.2 2.9-1 1.3-1 2.8-2.6 3.5-3a1 1 0 0 1-.2-.2s-1.7 1.6-3.6 2.3c0 0 .4-.8 1.1-1.3 1-.7 1.6-.9 2.4-1.2m-1.3-1.1V28c-.7.2-2.7.4-3.6.7-.8.2-2.4.9-3.3 2.7 0 0 1.3.4 4-.8 2.5-1.3 3.3-1.5 3.8-1.6a1.8 1.8 0 0 1-.8-.3c-1 .5-2.4 1-3.8 1l1.4-.7a8 8 0 0 1 2.3-.8m0-1.3.8.2a2 2 0 0 0-.5.5c-1 .2-2.5.5-5 .7-2.6.2-4-.3-4-.3l3.3-1.3c1-.2 3.5-.1 4.6-.3l.4.3c-1 0-3 .1-4 .7 0 0 2 .2 4.4-.5m-.2-1.5.5-.2c-1.3-.4-3-1-5.7-1.2-2-.1-3.4 0-4.1.2 0 0 1.7 1.2 3.8 1.7 2 .4 3.7.1 4.9.2 0-.2.2-.3.3-.4-1.4 0-3.8-.4-4.6-.7 0 0 2-.4 5 .4m0-1.5s0 .8 1 1.2c-1.9-.8-5.5-1.3-7.4-2.1-2.6-1-3-2.4-3-2.4 2.2-.1 4 .4 5.4.9l5 1.8a2 2 0 0 0-1 .3 27 27 0 0 0-2.9-1l-2-.3s.7.5 2 1l2.8.6m-.1-2 .4.6a13 13 0 0 1-7-4c-1-1.4-.7-3.4-.7-3.4.9.1 3 2 3.5 2.5l3.2 3 .4 1a119.4 119.4 0 0 0-2.8-2.2c-.5-.4-1.4-1-2.2-1.3a10.4 10.4 0 0 0 3.4 2.8l1.8 1"/>
        <path fill="#FFF" d="M22.3 30a2.8 2.8 0 0 0 .2-.2c.1.1.6.7.8 1.2l.4 1.5.5 1.4s-.7.1-1.2-.5-.7-1.2-.7-1.8c-.1-.5 0-1.2 0-1.6m-1.1 0 .2.3h.5l.1.6v1.3c-.1.5-.4.8-.6 1l-.6-1c-.1-.4-.2-1 0-1.4.1-.3.2-.6.4-.7m-1.6 0a2.3 2.3 0 0 0 1-.4c.2.2.2.4.2.7-.1.3-.3.7-.6 1-.5.3-1.1.7-1.8.5 0 0-.2-.5 1.2-1.8m-.5-.9c0 .5.3.8.3.8-.2.2-.8 1.2-2 1 0 0-.3-.6.5-1.2l1.2-.6m0-.8a2.6 2.6 0 0 1-1.2 0h-.1v-.2c-.7.5-1.5.6-1.7 1 0 0 .3.6 1.1.6a2.7 2.7 0 0 0 1.9-1v-.4m-1.3-.8.4-.7a4.3 4.3 0 0 0-1.7 0c-.7.2-1.5.4-1.9 1.5 0 0 .5.4 1.4.3.7-.2 1.4-.5 1.8-1m-.4-1.3a2 2 0 0 1-.4-.7l-.1-.1c-.7-.3-1.3-.4-2-.2-.7.3-.9.6-1 .8 0 0 .7.6 1.6.7.8 0 1.6-.3 2-.5m.1-1.4h.4a2.3 2.3 0 0 1-.7-1.3H16c-.3-.2-1-.2-1.4.1 0 0 .1.9 1.2 1.2 1 .3 1.4.2 1.8 0m-.4-1.6.2-.1s.3-.2.7-.2c-.4-.3-1.2-1-1.8-1.3a9 9 0 0 0-2.3-1s.5 1.4 1.1 2c.7.5 1 .7 2.1.6m1.2-.6a4 4 0 0 1-.7-1.4c0-.5-.4-1.6-.5-1.9-.2-.3-.8-1.3-2-1.6 0 0-.3 1.3.3 2.4.5.9 1.5 1.8 2.9 2.5m6.5 6.1c.1.2.2.3.5.4 0 0 .4.7 0 1.6-.5.9-1 1.7-1 2.2 0 0-.3 0-.6-1.4-.2-.9-.4-1.1-.7-1.4l.5.1h.2a1.9 1.9 0 0 0 .3-1.2c.4 0 .6-.2.7-.3"/>
        <path fill="#FFF" d="M14.9 18.5a7 7 0 0 0 0 .4v.3l-2.3-3-1.5-1.4a7 7 0 0 0 1.7 2.8c.6.5 1.3 1.3 2.1 1.8v.3l.4.7.7 1a13 13 0 0 0-.8-.4l-.2-.1a14 14 0 0 1-5-5.1c-1-1.6-.6-3.5-.4-4.6a21.4 21.4 0 0 1 5.3 7.2m29.7 7a2.9 2.9 0 0 0-.5-.2c1.3-.4 3.1-1 5.8-1.2 2-.1 3.4 0 4 .2 0 0-1.7 1.2-3.7 1.7-2 .4-3.7.1-5 .2a2.1 2.1 0 0 0-.3-.4c1.5 0 3.8-.4 4.7-.7 0 0-2-.4-5 .4m0-1.5s-.1.8-1 1.2c1.8-.8 5.4-1.3 7.3-2.1 2.6-1 3.1-2.4 3.1-2.4-2.2-.1-4 .4-5.5.9l-5 1.8c.4 0 .7.1 1 .3a27 27 0 0 1 3-1l2-.3-2 1-2.9.6m.2-2-.4.6a13 13 0 0 0 7-4c1-1.4.7-3.4.7-3.4-1 .1-3 2-3.5 2.5l-3.3 3-.3 1 2.7-2.2c.6-.4 1.4-1 2.2-1.3 0 0-.7 1-1.3 1.5a14.7 14.7 0 0 1-2 1.3l-1.8 1m-.7-3.4v.7l2.3-3 1.5-1.4a7.1 7.1 0 0 1-1.8 2.8l-2 1.8-.1.3-.3.7a5 5 0 0 1-.7 1l.7-.4.3-.1a14 14 0 0 0 5-5.1c.9-1.6.5-3.5.3-4.6a21.5 21.5 0 0 0-5.2 7.2m-26.5 13c-.9.8-2.7 2.8-2.6 5 0 0 1.8-.6 2.5-1.9.7-1.2 1.1-2 1.4-2.3a2 2 0 0 1-.6 0h-.1c-.5.8-1.3 2-2 2.5 0 0-.3-1 2-3.2l.1-.3a2 2 0 0 1-.7.1m23.5-11.8c-.5 1-1.2 2-3.1 3.3-.5.3-1 1-.6 1.8.4.9 1 2.1.6 2.6s-1.8.7-3 .2c0 0-.3.8-.7 1.3 0 0 .2.4.9.2 0 0-.3.6 0 1.3 0 0 .9-.1 1.2-.9 0 0 .3.6 1 .8 0 0 .5-.3.4-1.3 0 0 .4 1 1.6 1 0 0 .7-.8-.2-2 0 0 .6.6 1.8.3 0 0 .2-.6-.9-1.4 0 0 1.2 0 1.7-1 0 0-.5-.7-1.8-.6 0 0 1.2-.2 1.4-1.6 0 0-.8-.5-2.1.3 0 0 .2-.4.8-.9.5-.4 1.2-1.6 1-3.4m-4.8 13.9a3.6 3.6 0 0 0 .4-.7c-.2 1.7-.3 2.8-1.2 4 0 0-.6-.8-.2-2.6l.5-.2s-.2.7-.1 1.4c0 0 .3-.2.6-1.9m1.5-.2.4-.6c.1 1 .4 3.5-.5 4.3 0 0-.6-.4-.8-4.1l.5.5s-.2 1.2.2 2c0 0 .5-.3.2-2m2 1.9c-.7-.9-.9-3.5-.9-3.5a3.7 3.7 0 0 1-.4-.3v.3c0 1.6.2 3.2.7 4 .5.7 1.3 1.2 1.3 1.2.9-1.5-.1-3.5-1-4.8a2.9 2.9 0 0 1-.3-.2c.3 1 .9 2.3.6 3.3m2-4.5v.4c.7.7 1.2 1.4 2.2 2.8 1 1.4 2.6 1.5 2.6 1.5-.1-1.2-.4-2-1.3-3s-2-2-2.8-2.5a1.5 1.5 0 0 1-.8.1l.1.4c.6.4 2.4 1.3 3.1 2.7 0 0-1-.3-3-2.4m1.3-1.4L43 29c.6.2 3 1 3.7 1.5.7.4 1.8 1.3 2.4 3.1 0 0-1.5.2-2.9-1-1.3-1-2.8-2.6-3.4-3l.1-.2s1.8 1.6 3.7 2.3c0 0-.4-.8-1.2-1.3-.9-.7-1.6-.9-2.3-1.2m1.3-1.1a1.8 1.8 0 0 0 0-.2c.7.2 2.6.4 3.5.7.9.2 2.4.9 3.4 2.7 0 0-1.4.4-4-.8a23.2 23.2 0 0 0-3.9-1.6c.4 0 .7-.2.9-.3 1 .5 2.4 1 3.7 1l-1.4-.7a18.4 18.4 0 0 0-2.2-.8m0-1.3a2.1 2.1 0 0 1-.8.2l.5.5c.9.2 2.4.5 5 .7 2.5.2 3.9-.3 3.9-.3-.9-.5-2.3-1-3.3-1.3-1-.2-3.5-.1-4.6-.3a3 3 0 0 1-.3.3c.9 0 2.9.1 3.9.7 0 0-1.9.2-4.4-.5"/>
        <path fill="#FFF" d="M36.7 30a5 5 0 0 1-.3-.2l-.8 1.2-.4 1.5a3 3 0 0 1-.5 1.4s.7.1 1.2-.5.7-1.2.8-1.8a6.9 6.9 0 0 0 0-1.6m1 0c0 .2-.2.3-.2.3h-.2a1.6 1.6 0 0 1-.2 0 2.5 2.5 0 0 0-.2.6v1.3l.6 1s.5-.6.6-1c.2-.4.2-1 0-1.4a2.1 2.1 0 0 0-.3-.7m1.5 0a2.3 2.3 0 0 1-1-.4c-.1.2-.2.4-.1.7 0 .3.3.7.6 1 .4.3 1 .7 1.8.5 0 0 .1-.5-1.3-1.8m.6-.9c0 .5-.3.8-.3.8.1.2.7 1.2 2 1 0 0 .3-.6-.5-1.2l-1.2-.6m-.1-.8a2.6 2.6 0 0 0 1.2 0h.2v-.2c.7.5 1.4.6 1.7 1 0 0-.4.6-1.2.6a2.7 2.7 0 0 1-1.8-1 2.2 2.2 0 0 0-.1-.4m1.4-.8-.5-.7a4.3 4.3 0 0 1 1.7 0c.8.2 1.5.4 2 1.5 0 0-.6.4-1.5.3-.7-.2-1.3-.5-1.7-1m.3-1.3.5-.7v-.1c.7-.3 1.4-.4 2-.2.7.3.9.6 1 .8 0 0-.7.6-1.5.7a4 4 0 0 1-2-.5m-.2-1.4a2.5 2.5 0 0 0-.4 0c.3-.3.6-.7.7-1.3H43c.3-.2.9-.2 1.4.1 0 0-.2.9-1.3 1.2-1 .3-1.4.2-1.8 0m.4-1.6-.1-.1s-.3-.2-.7-.2c.3-.3 1.2-1 1.8-1.3.6-.4 1.7-.9 2.2-1 0 0-.5 1.4-1 2-.7.5-1.1.7-2.2.6m-1.1-.6c.3-.4.5-.9.6-1.4.1-.5.4-1.6.6-1.9.2-.3.8-1.3 2-1.6 0 0 .3 1.3-.3 2.4-.6.9-1.6 1.8-3 2.5m-6.4 6.1a1.8 1.8 0 0 1-.6.4s-.3.7.1 1.6c.5.9.9 1.7 1 2.2 0 0 .3 0 .6-1.4.1-.9.4-1.1.6-1.4l-.5.1h-.2a1.8 1.8 0 0 1-.3-1v-.2a.9.9 0 0 1-.7-.3"/>
        <path fill="#FFF" d="M41.4 31.3c.8 1 2.7 2.9 2.5 5 0 0-1.7-.5-2.4-1.8L40 32.2h.8c.4.8 1.3 2 2 2.5 0 0 .2-1-2-3.2a2 2 0 0 0-.2-.3l.7.1m-13.2-17c0-.2.6-.3 1.4-.3.7 0 1.3.1 1.3.3 0 .1-.6.3-1.3.3-.8 0-1.4-.2-1.4-.3m1.6.6a.3.3 0 0 1-.2.3.3.3 0 0 1-.3-.3c0-.1.1-.3.3-.3l.2.3m-1.7-1-.7-2c0-.2.2-.3.4-.4h.4c.3.2.5 1.7.6 2.3-.3 0-.4 0-.7.2m.9-.2h.3a15.1 15.1 0 0 0-.4-2c-.1-.3-.2-.6-.5-.7l.3 1 .3 1.7m-1.5 1.9c.5-.1 1-.7 1-.7-.8.1-1 .7-1 .7m.8 0c-.7.3-1.5.3-1.5.3.2-.3.3-.6.7-.9.5-.3 1.2-.4 1.4-.3 0 .2-.3.6-.6.8m-2.6 1.2v-.1h-1.4c0 .3.1.5.3.6 0-.5 1.1-.6 1.1-.6m-2.2-.7s.8.3 1.7.3c.8 0 2.4 0 3-.3 0 0-.2.3-.6.5l.5.2-.5.4s.6.7 1.3.6c0 0-.3.4-1 .3-.7-.2-1-.6-1-.7v.5s-.3 0-.6-.3l.2.5-.5-.2v.5s-.8-.3-1.1-.7v.4s-1.3-.1-1.4-2m-.2.2c0 .4.1.8.3 1 0 0-.5-.3-.6-.7-.2-.3-.2-.5.3-.3m-1 1.5a.2.2 0 1 0 0-.4.2.2 0 0 0-.2.2c0 .1 0 .2.2.2m1.2-.3c.4.2.7.6.7.6-.6 0-.8.2-.8.2-1-.7-1.8 0-1.8 0a1 1 0 0 1-.3-1.4c.2-.4.8-.3 1.1-.2.2.5.8.7 1.1.8m.8.7.6.7s-1.3 0-1.7 1.1c0 0-.4-.7 0-1.1.3-.5.6-.6 1-.7"/>
        <path fill="#FFF" d="m25.6 18.4.6.1v-.3h.4l.7 1.4-.1.5-.7-1a5 5 0 0 0-.9-.7m-1.1-.2c.1 0 .8.2 1.1.5.4.3.7.6.7 1.2l-.7-.7-1.1-1m0-4.3c.1 0 .4 0 .4.2l-.4 1c-.1-.3-.4-.7-.4-1 0-.2.2-.2.3-.2h.1m-.3 1.6c0-.3-.1-1-.3-1.2-.2-.2-.4-.2-.5-.2a.2.2 0 0 0-.2.3l.6 1.1h.4m.5 0c0-.3.2-1 .4-1.2.1-.2.4-.2.5-.2a.2.2 0 0 1 .2.3c0 .2-.6 1-.7 1.1h-.4m.4-2.6h-.5v-.5h-.3v.5h-.4v.3h.4v.5h.3v-.5h.5zm-5.2 3v-.8c-.2 0-.4.2-.9.8 0 0 .7-.4 1 0m.5 1.1c0-.2.1-.7.3-1 .1-.5 0-1.2-.2-1.6-.2-.4-.3-.8-.2-1.2l-.7.3c0 .5.3 1 .4 1.2.2.3.1.7.1 1 0 .4 0 .9.3 1.3m0-3.6a.5.5 0 0 1 0-.3s.7-.6 1.2-.7c.4 0 .6.1.7.2l-.5.2a3 3 0 0 1-.9.6h-.4m1.8-.8.4.7c0 .3-.2.8-.4 1-.1.2-.3.5-.3.9l.3.5s-.8-.2-.9-.7c0-.4.1-.7.3-1l.5-.9.1-.5M27 18c.1.5.4 1 .6 1.4.3.4.4 1 .4 1.2 0 0 .3-.8.2-1.3A3 3 0 0 0 27 18m.8.1s.5 0 .8.2c.3.2.6.7.7 1.2 0 0-.5 0-.8-.3a3 3 0 0 1-.7-1M25 19l-.5.1s.5.1.7.3l.4.8c.1.6.5 1.2.6 1.4l.2-1.3-.5-.5-.9-.8m2.3 1.2c.2.3.5.9.3 1.4-.1.6-.5.8-.7 1.3 0 0-.2-.9-.1-1.5 0-.7.2-1 .5-1.2m1 0 .6 1.5c.1.4 0 .6-.1.9l-.8 1-.3-.7v-1l.6-1.6m.3 3.2-.8 1c0 .3-.2.7 0 1 .2.3.6.7 1 .9 0 0-.4-.7-.4-1.2 0-.3.3-.6.3-.8l-.1-1m-1.2-.3c.1.1.3.4.3.7 0 .3 0 .6-.2 1a13 13 0 0 1-.7 1.5l-.4-.8.6-1 .4-1.4m-.2-.3s-.2 1.5-1 2.6c-.6.7-1 1-1.4 1-.4 0-1-.4-1-.9-.2-.4-.2-1.1.1-1.4 0 0 .3.9.9 1 .7 0 1.5-.8 2.4-2.3"/>
        <path fill="#FFF" d="M26.5 22.3v1c0 .4-.2.7-.6 1-.2.1-1 .2-1.2-.5 0 0 1.3.1 1.8-1.5m2 5.9c.2.4.8 1 .8 1.3 0 .9-.4 1.4-.5 1.7 0 0-.7-.5-.8-1.2-.1-.3 0-1.3.5-1.8m-.8.6c.1-.2.4-.9.7-1 0 0 .4-1.2-.9-2 0 0-.5.7-.6 1.4-.2.6.5 1 .8 1.6m-1.5-3-.7.8s-.1.5 0 .8c0 .6.3 1 .4 1.4l.7-1v-1l-.4-.9m-1.5 2.5c-.1-.3-.6-1.1-.6-1.8 0 0 .6.4 1 .1 0 0 .2.8 0 1.1 0 .2-.1.4-.4.6m.2.1.4-.4.5 1-.4-.1a3.4 3.4 0 0 1-.5-.5m1.9-.4-.9 1.2s0 .4.3.8l.8 1 .5-1c.2-.4.1-.7 0-.8 0-.4-.5-.8-.7-1.2m1 2.4c0 .3.5.8.6 1.2v.8l-.6.9s-.6-.6-.7-1a1.5 1.5 0 0 1 0-1l.6-.9m-1.7 0c.2.3.6.6.7 1v1l-.5.7-.6-.9v-1l.4-.9m2.5 2.5s-.9 1-.9 1.5c0 .7.5 1.2.6 1.6l.6-.9c.2-.3.3-.7.3-1 0-.5-.2-.8-.6-1.2m-1.6-.1c.1.2.5.8.4 1.2-.1.4-.5 1-.7 1.2l-.4-1c0-.3 0-.8.7-1.4m2.6-19.6c0-.4.5-1.3.5-1.6a.5.5 0 1 0-1 0l.5 1.6m1.4.8a9 9 0 0 0 .7-2.1c0-.2-.2-.3-.3-.4h-.5a7 7 0 0 0-.5 2.3l.6.2m-.8-.2h-.3l.3-2c.1-.3.3-.6.5-.7l-.3 1a27.9 27.9 0 0 0-.2 1.7m.4 1.2s.5.6 1 .7c0 0-.2-.6-1-.7m-.4-.2c.3 0 1 0 1.4.3.4.3.6.6.7.9 0 0-.7 0-1.4-.4-.4-.2-.6-.6-.7-.8m4.4 2.5.3-.6h-1.5s1.1 0 1.2.6m-.3.7v-.4a4 4 0 0 1-1.2.7v-.5c-.3.3-.5.2-.5.2l.2-.5a.8.8 0 0 1-.5.3v-.5c-.1.1-.3.5-1 .7-.7.1-1-.3-1-.3.6 0 1.3-.6 1.3-.6l-.5-.4.4-.2a.9.9 0 0 1-.5-.5c.5.2 2.1.3 3 .3.8 0 1.6-.3 1.6-.3 0 1.9-1.3 2-1.3 2m1.5-1.8a3.1 3.1 0 0 1-.2 1s.5-.3.6-.7c.1-.3.1-.5-.4-.3m1.3 1.3a.2.2 0 0 0-.2-.2.2.2 0 0 0 0 .4.2.2 0 0 0 .2-.2m-.4-1c.3 0 .9 0 1.2.3.2.4.1 1.1-.4 1.4 0 0-.8-.7-1.8 0L35 18l.6-.6c.3 0 1-.3 1.1-.8M34.8 18l-.6.7s1.3 0 1.6 1.1c0 0 .5-.7.1-1.1-.3-.5-.7-.6-1.1-.7"/>
        <path fill="#FFF" d="m33.3 18.4-.5.1v-.3h-.4l-.8 1.4.2.5.6-1 1-.7m1-.2s-.8.2-1 .5c-.5.3-.8.6-.7 1.2 0 0 .3-.5.7-.7a4 4 0 0 0 1-1m0-4.3s-.3 0-.3.2l.4 1c0-.3.4-.7.4-1 0-.2-.3-.2-.4-.2m.2 1.6c0-.3.2-1 .4-1.2.1-.2.4-.2.5-.2a.2.2 0 0 1 .2.3c0 .2-.6 1-.7 1.1h-.4m-.5 0c0-.3-.1-1-.3-1.2-.2-.2-.4-.2-.5-.2a.2.2 0 0 0-.2.3l.6 1.1h.4m-.3-2.6h.4v-.5h.4v.5h.4v.3h-.4v.5h-.4v-.5H34zm-5-2.8h.4v-.5h.3v.5h.5v.3h-.5v.6h-.3v-.6h-.4zM39 16a3.5 3.5 0 0 0 0-.2 2.2 2.2 0 0 1 0-.6c.3 0 .5.2 1 .8 0 0-.8-.4-1 0m-.6 1c0-.2 0-.7-.2-1-.2-.5-.1-1.2.1-1.6l.3-1.2.6.3c0 .5-.2 1-.4 1.2v1c0 .4 0 .9-.4 1.3m0-3.6a.6.6 0 0 0 0-.3s-.6-.6-1.2-.7a.7.7 0 0 0-.6.2s.2 0 .5.2l.8.6h.5m-1.9-.8-.4.7c0 .3.3.8.4 1 .1.2.3.5.3.9l-.2.5s.7-.2.8-.7c0-.4 0-.7-.2-1l-.6-.9v-.5M32 18a5.7 5.7 0 0 1-.7 1.4c-.2.4-.4 1-.3 1.2 0 0-.4-.8-.2-1.3.1-.4.5-1 1.2-1.3m-.9.1s-.5 0-.7.2a2 2 0 0 0-.8 1.2s.6 0 .8-.3l.7-1m2.7.9.5.1-.6.3c-.2.2-.4.4-.5.8 0 .6-.4 1.2-.5 1.4l-.3-1.3s.4-.2.5-.5l1-.8m-2.4 1.2c-.1.3-.5.9-.3 1.4.2.6.5.8.7 1.3l.2-1.5c0-.7-.3-1-.6-1.2m-2 1.7c0-.3.8-1.1.7-1.5 0-.5-.6-.8-.7-.8-.2 0-.7.3-.8.8 0 .4.7 1.2.8 1.5m1.1-1.5-.6 1.4c0 .4 0 .6.2.9l.7 1 .4-.7-.1-1-.6-1.6m-1.1 3.9.5-.7V23c-.3-.2-.5-.5-.5-.7 0 .2-.3.5-.5.7v.7c0 .2.2.5.5.7m.8-.7.9 1c0 .3.2.7 0 1a3 3 0 0 1-1 .9s.4-.7.4-1.2c0-.3-.3-.6-.4-.8l.1-1m1.2-.3-.2.7c0 .3 0 .6.2 1l.6 1.5.5-.8-.7-1-.4-1.4m.2-.3s.2 1.5 1 2.6c.7.7 1.1 1 1.4 1 .5 0 1-.4 1.1-.9.2-.4.1-1.1-.2-1.4 0 0-.3.9-.9 1-.6 0-1.5-.8-2.4-2.3"/>
        <path fill="#FFF" d="M32.4 22.3v1c.1.4.3.7.6 1 .3.1 1 .2 1.2-.5 0 0-1.2.1-1.8-1.5m-3 4.3c.2 0 .4-.1.6-.4.1-.3.3-.7.2-1 0-.4-.3-.6-.4-.8l-.3.2c-.2 0-.2-.1-.3-.2-.2.2-.4.4-.5.8 0 .3.1.7.3 1 .2.3.3.4.5.4m0 2.5c0-.4.9-1.2.8-1.6-.1-.6-.5-.4-.8-.7-.3.3-.7.1-.8.7-.1.5.7 1.2.8 1.6m1-1c-.2.5-.8 1-.8 1.4 0 .9.4 1.4.5 1.7 0 0 .7-.5.8-1.2 0-.3 0-1.3-.6-1.8m.8.6c0-.2-.3-.9-.6-1 0 0-.4-1.2.8-2 0 0 .6.7.7 1.4.1.6-.6 1-.9 1.6m1.6-3 .7.8v.8c0 .6-.4 1-.5 1.4l-.6-1v-1l.4-.9m1.4 2.5c.2-.3.7-1.1.7-1.8 0 0-.6.4-1.1.1v1.1c0 .2.2.4.4.6m-.1.1a5.3 5.3 0 0 1-.5-.4s-.4.8-.4 1l.4-.1.5-.5m-2-.4 1 1.2-.4.8c-.2.5-.6.9-.7 1l-.6-1c-.1-.4-.1-.7 0-.8.1-.4.6-.8.8-1.2m-2.7 5.5c0-.3.4-.6.6-1a1 1 0 0 0 0-.8c-.1-.2-.6-.8-.6-1 0 .2-.5.8-.6 1a1 1 0 0 0 0 .8c.1.4.5.7.6 1m1.7-3-.7 1 .1.9.5.9.8-1a1.4 1.4 0 0 0-.1-1l-.6-.9m1.7 0c-.1.3-.5.6-.6 1v1l.4.7.6-.9v-1l-.4-.9m-3.4 8c0-.2.6-1.2.7-2.2 0-.5-.5-1.3-.7-1.6-.3.3-.7 1-.7 1.6 0 1 .6 2 .7 2.3m1-5.6s.8 1 .8 1.5c0 .7-.5 1.2-.5 1.6 0 0-.5-.5-.6-.9-.2-.3-.4-.7-.3-1 0-.5.2-.8.6-1.2m1.5-.1c0 .2-.5.8-.4 1.2l.7 1.2.4-1c0-.3 0-.8-.7-1.4"/>
        <path fill="#FFF" d="M30 40.1c.1-.8.6-1.2.6-1.7.1-.4 0-.9-.3-1.4a13 13 0 0 1-.8 2.2 13 13 0 0 1-.9-2.2c-.3.5-.4 1-.3 1.4.1.5.5 1 .6 1.7 0 .8-.8 1.1-.8 1.1.3.1.6.2 1.1-.3l.3-.3.2.3c.5.5.9.4 1.2.3 0 0-.9-.3-.8-1m-2.9-5.4.4 1c.1.4 0 .7-.6 1.1 0 0-.3-.2-.5-.6-.1-.3 0-.5.1-.7.2-.1.5-.5.6-.8m1.2 1.2c0 .2 0 1-.3 1.5-.4.6-1 1.1-1.4 1.1-.4 0-.5-.2-.7-.3 0 0 .1-.6.6-.7a4 4 0 0 0 1.8-1.6"/>
        <path fill="#FFF" d="m26.9 37.2-.3-.3-.8.4-1 1 1-.1s0-.5.5-.8l.6-.2m-.5-.5-.2-.8-1 .7-.9.9 1.1-.3 1-.5m-1.3.8-1.8.5c-.4.1-.7.3-1 .7l.9.3 1-.6c.4-.1.5-.5.9-.8m-.9 2.8c.1-.1.2-.2.1-.5l-.6-.4-1.6-.6-.2.4.1.2h1c.2.1.2.3.2.4 0 0 .3-.2.5-.1.2 0 .4.2.5.6m-.8-1.3s.4 0 .8.3l.2-.2c0-.1.4-.6.7-.7h-.4l-.5.1a5 5 0 0 0-.8.5m2.4-.7-.4.1s-.8.6-.9 1.2c0 .5.2.7.3.8.1 0 .7.3 1.1-.5 0 0-.6.2-.8 0-.2-.4 0-.9.3-1 .2-.2.6-.3.9-.2l-.5-.4"/>
        <path fill="#FFF" d="m20.3 45.1.5-1.3c.3-.8 1.3-3 3.2-3.3.2 0-.2-.5-.4-.5l-.7.4v-.6h-.1l-.7.1a14 14 0 0 0-1.6 3c-.4 1-.7 1.3-1.2 1.1-.4-.1-.7-.7-1.5-.5-.2 0-.5.2-.8.5.1.1.2.3.6.3.3 0 1 .1 1.4.4.4.3.8.4 1.3.4m7.8-6.6.3 1s-.6 2.7-2.7 2.9c0 0 0-.6.7-1 .6-.4 1.6-1.1 1.5-2.1 0 0-.2 0-.5.4s-1 1.5-2 1.5c0 0 .2-.5.6-.8a4 4 0 0 0 1.3-1.2c.3-.4.6-.6.8-.7m-1 10 1.2 1.8 1-1.8-.3-.6-.7 1.2-.9-1.2-.3.5"/>
        <path fill="#FFF" d="m26.7 46.9-3-4.2.5-.4-1.5-.6v1.7l.5-.4 3.2 4.4.3-.5m-10.6-10c.4-.4 1 0 1.7.5.6.7 1 1.3.6 1.7-.3.4-1 0-1.6-.6-.7-.6-1.1-1.2-.7-1.6"/>
        <path fill="#FFF" d="M17.1 44.3c-.4-.3-.6-.8-.6-1.3a1.8 1.8 0 1 1 3.6 0v.3l.4-1a2.3 2.3 0 0 0-2.2-1.6 2 2 0 0 0-2 1.3 4 4 0 0 1 .9-2c.4-.4 1-.5 1-.5-.4 0-1-.2-1.6-.8-.6-.5-.9-1-1-1.4v1.3c-.3.7-.9 1.8-.7 3.1.2.7.7 1.8 1.5 2.7l.3.6h1.6s.3 0 .3-.2-.2-.2-.3-.2c-.2 0-.8 0-1.2-.3m7 .5c-.8.3-1.6.4-2.4.5a7.3 7.3 0 0 1-1.4.1.4.4 0 0 1 0 .3v.2h1.5l2.6-.7-.3-.4m1.4-.1c1-.6 2.1-1.5 3-3l.2-.3h-.6v.2a8.1 8.1 0 0 1-3 2.7l.4.4m-7.2.5h-.9c-.3 0-.6.1-.7.3l.3.6c0 .1.3 0 .4 0 .2 0 .9-.5 1-.6.1-.1.2-.3 0-.3m.7.4a.5.5 0 0 0-.5 0c-.2 0-.9.5-1 .7 0 .2.1.3.2.3l.4.1a.6.6 0 0 0 .4-.2l.5-.6v-.3m0 .5a8.5 8.5 0 0 0-.3.5v.2c.1 0 .6 0 1-.3.2-.2.4-.6.2-.7-.2-.1-.5 0-.8.3m.1-1c0-.1-.4-.2-.5 0-.1 0 0 .2.3.4.2.1.8.2.9 0 .1 0 0-.3-.7-.5m12.4-10.2c0 .3-.4.9-.4 1 0 .4 0 .7.6 1.1 0 0 .4-.2.5-.6.2-.3 0-.5 0-.7l-.7-.8M30.5 36c0 .2.1 1 .4 1.5.3.6.9 1.1 1.3 1.1s.5-.2.7-.3c0 0 0-.6-.5-.7-.6-.2-1.5-1-1.9-1.6"/>
        <path fill="#FFF" d="m32 37.2.3-.3.9.4 1 1-1-.1s-.1-.5-.5-.8l-.7-.2m.5-.5c0-.1.3-.4.2-.8l1 .7.9.9-1-.3-1-.5m1.2.8 1.8.5c.4.1.7.3 1.1.7l-.9.3-1-.6c-.4-.1-.6-.5-1-.8m1 2.8c-.2-.1-.3-.2-.2-.5l.6-.4 1.6-.6.3.4c0 .1 0 .2-.2.2h-1c-.2.1-.1.3-.1.4 0 0-.3-.2-.5-.1-.3 0-.4.2-.6.6m.9-1.3s-.5 0-.8.3c0 0-.2 0-.3-.2 0-.1-.4-.6-.7-.7h.4l.6.1.8.5m-2.5-.7.4.1s.8.6 1 1.2c0 .5-.2.7-.4.8 0 0-.7.3-1-.5 0 0 .6.2.8 0 .1-.4-.1-.9-.3-1-.2-.2-.7-.3-1-.2l.5-.4"/>
        <path fill="#FFF" d="m38.6 45.1-.4-1.3c-.4-.8-1.3-3-3.2-3.3-.2 0 .2-.5.3-.5l.7.4v-.6h.2l.7.1c.4.5 1.1 1.9 1.6 3 .4 1 .7 1.3 1.1 1.1.5-.1.7-.7 1.5-.5.3 0 .6.2.8.5 0 .1-.2.3-.5.3a3 3 0 0 0-1.4.4c-.4.3-.8.4-1.4.4m-7.7-6.6c0 .3-.2.6-.4 1 0 0 .6 2.7 2.7 2.9 0 0 0-.6-.6-1-.7-.4-1.6-1.1-1.6-2.1 0 0 .2 0 .5.4s1 1.5 2 1.5c0 0-.1-.5-.6-.8a4 4 0 0 1-1.3-1.2l-.7-.7M29.5 41a8 8 0 0 0 1.3 1.9l1.6 1.6s-1.3-.3-2-1c0 0-.5.3-1 .3-.3 0-.8-.3-.8-.3-.8.7-2 1-2 1l1.6-1.6a8 8 0 0 0 1.3-1.9"/>
        <path fill="#FFF" d="m29.5 44.2.7-.2c-.2.3-.4.8-.7 1-.3-.2-.6-.7-.8-1l.8.2"/>
        <path fill="#FFF" d="m30.6 50.3 5.1-7.2.5.3v-1.7l-1.5.6.5.4-4.5 6.4-2.4-4.2-.2.4-2.1 3.2-.5-.4v1.7L27 49l-.5-.3 1.8-2.7 2.3 4.2"/>
        <path fill="#FFF" d="m31.5 47.4-.8-1.3-.7 1.2-.4-.6 1-1.8.3.4 1 1.6-.4.5m1 .5.5.6.5-.4v1.7l-1.6-.7.5-.3-.2-.4.4-.5m10.3-11c-.4-.4-1 0-1.7.5-.7.7-1 1.3-.7 1.7.4.4 1 0 1.7-.6.6-.6 1-1.2.7-1.6"/>
        <path fill="#FFF" d="M41.8 44.3c.4-.3.6-.8.6-1.3a1.8 1.8 0 1 0-3.6 0v.3l-.3-1a2.3 2.3 0 0 1 2.1-1.6c1 0 1.7.5 2 1.3a4 4 0 0 0-.8-2c-.4-.4-1-.5-1-.5.4 0 1-.2 1.6-.8.5-.5.9-1 .9-1.4l.1 1.3c.2.7.8 1.8.6 3.1-.1.7-.6 1.8-1.5 2.7l-.3.6h-1.5s-.3 0-.3-.2.1-.2.3-.2c.1 0 .8 0 1.1-.3m-8.3.4a8 8 0 0 1-3.1-3l-.2-.3h.6v.2a8.1 8.1 0 0 0 3 2.7l-.3.4m1.3 0a12.6 12.6 0 0 0 3.9.7.4.4 0 0 0 0 .3v.2H37l-2.6-.7.3-.4m5.8.4h1c.2 0 .6.1.6.3l-.2.6h-.5l-1-.6c0-.1-.1-.3.1-.3m-.8.4a.6.6 0 0 1 .5 0c.2 0 1 .5 1 .7 0 .2 0 .3-.2.3l-.3.1a.6.6 0 0 1-.5-.2L40 46v-.3m-.1.5.4.5-.1.2c-.1 0-.6 0-.9-.3-.3-.2-.5-.6-.3-.7.2-.1.5 0 .9.3m-.2-1c.1-.1.5-.2.6 0 0 0 0 .2-.3.4-.3.1-.8.2-1 0 0 0 0-.3.7-.5"/>
        <mask id="b" fill="#fff">
            <use xlink:href="#a"/>
        </mask>
        <path fill="#CC003D" d="M62.7 59.7h59V.3h-59z" mask="url(#b)"/>
        <path fill="#FFF" d="M110.2 19.1v-2.3h.5c1.7 0 2 .3 2.2 2.3h-2.7zm5-1c-.3-2.3-1.4-3.5-4-3.5h-3.1l-.5 13h2.4l.2-6.3h3l.4 6.3h2.4l-.9-9.5zM81.7 37l.1-2.3h.4c1.7 0 2 .3 2.2 2.3h-2.7zm5-1c-.3-2.3-1.4-3.5-4-3.5h-3.1l-.5 13h2.4l.2-6.3h3l.4 6.2h2.4l-.9-9.4zM69.1 14.6v13h2.4V16.8h2.9v10.8h2.4v-13zm25 4.5h-1.3c-.5 0-1 0-1.2-.3a.9.9 0 0 1-.2-.7v-3.5H89v3.7c0 .9.3 1.6 1 2.2.6.5 1.4.8 2.4.8h1.7v6.3h2.4v-13h-2.4v4.5m5-4.5v2.2h2v10.8h2.3V16.8h2v-2.2zm-3.5 17.8v4.1h-3.2v-4H90v12.8h2.4v-6.6h3.2v6.6H98V32.4zm-23.3 11-.8-.1v-4.6h.3c1.2 0 2.7 0 2.7 2.3 0 2.2-1.6 2.3-2.2 2.3m.3-6.7h-1.1v-2h4.2v-2.2h-6.6v13h3.6c3.6 0 4.1-3.3 4.1-4.4 0-1.4-.5-4.4-4.2-4.4m8.7-15.5c0-3.5 1-4.6 1.8-4.6 1 0 1.8 1.1 1.8 4.6 0 3.4-.9 4.6-1.8 4.6s-1.7-1.2-1.8-4.6m6-.5c0-1.8-.4-3.1-.9-4-.8-1.7-2-2.3-3.3-2.3-1.3 0-2.5.6-3.3 2.2a9 9 0 0 0-.8 4.1v.5c0 1.1.1 2.2.4 3.1.6 2.7 2.1 3.6 3.7 3.7 1.6 0 3.1-1 3.8-3.7.2-.9.4-2 .4-3.1v-.5m22.4 24.7-2.8-7.5a4 4 0 0 0 1.3-2.2l.4-3.2h-2.3a72 72 0 0 1-.1 2c-.2 1.1-.5 2.3-1.8 2.3h-1v-4.3h-2.3v13h2.4v-6.6h1.4l2.3 6.5h2.6z" mask="url(#b)"/>
    </g>
</svg>
