<svg xmlns="http://www.w3.org/2000/svg" width="40" height="40" fill="none"><path fill="#C11F3E" d="M33.6 22.2c-1.5.6-3.5 2.4-3.5 2.4l.2-1.1c.3-2.2 1-4.3 1.7-6.4 1.2-3.4 3.7-8 .5-8.6-1.2-.3-2.5-.1-2.5-.1s.4-2 2-2.2l5-.4c2.5-.2 3.4-1.5 2.9-3.1-1-2.6-6.1-1.5-12.6-1.1C20 2 12.5 3.4 10.3 4 6.6 5.1 5 6 5.1 7.5 5.4 9.4 7.7 9.3 9.6 9c1.7-.3 6.3-1.2 9.5-1.6 4.5-.6 6.5-.7 6.5-.7l-4.4 12.6c-1 2.5-2.9 7.8-5 11.4a6 6 0 0 1-5.6 3.4c-3.6 0-5.8-2.3-6.7-5.4-.7-2.6 0-5.4 2-6.3 2-1 4.3-.1 4.3-.1s0 .5-.8.8l-1.9.4c-.8.3-1.4 1.4-.4 2.6 1.7 1.8 4.7 1.4 6.2.3 1.6-1.2 2.9-4 2-6-.8-2.2-3.5-2.8-6-2.8C5 17.5 2 19.3.7 22.2a12.5 12.5 0 0 0 1.4 11.5A11 11 0 0 0 17.6 36a28 28 0 0 0 6-10.8c1.9-4.5 3.4-8.8 3.4-8.8l-1.2 6.8c-.5 3.6-.3 6.5 0 7.4a2.6 2.6 0 0 0 2.1 1.9c1 .1 1.7-.7 2.4-1.6 2.6-3.3 3-3.2 4.2-4 2.7-2 1.5-5.7-1-4.6Z"/></svg>