<svg xmlns="http://www.w3.org/2000/svg" width="40" height="40" fill="none"><path fill="#058B8C" d="M40 0H0v40h40V0Z"/><path fill="#fff" fill-rule="evenodd" d="M11.26 17.7c-1.03.1-3.47.7-3.47 2.44.02 1.93 3.09 2.2 4.16 2.18 1.95-.06 4.02-.98 5.75-2.22v-.34a8.83 8.83 0 0 0-6.44-2.06Zm8.98 5.02h-.04a3.41 3.41 0 0 0-.53 1.97c.04.23.08.45.18.65l.29.35.04.02h.08l.06-.02.28-.35c.1-.2.15-.4.19-.65a3.25 3.25 0 0 0-.5-1.97h-.05Zm10.11 2.48-.02-.06c-.77.08-2.07.06-2.84-.04-.9-.14-1.77-.39-2.62-.73v.06a6.54 6.54 0 0 1-.28 2.76c1.86-.38 4.08-.97 5.76-1.99Zm-20.2-.02.02-.06c.77.08 2.05.06 2.82-.04.9-.14 1.76-.39 2.62-.73v.06c-.02.45-.02.9.02 1.34.04.49.14.97.28 1.42-1.87-.36-4.1-.95-5.76-1.99Zm13.8-9.73.04.08c1.9-.49 4.2-.8 6.16-.49l.02-.08c-1.48-1.12-3.74-1.7-5.55-2.07-.14.9-.38 1.75-.67 2.56Zm-7.4 0-.07.08c-1.89-.49-4.2-.8-6.13-.49l-.02-.08c1.48-1.12 3.73-1.7 5.54-2.07.12.9.37 1.75.67 2.56Zm3.67-1h.06c.3-.6.5-1.42.59-2.1-.2-.03-.4-.03-.61-.03-.2 0-.4 0-.61.02.06.71.26 1.52.57 2.11Zm9.01 3.25c1.04.1 3.48.7 3.46 2.44-.02 1.93-3.1 2.2-4.17 2.18-1.95-.06-4-.98-5.74-2.22v-.34a8.85 8.85 0 0 1 6.45-2.06Zm-4.44 2.18c1.07.59 2.27.95 3.45 1.1.53.06 3.13.08 3.13-.94 0-.9-2.1-1.1-2.75-1.14a8.23 8.23 0 0 0-3.83.88v.1Zm-1.55 2.52.23-.33c1.66 1 3.37 1.63 5.26 1.67 2.37.1 4.18-.73 5.4-2.54l.3.24C33.4 26.97 25.3 28.88 21.58 29l-.08-.37c2.45-.91 2.66-3.75 1.74-6.23Zm-2.9-1.73a5.5 5.5 0 0 1 1.64 3.54c.04 1.3-.4 2.74-1.56 3.06l-.18.02-.19-.02c-1.15-.32-1.6-1.74-1.56-3.06a5.41 5.41 0 0 1 1.65-3.54h.2Zm1.89-9.6c-.27 2.04-.8 4.03-1.87 5.66h-.24a13.28 13.28 0 0 1-1.87-5.67 32.57 32.57 0 0 1 3.98 0Zm-5 11.33c-.9 2.46-.7 5.32 1.75 6.23l-.06.37c-3.68-.04-11.74-1.87-12.88-7.62l.33-.18c1.48 1.87 3.3 2.68 5.38 2.54 1.89-.06 3.61-.7 5.26-1.67l.22.33Zm-5.03-6.1c-2.6 0-4.9.92-5.95 3.23L6 19.37c.08-5.1 6.68-7.5 10.77-8.1.3 2.25.99 4.26 2.07 6.13l.34.57-.06.1-.49-.24a15.42 15.42 0 0 0-6.43-1.53Zm16.08 0a16.6 16.6 0 0 0-6.42 1.53l-.46.24-.1-.1.36-.57a16.89 16.89 0 0 0 2.07-6.14c4.61.86 10.52 2.8 10.76 8.11l-.24.16c-1.32-2.44-2.99-3.23-5.97-3.23Zm-12.6 3.58a9.8 9.8 0 0 1-3.44 1.1c-.55.06-3.11.08-3.13-.94 0-.9 2.11-1.1 2.74-1.14 1.34-.04 2.6.29 3.84.88v.1Z" clip-rule="evenodd"/></svg>