<svg xmlns="http://www.w3.org/2000/svg" viewBox="0 0 216.4 220.4"><path fill="#cb187c" d="M75.8 1.3a111.3 111.3 0 0 0-75 76.5q-.3.9-.6 0a1.4 1.4 0 0 1-.2-.7q.2-37.8 0-57C0 11.6 3.5 4.8 11.5 1.4 13.8.4 17.2 0 21.8 0h54.7a5.8 5.8 0 0 1 1.8.4c.4.2.4.3 0 .5a21.7 21.7 0 0 1-2.5.4Zm62-.5A66.1 66.1 0 0 1 151.1 5a112 112 0 0 1 64.4 71.8c.6 2.2.9 2.2.9-.2V19.1c0-8.2-4.9-15.9-12.8-18.1a29.5 29.5 0 0 0-8.3-1h-56a3 3 0 0 0-1.6.5.2.2 0 0 0 .1.3ZM.9 142.9c-.3-1.4-.6-1.3-.7 0l-.2 3.4v52.8a27.7 27.7 0 0 0 1.4 9.7A18.4 18.4 0 0 0 11.5 219c2.4 1 6.9 1.5 13.5 1.4 18.3-.1 36-.2 53.2 0 .3 0 .4-.1.2-.4a.7.7 0 0 0-.6-.3 110.3 110.3 0 0 1-52.3-32.5A106.7 106.7 0 0 1 .9 142.9ZM216.4 202v-58.4c0-2.2-.3-2.3-.9-.1a111.6 111.6 0 0 1-76.1 76c-2 .6-1.9.8.1.8h53.7c5.7 0 9.6-.4 11.8-1.4a18.4 18.4 0 0 0 11.4-17Z"/><path fill="#00a994" d="M176.8 111.1a69.7 69.7 0 1 1-69.7-69.7 69.7 69.7 0 0 1 69.7 69.7"/><path fill="#fff" d="M125.2 114.9v-19c0-.5.2-.7.7-.7h6a.7.7 0 0 1 .8.8v24a1 1 0 0 1-.4.7c-9.5 4.6-24.9 4.5-24.7-10l.1-14.6a.7.7 0 0 1 .8-.8h5.9c.6 0 .8.2.8.8V109a15.1 15.1 0 0 0 .9 5.3 3 3 0 0 0 .9 1.3 8 8 0 0 0 7.3.5 1.2 1.2 0 0 0 .9-1.2ZM61.1 102c-2.5-.3-3.8.8-3.8 3.3v17.3a.9.9 0 0 1-.9.9h-5.7a1.2 1.2 0 0 1-1-1V98.9a.8.8 0 0 1 .5-.8c6.7-3.1 12.6-3.7 18-1.6s6.7 6.5 6.6 11.9l-.1 13.8c.1.9-.4 1.3-1.2 1.3h-5.1c-.8-.1-1.2-.4-1.2-1.2v-15c0-3-1.6-4.8-4.6-5.1l-1.5-.2ZM86.3 123.9v9.3a.8.8 0 0 1-.9.9h-5.7c-.7 0-1-.3-1-1V98.9a1.4 1.4 0 0 1 .8-1.3c7.6-3.6 20.6-4.1 24 5.6a19.4 19.4 0 0 1 .8 8.7c-1.2 10-7.6 13.4-17.4 11.5-.4-.1-.6.1-.6.5m0-20.6v12.6a1.4 1.4 0 0 0 1.4 1.4H91a5.9 5.9 0 0 0 5.7-5.8V108a5.9 5.9 0 0 0-5.6-6h-3.4a1.3 1.3 0 0 0-1.4 1.3ZM163 111.9a11.9 11.9 0 0 1-11.9 11.9h-2.4a11.8 11.8 0 0 1-11.8-11.9v-4.7a11.9 11.9 0 0 1 11.8-11.9h2.4a12 12 0 0 1 11.9 11.9v4.7m-13.2 5.8c3 0 5.5-3.6 5.5-8.1s-2.3-8.2-5.3-8.2-5.5 3.6-5.5 8.1 2.4 8.1 5.3 8.2Z"/></svg>
