<svg xmlns="http://www.w3.org/2000/svg" viewBox="0 0 66.6 58"><path fill="#659934" d="M40.7.1a12.7 12.7 0 0 1-1.1 7.8l-18 .3c-2.6 0-5.9.2-6.3 3.6C14.1 22.6 13 33 12.2 43.1c-.1.5-.4.8-.8.8H2.9c-.5 0-.7-.2-.7-.7Q3.9 27.1 6.1 9.4c.5-4.2 2-8.7 7-8.9C22.3 0 31.6-.1 40.7.1ZM19.3 43.3a.7.7 0 0 0 .6.7h9.2a.5.5 0 0 0 .5-.5l3.3-29a.7.7 0 0 0-.6-.7h-9a.6.6 0 0 0-.5.6l-3.5 28.9Z"/><path fill="#025697" d="M39.6 7.9A12.7 12.7 0 0 0 40.7.1H66c.5 0 .7.2.6.7l-.9 6.8a.9.9 0 0 1-.9.7l-25.2-.4Zm8.8 14a.6.6 0 0 1-.7-.7l.7-7.3c0-.1 0-.2-.2-.2h-8.7c-.3 0-.4.1-.4.4l-3.2 29.1c-.1.5.1.8.6.8h7.4a1.2 1.2 0 0 0 1.1-1l1.6-13.5c0-.9.5-1.2 1.3-1.2h5a1.7 1.7 0 0 1 1.9 1.8 80.5 80.5 0 0 1-.7 12.4c-.4 3.8-.9 8.1-5.6 8.1L1 50.9a.3.3 0 0 0-.3.3L0 57.7c0 .2.1.3.2.3h49.9c7.5-.1 11.3-6.5 11.7-13.1l1-17.4c.3-5.9-10.4-5.6-14.4-5.6Z"/></svg>
