<svg xmlns="http://www.w3.org/2000/svg" viewBox="0 0 326.4 326.5"><path d="M293.4,1.3a361.8,361.8,0,0,1-28,87.7,365.5,365.5,0,0,1-117,141.6A361.7,361.7,0,0,1,.9,293.6a.8.8,0,0,1-.9-.8v-80a1.2,1.2,0,0,1,.9-1.1,284.8,284.8,0,0,0,121.7-63.1A284.7,284.7,0,0,0,207,17.5q2.5-8.1,4.2-15.9a1.9,1.9,0,0,1,2-1.6h79.1c.9,0,1.3.5,1.1,1.3Z" fill="#fdb728"/><path d="M209.3,221.2A393.3,393.3,0,0,0,325.8.4a.1.1,0,0,1,.1-.1h.5V326a.5.5,0,0,1-.5.5H.8a.1.1,0,0,1-.1-.1v-.5H.9c7.2-1,14.2-2.3,20.9-3.8q107.9-24.7,187.5-100.8Z" fill="#77787b"/></svg>
