<svg xmlns="http://www.w3.org/2000/svg" width="40" height="40" fill="none"><path fill="#004" d="M21.1 7.9h3.5v12.4c0 1 .6 2.2 1.2 2.8 2.6 2.6 7.4.8 7.4-3.2 0-4.3-5.5-6-7.8-2.6v-4.4a7.8 7.8 0 0 1 9 12.4 8 8 0 0 1-5.5 2.3c-4.8 0-7.7-3.9-7.7-7.9l-.1-11.8Zm-17.7 31h3.5V40H3.4v-1.1Zm0-2.4h3.5V38H3.4v-1.5Zm0-3.7h3.5v2.6H3.4v-2.6Zm3.5-13.1c0-1 .6-2.2 1.2-2.8 2.6-2.6 7.3-.8 7.3 3.2 0 4.3-5.5 6-7.8 2.6v4.4c5 2.6 11.3-1 11.3-7 0-2.1-.8-4.1-2.3-5.5a8 8 0 0 0-5.5-2.3c-5-.1-7.8 4.1-7.8 8.1V32h3.5l.1-12.3ZM21.1 1.1h3.5V0h-3.5v1.1Zm0 2.4h3.5V2h-3.5v1.5Zm0 3.7h3.5V4.5h-3.5v2.7Z"/></svg>