<svg xmlns="http://www.w3.org/2000/svg" width="40" height="40" fill="none"><path fill="#EC6608" fill-rule="evenodd" d="M14.16 6c7.81 0 14.15 6.44 14.15 14.37 0 7.94-6.34 14.37-14.15 14.37A14.27 14.27 0 0 1 0 20.37C0 12.44 6.34 6 14.16 6ZM23 31.58h8.5l1.74-4.56H26.7a14.4 14.4 0 0 1-3.69 4.56Zm5.1-8.84h6.77l1.74-4.55h-8.47a14.8 14.8 0 0 1-.03 4.55Zm-1.31-8.83h11.46L40 9.35H23.23a14.39 14.39 0 0 1 3.57 4.56ZM9.15 31.58H23a14.4 14.4 0 0 0 3.7-4.56H10.89l-1.74 4.56ZM23.24 9.35a14.39 14.39 0 0 1 3.56 4.56H15.9l1.75-4.56h5.59Zm4.9 8.84a14.8 14.8 0 0 1-.02 4.55h-15.6l1.75-4.55h13.88Z" clip-rule="evenodd"/></svg>