<svg xmlns="http://www.w3.org/2000/svg" viewBox="0 0 812 812"><path fill="#880622" d="M534 810.9c2.4-.5 5.4-2.8 7.3-4.1 2-2.6 76-111 79.5-117.4-55.7-.9-227.1 0-256.8-.5-3.7-.2-7.7 0-11.4-.7l-1.3-1.1c-1.5-2.2-3.3-5.3-4.7-7.6a16041.3 16041.3 0 0 1-153-256.6c-2.3-5.1-4.9-10.8-4.7-16.5 1-8.9 6-16.9 10-24.6C208 366 295 221.3 328.6 165c3-4.5 5.4-9.7 9.4-13.3l3.4-2s16-1.4 20.3-1.5c28.2-.3 192.8.1 246.5-1-16-29.5-34.3-58.8-51.2-87.8-9.7-16-18.9-32.7-29-48.4a40.2 40.2 0 0 0-6-7.5c-1.9-1.5-4.6-2-6.9-2.3C501.1-.2 292.3.4 292.3.4l-4 2.2a30 30 0 0 0-6.7 5c-1.6 2.3-3 4.8-4.5 7-4.9 8-201.1 341.2-207.6 352.5-4 7.2-8.8 14.4-11.7 22a43.1 43.1 0 0 0 2.6 35.6c19 33.2 178.3 299.4 197.7 331.6 6.4 10.6 12.9 21.4 19.6 31.7 5.1 7.2 10 15.5 17.5 20.7l4 2c1.2.2 2.8.2 4 .2l14.3.4c16.4.3 33.2.4 49.6.5 55.3 0 111.1.8 166.4-.8"/><path fill="#576f79" d="M396 593.2a20.4 20.4 0 0 0 .9-3.5 11 11 0 0 0-1.3-4c-11.7-21.6-25-42.3-37.5-63.5-24.5-40.9-49.1-82-72.6-123.5 7.6-15.8 17.4-30.7 26.2-45.7l16.5-27.4 4.5-7.4a21.4 21.4 0 0 1 3-4.3c2.8 3.5 90.6 151.2 109 180h.1c8.6-12.2 16.4-25.6 24.2-38.3 2.5-4.3 5.6-8.6 7.3-13.3a12.4 12.4 0 0 0-.8-8.5c-4-9-10-17.3-15-25.9l-35.2-58c-22.1-36.3-43.6-73.5-65.2-110.2-5-8.5-10.2-17.4-15.3-25.8-2-3-3.6-6.4-6-9h-.1c-1 .6-109.4 184.4-113.1 191.6a21 21 0 0 0-2.4 14.5c.8 3 2.6 6 4 8.8 5 8.8 74 123.4 103.2 171.7 8.3 14 17 28.3 25.4 42.2l6.2 10 1.5 2.2.3.5.4.3.5.2c2.5-3 4.6-7 6.8-10.4 0 0 22.8-39.4 24.4-43.3Zm350.5-207c-15.3-25.8-37.5-62.5-53-88.6-17.7.6-42.2.7-59.5 1.8 4.7 10 20.9 37.4 22.3 41.4-33.3 1-81 .4-114.7.6a7123 7123 0 0 0-67.6-116c3.7-1.3 7.7-1 11.5-1.1 20.2-.3 88.9-.3 102.5.7 3 .2 4.2 1.5 6 3.9 4.6 6 10.8 15.6 15.1 22 13.9 0 51.2-.4 52.2-.4s2.2 0 2.9-.8c.1-.4-37.2-63.3-38.7-65.6a23.8 23.8 0 0 0-2.2-3c-.8-.7-7-3-7.7-2.8H377.7c29.7 50.4 105 179.3 113.2 192.7 2 3.3 4.3 6.9 6.6 10 1.5 2.2 3.5 4.7 6.4 4.9 10.7 1 21.8.6 32.5.8 19.5.1 159.6.5 209.8-.5m10 44c-63.2-.6-154.4-.2-218.4-.3a27.3 27.3 0 0 0-6 6.7c-3 4.6-109.8 190.5-123.8 216 1 .5 2.6.4 3.8.6 3.9.2 8.2.3 12.1.3 17.2.3 198.6.1 206.1-.3 5.2-.2 8-1.2 11.2-5.5a2885 2885 0 0 0 73.2-114.9c.4-.8 1.3-2 1.2-3a7.2 7.2 0 0 0-2.7-4.5c-1.5-.7-3.4-.8-5-1l-7.6-.2c-12.4-.2-91.3-.2-117.8-.3-8.3 0-17.2 0-25.6-.3-2.8-.1-5.8 0-8.5-.7l-.3-.5c.2-.8 3.7-7.2 4.3-8.1l13-21.1c3.5-5.3 6.7-12.3 13.2-14.3 3.6-.4 7.4-.4 11-.5 27.5-.6 115.9 0 132-1.4 2.5-.4 5.3-.7 7-2.4 3.8-4 6.4-9 9.4-13.5 6.2-10 13-20.3 18.7-30.7Zm-204.6 131 90-.4-21.2 30c-4.9 7.2-10.2 14.9-16.5 21-32-.3-77 .5-108.5-.6 3.8-7.8 9-15.6 13.4-23.1 5.2-8.2 10.2-17 16-24.8 2-2 6.8-1.5 9.4-1.8l17.4-.2Z"/></svg>
