<svg xmlns="http://www.w3.org/2000/svg" viewBox="0 0 74.5 75.2"><path d="M26.6,43.2c2.8-6.2.8-12.5-3.2-17.6C16.9,17.3,10.3,9,3.4.7A.4.4,0,0,1,3.7.1H44.4a5.6,5.6,0,0,1,3.5,1.3C55.3,7.7,58.7,16.7,54,26a35.7,35.7,0,0,1-8.5,11A176.9,176.9,0,0,1,17,57.1c-1.2.8-1.4.6-.4-.5,3.4-4,7.7-8.5,10-13.4Z" fill="#ee9b16"/><path d="M2.4,73.1C20,63.2,39.6,51.4,52.6,36.7a27.6,27.6,0,0,0,7.2-22.2c-.1-1.2.2-1.3,1-.4,3.8,4.7,8.6,9.6,11.6,15,4.6,8.1,1.1,16.4-3.9,23.2S57.8,66.1,51.1,74a3.4,3.4,0,0,1-2.7,1.2c-17.3-.1-33.2-.1-47.6,0q-1.5,0-.3-.9l1.9-1.2Z" fill="#4b80a2"/></svg>