<svg xmlns="http://www.w3.org/2000/svg" width="40" height="40" fill="none"><path fill="#B49F64" d="M40 35a5 5 0 0 1-5 5H5a5 5 0 0 1-5-5V5a5 5 0 0 1 5-5h30a5 5 0 0 1 5 5v30Z"/><path fill="#fff" d="M20 17.5c1.4 0 2.5 1.1 2.5 2.5s-1.1 2.5-2.5 2.5a2.5 2.5 0 0 1-2.5-2.5c0-1.4 1.1-2.5 2.5-2.5Zm3.7-5a2.5 2.5 0 0 0-2.5 2.5c0 1.4 1.1 2.5 2.5 2.5s2.5-1.1 2.5-2.5-1-2.5-2.5-2.5Zm-7.5 0a2.5 2.5 0 0 0-2.5 2.5c0 1.4 1.1 2.5 2.5 2.5s2.5-1.1 2.5-2.5-1-2.5-2.5-2.5Zm11.3-5c1.4 0 2.5 1 2.5 2.5 0 1.4-1.1 2.5-2.5 2.5A2.5 2.5 0 0 1 25 10c0-1.4 1.1-2.5 2.5-2.5Zm-7.5 0c1.4 0 2.5 1 2.5 2.5 0 1.4-1.1 2.5-2.5 2.5a2.5 2.5 0 0 1-2.5-2.5c0-1.4 1.1-2.5 2.5-2.5ZM15 10c0 1.4-1.1 2.5-2.5 2.5A2.5 2.5 0 0 1 10 10c0-1.4 1-2.5 2.5-2.5 1.4 0 2.5 1 2.5 2.5Zm8.7 12.4a2.5 2.5 0 0 0-2.5 2.6c0 1.4 1.1 2.5 2.5 2.5s2.5-1.1 2.5-2.5-1-2.6-2.5-2.6Zm-7.5 0a2.5 2.5 0 0 0-2.5 2.6c0 1.4 1.1 2.5 2.5 2.5s2.5-1.1 2.5-2.5-1-2.6-2.5-2.6Zm11.3 5c1.4 0 2.5 1.2 2.5 2.6 0 1.3-1.1 2.5-2.5 2.5A2.5 2.5 0 0 1 25 30c0-1.4 1.1-2.5 2.5-2.5Zm-7.5 0c1.4 0 2.5 1.2 2.5 2.6 0 1.3-1.1 2.5-2.5 2.5a2.5 2.5 0 0 1-2.5-2.5c0-1.4 1.1-2.5 2.5-2.5Zm-7.5 0c1.4 0 2.5 1.2 2.5 2.6 0 1.3-1.1 2.5-2.5 2.5A2.5 2.5 0 0 1 10 30c0-1.4 1.1-2.5 2.5-2.5Z"/></svg>