<svg xmlns="http://www.w3.org/2000/svg" viewBox="0 0 1009 1009"><path fill="#006c54" d="M599 0h37l-7 10a268 268 0 0 0-30 65 1 1 0 0 1-1 0c-60-23-125-21-182 11a155 155 0 0 0-24 16c-1 1-1 1 0 0 18-29 43-54 73-70 38-20 81-20 121-5a1 1 0 0 0 1 0 119 119 0 0 1 12-27Zm410 27a418 418 0 0 0-63 12 325 325 0 0 0-50 18c-44 19-82 51-97 98a1 1 0 0 1-1 0 157 157 0 0 0-37-9c-36-5-71 4-101 24a202 202 0 0 0-57 60h1q42-34 96-42a191 191 0 0 1 36-2 229 229 0 0 1 76 15 1 1 0 0 0 1-1 103 103 0 0 1 4-11c17-42 49-76 86-103a450 450 0 0 1 106-57v-2Zm0 469-125 24a3 3 0 0 1-2 0l-14-8c-5-2-7-4-8-7l-18-26a3 3 0 0 0-1-1l-50-10-25 22a1 1 0 0 1-1 0l-37-40a1 1 0 0 0-1 0l-41 24v-1l-4-33a4 4 0 0 0-2-2l-35-29a5 5 0 0 1-2-2l-34-110a2 2 0 0 0-2-2l-27-11a5 5 0 0 1-2-2l-47-78h-1l-52 39a5 5 0 0 0-1 1l-11 19h-1l-16-11-41 40a12 12 0 0 0-2 3l-13 31a6 6 0 0 1-2 3l-73 63a9 9 0 0 0-2 3l-27 59a102 102 0 0 0-5 14l-11 36a7 7 0 0 1-1 3l-70 80a7 7 0 0 0-1 4l-7 42a2 2 0 0 1-1 2l-52 38L0 773v236h1009V496M469 346c-1 0-1 0 0 0l7-18h1l-25 64a5 5 0 0 1-2 2l-26 23a4 4 0 0 0-2 3l-13 50a5 5 0 0 0 0 2l9 77a1 1 0 0 1-1 1l-38-6a2 2 0 0 0-1 1l-6 3a1 1 0 0 0 0 1l33 40a1 1 0 0 0 1 1l21-16a1 1 0 0 1 2 0l11 33a2 2 0 0 1 0 2l-14 25a3 3 0 0 0-1 3l5 20a3 3 0 0 1 0 2l-33 71a1 1 0 0 1-1 1c-3 0-6-1-6-5v-2l-3-64a13 13 0 0 0-1-4 1 1 0 0 0-1 0l-20 17-7 4-15 12a7 7 0 0 1-3 2l-47 15-48 17a121 121 0 0 0-13 6 8 8 0 0 1-4 0l-29-1a2 2 0 0 1-1 0 1 1 0 0 1 0-2l43-47a3 3 0 0 0 1-3l-4-55v-15a1 1 0 0 1 0-1l16 3a2 2 0 0 0 2-1l54-77a14 14 0 0 0 2-3l44-113a6 6 0 0 1 2-3l75-63a2 2 0 0 0 1-2l10-37a7 7 0 0 1 2-3 1 1 0 0 1 1 0l3 40 27-23a1 1 0 0 1 1 0l-2 3-7 20m6 123a12 12 0 0 1-1-4l-3-54h1l53 12a1 1 0 0 1 0 1l-7 49-2 20a4395 4395 0 0 1-5 53h-3a1 1 0 0 1-1-1l-32-76m88 42 6-57h1l44 23-11 48v1l-50 9v-1l15-20a1 1 0 0 0 0-1l-5-2m108 80h-1l-20 10a1 1 0 0 1-1 0l8-113 34 20a13 13 0 0 1 2 2l36 42a2448 2448 0 0 0-28 43l-29 39h-1v-43m131-38a1 1 0 0 0 0 1l28 7-34 53a2 2 0 0 1-2 1l-44 1 22-59a14 14 0 0 0 1-4l2-18a1 1 0 0 1 0-1l6-4a663 663 0 0 0 27-20l-6 43M512 719l-4-3 26-54a1 1 0 0 1 0-1l15-2a4 4 0 0 0 2-1l15-15a7 7 0 0 0 2-3l10-40c0-1 0-1 0 0l32 59a1 1 0 0 1 0 1l-25 24a24 24 0 0 0-5 6 1 1 0 0 1-1 0l-16-12a1 1 0 0 0-1 0l-50 41ZM334 579h-1a9 9 0 0 0 0-3h-1a16 16 0 0 1-2 5l-36 53a1 1 0 0 1-1 1l-18-4 1 25a1 1 0 0 0 1 0l57-9a2 2 0 0 0 1-1l24-32a1 1 0 0 0 0-1l-22-36h-1l-2 2Z"/></svg>
