<svg xmlns="http://www.w3.org/2000/svg" width="40" height="40" fill="none"><path fill="#19B5FF" fill-rule="evenodd" d="M24.74 13.04h4.23c1.47-.05 2.67-.11 3.91-.88a3.18 3.18 0 0 0 1.32-2.7 3.03 3.03 0 0 0-1.33-2.67 7.29 7.29 0 0 0-3.9-.85h-4.23v7.1ZM20.2 2.74v25.53a.68.68 0 0 0 .73.66h9.2c1.42.02 2.84-.16 4.2-.53a8.8 8.8 0 0 0 3.07-1.54 6.52 6.52 0 0 0 1.93-2.49 8.23 8.23 0 0 0 .44-5.26c-.25-1-.75-1.9-1.44-2.66a6.45 6.45 0 0 1-3.4 2.27.07.07 0 0 0-.03.04.12.12 0 0 0 0 .09c.45.61.67 1.36.61 2.12a3.45 3.45 0 0 1-1.44 3.07c-1.38.94-3.58.99-4.52.99h-4.81v-8.06h4.76c4.33 0 9.16-2.02 9.2-7.64C38.82 1.95 30.3 2 29.3 2h-8.37a.74.74 0 0 0-.73.74Zm-6.05 7.8c0-1.63-.5-2.8-1.5-3.53-1-.72-2.52-1.08-4.54-1.07H4.54v9.26H8.1c2.03 0 3.54-.37 4.53-1.1 1-.75 1.5-1.93 1.5-3.55Zm4.6 0a8.75 8.75 0 0 1-.72 3.69 7.37 7.37 0 0 1-2.09 2.68 9.17 9.17 0 0 1-3.22 1.65c-1.38.38-2.8.57-4.23.55H4.54v9.08a.75.75 0 0 1-.44.67.7.7 0 0 1-.29.06H.74a.68.68 0 0 1-.52-.22.75.75 0 0 1-.22-.51V2.74c0-.19.07-.37.2-.5A.7.7 0 0 1 .74 2H8.5a15.1 15.1 0 0 1 4.23.56c1.17.33 2.27.9 3.22 1.65.9.73 1.61 1.65 2.09 2.7.5 1.14.75 2.39.73 3.64Zm18.65 26.9L.26 31.65c-.16-.02-.26-.09-.26-.22s.11-.2.25-.2H37.4c.04 0 .07 0 .1.02a.26.26 0 0 1 .14.13l.02.1v5.71c0 .04 0 .07-.02.1a.24.24 0 0 1-.14.14.23.23 0 0 1-.1.01Z" clip-rule="evenodd"/></svg>