<svg xmlns="http://www.w3.org/2000/svg" width="40" height="40" fill="none"><path fill="#FF8C00" fill-rule="evenodd" d="M27.4 32.5c3.7.8 7.5 1.7 11.5 6.8.4.5-.2 1-.6.6A16.7 16.7 0 0 0 27 35c-3.8 0-6.4.5-9 .5-10 0-18-8-18-17.8S8 0 18 0a17.9 17.9 0 0 1 15.4 27l-.2-.1a8.2 8.2 0 0 0-7.3-7.5c-.3 0-.4-.3 0-.3a18 18 0 0 1 3.8 0A11.8 11.8 0 0 0 18 6.2C11.4 6 6.1 11.2 6.1 17.7c0 6.5 5.3 11.7 11.8 11.7h.6c-.2-1-.2-2-.2-3.1 0-.8.2-.9.5-.3 1.6 2.8 4 5.4 8.6 6.4ZM27 28c.4 0 .9.2 1.3.5.8.7 1 1.5.6 2-.3.3-.6.5-1.1.5a2 2 0 0 1-1.2-.4c-.7-.7-1-1.7-.5-2.3.2-.2.5-.3.9-.3Zm4-3c.6.3.9 1.3 1 1.8 0 .8-.2 1.1-.4 1.1-.3 0-.7-.3-1-1-.5-.5-.6-1.2-.4-1.6.1-.2.4-.3.7-.2Z" clip-rule="evenodd"/></svg>
