<?xml version="1.0" encoding="UTF-8"?><svg id="a" xmlns="http://www.w3.org/2000/svg" viewBox="0 0 104 104"><path d="M0,52c0-1.72.13-3.48.45-5.26h24.7L6.18,27.76c1.53-3.15,3.67-6.31,6.27-9.46l28.83,28.83c.64.64,1.15,1.4,1.5,2.24.35.84.53,1.73.53,2.64s-.18,1.8-.53,2.64c-.35.84-.86,1.6-1.5,2.24l-28.83,28.83c-2.6-3.15-4.74-6.31-6.27-9.46l18.95-18.98H.42C.13,55.48,0,53.69,0,52Z" fill="#253861" stroke-width="0"/><path d="M52,0c1.72,0,3.48.13,5.26.45v24.7l18.98-18.98c3.15,1.53,6.31,3.67,9.46,6.27l-28.83,28.83c-.64.64-1.4,1.15-2.24,1.5-.84.35-1.73.53-2.64.53s-1.8-.18-2.64-.53c-.84-.35-1.6-.86-2.24-1.5L18.3,12.45c3.15-2.6,6.3-4.74,9.46-6.27l18.98,18.95V.42C48.52.13,50.31,0,52,0Z" fill="#c72359" stroke-width="0"/><path d="M104,52c0,1.72-.13,3.48-.46,5.27h-24.7l19.01,18.98c-1.56,3.15-3.71,6.3-6.31,9.46l-28.83-28.83c-.64-.64-1.15-1.4-1.5-2.24-.35-.84-.53-1.73-.53-2.64s.18-1.8.53-2.64c.35-.84.86-1.6,1.5-2.24l28.83-28.83c2.6,3.15,4.74,6.3,6.31,9.46l-18.98,18.98h24.7c.29,1.79.42,3.58.42,5.26Z" fill="#253861" stroke-width="0"/><path d="M52,104c-1.72,0-3.48-.13-5.26-.45v-24.7l-18.98,18.98c-3.39-1.71-6.56-3.82-9.46-6.27l28.83-28.83c.64-.64,1.4-1.15,2.24-1.5.84-.35,1.73-.53,2.64-.53s1.8.18,2.64.53c.84.35,1.6.86,2.24,1.5l28.83,28.83c-3.15,2.6-6.3,4.74-9.46,6.27l-18.98-18.95v24.7c-1.79.29-3.57.42-5.26.42Z" fill="#253861" stroke-width="0"/></svg>