<svg xmlns="http://www.w3.org/2000/svg" viewBox="0 0 104 104">
  <path d="M0 52c0-1.7.1-3.5.5-5.3H25l-19-19c1.6-3 3.8-6.2 6.3-9.4l28.9 28.8a7 7 0 0 1 1.5 7.5 7 7 0 0 1-1.5 2.3L12.5 85.7a48.2 48.2 0 0 1-6.3-9.4l19-19H.3C.1 55.5 0 53.7 0 52Z" fill="#253861"/>
  <path d="M52 0c1.7 0 3.5.1 5.3.5V25l19-19c3 1.6 6.2 3.7 9.4 6.3L56.9 41.3a7 7 0 0 1-7.6 1.5 7 7 0 0 1-2.2-1.5L18.3 12.5a48 48 0 0 1 9.5-6.3l19 19V.3A33 33 0 0 1 52 0Z" fill="#c72359"/>
  <path d="M104 52a29 29 0 0 1-.5 5.3H78.8l19 19a50.2 50.2 0 0 1-6.3 9.4L62.7 57a7 7 0 0 1-1.5-7.5 7 7 0 0 1 1.5-2.3l28.8-28.8a50 50 0 0 1 6.4 9.5l-19 19h24.7c.3 1.7.4 3.5.4 5.2ZM52 104c-1.7 0-3.5-.1-5.3-.5V78.8l-19 19a48.5 48.5 0 0 1-9.4-6.2l28.8-28.9a7 7 0 0 1 7.5-1.5 7 7 0 0 1 2.3 1.5l28.8 28.9a48 48 0 0 1-9.4 6.2l-19-19v24.8a33 33 0 0 1-5.3.4Z" fill="#253861"/>
</svg>
