<svg xmlns="http://www.w3.org/2000/svg" viewBox="0 0 800 800"><path fill="#004891" fill-rule="evenodd" d="M207.3 224.1a175.9 175.9 0 0 1 141.4 280.4l71.3 66.3h-72.4l-33.4-31.1a175.9 175.9 0 0 1-232-16.2l34.3-34.4a127.2 127.2 0 0 0 161.3 16.8L218 450.4h72.4l22.4 20.7a127.2 127.2 0 0 0-195.5-161L83 275.5c33-33 77.7-51.5 124.3-51.4Zm207.7 0a175 175 0 0 0-88.3 23.7 194.3 194.3 0 0 1 35.5 36.4 127.2 127.2 0 0 1 158.4 186.9l-22.4-20.7h-72.4l59.8 55.5a126.7 126.7 0 0 1-88 20l50.3 46.8a175 175 0 0 0 74-33.1l33.4 31h72.4l-71.3-66.2a175.9 175.9 0 0 0-141.3-280.3h-.1Zm274.5 2.3a90.4 90.4 0 0 1 64 154.1A105.1 105.1 0 0 1 695 572.8h-34.7l-48-44.6h82.6v.2a60.7 60.7 0 0 0 0-121.4v.1h-83.4l.1-7.1c0-12.6-1.1-25.1-3.5-37.5h87v-.1a46 46 0 0 0-5.4-91.6v.2H563.2a197.3 197.3 0 0 0-56-44.6h182.4-.1Z"/><path fill="#d1aa67" fill-rule="evenodd" d="M0 320.4h186.5v18H0v-18Zm0 52.9h186.5v-18H0v18Zm0 34.8h186.5v-18H0v18ZM0 443h186.5v-18H0v18Zm0 34.8h186.5v-18H0v18Z"/></svg>
