<svg xmlns="http://www.w3.org/2000/svg" viewBox="0 0 800 351.8">
  <path fill="#004891" fill-rule="evenodd" d="M207.3 0a175.9 175.9 0 0 1 141.4 280.4l71.3 66.3h-72.4l-33.4-31.1a175.9 175.9 0 0 1-232-16.2l34.3-34.4a127.2 127.2 0 0 0 161.3 16.8L218 226.3h72.4l22.4 20.7A127.2 127.2 0 0 0 117.3 86L83 51.4A175.3 175.3 0 0 1 207.3 0ZM415 0a175 175 0 0 0-88.3 23.7 194.2 194.2 0 0 1 35.5 36.4A127.2 127.2 0 0 1 520.6 247l-22.4-20.7h-72.4l59.8 55.5A126.7 126.7 0 0 1 415 303a128 128 0 0 1-17.4-1.2l50.3 46.8a175 175 0 0 0 74-33.1l33.4 31h72.4l-71.3-66.2A175.9 175.9 0 0 0 415.1 0Zm274.5 2.3a90.4 90.4 0 0 1 64 154.1A105.1 105.1 0 0 1 695 348.7h-34.7l-48-44.6h82.6v.2a60.7 60.7 0 1 0 0-121.4v.1h-83.4l.1-7.1a197.4 197.4 0 0 0-3.5-37.5h87v-.1a46 46 0 0 0-5.4-91.6v.2H563.2a197.3 197.3 0 0 0-56-44.6h182.4Z"/>
  <path fill="#d1aa67" fill-rule="evenodd" d="M0 96.3h186.5v18H0Zm0 52.9h186.5v-18H0ZM0 184h186.5v-18H0Zm0 34.9h186.5v-18H0Zm0 34.8h186.5v-18H0Z"/>
</svg>
