<svg xmlns="http://www.w3.org/2000/svg" viewBox="0 0 264.6 264.6"><defs><clipPath id="a"><path fill="none" stroke-width="0" d="M11.6 0v176.4h153.3a88.2 88.2 0 0 0 0-176.4H11.6Z"/></clipPath></defs><path fill="#126537" d="M253 176.4A88.2 88.2 0 0 0 165 88.2H99.8a88.2 88.2 0 0 0 0 176.4H253v-88.2"/><path fill="#7cbd42" d="M164.9 0H11.6v176.4h153.3a88.2 88.2 0 0 0 0-176.4"/><g clip-path="url(#a)"><path fill="#0d9a52" d="M253 176.4A88.2 88.2 0 0 0 165 88.2H99.8a88.2 88.2 0 0 0-.1 176.4H253v-88.2"/></g></svg>
