<svg xmlns="http://www.w3.org/2000/svg" width="40" height="40" fill="none"><path fill="#FFE600" d="M40 32.44C40 37.3 37.3 40 32.44 40H7.56C2.7 40 0 37.3 0 32.44V7.56C0 2.7 2.7 0 7.56 0h24.9C37.3 0 40 2.7 40 7.56v24.88Z"/><path fill="#2B2D34" d="M25.72 18.05v-3.82l1.38-1.38v3.3l1.2 1.2 4.83-4.82 1.2 1.19a8.1 8.1 0 0 0-2.4-5.68c-2.39-2.3-4.97-1.26-5.85-.38l-4.82 4.82 1.23 1.23L20 16.2l-2.49-2.48 1.23-1.23-4.82-4.82c-.88-.88-3.46-1.92-5.84.38a8.1 8.1 0 0 0-2.4 5.68l1.2-1.2 4.82 4.84 1.2-1.2v-3.31l1.38 1.38v3.82L16.22 20l-9.56 9.56 3.78 3.77L20 23.78l9.56 9.56 3.78-3.77L23.78 20l1.94-1.95Z"/></svg>