<svg xmlns="http://www.w3.org/2000/svg" viewBox="0 0 198.42 198.42" width="198.42" height="198.42">
    <path d="M99.21,0a113.27,113.27,0,0,1,25.26,3.08l-8,28.35C110.3,30.19,103.52,29,97.36,29c-46.83,0-83.8,35.13-84.42,84.42s40.67,73.33,54.84,79.49c.62,0,1.24.62,1.85.62v.62A99.33,99.33,0,0,1,99.21,0Zm.62,198.42a113.36,113.36,0,0,1-25.27-3.08l8-28.35c6.16,1.23,12.94,2.47,19.1,2.47,46.84,0,83.81-35.13,84.42-84.42S145.42,11.71,131.25,5.55c-.61,0-1.23-.62-1.85-.62V4.31c40.06,12.94,69,50.53,69,94.28a98.38,98.38,0,0,1-98.59,99.83Zm-11.71-159c4.93-1.24,10.47-1.24,15.4-1.24l-1.85,17.87a74,74,0,0,0-11.7.62C62.24,62.24,43.75,86.88,49.3,116.46S82,155.9,91.2,157.75h1.23v.62a60.13,60.13,0,0,1-51.76-48.69c-6.78-32,14.79-64.08,47.45-70.24Zm23.41,118.31C106.6,159,101.06,159,96.13,159L98,141.11a75.22,75.22,0,0,0,11.7-.61c27.73-5.55,46.22-30.2,40.67-59.78s-32.65-39.43-41.9-41.28h-1.23v-.62A60.11,60.11,0,0,1,159,87.5c6.16,32.66-14.79,64.09-47.45,70.25Z"
          fill="#0100f2"/>
</svg>