<svg xmlns="http://www.w3.org/2000/svg" width="40" height="40" fill="none"><path fill="#00863E" d="m40 27-.3-2.5c-.4-4.1-1.9-8-4.4-11.4-2.2-2.7-5-4.8-8.3-6V0l-2.4.3C20.4.6 16.4 2.2 13 4.7c-2.7 2.2-4.8 5-6 8.3H0l.3 2.5c.4 4.1 1.9 8 4.4 11.4 2.2 2.7 5 4.8 8.3 6V40l2.5-.3c4.1-.4 8.1-1.9 11.4-4.4 2.7-2.2 4.8-5 6-8.3H40ZM24.2 32c-2 1.5-4.3 2.5-6.8 3V20.3H13v7.8a14.4 14.4 0 0 1-8-10.7h14.7V13H12c1-1.9 2.3-3.6 4-4.9 2-1.5 4.2-2.5 6.7-3v14.8H27v-8c1.9 1 3.5 2.3 4.9 4 1.5 2 2.5 4.2 3 6.7H20.4V27h7.7c-1 1.9-2.3 3.5-4 4.9Z"/></svg>