<svg xmlns="http://www.w3.org/2000/svg" width="81" height="50" fill="none">
    <path fill="#00B2C3" d="M73.352 49.88H.002l6.65-21.74h73.35l-6.65 21.74Z"/>
    <path fill="#2C384A" d="M31.292 19.99V6.39h5.98v4.5h2.75v-4.5h5.97v13.6h-5.97v-4.51h-2.75v4.51h-5.98Zm29.58-7.57 2.27-6.03h-5.83l-1.82 4.5h-1.06v-4.5h-5.98v13.6h5.98v-4.51h1.42l1.82 4.51h5.97l-2.77-7.57Zm13.37-4.53a5.124 5.124 0 0 0-3.9 1.61 3.387 3.387 0 0 1 2-2.86c2-.85 4.32-.26 6-1.69V0a16.626 16.626 0 0 1-4 .88c-2.019.212-3.967.86-5.71 1.9-2.43 1.53-4.16 4-4.16 9.13 0 6.64 3.84 8.51 7.8 8.51s7.38-2 7.38-6.33c0-4.18-2.49-6.19-5.43-6.19l.02-.01Zm-2.17 7.95c-1.44 0-1.78-1.13-1.78-2 0-.87.34-2 1.78-2s1.75 1.1 1.75 2c0 .9-.34 2-1.75 2Zm-42.85-2.65c0-3.34-1.5-6.5-4.94-7.14l-.28-.05c-.2 0-.41-.05-.62-.06h-.81A5.42 5.42 0 0 0 18.562 8l-.56-1.61h-4.7v19h6v-6.23a4.76 4.76 0 0 0 1.58.92 5.58 5.58 0 0 0 2.13.35c4.34 0 6.23-3.51 6.23-7.25l-.02.01Zm-8.22 2.46a2 2 0 0 1-1.76-1v-3a2.08 2.08 0 0 1 1.76-1c1.44 0 2.07 1.25 2.07 2.46.01.15.01.3 0 .45a2.06 2.06 0 0 1-2 2"/>
</svg>