<svg xmlns="http://www.w3.org/2000/svg" width="40" height="40" fill="none"><path fill="#E41A19" d="M40 0H0v40h40V0Z"/><path fill="#fff" d="m27.4 5.8-.7.7-.7-.7.7-.7.7.7Zm-.2 1.7v1.2h-.8V7.5c-.4-.1-.9-.2-.9.1 0 .4.2.9.4 1.2l-.3.1-.4.1c-.4-.5-.6-1.1-.7-1.7 0-.9 1.5-.6 2-.5l.4.1.4-.1c.5-.1 1.9-.4 1.9.5-.1.7-.3 1.2-.7 1.7l-.3-.1-.5-.1c.2-.4.4-.8.4-1.2 0-.2-.5-.2-.9-.1Zm1.2 1.8-1.5-.2-1.5.2.2.8 1.3-.1 1.3.2.2-.9Zm-6.3 24.2h-2.7v-.6l-.4.5v-.7l.1-.4.3-.3h.7c.4-.1.8-.2 1.1-.5.3-.3.5-.6.6-1-.6-1-1-2.1-1.1-3.3 0-1.6 1-2.9 3.4-2.9a7 7 0 0 1 2.5.6s-3.1 3.2-3.1 4.2l.5 1.6c-.5 1.1-1.2 2-1.9 2.8Zm12.8-15.4-.2-.3.9-.3c.3 0 .6 0 .9.2-.8-1.6-2.7-1.1-2.8.3-.3.2-.6.5-.7.8-.2.3-.3.7-.2 1.1 0 1 .7 2.6 1.2 3.9.4.9.7 1.6.7 1.9v.4l-.2.3-.3.2-.4.1c-.4 0-.8-.3-1.5-1.2a11 11 0 0 0-2.9-2.8l-2-1.4 2.8-2.1.2 1c.5-.7.8-1.4.9-2.2.1-.8.1-1.6-.1-2.4l-.1-.3-.1-.2.7.3V15c-.5-2.5-2.3-4.5-4.9-4.5l-2.1.3.1.6-1.9.8c0 .6.2 1.2.6 1.6.5.1 1 .1 1.4-.1l.1.3-.1.3-.2.3-.3.1h-.7l.1.4.3.3h1.5l.5-.1.4-.4.2-.5-.1-.5-.2-.5.5.4.2.6.1.5-.2.5-.4.4c.1.2-.1.2-.3.2l-.9.1-1.1.2c-.6.1-1.1.4-1.5.8-.4.4-.7.9-.9 1.5l-1.5.6-.7.3-2 .8c-.4.3-.7.8-.8 1.3l-.1.5.1.5c.4.3.9.4 1.3.4l-.5-.5.7-.1c.3-.2.4-.5.5-.8l1 .1c.7.1 1.4 0 2.1-.3.3.6.8 1.2 1.4 1.6l.6.3c1.5.8 4.7 2 4.7 2l-.1.2c-.9.9-1.5 2.1-1.5 3.4 0 1.7 2.7 1.7 2.7 1.7h.7c-.1.7-.6 1.6-1.2 1.6h-.8l-.3.3-.1.4v.7l.5-.5v.5h2.7l.2-.4c.6-1 1-2 1.3-3.2 0-.5-2.1-1-2.3-1l.8-3.2c.9 1.3 1.8 1.8 2.4 1.8.4 0 .8-.2 1.1-.4.3-.3.5-.7.5-1.1 0-.6-.2-1.1-.6-2.1l-.7-1.7-.1-.2c-.5-1.4-1-2.5 0-3.2v.1l.6.3.7-.1.5-.4.2-.6c-.2-.4-.6-.3-1-.1Zm-9.6-6.6c.4-.1.9 0 1.3.2-.9.6-1.4.5-1.3-.2Zm-4.4 2.3.4.5 1.6 2.1c-.7.4-1.6.5-2.4.3-1.2-.3-1.5-2.1-1.5-2.1l-.1-1c-.3 0-.6 0-.9-.2l-.2-.6-.3.6v-1.2l.4-.2h.5c.5 0 .9.1 1.3.3l1.2 1.5Z"/></svg>