<svg xmlns="http://www.w3.org/2000/svg" viewBox="0 0 309.5 262.6"><path fill="#272361" d="M78.6 56.4h-17c-.6 0-.7-.3-.3-.7l4.6-4.5A.9.9 0 0 0 66 50l-3.3-4.3c-.4-.5-.3-.7.4-.7h16c.3 0 .5-.2.5-.6v-2c-.1-.5.2-.7.7-.7h1.2a.8.8 0 0 1 .8.7v13.3a2.7 2.7 0 0 0 .3 1.2l27.4 45.9c.3.6.6.6.7-.1l3.2-19c.1-.4 0-.6-.4-.7l-.7-.3q-2-.6 0-1.2a4.3 4.3 0 0 0 2.3-1.4 1.4 1.4 0 0 0 .2-.7l.3-9.4a.5.5 0 0 0-.7-.5 6.4 6.4 0 0 1-2.1.2c-2-.7-2-1.2.2-1.5l1.9-.3a1 1 0 0 0 .8-.7c2-5.8 4-11.9 6-18.4.6-1.7 0-2.2-1.6-1.4a3.1 3.1 0 0 1-1.9.3 1 1 0 0 1-.9-.4l-2.6-2.8a1.4 1.4 0 0 0-1.2-.6 2.6 2.6 0 0 0-1.7.5c-.4.2-.5.2-.3-.3a3.9 3.9 0 0 1 2.5-2.4 1.6 1.6 0 0 1 1 .2c1.2.6 2.6 1.7 4.1 1.3a4.4 4.4 0 0 0 3.2-4.8l.1-.1h.2a.3.3 0 0 1 .3.3c.1 4.2-.5 9.1 1 12.9l5.6 15a.8.8 0 0 0 .7.7l3.4 1.2v.5c0 .4-.1.5-.5.6h-2.5c-.5 0-.7.2-.6.7l1.2 9.7a.9.9 0 0 0 .8.9l1.6.4c.6.3.6.6 0 .8l-1 .3a.8.8 0 0 0-.5.9l3.3 14.4c.2.8.4.8.8 0L153.1 62a.5.5 0 0 0-.2-.8l-2.1-.9c-.6-.3-.6-.6 0-.8l3.1-1.4a1.1 1.1 0 0 0 .7-1.1l.5-13a.5.5 0 0 0-.6-.6l-4.9-.4a1 1 0 0 1-.5-.4.2.2 0 0 1 0-.3c.1-.2.2-.3.4-.3l4.7-1.3a1.5 1.5 0 0 0 1.2-1.1l6.9-17.1c1.3-3 1-6.2.9-9.4a.6.6 0 0 0-.7-.6h-3.7c-1.1.1-1.2-.3-.5-1a3.6 3.6 0 0 0 .7-1 .8.8 0 0 0-.4-1 3.3 3.3 0 0 1-1.4-1q-.6-.6.3-.6h4.7a.6.6 0 0 0 .7-.7V3.1a.6.6 0 0 1 .6-.6h.5a.7.7 0 0 1 .8.8l-.1 14.2a13.8 13.8 0 0 0 1 4.9l7.4 16.9a1.4 1.4 0 0 0 .9.8l3.9 1a1.3 1.3 0 0 1 .9 1c0 .4-.2.7-.6.7l-3.2.2c-.4.1-.5.3-.5.7l1 13.5a1.1 1.1 0 0 0 1 .9 4.8 4.8 0 0 1 2 .7.5.5 0 0 1 .1.9l-1.5 1a.7.7 0 0 0-.3 1 90.1 90.1 0 0 1 4.2 9.6c.6 1.7 1 1.7 1.3-.1s1.4-3.3 3.2-5a1.8 1.8 0 0 0 .4-1v-8.8a3.9 3.9 0 0 1 .9-3 .7.7 0 0 0 0-.9c-1.8-2-2.7-4-1.1-6.4a144.5 144.5 0 0 0 8.1-13.9 7.6 7.6 0 0 0 .9-4.5h-.1c-.5 2.8 5.2 9.9 7 11.8s.9.6.8-.4c-.8-4.7.9-8 4.4-11a53.9 53.9 0 0 0 5.8-5.9c5-6.2 6.2-13.6 6-21.5 0-.4.2-.7.6-.7h.2c.2 0 .3.1.4.3.3 2.5-.1 4.9.5 7.4a68.3 68.3 0 0 0 8.7 21.1c.2.3.6.3.7 0a18.7 18.7 0 0 0 1.4-8.1c-.1-.2 0-.3.2-.3h.3c.1.1.2.1.2.3-.7 7.5 3.7 13.4 7.6 19.3a.3.3 0 0 0 .4 0 17.4 17.4 0 0 0 4.2-11.6c0-.3.1-.4.3-.4h.3a.1.1 0 0 1 .1.1c.2 5.8 2.8 9.6 6.2 14a15.8 15.8 0 0 1 3.5 10V68a1.1 1.1 0 0 0 .7.9l29 10.3a.8.8 0 0 1 .2 1.3c-1.2 1.2-2.4 2.5-2.4 4.3v33.8a.5.5 0 0 1-.4.5h-40.6c-.3 0-.5.3-.3.5l10.4 14.3a1.1 1.1 0 0 0 1 .6h33.3c.4 0 .7.3.8.8l.3 2.5c.1.5-.1.8-.6.8H224q-.7 0-.3.6l9.4 12.7a.8.8 0 0 0 .8.4h56.2a.3.3 0 0 1 .3.3l.6 4-.2.2h-83.7a.3.3 0 0 0-.3.5l9 12a1.1 1.1 0 0 0 1 .5h76.3l.1.1.5 5.7a.2.2 0 0 1-.2.2H190c-.4 0-.5.2-.2.5l8.2 10.6a1.4 1.4 0 0 0 1.2.6h97.7l.2.2 1.1 7.1c0 .2-.1.2-.2.2H172.5c-.6 0-.7.3-.3.8l7.7 9.1a1.2 1.2 0 0 0 .9.4h119.4l1.9 7.9c.1.2 0 .2-.1.2H154.8l7 8.8c.2.2.3.3.5.3h141.2c.4 0 .6.1.6.4l1.7 9.1a.5.5 0 0 1-.6.6H137.8s-.1.1 0 .1a133.4 133.4 0 0 0 6.3 7.1h162.7a.5.5 0 0 1 .5.4l2.2 10.6a.5.5 0 0 1-.5.7H121.3a.5.5 0 0 0-.4.8l4.2 4.4a2.5 2.5 0 0 0 1.8.8H309l.2.1-.7 4c0 .1 0 .2-.2.2l-297.3.8c-.2 0-.3-.2-.3-.4l9.7-110.5c0-.2-.2-.5-.4-.5L.8 147.3c-1.1-.2-1.1-.5 0-.8l23.8-6.1a3.4 3.4 0 0 0 1.8-1.3l52.8-81.5q.8-1.2-.6-1.2Z"/></svg>
