<svg xmlns="http://www.w3.org/2000/svg" width="40" height="40" fill="none"><path fill="#19502E" d="M19.77 40C9.97 40 2 32.03 2 22.24c0-5.63 2.58-10.8 7.09-14.2l.18-.14V0h10.2v4.48h.3c9.8 0 17.76 7.96 17.76 17.76S29.56 40 19.77 40Z"/><path fill="#FFCB05" d="m17.28 5.33.49-.47V1.15h.56v5.49l-3.7 3.63V1.15h.56v6.23l.49-.48V1.15h.55v5.2l.5-.47V1.15h.55v4.18Zm-3.71 2.05-.5-.48V1.15h-.55v5.2l-.49-.47V1.15h-.56v4.19l-.49-.48V1.15h-.56v5.49l3.7 3.63V1.15h-.55v6.23Zm1.06 5.94 3.7-3.64V7.36l-3.7 3.62v2.34Zm0 9.2 3.7-3.63v-2.47l-3.7 3.62v2.49Zm3.7-9.8-3.7 3.64v-2.34l3.7-3.62v2.33Zm0 3.06-3.7 3.63v-2.34l3.7-3.62v2.33Zm-7.9 3.11 3.7 3.64v-2.49l-3.7-3.62v2.47Zm0-9.2 3.7 3.63v-2.34l-3.7-3.62v2.33Zm3.7 6.67-3.7-3.63V10.4l3.7 3.62v2.34Zm-3.7-.58 3.7 3.63v-2.34l-3.7-3.62v2.33Zm13.43 1.92h8.61c.25 0 .47.2.46.47v.3c0 .25-.2.47-.46.47h-1.33v.4h.66v.58h-.66v.59h.66v1.09h-.66v-.5h-.98v.5h-.66v-1.1h.66v-.58h-.66v-.58h.66v-.4h-6.69c.2.3.3.64.3 1.02a1.94 1.94 0 1 1-3.52-1.13.62.62 0 0 1 0-1.03 1.94 1.94 0 1 1 3.22-.1h.4Zm-2.03 3.25a1 1 0 0 0 1-1c0-.4-.47-1.37-.47-1.37v-.53s.47-.97.47-1.38a1 1 0 0 0-1-1 1 1 0 0 0-.83 1.55l.28.47a.83.83 0 0 0 0 1.25l-.28.47a1 1 0 0 0 .83 1.55Z"/><path fill="#fff" d="M19.77 5.62c-.27 0-.53 0-.8.02v1.13l.8-.02a15.49 15.49 0 1 1-10 3.65V8.96a16.62 16.62 0 1 0 10-3.34ZM7.06 18.94v-2.42s.4 1.34 1.88 2.83c.47.48 1.03 1.01 1.72 1.68l1.48 1.44.17.16a4.62 4.62 0 0 1 1.66 3.76v2.67c-.24-.6-.43-.94-1.5-1.99a3981.76 3981.76 0 0 0-3.83-3.76 6.25 6.25 0 0 1-1.58-4.37Zm3.6 8.06 1.48 1.44.16.16c.65.6 1.67 1.56 1.67 3.76v2.83l-.01-.05c-.24-.57-.44-1.07-1.48-2.09L8.64 29.3a6.59 6.59 0 0 1-1.58-4.38v-2.1s.4 1.01 1.88 2.5c.47.48 1.03 1.01 1.72 1.68Zm21.6 2.83c-.23.37-.48.73-.73 1.08V27.6h.73v2.23Zm1.4-3.04c.1-.32.2-.65.28-.98h-2.41v.6h.36c.64-.02 1.36-.03 1.77.38Zm-16.71-1.06h.65v6.62h-.65v-6.62Zm-1.5-1.27h2.15c.56 0 .94.11 1.18.33.22.21.33.6.33 1.16v6.2c0 .55-.11.94-.33 1.16-.35.34-.98.34-1.5.34l-.33-.01v2.93l.17.03.48.08v-2.4c1 0 1.65-.35 1.96-1.02v3.58h.62V26.07c0-.57.12-.97.33-1.2.22-.23.6-.34 1.16-.34h.24c.54-.01 1.2-.02 1.56.34.22.23.32.63.32 1.2v3.17h-1.48v-3.38h-.64v10.87c.21-.02.43-.06.64-.1v-6.75h1.48v6.4c.3-.08.6-.18.9-.29v-5.86c0-.66.16-1.16.84-1.4l-.75-4.07h1.5l.25 4.46h.18l.26-4.46h1.58l-.85 4.08c.71.25.85.68.85 1.39v3.79c.43-.33.85-.68 1.25-1.06v-8.23h4.39l.08-.6H24l.14.74c-.32-.6-.94-.9-1.84-.9h-.64c-1.09 0-1.75.44-2 1.3-.23-.9-.92-1.35-2.07-1.35h-2.8v12.15c.2.08.42.15.64.22V24.46Zm13.62 4.68-.7-.68.7-3.65v4.33Zm-2.12 5.82c-.22.13-.44.24-.67.36v-5.37h.67v5.01Z"/></svg>