<svg xmlns="http://www.w3.org/2000/svg" viewBox="0 0 119.2 119.1"><path fill="#19488c" d="M119.2 4c0-3.3-1.1-4-4.3-4H4.5C1 0 0 .8 0 4.3c.2 18.4 0 36.7 0 55 0 18.5.2 37 0 55.4 0 3.6 1 4.4 4.5 4.4h110.4c3.2 0 4.3-.7 4.3-4.1V4Zm-13.8 97c0 3.5-1 4.4-4.5 4.4-13.8-.2-27.6 0-41.4 0-13.8 0-27.6-.2-41.5 0-3.3 0-4.5-.8-4.5-4.4V18.1c0-3.6 1.2-4.4 4.5-4.4 27.7.2 55.3.2 83 0 3.4 0 4.4.9 4.4 4.4a7636 7636 0 0 0 0 82.9Zm-71-75.4h16.4c2 0 3.4.7 4.7 2.1A2379 2379 0 0 0 85 57c2.1 2 1.8 3-.1 5-9.8 9.5-19.4 19.2-29 28.9-1.3 1.3-2.6 2.3-4.7 2.3-5.1-.2-10.2 0-15.4 0-.5-2 1-2.6 1.9-3.4 9.1-9.2 18.2-18.4 27.5-27.5 2.3-2.2 2.5-3.5 0-5.8-9-8.7-17.7-17.6-26.5-26.4l-4.2-4.4Z"/></svg>
