<svg xmlns="http://www.w3.org/2000/svg" viewBox="0 0 71 71"><path fill="#02335e" d="M25.5 60.4h.1c20.6 7.5 41.6-10.7 35.7-32.2a26.9 26.9 0 0 0-51.7-.9 29.6 29.6 0 0 0-1.2 9.8q.2 9.4 0 19.8c0 .8-.3.9-.8.2C-7.2 38.6.6 10.6 22.8 2.3a35.2 35.2 0 0 1 34.9 60.2c-8.9 7.2-19.3 9.5-31.2 7a1.1 1.1 0 0 1-.9-1.1v-8Z"/><path fill="#419adb" d="M25.6 60.4h-.1c-2.5-1.1-7-3.4-8.9-6a1.5 1.5 0 0 1-.4-1.1q.2-6 0-12.6c-.1-4.9.2-8.7 1.1-11.4 4.5-13.3 22.5-17.7 32-6.6 13.9 16.2-4 39.1-23.1 29.4-.5-.2-.7-.1-.7.4v7.9M46 35.2a10.7 10.7 0 1 0-10.7 10.7A10.6 10.6 0 0 0 46 35.2Z"/></svg>
