<svg xmlns="http://www.w3.org/2000/svg" viewBox="0 0 300 300"><path fill="#0075b5" d="M0 0h300v300H0V0"/><path fill="#013a63" d="M176 140.4V67.5c0-.3-.1-.5-.5-.5h-51.7a1.4 1.4 0 0 1-1.5-1.2 7.1 7.1 0 0 1-.2-2l-.1-25.4a2.1 2.1 0 0 1 2.3-2.3l73.1-.2c8.2 0 14.8.4 19.5 1.3a66 66 0 0 1 38.9 22.6 66.6 66.6 0 0 1 16.1 47.1 65.1 65.1 0 0 1-4 20.7 68 68 0 0 1-51.5 43.4 130.7 130.7 0 0 1-19 1.1c-25.5-.1-49.7-.2-72.7-.1a2.4 2.4 0 0 1-2.7-2.7V143a1.8 1.8 0 0 1 2-2h51.4a.5.5 0 0 0 .6-.6m6 2.7c0 2.5-1.9 3.9-4.3 3.9h-49a.6.6 0 0 0-.7.7v17.7a.7.7 0 0 0 .7.7q35.8-.3 67.7 0a97.5 97.5 0 0 0 17.8-1.3c28.4-5.8 45.5-24.6 50.9-52.5 1.6-8.3.5-16.4-1.8-24.4a60.8 60.8 0 0 0-47-44.2 70.6 70.6 0 0 0-16.2-1.7h-71.6a.5.5 0 0 0-.5.5v18a.5.5 0 0 0 .5.5h49.6a4 4 0 0 1 3.9 3.9v78.2Z"/><path fill="#fdfffe" d="M177.7 147c2.4 0 4.3-1.4 4.3-3.9V64.9a4 4 0 0 0-3.9-3.9h-49.6a.5.5 0 0 1-.5-.5v-18a.5.5 0 0 1 .5-.5h71.6a70.6 70.6 0 0 1 16.2 1.7 60.8 60.8 0 0 1 47 44.2c2.3 8 3.4 16.1 1.8 24.4-5.4 27.9-22.5 46.7-50.9 52.5a97.5 97.5 0 0 1-17.8 1.3q-31.8-.3-67.7 0a.7.7 0 0 1-.7-.7v-17.7a.6.6 0 0 1 .7-.7Z"/><path fill="#013a63" d="M116 192.7a.5.5 0 0 0 .5.5q26.4-.5 51.9 0a1.4 1.4 0 0 1 1.3 1.2 14.5 14.5 0 0 1 .3 3l-.1 24.7a1.9 1.9 0 0 1-1.8 1.9H85.4a64.6 64.6 0 0 1-14-1.9 54.5 54.5 0 0 1-11.6-4 68.2 68.2 0 0 1 5.8-126.3 64.2 64.2 0 0 1 16.3-3.6c6-.2 12-.3 17.8-.2 23.8.2 46.5.3 67.9.1a2.1 2.1 0 0 1 2.4 2.4V117a1.8 1.8 0 0 1-2 2h-51.2c-.6 0-.8.2-.8.7v73m-88.1-23.5a61.5 61.5 0 0 0 50.7 47.7 72.6 72.6 0 0 0 14.8 1.1h70.1a.5.5 0 0 0 .5-.5v-18a.5.5 0 0 0-.5-.5h-49q-4.5 0-4.5-4.5v-77.3c0-2.8 1.4-4.2 4.3-4.2h49.4a.3.3 0 0 0 .3-.3V94.5c0-.3-.2-.6-.5-.5q-33.6.2-67.1-.1a110.9 110.9 0 0 0-14.4.7 64.8 64.8 0 0 0-14.6 3.5 62 62 0 0 0-41 52.7 50.1 50.1 0 0 0 1.5 18.4Z"/><path fill="#fdfffe" d="M78.6 216.9c-26-5-44-21.3-50.7-47.7a50.1 50.1 0 0 1-1.5-18.4 62 62 0 0 1 41-52.7A64.8 64.8 0 0 1 82 94.6a110.9 110.9 0 0 1 14.4-.7q33.5.3 67.1.1c.3-.1.5.2.5.5v18.2a.3.3 0 0 1-.3.3h-49.4c-2.9 0-4.3 1.4-4.3 4.2v77.3q0 4.5 4.5 4.5h49a.5.5 0 0 1 .5.5v18a.5.5 0 0 1-.5.5H93.4a72.6 72.6 0 0 1-14.8-1.1Z"/><path fill="#013a63" d="M204.1 193.3a67.8 67.8 0 0 1 62.8 65.2v11.6a1.9 1.9 0 0 1-1.9 1.9h-86.8a2.2 2.2 0 0 1-2.2-2.2v-75a1.5 1.5 0 0 1 1.5-1.5c8.9-.4 17.8-.3 26.6.1m45 32.3a64.2 64.2 0 0 0-53.1-26.6h-13.3a.7.7 0 0 0-.7.7v65.5a.7.7 0 0 0 .8.8h77.7a.5.5 0 0 0 .5-.5 66.7 66.7 0 0 0-11.9-39.9Z"/><path fill="#fdfffe" d="M196 199a64.2 64.2 0 0 1 53.1 26.6 66.7 66.7 0 0 1 11.9 39.9.5.5 0 0 1-.5.5h-77.7a.7.7 0 0 1-.8-.8v-65.5a.7.7 0 0 1 .7-.7Z"/></svg>
