<svg xmlns="http://www.w3.org/2000/svg" width="40" height="40" fill="none"><path fill="#0999D5" d="M30.9 15.5v-4.6c0-2.5-2-4.6-4.6-4.6a4.6 4.6 0 0 0-4.5 4.6v4.6h-3.7c0-5-4.1-9-9-9a9 9 0 0 0-9.1 9c0 5 4.1 9 9 9v4.6c0 2.5 2 4.6 4.6 4.6 2.6 0 4.6-2 4.6-4.6v-4.6h3.7c0 5 4.1 9 9 9 5 0 9-4.1 9-9a9 9 0 0 0-9-9Zm-23.7 0c0-1 .8-1.8 1.8-1.8s1.9.7 1.9 1.8-.8 1.8-1.8 1.8c-1.1 0-1.9-.8-1.9-1.8Zm23.7 10.8c-1 0-1.8-.8-1.8-1.8s.8-1.8 1.8-1.8 1.8.8 1.8 1.8-.8 1.8-1.8 1.8Zm5.4-12.6c2 0 3.7-1.6 3.7-3.7s-1.6-3.7-3.7-3.7a3.7 3.7 0 1 0 0 7.4Z"/></svg>