<svg xmlns="http://www.w3.org/2000/svg" viewBox="0 0 55.1 61.5"><path d="M27.5,47.2c-9.7-9.4-15.8-15.4-18.1-18s-2.8-6-1.2-10l19-19a.5.5,0,0,1,.8,0l.9.8a.6.6,0,0,1,0,.9L16.2,14.6c-3.9,3.8-4.2,9-.2,13L31.2,42.8a.5.5,0,0,1,0,.7l-3.7,3.7Zm.1-32.8-3.7,3.7c-.2.3-.2.5,0,.7l14,13.9c2.9,2.9,4.9,5.4,3.8,9.6a11.3,11.3,0,0,1-3.3,5.2c-4.4,4.2-8.5,8.3-12.3,12.2a.6.6,0,0,0,.1.9l.8.8a.6.6,0,0,0,.9-.1L47.1,42a12.8,12.8,0,0,0,.2-6.4c-.4-1.4-1.6-3-3.5-5C38.5,25.2,33,19.8,27.6,14.4Zm-3.9,8.8a4.2,4.2,0,0,1-.9-3.6c.1-.6-.1-.6-.5-.1-1.6,2.1-5.4,4.4-2.3,7.5s7.2,7.2,10.8,10.7a4.7,4.7,0,0,1,1.5,4.1c0,.6.1.7.5.3,1.9-2.2,5.3-4.6,2.1-7.7L23.7,23.2Z" fill="#fc0d1b"/><path d="M31.3,10.6,47.7,27.1A13.6,13.6,0,0,1,51.2,32a10.2,10.2,0,0,1-.5,6.4L47.1,42a12.8,12.8,0,0,0,.2-6.4c-.4-1.4-1.6-3-3.5-5C38.5,25.2,33,19.8,27.6,14.4l3.7-3.8Z" fill="#341bc8"/><path d="M4.9,22.6a9.2,9.2,0,0,0-.8,6.8c.4,1.4,1.6,3.1,3.7,5.2C13.1,40,18.4,45.4,23.9,50.8l-3.3,3.3a.5.5,0,0,1-.8,0L3.3,37.7C-1.9,32.6-.6,26.9,4.9,22.6Z" fill="#26855e"/><path d="M50.7,38.4a10.2,10.2,0,0,0,.5-6.4,13.6,13.6,0,0,0-3.5-4.9L31.3,10.6l3.3-3.4a.6.6,0,0,1,.6,0c4.4,4.6,10.1,10.3,17.1,17.2,4.4,4.3,3.4,10.2-1.6,14ZM8.2,19.2,4.9,22.6a9.2,9.2,0,0,0-.8,6.8c.4,1.4,1.6,3.1,3.7,5.2C13.1,40,18.4,45.4,23.9,50.8l3.6-3.6c-9.7-9.4-15.8-15.4-18.1-18s-2.8-6-1.2-10Z" fill="#fff"/></svg>