<svg xmlns="http://www.w3.org/2000/svg" viewBox="0 0 152.29 151.21" width="152.29" height="151.21">
    <path d="M76.15,50.14a26.47,26.47,0,0,1,26.46,26.47v74.6h49.68V40.8C152.29,18.28,133,0,109.14,0,101.6,0,94.82-.35,87.39,1.76c-.55.16-1.1.33-1.64.51-1,.31-1.89.65-2.82,1A44.27,44.27,0,0,0,77,6.21,26.47,26.47,0,0,1,102.59,31.5c0,.81,0,1.62,0,2.42,0,.38,0,.77,0,1.16V76.61a26.47,26.47,0,0,1-52.93,0v39.49c0,.39,0,.77,0,1.16,0,.79,0,1.6,0,2.42A26.47,26.47,0,0,0,75.26,145a43.15,43.15,0,0,1-5.9,2.92c-.92.37-1.86.71-2.81,1-.55.18-1.09.35-1.65.51-7.42,2.12-14.2,1.74-21.74,1.74C19.32,151.19,0,132.93,0,110.41V0H49.68V76.56A26.46,26.46,0,0,1,76.15,50.14Z"
          fill="#2e0d75"/>
</svg>