<svg xmlns="http://www.w3.org/2000/svg" width="40" height="40" fill="none"><path fill="#21A038" d="M35.35 7.77a20.12 20.12 0 0 1 2.37 3.98L19.74 25.18l-7.51-4.78v-5.74l7.51 4.78L35.35 7.77Z"/><path fill="url(#a)" d="M4.56 20c0-.26 0-.51.02-.77L.03 19a20.18 20.18 0 0 0 5.76 15.13L9 30.88A15.34 15.34 0 0 1 4.56 20Z"/><path fill="url(#b)" d="m19.74 4.62.75.02.23-4.61A19.45 19.45 0 0 0 5.78 5.86l3.23 3.27a15.11 15.11 0 0 1 10.73-4.51Z"/><path fill="url(#c)" d="M19.74 35.38c-.26 0-.51 0-.76-.02l-.23 4.61a19.38 19.38 0 0 0 8.54-1.49c2.4-1 4.57-2.48 6.4-4.34l-3.23-3.27a15.12 15.12 0 0 1-10.72 4.51Z"/><path fill="url(#d)" d="m28.3 7.3 3.83-2.86A19.48 19.48 0 0 0 19.73 0v4.62c3.06 0 6.04.93 8.56 2.68Z"/><path fill="#21A038" d="M39.47 20c0-1.2-.1-2.4-.3-3.58l-4.26 3.17V20a15.51 15.51 0 0 1-5 11.4l3.07 3.43A19.94 19.94 0 0 0 39.48 20Z"/><path fill="url(#e)" d="M19.74 35.38a14.97 14.97 0 0 1-11.25-5.07l-3.39 3.1A19.7 19.7 0 0 0 19.74 40v-4.62Z"/><path fill="url(#f)" d="M9.56 8.6 6.5 5.17A19.94 19.94 0 0 0 0 20h4.56a15.52 15.52 0 0 1 5-11.4Z"/><defs><linearGradient id="a" x1="6.7" x2="1.6" y1="33.56" y2="19.01" gradientUnits="userSpaceOnUse"><stop offset=".14" stop-color="#F1E813"/><stop offset=".3" stop-color="#E6E418"/><stop offset=".58" stop-color="#C9DA26"/><stop offset=".89" stop-color="#A2CC39"/></linearGradient><linearGradient id="b" x1="7.08" x2="19.96" y1="6.68" y2="1.84" gradientUnits="userSpaceOnUse"><stop offset=".06" stop-color="#0FA7DF"/><stop offset=".54" stop-color="#0098F8"/><stop offset=".92" stop-color="#0290EA"/></linearGradient><linearGradient id="c" x1="18.45" x2="32.98" y1="37.21" y2="33.97" gradientUnits="userSpaceOnUse"><stop offset=".12" stop-color="#A2CC39"/><stop offset=".28" stop-color="#86C239"/><stop offset=".87" stop-color="#219F38"/></linearGradient><linearGradient id="d" x1="18.78" x2="31.22" y1="1.55" y2="5.33" gradientUnits="userSpaceOnUse"><stop offset=".06" stop-color="#0290EA"/><stop offset=".79" stop-color="#0C89CA"/></linearGradient><linearGradient id="e" x1="6.25" x2="19.79" y1="32.85" y2="37.85" gradientUnits="userSpaceOnUse"><stop offset=".13" stop-color="#F1E813"/><stop offset=".3" stop-color="#EAE616"/><stop offset=".53" stop-color="#D8DF1F"/><stop offset=".8" stop-color="#BAD52D"/><stop offset=".98" stop-color="#A2CC39"/></linearGradient><linearGradient id="f" x1="1.7" x2="7.25" y1="20.56" y2="6.32" gradientUnits="userSpaceOnUse"><stop offset=".07" stop-color="#A2CC39"/><stop offset=".26" stop-color="#81C45E"/><stop offset=".92" stop-color="#0FA7DF"/></linearGradient></defs></svg>