<svg xmlns="http://www.w3.org/2000/svg" width="40" height="40" fill="none"><path fill="#0A3E86" d="M10.11 17.9a5.46 5.46 0 0 0-2.58 2.12 4.64 4.64 0 0 0-.7 2.25 2.7 2.7 0 0 0 1.72 2.7c.7.34 1.43.6 2.19.8l.94.29c.5.1.95.39 1.26.8a1.25 1.25 0 0 1-.32 1.31c-.42.38-.94.6-1.5.66-.4.03-.82 0-1.22-.07a1.5 1.5 0 0 1-1.05-.7 2.7 2.7 0 0 1-.13-1.33H5.43c-.3 1.1-.15 2.27.4 3.26.21.33.48.6.8.82.96.6 2.1.9 3.23.82 1.04 0 2.08-.17 3.06-.5a5.98 5.98 0 0 0 2.75-2.22c.4-.62.67-1.3.8-2.03a3.2 3.2 0 0 0-.18-1.97c-.14-.27-.33-.5-.55-.7-.63-.58-1.42-.95-3.23-1.42-1.28-.36-1.73-.56-2.02-.84a.6.6 0 0 1-.19-.42c0-.3.11-.58.3-.8.18-.22.4-.38.67-.47.57-.18 1.2-.2 1.78-.05.2.06.38.15.53.29.15.13.26.3.32.5.05.25.05.5 0 .76h3.3a4.1 4.1 0 0 0-.23-2.44c-.14-.32-.34-.6-.6-.83-.67-.59-1.5-.96-2.39-1.06a9.75 9.75 0 0 0-1.41-.08c-.84.07-1.67.25-2.46.55Zm9.49-.31-3.07 13.68h3.54c3.81 0 3.6 0 4.34-.12a4.89 4.89 0 0 0 3.96-3.35c.13-.36.23-.73.3-1.1a2.88 2.88 0 0 0-.46-2.22 2.6 2.6 0 0 0-1.05-.74s.55-.32.75-.47a3.9 3.9 0 0 0 1.56-2.49c.28-1.61-.36-2.65-1.95-3.03a4.3 4.3 0 0 0-1.04-.15l-6.88-.01Zm5.65 2.83a.76.76 0 0 1 .54.3c.13.16.2.37.18.58-.01.37-.13.73-.34 1.03-.23.29-.54.5-.9.6-.52.06-1.04.08-1.57.06h-1.41l.57-2.6h1.37c.49 0 1.18 0 1.56.02Zm-1 4.9a1.1 1.1 0 0 1 1.05.74c.07.27.07.56 0 .83a1.79 1.79 0 0 1-1.46 1.47c-.58.07-3.3.04-3.3.04l.71-3.08h3Zm4.39 5.96h3.31L35 17.65h-3.32l-3.04 13.63Z"/><path fill="#FC121B" d="M28.95 8c-3.27 0-8.49 1.23-12.73 2.83a41.02 41.02 0 0 0-12.5 7.3c-.41.37-2.77 2.6-3.72 4.6a34.29 34.29 0 0 1 5.36-4.3c6.01-3.82 12.8-6.2 19.88-7 4.14-.4 8 .33 9.7 1.41 4.53 2.9 1.76 7.2 1.73 7.31C37 19.8 40 17.02 40 13.33c0-1.61-1.2-3.2-2.98-4.06C34.4 8 32.48 8 28.95 8Z"/></svg>