<svg xmlns="http://www.w3.org/2000/svg" viewBox="0 0 200 200"><path fill="#8fce42" d="M109.8 0h8.9A86.2 86.2 0 0 1 200 81.1V90q-2.5 37.1-30.4 61.1a106.1 106.1 0 0 1-10.9 8.1 78.8 78.8 0 0 1-22.2 9.1 85.6 85.6 0 0 0 25.7-22.6A77.2 77.2 0 0 0 57.8 35.3a78.5 78.5 0 0 0-26.4 29.2 75.3 75.3 0 0 1 9.4-22.9l.1-.2-.1-.2a86.6 86.6 0 0 1 69-41.2Z"/><path fill="#3778ba" d="m40.8 41.2.1.2-.1.2a75.3 75.3 0 0 0-9.4 22.9 77.3 77.3 0 0 0 57.2 111.8 75.9 75.9 0 0 0 43-6.1 40.1 40.1 0 0 1 4.9-1.9 78.8 78.8 0 0 0 22.2-9.1q-24.1 37.4-68.6 40.8h-9A86.2 86.2 0 0 1 0 118.9v-8.8a86 86 0 0 1 40.8-68.9Z"/><path d="M70 92.4c7.7 2.6 15.3 4.5 21 10.5s5.8 17-.6 22.8a24.8 24.8 0 0 1-16.7 5.7c-12.8.3-25.5-5.7-26.2-19.8a.5.5 0 0 1 .5-.6h11.7c.5 0 .7.2.7.7.1 5.1 2.7 8.1 7.8 9.2s13.8.8 14.2-6.2c.3-5.1-3-6.3-6.7-8.2a7.2 7.2 0 0 0-2-.9c-9.7-2.9-23.4-7.4-24.2-19.5-1.6-24.1 44.8-25.7 45.7.1 0 .4-.1.5-.5.5H83c-.4 0-.6-.1-.6-.5-.4-6.8-5.9-9-11.9-8.4-4 .4-6.5 1.8-7.7 4.4-2.4 5.5 2.8 8.7 7.2 10.2ZM140.8 98.9a11.4 11.4 0 0 1 6.1 3.9c4 4.5 4 11.8 1.9 17.1-2.8 7.3-11.1 10.5-18.5 10.6h-26a.3.3 0 0 1-.3-.3V69a.5.5 0 0 1 .6-.6c8.9-.1 17.1-.1 24.6.1 10.6.2 20.1 5.7 19.5 17.8-.2 5.4-2.9 9.4-8 11.9-.6.3-.6.5.1.7m-24.1-19.8v15a.3.3 0 0 0 .3.3h11c4.4 0 8-3.1 7.9-6.9v-1.8c0-3.9-3.5-7-7.9-6.9h-11a.3.3 0 0 0-.3.3m0 24.6V120l.2.2h12.3a7.9 7.9 0 0 0 8.1-7.7v-1.3a7.9 7.9 0 0 0-8.2-7.7h-12.2a.2.2 0 0 0-.2.2Z"/></svg>
