<svg xmlns="http://www.w3.org/2000/svg" viewBox="0 0 448.4 448.4">
  <path fill="#427b55" d="M117.8 448.4c-4.8 0-6.9-1.4-6.4-6.2 1.7-17.4 3-34.8 5.1-52.1a272.2 272.2 0 0 1 19-66.5 337.4 337.4 0 0 1 56.6-93.8 306.2 306.2 0 0 1 53-49.6 329 329 0 0 1 78.2-43.5c18.5-7 37.2-13.4 56.7-17.1 8.5-1.7 17-3 25.7-4 11.5-1.1 23.2-1.8 34.8-2.4 7.2-.3 7.9.5 7.8 8-.1 29.7-.4 59.4-.4 89-.1 32.5.6 205.7.4 238.2"/>
  <path fill="#427b55" d="M.6 332.5c0-34.3.3-68.7-.2-103a42.4 42.4 0 0 1 6-21.7 577.5 577.5 0 0 1 18.8-31A431.7 431.7 0 0 1 86.7 100c16.6-16.1 33.5-32 51.7-46.2 17.5-13.7 36.5-25.4 55.2-37.5 8.5-5.5 17.7-10 26.7-14.6a16 16 0 0 1 7.2-1.5l214-.1c.8 0 1.6-.3 2 0 1.4 1 2.5 2.2 3.7 3.2-1.2 1-2.3 2.5-3.6 2.6-6.1.5-12.3.6-18.5.9a400.4 400.4 0 0 0-115.7 22.4C287.5 37 266 46.2 245 56.3a370.3 370.3 0 0 0-58.9 36.5 451.9 451.9 0 0 0-81 77.5c-10.7 13.1-19.8 27.5-29.4 41.5a312.6 312.6 0 0 0-30 55.5c-7.3 17.1-13.4 34.8-19.6 52.3a330 330 0 0 0-15.8 74C8.5 409.3 8 425 7 440.9v1c0 2.5.8 6-3.3 5.8-3.4-.1-3.1-3.2-3.1-5.7V332.5Z"/>
  <path fill="#427b55" d="M0 .5h188l.6 1c-1.4 1.2-2.6 2.5-4 3.5-17.8 12.3-36.1 23.9-53.4 36.8a419 419 0 0 0-70.7 66.7c-14 16.9-27.4 34.3-40.7 51.7-5.5 7.3-9.7 15.5-14.7 23.2-1 1.7-2.6 3-3.9 4.6l-1.2-.5V.5Z"/>
</svg>
