<svg xmlns="http://www.w3.org/2000/svg" width="40" height="40" fill="none"><path fill="#012B5D" d="m.001 29.25 5.593 3.77c3.276-.603 17.217-3.496 17.217-8.403 0-3.688-4.083-6.13-7.69-8.294-2.88-1.728-5.373-3.22-5.373-5.07 0-1.988 1.728-3.618 5.004-4.73.767-.26 1.536-.453 2.22-.616-2.987.411-8.581 1.659-8.581 5.414 0 5.263 11.506 7.252 11.514 12.693C19.912 28.291.001 29.25.001 29.25ZM11.557 10.99c0-2.48 2.728-3.92 4.894-4.756-2.838.672-6.375 2.152-6.375 5.017 0 1.66 2.41 3.103 5.208 4.784 3.684 2.214 7.855 4.716 7.855 8.582 0 2.468-3.07 4.7-9.13 6.648-3.193 1.026-6.428 1.714-8.018 2.015l4.51 3.042s15.247-4.455 15.243-10.706c-.007-10.253-14.187-11.13-14.187-14.626Zm14.147-2.44a2.677 2.677 0 0 1-2.674 2.674h-.794v1.289h.794a3.973 3.973 0 0 0 3.962-3.963 3.948 3.948 0 0 0-3.948-3.948h-3.962v9.513h1.289V5.892h2.673a2.662 2.662 0 0 1 2.66 2.66ZM23.044 3h-5.565v11.116h1.289V4.29h4.276a4.267 4.267 0 0 1 4.263 4.262 4.282 4.282 0 0 1-4.277 4.277h-.794v1.288h.794a5.57 5.57 0 0 0 5.565-5.565A5.555 5.555 0 0 0 23.044 3Zm9.857 19.643-.002-6.881c0-1.426-1.11-2.632-2.481-2.674a2.583 2.583 0 0 0-1.877.727 2.618 2.618 0 0 0-.809 1.89v6.95h1.316v-6.99c0-.739.63-1.334 1.385-1.26.657.064 1.138.63 1.138 1.288v6.95h1.33Zm5.484 0-.002-6.881c0-1.399-1.11-2.593-2.481-2.646a2.55 2.55 0 0 0-1.891.726 2.58 2.58 0 0 0-.795 1.864v6.95h1.316v-6.99c0-.74.63-1.335 1.385-1.261.657.064 1.138.63 1.138 1.288v6.95h1.33Zm-2.51-11.103a4.224 4.224 0 0 0-2.825 1.015 4.194 4.194 0 0 0-2.824-1.015c-2.317.036-4.14 1.988-4.14 4.29v6.827h1.33v-6.881c0-1.59 1.262-2.911 2.811-2.96a2.92 2.92 0 0 1 2.687 1.617l.151.316.151-.316a2.921 2.921 0 0 1 2.495-1.618 2.826 2.826 0 0 1 2.097.822c.56.553.877 1.29.877 2.084v6.95h1.316v-6.827c.013-2.316-1.81-4.268-4.126-4.304Z"/></svg>
