<svg xmlns="http://www.w3.org/2000/svg" width="40" height="40" fill="none"><path fill="#60CD18" d="M0 0h40v40H0V0Z"/><path fill="#fff" d="M12.7 16.6 11 17.9c-.9-.7-1.9-.9-2.5-.9-.6 0-1.2.2-1.3.6-.1.4.3.7.9.9l2.5.7c1.6.4 2.6 1.1 2.6 2.6 0 2.1-1.9 3.2-4.5 3.2a6.5 6.5 0 0 1-4.8-1.9l1.8-1.4C7 22.9 7.9 23 8.7 23c.9 0 1.7-.2 1.8-.7.1-.4-.2-.7-1-.9L7.2 21c-2.1-.5-2.7-1.8-2.7-2.8 0-1.5 1.4-3 4-3a6.2 6.2 0 0 1 4.2 1.4Zm11-1.4H16v9.5h7.9v-2.2h-5.2V21h3.5v-2.1h-3.5v-1.5h5v-2.2ZM14 27h.6V13H14v14Zm10.9 0h.6V13h-.6v14Zm2-2.2h6.2c1.7 0 3-1 3-2.6 0-1.2-.8-2-2-2.4H34h.1c.7-.3 1.4-.9 1.4-2.1 0-1.5-1.3-2.4-3-2.4h-5.7v9.5h.1Zm2.7-7.6h2.2c.5 0 .9.4.9.8s-.4.8-.9.8h-2.2v-1.6Zm2.6 5.4h-2.7v-1.7h2.7l.6.3c.2.2.2.4.2.6l-.2.6-.6.2Z"/></svg>