<svg xmlns="http://www.w3.org/2000/svg" viewBox="0 0 39.6 39.6"><path fill="#01903c" d="m16.4 29.15 7-18.7h16.2l-7.4 18.7H16.4Z"/><path fill="#ca9934" d="m5.8 29.15 7.2-18.7h8.8l-7.1 18.7H5.8Z"/><path fill="#fff" stroke="#01903c" stroke-width=".3" d="M23.4 20.65h.1v-1.5h-6v8.3h3.6c.86.06 1.71-.19 2.4-.7a2.3 2.3 0 0 0 .9-1.9c.02-.5-.12-.99-.4-1.4a2.68 2.68 0 0 0-1.2-.9 4.69 4.69 0 0 0-1.7-.3h-1.7v-1.6h4Zm-2.4 5.4h-1.6v-2.4h1.7c.39-.02.78.08 1.1.3.5.44.54 1.2.11 1.69l-.11.11a1.9 1.9 0 0 1-1.2.3ZM.2 27.35v-8h2.5v2.9l2.5-2.9h3.2l-3.8 3.6 3.8 4.4H5.7l-3-3.3v3.3H.2Z"/><path fill="#fff" stroke="#01903c" stroke-width=".3" d="M16.9 25.25a5.62 5.62 0 0 1-2.2 2.1 6.98 6.98 0 0 1-3.2.4 4.9 4.9 0 0 1-2.7-1.5 3.7 3.7 0 0 1-1.2-2.6c-.09-1 .19-2 .8-2.8a4.88 4.88 0 0 1 2.5-1.7 5.8 5.8 0 0 1 3.2 0c1 .33 1.87.96 2.5 1.8l-2 1.2a2.58 2.58 0 0 0-1.3-1 2.2 2.2 0 0 0-1.6 0 2.22 2.22 0 0 0-1.8 2.3c.05.52.26 1.01.6 1.4.41.42.93.7 1.5.8.54.08 1.09.01 1.6-.2a2.9 2.9 0 0 0 1.1-1.1l2.2.9Z"/></svg>
