<svg xmlns="http://www.w3.org/2000/svg" viewBox="0 0 39.6 18.7"><path fill="#01903c" d="m16.4 18.7 7-18.7h16.2l-7.4 18.7Z"/><path fill="#ca9934" d="M5.8 18.7 13 0h8.8l-7.1 18.7Z"/><path fill="#fff" stroke="#01903c" stroke-width=".3" d="M23.4 10.2h.1V8.7h-6V17h3.6a3.6 3.6 0 0 0 2.4-.7 2.3 2.3 0 0 0 .9-1.9A2.3 2.3 0 0 0 24 13a2.7 2.7 0 0 0-1.2-.9 4.7 4.7 0 0 0-1.7-.3h-1.7v-1.6ZM21 15.6h-1.6v-2.4h1.7a1.8 1.8 0 0 1 1.1.3 1.2 1.2 0 0 1 0 1.8 1.9 1.9 0 0 1-1.2.3ZM.2 16.9v-8h2.5v2.9l2.5-2.9h3.2l-3.8 3.6 3.8 4.4H5.7l-3-3.3v3.3Z"/><path fill="#fff" stroke="#01903c" stroke-width=".3" d="M16.9 14.8a5.6 5.6 0 0 1-2.2 2.1 6.9 6.9 0 0 1-3.2.4 4.9 4.9 0 0 1-2.7-1.5 3.7 3.7 0 0 1-1.2-2.6 4 4 0 0 1 .8-2.8 4.9 4.9 0 0 1 2.5-1.7 5.8 5.8 0 0 1 3.2 0 5.1 5.1 0 0 1 2.5 1.8l-2 1.2a2.6 2.6 0 0 0-1.3-1 2.2 2.2 0 0 0-1.6 0 2.2 2.2 0 0 0-1.4.9 2.3 2.3 0 0 0-.4 1.4 2.5 2.5 0 0 0 .6 1.4 2.8 2.8 0 0 0 1.5.8 3 3 0 0 0 1.6-.2 2.9 2.9 0 0 0 1.1-1.1Z"/></svg>
