<svg xmlns="http://www.w3.org/2000/svg" viewBox="0 0 147.5 147.5"><path fill="#1b5431" d="M147.5 73.8c0 21-33 38-73.8 38S0 94.8 0 73.8s33-38 73.7-38 73.8 17 73.8 38m-3.9 0c0-19-31.3-34.3-69.9-34.3S3.8 54.9 3.8 73.8 35.1 108 73.7 108s69.9-15.4 69.9-34.3ZM23 79c-2-5.2-1.6-13.8 5.9-14 7.5-.2 14-.3 22.7-.1.5 0 .7-.2.7-.7v-5.5c0-.4-.3-.6-.7-.6H26.4c-8.5 0-11.7 7.9-11.7 15.4s3.1 15.8 11.9 15.8H69c.3 0 .6-.4.5-.7v-.1L65.9 83c-.3-.5-.8-.9-1.4-.8H28.1c-2.3 0-4.2-.8-5.1-3.1V79Zm62.6-4.7v6.3c0 .6.2 1 .8 1h5.4c.4 0 .8-.3.9-.7v-.3l-.2-22.2c0-.3-.2-.4-.4-.4l-5.2.2c-.4 0-.8.1-1.1.5L73.7 75h-.4c-3.5-5.1-7.2-10.4-11.1-15.7-.6-1-1.7-1.5-2.8-1.4h-4.5c-.3-.1-.6.1-.7.4v22.2a.7.7 0 0 0 .8.8h6c.5-.1.8-.5.8-1v-7.2c0-.6.2-.6.5 0l11 16a.5.5 0 0 0 .7 0l11-15c.4-.6.6-.5.6.2Zm16.3 4.2c-.1-.6.2-.8.7-.8h19.5c.4 0 .8 0 1.1.3 1.4.7 2 1.5 1.8 2.3a2.8 2.8 0 0 1-2.9 2H81.8l-.4.2-4 6c-.2 0-.3.3-.2.5.2.2.4.3.6.1h43.8c2 .2 4 0 6-.5 5-2 6.1-8.3 4-12.8s-4.5-4.5-8-4.5h-21a.5.5 0 0 1-.5-.5V66c0-.3.2-.4.5-.4H122c.3 0 .5-.2.6-.4v-6.4c0-.5-.2-.7-.7-.7H95.8c-.3 0-.5 0-.5.3v22c0 .6.4 1.2 1 1.2h4.7c.5.1 1-.3 1.1-.8v-2.3h-.2Z"/></svg>
