<svg xmlns="http://www.w3.org/2000/svg" viewBox="0 0 147.5 76"><path d="M147.5,38c0,21-33,38-73.8,38S0,59,0,38,33,0,73.7,0s73.8,17,73.8,38m-3.9,0c0-18.9-31.3-34.3-69.9-34.3S3.8,19.1,3.8,38,35.1,72.3,73.7,72.3,143.6,56.9,143.6,38ZM23,43.2c-2-5.2-1.6-13.8,5.9-14s14-.3,22.7-.1c.5,0,.7-.2.7-.7V22.9c0-.4-.3-.6-.7-.6H26.4c-8.5,0-11.7,7.9-11.7,15.4s3.1,15.8,11.9,15.8H69a.6.6,0,0,0,.5-.8l-3.6-5.5a1.6,1.6,0,0,0-1.4-.8c-12.4,0-24.5.1-36.4,0-2.3,0-4.2-.8-5.1-3.1Zm62.6-4.6v6.3c0,.6.2.9.8.9h5.4a.8.8,0,0,0,.9-.9l-.2-22.3a.4.4,0,0,0-.4-.4l-5.2.2a1.4,1.4,0,0,0-1.1.5L73.7,39.3a.3.3,0,0,1-.4,0c-3.5-5.1-7.2-10.4-11.1-15.7a3.1,3.1,0,0,0-2.8-1.4H54.9a.6.6,0,0,0-.7.6v22a.7.7,0,0,0,.8.8H61a.9.9,0,0,0,.8-.9V37.5c0-.6.2-.6.5-.1l10.9,16a.5.5,0,0,0,.8,0l10.9-15c.5-.6.7-.5.7.2Zm16.3,4.1c-.1-.6.2-.8.7-.8h19.5a2,2,0,0,1,1.1.3c1.4.7,2,1.5,1.8,2.3a2.8,2.8,0,0,1-2.9,2.1H81.8a.4.4,0,0,0-.4.2l-4,5.9a.4.4,0,0,0,.4.7h43.8a20.1,20.1,0,0,0,6-.6c5-1.9,6.1-8.3,4-12.8s-4.5-4.5-8-4.5h-21a.5.5,0,0,1-.5-.5V30.2c0-.3.2-.4.5-.4H122a.5.5,0,0,0,.6-.6V23c0-.5-.2-.7-.7-.7H95.8c-.3,0-.5.1-.5.4V44.7a1.1,1.1,0,0,0,1.2,1.2h4.5a1,1,0,0,0,1.1-1.1v-2Z" fill="#1b5431"/></svg>