<svg xmlns="http://www.w3.org/2000/svg" width="40" height="40" fill="none"><path fill="url(#a)" d="M20 0c-.67.8-4.23 5.85-7.37 13.71a49 49 0 0 0-2.58 12.51L10 27.8V29c.07 5.03.88 9.58 1.24 11 0-2.01.05-8.7 1.65-14.22 1.6-5.51 4.64-11.89 7.11-15.13 2.68 3.39 6.03 10.77 7.22 15.16a48.22 48.22 0 0 1 1.54 14.07 41.56 41.56 0 0 0 1.4-9.9c.1-3.67-.37-9.92-2.68-16.44A55.65 55.65 0 0 0 20 0Z"/><path fill="url(#b)" d="M15.27 24.16a27.7 27.7 0 0 0-1.67 7.54c-.19 3.64.5 7.28.77 8.3 0-1.2.03-5.24 1.07-8.57 1.03-3.33 3-7.16 4.6-9.12 1.72 2.05 3.89 6.49 4.65 9.14a27.22 27.22 0 0 1 1 8.47c.47-1.4.84-3.75.9-5.97.07-2.2-.24-5.97-1.73-9.9a33.28 33.28 0 0 0-4.83-8.16c-.42.48-2.73 3.52-4.76 8.27Z"/><defs><linearGradient id="a" x1="20.09" x2="20.09" y1="40" y2="0" gradientUnits="userSpaceOnUse"><stop stop-color="#0073B7"/><stop offset="1" stop-color="#1A93CD"/></linearGradient><linearGradient id="b" x1="20.09" x2="20.09" y1="40" y2="15.89" gradientUnits="userSpaceOnUse"><stop stop-color="#0073B7"/><stop offset="1" stop-color="#1A93CD"/></linearGradient></defs></svg>