<svg xmlns="http://www.w3.org/2000/svg" viewBox="0 0 32.5 32.5"><circle cx="16.3" cy="16.3" r="16.3" fill="red"/><path fill="#fff" d="M17.3 7.2c.2.1.6.1.8.3l2.7 2.7c.2.2.1.2-.1.1-2.3-.7-4.1.5-5.6 2.1l-2.9 2.9a.2.2 0 0 0 0 .3l3.3 3.3c.1.1.1.2-.1.3-2.4 2-5.8.9-7.8-1.1l-2.4-2.4a.3.3 0 0 1 0-.4l6.6-6.5a6.6 6.6 0 0 1 2.4-1.7 6.5 6.5 0 0 1 3.1.1Zm3 9.9-3.5 3.6c-1.4 1.4-2.9 2-4.6 1.5s-.5 0-.2.3l1.9 2a2.9 2.9 0 0 0 1.6.9c2.2.5 3.5-.1 5.2-1.7l6.7-6.7v-.2l-2.5-2.5c-2.2-2-5.3-2.9-7.8-.8l3.2 3.3c.1 0 .1.2 0 .2Z"/></svg>
