<svg xmlns="http://www.w3.org/2000/svg" width="40" height="40" fill="none"><path fill="#F2CD13" fill-rule="evenodd" d="M2.3 0h34.9C38.7 0 40 1.3 40 2.8v35c0 1.2-1 2.2-2.3 2.2H2.3C1 40 0 39 0 37.7V2.3C0 1 1 0 2.3 0Z" clip-rule="evenodd"/><path fill="#185491" fill-rule="evenodd" d="m13.2 0 9 14.8v4L10.7 0h2.5Zm4 0 5 8.1v3L15.5 0h1.8Zm3.5 0 1.5 2.4v2.3L19.3 0h1.4Zm4 31.4H22l-4.4-7.6v7.6h-2.7V20h3.3l4 6.5v-6.5h2.6v11.5ZM27 20h5.8c1.2 0 2.1.3 2.7.8.5.5.8 1.2.8 2.1 0 .6-.1 1.1-.5 1.5a3 3 0 0 1-1.4 1c.8.1 1.4.5 1.8 1 .4.5.7 1.1.7 1.9 0 1-.4 1.8-1 2.4-.8.5-1.9.8-3.5.8H27V20Zm2.7 2.2v2.3h2.5c.4 0 .8 0 1-.3.2-.3.4-.5.4-.9a1 1 0 0 0-.4-.8c-.2-.1-.6-.3-1-.3h-2.5Zm0 4.5v2.6h2.8c.4 0 .7-.1 1-.4.3-.2.5-.5.5-1 0-.4-.2-.7-.5-1l-1.4-.2h-2.4Zm-26.5 1h2.7c0 .6.2 1 .5 1.4.4.3 1 .5 1.8.5.7 0 1.2-.1 1.6-.3.3-.2.5-.5.5-1 0-.3-.2-.6-.5-.9-.3-.2-1.1-.6-2.4-.8-1.6-.4-2.6-.8-3.1-1.3s-.8-1.3-.8-2.2c0-1.2.5-2 1.3-2.6.9-.6 2-.8 3.5-.8 1.3 0 2.3.3 3.1.9.8.6 1.2 1.5 1.3 2.5H10c0-.4-.2-.7-.6-1-.3-.2-.8-.3-1.4-.3-.5 0-1 .1-1.3.3-.3.2-.4.5-.4.8 0 .3 0 .6.4.9l1.8.6c1.8.3 3 .8 3.6 1.3.6.6.9 1.3.9 2.3 0 1.1-.4 2-1.2 2.8-.8.7-2 1-3.7 1-1.5 0-2.7-.3-3.6-1-1-.7-1.4-1.7-1.4-3Z" clip-rule="evenodd"/></svg>