<svg xmlns="http://www.w3.org/2000/svg" width="40" height="40" fill="none"><path fill="#083C9C" d="m23.1 10.2 2-7.6c5.5 1.3 10.4 2.2 14.4-.3L36.9.1c-3.1 3.1-9.6 2-18.1.3A15.5 15.5 0 0 0 1.2 13.6c-.3 2.7.5 4.9 2.2 6.5C-7.4 37.3 14.7 47 26.3 34l-.9-1.7C17.6 46-1.7 37.8 5.7 21.8c3.4 1.9 7.4 2.5 11.9 1.3l-.7 2.5c-.5.8-1.3 1.3-2.1 1.9 1.3 0 2.7-.2 4 0 20.3 3.2 24.3-17.6 4.3-17.3ZM4.8 18c-3.1-7.7 5-17.4 14-17 2.9.4 3.6 1.2 3.6 2.9l-1.6 6.3c-5.6 0-11.9 1.9-16 7.8Zm12.9 4.3c-4.7 1.3-8 .7-11.1-2.1 3.4-6.2 7.5-9.2 14-9.4l-2.9 11.5Zm5.8 4.9c-3.1-.2-4.1-.8-4.4-1.9l.8-3c2.6-.8 4.2-2.4 5.7-5.8l-1.2-.7c-.9 3.3-1.9 5.1-4.3 5.8l2.8-10.9c12.7.1 14 15.1.6 16.5Z"/></svg>