<svg width="41" height="40" viewBox="0 0 41 40" fill="none" xmlns="http://www.w3.org/2000/svg">
    <path d="M34.8467 0.82381C21.8801 3.57797 12.208 10.4966 13.2431 16.2749C13.5669 18.0786 14.8978 19.5575 16.965 20.6556L16.9576 20.6872L16.925 20.6524L16.9176 20.6872C11.3519 19.7473 7.20858 17.1663 5.93691 13.217C4.54842 8.89851 5.67963 4.10432 9.41184 0H0.00146484V39.9768C1.67978 39.7923 3.39357 39.5455 5.15616 39.1699C18.1213 36.4147 27.7949 29.4972 26.7583 23.7188C26.4345 21.9161 25.1051 20.4363 23.0335 19.337L23.0439 19.3054L23.0764 19.3423L23.0838 19.3065C28.6496 20.2474 32.7929 22.8285 34.0645 26.7767C35.456 31.0973 34.3204 35.8915 30.5852 39.999H40.0015V0.0158219C38.3232 0.201474 36.6093 0.449347 34.8467 0.82381Z" fill="#E40134"/>
</svg>
