<svg xmlns="http://www.w3.org/2000/svg" width="191" height="28" fill="none">
    <path fill="#1D1D1B" fill-rule="evenodd" d="M137.896 19.833c3.074 0 5.508-2.378 5.508-5.522 0-3.13-2.434-5.534-5.508-5.534-3.087 0-5.535 2.405-5.535 5.534 0 3.144 2.448 5.522 5.535 5.522Zm-1.141-18.512C139.593.974 140.677.723 142.11 0l.584 1.74c-1.697.876-3.254 1.14-5.605 1.445-2.669.347-4.797 2.1-4.797 6.566v.235c1.153-2.072 3.254-3.225 5.631-3.225 4.312 0 7.636 3.35 7.636 7.565 0 4.201-3.324 7.523-7.691 7.523-4.339 0-7.65-3.337-7.65-7.523V9.722c0-5.451 2.88-7.955 6.537-8.4ZM39.771 6.786c-4.266 0-7.479 3.376-7.479 7.532 0 4.117 3.174 7.508 7.493 7.508 2.106 0 3.925-.793 5.21-1.983l-1.738-2.489c-.914.766-1.94 1.271-3.308 1.271-2.27 0-4.197-1.843-4.197-4.307 0-2.5 1.913-4.347 4.197-4.347 1.34 0 2.365.493 3.296 1.298l1.75-2.502c-1.3-1.188-3.078-1.981-5.224-1.981Zm16.423 5.495v9.15h3.473V7.086h-3.473l-6.645 8.641v-8.64h-3.473V21.43h3.24l6.878-9.149Zm5.287-5.194h3.472v5.385H71.6V7.087h3.485v14.341H71.6v-5.81h-6.646v5.81h-3.472V7.087Zm26.543 7.204c0 2.434-1.83 4.172-4.115 4.172-2.283 0-4.047-1.738-4.047-4.172 0-2.419 1.776-4.21 4.047-4.21 2.296 0 4.115 1.791 4.115 4.21Zm-4.416-7.505c-3.938 0-7.206 3.322-7.206 7.494 0 4.168 3.254 7.492 7.206 7.492 1.9 0 3.365-.822 4.403-2.024l.246 1.682h3.05V7.1H88.27l-.218 1.738c-1.038-1.219-2.502-2.052-4.443-2.052Zm16.897 11.678c2.284 0 4.048-1.738 4.048-4.173 0-2.419-1.778-4.21-4.048-4.21-2.297 0-4.116 1.791-4.116 4.21 0 2.434 1.832 4.172 4.116 4.172Zm-3.898 1.516v6.303H93.12V21.43l-.014-8.34.014-.014V7.1h2.995l.247 1.738c1.025-1.219 2.502-2.052 4.444-2.052 3.938 0 7.205 3.322 7.205 7.494 0 4.17-3.254 7.492-7.205 7.492-1.778 0-3.173-.712-4.199-1.792Zm24.084-5.689c0 2.434-1.831 4.172-4.114 4.172-2.286 0-4.048-1.738-4.048-4.172 0-2.419 1.777-4.21 4.048-4.21 2.296 0 4.114 1.791 4.114 4.21Zm-4.415-7.505c-3.939 0-7.206 3.322-7.206 7.494 0 4.168 3.253 7.492 7.206 7.492 1.899 0 3.363-.822 4.402-2.024l.247 1.682h3.048V7.1h-3.035l-.219 1.738c-1.038-1.219-2.502-2.052-4.443-2.052Zm42.15 7.511c0 3.115-1.974 5.424-4.881 5.424-2.878 0-4.756-2.309-4.756-5.424 0-3.102 1.89-5.453 4.77-5.453 2.893 0 4.867 2.351 4.867 5.453Zm-5.021-7.538c-3.921 0-6.772 3.325-6.772 7.524 0 4.215 2.838 7.523 6.772 7.523 2.198 0 3.854-1.07 4.924-2.654v2.32h2.114l.013-6.799V7.066h-2.168v2.28c-1.059-1.544-2.699-2.587-4.883-2.587Zm9.177.307h2.156v6.078h8.594V7.066h2.169v14.408h-2.169v-6.369h-8.594v6.37h-2.156V7.064Zm17.073 0H177.5v14.408h2.155V15.16h3.033l4.797 6.315h2.518l-5.646-7.453 4.923-6.955h-2.545l-4.09 6.035h-2.99V7.066Z" clip-rule="evenodd"/>
    <path fill="#E40134" d="M23.275 1.489c-8.66 1.84-15.12 6.46-14.429 10.32.217 1.204 1.106 2.192 2.486 2.925l-.005.021-.021-.023-.005.023c-3.718-.628-6.485-2.351-7.334-4.99-.928-2.883-.172-6.085 2.32-8.827H.003v26.7a34.473 34.473 0 0 0 3.443-.538c8.66-1.84 15.12-6.46 14.428-10.32-.216-1.204-1.104-2.192-2.488-2.927l.007-.02.022.024.005-.024c3.717.628 6.484 2.352 7.334 4.99.93 2.885.17 6.087-2.324 8.83h6.289V.95a34.95 34.95 0 0 0-3.443.54Z"/>
</svg>