<svg xmlns="http://www.w3.org/2000/svg" viewBox="0 0 61.46 61.46"><path d="M14.67,13.48a.89.89,0,0,1-.85.53H3A2.52,2.52,0,0,1,1,13.06,3.28,3.28,0,0,1,.13,10,3.08,3.08,0,0,1,3.07,7.73a133.92,133.92,0,0,1,15.21-.08.14.14,0,0,1,.09.25,20.81,20.81,0,0,0-3.7,5.58ZM58.35,7.71q-8.66-.45-15.87-.15a3.23,3.23,0,0,0-2.31,1.13l-3.74,4.37c-.55.64-.4,1,.44.95q9.63,0,20.77,0a4,4,0,0,0,3.67-2.39,1.23,1.23,0,0,0,.13-.8c-.33-2-1.36-3-3.09-3.14ZM13.58,16.07c.05-.13,0-.2-.13-.21A58.53,58.53,0,0,0,3.06,16c-4.32.43-4,6.15.57,6.24,2.23.05,4.74.05,7.55,0a.25.25,0,0,0,.26-.18l2.14-6Zm18.87,5.36q-.33.86.57.84,12.72,0,24.71,0a3.63,3.63,0,0,0,3.62-2.52,1.46,1.46,0,0,0,.07-.88q-.7-3-3.36-3-11.16-.24-22.54-.1a1.2,1.2,0,0,0-1.19.82l-1.88,4.84ZM10.64,30v-5.9a.29.29,0,0,0-.28-.28H4.13c-2.24,0-4,1.24-4,2.78v.9c0,1.54,1.81,2.78,4.05,2.78h6.23a.29.29,0,0,0,.28-.28Zm20.8-6,0,6a.27.27,0,0,0,.27.27l25.76.09c2.16,0,3.91-1.4,3.92-3.14V27c0-1.74-1.74-3.15-3.9-3.16l-25.76-.09a.27.27,0,0,0-.27.27ZM10.59,37.69l-.12-6a.24.24,0,0,0-.24-.24L4,31.59C1.78,31.64,0,33,.05,34.67v.46c0,1.66,1.84,3,4.05,2.92l6.24-.12a.24.24,0,0,0,.24-.24Zm20.8-5.89,0,6a.27.27,0,0,0,.27.27l25.71,0c2.19,0,4-1.39,4-3.1v-.34c0-1.7-1.79-3.08-4-3.08l-25.71.05a.28.28,0,0,0-.27.27Zm-20.24,8a.3.3,0,0,0-.28-.21C7.17,39.32-1.32,38.36.29,44.23a1,1,0,0,0,.47.62,5.64,5.64,0,0,0,3,1.17L13,46a.2.2,0,0,0,.19-.26l-2.08-6Zm23.34,5.77a.63.63,0,0,0,.64.45H57.58a3.61,3.61,0,0,0,3.78-2.79,1.69,1.69,0,0,0-.13-1.33c-.75-1.47-1.59-2.22-2.5-2.23q-14.35-.28-26-.13c-.32,0-.42.16-.31.46l2.08,5.57ZM14.12,47.81a.57.57,0,0,0-.48-.27,100,100,0,0,0-10,.14A3.54,3.54,0,0,0,0,50.83Q-.34,52.74,4.32,54a.69.69,0,0,0,.2,0H17.7a.12.12,0,0,0,.1-.18l-3.68-6Zm26.06,5.3a2.45,2.45,0,0,0,2,.9H57.25a4.05,4.05,0,0,0,4-2.64,1.6,1.6,0,0,0,0-1.35c-.77-1.55-1.62-2.33-2.56-2.36q-11.27-.27-21.94-.14-1.36,0-.48,1l3.86,4.54Z" fill="#255282"/></svg>