<svg xmlns="http://www.w3.org/2000/svg" width="41" height="40" fill="none"><path fill="#0A90E8" d="m13.8 17.7.8-1.1c-.6-.2-1.2-.3-1.8-.1l1 1.2Zm-3.4 4.2L12 20l-1.5-1.8L8.6 20l1.8 1.9Zm3.4.4-1.1 1.3a3 3 0 0 0 1.9-.2l-.8-1.1Zm-2.9-6.9c-1.3 1-2.4 2.1-3.5 3.2l.6.8a36 36 0 0 1 3.5-3.2c.6-.4 1.3-.7 2.1-.7.6 0 1.2.1 1.7.4l.7-.9a5 5 0 0 0-2.4-.6 5 5 0 0 0-2.7 1Zm4.6 7.6.8-.8-4.2-5.3-.8.7 4.2 5.4Zm-3.4 1.4-.7.8c.7.3 1.5.5 2.2.4 1.3-.1 2.5-.6 3.4-1.5a5.7 5.7 0 0 0 1.9-4.7c-.1-.9-.4-1.8-.9-2.5l-.7.9c.5.8.7 1.8.5 2.8-.2.9-.6 1.7-1.2 2.4a4.4 4.4 0 0 1-4.5 1.4Zm-8.3-5.3a6 6 0 0 0 0 1.9l.9-1-.9-.9Zm.9-1.9-.6 1 5.1 5.3.7-.9-5.2-5.4Zm2.8-2.8c-.8.6-1.5 1.4-2.2 2.1L6.7 18c.7-.7 1.3-1.4 2.1-2l-1.3-1.6Zm18.7 7.9-.9 1.1c.6.2 1.2.3 1.8.1l-.9-1.2Zm3.4-4.2L28 20l1.5 1.8 1.9-1.8-1.8-1.9Zm-3.4-.4 1.1-1.3c-.7-.2-1.3-.1-2 .2l.9 1.1ZM6.3 12.9c-1.2 1-2.4 2.2-3.4 3.5a7 7 0 0 0-.6 6.4l.8-.9-.2-.8a7 7 0 0 1 .8-4.2 20 20 0 0 1 3.2-3.3l-.6-.7Zm-3 1.5 2.3-2.2c-.5-.4-1.1-.7-1.7-.6-.2.1-.5.2-.6.4l-.4.6v.9l.4.9ZM2.1 16l.7-.9a3.3 3.3 0 0 1-.6-2.7c.1-.4.3-.8.6-1a2 2 0 0 1 1-.6c.9-.2 2 .1 3.1 1.4l2.5 3.2.8-.7-2.5-3.2c-1-1.2-2.5-2.2-4.2-1.8a6 6 0 0 0-1.5.9c-.4.4-.7.9-.9 1.5-.2.7-.2 1.4 0 2.1.1.7.5 1.3 1 1.8Zm7.7 11.3 1.2.5c1.1.3 2.2.4 3.4.3 1.1-.1 2.2-.5 3.2-1l-1.2-1.4a5 5 0 0 1-2.6.8c-1 .1-2.1-.1-3-.6l-1 1.4Zm-1.8-1 .9.5 4.3-5.3-.7-.9c.1.1-4.5 5.7-4.5 5.7Zm-2.9-2.5c.6.8 1.4 1.5 2.2 2l1.3-1.6-1.9-2-1.6 1.6Zm-1.4 1.4A15 15 0 0 0 6 27.3c3.1 2.4 6.2 3.1 8.9 2.7 1.5-.2 2.9-.8 4.2-1.6l-.8-.7a8.6 8.6 0 0 1-3.5 1.2c-2.5.4-5.2-.3-8.1-2.5l-1.5-1.3-.7-.8-.8.9ZM5.5 28c-.9-.6-1.6-1.4-2.3-2.2a1 1 0 0 0-.3.7c0 .3 0 .5.2.7l.5.6.7.4H5c.1.1.3 0 .5-.2Zm1.6 1.1-.9-.6a2 2 0 0 1-1 .6H4a3 3 0 0 1-1.7-1.4c-.3-.3-.4-.8-.3-1.2 0-.4.2-.8.4-1.1a133 133 0 0 0 3.7-3.9l-.7-.8a140 140 0 0 1-3.8 4c-.9.9-.8 2.5-.3 3.5.2.5.6.9 1 1.2l1.4.8a3 3 0 0 0 1.9 0c.6-.2 1.1-.6 1.5-1.1Zm22-4.5a36 36 0 0 0 3.5-3.2l-.6-.8a36 36 0 0 1-3.5 3.2c-.6.4-1.3.7-2.1.7-.6 0-1.2-.1-1.7-.4l-.7.9a5 5 0 0 0 2.4.6c1-.1 2-.4 2.7-1ZM17.8 12.9c-1.1-.6-2.2-1-3.4-1.1a7 7 0 0 0-4.5.9l1.2 1.5a5 5 0 0 1 2.9-.6c.9.1 1.7.3 2.5.7l1.3-1.4Zm1.6 1.2-.9-.7-1.5 1.8-2.6 3.3.7.8c1.4-1.8 2.8-3.6 4.3-5.2Zm.5 11.2 1.4-1.5c-.8-1-1.2-2.3-1.2-3.6 0-1.4.5-2.8 1.3-3.9L20 14.7l-1.4 1.5c.8 1 1.2 2.3 1.2 3.6 0 1.4-.5 2.8-1.3 3.9l1.4 1.6Zm1.5 1.3 1.6-1.8 2.6-3.3-.7-.8a55 55 0 0 1-4.4 5.2l.9.7Zm8.8.7L29 25.8a8 8 0 0 1-3 .6c-.9-.1-1.7-.3-2.5-.7l-1.3 1.4c.9.5 1.9.8 2.9 1 1.2.2 2.5.2 3.6-.2l1.5-.6Zm1.2 1.5-.7-.8a9 9 0 0 1-5.8 1 10.3 10.3 0 0 1-6.9-4.6l-.8.7 1 1.3c1.7 1.9 4 3.2 6.5 3.6 2.3.4 4.7 0 6.7-1.2Zm5.9-3.9a3.3 3.3 0 0 1 .6 2.7c-.1.4-.3.8-.6 1a2 2 0 0 1-1 .6c-.9.2-2-.1-3.1-1.4l-2.5-3.2-.8.7 2.5 3.2c1 1.2 2.5 2.2 4.2 1.8.6-.2 1.1-.5 1.5-.9.4-.4.7-.9.9-1.5.2-.7.2-1.4.1-2a4 4 0 0 0-1-1.8l-.1.2c-.4.1-.6.3-.7.6Zm-3 2.9c.5.4 1.1.7 1.7.6.2-.1.5-.2.6-.4l.4-.6v-.9a2 2 0 0 0-.4-.8l-2.3 2.1Zm.4-4.3L33.3 22l-2.1 2 1.3 1.6c.8-.6 1.5-1.4 2.2-2.1Zm1.2-1.7-5.1-5.3-.7.9 5.2 5.4.6-1Zm.3-2.9-.9 1 .9.9a6 6 0 0 0 0-1.9Zm1.5-1.6-.8.9c.2.7.3 1.5.2 2.2-.1 1-.4 1.9-.9 2.7a20 20 0 0 1-3.2 3.3l.7.8c1.2-1 2.4-2.2 3.4-3.5a6.6 6.6 0 0 0 1.1-3.6c0-1-.1-1.9-.5-2.8Zm-3.9-5.9a2 2 0 0 1 1-.6H36c.4.1.7.3 1 .6.3.2.5.6.7.9l.3 1.2c0 .4-.2.8-.4 1.1l-3.7 3.9.7.8a140 140 0 0 1 3.8-4c.9-.9.8-2.5.3-3.5a3 3 0 0 0-1-1.2l-1.4-.8a3 3 0 0 0-1.9 0c-.6.2-1.2.5-1.6 1l1 .6Zm3.1 2.7c.2-.2.3-.4.3-.7 0-.3 0-.5-.2-.7-.3-.5-.7-.8-1.2-1h-.7l-.6.3a12 12 0 0 1 2.4 2.1Zm-4.2.1-1.3 1.7 2 2 1.6-1.6c-.7-.9-1.5-1.5-2.3-2.1Zm-1.6-1.1-4.3 5.3.7.9 4.5-5.6-.9-.6Zm-8.7-.2 1.2 1.4a5 5 0 0 1 2.6-.8c1-.1 2.1.1 3 .6l1.1-1.4a9.5 9.5 0 0 0-3.7-.8c-1.5 0-2.9.3-4.2 1Zm-1.5-1.3.8.7a8.6 8.6 0 0 1 3.5-1.2c2.5-.4 5.2.3 8.1 2.5l1.5 1.3.7.7.7-.8c-.7-.8-1.4-1.5-2.3-2.1A11.7 11.7 0 0 0 25 10a11 11 0 0 0-4.1 1.6ZM8 10.5a11.3 11.3 0 0 1 12.1.5c2-1.3 4.3-2 6.7-1.9 1.8 0 3.6.5 5.3 1.4.5-.7 1.2-1.2 2.1-1.4.9-.2 1.7-.3 2.5 0 1.2.4 2.3 1.3 2.9 2.4.7 1.4.7 3.4-.5 4.6l-.6.6c.5 1.1.7 2.3.7 3.5 0 1.1-.2 2.1-.7 3.1.6.6 1.1 1.3 1.3 2.1.3.9.3 1.9 0 2.8-.2.7-.6 1.4-1.1 1.9-.5.5-1.2.9-1.9 1.1-1.8.4-3.4-.4-4.7-1.6a11.3 11.3 0 0 1-12.1-.5l-.8.5a11.3 11.3 0 0 1-8.8 1c-.8-.2-1.5-.6-2.3-.9-.5.7-1.2 1.2-2.1 1.4-.8.3-1.7.3-2.5 0-.6-.2-1.2-.5-1.7-.9s-.9-.9-1.2-1.5c-.7-1.4-.7-3.4.5-4.6l.6-.6c-.5-1-.7-2.2-.7-3.3 0-1.1.2-2.3.7-3.3a4.5 4.5 0 0 1-1.3-2.2c-.3-.9-.3-1.9 0-2.7.2-.7.6-1.4 1.1-1.9.5-.6 1.1-1 1.9-1.2a5 5 0 0 1 2.7.2c.7.4 1.4.8 1.9 1.4Zm14 5.1.8-.7-1-1.3c-1.7-1.9-4-3.2-6.5-3.6-2.3-.4-4.7 0-6.7 1.2l.7.8a9 9 0 0 1 5.8-1 10.3 10.3 0 0 1 6.9 4.6Zm2.5 1.4-.8.8 4.2 5.3.8-.7-4.2-5.4Zm1.9-1.6c.5 0 1 0 1.5.2l.7-.8c-.7-.3-1.5-.5-2.2-.4-1.3.1-2.5.6-3.4 1.5a5.7 5.7 0 0 0-1.9 4.7c.1.9.4 1.8.9 2.5l.7-.9c-.3-.5-.5-1.1-.6-1.8 0-.7.1-1.3.3-2 .2-.6.6-1.2 1.1-1.7.7-.7 1.8-1.2 2.9-1.3Zm-2 4.6-1.1-1.4A4 4 0 0 0 23 20c0 .5.1 1 .3 1.4l1.1-1.4Zm-8.8 0 1.1 1.4c.2-.4.3-.9.3-1.4 0-.5-.1-1-.3-1.4L15.6 20Z"/></svg>