<svg xmlns="http://www.w3.org/2000/svg" viewBox="0 0 160 160"><path fill="#1a1a1a" d="M15.2 44.6A73.2 73.2 0 0 0 10.6 67l-2 32.4c-.7 9.8-2 20-6 29.3A20.2 20.2 0 0 1 1 132q-1.3 2-.8-.4c4-21.1 2.6-42.8 2-64.7a68.1 68.1 0 0 1 3.3-24q4.8-13.5 18.8-18A100.9 100.9 0 0 1 51 20.4c33.6-1.3 67.1 2.7 100.7.3a.5.5 0 0 1 .5.3.3.3 0 0 1 0 .3.3.3 0 0 1-.1.2 65.4 65.4 0 0 1-17.8 4.5c-17.2 2.1-34.4 2-51.5 2a468 468 0 0 0-30 1c-8.6.5-18.2 1.7-26.5 5Q18 37.2 15 44.6Zm16.7 88.6a88 88 0 0 0-22.4 4.5 3.5 3.5 0 0 0-1.5 1c-.3.4-.2.6.3.6a277.4 277.4 0 0 1 29.6-.9l47 1.4a272.3 272.3 0 0 0 31.6-.8 101.1 101.1 0 0 0 15.9-2.8q18.5-4.6 23-21.8a72.9 72.9 0 0 0 2.4-20.9c-.7-21.8-2-44 2-65.3q.5-2.3-.7-.3a69.4 69.4 0 0 0-7.5 29.3q-1 14.5-1.8 30.9a114.7 114.7 0 0 1-2.5 19.6c-1.7 7.7-4.8 14.5-12.5 17.9a82.9 82.9 0 0 1-27.6 5.4c-21.5 1.3-44.5.9-62.5 1.3-4 0-8.6.6-12.8.9ZM66.1 61a4.5 4.5 0 0 0-.3 1.8c0 .4.1.5.4.2a17.2 17.2 0 0 0 3.5-4.7.7.7 0 0 0-.7-1c-2.3.2-2.1 2-2.9 3.7ZM60 73q-3 4-5.4 7.6-.5.9.5 1h.9a1.8 1.8 0 0 0 1.6-1l3-7.2q1.1-2.6-.7-.4Z"/><path fill="#010101" d="M111.3 79.2c0 .4-.3.7-.8.7a.8.8 0 0 1-1-.6c0-.4.3-.7.8-.7s1 .2 1 .6ZM99.5 90.6a.6.6 0 0 0 .9.3l1.8-1a.6.6 0 0 0 0-1.2l-3.8-2.6a.6.6 0 0 0-.9.8l2 3.7Zm4.6-.8a8.4 8.4 0 0 0-3 3.4c-.3.8 0 1.6 1.1 2.1-.3-1.7.4-3.6 2-5.5Zm7 16.8a.9.9 0 0 1 1.3-.4l4.4 2.8a.3.3 0 0 0 .4 0l.2-.3a.8.8 0 0 0-.2-1 35.4 35.4 0 0 0-6-4.8 1.3 1.3 0 0 0-1.9.5l-1.8 3.7a1.5 1.5 0 0 0-.2 1.1 1 1 0 0 0 .8.8c1.7.5 2.5-1 3-2.4Z"/><path fill="#191f5f" d="M102.2 95.3c-.3-1.7.3-3.6 1.9-5.5l2.6-2a.3.3 0 0 0-.2-.7c-3-.1-6.4.2-7.9-3.2l-1.3-3a1 1 0 0 0-1.6-.2 2.2 2.2 0 0 0-.5 1.9A33.2 33.2 0 0 0 99.5 94a.5.5 0 0 1-.5.8 8.5 8.5 0 0 1-5-1.3c-3.3-2.3-9.9-9.7-6.1-14a18.2 18.2 0 0 1 6-4.4.8.8 0 0 0 .3-1.2l-3.3-5.6a.6.6 0 0 0-1 0c-3.5 5-7 10-12.7 12.7q-5.1 2.5-9.9 4.6a2.5 2.5 0 0 0-1.3 1.4 24.4 24.4 0 0 0-1.6 8.8 1.6 1.6 0 0 0 2.3 1.5 44 44 0 0 0 13-11.3q2.6-3 1.4.8a25.1 25.1 0 0 1-5.8 9.7A57 57 0 0 1 61 107.3a5.4 5.4 0 0 1-5.1 0c-4.2-2.2-1.5-12.2-.5-15.6.8-2.5-.1-3.6-2.7-3.2l-2 .3a6.1 6.1 0 0 0-4.8 3.8q-3.7 9.7-10 14.3c-4.9 3.5-12.8 3.7-17.3-.9-8-8.2 2.8-25.8 13.4-24.9a103.7 103.7 0 0 1 10.5 1.4c1.8.4 3-.7 3.5-2.3l4.4-11.3a1 1 0 0 0-.9-1.3q-10.3-.2-16.7 9a.4.4 0 0 1-.7 0 .8.8 0 0 1-.1-.8A148 148 0 0 1 38.9 59a1 1 0 0 1 1.1-.7A74.7 74.7 0 0 0 65 57a.6.6 0 0 1 .7.6 32.1 32.1 0 0 1-5 11.7L52 81.5c-.8 1.1-.5 1.7.8 1.7h3.4a2.6 2.6 0 0 0 2.7-1.9c4.2-11 9.4-23.8 22.5-26.5 4.8-1 4.7 4 3.5 6.9-2.5 6.4-9 15.2-16 18a.2.2 0 0 0-.2.2.2.2 0 0 0 .2.2c6.2-.8 12.5-9.1 15.7-14.8A85.2 85.2 0 0 0 92 49a1.3 1.3 0 0 0-1-1.9C82.2 45 78.2 49.4 72.8 55q-2.2 2.3-1.4-.8a76.9 76.9 0 0 1 7-16.9 1 1 0 0 1 1-.4 22.3 22.3 0 0 0 5.6.8q9.9.2 20.4-.6a.8.8 0 0 1 .7 1.1 75.6 75.6 0 0 1-3.5 7 77.5 77.5 0 0 0-6 11 .5.5 0 0 0 .7.7c9.4-2.1 13.6-9 18.5-16.6a1.8 1.8 0 0 1 1.2-.9l11.2-2.3a.8.8 0 0 1 .8 1L120.5 54a1.2 1.2 0 0 1-.9.6c-1 .3-1.8-.2-2.3-1.5a1 1 0 0 0-1.4-.4 40.3 40.3 0 0 1-13.2 7.3 1.4 1.4 0 0 0-1.2 2 56.8 56.8 0 0 0 2.7 8.6.9.9 0 0 0 1 .6q5.8-1 11.6-1.6c3.1-.3 3.2-3.1 5.6-3.4s4.8-.4 7-.5a1.3 1.3 0 0 1 1.1 2.1 1 1 0 0 0-.2.8.8.8 0 0 0 .8.8l12.8 1.3c1 .1 1.3.6 1 1.5a36.7 36.7 0 0 1-7.3 11.3 1.3 1.3 0 0 1-1.9 0l-2-2c-2.3-2.2-9.4-5.4-11.6-1.2q-2.8 5.2-5.6 9.7a1.8 1.8 0 0 0 .4 2.3 30.5 30.5 0 0 1 7.7 9.9c4 8.3-4.4 16-12 16.8a60.6 60.6 0 0 1-12.3 0 45.3 45.3 0 0 0-22.1 3.6c-1.2.6-1.5.3-.8-.9a98.5 98.5 0 0 1 6.1-9.1q3.6-4.7 10-4.1a20.8 20.8 0 0 0 2.6 0 1.4 1.4 0 0 0 1.1-.7l6-10.2c.4-.8.1-1.6-.9-2.3M70 76.3c.6.2 2.4-2.4 4-6s2.5-6.5 1.9-6.8-2.5 2.4-4 5.9-2.5 6.6-1.9 6.8m42.7.5-4.9 1.1a.6.6 0 0 0-.5.8v.2a3.4 3.4 0 0 0 3.9 2.8 3.4 3.4 0 0 0 2.2-4.2v-.2a.6.6 0 0 0-.8-.5M40 89.6a64.3 64.3 0 0 0-11.4.2 4.4 4.4 0 0 0-4.2 3.7c-.3 1.5-.6 3.5.7 4.7 6.9 6.4 12.9-2.1 15.6-7.5.3-.7 0-1-.7-1.1m68.7 11-3.5 8.3a.3.3 0 0 0 .1.4h.2c6.2 2.7 12 3 13 .6l.1-.2c1-2.3-3.2-6.4-9.4-9l-.1-.1a.3.3 0 0 0-.4 0Zm8-42.4a.8.8 0 0 1 1 0c3 2.1 4.5 2 6.3-1.2l10-18.3c.5-1 .2-1.3-.8-1l-1 .2a3.3 3.3 0 0 0-2.2 1.6q-4 7-8 14.8c-.7 1.4-2.7 2.7-4 1.4a6.4 6.4 0 0 0-1.2-.8 1.7 1.7 0 0 0-1.9.1 38 38 0 0 1-10.9 6.1 1.4 1.4 0 0 0-.8 1.7l1.7 5.9a.5.5 0 0 0 .5.3h.3c.3 0 .5-.2.3-.5l-.7-2a1.9 1.9 0 0 1 1-2.3 45.3 45.3 0 0 0 10.4-6Zm-17.5-4.5a.8.8 0 0 0 1.2 1l2.8-1.9a.8.8 0 0 0 .2-.2l7.4-13.6a.8.8 0 0 0-1-1.1l-1.8.5a.8.8 0 0 0-.4.4l-8.4 14.9Zm-10.8-2.5a2 2 0 0 0 2-1.3 1.2 1.2 0 0 0-1-1.7q-7.7-1.4-13.5 5.9-.6.8.4.7a3.6 3.6 0 0 0 2-.7 2 2 0 0 1 1-.4c3.3-.3 5.6-2.4 9.2-2.5ZM43.6 73.8c2-1 4.7-1.1 4.9-4 0-.6-.3-.9-1-.8q-7.4.3-14 9c-.7.9-.5 1.5.6 1.9a1.4 1.4 0 0 0 .3 0 3.1 3.1 0 0 0 2.7-1 20.5 20.5 0 0 1 6.5-5.1ZM82.5 80a.9.9 0 0 1 .5 0 .5.5 0 0 1 .3.5q.6 9.3-7 17.2a57.7 57.7 0 0 1-13.6 10.5 7.7 7.7 0 0 1-6.8.6q-2.9-1-.9 1.4 3.9 4.6 10 1a71.6 71.6 0 0 0 10.2-7.5c6.7-5.8 10.2-12 10-20.8a5.6 5.6 0 0 1 2-4.8l4-3.3a2.2 2.2 0 0 0 .4-2.6l-.3-.5c-.5-1-1.1-1-1.8-.2l-7 8.5Zm54.4 6.3a.6.6 0 0 1-1-.1c-2.2-3-10-10.5-13-4.5a86.1 86.1 0 0 1-4.5 7.7 2 2 0 0 0-.3 1c0 1.2.4 1.9 1.4 2.1a1 1 0 0 0 1.2-.5l4.7-8a2.2 2.2 0 0 1 2.4-1 14 14 0 0 1 9.6 6.8.6.6 0 0 0 1 0A49 49 0 0 0 149 73.7a.9.9 0 0 0-.5-1.2l-.3-.2a1.4 1.4 0 0 0-2 .6 47 47 0 0 1-9.3 13.5ZM82.5 80q-6.8 3.6-13.7 6.8c-2.5 1.2-2.8 5.8-3 8.2a.7.7 0 0 0 1 .7l.3-.1a1.8 1.8 0 0 0 1.3-1.5c.2-1.9.7-3.6 2.6-4.4l6-2.9q1.7-.9 5.5-6.7Zm-56.8 30.7a15.2 15.2 0 0 1-7.9-3.2 1.2 1.2 0 0 0-.9-.3.3.3 0 0 0-.1.4A14.4 14.4 0 0 0 31 114c9.4-1.2 15-9.6 18.3-18 .7-1.7 2.1-2.5 3.8-3.1a1.7 1.7 0 0 0 0-3.1c-2.3-.9-5 1.4-5.7 3.3-4 9.5-10 18.5-21.7 17.5Zm3.8-16a16 16 0 0 1 5.5-.5 3.3 3.3 0 0 0 2.6-1 3.1 3.1 0 0 0 .8-1.2c.3-1 0-1.3-1-1.3q-4 0-8 .3t-3.8 4.5a2.2 2.2 0 0 0 1.3 2c.4.1.6 0 .7-.3.2-1 .7-2.3 1.8-2.6ZM96.1 96a16.9 16.9 0 0 1-7-5L89 91h-.3c-.3.1-.4.3-.2.6 2.3 3.7 6 7.5 10.4 8a1.6 1.6 0 0 0 1.7-1l.6-1q.6-1.2-.8-1.2c-1.5 0-2.8.3-4.4-.3Zm18 23.8c-7 1.1-14.9.2-20.2.3a40.5 40.5 0 0 0-14.9 3.6 9.6 9.6 0 0 0-4.7 5.3c-.4 1.2-.1 1.5 1 .8a42.2 42.2 0 0 1 25.1-6.2c10.1.8 20.6 1.2 27-8.3a8.8 8.8 0 0 0 1.4-5.6c-.1-1.8-.7-5.5-2-6.6-.5-.5-.7-.4-.5.3 2.2 8.1-4.3 15-12.2 16.4Z"/></svg>
