<svg xmlns="http://www.w3.org/2000/svg" width="40" height="40" fill="none"><path fill="#0164A9" fill-rule="evenodd" d="m34.7 6.2-9.9 5.7V.7c-3.6-1-6.7-1-9.3 0v11.2L5.7 6.3c-2.5 2.7-4 5.3-4.6 8l9 5.3 10.2-5.9 8.2 4.8 1.8 1 9.1-5.2c-1-3.1-2.6-5.8-4.7-8.1ZM30 19.6 20.3 14l-9.7 5.7a39.5 39.5 0 0 1 4.2 1c2.1.7 4 .4 5.4-.8 1.9-1 3.8-1.4 5.5-1.2 2 .2 3.3.5 4.3 1ZM5.7 33.8a17 17 0 0 1-4.7-8l9.6-6 9.8 5.7 9.7-5.8 9.1 6c-1 3-2.4 5.8-4.7 8l-9.8-5.6v11.4c-3 .6-6.2.7-9.3 0V28.2l-9.7 5.6Z" clip-rule="evenodd"/></svg>