<svg xmlns="http://www.w3.org/2000/svg" width="40" height="40" fill="none"><path fill="#FDB913" d="M15.1 24.4h4.5a4 4 0 0 0 2.2-.7c.7-.4 1.1-1 1.4-1.7l2.3-6.3h-4.3a4 4 0 0 0-2.3.6c-.6.4-1.2 1.2-1.4 1.7l-2.4 6.4Z"/><path fill="#004282" d="m26.6 20.8-1 2.3c-.3.9-1 1.8-1.5 2.2-1 .6-2.2 1.2-3.6 1.2h-8.6l2.3-7.2 1-2.3c.3-.9 1-1.8 1.5-2.2 1-.6 2.2-1.2 3.6-1.2h8.1l-1.8 7.2ZM40 10H12.9c-1.5 0-3.5.4-5.2 1.6-1.5 1.1-1.8 2.2-2.4 3.4l-.4.8-3.7 10.8L0 30h28c1.4 0 3.4-.4 5.1-1.6 1.5-1.1 1.8-2.2 2.4-3.4l.4-.8L40 10V10Z"/></svg>