<svg xmlns="http://www.w3.org/2000/svg" viewBox="0 0 160 160"><path fill="#3a52aa" d="M75.9 0h8.6a82 82 0 0 1 44.9 17c.7.6.6.9-.3.9H32.6a2.8 2.8 0 0 0-.7 0 6.9 6.9 0 0 1-.7.3c-1.2-.1-1.3-.5-.4-1.2a82.7 82.7 0 0 1 45-17ZM17 28.7c-.4.4-.3.6.2.6h36.5c.6 0 .6-.2.2-.6a28 28 0 0 0-36.9 0Zm-5 6a29.2 29.2 0 0 0-4.5 14.5.4.4 0 0 0 .5.4h55a.5.5 0 0 0 .5-.5A28.5 28.5 0 0 0 58 33.3a1.2 1.2 0 0 0-1-.5H14a1 1 0 0 0-.8.3 7.8 7.8 0 0 0-1.2 1.6Zm42.3 35.7c.5-.4.4-.6-.3-.6H16.8c-.5 0-.6.1-.2.5a16 16 0 0 0 2.5 2 28 28 0 0 0 35.2-2ZM160 80.5H0v1.1l.6 5.1a79.5 79.5 0 0 0 20 46.7 1.2 1.2 0 0 0 1 .4h117a1.2 1.2 0 0 0 1-.4A82 82 0 0 0 160 83.7v-3.2ZM80.6 160a81 81 0 0 0 51.2-19c.6-.5.5-.7-.3-.7H28.8c-.9 0-1 .2-.3.8A80.4 80.4 0 0 0 78.8 160Z"/></svg>
