<svg xmlns="http://www.w3.org/2000/svg" xml:space="preserve" style="enable-background:new 0 0 40 40" viewBox="0 0 40 40"><path d="m6.7 21.4-6.7-2v-2.5l6.7 2v2.5zm0 0c.2 2.9 1.3 5.2 2.9 7.2a21 21 0 0 0 6.1 4.9 37.3 37.3 0 0 0 11.5 3l3.7.1c.7 0 1.6 0 2.5-.2.9-.2 1.8-.2 2.2-.2 1.6 0 2.9.2 4 .4v-.9c-4.7-2.5-9.7-4.9-14.8-7.2-5.7-2.6-11.8-4.8-18.1-7.1zm0-2.4v-.4l.1-.9.2-1a196.3 196.3 0 0 1 33 14.2v2.5c-2.9-1.5-5.9-3.1-9-4.5l-5.8-2.7C19.3 23.4 13 21 6.7 19zM0 14.5V12l6.7 2c.2.2.7.2.9.2l-.4 1.4-.3.9h-.2l-6.7-2zm0-5V7c2.2.7 4.5 1.3 6.7 2.2 1.2.3 2.3.8 3.4 1.2l-1.3 2-1.2-.5-.8-.4-6.8-2zm8.8 2.9-.3.5-.8 1.5a183.4 183.4 0 0 1 32.1 13.9v-2.5c-4.7-2.5-9.7-4.9-14.8-7.2-5.2-2.1-10.6-4.4-16.2-6.2zm1.3-2c5.2 1.8 10.1 3.8 14.8 5.8 5.2 2.2 9.9 4.7 14.8 7.2V21l-5-2.7a86.9 86.9 0 0 0-8-3.8c.9-.4 3.4-.9 5.2-.9l4.5.7c.9.2 2.2.7 3.4 1.6V3c-1.6.7-3.4.7-4.5.7l-1.6-.2c-1-.2-2.6-.4-5.2-.5-1.1 0-2.5 0-3.6.2-3.4.2-6.7 1.3-9 2.7a19.7 19.7 0 0 0-5.8 4.5z" style="fill-rule:evenodd;clip-rule:evenodd;fill:#7f003f"/></svg>