<svg xmlns="http://www.w3.org/2000/svg" width="40" height="40" fill="none"><path fill="#F08064" d="M32.03 14H40v11.33h-7.97z"/><path fill="#fff" d="M32.03 14H0v11.33h32.03z"/><path fill="#000" fill-rule="evenodd" d="M6.32 15.8c-2.36.16-3.88 1.19-4.34 2.95-.11.4-.14 1.3-.06 1.75.34 1.83 1.72 2.92 3.98 3.16.57.06 1.75.02 2.27-.07 1.64-.3 2.67-1.1 3.09-2.4l.06-.24-2.27-.43-.05.15c-.17.58-.61.98-1.27 1.16-.8.2-2 .1-2.64-.24a1.85 1.85 0 0 1-.7-.73 2.33 2.33 0 0 1-.23-1.12c0-.69.16-1.15.53-1.52.46-.46 1.3-.7 2.28-.65 1.11.06 1.78.47 2.03 1.25l.03.13 2.3-.46s.02-.01 0-.11a3.6 3.6 0 0 0-.44-.9c-.59-.9-1.66-1.46-3.1-1.63-.35-.04-1.2-.07-1.47-.05ZM12 23.6h2.22v-5.9h4.48v5.9h2.23v-7.67h-8.93v7.67Zm9.86 0 3.16-.01c3.14-.01 3.15-.01 3.45-.1a2.28 2.28 0 0 0 1.8-2.47A2.24 2.24 0 0 0 30 20a2.35 2.35 0 0 0-1.53-1.16c-.27-.07-.34-.08-2.37-.09l-2.1-.01v-1.08h5.67v-1.74h-7.82v7.67Zm10.19-5.9 5.64-.01.02-1.76h-5.66v1.78Zm0 2.76h1.76c1.74.02 1.76.02 1.9.1.28.14.39.36.36.74-.02.29-.1.44-.31.55l-.15.1h-1.78l-1.78.01v1.7h2.05c2-.02 2.07-.02 2.36-.1.9-.23 1.54-.84 1.75-1.65.08-.3.1-.8.06-1.1a2.26 2.26 0 0 0-1.76-1.92c-.27-.08-.33-.08-2.37-.1h-2.1v1.67Zm-4.44 0c.28.08.47.36.47.7 0 .34-.1.53-.36.67-.14.07-.17.08-1.91.08H24v-1.48h1.74c1.08 0 1.77 0 1.86.03Z" clip-rule="evenodd"/></svg>