<svg xmlns="http://www.w3.org/2000/svg" width="161" height="28" fill="none">
    <path fill="#F08064" d="M70.95 0h89.06v27.02H70.95z"/>
    <path fill="#000" fill-rule="evenodd" d="M10.46 4.29C4.9 4.66 1.33 7.06.24 11.19c-.25.95-.32 3.06-.13 4.1.8 4.28 4.03 6.84 9.35 7.39 1.35.14 4.13.05 5.34-.16 3.86-.69 6.28-2.56 7.27-5.6.1-.3.14-.58.14-.58l-5.34-1.01-.12.35c-.4 1.37-1.43 2.3-2.98 2.7-1.88.5-4.71.25-6.2-.54a4.34 4.34 0 0 1-1.67-1.71 5.43 5.43 0 0 1-.53-2.63c0-1.6.37-2.67 1.25-3.55C7.7 8.87 9.68 8.3 11.98 8.43c2.61.13 4.18 1.1 4.77 2.93.08.26.08.3.08.3 1.8-.35 3.62-.7 5.42-1.07 0 0 .03-.03-.04-.28a8.42 8.42 0 0 0-1-2.1c-1.4-2.1-3.92-3.41-7.32-3.8a29.3 29.3 0 0 0-3.43-.12Zm13.32 18.22H29V8.73h10.54V22.5h5.23V4.57h-21V22.5Zm23.2 0 7.42-.02c7.39-.03 7.42-.03 8.11-.21a5.34 5.34 0 0 0 4.22-5.8 5.22 5.22 0 0 0-.6-2.37 5.51 5.51 0 0 0-3.58-2.71c-.63-.18-.8-.18-5.57-.2l-4.93-.04V8.64h13.32V4.57H47V22.5ZM70.94 8.73l13.28-.05.04-4.11H70.93v4.16Zm13.9 13.91 5.56-.01 1.72-3.3h9.87l1.68 3.26h5.76l-9.6-17.96h-5.35l-9.65 18.01Zm25.82-.05h5.3v-7.1h10.96v7.1h5.27V4.63h-5.27v6.62h-10.95V4.63h-5.31v17.96Zm23.86 0h5.27v-7.74l8.97 7.74h7.4l-10.75-9.54 10.44-8.42h-6.99l-9.07 7.36V4.63h-5.27v17.96Zm-34.56-7.26h-5.82l2.95-5.57 2.87 5.57Zm-29.02-.17 4.15.02c4.1.03 4.15.03 4.48.2.65.35.9.87.83 1.75-.05.67-.25 1.02-.73 1.3l-.35.2-4.2.03-4.18.02v4l4.84-.03c4.69-.03 4.87-.04 5.54-.21a5.48 5.48 0 0 0 4.13-3.89c.18-.7.24-1.85.13-2.57-.37-2.3-1.78-3.84-4.14-4.5-.64-.18-.77-.18-5.58-.2l-4.92-.03v3.9Zm-10.44.01c.68.19 1.12.83 1.12 1.63 0 .8-.25 1.25-.85 1.58-.33.17-.4.17-4.5.17h-4.21V15.1h4.07c2.54 0 4.18.03 4.37.08Z" clip-rule="evenodd"/>
</svg>