<svg xmlns="http://www.w3.org/2000/svg" viewBox="0 0 95.4 95.4">
  <path d="M34.5 48.57c2.44-1.53 4.91-3.02 7.39-4.51l-15.41 5.37a24.26 24.26 0 0 1 10.71-26.01 24.28 24.28 0 0 1 28.92 2.41 758.72 758.72 0 0 0-16.28 13.58 466.97 466.97 0 0 1 19.23-10.49c.85-.44 1.7-.89 2.56-1.32a29.46 29.46 0 0 0-37.6-5.43 29.43 29.43 0 0 0-12.1 34.61l.19-.12c4.11-2.76 8.24-5.48 12.39-8.08Z" fill="#525f7b" fill-rule="evenodd"/>
  <path d="M95.4 18.5a459.46 459.46 0 0 1-20.89 12.35A466.12 466.12 0 0 0 0 77.7a469.16 469.16 0 0 1 72.72-37.29 24.3 24.3 0 0 1-9.71 29.35 24.34 24.34 0 0 1-32.68-6.5l-2.59 1.4a29.48 29.48 0 0 0 38.42 6.35 29.47 29.47 0 0 0 10.31-38.73c6.39-4.42 12.7-9.01 18.93-13.79Z" fill="#ffd400" fill-rule="evenodd"/>
</svg>
