<svg xmlns="http://www.w3.org/2000/svg" viewBox="0 0 27.02 26" width="27.02" height="26">
    <path d="M25.05,6.22a13.38,13.38,0,0,0-4.69-4.43,14,14,0,0,0-13.7,0A13.43,13.43,0,0,0,2,6.22,7.36,7.36,0,0,1,6.52,10.5,7.16,7.16,0,0,1,8.25,7.92a7.66,7.66,0,0,1,10.53,0A7.22,7.22,0,0,1,20.5,10.5,7.32,7.32,0,0,1,25.05,6.22Z"
          fill="#b1b3b3"/>
    <path d="M20,16.47a6.91,6.91,0,0,1-1.25,1.6,7.66,7.66,0,0,1-10.54,0A7,7,0,0,1,6.06,13,6.3,6.3,0,0,0,1.51,7,12.34,12.34,0,0,0,.43,9.74,12.51,12.51,0,0,0,0,13a12.69,12.69,0,0,0,4,9.19A13.74,13.74,0,0,0,13.51,26a6.63,6.63,0,0,0,4.68-1.9A6.1,6.1,0,0,0,20,19.73V16.47Z"
          fill="#003d64"/>
    <path d="M27,13a12.5,12.5,0,0,0-.42-3.26A12.37,12.37,0,0,0,25.51,7,6.31,6.31,0,0,0,21,13v6.74a7,7,0,0,1-2.52,5.39,13.51,13.51,0,0,0,4.69-3A12.68,12.68,0,0,0,27,13Z"
          fill="#d52023"/>
</svg>