<svg xmlns="http://www.w3.org/2000/svg" viewBox="0 0 68.88 27.7"><path d="M32.72,2.63c0,.11,0,.17.14.16h.7a.25.25,0,0,0,.25-.21L34.12.62a.42.42,0,0,1,.55-.39l1.76.36a.28.28,0,0,1,.22.31l-.21,1.69a.18.18,0,0,0,.18.2l1.22,0A.18.18,0,0,0,38,2.71a2.28,2.28,0,0,0,.15-.44A13.65,13.65,0,0,0,38.43.08s0-.08.09-.08h.74a.08.08,0,0,1,.08.06.1.1,0,0,0,0,.06.11.11,0,0,0,.07,0L41,.37c.06,0,.09,0,.08.1l-.33,2.39c0,.05,0,.07.06.08.86.12,1.75.22,2.68.3,2.27.2,4.2.41,5.8.66A56.93,56.93,0,0,1,61.3,7a22.41,22.41,0,0,1,4.43,2.38A7.85,7.85,0,0,1,68.17,12a5.35,5.35,0,0,1,.68,1.89,5.61,5.61,0,0,1-1.77,4.49,14,14,0,0,1-3.3,2.37,29.14,29.14,0,0,1-5.35,2.14.3.3,0,0,1-.42-.23c-.24-.85-.49-1.68-.76-2.49a.27.27,0,0,1,.17-.33A30.83,30.83,0,0,0,63,17.41a6.71,6.71,0,0,0,2.3-2.11,2.06,2.06,0,0,0-.55-2.43,13.79,13.79,0,0,0-4.48-2.78,44.39,44.39,0,0,0-5.78-1.82,70.85,70.85,0,0,0-14-1.94.28.28,0,0,0-.27.23c-.41,2.52-.85,4.87-1.18,7.35-.21,1.58-.45,3.17-.72,4.78,0,.29,0,.58-.09.87-.19,1-.35,2-.5,2.94a.14.14,0,0,0,.14.15l2,0a.24.24,0,0,1,.23.22l.05,2.81a.21.21,0,0,1-.19.21L37.45,26a.23.23,0,0,0-.21.18L37,27.36a.19.19,0,0,1-.22.15l-2.3-.42a.08.08,0,0,1-.08-.09l.06-.79a.19.19,0,0,0-.19-.2H33a.12.12,0,0,0-.13.11l-.17,1.42a.16.16,0,0,1-.2.16,14.24,14.24,0,0,1-2.26-.39.22.22,0,0,1-.16-.25l.12-.89c0-.17-.05-.26-.22-.26l-.91-.05a.23.23,0,0,0-.25.21c0,.26-.1.53-.16.81a.34.34,0,0,1-.24.26l-1.83.51a1.47,1.47,0,0,1-.36,0,.11.11,0,0,1-.09-.12l.32-1.72a.13.13,0,0,0-.13-.17q-2.46-.22-4.92-.48c-.74-.08-1.55-.2-2.43-.35-1.08-.19-2.18-.31-3.26-.57s-2.09-.49-3.15-.71a14.61,14.61,0,0,1-1.46-.47A38.68,38.68,0,0,1,6,21.23,13.82,13.82,0,0,1,1.4,18,5.31,5.31,0,0,1,.08,13.44a4.48,4.48,0,0,1,1-2.19A11.6,11.6,0,0,1,3.5,9a19.14,19.14,0,0,1,2.88-1.6,39.18,39.18,0,0,1,6.79-2.27c2.18-.52,4-.9,5.61-1.14,2.83-.45,5.14-.72,6.91-.82l4.22-.26a.53.53,0,0,0,.51-.46l.23-1.42A.5.5,0,0,1,31,.62L32.69.19a.76.76,0,0,1,.3,0,.15.15,0,0,1,.12.17l-.39,2.28m3.07,15.52c.26-1.78.47-3.51.81-5.26a16.74,16.74,0,0,0,.26-2c0-.43.17-.85.22-1.27.14-1.1.3-2.23.47-3.38,0,0,0-.08-.07-.08h-1.4a.18.18,0,0,0-.17.14c0,.21,0,.43-.07.65q-.84,5-1.21,7.64c-.13,1-.27,1.86-.4,2.63-.31,1.82-.57,3.6-.81,5.4a.06.06,0,0,0,.06.08l1.37,0a.27.27,0,0,0,.24-.19c0-.16.07-.32.1-.48.21-1.28.41-2.57.6-3.86M30,18.84c.1,0,.14,0,.13.11a26.18,26.18,0,0,1-.61,3.3c-.05.2,0,.32.23.35a4.37,4.37,0,0,0,.72.06.41.41,0,0,0,.46-.39c.27-1.69.45-3.34.73-5a18.73,18.73,0,0,0,.23-1.91c0-.27.18-.49.19-.74,0-.6.16-1.17.25-1.77.19-1.41.41-2.82.64-4.23q.16-1,.3-2.16A.23.23,0,0,0,33,6.2h-.8a.15.15,0,0,0-.16.13l-.41,2.07a.11.11,0,0,1-.08.08,6.87,6.87,0,0,1-.92.23,2.23,2.23,0,0,0-.56.16A2.45,2.45,0,0,1,29.3,9a.11.11,0,0,1-.1-.12c.11-.8.24-1.58.4-2.36a.81.81,0,0,0,0-.22s0,0-.06,0A81.12,81.12,0,0,0,16.47,7.79a41.47,41.47,0,0,0-9.32,2.93,7.84,7.84,0,0,0-3.61,3,1.44,1.44,0,0,0-.06,1.47,4.23,4.23,0,0,0,1.08,1.36,12.17,12.17,0,0,0,3.19,1.91c1.37.56,2.87,1.15,4.39,1.6,1.07.32,1.79.52,2.13.6q4.5,1,6,1.15c1.07.12,2.15.25,3.22.39s2.16.24,3.23.32a.48.48,0,0,0,.51-.4l.45-2.48a.29.29,0,0,1,.23-.24L30,18.84Z" fill="#ef0010"/><path d="M47.78,24.47h-.9c-.38,0-.51.56-.61.84a.46.46,0,0,1-.42.33H45.8c-.2,0-.26-.15-.18-.34.43-1.05.85-2.15,1.26-3.31a.41.41,0,0,1,.78-.06c.46,1.16.92,2.31,1.38,3.43a.2.2,0,0,1-.1.29.27.27,0,0,1-.2,0,.52.52,0,0,1-.36-.3l-.32-.73a.28.28,0,0,0-.28-.17m-1-.75a.11.11,0,0,0,.1.15h.75a.11.11,0,0,0,.11-.15l-.38-1a.11.11,0,0,0-.21,0l-.37,1Zm6.86.21c0-.08,0-.11.11-.09s.25.05.35.19c.29.45.58.9.84,1.35a.52.52,0,0,0,.46.26h.1c.18,0,.22-.07.13-.23-.35-.58-.72-1.14-1.1-1.69a.24.24,0,0,1,0-.26,6,6,0,0,0,.42-.73.8.8,0,0,1,.64-.48.05.05,0,0,0,0-.05v-.49a0,0,0,0,0,0,0c-.89,0-1.08.75-1.41,1.4a.38.38,0,0,1-.43.25c-.09,0-.12-.49-.08-1.43,0-.18-.08-.24-.25-.19h-.06a.31.31,0,0,0-.28.32q0,1.54,0,3.36a.27.27,0,0,0,.23.26h.16c.13,0,.19,0,.19-.16V23.93ZM43.45,22.27a.17.17,0,0,0-.18.19v.65c0,.12.06.18.19.18.39,0,.79,0,1.22.05a1,1,0,0,1,.81.59c.48.93-.33,1.7-1.22,1.73-.46,0-.91,0-1.36,0a.24.24,0,0,1-.22-.23V21.89a.19.19,0,0,1,.2-.19H45a.22.22,0,0,1,.25.25V22a.25.25,0,0,1-.28.27H43.45m-.14,1.81v.81a.2.2,0,0,0,.2.2h.75a.63.63,0,0,0,.66-.58v-.06a.63.63,0,0,0-.67-.57H43.5a.2.2,0,0,0-.19.21Zm6.85-.8a.08.08,0,0,1-.09-.09l0-1.24a.24.24,0,0,0-.26-.24h-.14a.25.25,0,0,0-.23.25l0,3.38a.3.3,0,0,0,.26.32.36.36,0,0,0,.27-.08.28.28,0,0,0,.13-.24L50,24a.16.16,0,0,1,.16-.16h1.49a.11.11,0,0,1,.12.12l0,1.39a.27.27,0,0,0,.32.32h.07a.23.23,0,0,0,.26-.27V21.92a.23.23,0,0,0-.23-.23h-.13a.23.23,0,0,0-.26.24l-.07,1.11a.24.24,0,0,1-.23.23Z" fill="#ef0010"/></svg>