<svg xmlns="http://www.w3.org/2000/svg" viewBox="0 0 68.88 68.88"><path fill="#ef0010" d="M32.72 23.22c0 .11 0 .17.14.16h.7c.12 0 .23-.09.25-.21l.31-1.96c0-.23.2-.42.43-.41.04 0 .08 0 .12.02l1.76.36c.14.03.24.17.22.31l-.21 1.69c-.01.1.06.19.16.2h1.24a.2.2 0 0 0 .16-.08c.06-.14.12-.29.15-.44.15-.72.25-1.45.28-2.19 0 0 0-.08.09-.08h.74s.07.02.08.06v.06h.07l1.59.25c.06 0 .09 0 .08.1l-.33 2.39s0 .07.06.08c.86.12 1.75.22 2.68.3 2.27.2 4.2.41 5.8.66a56.7 56.7 0 0 1 12.01 3.1c1.56.62 3.05 1.42 4.43 2.38 1 .67 1.84 1.57 2.44 2.62.34.58.57 1.22.68 1.89a5.58 5.58 0 0 1-1.77 4.49c-.98.95-2.09 1.74-3.3 2.37-1.71.89-3.5 1.61-5.35 2.14a.3.3 0 0 1-.4-.15l-.02-.08c-.24-.85-.49-1.68-.76-2.49a.27.27 0 0 1 .17-.33A30.7 30.7 0 0 0 63 38a6.74 6.74 0 0 0 2.3-2.11c.38-.84.16-1.84-.55-2.43a13.7 13.7 0 0 0-4.48-2.78 43.07 43.07 0 0 0-5.78-1.82 71.09 71.09 0 0 0-14-1.94c-.13 0-.25.1-.27.23-.41 2.52-.85 4.87-1.18 7.35-.21 1.58-.45 3.17-.72 4.78 0 .29 0 .58-.09.87-.19 1-.35 2-.5 2.94 0 .08.05.14.13.15h2.01c.12 0 .22.1.23.22l.05 2.81a.2.2 0 0 1-.19.21l-2.51.11c-.1 0-.19.08-.21.18L37 47.95a.2.2 0 0 1-.22.15l-2.3-.42s-.08-.04-.08-.08v-.01l.06-.79a.2.2 0 0 0-.18-.2H33c-.07 0-.12.04-.13.11l-.17 1.42c0 .09-.07.16-.15.17h-.05c-.76-.07-1.52-.2-2.26-.39a.22.22 0 0 1-.16-.25l.12-.89c0-.17-.05-.26-.22-.26l-.91-.05a.23.23 0 0 0-.25.21c0 .26-.1.53-.16.81-.03.12-.12.23-.24.26l-1.83.51h-.36c-.06-.01-.1-.06-.09-.12l.32-1.72a.13.13 0 0 0-.08-.16h-.05l-4.92-.48c-.74-.08-1.55-.2-2.43-.35-1.08-.19-2.18-.31-3.26-.57s-2.09-.49-3.15-.71c-.49-.13-.98-.29-1.46-.47A38.88 38.88 0 0 1 6 41.84a13.85 13.85 0 0 1-4.6-3.23 5.33 5.33 0 0 1-1.32-4.56c.13-.81.47-1.56 1-2.19.7-.86 1.51-1.62 2.42-2.25.91-.62 1.88-1.15 2.88-1.6a39.52 39.52 0 0 1 6.79-2.27c2.18-.52 4-.9 5.61-1.14 2.83-.45 5.14-.72 6.91-.82l4.22-.26c.26 0 .48-.2.51-.46l.23-1.42a.5.5 0 0 1 .35-.41l1.69-.43c.1-.02.2-.02.3 0 .08.02.13.09.12.17l-.39 2.28m3.07 15.5c.26-1.78.47-3.51.81-5.26.13-.66.21-1.33.26-2 0-.43.17-.85.22-1.27.14-1.1.3-2.23.47-3.38 0 0 0-.08-.07-.08h-1.4a.18.18 0 0 0-.17.14c0 .21 0 .43-.07.65-.56 3.33-.96 5.88-1.21 7.64-.13 1-.27 1.86-.4 2.63a150 150 0 0 0-.81 5.4c-.01.03 0 .07.04.08H34.85c.11 0 .21-.08.24-.19 0-.16.07-.32.1-.48.21-1.28.41-2.57.6-3.86m-5.79.66c.1 0 .14 0 .13.11a26.6 26.6 0 0 1-.61 3.3c-.05.2 0 .32.23.35.24.04.48.06.72.06.22.03.43-.13.46-.36v-.03c.27-1.69.45-3.34.73-5 .11-.63.19-1.27.23-1.91 0-.27.18-.49.19-.74 0-.6.16-1.17.25-1.77.19-1.41.41-2.82.64-4.23.11-.67.21-1.39.3-2.16a.23.23 0 0 0-.19-.26h-.88c-.08 0-.15.05-.16.13l-.41 2.07s-.04.07-.08.08c-.3.1-.61.17-.92.23-.19.03-.38.08-.56.16-.25.08-.51.13-.77.13a.1.1 0 0 1-.1-.12c.11-.8.24-1.58.4-2.36a.81.81 0 0 0 0-.22h-.06c-4.39.14-8.76.64-13.07 1.49a41.71 41.71 0 0 0-9.32 2.93 7.84 7.84 0 0 0-3.61 3 1.44 1.44 0 0 0-.06 1.47c.26.52.63.99 1.08 1.36.96.8 2.04 1.44 3.19 1.91a47.05 47.05 0 0 0 6.52 2.2 63.51 63.51 0 0 0 9.22 1.54c1.07.14 2.16.24 3.23.32.25.02.47-.15.51-.4l.45-2.48a.29.29 0 0 1 .23-.24l2.09-.56Z"/><path fill="#ef0010" d="M47.78 45.06h-.9c-.38 0-.51.56-.61.84a.46.46 0 0 1-.42.33h-.05c-.2 0-.26-.15-.18-.34.43-1.05.85-2.15 1.26-3.31a.41.41 0 0 1 .49-.31.4.4 0 0 1 .29.25l1.38 3.43c.06.09.03.22-.07.27l-.03.02a.23.23 0 0 1-.2 0 .54.54 0 0 1-.36-.3l-.32-.73a.28.28 0 0 0-.28-.17m-1-.75c-.02.06 0 .12.06.14h.79c.06 0 .11-.04.12-.1v-.05l-.38-1a.1.1 0 0 0-.14-.07.12.12 0 0 0-.07.07l-.37 1Zm6.86.21c0-.08 0-.11.11-.09s.25.05.35.19c.29.45.58.9.84 1.35.09.16.27.26.46.26h.1c.18 0 .22-.07.13-.23-.35-.58-.72-1.14-1.1-1.69a.24.24 0 0 1 0-.26c.16-.23.3-.48.42-.73a.8.8 0 0 1 .64-.48v-.54c-.89 0-1.08.75-1.41 1.4a.37.37 0 0 1-.43.25c-.09 0-.12-.49-.08-1.43 0-.18-.08-.24-.25-.19h-.06c-.16.02-.29.16-.28.32v3.36c0 .13.1.24.23.26h.16c.13 0 .19 0 .19-.16v-1.57l-.02-.02Zm-10.19-1.64a.18.18 0 0 0-.18.16v.68c0 .12.06.18.19.18.39 0 .79 0 1.22.05.36.04.67.26.81.59.48.93-.33 1.7-1.22 1.73h-1.36a.24.24 0 0 1-.22-.23v-3.54c0-.1.08-.19.19-.19H45c.12-.02.23.07.25.19v.11a.25.25 0 0 1-.23.27h-1.57m-.14 1.81v.81c0 .11.09.2.2.2h.75c.34.02.63-.24.66-.58v-.06a.63.63 0 0 0-.67-.57h-.75a.2.2 0 0 0-.19.21Zm6.85-.8s-.08-.02-.09-.07v-1.26a.24.24 0 0 0-.24-.24h-.16a.25.25 0 0 0-.23.25v3.38c-.01.16.1.3.26.32.1.01.19-.02.27-.08a.28.28 0 0 0 .13-.24l-.1-1.34c0-.09.07-.16.16-.16h1.49c.06 0 .11.04.12.1v1.41c-.03.15.06.29.21.32h.18c.13.02.24-.07.26-.19v-3.56c0-.13-.1-.23-.23-.23h-.13c-.13-.02-.24.07-.26.2v.04l-.07 1.11c0 .12-.11.22-.23.23h-1.34Z"/></svg>
