<svg xmlns="http://www.w3.org/2000/svg" viewBox="0 0 299.1 299.1"><path fill="#035f1f" d="M23.8 230a144 144 0 0 1-22.4-61.6c-3.3-25.6-.7-50.6 9-74.6 1.6-3.6 3.5-5.3 7.5-6C57.5 80.3 97 72.3 137 66.8a55 55 0 0 1 12.7-.6c-4 3.4-18.3 16.8-21.5 19.8A563.1 563.1 0 0 0 81 136.5a355.3 355.3 0 0 0-44.2 62.9c-4.5 8.7-7.9 17.9-7.9 28 0 .2.3 4.7-1.5 5.3s-2.6-1.5-3.6-2.7ZM57.8 239.8c-7.8-3-8-3.5-3.6-10.4 10-15.3 23.6-26.9 39.1-36.2 36.9-22.1 76.5-34.6 119.8-33 15.3.6 30 4.2 43 12.7a53.1 53.1 0 0 1 19.2 22.3 10.2 10.2 0 0 1 3 6.3c-1.9 3.6-4.5 1.2-6.3.4a61.5 61.5 0 0 0-23.7-5.7 156.7 156.7 0 0 0-44.9 5.4c-29.8 7.8-58 20.5-87 30.4-13 4.4-25.9 8.9-39.4 10.7-6.6 1-13.4 1.5-19.2-2.9Z"/><path fill="#035f1f" d="m96.6 137.1 2.4-4c4.2-8.5 10.4-15.6 16.6-22.8 9.5-11 20.3-20.9 31.3-30.4 2-1.8 9-6.2 9-6.2s17-9.7 27.4-10c30.3-.7 60 3.2 89.6 9.3 3.7.8 6 2.3 7.3 5.7 1 2.3 16.7 37.5 18.3 54.6 1 9.7.5 19.4.3 29.2-.1 2.5-.7 5.4-4.3 5.6-2.6-7.2-4.9-14.5-9-21-2.2-3.2-4.8-6-7-9.2a95.9 95.9 0 0 0-52-35.7 114.2 114.2 0 0 0-54.9-2.6 134.3 134.3 0 0 0-46.8 19c-1.3.8-19 12.8-25.4 19.5-.7.6-1.5 1.5-2.5 1s-.8-1.2-.3-2Z"/><path fill="#045f20" d="M78.3 19.6c7-8 42-18.3 65.2-19.1a135.9 135.9 0 0 1 67 14.3c-5.2 0-35.3.5-56.6.6-7.8 0-69.3 3.5-75.6 4.2Z"/><path fill="#0f5f24" d="m51.7 254.6-.6-.7a2 2 0 0 1 1.5-3.3c.6 0 7 2.9 10 3.2 9.4 1.6 18.4-1.5 27.4-3.3 12.5-2.4 24.2-6.8 36-11.1 26.1-9.6 51.9-20.2 78.8-27.5a188.3 188.3 0 0 1 27.7-5 21 21 0 0 1 4.3-.4H248a57.2 57.2 0 0 1 13.8 2.2h.1a91.7 91.7 0 0 1 19.2 8.8c.8.5-1.6 3.5-2.7 4.3-1.2 1-16.5-8.3-23.2-8.5-21.4-.9-23.6-2.3-70 11.5-6.2 1.9-59.8 22.6-65.7 24.5-9.1 3-18.3 6.8-27.7 9a106.2 106.2 0 0 1-24 2.8h-.3c-5.9-.7-11.6-1.6-15.9-6.4Z"/><path fill="#0a5c20" d="M50 260.5c-1.4-1.9-3.9-3-4.3-6 2 1 3 3 4.9 3.3 3.1.2 6 2.2 9 3.4 8.5 3.6 17.2 1.7 25.9.3 9-1.4 17.8-5.2 26.4-8.2 15-5.2 29.9-11.1 44.9-16.4 10.3-3.7 20.4-7.8 30.9-11a315.1 315.1 0 0 1 31.4-8.1c14.2-2.5 28.3-4 42.5-.1 3.7 1.2 7.4 2.7 11.2 4a4.8 4.8 0 0 1 2.6 1.8c1.3 2.5.9 4.2-2 5-4.2.2-7.5-2.4-11.4-3l-11.2-1.7c-2-.7-4.2-.5-6.3-1a100.3 100.3 0 0 0-21.7 1.7 389.5 389.5 0 0 0-66.2 19.6l-54.2 19.7c-8.2 2.6-31.7 7.3-34.2 6.1-4.4-1.7-15.4-5.9-18.3-9.4Z"/><path fill="#0b5c22" d="M55.7 243.9c6.8 2.5 14 2.6 21 1.6 24.5-3.2 47-13 70-21.6 27.4-10.2 54.8-21 84.1-24.6a67 67 0 0 1 44.3 8c2 1.2 5.4 2 3.3 5.7a2.1 2.1 0 0 1-1.4.5 75.8 75.8 0 0 0-18.5-6.7l-3.7-1a130.2 130.2 0 0 0-39.6 2.1 425.1 425.1 0 0 0-60.7 19c-20.4 7.6-40.5 15.9-61.6 21.3-6 1.6-12.3 2.6-18.6 3.6-2.7.5-5.5.3-8.3.4-4.3-.3-8.6-.3-11.4-4.3-2-2.4-6.4-3.1-5.9-7.7 3.3 0 4.3 3.3 7 3.7Z"/><path fill="#0d5a20" d="M267.6 234.8c-1.4-.4-3.1.6-4.3-.9-7-2-14.2-2.1-21.5-2a185 185 0 0 0-53.1 10c-21.6 6.3-42.4 14.7-63.5 22.4a331.5 331.5 0 0 1-35.6 11.3c-5 1.2-10 2.3-15.2 2.2-4.5 0-5.6-2-3.9-5.6 2.6-1.4 5.5-.4 8-1.5 5.4-.6 10.5-2.2 15.8-3.4 17-3.7 33.1-10.6 49.4-16.7 24-9 48-18.3 73.4-23.5 4.2-.8 8.5-1.1 12.8-1.7 12.8-1.7 25.5-2 37.6 3.2 1.5 1 3.3 1.9 3.4 3.8s-.9 3.3-3.3 2.4Z"/><path fill="#095d1e" d="M81.7 279.7h1c6-3 12.6-3.9 19-5.7 8.6-2.5 17-5.6 25.3-8.6 19.3-6.8 38.3-14 57.6-20.6 3.3-1.1 6.7-1.8 10-3 4.8-1.6 9.8-2.8 14.6-4.2a116.8 116.8 0 0 1 55-.8c1.2.8 2.9 1.3 2.4 3.1-.6 2-2.2 2.5-4.2 2.3-4-1.2-8.1-.6-12-1.5-10.6-1.7-21 .3-31.2 2.1-26.4 4.9-51.3 14.5-76.3 24-17 6.5-34 13.3-51.8 17.5-3.7 1-7 .6-9.6-2.4a1.9 1.9 0 0 1 .2-2.2Z"/><path fill="#095d1d" d="m253.6 244.6 5.9 1a1 1 0 0 1 1.4.4c0 5-3.8 3.4-6.6 3.7a6.8 6.8 0 0 1-1.6-.3c-16.2-.9-32 1.4-47.8 5.5-19.9 5.1-39.3 12.1-58.5 19.5a920 920 0 0 1-40.7 14.6 17 17 0 0 1-8.8.6c-1.4-.5-2.5-1.2-2.5-2.9 1-2.3 3.4-2.3 5.3-3 3.6-1 7.1-2.1 10.6-3.3 13.8-4.3 27-10 40.6-15 16.6-6 33.2-12.3 50.3-16.8 9.8-3.2 19.9-5.6 30-5.7 7.4 0 15.1-1.1 22.4 1.7Z"/><path fill="#0b5b20" d="M110.5 292.8a2.1 2.1 0 0 1-.9-.2c-1.1-3.4 2-3.4 3.6-4l35.6-13.2c16.2-6 32.3-12.1 49-16.9a192 192 0 0 1 32-6.8c3.3-.5 6.6 1.5 9.9.2l13.8 1c1.8 3.8-.7 4.5-3.7 4.8-6 .5-19.1-.7-25 .7-.6.2-27.4 6.8-36.5 9.4-23.1 6.7-39 14.9-62 22.4-3 1-13 5.6-15.8 2.6Z"/><path fill="#0b5b22" d="M124.8 295.5c.7-2 2.6-2 4-2.5 21.3-7.6 42.2-16.2 63.8-22.9 6.3-2 12.8-3.5 19.2-5.2 10.8-1.8 21.6-4 32.8-3.1.2 2.7-1.6 3.7-3.8 4.4a271.1 271.1 0 0 0-32.6 5.4 420 420 0 0 0-56.5 18.5c-5.5 2.2-11.2 3.9-16.7 6.4a9 9 0 0 1-8.5-.7Z"/><path fill="#0b5b22" d="m148.6 297.7-4.7-.4c1-2 3.2-2 5-2.8a532.7 532.7 0 0 1 53-17.9 8.7 8.7 0 0 0 1.7-.9c9.6-1.5 18.9-5 28.8-4.8.4 2.7-1.6 3.8-3.5 4.6-1.5.7-3.2 1-4.5 2l-3.8.3c-9.1.7-17.7 4-26.4 6.5a429.4 429.4 0 0 0-39.5 13.5c-2 .8-4.1 1.6-6.1 0Z"/><path fill="#195f2c" d="M204.7 286.8c-7.7 2.6-15 7.4-23.1 7.8-3.1.2-5.9 1.2-10.2.7a140.3 140.3 0 0 1 35.5-10Z"/></svg>
