<svg xmlns="http://www.w3.org/2000/svg" width="41" height="40" fill="none">
    <path fill="#EB5C18" fill-rule="evenodd" d="M23.87 8.3c-.19.64-1.54 4.86-4.24 7.4-2.8-2.35-4.4-7.49-4.4-7.49l.01-.05c-1.9 2.93-3.18 6.43-3.18 6.43s2.75 8.35 7.58 12.18c4.69-4.17 7.4-12.28 7.4-12.28s-1.12-3.01-3.17-6.2Zm.06-1.82s-1.55 4.66-4.24 7.05c-2.78-2.2-4.35-7.04-4.33-7.12 0 0 1.59-4.02 4.28-6.41 2.78 2.2 4.29 6.48 4.29 6.48Zm2.8 10.73c1.64 3 2.52 5.39 2.52 5.39S25.7 34.65 19.68 40C13.48 35.08 10 22.72 10 22.72l.09-.28c.18-.58.9-2.51 2.22-4.96.85 2.34 3.5 8.56 7.38 11.75 4.18-3.87 6.37-10.03 7.03-12.02Z" clip-rule="evenodd"/>
</svg>