<svg xmlns="http://www.w3.org/2000/svg" width="181" height="38" fill="none">
    <path fill="#EB5C18" fill-rule="evenodd" d="M175.7 6.65c-.16.51-1.24 3.9-3.4 5.94-2.25-1.89-3.52-6-3.52-6v-.05c-1.53 2.34-2.55 5.15-2.55 5.15s2.2 6.7 6.08 9.76c3.75-3.34 5.92-9.84 5.92-9.84s-.89-2.41-2.53-4.96Zm.04-1.46s-1.24 3.73-3.4 5.65c-2.22-1.76-3.48-5.64-3.47-5.7 0 0 1.28-3.23 3.43-5.14 2.23 1.76 3.44 5.2 3.44 5.2Zm2.24 8.6c1.32 2.4 2.02 4.32 2.02 4.32s-2.83 9.65-7.66 13.94c-4.98-3.94-7.76-13.84-7.76-13.84l.07-.23c.15-.46.73-2.01 1.78-3.97.68 1.87 2.8 6.86 5.91 9.42 3.36-3.1 5.11-8.04 5.64-9.64Z" clip-rule="evenodd"/>
    <path fill="#636362" fill-rule="evenodd" d="M156.05 33.54a1.7 1.7 0 0 0-.05-.36 3.97 3.97 0 0 0-.25-.66l-1.45-3.33c-.24-.56-.49-1.03-.74-1.43a5.5 5.5 0 0 0-.78-.99 4 4 0 0 0-.86-.65c-.3-.17-.62-.32-.97-.47v-.03a4.37 4.37 0 0 0 1.63-.98c.27-.26.54-.58.8-.98.26-.39.5-.87.74-1.44l1.18-2.83.24-.63c.04-.16.06-.3.06-.4a.31.31 0 0 0-.08-.23.68.68 0 0 0-.3-.16 3.23 3.23 0 0 0-.62-.1 15.3 15.3 0 0 0-2.13 0 3.7 3.7 0 0 0-.67.11.82.82 0 0 0-.36.2.73.73 0 0 0-.17.3l-1.25 3.2c-.17.47-.36.87-.56 1.2-.19.31-.4.57-.63.77-.23.2-.48.33-.76.41a3.2 3.2 0 0 1-.93.13h-.85V18.4c0-.07-.04-.15-.11-.22a.98.98 0 0 0-.37-.19 3.68 3.68 0 0 0-.65-.11 9.72 9.72 0 0 0-2.6.11.84.84 0 0 0-.36.19.32.32 0 0 0-.1.22v15.05c0 .08.03.15.1.23.07.07.2.13.36.19.17.06.38.1.65.12a9.8 9.8 0 0 0 2.6-.12c.16-.06.29-.12.37-.2.07-.07.11-.14.11-.22V27.4h.85c.4 0 .74.04 1.04.12.3.08.56.22.8.42.23.2.44.45.64.77.2.33.38.72.54 1.2l1.39 3.55c.04.11.1.2.18.29.07.07.2.13.38.17.18.04.42.07.72.1a16.17 16.17 0 0 0 2.17 0c.28-.03.49-.06.65-.1a.7.7 0 0 0 .32-.15.34.34 0 0 0 .08-.22Zm-17.69.12c.07-.08.1-.18.1-.29V18.5c0-.1-.03-.2-.1-.29a.75.75 0 0 0-.33-.2 2.9 2.9 0 0 0-.64-.13 10.42 10.42 0 0 0-2.68.12.71.71 0 0 0-.33.21.46.46 0 0 0-.1.3v5.56h-6.02V18.5c0-.1-.03-.2-.1-.29a.73.73 0 0 0-.34-.2c-.16-.06-.37-.1-.64-.13a10.35 10.35 0 0 0-2.68.12.72.72 0 0 0-.33.21.45.45 0 0 0-.1.3v14.86c0 .1.03.2.1.29.06.08.17.15.33.2.17.07.38.1.65.13a10.35 10.35 0 0 0 2.67-.12.7.7 0 0 0 .34-.21c.07-.09.1-.18.1-.3v-5.84h6.02v5.85c0 .1.03.2.1.29a.7.7 0 0 0 .33.2c.16.07.37.1.64.13a10.62 10.62 0 0 0 2.68-.12.73.73 0 0 0 .34-.2ZM121 31.97v-8.48c0-2.5-1.92-4.83-4.01-5.45a9.62 9.62 0 0 0-4.42-.2 10.48 10.48 0 0 0-2.81.92c-.39.2-.67.4-.86.57-.22.23-.37.48-.44.74-.05.2-.07.45-.07.76 0 .2.01.37.04.53.03.2.08.38.17.53.1.17.22.3.37.4.17.12.37.18.57.18.26 0 .53-.1.9-.31l.12-.08.05-.02.04-.04.41-.2.26-.13c.34-.16.75-.32 1.21-.45l.03-.01c.7-.17 1.28-.24 1.78-.24 1.22 0 2.36.38 2.51 3h-.77c-2.11 0-4.3.05-5.9.69-1.79.72-3.02 2.1-3.02 4.2 0 3.39 2.89 5.33 7.29 5.33 1.8 0 4.4-.4 5.68-.95.2-.08.82-.43.87-1.29Zm-4.18-1.32c-.59.15-1.56.3-2.42.3-2.71 0-2.9-.67-2.9-1.75 0-1.46.62-1.85 2.9-1.85l1.22.02 1.2.02v3.26Zm-12.3-1.37c.38-1.05.57-2.22.57-3.5 0-1.17-.13-2.23-.4-3.15a6.56 6.56 0 0 0-1.17-2.37 5.1 5.1 0 0 0-2-1.49 7.17 7.17 0 0 0-2.84-.52 6.76 6.76 0 0 0-2.84.6 6.86 6.86 0 0 0-2.2 1.52l.22-1.29a7.53 7.53 0 0 1 .68-2.08 3.05 3.05 0 0 1 1.1-1.2c.19-.13.42-.25.68-.36.26-.1.56-.2.9-.28.35-.08.75-.16 1.2-.23l4.9-.73a.86.86 0 0 0 .44-.17 1 1 0 0 0 .28-.4c.07-.16.11-.36.13-.58a11.63 11.63 0 0 0 0-1.85 1.36 1.36 0 0 0-.13-.55.36.36 0 0 0-.3-.2c-.12 0-.28 0-.48.03l-5.3.76a15.43 15.43 0 0 0-3.27.87 7.08 7.08 0 0 0-3.48 3.3c-.37.7-.68 1.49-.92 2.39-.25.9-.44 1.9-.57 3a29.1 29.1 0 0 0-.2 3.47c0 1.7.15 3.18.43 4.45a8.2 8.2 0 0 0 1.35 3.13 5.7 5.7 0 0 0 2.35 1.86c.95.4 2.1.61 3.43.61 1.2 0 2.3-.2 3.27-.6a7.23 7.23 0 0 0 4.17-4.44Zm-3.68-3.26a8.6 8.6 0 0 1-.23 2.06c-.16.6-.39 1.11-.69 1.53-.3.42-.67.73-1.11.95a3.4 3.4 0 0 1-1.52.33c-.63 0-1.17-.13-1.6-.37-.44-.25-.8-.63-1.07-1.13a6.13 6.13 0 0 1-.6-1.93 17.6 17.6 0 0 1-.18-2.72v-.49c0-.15 0-.3.02-.43.34-.36.65-.67.95-.93.3-.27.6-.5.91-.69a3.78 3.78 0 0 1 2-.56 2.71 2.71 0 0 1 2.43 1.27c.24.38.42.84.53 1.38.1.53.16 1.1.16 1.73ZM86.55 37.19c.37 0 .66-.2.66-.2v-3.94c-.01-.82-.55-1.04-.65-1.07l-1.18-.38V18.33c0-.05-.03-.1-.03-.1l-.13-.09a1.03 1.03 0 0 0-.34-.08 7.14 7.14 0 0 0-1.66.08.55.55 0 0 0-.14.1v13.18l-1.91-.12-4.69.3c-1.18.01-1.45-.7-1.5-1.14V18.33c0-.05-.03-.1-.03-.1l-.14-.09a1.01 1.01 0 0 0-.34-.08 7.14 7.14 0 0 0-1.66.08c-.08.04-.12.09-.12.09l-.02.1v12.8c.12 1 .61 2.38 2.46 2.38.22 0 .41 0 .58.02h9.6l.53 3.44s.31.22.71.22Zm-17.61-8.03c.31-1 .47-2.1.47-3.3 0-1.24-.15-2.35-.45-3.33-.3-.97-.74-1.8-1.33-2.46a5.65 5.65 0 0 0-2.2-1.54 8.43 8.43 0 0 0-3.15-.54 8.2 8.2 0 0 0-3.26.6c-.93.4-1.7.96-2.31 1.68a7.09 7.09 0 0 0-1.39 2.57c-.31 1-.47 2.11-.47 3.31 0 1.25.15 2.36.45 3.34.29.97.73 1.8 1.32 2.47a5.67 5.67 0 0 0 2.2 1.54c.89.35 1.93.53 3.14.53a8.1 8.1 0 0 0 3.26-.6c.93-.41 1.7-.97 2.32-1.69a7.27 7.27 0 0 0 1.4-2.58ZM67 26.04c0 .88-.09 1.7-.27 2.43-.19.75-.48 1.4-.88 1.95s-.92.98-1.54 1.28a5 5 0 0 1-2.2.46 4.9 4.9 0 0 1-2.33-.5 4.06 4.06 0 0 1-1.5-1.36 5.63 5.63 0 0 1-.79-1.97 11.5 11.5 0 0 1 .06-4.78c.19-.74.48-1.4.88-1.95.4-.56.92-1 1.54-1.3.62-.3 1.36-.45 2.2-.45.92 0 1.7.16 2.33.5.62.33 1.13.8 1.5 1.37.36.57.62 1.23.77 1.97.15.74.23 1.52.23 2.35ZM52.87 31.7a5.88 5.88 0 0 0-.08-1.37.43.43 0 0 0-.07-.13l-.06-.02s-.06.01-.13.05c-.08.04-.17.1-.29.2a8.32 8.32 0 0 1-2.17 1.34 4.6 4.6 0 0 1-1.76.32c-.7 0-1.32-.13-1.86-.39a3.57 3.57 0 0 1-1.4-1.16 5.47 5.47 0 0 1-.84-1.9c-.2-.75-.28-1.61-.28-2.6 0-1.95.35-3.47 1.1-4.55a3.71 3.71 0 0 1 3.22-1.62c.66 0 1.25.1 1.76.3a6.53 6.53 0 0 1 2.09 1.25c.2.17.35.22.43.22l.07-.02a.45.45 0 0 0 .1-.13c.07-.1.12-.38.12-.8l-.01-.48a1.32 1.32 0 0 0-.06-.3.84.84 0 0 0-.1-.22 2.08 2.08 0 0 0-.24-.28 5.15 5.15 0 0 0-1.57-.93 7.44 7.44 0 0 0-5.24 0 5.6 5.6 0 0 0-2.13 1.46 7.02 7.02 0 0 0-1.44 2.53 11.63 11.63 0 0 0-.53 3.73c0 1.28.15 2.41.43 3.38.3.97.7 1.78 1.25 2.44.54.65 1.2 1.15 2 1.5.8.33 1.73.5 2.78.5a8.48 8.48 0 0 0 2.8-.53 6.52 6.52 0 0 0 1.75-1 2 2 0 0 0 .23-.27 1.31 1.31 0 0 0 .13-.52Zm-12.29-12a4.2 4.2 0 0 0 0-1.06 1.76 1.76 0 0 0-.1-.35c-.03-.07-.08-.11-.08-.11a.13.13 0 0 0-.08-.03H28.2c-.04 0-.07.02-.07.02l-.1.13-.1.33a3.33 3.33 0 0 0 0 1.05c.03.15.07.26.1.33s.08.11.08.11c.03.02.05.03.1.03h4.92v13.17l.01.08.1.05c.07.03.2.07.36.08a5.23 5.23 0 0 0 1.67-.08c.07-.03.1-.07.1-.07s.02-.02.02-.06V20.17h4.93c.05 0 .08-.02.08-.02a.39.39 0 0 0 .1-.14.98.98 0 0 0 .08-.3ZM26.41 33.13c.07-.08.13-.2.15-.4v-9.44a6.1 6.1 0 0 0-.96-3.22 4.47 4.47 0 0 0-2.41-1.92 9.8 9.8 0 0 0-4.47-.2 11.04 11.04 0 0 0-2.84.93c-.37.2-.62.36-.73.48a.7.7 0 0 0-.21.33 2.95 2.95 0 0 0-.02 1.04c.02.12.04.2.07.25.04.06.09.1.09.1s.03.03.08.03l.15-.04.33-.17.13-.08.03-.03.62-.31.29-.14c.43-.21.93-.4 1.5-.57l.1-.02a9 9 0 0 1 2.21-.3c.64 0 1.23.1 1.76.34.52.23.97.6 1.3 1.14.23.35.4.77.54 1.26.17.65.26 1.42.26 2.34v.28l-1.07.04h-.83c-1.42 0-2.73.02-3.88.16a7.86 7.86 0 0 0-2.86.79c-.5.27-.9.62-1.2 1.07a4.3 4.3 0 0 0-.62 2.44c0 .77.14 1.46.42 2.06.27.6.68 1.1 1.23 1.53 1.1.85 2.78 1.34 5.09 1.34.96 0 2.04-.1 3.04-.28.99-.18 1.91-.4 2.52-.68a.6.6 0 0 0 .19-.15Zm-2.1-1.15-.16.08c-.18.08-.4.16-.66.22a13.5 13.5 0 0 1-2.9.34c-.86 0-1.56-.05-2.14-.18a3 3 0 0 1-1.39-.65 2.1 2.1 0 0 1-.53-.76 3.6 3.6 0 0 1-.22-1.37c0-.73.14-1.3.41-1.76a2.4 2.4 0 0 1 1.17-.97c.32-.13.67-.22 1.05-.27.5-.08 1.06-.1 1.65-.1.93 0 1.94.05 3 .05h.72v5.37ZM12.73 19.71a4.24 4.24 0 0 0-.01-1.05 1.56 1.56 0 0 0-.1-.36c-.02-.07-.07-.11-.07-.11a.14.14 0 0 0-.09-.03H.3c-.04 0-.07.02-.07.02l-.1.14c-.03.07-.06.19-.09.33a3.37 3.37 0 0 0 0 1.05c.03.15.06.26.1.33.02.07.05.1.08.12.03.02.05.03.08.03h4.95v13.21l.01.08s.05.04.1.05c.07.04.2.07.36.09a5.26 5.26 0 0 0 1.68-.08c.07-.03.1-.07.1-.07s.02-.02.02-.07V20.18h4.94c.06 0 .09-.02.09-.02a.38.38 0 0 0 .1-.14c.03-.06.06-.17.08-.3Z" clip-rule="evenodd"/>
</svg>