<svg id="a" xmlns="http://www.w3.org/2000/svg" viewBox="0 0 103.1 103.1"><defs><linearGradient id="b" x1="-773.27" y1="994.23" x2="-770.87" y2="994.23" gradientTransform="translate(-44937.54 34988.64) rotate(90) scale(45.25 -45.25)" gradientUnits="userSpaceOnUse"><stop offset="0" stop-color="#008054"/><stop offset=".6" stop-color="#7fcbae"/><stop offset="1" stop-color="#00a76d"/></linearGradient><clipPath id="c"><path d="M8,1.8c-2,0-3.3,1.7-3.6,4.1,0,0-2.6,13.5-2.6,42.3s2.6,47.6,2.6,47.6c.3,2.1,1.6,3.9,3.6,3.9h89.2c2,0,3.6-1.6,3.6-4.1,0,0-1-22-1-43.5s1-46.3,1-46.3c.1-2.1-1.5-3.9-3.6-4H8Z" fill="none" stroke-width="0"/></clipPath><linearGradient id="d" x1="-772.89" y1="992.28" x2="-770.48" y2="992.28" gradientTransform="translate(-50405.77 39275.69) rotate(90) scale(50.85 -50.85)" gradientUnits="userSpaceOnUse"><stop offset="0" stop-color="#00a76d"/><stop offset=".3" stop-color="#7fcbae"/><stop offset=".55" stop-color="#00a76d"/><stop offset=".84" stop-color="#008054"/><stop offset=".89" stop-color="#00895c"/><stop offset=".97" stop-color="#00a173"/><stop offset="1" stop-color="#00ad7e"/></linearGradient><linearGradient id="e" x1="80.75" y1="695.62" x2="121.75" y2="695.62" gradientTransform="translate(-30.3 -666.82)" gradientUnits="userSpaceOnUse"><stop offset="0" stop-color="#00b387"/><stop offset="1" stop-color="#00a76d"/></linearGradient><linearGradient id="f" x1="40.24" y1="740.82" x2="64.09" y2="740.82" gradientTransform="translate(-30.3 -666.82)" gradientUnits="userSpaceOnUse"><stop offset="0" stop-color="#00b387"/><stop offset="1" stop-color="#00a76d"/></linearGradient><linearGradient id="g" x1="47.14" y1="711.07" x2="87.77" y2="711.07" gradientTransform="translate(-30.3 -666.82)" gradientUnits="userSpaceOnUse"><stop offset="0" stop-color="#00b387"/><stop offset="1" stop-color="#00a76d"/></linearGradient><linearGradient id="h" x1="69.54" y1="750.02" x2="91.84" y2="750.02" gradientTransform="translate(-30.3 -666.82)" gradientUnits="userSpaceOnUse"><stop offset="0" stop-color="#00b387"/><stop offset="1" stop-color="#00a76d"/></linearGradient></defs><rect width="103.1" height="103.1" fill="url(#b)" stroke-width="0"/><g clip-path="url(#c)"><rect x="1.9" y="1.8" width="99.1" height="97.9" fill="url(#d)" stroke-width="0"/></g><path d="M91.5,18.4c-3.9.3-6,.4-8.1,1.1-5-3-16.3-7-24.9-8l-.3.7c2.8,1.2,14.1,7.3,15.5,9.2-5.7.8-16.9,3.7-22.9,6.6l-.3.7c6.6-1.5,15.9-2.2,22.3-2.6-2.3,3.3-4.8,6.3-7.6,9.1l-.4.8c6.9-4.2,8.9-4.5,15.2-8.2,2.4,3.6,3,11.8,3.1,18.3,2.1-4.1,4.6-19.7,3.5-22.5,4.3-2.9,4.9-5.2,4.9-5.2Z" fill="url(#e)" stroke-width="0"/><path d="M27.7,71.2l.3-.7c-2.9.4-5.5,1.5-8.1,2-2-3.5-2.8-8.3-3.8-12.8l-.3.7c-.6,5.2-.8,8.9,0,13-2.1.6-3.9.7-5.6,1.4l-.3.7c2.5,1.6,5.2,3.1,7.9,4.3,1.4,3.2,3.5,6.1,6,8.5l.3-.7c-.5-2-1.1-3.6-.9-5.8,3.3,1,6.7,1.5,10.1,1.6l.3-.7c-3.4-1.3-6.8-2.3-9.5-4.9,1-2.3,2.2-4.5,3.6-6.6Z" fill="url(#f)" stroke-width="0"/><path d="M57.1,43.5l.3-.7c-5.4-2.7-11.3-4.5-17.3-5.4h.3c.7-1.9,1.5-3.8,2.5-5.6-1.7.2-6.5,2.5-9.7,5-1.9-.1-3.9-.2-5.8-.1-3,.1-7.6.4-9.8,1.1l-.3.7c3.5.2,8.3,1.1,10.2,2.9,0,0-5.3,4.8-10.6,15.3,0,0,9.6-9,13.7-11.2,0,0,2.2,7.2,3.7,10.8l.3-.7c.4-2.3,1.4-8.6,3.2-12.5,0,0,.6-.4,3.7-.7s7.4-.3,15.6,1.1Z" fill="url(#g)" stroke-width="0"/><path d="M53,77c-1.5,2.1-3.2,4.2-4.9,6.1-2,.5-4.1.6-6.2.5h-2.3l-.3.7c1.8.9,3.7,1.6,5.7,2-1.7,1.3-3.4,2.5-5.2,3.6l-.3.7c3.7-.8,7.3-2.2,10.6-4,1.4.1,2.9,0,4.3-.3l.3-.7c-.2-.7-.9-1.2-1-2.2,2.7-2.1,5.2-4.4,7.6-6.9l.3-.7c-2.6,2-5.4,3.8-8.3,5.4-.2-1.4-.3-2.6-.3-4.2Z" fill="url(#h)" stroke-width="0"/><path d="M92.6,17.7c-3.9.3-6.1.4-8.1,1-5.3-3.2-16.2-6.5-25.2-7.2,2.8,1.2,14.1,7.3,15.5,9.2-6,.8-17.4,4.2-23.2,7.3,6.6-1.5,15.9-2.2,22.3-2.6-2.3,3.5-5,6.8-7.9,9.9,6.9-4.1,8.9-4.5,15.2-8.2,2.4,3.6,3,11.8,3.1,18.3,2.1-4.1,4.6-19.7,3.6-22.5,3.7-2.5,3.7-3.5,4.7-5.2Z" fill="#fff" stroke-width="0"/><path d="M34.5,82.8c-3.4-1.2-6.6-3.1-9.2-5.7.9-2.4,2-4.6,3.5-6.7-3,.4-5.2.8-7.7,1.3-2.1-3.7-3-7.2-4.1-12.1-.6,5.2-.8,8.9,0,13-2.1.5-4.1,1.2-6,2.1,2.5,1.6,5.2,3.1,7.9,4.4,1.4,3.2,3.5,6.1,6,8.5-.6-2.1-.8-4.3-.5-6.5,3.3,1.1,6.7,1.7,10.1,1.7Z" fill="#fff" stroke-width="0"/><path d="M58.2,42.8c-5.2-3.1-11-5.2-17-6.1.7-2,1.6-3.8,2.8-5.5-1.7.2-6.6,2.4-9.8,4.9-1.9-.1-3.9-.2-5.8-.1-3.4.2-6.8.7-10.1,1.8,3.5.2,8.3,1.1,10.2,2.9,0,0-5.3,4.8-10.6,15.3,0,0,9.6-9,13.7-11.2,0,0,2.2,7.2,3.7,10.8,0,0,1.3-8.4,3.6-13.2,1.2-.4,2.4-.6,3.7-.7,3.1-.2,7.4-.4,15.6,1.1Z" fill="#fff" stroke-width="0"/><path d="M54.1,76.3c-1.7,2.2-3.1,4-4.9,6.1-2.9.8-5.8,1.2-8.8,1.2,1.8.9,3.7,1.6,5.7,2-1.7,1.6-3.6,3-5.6,4.3,3.7-.8,7.3-2.2,10.6-4,1.4.1,2.9,0,4.3-.3-.3-1-.5-1.9-.7-2.9,2.7-2.1,5.2-4.4,7.6-6.9-2.5,1.8-5.2,3.3-8,4.7-.1-1.4-.2-2.6-.2-4.2Z" fill="#fff" stroke-width="0"/><rect width="103.1" height="103.1" fill="none" stroke-width="0"/></svg>
