<svg xmlns="http://www.w3.org/2000/svg" viewBox="0 0 441 441"><path fill="#fdfefe" d="M221.4 441c.5-.7.8-1.4 1.4-2l69.4-69.9c1.9-1.9 3.9-2.1 6.2-2.1h68.9v-5.9l-.1-62.4c0-3.3.9-5.6 3.2-7.9 22.2-22 44.4-44.3 66.5-66.4 1.2-1.3 2.9-2.3 3.7-4.8-1.3-1-2.8-2-4-3.4l-66.2-66a10 10 0 0 1-3.2-7.9V74H299a10 10 0 0 1-7.8-3.2c-22.2-22.5-44.6-45-67-67.4-1-1-2.4-1.8-2.7-3.4"/><path fill="#018468" d="m220.4 441-47.7-48.2c-7.4-7.5-14.9-14.8-22.1-22.4a10.3 10.3 0 0 0-8.2-3.5c-20.9.2-41.7.1-62.5.1h-5.8v-68.8c0-2.4-.3-4.4-2.1-6.2L1.6 221.7c-.3-.3-.8-.5-1.2-.7v-1c1.3-1 2.6-2 3.7-3.2 22.2-22.2 44.2-44.4 66.5-66.4a11 11 0 0 0 3.6-8.7c-.2-20.6 0-41.2 0-61.9V74h69.2c2.4 0 4.3-.5 6.1-2.4l70-70.5 1-1.1h1c.2 1.6 1.7 2.3 2.7 3.4 22.3 22.4 44.7 44.8 67 67.4a9.9 9.9 0 0 0 7.7 3.2h68.4v5.8l-.1 62.5c0 3.2.9 5.6 3.2 7.9l66.2 66c1.2 1.3 2.8 2.4 4 3.4-.8 2.5-2.5 3.5-3.7 4.7l-66.5 66.5a10 10 0 0 0-3.2 7.8V367h-68.8c-2.3 0-4.3.2-6.2 2.1L222.8 439c-.6.5-1 1.3-1.4 2h-1Z"/><path fill="#f8b131" d="M221.4 428.6 186 393.3c-13.8-13.7-27.6-27.5-41.3-41.4a9.3 9.3 0 0 0-7.4-3c-14.8.2-29.6.1-44.9.1 0-13.7-.4-27 .2-40.3.2-6.5-1.9-11-6.5-15.5-23.1-22.6-45.8-45.6-68.7-68.5-1.3-1.3-2.8-2.3-4.5-3.6 1.8-2 3-3.3 4.3-4.5 23.9-24 47.8-48 71.8-71.7a11 11 0 0 0 3.5-8.8c-.2-14.4 0-28.9 0-43.2 1.7-1.3 3.4-.8 5-.8H137c3.5.1 5.9-.9 8.3-3.4l71.1-71.6c1.4-1.4 2.4-3.2 3.3-4.5 24.8 24.6 48.9 48.1 72.5 72.1 5.3 5.4 10.5 8 18.1 7.5 12.6-.6 25.3-.1 37.7-.1 1.7 1.8 1.1 3.7 1.1 5.5 0 12.8.2 25.7 0 38.5 0 3.7 1 6.5 3.7 9.2 23.8 23.5 47.4 47.3 71.1 71 1.3 1.2 3 2 4.3 3.4-1.3 2.6-3 3.6-4.2 4.8-23.7 23.9-47.5 47.7-71.4 71.4a11 11 0 0 0-3.5 8.8c.2 13 0 26 0 39 0 1.6.5 3.3-.7 5.3-12 0-24.4.6-36.6-.2a23.8 23.8 0 0 0-20.3 8.3c-22 22.7-44.4 44.7-66.6 67-1.3 1.3-2.3 3-3.5 4.5Z"/><path fill="#018468" d="m220 401-28.4-28.3c-7.3-7.3-14.7-14.5-21.9-22-20-21.1-26.3-46-17-73.6a69 69 0 0 1 58.2-48.3c11.5-1.8 23.2-.8 34.8-2.7a166 166 0 0 0 95.8-50.2l7-7.6 52 53L219.9 401ZM92.9 272.6l-52.2-52 181.2-181s.6 1.3 1.3 2c16.6 16.7 33.4 33.1 49.6 50.1a67.8 67.8 0 0 1 16.2 71.6c-8.6 26.6-28 42.6-55.3 48.6-9.6 2-19.6 1-29.3 2a167.4 167.4 0 0 0-111.5 58.7Z"/></svg>
