<svg xmlns="http://www.w3.org/2000/svg" viewBox="0 0 200 200">
  <path d="M53 25.4h15.1c.6 0 1-.2 1.5-.6C75.4 18.8 81.3 13 87.2 7c1.2-1.2 2.4-2.6 3.8-3.7a14.2 14.2 0 0 1 18.7.6A6623 6623 0 0 1 130 24.6c.6.6 1.2.8 2 .8h29.1c7.5 0 13.4 5.9 13.4 13.3v29.1c0 .8.2 1.3.7 1.8l20.8 20.9c5 5 5.3 13.2.5 18.4-3.9 4.2-8 8.1-12.1 12.2l-8.9 8.9c-.6.6-1 1.3-1 2.4v28.8c0 7.5-5.9 13.4-13.4 13.4H132c-.7 0-1.2.2-1.7.7L112 193.6c-1.2 1.3-2.4 2.6-3.8 3.6-5.1 4-13.3 3.4-17.9-1.2l-17-17-3.5-3.7a2 2 0 0 0-1.7-.7H38.7a13.4 13.4 0 0 1-13.4-13.5v-29.2a2 2 0 0 0-.6-1.6l-10.2-10.2-10.8-10.9c-4.7-4.6-5-13-.6-17.9 1.6-1.9 3.5-3.6 5.3-5.4L23 71.3a7 7 0 0 0 2.4-5.6c-.2-9 0-17.9 0-26.8a13.3 13.3 0 0 1 13-13.6H53Z" fill="#098362"/>
  <path d="M142.9 166h-14.6a2 2 0 0 0-1.6.7l-20 20.1a10.2 10.2 0 0 1-5.2 2.9c-2.6.5-5-.3-7-1.9l-1.6-1.4-19.7-19.8c-.4-.4-.9-.6-1.5-.6h-29a8.8 8.8 0 0 1-8.8-8l-.1-2.5v-27.3a2 2 0 0 0-.7-1.6l-18.4-18.3c-1-1-2.1-2-3-3.2A9.3 9.3 0 0 1 13 93.4c6.2-6.3 12.5-12.6 18.8-18.7 1.5-1.4 2-2.7 2-4.7V43.6c0-2.5.7-4.9 2.4-6.8a9 9 0 0 1 7-2.9h28.4c.8 0 1.3-.2 1.8-.8l19.9-19.9c3.9-3.9 8.8-4 13-.4l2.4 2.3a6343.3 6343.3 0 0 1 17.8 18c.5.6 1 .8 1.8.8h28.4c4 0 7 1.8 8.7 5.5.5 1.2.7 2.5.7 3.8v27.4c0 1.5.5 2.5 1.5 3.6l19.3 19.1a9.3 9.3 0 0 1 0 13.4l-20.4 20.2c-.4.4-.4.8-.4 1.3v28.5a9 9 0 0 1-8.8 9.3h-14.4ZM41 124l1.1-1.3 1.1-1.3a75 75 0 0 1 48-24.3l13.2-1.6A34.5 34.5 0 0 0 130 77.3a28 28 0 0 0 3.3-16.9c-.4-4.4-1.6-8.7-3.7-12.8-1.3-2.5-3.5-4.4-5.4-6.4l-17.3-17.4-1.2-1a10 10 0 0 0-13 1.5l-38 38-30.2 30.3c-4 4-4.5 10.1-.7 14 5.6 5.8 11.5 11.6 17.3 17.4Zm25.6 13.4c0 2.7.6 6.2 1.7 9.7a21 21 0 0 0 4.8 8.8l15.4 15.6.8.8c1.5 1.6 3 3.3 4.8 4.7 4 3 9.5 2.4 13.2-1.3l41.2-41.2 27-27c4.2-4.2 4.5-10.3.6-14.3l-16.7-16.7c-.4-.4-.6-.4-1 0a75 75 0 0 1-36.8 24c-7 1.9-14 2.5-21.2 3.4-4 .4-7.8 1-11.6 2.4-5.6 1.9-10 5.3-14 9.6a30.8 30.8 0 0 0-8.2 21.5Z" fill="#f4ae00"/>
</svg>
