<svg xmlns="http://www.w3.org/2000/svg" width="134" height="46" fill="none">
    <path fill="#006636" d="M83.14 33.34A4.99 4.99 0 0 0 86.86 35h4.87a.28.28 0 0 0 .25-.17.28.28 0 0 0-.06-.3l-9.85-10.46 8.43-8.57a.3.3 0 0 0-.2-.5h-5.66l-5.47 5.96-3.73-4.27a4.95 4.95 0 0 0-3.7-1.69h-4.78c-.25 0-.33.36-.2.5l8.82 9.32-9.5 9.7a.28.28 0 0 0-.06.3.28.28 0 0 0 .25.18h5.67l6.46-6.96 4.73 5.3Zm-10.1 9.51c0 1.19 0 2.7-1.04 2.5v.6c1.62.37 1.75-1.37 1.75-3.04v-1.24h1.54v4.28H76V41h-2.97v1.85Zm6 .14h-1.18V41H77v4.98h2.34a1.38 1.38 0 0 0 1.19-.35 1.46 1.46 0 0 0 .47-1.18c0-1.37-1.22-1.46-1.96-1.46Zm0 2.4H77.9v-1.8h1c.42 0 1.28 0 1.28.86-.03.28-.06.95-1.16.95h.03ZM16.36 0c-3.09 0-6.13.66-8.93 1.95a20.87 20.87 0 0 0-7.22 5.5c-.51.6 0 1.07.78.7A21.22 21.22 0 0 1 10.1 6.2c4.25 0 8.31 1.65 11.31 4.6a15.5 15.5 0 0 1 4.69 11.08 11.39 11.39 0 0 1-3.47 8.2 11.84 11.84 0 0 1-8.35 3.39 8.43 8.43 0 0 1-5.9-2.4 8.1 8.1 0 0 1-2.45-5.79c0-1.44.59-2.82 1.63-3.84a5.6 5.6 0 0 1 3.92-1.6 3.53 3.53 0 0 1 2.47 1 3.4 3.4 0 0 1 1.03 2.41 2 2 0 0 1-.62 1.45 2.08 2.08 0 0 1-1.48.58c-.76 0-1.03.4-.4 1.03a3.45 3.45 0 0 0 2.5 1.03 5.6 5.6 0 0 0 3.92-1.6 5.4 5.4 0 0 0 1.62-3.86 8.1 8.1 0 0 0-2.44-5.79 8.43 8.43 0 0 0-5.9-2.4 12 12 0 0 0-8.35 3.4 11.5 11.5 0 0 0-3.47 8.2 15.68 15.68 0 0 0 4.72 11.05 16.35 16.35 0 0 0 11.27 4.65 21.27 21.27 0 0 0 15.25-5.73 20.47 20.47 0 0 0 4.73-6.73A20.13 20.13 0 0 0 31.6 5.78 21.27 21.27 0 0 0 16.36.05V0ZM63 41.61h1.6V46h.8v-4.39H67V41h-4v.61Z"/>
    <path fill="#006636" d="M66.89 18.1 63.87 15H43.3a.3.3 0 0 0-.21.09.3.3 0 0 0-.09.22v3a.28.28 0 0 0 .09.2.27.27 0 0 0 .21.07h8.14V30a5.09 5.09 0 0 0 1.44 3.54A4.88 4.88 0 0 0 56.35 35h1.12c.07 0 .14-.03.19-.08a.28.28 0 0 0 .08-.2V18.58h9.12a.28.28 0 0 0 .14-.23.28.28 0 0 0-.11-.24ZM96.8 35h12.88a5.78 5.78 0 0 0 4.44-1.63 6.08 6.08 0 0 0 1.87-4.43 6.2 6.2 0 0 0-1.88-4.44 5.89 5.89 0 0 0-4.43-1.62H98.2v-4.3h11.13l3-3.07a.31.31 0 0 0-.04-.44.3.3 0 0 0-.16-.06H92.27a.3.3 0 0 0-.2.1.31.31 0 0 0-.07.2V30c0 1.31.5 2.57 1.4 3.5a4.8 4.8 0 0 0 3.4 1.5Zm1.4-8.57h8.7c.6.07 1.16.36 1.57.82a2.56 2.56 0 0 1 0 3.38 2.5 2.5 0 0 1-1.57.82h-7.32a1.34 1.34 0 0 1-.98-.43 1.41 1.41 0 0 1-.4-1.01v-3.58ZM69.7 41.02a2.49 2.49 0 0 0-2.68 2.84 2.5 2.5 0 0 0 3.36 1.98 2.5 2.5 0 0 0 1.6-2.32 2.23 2.23 0 0 0-2.27-2.5Zm0 4.41c-.33 0-1.4 0-1.4-1.94s1.07-1.9 1.4-1.9c.34 0 1.43 0 1.43 1.9 0 1.91-1.06 1.94-1.42 1.94Zm20.3-3.8h1.6V46h.78v-4.39H94V41h-4v.61Zm33.58 3.08v-2.15c0-1.35-1-1.55-1.67-1.55-1.48 0-1.8.93-1.8 1.55h.7c0-.96.85-.99 1.1-.99.93 0 .95.74.95.94 0 .2-.2.59-.82.64-1.69.17-2.05.65-2.05 1.47s.6 1.39 1.46 1.39c.29.02.57-.05.83-.19.25-.14.46-.36.6-.63 0 .59.37.67.78.67h.33v-.56c-.4-.03-.44-.23-.4-.6Zm-.72-.88c0 1.3-.72 1.61-1.3 1.61-.1 0-.21 0-.31-.05a.74.74 0 0 1-.26-.18.83.83 0 0 1-.18-.28.9.9 0 0 1-.05-.34c0-.76.54-.79 1.2-.9.67-.11.7 0 .93-.22l-.03.36Zm-5.8-2.12a1.53 1.53 0 0 0-1.56 1.02c0-1.1.52-1.51 1.1-1.66.6-.15 1.98 0 2.03-1.06h-.58c0 .37-.42.17-1.5.42-1.07.25-1.56.72-1.56 2.84 0 .79 0 2.74 2 2.74a1.91 1.91 0 0 0 1.89-1.31c.09-.26.12-.54.1-.81a1.94 1.94 0 0 0-1.12-2.01 1.9 1.9 0 0 0-.8-.17Zm0 3.8c-1.04 0-1.26-.96-1.26-1.57 0-.62.14-1.73 1.27-1.73 1.12 0 1.25 1.1 1.25 1.75 0 .64-.52 1.63-1.33 1.63l.08-.07Zm14.55-2.17 2.26-2.33h-1l-2.06 2.18V41H130v5h.82v-2.48L133 46h1l-2.38-2.67Zm-3.46-.27h-2.35V41h-.8v5h.8v-2.33h2.35V46h.84v-5h-.84v2.06Zm-16.66 2.02L110.03 41H109v5h.74v-4.02L111.2 46h.58l1.45-4.02h.02l-.02.28V46h.76v-5h-1.03l-1.47 4.08ZM86 41.61h1.6V46h.8v-4.39H90V41h-4v.61ZM104.58 45v-4H104v5h.66l1.75-3.99V46h.6v-5h-.67l-1.76 3.99Zm-8.98 0v-4H95v5h.66l1.75-3.99V46h.6v-5h-.67l-1.74 3.99Zm-13.47-2.42c-.01.36.08.72.25 1 .16.27.4.44.66.47L82 46h.67l.93-1.96h.8V46h.6v-5h-1.75a.76.76 0 0 0-.44.09.96.96 0 0 0-.37.33c-.1.15-.2.33-.24.53-.06.2-.08.4-.07.62Zm2.33-.95v1.8h-.86c-.7 0-.84-.48-.84-.88 0-.92.58-.92.82-.92h.88Zm18.41-.62h-.8L101 42.84 99.92 41h-.82l1.5 2.4L99 46h.8l1.2-2.06 1.18 2.06h.82l-1.59-2.6 1.46-2.4Z"/>
</svg>