<svg xmlns="http://www.w3.org/2000/svg" width="40" height="41" fill="none"><path fill="#006636" d="M17.4 0A20 20 0 0 0 1.7 7.3c-.5.6 0 1 .7.7 2.8-1.3 5.9-2 8.9-1.9a15.6 15.6 0 0 1 15.6 15.3 11.5 11.5 0 0 1-11.5 11.4 8 8 0 0 1-8.2-7.9 5.5 5.5 0 0 1 5.4-5.4l1.3.2 1.1.7c.3.3.6.7.7 1.1.2.4.3.8.3 1.3l-.2.8-.4.6-.7.4-.8.1c-.7 0-1 .4-.4 1 .3.3.7.6 1.1.7.4.2.9.3 1.3.3a5.5 5.5 0 0 0 5.4-5.4 8 8 0 0 0-8.2-7.9A11.4 11.4 0 0 0 1.6 24.7 15.6 15.6 0 0 0 17.2 40a20.6 20.6 0 0 0 19.5-12.2c1.1-2.5 1.6-5.1 1.6-7.8A20.2 20.2 0 0 0 17.4 0s0 .1 0 0Z"/></svg>
