<svg xmlns="http://www.w3.org/2000/svg" width="40" height="40" fill="none">
    <path fill="#fff" d="m39.47 18.7.53-1.65-1.72.05c-.8-.03-1.58-.3-2.23-.78h.23c1.05 0 2-.6 2.47-1.54l.76-1.61c-.6 0-1.19-.03-1.78-.1a2.77 2.77 0 0 1-1.44-.88 2.73 2.73 0 0 0-2.84-.73l.1-.4a3.67 3.67 0 0 0-.75-2.7l-1.3-1.6-.8 1.87c-.14.26-.33.5-.58.66a3.48 3.48 0 0 0-.94-1.76 4.25 4.25 0 0 0-3.69-1.24l-1.56.3c.13-.52.35-1.02.63-1.48l.86-1.34-2.16.2-.7-1.48-1.33.73L20 2l-1.23 1.22-1.34-.7-.69 1.46-2.16-.25.86 1.34c.28.46.5.96.63 1.48l-1.48-.29h-.05a4.4 4.4 0 0 0-3.7 1.24 3.48 3.48 0 0 0-.96 1.8 1.69 1.69 0 0 1-.56-.65l-.8-1.9L7.2 8.38a3.7 3.7 0 0 0-.74 2.69l.1.4a2.73 2.73 0 0 0-2.84.73 2.8 2.8 0 0 1-1.43.87c-.6.1-1.2.13-1.8.1l.74 1.64a2.77 2.77 0 0 0 2.47 1.55h.23c-.64.46-1.4.74-2.2.77L0 17.05l.53 1.66a3.46 3.46 0 0 0 2.86 2.42 2.77 2.77 0 0 1-1.48 2.03l-1.32.53.7 1.24c.6.92 1.6 1.46 2.69 1.45a4 4 0 0 0 .84-.09c.07.3.16.6.26.9.24.65.26 1.36.05 2.02l-.65 1.35 1.44.38a3.92 3.92 0 0 0 1.69.04c.17-.04.34-.09.5-.15.18.33.4.64.67.9a5.18 5.18 0 0 0 3.88 1.43h1.18l-2.44 1.01 1.85.92c.75.36 1.5.7 2.28.98l-.22.65.64.29c1.05.41 2.17.64 3.3.68h1.53a9.95 9.95 0 0 0 3.3-.69l.61-.28-.22-.65c.79-.3 1.56-.64 2.31-1.02l1.81-.88-2.43-.98h1.19c1.65 0 2.96-.5 3.87-1.43.27-.27.5-.57.68-.9a3.37 3.37 0 0 0 2.18.1l1.45-.38-.63-1.32a3 3 0 0 1 .02-2.07c.1-.3.2-.61.26-.92a4 4 0 0 0 .84.09c1.1.01 2.11-.55 2.7-1.48l.7-1.23-1.31-.53a2.75 2.75 0 0 1-1.48-2.02 3.46 3.46 0 0 0 2.86-2.43l-.02.04Z"/>
    <path fill="#FCE527" d="M25.94 23.95H14.08v4.45c0 1.82 1.32 2.96 3.27 2.96 1.63 0 2.06.06 2.66.66.39-.4.92-.64 1.49-.63v-.07l.37-1.15-.64-.7c-.25.08-.52.11-.79.1-.4 0-.8-.05-1.18-.13h-.12c-.06 0-.06 0-.07.03l-.08.13-.13.22-.26-.06-1.14-.27-.16.26v.03l.14.15-.06.2c-.1.24-.25.46-.44.65l-.28.3-.26-.32-.2-.25a.99.99 0 0 1-.14-.94l-.32.13-.14-.32-.08-.22c-.2-.47-.05-1.01.36-1.3l.92-.5.87.17c0-.08.06-.38.08-.46h-.05l-.49.19-.5-.34a.26.26 0 0 1 0-.36l.48-.71-1.2-1.48 1.79.7.12-.15.25-.3.28.27a.6.6 0 0 1 .15.27c.5.2 1.4.77 1.48 1.7l-.28.12c.03.05.08.1.13.12l1.3.13.12-.04c.23-.08.46-.13.7-.13.24 0 .47.05.68.16a.8.8 0 0 1 .3-.06h.06c.7 0 1.05.52 1.33.93l.14.21.58.87.14.22-.18.21a.86.86 0 0 1-.69.34h-.24a1.12 1.12 0 0 1-.2-.06c0 .07 0 .15-.04.22l-.2 1.16a2.8 2.8 0 0 0 2.23-2.84v-4.47Zm-11.87-.36h9.23a1.5 1.5 0 0 1-.34-1.48 1.6 1.6 0 0 1-.34-.23l-1.75 1.27-.06.04-3.62-.64h-.43a.35.35 0 0 1-.35.28h-.05a.36.36 0 0 1-.3-.41v-.08c-.47-.34-.7-.92-.57-1.49v-.06l.06-.04s.06-.05.16-.1l-.26-.04a.18.18 0 0 1-.15-.21c.01-.1.1-.16.2-.15l.63.1.06-2.2.94-1 .58 1.23-.61 2.12.55.1c.1.01.16.1.15.2a.18.18 0 0 1-.18.15h-.03l-.45-.08v.04c.05.09.12.16.22.2l2.76.05.7-.7a1.48 1.48 0 0 1-.98-1.23 1.44 1.44 0 0 1-.79-.72 1.48 1.48 0 0 1-.06-.99 3.26 3.26 0 0 1-1.15-.77h-4.1c.2.48.3 1 .33 1.52v5.32Z"/>
    <path fill="#222220" d="M17.86 25.9c-.06 0-.12.04-.12.1 0 .06.04.12.1.13h.01c.07 0 .12-.06.12-.12 0-.07-.05-.12-.11-.12Zm-.01-.01h.02-.02Zm8.07 8.1-.68-.27.19-.7.2-.77a15.94 15.94 0 0 1-3.76 1.35v.5c-.61.1-1.22.15-1.84.16h-.05c-.62 0-1.23-.06-1.84-.16v-.5s-.36-.06-.86-.2c-1-.29-1.98-.67-2.91-1.15l.2.77.19.7-.69.27-.74.28c1.02.52 2.08.96 3.18 1.31l-.26.71c1.19.46 2.46.68 3.74.65H20c1.28.03 2.55-.2 3.74-.65l-.25-.71c1.09-.35 2.15-.79 3.17-1.31l-.75-.29Zm-11.76.32 1.1-.37-.33-1.09c.73.36 1.48.67 2.26.9l-.55 1.48a13.9 13.9 0 0 1-2.48-.92Zm5.87 2.28-.03-.02a12.4 12.4 0 0 1-3.21-.44l.67-1.8c.83.2 1.68.31 2.54.32h.05a11 11 0 0 0 2.55-.33l.66 1.8c-1.05.3-2.14.46-3.23.47Zm3.37-1.33v-.01l-.55-1.48a15.2 15.2 0 0 0 2.26-.9l-.33 1.09 1.12.37c-.8.4-1.64.7-2.5.93ZM20 5.8c1.12-.03 2.21.3 3.12.95.14-.73.42-1.43.8-2.07l-1.12.13-.58-1.25-1.13.58L20 3.06l-1.1 1.08-1.12-.58-.59 1.25-1.12-.13c.4.64.67 1.34.8 2.07A5.16 5.16 0 0 1 20 5.8Zm-2.85-.56.3.04.14-.28.39-.84.73.37.28.15.22-.21.79-.8.79.8.22.22.28-.14.72-.38.4.84.13.28.31-.03.3-.04a7.1 7.1 0 0 0-.3.84 6.24 6.24 0 0 0-5.69 0 7.1 7.1 0 0 0-.3-.84l.29.02ZM34.65 16l-.14-.16c-.91-1.17-1.79-2.28-3.35-2.8l.2-.14a2.94 2.94 0 0 0 1.43-1.98 2.93 2.93 0 0 0-.6-2.11l-.49-.62-.3.74c0 .04-.56 1.22-1.66 1.22h-.33a2.69 2.69 0 0 0-.77-2.1 3.53 3.53 0 0 0-3.06-1l-.76.14.47.62c.36.5.7 1.35.3 1.8-.18.17-.4.3-.63.38-.5.24-1.2.57-1.2 1.4 0 .54.42 1.1 1.17 1.58 2.23 1.41 3.6 2.87 4.2 4.5.93 2.5-.28 3.93-1.45 4.68l-.52.33.46.42c.41.35.91.57 1.45.63h.45c.46 0 .91-.07 1.35-.2A3.3 3.3 0 0 1 27.81 25h-.44l-.03.44a2.08 2.08 0 0 0 1.14 1.86 3.85 3.85 0 0 0-1.16 2.71c0 .56-.12 1.11-.37 1.61l-.5.75h.89c1.45 0 2.56-.4 3.33-1.2.4-.42.7-.93.87-1.48a2.33 2.33 0 0 0 1.52.55c.26 0 .53-.03.79-.1l.56-.14-.25-.52a3.72 3.72 0 0 1 0-2.6c.19-.54.31-1.1.38-1.68.45.23.94.35 1.44.34.82.01 1.59-.4 2.03-1.08l.27-.5-.5-.2c-1.65-.69-2.01-2.54-2.09-3.53.17.03.33.05.5.06l.14.09c1.8 0 2.4-1.83 2.42-1.91l.2-.65h-.67A4.82 4.82 0 0 1 34.65 16Zm1.68 3.9h-.07c-.36 0-.71-.1-1.02-.28 0 0-.26 3.57 2.4 4.68v.01c-.35.53-.95.85-1.6.84a2.24 2.24 0 0 1-1.86-.82 7 7 0 0 1-.4 2.47 4.2 4.2 0 0 0 0 2.96c-.23.06-.45.09-.68.09a1.95 1.95 0 0 1-1.8-1.33s.1 3.43-3.9 3.43h-.03c.3-.58.46-1.21.46-1.86.17-2.53 1.89-2.9 1.89-2.9a3.02 3.02 0 0 1-1.32-.49c-.36-.3-.57-.74-.58-1.21a3.86 3.86 0 0 0 3.91-3.14c-.63.48-1.42.72-2.21.69h-.4a2.14 2.14 0 0 1-1.18-.5c1.52-.98 2.59-2.67 1.65-5.24-.77-2.05-2.59-3.59-4.42-4.74-.6-.38-.97-.8-.97-1.17 0-.86 1.22-.88 1.72-1.48.58-.67.22-1.76-.29-2.4a3 3 0 0 1 2.63.88c.58.54.8 1.38.58 2.15l.27.05c.16.03.33.05.5.05h.1c1.45 0 2.1-1.51 2.1-1.51s1.54 1.9-.72 3.37c-.4.26-.57.5-.5.74l.04.17.16.03c1.64.44 2.47 1.58 3.5 2.87a5.32 5.32 0 0 0 3.99 2.02h.03s-.5 1.57-1.98 1.57Z"/>
    <path fill="#222220" d="M33.16 13.26c.55.32 1.03.74 1.4 1.26.29.43.69.78 1.16.99a2.02 2.02 0 0 0 2.35-1.01l.29-.65-.7-.04a3.33 3.33 0 0 1-1.92-1.1c-.37-.4-.9-.63-1.44-.64-.42 0-.83.14-1.19.36l-.64.45.69.38Zm1.16-.7h-.02c.42 0 .82.18 1.1.5.58.65 1.37 1.1 2.23 1.24-.26.5-.78.8-1.35.81a1.3 1.3 0 0 1-.4-.07c-.8-.27-1.09-1.48-2.48-2.21.27-.18.59-.27.92-.28Zm-.83 7.06h-.01c-.4-3.26-2.77-5.62-5.4-7.05a12.9 12.9 0 0 0-.7-.34 3.8 3.8 0 0 0 3.1-.73s-1.53 1.12-4.65.1c.87.57 2.55 1.36 4.08 2.64 3.83 3.37 1.1 6.66 1.1 6.66a4.03 4.03 0 0 0 1.02-4.24 7.88 7.88 0 0 1 1.12 4.48c-.1 2.59-1.55 4.85-3.03 6.65a4.44 4.44 0 0 0-.88 1.95 6.2 6.2 0 0 1 1.13-1.92c1.6-1.88 2.96-3.84 3.16-6.64.16.49.85 1.93 1.93 2.46 0 0-1.36-.82-1.97-4.02ZM13.04 31.67a3.88 3.88 0 0 1-.37-1.62 3.8 3.8 0 0 0-1.16-2.7 2.08 2.08 0 0 0 1.15-1.87l-.04-.44h-.44a3.31 3.31 0 0 1-3.06-1.69c.44.14.9.2 1.35.2h.45a2.65 2.65 0 0 0 1.46-.62l.46-.42-.52-.34c-1.18-.75-2.38-2.17-1.46-4.67.6-1.62 1.98-3.09 4.23-4.5.75-.5 1.17-1.04 1.17-1.58 0-.83-.7-1.16-1.2-1.4a2.12 2.12 0 0 1-.64-.38c-.4-.45-.06-1.33.3-1.8l.5-.62-.76-.15a3.5 3.5 0 0 0-3.1.98 2.69 2.69 0 0 0-.8 2.1h-.3c-1.1 0-1.63-1.18-1.65-1.23l-.3-.73-.5.61c-.46.6-.67 1.36-.59 2.12.17.83.69 1.55 1.43 1.97l.2.15c-1.57.5-2.44 1.62-3.36 2.8l-.13.16a4.83 4.83 0 0 1-3.64 1.84h-.67l.2.65c0 .08.63 1.91 2.43 1.91h.09c.17 0 .33-.02.5-.06-.08.99-.45 2.85-2.1 3.53l-.5.2.27.5c.45.69 1.21 1.1 2.03 1.08.5 0 .99-.1 1.43-.33.07.57.2 1.13.38 1.68.31.83.31 1.76 0 2.59l-.24.52.56.15c.26.06.52.1.79.1a2.37 2.37 0 0 0 1.51-.56c.18.56.47 1.06.87 1.48.78.8 1.89 1.2 3.34 1.2h.88l-.45-.81Zm-.42.28c-4 0-3.9-3.43-3.9-3.43a1.95 1.95 0 0 1-1.8 1.33c-.23 0-.46-.03-.67-.09a4.2 4.2 0 0 0 0-2.96 7 7 0 0 1-.4-2.47c-.46.56-1.15.86-1.87.82h-.03a1.88 1.88 0 0 1-1.6-.84c2.67-1.11 2.4-4.68 2.4-4.68-.3.19-.66.29-1.02.28h-.05c-1.48 0-1.98-1.57-1.98-1.57h.03a5.3 5.3 0 0 0 4-2.02c1.02-1.29 1.85-2.42 3.5-2.87l.16-.03.03-.16c.05-.25-.13-.5-.5-.74-2.26-1.48-.72-3.38-.72-3.38s.64 1.52 2.1 1.52h.07c.17 0 .33-.02.5-.05l.26-.06c-.23-.77 0-1.6.58-2.16a3 3 0 0 1 2.63-.87c-.5.65-.86 1.74-.28 2.4.5.58 1.72.6 1.72 1.49 0 .36-.34.79-.95 1.17-1.84 1.15-3.66 2.69-4.42 4.74-.94 2.57.13 4.27 1.65 5.24a2.2 2.2 0 0 1-1.17.5h-.41c-.8.03-1.58-.21-2.22-.69a3.8 3.8 0 0 0 3.91 3.14c0 .47-.21.91-.58 1.21-.39.27-.84.44-1.31.5 0 0 1.72.35 1.9 2.89 0 .65.16 1.28.46 1.86l-.02-.02Z"/>
    <path fill="#222220" d="M3.71 15.59c.2 0 .39-.03.57-.09.47-.2.87-.55 1.15-.99.37-.51.85-.94 1.4-1.26l.7-.37-.65-.45a2.25 2.25 0 0 0-1.18-.36c-.55 0-1.07.24-1.44.65-.5.57-1.17.96-1.92 1.1l-.7.03.29.64c.34.68 1.03 1.1 1.78 1.1Zm.9-2.54c.27-.3.66-.5 1.08-.5.32.01.64.11.91.28-1.4.75-1.69 1.95-2.47 2.22-.12.04-.26.07-.4.07-.57 0-1.1-.32-1.36-.82a3.78 3.78 0 0 0 2.23-1.25Zm2.25 8.11a7.84 7.84 0 0 1 1.12-4.48A4.03 4.03 0 0 0 9 20.92s-2.75-3.29 1.09-6.66c1.53-1.28 3.2-2.07 4.07-2.64-3.12 1.02-4.64-.1-4.64-.1.87.68 2 .95 3.08.73l-.68.34c-2.64 1.43-5.02 3.79-5.4 7.05v-.03c-.62 3.2-1.98 4.02-1.98 4.02 1.08-.53 1.77-1.97 1.93-2.46.18 2.81 1.55 4.76 3.16 6.64.49.56.87 1.21 1.13 1.92a4.42 4.42 0 0 0-.9-1.94c-1.47-1.8-2.9-4.06-3.01-6.63Zm12.24-5.95a.8.8 0 0 1 .65-.21v.93c0 .23-.06.46-.17.66h.93a1.4 1.4 0 0 1-.18-.66V15a.8.8 0 0 1 .65.21v-.64H19.1v.64Zm-.4-4.47c.14.12.3.22.49.28l.12.05v-.61L18.2 10c.06.3.23.57.5.74Zm2.6 0c.27-.17.44-.43.5-.74l-1.1.46v.6l.11-.05c.19-.06.36-.16.5-.28Z"/>
    <path fill="#222220" d="M23.27 8.26c0-.93-1.55-1.76-3.27-1.76-1.7 0-3.26.83-3.26 1.76l.03.22.69 3.95-.69.4-1.8 1.02s-.4.2-.58.33c-.68.5-.82 1.16-.43 1.44.1-.67.69-1.16 1.37-1.14.57.01 1.1.3 1.42.77.1.12.18.25.26.37.1.17.21.32.31.46h-4.57c.39.67.6 1.41.66 2.18V28.4c0 2.47 1.89 3.63 3.95 3.63 1.58 0 1.8-.07 2.66.8.87-.87 1.08-.8 2.66-.8 2.05 0 3.95-1.17 3.95-3.63V18.27c.05-.77.27-1.51.66-2.18h-4.62l.3-.46c.1-.12.18-.25.27-.37a1.8 1.8 0 0 1 1.43-.77c.68-.02 1.27.47 1.36 1.14.4-.28.26-.98-.43-1.44a6.56 6.56 0 0 0-.58-.33l-1.78-1.04-.68-.4.68-3.96.03-.2Zm-5.87.45 2.4.82v3.78l-1.77-.94-.63-3.66Zm-3.66 8.04h4.15c.32.34.72.6 1.15.77-.1.33-.07.68.07.99.15.33.44.59.78.72.07.57.45 1.04.99 1.23l-.7.7-2.77-.05a.48.48 0 0 1-.22-.2v-.04l.45.08h.03c.1 0 .17-.06.18-.15a.18.18 0 0 0-.15-.2l-.55-.1.61-2.12-.58-1.22-.93.98-.06 2.21-.63-.1a.18.18 0 0 0-.2.15c-.02.1.04.19.14.2l.26.05c-.1.05-.16.1-.16.1l-.05.04v.06c-.13.57.1 1.15.56 1.49v.07c-.03.2.1.38.3.41h.06c.16 0 .3-.1.34-.27h.42l3.62.66.06-.04c.29-.2 1.4-1 1.75-1.27.1.09.22.16.35.22a1.5 1.5 0 0 0 .33 1.49h-9.27v-5.34a4.46 4.46 0 0 0-.33-1.52Zm8.61 4.88-1.63 1.19-3.29-.57v-.1c.06-.21.09-.44.1-.67l2.76.05.05-.06c.05-.04.92-.89 1.36-1.38.12.15.26.28.42.37-.08.4 0 .83.23 1.17Zm-5.49-.59v.02c.08.14.19.25.32.33 0 .2-.02.4-.06.6 0 .04 0 .09-.03.13v.07c-.23 0-.45-.03-.67-.1-.4-.21-.62-.65-.55-1.1.17-.12.38-.2.59-.22.18 0 .34.1.4.27Zm-.34-.65.06-2.1.5-.49.3.63-.6 2.03-.26-.07Zm5.8 11h-.47l.37-1.21c.06-.17-.24-.39-.37-.58.3.18.6.35.93.5l-.45 1.29Zm1.27-1.36-.03-.03-.26 1.33c-.16 0-.34.04-.5.05l.28-1.29c.08-.38-.95-.49-1.45-1.25a1.6 1.6 0 0 1-1.18.37 6.73 6.73 0 0 1-1.11-.12h-.2a.41.41 0 0 0-.37.2l-.08.12-1.4-.34-.34.58a.2.2 0 0 0 .02.26l.1.1c-.1.19-.22.36-.36.5l-.2-.26a.75.75 0 0 1 .03-.83l.55-.93 1.18.18-.18-.42c-.25-.56.13-1.26.17-1.67 0 .13-.13.15-.26.15h-.42l-.32.2-.25-.24a.18.18 0 0 1 .03-.22l.58-.65-.69-.8 1 .49.29-.36c.08.08.04.29.04.29.72.17 1.22.83 1.2 1.57v.14c.1.16.25.27.43.31l1.34.14c.27-.09.54-.14.81-.18.24 0 .48.08.68.2.09-.06.2-.1.32-.1h.04c.6 0 .85.54 1.17.98.24.34.57.86.57.86a.5.5 0 0 1-.42.22h-.17c-.64-.12-.73-1.44-1.1-1.55h-.06a.2.2 0 0 0-.17.1c.17.46.07.64.26 1 .13.2.3.4.49.56l-.06.34Zm-7.19-1.29h-.01l.06.15c-.04.14-.5.33-.5.33l-.1-.22a.73.73 0 0 1 .24-.87l.75-.45.8.17c-.01.16.04.3.13.44l-.83-.16-.5.34a.21.21 0 0 0-.04.27Zm9.55-.32a2.79 2.79 0 0 1-2.25 2.84l.23-1.2c0-.06.03-.14.04-.21.06.03.13.05.2.06h.24c.27 0 .53-.12.7-.34l.17-.2-.15-.2s-.33-.53-.58-.88l-.14-.2c-.27-.42-.62-.94-1.32-.94h-.06a.8.8 0 0 0-.3.06c-.21-.1-.44-.16-.68-.16-.24 0-.47.05-.7.13l-.12.04-1.3-.13a.33.33 0 0 1-.13-.12l.28-.11c-.08-.94-.99-1.52-1.48-1.71a.55.55 0 0 0-.15-.27l-.28-.27-.25.3-.12.15-1.83-.75 1.19 1.48-.47.7c-.1.1-.1.27 0 .37l.5.34.49-.19h.05c0 .08-.06.38-.08.46l-.86-.15-.92.5c-.42.3-.57.87-.35 1.34l.1.22.15.32.32-.13a.99.99 0 0 0 .14.94l.19.25.26.33.28-.31c.2-.19.34-.4.44-.65l.06-.2-.14-.15v-.03l.16-.25 1.14.26.26.06.14-.22.07-.13c0-.02 0-.03.07-.03h.12c.4.08.79.12 1.18.13.27.01.54-.02.8-.1l.63.72-.38 1.16v.07c-.56-.01-1.1.22-1.48.63-.6-.6-1.04-.67-2.66-.67-1.95 0-3.27-1.14-3.27-2.96v-4.44h11.85v4.44Zm.32-11.67c-.2.48-.31 1-.33 1.52v3.33a1 1 0 0 1-.78-.9v-.16h-.15c-.25-.02-.5-.13-.67-.32a1.4 1.4 0 0 1-.34-.9 1 1 0 0 0 .05 1.12c.2.24.48.4.78.44a1.3 1.3 0 0 0 1.13 1.1v1.63h-2.08a1.15 1.15 0 0 1-.53-1.49l.08-.17-.18-.07c-.6-.21-.92-.85-.73-1.45l.04-.15-.14-.06c-.52-.3-.8-.9-.72-1.48a.91.91 0 0 0-.17 1.04l-.37.4c-.52-.12-.9-.57-.91-1.1v-.12l-.12-.04c-.3-.09-.54-.3-.69-.57-.1-.23-.11-.49-.05-.73a3.05 3.05 0 0 0 .6.05c.8 0 1.56-.35 2.1-.94l4.18.02Zm-3.2-3.37.81.5.2.12c-.42.1-.8.34-1.1.65l-.03.03-.2.23-.04.05a2.3 2.3 0 0 0-.18.25l-.03.04-.2.32a2.9 2.9 0 0 1-2.31 1.6c-1-.1-1.87-.7-2.32-1.6l-.19-.32-.04-.05-.16-.26-.04-.05a4.49 4.49 0 0 0-.2-.22l-.03-.04c-.3-.31-.68-.54-1.1-.65l.2-.12.82-.5.84-.5 2.22 1.22 2.23-1.17.85.47Zm-1.1-.98-1.77.93v-3.8l2.4-.81-.62 3.68ZM20 9.13l-2.64-1.06c.23-.53 1.26-.98 2.64-.98 1.38 0 2.41.45 2.64.98L20 9.13Z"/>
</svg>