<svg xmlns="http://www.w3.org/2000/svg" width="180" height="44" fill="none">
    <path fill="#fff" d="m48.12 20.37.64-2.03-2.1.07a4.9 4.9 0 0 1-2.71-.95h.28c1.28 0 2.44-.74 3.01-1.88l.92-1.97c-.72 0-1.44-.03-2.16-.13a3.38 3.38 0 0 1-1.76-1.06 3.32 3.32 0 0 0-3.47-.89c.05-.16.1-.32.13-.49a4.47 4.47 0 0 0-.92-3.3L38.39 5.8l-.97 2.29c-.16.32-.4.6-.7.81a4.25 4.25 0 0 0-1.15-2.15 5.19 5.19 0 0 0-4.5-1.51l-1.9.37a6.7 6.7 0 0 1 .77-1.8L31 2.15l-2.63.25L27.5.6l-1.62.88L24.39 0l-1.51 1.49-1.63-.85-.84 1.77-2.64-.3 1.05 1.63c.35.56.6 1.17.77 1.81l-1.8-.35h-.07a5.36 5.36 0 0 0-4.51 1.5c-.6.6-1 1.36-1.17 2.2-.29-.2-.52-.48-.68-.8l-.98-2.3-1.6 1.96a4.52 4.52 0 0 0-.9 3.28c.03.17.07.33.12.5a3.32 3.32 0 0 0-3.46.88 3.4 3.4 0 0 1-1.75 1.06c-.72.11-1.45.16-2.19.13l.9 2a3.38 3.38 0 0 0 3.01 1.88h.28c-.78.57-1.71.9-2.68.94L0 18.34l.64 2.03a4.22 4.22 0 0 0 3.49 2.95 3.35 3.35 0 0 1-1.8 2.47l-1.62.66.86 1.5a3.84 3.84 0 0 0 3.27 1.77c.35 0 .69-.04 1.03-.1.08.36.19.73.31 1.08.3.8.32 1.66.06 2.47l-.78 1.64 1.75.47a4.78 4.78 0 0 0 2.06.05c.2-.05.4-.1.6-.18.22.4.5.77.82 1.1C11.82 37.4 13.41 38 15.43 38h1.44l-2.97 1.23 2.25 1.11c.91.45 1.84.85 2.78 1.2l-.27.8.78.35c1.29.5 2.65.78 4.04.83h1.85c1.38-.05 2.74-.33 4.02-.84l.75-.35-.26-.78a30 30 0 0 0 2.8-1.25l2.22-1.07-2.96-1.2h1.44c2.02 0 3.61-.6 4.73-1.74.32-.33.6-.7.82-1.1a4.1 4.1 0 0 0 2.66.13l1.76-.47-.77-1.6a3.69 3.69 0 0 1 .03-2.54c.13-.36.23-.74.32-1.11.34.07.68.1 1.03.1a3.82 3.82 0 0 0 3.27-1.8l.86-1.5-1.6-.64a3.35 3.35 0 0 1-1.8-2.47 4.22 4.22 0 0 0 3.5-2.96l-.03.05Z"/>
    <path fill="#FCE527" d="M31.62 26.76H17.17v5.42c0 2.22 1.6 3.6 3.99 3.6 1.98 0 2.5.09 3.24.82a2.4 2.4 0 0 1 1.8-.77v-.08l.46-1.41-.77-.85c-.32.1-.64.13-.97.11-.48 0-.97-.05-1.44-.15h-.15c-.07 0-.07 0-.09.04l-.09.15-.16.27-.31-.07-1.4-.33-.18.32v.03l.16.19-.07.24c-.12.3-.3.56-.53.79l-.35.37-.32-.4-.24-.3a1.2 1.2 0 0 1-.17-1.15l-.39.17-.17-.39-.1-.27a1.32 1.32 0 0 1 .44-1.6l1.12-.6 1.07.21c0-.1.06-.47.1-.56h-.07l-.6.23-.6-.4a.31.31 0 0 1 0-.45l.57-.87-1.45-1.8 2.17.85.15-.18.3-.36.35.32c.09.1.15.2.18.33.6.24 1.71.94 1.8 2.09l-.34.13c.04.07.1.11.16.14l1.6.16.14-.04c.27-.1.56-.16.85-.16.29 0 .57.06.83.19.11-.04.24-.07.36-.07h.08c.85 0 1.27.63 1.61 1.14l.17.25c.3.42.7 1.04.7 1.06l.18.27-.21.26c-.2.26-.51.41-.85.41h-.28a1.35 1.35 0 0 1-.26-.08c0 .09 0 .19-.05.27l-.24 1.42a3.4 3.4 0 0 0 2.72-3.47v-5.44Zm-14.47-.44H28.4a1.81 1.81 0 0 1-.4-1.8c-.16-.08-.3-.18-.43-.28l-2.13 1.54-.07.05-4.42-.78h-.52a.42.42 0 0 1-.42.34h-.07a.44.44 0 0 1-.36-.5v-.1a1.76 1.76 0 0 1-.7-1.8v-.08l.07-.05.2-.13-.32-.05a.22.22 0 0 1-.18-.25c.02-.12.13-.2.25-.18l.77.12.07-2.7 1.14-1.2.7 1.5-.74 2.59.68.1c.12.03.2.14.18.26a.23.23 0 0 1-.22.18h-.04l-.54-.1v.05c.06.1.15.2.26.25l3.37.05.86-.85a1.8 1.8 0 0 1-1.2-1.5 1.76 1.76 0 0 1-.96-.88 1.8 1.8 0 0 1-.08-1.2 3.97 3.97 0 0 1-1.4-.94h-5c.24.6.38 1.22.4 1.85v6.49Z"/>
    <path fill="#222220" d="M55.99 21.67h4.96v8.43h3.61v-8.43h4.96v-3.06H56v3.06Zm18.3 3.61v-6.62h-3.5V30.1h3.09l6.02-6.7v6.7h3.5V18.61h-3.1l-6.01 6.67Zm20.73-2.4H89.4v-4.22h-3.49V30.1h3.5v-4.29H95v4.3h3.5V18.65H95v4.22Zm15.67-.9a7.48 7.48 0 0 0-2.56-.3h-3.6v-3.02h-3.5V30.1l7.08-.05c.74.01 1.47-.07 2.2-.26a3.95 3.95 0 0 0 3-3.98c.07-1.71-1-3.28-2.62-3.82Zm-1.79 5.18c-.44.15-.9.21-1.37.17h-3v-2.91h3c.45-.03.91.02 1.35.14.55.16.93.68.92 1.25 0 .6-.35 1.13-.9 1.35Zm19.04-8.5h-4.38l-4.22 4.31h-.96v-4.3h-3.5V30.1h3.5v-4.33h.96l4.17 4.33h4.65l-5.8-6.02 5.58-5.42Z"/>
    <path fill="#222220" d="M135.45 18.3c-4.72 0-7.53 2.65-7.53 6.07 0 3.42 2.84 6.07 7.5 6.07 4.68 0 7.5-2.65 7.5-6.07 0-3.42-2.75-6.07-7.47-6.07Zm-.02 9.34c-2.34 0-3.83-1.4-3.83-3.27 0-1.88 1.52-3.25 3.83-3.25s3.83 1.37 3.83 3.25-1.5 3.27-3.83 3.27Zm19-8.52v-1.16h-3.5v1.16c-4.38.1-7 1.95-7 5.22 0 3.28 2.62 4.99 7 5.09v1.15h3.5v-1.15c4.4-.1 7.02-1.81 7.02-5.09 0-3.27-2.62-5.12-7.03-5.22Zm-3.5 7.85c-2.4-.1-3.47-1.08-3.47-2.63 0-1.54 1.06-2.64 3.47-2.74v5.37Zm3.5 0V21.6c2.42.1 3.46 1.2 3.46 2.74 0 1.55-1.03 2.53-3.47 2.63Zm18.54-7.85v-1.16h-3.5v1.16c-4.38.1-7 1.95-7 5.22 0 3.28 2.63 4.99 7 5.09v1.15h3.5v-1.15c4.4-.1 7.03-1.81 7.03-5.09 0-3.27-2.62-5.12-7.03-5.22Zm-3.5 7.85c-2.4-.1-3.46-1.08-3.46-2.63 0-1.54 1.06-2.64 3.47-2.74v5.37Zm6.96-2.63c0 1.55-1.03 2.53-3.46 2.63V21.6c2.43.1 3.47 1.2 3.47 2.74ZM21.77 29.12c-.07 0-.14.06-.14.13-.01.09.05.16.13.16.09 0 .15-.06.15-.14 0-.09-.06-.15-.14-.15Zm0 0h.01-.02Zm9.83 9.87-.83-.32.23-.86.25-.94a19.43 19.43 0 0 1-3.56 1.4c-.6.17-1.03.25-1.03.25v.61c-.74.12-1.49.19-2.24.2h-.07c-.75-.01-1.5-.08-2.24-.2v-.6s-.44-.09-1.04-.25a19.44 19.44 0 0 1-3.56-1.4l.25.93.23.86-.83.32-.9.34c1.24.65 2.53 1.18 3.87 1.6l-.32.87a12 12 0 0 0 4.55.8h.04c1.55.03 3.1-.24 4.56-.8l-.32-.86c1.33-.43 2.63-.96 3.87-1.6l-.91-.35Zm-14.34.4 1.35-.45-.4-1.33a18 18 0 0 0 2.74 1.1l-.66 1.8a16.94 16.94 0 0 1-3.03-1.12Zm7.16 2.77-.03-.02c-1.33 0-2.64-.19-3.92-.54l.81-2.2c1.01.25 2.05.4 3.1.4h.07c1.05-.01 2.09-.15 3.1-.4l.81 2.2a14.6 14.6 0 0 1-3.94.56Zm4.1-1.6v-.03l-.66-1.8a18 18 0 0 0 2.75-1.1l-.4 1.33 1.36.45c-.98.48-2 .86-3.05 1.14ZM24.38 4.62c1.36-.04 2.7.37 3.8 1.16a7.7 7.7 0 0 1 .99-2.52l-1.37.16-.7-1.53-1.39.71-1.33-1.32-1.33 1.32-1.38-.7-.7 1.52-1.37-.16c.47.78.8 1.63.98 2.52a6.28 6.28 0 0 1 3.8-1.16Zm-3.48-.68.38.05.16-.35.48-1.02.88.46.35.17.27-.25.96-.97.96.97.28.27.34-.17.88-.46.48 1.02.16.35.38-.05.36-.04c-.14.33-.27.67-.37 1.02a7.6 7.6 0 0 0-6.93 0c-.1-.35-.23-.69-.37-1.02l.35.02Zm21.34 13.1-.16-.2c-1.12-1.42-2.19-2.78-4.1-3.4l.25-.18c.9-.5 1.54-1.39 1.74-2.4.1-.93-.15-1.85-.72-2.58l-.6-.75-.38.9c0 .05-.67 1.49-2.02 1.49h-.4a3.28 3.28 0 0 0-.93-2.56 4.3 4.3 0 0 0-3.74-1.24l-.92.18.57.76c.45.6.85 1.64.37 2.2-.23.2-.48.36-.77.46-.6.29-1.47.69-1.47 1.7 0 .66.52 1.34 1.44 1.93 2.71 1.72 4.4 3.5 5.12 5.5 1.13 3.04-.34 4.77-1.77 5.69l-.64.4.56.52c.5.43 1.11.7 1.77.76H36c.56 0 1.11-.08 1.65-.24a4.02 4.02 0 0 1-3.73 2.06h-.54l-.04.53a2.54 2.54 0 0 0 1.4 2.28 4.7 4.7 0 0 0-1.42 3.3c0 .68-.16 1.35-.45 1.97l-.6.9h1.07c1.77 0 3.12-.49 4.06-1.46.49-.51.85-1.13 1.06-1.8a2.84 2.84 0 0 0 1.85.67c.32 0 .65-.04.96-.11l.69-.18-.3-.64a4.53 4.53 0 0 1 0-3.16c.22-.67.38-1.35.46-2.05.54.28 1.15.42 1.75.4a2.9 2.9 0 0 0 2.48-1.3l.33-.61-.6-.25c-2.02-.84-2.47-3.1-2.56-4.3.2.03.4.06.6.06l.17.12c2.2 0 2.93-2.24 2.96-2.33l.25-.79h-.83a5.88 5.88 0 0 1-4.42-2.25Zm2.05 4.76h-.08c-.44 0-.88-.11-1.25-.34 0 0-.32 4.35 2.93 5.7v.02a2.28 2.28 0 0 1-1.94 1.02 2.73 2.73 0 0 1-2.28-1 8.54 8.54 0 0 1-.5 3.01 5.11 5.11 0 0 0 0 3.61c-.27.07-.54.1-.82.1a2.37 2.37 0 0 1-2.2-1.62s.13 4.18-4.74 4.18h-.04c.37-.7.56-1.47.55-2.26.21-3.09 2.31-3.53 2.31-3.53a3.68 3.68 0 0 1-1.6-.6c-.45-.37-.7-.9-.71-1.48a4.7 4.7 0 0 0 4.77-3.82 4.2 4.2 0 0 1-2.7.83h-.5a2.61 2.61 0 0 1-1.43-.6c1.86-1.2 3.16-3.26 2-6.39-.92-2.5-3.14-4.37-5.37-5.78-.75-.46-1.2-.98-1.2-1.42 0-1.05 1.5-1.08 2.11-1.8.7-.83.27-2.15-.35-2.95a3.66 3.66 0 0 1 3.2 1.07c.71.68.98 1.7.71 2.64l.33.06c.2.04.4.06.6.06h.13c1.77 0 2.56-1.85 2.56-1.85s1.88 2.32-.88 4.12c-.48.3-.69.6-.6.9l.04.2.2.04c2 .54 3 1.93 4.25 3.5a6.48 6.48 0 0 0 4.87 2.47h.04s-.6 1.91-2.41 1.91Z"/>
    <path fill="#222220" d="M40.43 13.73c.67.38 1.25.9 1.71 1.53.34.53.83.95 1.41 1.2.22.08.45.11.68.11.92 0 1.76-.52 2.19-1.34l.34-.78-.84-.05a4.06 4.06 0 0 1-2.35-1.34 2.42 2.42 0 0 0-1.75-.78c-.52 0-1.02.16-1.45.44l-.79.55.85.46Zm1.4-.86h-.01c.5 0 .99.22 1.33.6.7.81 1.67 1.35 2.73 1.52-.33.6-.96.99-1.65 1-.17 0-.34-.04-.5-.1-.97-.32-1.32-1.8-3-2.69a2 2 0 0 1 1.1-.33Zm-1 8.62-.02-.02c-.5-3.97-3.38-6.84-6.59-8.58-.29-.16-.57-.3-.83-.42 1.32.27 2.7-.06 3.77-.89 0 0-1.86 1.37-5.67.13 1.06.69 3.1 1.65 4.97 3.21 4.68 4.11 1.33 8.12 1.33 8.12a4.92 4.92 0 0 0 1.26-5.17 9.61 9.61 0 0 1 1.36 5.46c-.13 3.16-1.88 5.92-3.69 8.11-.54.7-.91 1.5-1.07 2.38.3-.87.77-1.66 1.37-2.35 1.96-2.29 3.62-4.67 3.85-8.1.2.6 1.04 2.36 2.36 3.02 0 0-1.66-1-2.4-4.9ZM15.9 36.17a4.73 4.73 0 0 1-.45-1.97 4.7 4.7 0 0 0-1.42-3.3 2.54 2.54 0 0 0 1.4-2.28l-.04-.53h-.54a4.04 4.04 0 0 1-3.73-2.06c.54.16 1.09.24 1.65.24h.55a3.23 3.23 0 0 0 1.77-.76l.56-.5-.64-.42c-1.43-.91-2.9-2.65-1.77-5.7.73-1.97 2.41-3.76 5.15-5.48.92-.6 1.43-1.27 1.43-1.93 0-1.01-.85-1.41-1.47-1.7-.28-.1-.54-.26-.77-.46-.48-.56-.08-1.63.37-2.2l.6-.76-.92-.18a4.27 4.27 0 0 0-3.78 1.2 3.28 3.28 0 0 0-.97 2.55h-.36c-1.36 0-2-1.43-2.02-1.49l-.38-.9-.6.76a3.6 3.6 0 0 0-.72 2.57c.2 1.02.84 1.9 1.74 2.41.09.05.17.12.24.18-1.9.6-2.97 1.98-4.08 3.4l-.17.2a5.89 5.89 0 0 1-4.43 2.25h-.82l.25.8c0 .09.76 2.32 2.96 2.32h.1c.2 0 .4-.03.6-.07-.08 1.2-.53 3.47-2.55 4.3l-.6.26.33.6a2.9 2.9 0 0 0 2.47 1.32c.6 0 1.2-.14 1.75-.41.08.7.24 1.38.46 2.04a4.53 4.53 0 0 1 0 3.16l-.3.64.69.18c.3.08.63.12.96.12a2.9 2.9 0 0 0 1.85-.68c.2.68.57 1.3 1.06 1.8.94.98 2.3 1.46 4.06 1.47h1.07l-.54-1Zm-.52.34c-4.87 0-4.75-4.18-4.75-4.18a2.37 2.37 0 0 1-2.2 1.62 3.6 3.6 0 0 1-.81-.1 5.11 5.11 0 0 0 0-3.62 8.53 8.53 0 0 1-.5-3 2.73 2.73 0 0 1-2.27 1h-.03a2.29 2.29 0 0 1-1.95-1.04c3.25-1.35 2.93-5.7 2.93-5.7-.38.23-.8.35-1.25.35H4.5c-1.81 0-2.41-1.92-2.41-1.92h.03A6.47 6.47 0 0 0 7 17.46c1.24-1.57 2.25-2.96 4.26-3.5l.2-.04.04-.2c.05-.3-.16-.6-.6-.9-2.77-1.8-.89-4.11-.89-4.11s.78 1.84 2.56 1.84h.08a4 4 0 0 0 .6-.06l.33-.06a2.6 2.6 0 0 1 .71-2.63 3.66 3.66 0 0 1 3.2-1.08c-.6.8-1.04 2.13-.34 2.94.6.7 2.1.74 2.1 1.8 0 .45-.42.97-1.16 1.44-2.24 1.4-4.46 3.28-5.38 5.78-1.15 3.13.15 5.2 2 6.39-.4.34-.9.55-1.42.6h-.5a4.2 4.2 0 0 1-2.7-.84 4.63 4.63 0 0 0 4.77 3.82 1.98 1.98 0 0 1-.71 1.49c-.49.32-1.03.53-1.61.6 0 0 2.1.43 2.33 3.53 0 .79.19 1.56.55 2.26l-.03-.02Z"/>
    <path fill="#222220" d="M4.53 16.57c.23 0 .47-.04.68-.11a3.22 3.22 0 0 0 1.41-1.2 5.43 5.43 0 0 1 1.71-1.54l.85-.45-.79-.55a2.75 2.75 0 0 0-1.44-.44c-.67 0-1.3.29-1.75.78a4.1 4.1 0 0 1-2.35 1.35l-.84.04.34.78a2.46 2.46 0 0 0 2.18 1.34Zm1.08-3.1c.34-.38.82-.6 1.33-.6.4 0 .78.13 1.11.34-1.7.9-2.06 2.36-3.01 2.7-.16.05-.33.08-.5.08-.7 0-1.33-.39-1.66-1a4.61 4.61 0 0 0 2.73-1.52Zm2.75 9.89a9.56 9.56 0 0 1 1.36-5.46 4.91 4.91 0 0 0 1.26 5.16s-3.35-4 1.33-8.11c1.87-1.57 3.92-2.53 4.97-3.22-3.8 1.24-5.67-.12-5.67-.12a4.61 4.61 0 0 0 3.77.88l-.84.42c-3.2 1.75-6.11 4.62-6.59 8.6v-.04c-.74 3.9-2.4 4.9-2.4 4.9 1.31-.65 2.15-2.4 2.35-3 .22 3.43 1.9 5.8 3.85 8.1.6.68 1.07 1.47 1.37 2.33a5.4 5.4 0 0 0-1.08-2.36c-1.8-2.2-3.55-4.95-3.68-8.08Zm14.92-7.25c.21-.2.5-.3.8-.26v1.13c0 .29-.08.56-.22.8H25a1.7 1.7 0 0 1-.21-.8v-1.13c.28-.04.58.06.79.26v-.79h-2.3v.79Zm-.48-5.46c.17.15.37.27.6.34l.14.07v-.75l-1.34-.56c.07.38.29.7.6.9Zm3.18 0c.31-.2.53-.52.6-.9l-1.34.56v.74l.14-.06c.22-.08.42-.2.6-.35Z"/>
    <path fill="#222220" d="M28.37 7.63c0-1.13-1.9-2.14-3.98-2.14-2.1 0-3.99 1.01-3.99 2.14l.05.27.83 4.82-.83.49-2.19 1.24s-.49.25-.72.4c-.82.6-1 1.41-.52 1.76.12-.82.84-1.42 1.67-1.4.69.02 1.33.37 1.72.94.13.15.23.3.33.46l.38.56h-5.58c.47.8.75 1.71.8 2.65V32.2c0 3.01 2.31 4.43 4.82 4.43 1.93 0 2.19-.1 3.25.97 1.06-1.06 1.31-.97 3.24-.97 2.5 0 4.82-1.43 4.82-4.43V19.83c.06-.93.33-1.84.8-2.65h-5.64c.13-.17.26-.35.38-.56.1-.16.21-.31.33-.46a2.2 2.2 0 0 1 1.73-.94c.83-.02 1.55.58 1.67 1.4.48-.34.3-1.2-.52-1.76a8 8 0 0 0-.72-.4l-2.16-1.28-.84-.48.84-4.82.03-.25Zm-7.16.55 2.94 1v4.6l-2.16-1.14-.78-4.46Zm-4.46 9.8h5.06c.4.41.87.74 1.4.94-.11.4-.08.83.08 1.2.2.4.54.72.96.88.08.7.55 1.27 1.2 1.5-.36.37-.71.71-.86.85l-3.36-.05a.58.58 0 0 1-.27-.25v-.04l.55.09h.04c.1 0 .2-.07.21-.18a.22.22 0 0 0-.18-.25l-.67-.11.75-2.6-.72-1.48-1.13 1.2-.08 2.69-.76-.12a.21.21 0 0 0-.25.17v.01c-.02.12.06.23.18.25l.32.05-.2.13-.07.05v.07c-.15.7.13 1.4.7 1.81v.1c-.04.23.12.45.36.5h.07c.2 0 .37-.14.41-.34h.53l4.4.8.08-.05c.35-.24 1.69-1.2 2.13-1.55.12.11.27.2.42.28-.2.63-.05 1.33.4 1.8h-11.3v-6.5a5.45 5.45 0 0 0-.4-1.85Zm10.5 5.96-2 1.44-4-.7v-.1c.07-.28.1-.55.11-.83l3.37.05.07-.06c.05-.06 1.12-1.09 1.66-1.68a2 2 0 0 0 .5.45c-.1.5.01 1 .29 1.43Zm-6.7-.73v.02c.1.17.23.31.4.41-.01.25-.04.49-.08.73 0 .05 0 .1-.04.16v.09c-.28 0-.55-.05-.81-.13a1.3 1.3 0 0 1-.68-1.33c.22-.15.47-.25.73-.28a.5.5 0 0 1 .49.33Zm-.4-.8.06-2.54.6-.6.37.76-.72 2.48-.32-.1Zm7.07 13.42h-.58l.45-1.48c.07-.2-.3-.47-.46-.7.37.22.75.42 1.14.6 0 .05-.55 1.58-.55 1.58Zm1.54-1.65-.04-.05-.32 1.63c-.2 0-.4.04-.6.05l.33-1.56c.1-.47-1.15-.6-1.76-1.52-.4.33-.92.49-1.44.43-.46 0-.9-.05-1.35-.14h-.24a.5.5 0 0 0-.46.25l-.1.15-1.7-.42-.42.71c-.06.1-.05.23.03.32l.12.12a2.4 2.4 0 0 1-.44.6l-.25-.3a.91.91 0 0 1 .04-1.02l.68-1.14 1.44.22-.23-.51c-.3-.68.16-1.54.2-2.03 0 .15-.15.18-.3.18h-.52l-.39.23-.3-.28a.22.22 0 0 1 .04-.26l.7-.8-.84-.99 1.2.6.37-.43c.1.1.05.35.05.35a1.92 1.92 0 0 1 1.46 1.92v.17c.12.2.31.33.53.38l1.63.16c.33-.1.66-.17 1-.2.28 0 .57.08.81.24a.76.76 0 0 1 .4-.13h.05c.73 0 1.03.66 1.43 1.2.29.41.69 1.04.69 1.04a.61.61 0 0 1-.5.27h-.22c-.78-.14-.9-1.76-1.34-1.88h-.07a.23.23 0 0 0-.2.12c.2.55.08.77.3 1.2a3 3 0 0 0 .6.7l-.07.42ZM20 32.6l.06.19c-.04.16-.6.4-.6.4l-.12-.27a.89.89 0 0 1 .29-1.06l.9-.56.98.2c0 .2.05.39.17.54l-1.02-.19-.6.42a.26.26 0 0 0-.06.33Zm11.65-.4a3.4 3.4 0 0 1-2.74 3.47l.27-1.45c0-.09.03-.19.05-.27l.25.08h.29c.33 0 .64-.16.84-.42l.22-.25-.18-.25s-.4-.64-.7-1.06l-.18-.25c-.33-.5-.76-1.15-1.6-1.15h-.09c-.12.01-.24.03-.36.08-.26-.13-.54-.2-.83-.2-.29.01-.58.06-.85.17l-.14.04-1.6-.16a.4.4 0 0 1-.15-.14l.34-.14c-.1-1.14-1.2-1.85-1.8-2.08a.67.67 0 0 0-.19-.33l-.34-.32-.3.36-.15.18-2.23-.92 1.45 1.8-.57.88a.31.31 0 0 0 0 .44l.6.41.6-.23h.06c0 .1-.06.46-.1.56l-1.04-.18-1.12.6c-.52.38-.7 1.06-.43 1.64l.13.27.17.39.4-.17c-.15.4-.09.83.16 1.16l.24.3.31.4.35-.38c.23-.22.4-.49.54-.78l.07-.24-.17-.2v-.03l.2-.31 1.38.32.32.08.16-.28.1-.15c0-.03 0-.04.08-.04h.15c.47.1.96.15 1.44.15.32.02.65-.01.96-.11l.77.88-.46 1.4v.1a2.4 2.4 0 0 0-1.8.76c-.74-.73-1.27-.81-3.25-.81-2.37 0-3.98-1.4-3.98-3.61v-5.42h14.45v5.42Zm.39-14.22a5.25 5.25 0 0 0-.4 1.85v4.06a1.21 1.21 0 0 1-.96-1.1v-.18h-.18a1.3 1.3 0 0 1-.82-.4c-.26-.3-.4-.69-.41-1.1-.26.43-.24.97.06 1.37.24.3.58.5.96.54.1.7.66 1.24 1.36 1.33v1.99h-2.53a1.4 1.4 0 0 1-.64-1.8l.1-.23-.23-.08a1.42 1.42 0 0 1-.89-1.76l.05-.18-.17-.08a1.8 1.8 0 0 1-.88-1.8 1.1 1.1 0 0 0-.2 1.26l-.45.48a1.4 1.4 0 0 1-1.12-1.32v-.15l-.14-.06a1.4 1.4 0 0 1-.84-.7 1.38 1.38 0 0 1-.06-.87l.36.05h.37c.98 0 1.9-.42 2.55-1.14l5.1.02Zm-3.9-4.1.98.6.25.14a2.9 2.9 0 0 0-1.34.8l-.04.04a2.1 2.1 0 0 0-.24.28l-.05.06-.22.3-.04.06-.24.38a3.55 3.55 0 0 1-2.82 1.94 3.55 3.55 0 0 1-2.82-1.94l-.24-.38-.05-.07-.19-.31-.05-.07-.24-.27-.04-.04a2.9 2.9 0 0 0-1.34-.8l.25-.15 1-.6 1.01-.6 2.72 1.47 2.71-1.42 1.04.58Zm-1.34-1.2-2.16 1.13V9.18l2.93-1-.77 4.5Zm-2.4-3.99L21.16 7.4c.27-.65 1.53-1.2 3.21-1.2s2.95.55 3.22 1.2l-3.22 1.3Z"/>
</svg>