<svg xmlns="http://www.w3.org/2000/svg" viewBox="0 0 180 180"><circle cx="90" cy="90" r="90" fill="#fff"/><path d="M75.8,47.1C52.3,50.5,32.8,62,25.5,76.7a30.3,30.3,0,0,0,0,26.6c6.2,12.4,21.9,23.1,41,27.9,12.8,3.1,34.2,3.1,47,0,19.1-4.8,34.8-15.5,41-27.9,2.4-4.8,2.9-7,2.9-13.3,0-10-3.3-16.8-12.1-25C129.8,50.5,101.8,43.3,75.8,47.1Zm8.4,7.7c-4.2,3.9-7.5,11-9.6,20.4-.8,3.4-1.5,3.4-10.2.7C57.8,73.8,51,68.9,51,66c0-.7,1.5-2.7,3.3-4.5,3.9-3.9,13.9-7.3,25-8.5,3.9-.4,7.4-.8,7.6-.9S85.9,53.2,84.2,54.8ZM115.3,56c6.9,2.1,13.7,7.1,13.7,10s-6.8,7.8-13.4,9.9c-8.7,2.7-9.4,2.7-10.2-.7C103.4,66,100,58.7,96,55l-2.8-2.6,7.5.7A89.83,89.83,0,0,1,115.3,56ZM94.2,65.9c2.6,3,5.5,11.7,4.4,12.8-.3.4-4.2.7-8.6.7s-8.3-.3-8.6-.7c-1.1-1.1,1.8-9.8,4.4-12.8C87.1,64.3,89,63,90,63S92.9,64.3,94.2,65.9ZM49,81.8c4.9,2.9,13.2,5.9,21.1,7.6,2.5.5,2.7,1,3.3,8.9.9,10.5,2.6,17.1,6.4,24.1,3.5,6.4,3.5,6.4-7.1,4-14.6-3.3-28.3-11.6-34.5-21-7-10.4-7.2-23.1-.6-33.2l1.5-2.3,2.2,4.3C42.9,77.3,45,79.4,49,81.8Zm95.9-4.7a31.49,31.49,0,0,1,1.2,19.5c-3.6,13.2-19.5,25.5-38.8,29.8-10.6,2.4-10.6,2.4-7.1-4,3.8-7,5.5-13.6,6.4-24.1.6-7.9.8-8.4,3.3-8.9,15.1-3.2,25.6-8.7,28.6-15C140.9,69.5,141.8,69.9,144.9,77.1ZM100,93c0,3.6-2.2,12.5-4.1,16.2-4.9,9.7-11.7,5.5-14.8-9-2-9.7-2.5-9.2,8.9-9.2C99.2,91,100,91.1,100,93Z"/></svg>