<svg xmlns="http://www.w3.org/2000/svg" viewBox="0 0 34.48 34.48"><path fill="#09a543" fill-rule="evenodd" d="M17.22.17 9.81 6.29s-1.45 2 .77 4.32L23.5 22.13A5.84 5.84 0 0 1 24.74 25a17.19 17.19 0 0 1-.67 3.45L34.16 20v-.15l-8.41 6.07 8.65-7.56v-.21l-8.78 6.45 8.86-7.85v-.12l-9 6.84 8.64-8.06v-.12l-9.27 7.25 8.72-8-.09-.06-9.3 7.16 8.47-7.9v-.06l-9.34 7.19 8.58-8-9.29 7.26 8.55-7.91-.15-.11-9.4 7.35 8.63-8.09-.07-.06-9.44 7.32 8.6-8h-.08l-9.5 7.36 8.73-8.1v-.06L19 17.25l8.6-8.14-9.37 7.4L23.49 11v-.07l-6.23 4.73 6.9-6.42v-.12l-7.83 6 8.07-7.37v-.14l-8.81 6.63L24 6.39l-9.12 7 8.38-7.62-.05-.08-9.2 7 8.39-7.82-9.15 7.1 8.29-7.81-.15-.16-9.11 7.15 8.26-7.77-.06-.05-9.08 6.87 8.4-7.51-.07-.06-9 6.8L19 1.92v-.08l-8.78 6.4L18 1.09 10.17 7l7.1-6.73ZM7.63 12.81l13.1 11.93c2.67 2.45.1 6.38.1 6.38l-3.72 3.19L1.87 20.39a5.31 5.31 0 0 1-.94-7L7.42 8.1c-.37 1.91-1 2.94.21 4.71Z"/></svg>
