<svg xmlns="http://www.w3.org/2000/svg" viewBox="0 0 67 67"><path fill="#a38959" d="m33.8 21.1-.4-.4-.4.4L9 44.6h1.7l22.6-22.3L56 44.6h1.6Z"/><path fill="#a38959" d="m33.5 18.5 26.2 26.1h1.8l-28-27.9-28.2 28H7ZM67 50.2l-3-3H3l-3 3Z"/><path fill="#a38959" d="M24.4 44.5h-2.3a3.9 3.9 0 0 0 .4-2v-5.1h-.8c-.5 0-1.3 1.3-1.9 2h-.1l.4-2.4h6.3l.4 2.4h-.2c-.5-.8-1.3-2-1.8-2H24v5.1a3.9 3.9 0 0 0 .4 2ZM38.8 40.2l-.3 3a9.1 9.1 0 0 1-4.7 1.3 6.1 6.1 0 0 1-6.3-6.5 6.3 6.3 0 0 1 6.7-6.5 11.5 11.5 0 0 1 4.2.9l.4 2.8h-.2C37.2 33 36 32.1 34 32.1c-3.4 0-5 2.5-5 6s1.6 6 4.8 6c2.5 0 3.8-1.5 4.8-3.9ZM45.1 42.2c0 1.3-1 2.3-3.2 2.3h-2.6a3.8 3.8 0 0 0 .5-2v-3.4a3.9 3.9 0 0 0-.5-2h5l.4 2h-.2c-.5-.5-1.3-1.6-1.8-1.6l-1.5-.1v2.9h.9c2.3 0 3 .8 3 2Zm-3.3-1.7h-.6v3.7h.6a1.8 1.8 0 0 0 1.8-2c0-1.2-.7-1.7-1.8-1.7Z"/></svg>
