<svg xmlns="http://www.w3.org/2000/svg" viewBox="0 0 149.05 93.18" width="149.05" height="93.18">
    <path fill="#007ec4" d="M22.94 78.27c13.46-20.67 45-35.09 65-29.4a2 2 0 0 0 2.21-3.21c-16.97-15.04-58.52 6.87-67.21 32.61Zm62.52-26.81c-1.24-.41-1.47.59-.49 1.09 10.33 6.41 21.12-4.13 30.46-3.2 4.43.43 10.38 1.59 14.43 2.24 1 .13 1.47-.8-.16-1.31-5.81-1.74-12-6.67-18.66-6.68-7.8 0-16.93 11.63-25.58 7.86Z"/>
    <path fill="#005c92" d="M143.06 47c-.59-.57-.32-1-.43-1.75-3.55-24.74-44.45-31.36-63.74-31.19-5.06-.12-7.36-2.4-11.83-5.69S55.1 1 52.27.23c-5.61-1.61-1.13 5.79 0 7.2-.27-5.78 13.46 5.48 15.22 6.76 3.93 2.87 6.69 4.19 11.14 4.3 16.31-.13 32 3.87 41.93 9.4s13.09 9.49 14.11 16.49c.1.7-.13 1 .38 1.52.84.76 8 7.39 4 8.08 5.51 2.22 9.18 2.5 9.87 1.27.79-1.39-2-4.67-5.86-8.25ZM54.71 9.77c1.59 3.15 1.94 6.86-2.39 9.88C32.71 32.33 14.09 49.28 11.4 73.78c-.13 1.21-.18 2-1.19 2.8A29.56 29.56 0 0 0 .15 91.9c-.69 2.49 1.21.7 1.88 0 3.56-3.87 7.71-.43 10.75-5.06 2.08 1.55 5.48-1.07 7 1.74.37.69.86.79 1.4.2 2.3-2.53 1.2-5.23.36-7.89a2.44 2.44 0 0 1-1.08-.42c-2.67 4-6.33 1-9.46 4.39-.58.61-2.26 2.17-1.65 0 1.59-5.26 5.21-9.68 9.65-13.08a2.84 2.84 0 0 0 1-2.44C22.39 48 39.55 34.14 56.79 23.11c5.74-3.96.53-10.38-2.08-13.34Z"/>
</svg>