<?xml version="1.0" encoding="UTF-8"?><svg xmlns="http://www.w3.org/2000/svg" viewBox="0 0 227.45 227.45"><g isolation="isolate"><g id="a"><g mix-blend-mode="multiply"><path d="M76.85,157.61c-.29.21-.57.44-.85.67-.27.23-.54.48-.8.73s-.51.52-.75.79c-.24.27-.47.56-.7.85-1.92,2.5-3.05,5.54-3.47,8.88-.41,3.28-.15,6.87.74,10.56.88,3.65,2.36,7.43,4.4,11.13,2.04,3.69,4.64,7.35,7.79,10.79l23.34,25.44,17.6-13.24c2.68-2.02,4.54-4.78,5.57-8.08,1.06-3.36,1.25-7.25.61-11.41-.65-4.21-2.17-8.68-4.5-13.11-2.35-4.45-5.49-8.82-9.38-12.82-.44-.47-.9-.92-1.35-1.36-.46-.44-.92-.87-1.39-1.29-.46-.42-.93-.83-1.4-1.22-.47-.4-.94-.79-1.42-1.16l-14.15,14.87-19.9-21.03" fill="#00c4b3" stroke-width="0"/><path d="M60.84,0l-15.25,37.67c-1.87,4.62-2.85,9.65-3.05,14.78-.2,5.03.35,10.19,1.55,15.22,1.19,4.97,3.03,9.84,5.46,14.36,2.42,4.51,5.44,8.72,9.03,12.36.42.43.83.84,1.26,1.24.42.4.85.79,1.28,1.17.43.38.86.74,1.3,1.1.44.35.88.7,1.32,1.03l12.5-22.34,23.37,23.02c.39-.35.77-.71,1.14-1.09.37-.38.74-.77,1.1-1.19.36-.41.71-.84,1.06-1.28.35-.45.68-.91,1.01-1.39,2.89-4.16,4.83-9.1,5.83-14.48,1.03-5.51,1.07-11.46.14-17.44-.94-6.08-2.87-12.16-5.73-17.8-2.87-5.67-6.64-10.85-11.23-15.11L60.84,0" fill="#00c4b3" stroke-width="0"/><path d="M32.34,93.29c-1.49.04-2.91.28-4.24.71-1.31.43-2.54,1.04-3.66,1.85-1.11.8-2.11,1.78-2.98,2.94-.87,1.14-1.61,2.47-2.22,3.96l-8.29,20.48,20.42,22.27c1.48,1.61,3,3.06,4.53,4.34,1.54,1.29,3.11,2.41,4.68,3.36,1.58.96,3.16,1.75,4.73,2.36,1.58.62,3.14,1.06,4.67,1.32,1.46.24,2.89.32,4.26.23,1.39-.1,2.72-.37,3.98-.83,1.27-.47,2.47-1.12,3.56-1.97,1.11-.86,2.11-1.92,2.99-3.19.21-.3.42-.62.61-.94.19-.32.38-.66.55-.99.18-.34.34-.69.5-1.04.15-.35.3-.72.44-1.09l-18.87-19.94,10.01-17.9c-.35-.46-.7-.92-1.06-1.37-.36-.45-.73-.9-1.1-1.34-.37-.44-.75-.88-1.14-1.31-.39-.43-.78-.85-1.18-1.26-1.78-1.83-3.59-3.42-5.43-4.79-1.82-1.36-3.66-2.47-5.47-3.36-1.8-.88-3.58-1.52-5.31-1.94-1.71-.41-3.38-.59-4.96-.55" fill="#00c4b3" stroke-width="0"/><path d="M141.7,93.63c-2.7.05-5.33.36-7.85.94-2.49.56-4.86,1.38-7.1,2.45-2.2,1.05-4.26,2.34-6.15,3.86-1.86,1.5-3.55,3.22-5.04,5.17-.35.46-.69.93-1.01,1.4-.32.47-.63.95-.92,1.44-.29.48-.57.98-.83,1.47-.27.5-.51,1-.75,1.51l24.89,24.51-17.86,18.78c.38.51.77,1.02,1.18,1.52.4.5.82,1,1.24,1.5.43.49.86.98,1.31,1.47.45.49.9.97,1.37,1.44,2.08,2.11,4.27,4.03,6.55,5.74,2.29,1.72,4.67,3.24,7.12,4.56,2.47,1.32,4.99,2.44,7.55,3.34,2.59.91,5.21,1.6,7.83,2.06,2.51.44,5.03.66,7.51.67,2.51,0,5-.22,7.42-.68,2.45-.47,4.84-1.19,7.11-2.17,2.31-.99,4.52-2.26,6.57-3.8l34.66-26.09-39.3-36.56c-2.69-2.5-5.55-4.69-8.5-6.56-2.94-1.85-5.96-3.38-9.02-4.59-3.03-1.19-6.09-2.07-9.12-2.64-3-.56-5.96-.8-8.85-.75" fill="#00c4b3" stroke-width="0"/></g></g></g></svg>