<svg xmlns="http://www.w3.org/2000/svg" viewBox="0 0 227.4 227.4">
  <path d="m76.8 157.6-.8.7-.8.7-.8.8-.7.8c-1.9 2.5-3 5.6-3.4 9-.4 3.2-.2 6.8.7 10.5.9 3.6 2.4 7.4 4.4 11.1 2 3.7 4.7 7.4 7.8 10.8l23.4 25.4 17.6-13.2c2.6-2 4.5-4.8 5.5-8 1-3.4 1.3-7.3.6-11.5-.6-4.2-2.1-8.7-4.5-13a56 56 0 0 0-15-18l-14 15-20-21.1M60.8 0 45.6 37.7a44 44 0 0 0-3 14.7 56.3 56.3 0 0 0 7 29.6 53.8 53.8 0 0 0 14.1 17l12.5-22.4 23.4 23a23.4 23.4 0 0 0 4.3-5c3-4.1 4.9-9 5.9-14.4A59.8 59.8 0 0 0 93 29.9L60.7 0M32.3 93.3a13.3 13.3 0 0 0-10.9 5.5c-.8 1.1-1.6 2.5-2.2 4L11 123.1l20.4 22.3a48.1 48.1 0 0 0 9.2 7.7 30.2 30.2 0 0 0 9.4 3.7c1.4.2 2.9.3 4.2.2a13.2 13.2 0 0 0 10.5-6 15.1 15.1 0 0 0 1.2-2l.5-1 .5-1L48 127l10-17.9-1-1.4a71.2 71.2 0 0 0-3.5-3.9 45.5 45.5 0 0 0-10.9-8.1c-1.8-.9-3.6-1.5-5.3-2-1.7-.4-3.4-.5-5-.5M141.7 93.6a38.1 38.1 0 0 0-15 3.4A31.3 31.3 0 0 0 112 112l25 24.5-18 18.8a41.4 41.4 0 0 0 2.5 3l1.3 1.5a46.6 46.6 0 0 0 8 7.1 56.4 56.4 0 0 0 22.4 10 44.6 44.6 0 0 0 15 0 34.2 34.2 0 0 0 13.6-6l34.7-26-39.3-36.6A58.6 58.6 0 0 0 159.7 97a50.6 50.6 0 0 0-18-3.4" fill="#00c4b3"/>
</svg>
