<svg xmlns="http://www.w3.org/2000/svg" width="191" height="62" fill="none">
    <g clip-path="url(#a)">
        <path fill="#039be5" fill-rule="evenodd" d="m30.85.4 21.09 20.85h-.02c-7.39-.52-12.3-8.13-28.94-.52 20.78-1.27 19.61 9.06 32.55 4.12h.05l4.74 4.68c-15.6 4.16-17.9-8.74-37.46.31 23.28-1.34 18.8 11.44 38.04 1.74l-7.88 7.87c-10.65-.13-10.25-8.03-29.93-.79.83.5 8.01.05 12.24 1 4.65 1.24 9.08 4.23 12.7 4.64l.1.04-17.29 17.27L0 30.9 30.84.39Zm37.34 26.49h122.4v1.46H68.2v-1.46Zm9.72 20.86v8.86l-.02 1.03c0 .73.18 1.28.56 1.66.38.37.93.56 1.67.56 1.09 0 2.1-.24 3.01-.73a4.93 4.93 0 0 0 2.12-2.1c.5-.91.74-1.93.74-3.06 0-1.3-.3-2.46-.9-3.48a4.87 4.87 0 0 0-2.48-2.15c-1.05-.41-2.62-.6-4.7-.6Zm0-1.6c1.94 0 3.36-.21 4.28-.64a4.94 4.94 0 0 0 2.12-1.84c.5-.79.74-1.8.74-3.02s-.25-2.22-.73-3.01a4.6 4.6 0 0 0-2.07-1.78c-.9-.41-2.35-.6-4.34-.6v10.89Zm7.44.56c2.64.6 4.49 1.35 5.55 2.22a5.9 5.9 0 0 1 2.29 4.8c0 2.09-.84 3.8-2.51 5.16-2.06 1.65-5.06 2.48-8.98 2.48H67.6v-.76a6.3 6.3 0 0 0 2.61-.36c.45-.23.77-.54.96-.92.18-.39.28-1.32.28-2.82V38.57c0-1.5-.1-2.43-.28-2.82a2 2 0 0 0-.97-.93 6.43 6.43 0 0 0-2.6-.34v-.76h13.3c3.17 0 5.43.28 6.74.84a6.99 6.99 0 0 1 3.13 2.53 6.22 6.22 0 0 1 1.15 3.58c0 1.33-.48 2.52-1.45 3.56s-2.67 1.86-5.11 2.48Zm25.14 5.27-4.13-9.51-4.26 9.51h8.39Zm.7 1.52h-9.8l-1.17 2.69c-.38.9-.57 1.63-.57 2.22 0 .78.32 1.34.94 1.71.37.22 1.27.38 2.72.5v.75h-9.22v-.76c.99-.15 1.8-.56 2.45-1.24.64-.67 1.42-2.06 2.37-4.16l9.92-22.06h.4l9.99 22.67c.95 2.15 1.74 3.5 2.35 4.06.47.42 1.13.66 1.97.74v.75h-13.42v-.75h.55c1.08 0 1.84-.15 2.27-.46.3-.21.46-.53.46-.94 0-.24-.05-.49-.13-.75-.03-.12-.23-.63-.61-1.53l-1.47-3.44Zm24.46-19.78 12.87 17.14V38.98c0-1.66-.23-2.78-.67-3.36-.62-.79-1.65-1.17-3.1-1.14v-.76h8.61v.76c-1.1.14-1.83.34-2.22.57-.38.24-.67.63-.88 1.16a8.44 8.44 0 0 0-.32 2.77V62h-.65l-17.64-23.02v17.58c0 1.58.35 2.66 1.03 3.21.69.57 1.47.84 2.35.84h.62v.76h-9.25v-.76c1.44-.01 2.44-.32 3-.94.57-.6.85-1.65.85-3.11V37.04l-.56-.74a5.27 5.27 0 0 0-1.46-1.44 4.2 4.2 0 0 0-1.83-.38v-.76h9.25Zm37.2 10.58 9.35 12.17a15.5 15.5 0 0 0 3.4 3.49c.7.43 1.43.65 2.2.65v.76h-13.83v-.76c.88-.08 1.44-.23 1.7-.43.25-.2.38-.45.38-.75 0-.57-.6-1.65-1.8-3.22l-6.1-7.98-.98.86v7.54c0 1.44.08 2.34.24 2.7a2 2 0 0 0 .9.9 4.4 4.4 0 0 0 2.14.39v.75h-13.4v-.75h.88a3.5 3.5 0 0 0 1.86-.44c.34-.18.6-.51.78-.98.15-.32.21-1.17.21-2.57V38.45c0-1.41-.06-2.3-.21-2.65a1.98 1.98 0 0 0-.87-.93 3.42 3.42 0 0 0-1.77-.4h-.89v-.75h13.22v.76a4.2 4.2 0 0 0-2.05.4c-.34.2-.6.51-.8.96-.16.34-.24 1.21-.24 2.61v8.6l9.86-8.3c1.37-1.15 2.06-2.07 2.06-2.76 0-.53-.29-.93-.85-1.23-.28-.15-1-.24-2.14-.28v-.76h10.37v.76a5.6 5.6 0 0 0-2.18.5c-.54.29-1.76 1.23-3.66 2.84l-7.78 6.48ZM85.88.34V6.7h-.6a10.25 10.25 0 0 0-1.2-3.17A4.57 4.57 0 0 0 82.28 2a5.5 5.5 0 0 0-2.24-.32h-1.7v18.14c0 1.2.06 1.95.19 2.26.13.3.39.56.76.78.38.23.89.35 1.54.35h.76v.64H69.63v-.64h.76c.66 0 1.2-.13 1.6-.37.29-.16.52-.44.69-.84.12-.27.19-1 .19-2.18V1.69H71.2c-1.53 0-2.66.33-3.35 1.01a6.73 6.73 0 0 0-1.85 4h-.64V.35h20.51Zm2.06 0h11.79v.64h-.59c-.88 0-1.5.1-1.83.29a1.6 1.6 0 0 0-.7.78 8.77 8.77 0 0 0-.22 2.52v11.51c0 2.1.16 3.5.47 4.19.3.68.81 1.24 1.52 1.7.7.45 1.6.67 2.68.67a5.22 5.22 0 0 0 5.11-3.23c.43-1 .65-2.75.65-5.25v-9.6c0-1.05-.11-1.8-.32-2.25a1.95 1.95 0 0 0-.8-.93 4.68 4.68 0 0 0-2.15-.4V.34h7.9v.64h-.47c-.64 0-1.18.13-1.6.4a2.2 2.2 0 0 0-.93 1.2 6.25 6.25 0 0 0-.22 1.99v8.93c0 2.76-.17 4.76-.52 5.98a6.69 6.69 0 0 1-2.6 3.39c-1.36 1.03-3.23 1.54-5.6 1.54-1.97 0-3.5-.27-4.58-.82a6.86 6.86 0 0 1-3.12-2.84c-.6-1.16-.9-2.7-.9-4.67V4.57a8.3 8.3 0 0 0-.23-2.52c-.14-.33-.4-.6-.76-.79a4.38 4.38 0 0 0-1.98-.28V.34Zm33.27 12.8v6.6c0 1.26.07 2.06.22 2.39.15.33.42.6.8.8.38.19 1.1.29 2.14.29v.64h-11.69v-.64c1.06 0 1.77-.1 2.15-.3.38-.21.64-.47.8-.8a7.8 7.8 0 0 0 .22-2.39V4.47a7.6 7.6 0 0 0-.23-2.4c-.15-.33-.42-.6-.8-.79-.38-.2-1.1-.3-2.14-.3V.35h10.61c2.77 0 4.79.2 6.07.6a6.11 6.11 0 0 1 2.52 10.2 7.39 7.39 0 0 1-3.25 1.6l5.5 7.96a12.28 12.28 0 0 0 1.52 1.93c.47.36 1 .55 1.6.59v.64h-7.19l-7.36-10.72h-1.5Zm0-11.54v10.3h.96c1.55 0 2.72-.14 3.5-.43a3.6 3.6 0 0 0 1.83-1.6c.44-.77.66-1.77.66-3.01 0-1.8-.4-3.11-1.22-3.97-.81-.86-2.12-1.29-3.93-1.29h-1.8ZM150.27.01c3.64-.14 6.6.95 8.87 3.28a11.99 11.99 0 0 1 3.41 8.72c0 2.98-.84 5.6-2.54 7.87-2.25 3.01-5.42 4.51-9.52 4.51s-7.28-1.43-9.53-4.3a12.7 12.7 0 0 1-2.66-8.06c0-3.5 1.15-6.4 3.46-8.73a10.82 10.82 0 0 1 8.51-3.3Zm.21 1.1c-2.1 0-3.68 1.11-4.77 3.3-.89 1.8-1.33 4.4-1.33 7.77 0 4.02.68 6.98 2.05 8.9a4.64 4.64 0 0 0 4.01 2.01c1.16 0 2.13-.29 2.9-.86a7.18 7.18 0 0 0 2.3-3.55c.56-1.62.84-3.74.84-6.36 0-3.1-.28-5.44-.85-6.97-.56-1.55-1.28-2.64-2.15-3.28a4.96 4.96 0 0 0-3-.95Zm21.9-.77 11.26 14.58V4.82c0-1.42-.2-2.37-.59-2.87-.54-.66-1.44-.99-2.71-.97V.34h7.54v.64c-.96.13-1.6.3-1.94.5-.33.2-.6.53-.78.98a7.02 7.02 0 0 0-.27 2.35V24.4h-.58L168.87 4.8v14.96c0 1.35.3 2.26.9 2.73.6.48 1.3.72 2.06.72h.54v.64h-8.1v-.64c1.26-.01 2.14-.28 2.63-.8.5-.52.74-1.4.74-2.65V3.17l-.49-.63a4.55 4.55 0 0 0-1.28-1.23c-.37-.2-.9-.3-1.6-.32V.34h8.1Z" clip-rule="evenodd"/>
    </g>
    <defs>
        <clipPath id="a">
            <path fill="#fff" d="M0 0h190.59v62H0z"/>
        </clipPath>
    </defs>
</svg>