<svg xmlns="http://www.w3.org/2000/svg" width="40" height="40" fill="none"><path fill="#CC163F" d="M40 24.3a10.2 10.2 0 0 0-3.5-7.57 8.6 8.6 0 0 0 .37-4.62A8.73 8.73 0 0 0 28.31 5h-10.3v19c0 3.65-3.13 6.63-6.97 6.63l-.37-.01C7 30.44 4.07 27.54 4.07 24V10.6c0-.88.73-1.6 1.62-1.6h4.04a2.01 2.01 0 0 0 2.03-2c0-1.1-.91-2-2.03-2H5.69A5.66 5.66 0 0 0 0 10.6V24.15c.09 5.8 5 10.49 11.04 10.49 6.08 0 11.03-4.77 11.03-10.63V9h6.36a4.7 4.7 0 0 1 4.54 4.75c0 .95-.28 1.88-.8 2.67-.61.94-.46 1.98.48 2.5a6.24 6.24 0 0 1-2.8 11.7h-6.58c-1.12 0-2.03.9-2.03 2 0 1.12.91 2.01 2.03 2.01h6.57A10.2 10.2 0 0 0 40 24.43v-.12Z"/></svg>