<svg xmlns="http://www.w3.org/2000/svg" viewBox="0 0 343.7 343.7">
  <path fill="#3264ac" d="M343.7 29.6c.2.4-.1.7-.3 1l-42.6 91.5-55.3 118.4c-6 13.2-12 26.5-18.5 39.5a60.7 60.7 0 0 1-55.7 34.2h-58.1c-.1-.6.2-.9.4-1.3l68.8-147.5c15.7-33.8 31.3-67.6 47.3-101.2a59 59 0 0 1 49.8-34.4c.2 0 .5 0 .6-.2h63.6Zm-273.4 0c1.4.5 2.8.4 4.2.6A48 48 0 0 1 111.3 58c17.7 37.5 35 75 52.6 112.6l.5 1.2c-.4.3-.8.2-1.2.2-22 0-44.2.4-66.3-.1a47 47 0 0 1-43.8-28.5C35.4 106 18 68.6.7 31.3c-.2-.5-.2-1-.7-1.3.1-.1-.2-.5.3-.4h70Z"/>
  <path fill="#e21714" d="M295.6 314.1a37.2 37.2 0 1 1 .2-74.4 37.2 37.2 0 0 1-.2 74.4Z"/>
</svg>
