<?xml version="1.0" encoding="UTF-8"?><svg id="a" xmlns="http://www.w3.org/2000/svg" viewBox="0 0 159.39 159.39"><path d="M54,20.22c0,7.73,0,14.83,0,21.93.02,16.38.08,32.75.05,49.13-.01,7.47,1.91,14.15,7.97,18.91,5.08,3.99,11.26,5.15,17.55,5.53,7.41.45,14.71-.67,21.98-1.87,3.04-.5,4.16-2.53,4.15-5.67-.07-25,.19-50.01-.09-75.01-.14-12.66,5.36-21.93,15.28-29,3.23-2.3,7.1-3.15,11.03-3.61,5.35-.63,10.76-.77,16.07-.15,5.79.67,8.23,4.07,8.04,10.8-.07,2.57.16,5.1.15,7.66-.04,20-.09,40-.03,60,.01,3.97-1.83,7.25-3.56,10.46-12.89,23.84-30.85,42.91-54.4,56.49-9.9,5.71-20.19,10.6-31.75,12.08-12.13,1.55-24.1.66-34.63-5.74-12.8-7.77-21.69-18.79-25.48-33.87-2.66-10.59-3.78-21.09-1.66-31.7.98-4.89,3.29-9.62,5.6-14.12,7.76-15.04,17.29-28.86,29.68-40.51,4.25-3.99,8.24-8.34,14.04-11.73ZM4.25,59.64c.56-.79,1.19-1.53,1.66-2.37C16.98,37.87,31.92,22.02,49.98,9.02c3.7-2.66,3.66-4.95-.26-7.44-1.41-.89-2.94-1.32-4.61-1.32-3.75,0-7.5-.11-11.25-.1C18.55.21,5.28,12.18,3.72,27.92c-1.03,10.37-.19,20.93-.19,31.41.24.1.49.2.73.3ZM155.27,106.86c-14.73,21.98-33.65,39.32-57.08,51.91.58.31.79.5,1.01.52.87.06,1.74.12,2.61.09,15.82-.55,30.61-5.2,45-11.38,6.79-2.91,9.49-8.32,9.36-15.46-.09-4.75-.04-9.49-.05-14.24,0-3.68,0-7.37,0-11.05-.29-.13-.57-.26-.86-.39Z" fill="#fb6709" stroke-width="0"/></svg>