<svg xmlns="http://www.w3.org/2000/svg" width="40" height="40" fill="none"><path fill="#E2001A" d="m20.82 10.33.03-.05c.32-.46.19-.79-.03-.97-.14-.12-3.23-2-3.23-2a.85.85 0 0 1-.36-.7c0-.44.26-.8.9-.98 1.99-.55 9-.83 11.38-.83.82 0 2.25 0 3.52.03l-.05-.05A20 20 0 0 0 4.61 32.77c2.5-3.61 8.72-12.52 10.08-14.34 1.57-2.1 5.14-6.77 5.74-7.55l.04-.04.35-.51ZM7.8 35.86a20 20 0 0 0 29.92-25.11c.7-.67 1.5-1.73.96-3.03a9.3 9.3 0 0 0-1.14-1.5l.04.08c.48 1.47-.47 2.39-1.17 3-.39.36-5.47 5.14-11.41 10.35a281 281 0 0 1-14.52 11.81c-4.78 3.58-5.72 4.1-5.72 4.1-.13.06-.33.13-.48.13a.89.89 0 0 1-.7-.33c-.04.06-.04.11-.02.15.52.83 1.37 1.78 1.85 1.78.15 0 .37-.06.5-.13-.01-.02.37-.22 1.9-1.3Z"/><path fill="#FEFEFE" d="M20.85 10.28c.3-.46.19-.79-.03-.97-.14-.12-3.23-2-3.23-2a.85.85 0 0 1-.36-.7c0-.46.28-.8.9-.98 1.99-.55 9-.84 11.38-.84 1.12 0 3.36 0 4.8.09 1.65.1 2.9.45 3.22 1.23.6 1.56-.4 2.53-1.12 3.18-.39.35-5.45 5.13-11.41 10.34a280.95 280.95 0 0 1-14.52 11.81c-4.78 3.58-5.72 4.1-5.72 4.1-.13.07-.33.13-.5.13a.87.87 0 0 1-.88-.87c0-.18.05-.36.15-.5 0 0 9.42-13.57 11.12-15.87 1.72-2.29 5.83-7.67 5.83-7.67s.07-.05.37-.48Z"/></svg>