<svg xmlns="http://www.w3.org/2000/svg" width="40" height="40" fill="none"><path fill="#2A426C" d="M39.1 23.2h-2.3l-.3.3c-1.4 1.7-3.5 3-6.4 4.1a32.6 32.6 0 0 1-18.5 1.1c-2.4-.5-4.9-1.3-6.8-2.5a9.1 9.1 0 0 1-3.1-2.5c-.2-.2 0-.3.2-.2 1 1 2.3 1.9 3.8 2.6a26.5 26.5 0 0 0 13.6 2.1c3.3-.2 6.5-1 9.1-2.2 1.5-.7 2.6-1.4 3.4-2.2.3-.3 0-.7-.3-.8h-1.2c-2.1 2.3-6.7 4.6-14.2 4.6C8.5 27.9.4 24.8.5 20c.1-4.8 7.7-7.9 15.1-7.9 7.4 0 12.3 2 14.8 4.7h1.2c.3-.1.4-.5.2-.8-.8-.8-1.9-1.5-3.4-2.2-2.6-1.2-5.7-2-9.1-2.2a34 34 0 0 0-7.5.3c-2.8.5-4.7 1.1-6.2 1.8-1.6.7-2.8 1.7-3.8 2.7-.2.1-.4 0-.2-.2a12 12 0 0 1 3.1-2.5c2-1.2 4.4-2 6.9-2.5a34.7 34.7 0 0 1 18.5 1.1c2.9 1.1 5.1 2.5 6.4 4.2l.3.3h2.4c.6 0 1-.5.7-1.2-3.2-3.6-10.2-6.1-19.6-6.1C9.8 9.5 0 14 0 20s9.7 10.6 20.8 10.5c9.6-.1 15.3-2.6 18.6-5.6 1.1-.9.5-1.7-.3-1.7Z"/><path fill="#2A426C" d="M13.4 22h.2v-3.9h-.8v1.4c0 .1 0 .3-.2.3H11a.2.2 0 0 1-.2-.2V19c0-.7-.5-.8-.7-.8H10V22h.8v-1.3c0-.2.1-.2.3-.2h1.4c.2 0 .3.1.3.3v.6c0 .5.5.6.6.6Zm1.4-4h-.1v3.9h.8l1.6-2.3c.1-.1.3-.2.3.1v1.5c0 .7.5.8.7.8h.2v-3.9h-.8l-1.6 2.3c-.1.2-.3.2-.3 0v-1.5c-.2-.8-.6-.9-.8-.9Zm9.9 4v-3c0-.1.1-.2.3-.2h.6c.3 0 .5-.4.5-.6h-3c-.4 0-.6.3-.7.6h1.2c.2 0 .2.1.2.2v3h.9Zm6.3-4h-.2v3.9h.8l1.6-2.3c.1-.1.3-.2.3.1v1.5c0 .7.5.8.7.8h.2v-3.9h-.8L32 20.4c-.1.2-.3.2-.3 0v-1.5c0-.8-.5-.9-.7-.9ZM7.2 22h.6c.6 0 1.2-.5 1.2-1.2v-1.5c0-.7-.6-1.3-1.3-1.3h-.5c-.7 0-1.2.5-1.2 1.2v.3c0 .2-.1.3-.3.3h-.6a.2.2 0 0 1-.2-.2v-.7c0-.7-.5-.8-.7-.8V22H5v-1.4c0-.2.1-.2.3-.2h.5c.2 0 .2.1.2.3v.2c-.1.6.5 1.1 1.2 1.1Zm-.5-2.7c0-.4.3-.7.7-.7h.2c.4 0 .7.3.7.7v1.4c0 .4-.3.7-.7.7h-.2a.7.7 0 0 1-.7-.7v-1.4Zm13.7-.6h1c.3-.1.4-.3.5-.6h-1.6c-.7 0-1.2.5-1.2 1.2v1.4c0 .7.5 1.2 1.2 1.2H22c0-.3-.3-.5-.5-.6h-1.1c-.3 0-.4-.2-.4-.4v-1.7c0-.3.2-.5.4-.5Zm8.5-.6h-2.1V22h.9v-1.3h1.1c.5 0 .9-.3 1.1-.6.2-.4.1-.8 0-1.3-.1-.4-.5-.7-1-.7Zm-.2 2h-1l-.1-.1v-1.1l.1-.1h1.1c.3 0 .4.2.4.4v.5c.1.1-.2.4-.5.4Zm10.4 1.1c0 .7.5.8.7.8h.2v-3.9h-1c-.2 0-.3.1-.3.2l-.8 2.1c-.1.3-.3.3-.4 0l-.7-2c0-.1-.1-.2-.3-.2h-1V22h.2c.2 0 .7 0 .7-.8v-1.5c0-.3.2-.3.3-.1l.7 1.8h.8l.7-1.8c.1-.2.3-.2.3.1l-.1 1.5Z"/></svg>