<svg xmlns="http://www.w3.org/2000/svg" width="40" height="40" fill="none"><path fill="#181716" d="M40 20c0 4.6-.4 12.1-3.8 15.9-2 2.2-5 4-9.6 4.1l-.1-2.2c4-.7 6.5-3.3 7-7 .4-4 .4-5.6.4-10.8 0-5.2 0-6.8-.4-10.7-.5-3.8-2.5-6.4-6.6-7.1L26.6 0c4.6 0 7.6 1.9 9.6 4.1C39.6 8 39.9 15.4 39.9 20ZM6.4 30.7C6 26.8 6 25.2 6 20c0-5.2 0-6.8.5-10.7.5-4.4 3.2-6.4 7.3-7.1L14 0C9.4 0 5.7 1.9 3.7 4.1.3 8 0 15.4 0 20S.3 32.1 3.7 36c2 2.2 5 4.1 9.6 4.1l.1-2.2c-4-.7-6.5-3.3-7-7Zm22-5.9c0 4-1 7.3-4.4 9.2-1.1.6-2.8 1-4.1 1-1.4 0-3-.2-4.1-1a9.1 9.1 0 0 1-2.5-2c-1.5-2-2.2-4.2-2.2-8.8 0-9 .1-12.8 2.3-14.5 4.2-3.2 8.2-5.2 8.6-6.6.4-1 0-1.6 0-1.6l1.7-.5c1.2 4.1 2 8-1.2 9.7l-6 3c-2 1-3.3 2-3.5 3.9l-.2 2.6h.8c.3-1 .7-1.9 1.7-2.7a7.8 7.8 0 0 1 5.2-1.9c2.1 0 4 .5 5.4 1.8 2.2 2 2.6 5.3 2.6 8.4Zm-6.4-6c-.5-1.4-1.3-1.6-2.2-1.6-1 0-1.7.3-2.2 1.6-.6 1.4-.8 3.4-.8 6s.1 4.7.7 6c.6 1.3 1.3 1.8 2.3 1.8.9 0 1.7-.4 2.2-1.7.6-1.4.7-3.5.7-6.1a17 17 0 0 0-.7-6Z"/></svg>