<svg xmlns="http://www.w3.org/2000/svg" viewBox="0 0 67 67"><path d="M40 42.9v-7.6c0-.3 0-.9.4-.9.6 0 .3.6.3 1v15c0 .4.2 1-.2 1-.6 0-.4-.6-.4-1V43ZM38.6 19v7.5c0 .3.2.9-.3.9-.4 0-.4-.5-.4-.8V11.2c0-.3 0-.8.4-.8.5 0 .3.6.3 1V19Z" style="fill:#83c67e;stroke-width:0"/><path d="M26.8 30.4V38c0 .3.2.8-.3.8-.4 0-.3-.5-.3-.8V22.7c0-.3 0-.7.3-.7.4 0 .3.4.3.7v7.7Z" style="fill:#33a69a;stroke-width:0"/><path d="M32.6 8.4V.8c0-.3-.1-.8.3-.8.5 0 .3.5.3.8V16c0 .3.1.8-.3.8s-.3-.5-.3-.8V8.4Z" style="fill:#149bdb;stroke-width:0"/><path d="M38.6 43.9v7.5c0 .4.2 1-.3 1s-.4-.6-.4-1v-15c0-.4 0-1 .4-1 .5 0 .3.7.3 1V44ZM43 42v7.5c0 .3 0 .8-.5.8-.4 0-.3-.5-.3-.8V34.2c0-.3 0-.8.3-.8.5 0 .4.5.4.8V42ZM46.5 14.8V7.3c0-.3-.2-.8.3-.8s.4.5.4.8v15.3c0 .3.1.8-.4.8-.4 0-.3-.5-.3-.8v-7.8ZM44.4 15.9V8.3c0-.3-.2-.9.3-.9.6 0 .3.6.3 1v15c0 .4.2 1-.3 1-.6 0-.3-.7-.3-1v-7.5Z" style="fill:#83c67e;stroke-width:0"/><path d="M29 31.5V39c0 .4.1.9-.4.9-.3 0-.2-.5-.2-.8V23.9c0-.3-.2-1 .3-.9.4 0 .3.6.3 1v7.5Z" style="fill:#33a69a;stroke-width:0"/><path d="M43 17v7.5c0 .3 0 .9-.5.8-.4 0-.3-.5-.3-.8V9.2c0-.3-.1-.8.4-.8.4 0 .3.5.3.8V17ZM40 18v-7.7c0-.4 0-1 .4-1 .5 0 .4.6.4 1v15.2c0 .3 0 .8-.3.8-.6 0-.4-.5-.4-.8v-7.6Z" style="fill:#83c67e;stroke-width:0"/><path d="M30.5 32.5v-7.7c0-.3-.1-.8.3-.8s.3.5.3.8V40c0 .3.1.8-.3.8s-.3-.5-.3-.8v-7.7ZM33.2 33.5v7.4c0 .4.2 1-.2 1-.6 0-.4-.6-.4-.9V25.8c0-.3 0-.8.3-.8.5 0 .3.5.3.8v7.7Z" style="fill:#33a69a;stroke-width:0"/><path d="M45 41v7.4c0 .3.3 1-.3 1-.5-.1-.3-.7-.3-1V33.3c0-.3-.1-.9.3-.9.5 0 .4.6.4.9V41ZM46.5 39.8v-7.3c0-.4-.2-1 .3-1 .6 0 .4.5.4.9v15c0 .4.1 1-.3 1-.6 0-.4-.6-.4-1v-7.7ZM30.4 57.5V50c0-.4-.1-.9.4-.9.4 0 .3.5.3.8v15.4c0 .3.1.8-.3.8-.5 0-.4-.6-.4-.9v-7.7ZM32.6 58.5v-7.6c0-.3-.2-.8.4-.8.4 0 .3.5.3.8v15.3c0 .3.1.9-.4.8-.4 0-.3-.5-.3-.8v-7.7Z" style="fill:#83c67e;stroke-width:0"/><path d="M26.8 55.5v7.7c0 .3.1.7-.3.8-.4 0-.3-.5-.3-.8V47.9c0-.3 0-.8.3-.8.4 0 .3.5.3.8v7.6Z" style="fill:#33a69a;stroke-width:0"/><path d="M20.9 27v-7.6c0-.3-.2-1 .2-1 .5 0 .4.6.4 1v15c0 .4 0 1-.3 1-.6 0-.3-.7-.3-1v-7.5Z" style="fill:#149bdb;stroke-width:0"/><path d="M28.3 56.4V49c0-.3-.2-1 .4-1 .4 0 .3.7.3 1v15c0 .4.1 1-.3 1-.5 0-.4-.6-.4-1v-7.6Z" style="fill:#83c67e;stroke-width:0"/><path d="M34.8 34.5v-7.7c0-.3-.2-.8.2-.8.5 0 .4.4.4.7v15.4c0 .2 0 .7-.4.7s-.2-.5-.2-.8v-7.5ZM24.7 54.5v7.2c0 .4.2 1.2-.3 1.2-.6 0-.3-.8-.3-1.2V47c0-.3-.2-.9.3-1 .4 0 .3.6.3 1v7.5Z" style="fill:#33a69a;stroke-width:0"/><path d="M34.8 9.4V1.8c0-.3-.2-.8.3-.8.4 0 .3.4.3.7v15.4c0 .3 0 .7-.3.8-.5 0-.3-.5-.3-.8V9.4Z" style="fill:#1d9ebd;stroke-width:0"/><path d="M20.9 51.9v-7.7c0-.3-.2-.8.2-.8.5 0 .4.5.4.8v15.3c0 .4 0 .8-.3.8-.5 0-.3-.5-.3-.7v-7.7Z" style="fill:#149bdb;stroke-width:0"/><path d="M24.7 29.3v7.8c0 .3 0 .7-.3.7-.4 0-.3-.4-.3-.7V21.7c0-.3 0-.7.3-.7s.3.4.3.7v7.6ZM27.8 49v7.6c0 .2.2.7-.2.7s-.3-.4-.3-.6V41c0-.3 0-.7.3-.6.4 0 .2.4.2.6v8ZM27.6 15.3c.4.4.2.8.2 1.2V32s0 .3-.2.3-.3-.2-.3-.3V16c0-.2 0-.4.3-.7Z" style="fill:#1d9ebd;stroke-width:0"/><path d="M29.4 22.9v-7.6c0-.3-.2-.8.4-.8.3 0 .2.5.2.8v15.2c0 .3.1.8-.3.8s-.2-.5-.2-.8v-7.7ZM32 30.5c-.5-.4-.4-.9-.4-1.2V13.8c0-.1 0-.3.2-.4.3 0 .3.3.3.5v16l-.1.6ZM34 29.4c-.3-.3-.2-.6-.2-1V12.9c0-.1 0-.3.2-.3.3 0 .3.1.3.3v15.8c0 .3 0 .5-.3.8Z" style="fill:#33a69a;stroke-width:0"/><path d="M45.5 14.5V6.8c0-.3-.1-.8.3-.8s.2.5.3.7v15.4c0 .2.1.8-.3.8-.5 0-.3-.6-.3-1v-7.4ZM44 13.5V21c0 .3 0 .8-.4.8-.3 0-.2-.5-.2-.7V5.8c0-.3-.2-.8.3-.8.4 0 .2.5.2.8v7.7Z" style="fill:#83c67e;stroke-width:0"/><path d="M34.3 45.9v7.6c0 .3.2.8-.3.8-.3 0-.2-.4-.2-.7V38.2c0-.3-.1-.7.2-.7.5 0 .3.4.3.7V46ZM31.9 38.4c.4.3.2.8.2 1.1v14.9c0 .3.2.9-.2.9-.5 0-.3-.6-.3-1v-15c0-.3-.1-.7.3-1ZM30 47.9v7.7c0 .3.1.7-.3.7-.3 0-.2-.4-.2-.6V40c0-.2 0-.6.2-.6.4 0 .3.4.3.7v7.8ZM39.3 2.9c.4.3.3.8.3 1.1v15.1c0 .3.1.7-.2.7-.4 0-.3-.4-.3-.6v-15c0-.4-.2-.9.2-1.3ZM37 10.3V2.7c0-.3-.2-.8.3-.7.3 0 .2.4.2.7v15.4c0 .3 0 .7-.3.7-.4 0-.3-.4-.3-.6v-8Z" style="fill:#33a69a;stroke-width:0"/><path d="M41.8 37.6v7.5c0 .3.1.8-.3.8s-.3-.4-.3-.7V29.8c0-.3-.1-.8.3-.8s.3.6.3.8v7.8Z" style="fill:#83c67e;stroke-width:0"/><path d="M25.5 58.4c-.5-.3-.3-.7-.3-1V41.8c0-.1 0-.3.2-.3.3 0 .3.1.3.3v15.6c0 .4.1.7-.2 1Z" style="fill:#1d9ebd;stroke-width:0"/><path d="M36.1 53.4c-.3-.4-.2-.8-.2-1.2V36.8c0-.1 0-.3.3-.3.2 0 .2.1.2.3v15.6c0 .3.2.7-.2 1Z" style="fill:#33a69a;stroke-width:0"/><path d="M44 38.4v7.7c0 .3 0 .8-.4.8s-.2-.5-.2-.8V30.7c0-.2-.2-.7.3-.7.4 0 .2.5.2.8v7.6Z" style="fill:#83c67e;stroke-width:0"/><path d="M19.8 52.6v-7.7c0-.2-.1-.7.3-.7s.3.4.3.6v15.5c0 .3 0 .7-.3.7-.4 0-.3-.4-.3-.7v-7.7Z" style="fill:#149bdb;stroke-width:0"/><path d="M22.5 53.6v7.7c0 .2.1.6-.2.7-.4 0-.3-.4-.3-.7V45.8c0-.3-.1-.7.3-.7.3 0 .2.5.2.7v7.8Z" style="fill:#1d9ebd;stroke-width:0"/><path d="M22.5 28.5v7.7c0 .2.1.6-.3.6-.3 0-.2-.4-.2-.6V20.7c0-.3-.2-.7.3-.7.3 0 .2.4.2.7v7.8ZM20.4 27.5v7.7c0 .2 0 .6-.3.7-.4 0-.3-.4-.3-.7V19.6c0-.2 0-.6.3-.6.5 0 .3.5.3.7v7.8ZM23.6 26v7.5c0 .3 0 .8-.3.8-.5 0-.3-.5-.3-.8V18.4c0-.3-.2-.9.3-.9.4 0 .3.6.3 1V26Z" style="fill:#149bdb;stroke-width:0"/><path d="M46 39.5v7.7c0 .2.2.6-.2.6s-.3-.4-.3-.6V31.6c0-.2 0-.6.3-.6.4 0 .3.4.3.6v8Z" style="fill:#83c67e;stroke-width:0"/><path d="M23.6 51v7.6c0 .2.1.7-.4.7-.3 0-.2-.4-.2-.7V43.1c0-.2 0-.6.3-.6.4 0 .3.5.3.7V51Z" style="fill:#149bdb;stroke-width:0"/><path d="M35.9 20v-7.8c0-.3-.1-.7.3-.7.3 0 .2.4.2.7v15.4c0 .3.1.7-.2.7-.4 0-.3-.4-.3-.7V20Z" style="fill:#33a69a;stroke-width:0"/><path d="M25.2 24.8v-7.6c0-.2-.2-.7.3-.7.3 0 .2.5.2.7v15.3c0 .3.2.8-.3.7-.4 0-.2-.4-.2-.7v-7.7Z" style="fill:#1d9ebd;stroke-width:0"/><path d="M39.6 36.5v7.6c0 .2.2.7-.3.7-.3 0-.2-.5-.2-.7V28.8c0-.3-.1-.7.2-.8.5 0 .3.5.3.8v7.7ZM41.2 12.4V4.8c0-.3-.1-.8.3-.8s.3.5.3.7v15.4c0 .2.1.7-.4.7-.3 0-.2-.5-.2-.7v-7.7ZM37.5 35.6v7.3c0 .3.2.8-.3.9-.5 0-.3-.6-.3-.9V28c0-.3-.1-.8.3-.8.5 0 .3.5.3.8v7.7Z" style="fill:#83c67e;stroke-width:0"/></svg>
