<svg xmlns="http://www.w3.org/2000/svg" viewBox="0 0 325.6 354.9"><path fill="#134d87" d="M104.1 227.1c6.4-.5 13 .5 17.9 4.7s7.7 7.1 13.5 6.1a27.3 27.3 0 0 0 12.9-5.6c5.8-4.7 6.9-11.4 6.1-18.5q-.7-6-1.2-12.3a2.8 2.8 0 0 1 .3-1.3 13 13 0 0 1 17.4-4.6c4.9 2.4 8.1 6.6 9.7 12.5s-9.9 8.7-5.8 17.5 11.6 11.9 20.3 11.6c5.8-.1 11.6-4.5 16.4-7.5 3.2-2 7.4-1.1 10.9-1.3.6-.1.7-.3.4-.8-18.8-26-35.6-54.1-53.4-79.9a1 1 0 0 1-.2-.9l.7-110.5c0-11.5.2-22.6.4-33.1a4.2 4.2 0 0 1 .6-2.5c.7-.9 1.4-.9 2 0q73.6 106.8 143.3 215.1c5.7 9 13 22.8 7.1 33.2-9.6 16.9-22.6 30.7-36.9 47a64 64 0 0 1-12.7 12.2 56.8 56.8 0 0 1-29.6 7.8 202.6 202.6 0 0 1-34.8-.6 50.1 50.1 0 0 1-32.2-17.7c-.2-.2-.5-.2-.6 0-3.5 5.5-4 11.7 2.1 15.3 4.5 2.8 9.7 3 14.8 3.7s6.3 9.5 5.1 13.9a25.5 25.5 0 0 1-4.6 9.5c-11.6 15.7-34 18.6-50.4 10.3-9.8-5-19.4-16.4-16.8-28.2.7-3.5 2.7-5.3 6.1-5.7 5.5-.5 11.9-1.1 15.9-4.9s2.9-9.5.1-13.9a.3.3 0 0 0-.5 0 50.6 50.6 0 0 1-32.2 17.7 201.3 201.3 0 0 1-43.2-.1c-9-.9-16.4-3.5-22.2-7.7-3-2.1-7-6-11.8-11.7-13.1-15.1-26.8-29.8-36.6-46.4-5.8-9.8.1-23.1 5.7-31.8A8259.9 8259.9 0 0 1 151.3 2.4a9.4 9.4 0 0 1 2-2.3.8.8 0 0 1 1.1.3 6.6 6.6 0 0 1 .6 2.7c.3 12 .5 24.1.5 36.2.2 37.2.4 73 .8 107.3a2 2 0 0 1-.4 1.3l-7.9 11.6a3418 3418 0 0 0-32.8 50.8c-2.9 4.5-6.7 10-11.3 16.5-.1.1 0 .4.2.3m41.8-204-10.4 15.6a.9.9 0 0 0 0 .7l11.8 16c.3.4.5.4.5-.2V23.6c0-2.2-.6-2.4-1.9-.5m31.5 32a.3.3 0 0 0 .6.2l11.8-16.1c.1-.1.1-.2 0-.4l-11.1-16.6a.3.3 0 0 0-.5-.1l-.7.8-.1.2v32m-30.2 83.4a.3.3 0 0 0 .6-.2V69.4l-.1-.2-16.8-22.8a.3.3 0 0 0-.5 0l-24.1 36.2v.3l40.9 55.6m30.2-69.2v69.1c0 .3.4.4.5.2l41-55.7a.2.2 0 0 0 0-.3l-24.1-36.2a.3.3 0 0 0-.5 0l-16.9 22.9m-53.7 114.4c.2.1.4.1.5-.1l21.5-32.2a.3.3 0 0 0 0-.4l-44.3-60.2a.4.4 0 0 0-.6 0L79.4 123a.3.3 0 0 0 0 .4l44.3 60.3m55.8-32.7a.3.3 0 0 0 0 .4l21.5 32.2a.3.3 0 0 0 .5 0l44.3-60.2a.3.3 0 0 0 0-.4l-21.4-32.2a.4.4 0 0 0-.6 0L179.5 151M100 219a.5.5 0 0 0 .7 0l16.6-24.9a.4.4 0 0 0 0-.5L73 133.5a.3.3 0 0 0-.6.1l-16.6 24.9a.3.3 0 0 0 0 .4L100 219m107.9-25.3c-.1.1-.1.2 0 .4l16.7 25a.3.3 0 0 0 .5 0l44.3-60.2a.3.3 0 0 0 0-.4l-16.6-25a.4.4 0 0 0-.6 0l-44.3 60.2M86.4 246.2c.2.2.5.2.6 0l8.2-13.3a.3.3 0 0 0 0-.4l-46.8-62.6a.3.3 0 0 0-.6.1l-9.7 14.8a.3.3 0 0 0 0 .4l48.3 61M230 232.5a.3.3 0 0 0 0 .4l8.2 13.2a.3.3 0 0 0 .6.1l48.3-60.9a.5.5 0 0 0 0-.5l-9.7-14.8c-.1-.2-.5-.3-.6 0L230 232.5M26.9 201a.5.5 0 0 0-.7 0l-4.6 7.2a.3.3 0 0 0 0 .4l46.5 62c.1.2.4.2.6 0l4.9-6.6a.4.4 0 0 0 0-.5L26.9 201m276.7 7.6a.6.6 0 0 0 .1-.4L299 201a.5.5 0 0 0-.6-.1l-46.8 62.7a.3.3 0 0 0 0 .4l5 6.7a.5.5 0 0 0 .5 0l46.5-62.1M55.5 292.3c.2.3.6.3.7 0l2.2-3.1a.4.4 0 0 0 0-.5l-46.7-62.4c-.2-.3-.5-.2-.7 0l-1.9 2.8a.4.4 0 0 0 0 .5l46.4 62.7m211.3-3.5a.3.3 0 0 0 0 .4l2.2 3.2a.5.5 0 0 0 .7 0l46.4-62.8a.4.4 0 0 0 0-.5l-1.9-2.8a.4.4 0 0 0-.7-.1l-46.7 62.6Z"/></svg>
