<svg xmlns="http://www.w3.org/2000/svg" width="40" height="40" fill="none"><path fill="#01A489" fill-rule="evenodd" d="M40 14.7 37.4 16l2.6.8-2.6 1.3 2.6 1-2.3 1 2.3.9-10 5v-.8l7.7-4-1.3-.4-6.4 3.3V23l7.4-3.8-1.2-.4-6.2 3v-1l7.4-3.8-1.2-.4-6.2 3.2v-1.2l7.4-3.7L20 9 2.6 15l7.4 3.7v1.2l-6.1-3.2-1.3.5 7.4 3.7v1l-6.1-3-1.3.4L10 23v1l-6.4-3.2-1.3.5 7.7 3.9v.8L0 21l2.3-.8L0 19l2.6-.9L0 16.8l2.6-.8L0 14.7 20 8l20 6.7Zm-20-4.6-14.8 5 5 2.5c.8-3 5-5.1 9.8-5.1 4.9 0 9 2.1 9.9 5l5-2.4L20 10Zm6.7 5.1c1.4 1 2.3 2.1 2.3 3.5 0 1.3-.9 2.5-2.3 3.4v-1.3c.7-.6 1.2-1.3 1.2-2.1s-.5-1.6-1.2-2.2v-1.3Z" clip-rule="evenodd"/><path fill="#CCAC70" d="M30 25.2v1.1c0 3.5-4.5 6.2-10 6.2s-10-2.7-10-6.2v-1.1c0 3.4 4.5 6.2 10 6.2s10-2.8 10-6.2Zm-.2-5c-1 2.7-5 4.7-9.8 4.7-5.5 0-10-2.7-10-6.2v1c0 3.5 4.5 6.3 10 6.3s10-2.8 10-6.2v-1c0 .4 0 .9-.2 1.3Zm-9.8 9c-5.5 0-10-2.7-10-6.2v1c0 3.5 4.5 6.3 10 6.3s10-2.8 10-6.2V23c0 3.5-4.5 6.2-10 6.2Zm0-2.2c-5.5 0-10-2.7-10-6.2V22c0 3.5 4.5 6.2 10 6.2s10-2.7 10-6.2v-1c0 3.4-4.5 6.1-10 6.1Z"/></svg>