<svg xmlns="http://www.w3.org/2000/svg" width="43" height="48" fill="none">
    <g fill-rule="evenodd" clip-path="url(#a)" clip-rule="evenodd">
        <path fill="#fff" d="M41.29 25.3c0 7.47-1.71 13.03-5.14 16.65-3.42 3.63-8.7 5.44-15.83 5.44-6.66 0-11.71-1.81-15.16-5.44C1.72 38.33 0 32.86 0 25.55V1.06A1.04 1.04 0 0 1 1.04 0h12.08a1.05 1.05 0 0 1 1.04 1.04V26.1c0 2.99.56 5.28 1.68 6.9a6.1 6.1 0 0 0 9.64.15c1.1-1.52 1.65-3.76 1.64-6.72v-4.7H41.3v3.58Z"/>
        <path fill="#fff" d="M40.2 18.99H27.11V1.09A1.1 1.1 0 0 1 28.23 0h1.96a11.05 11.05 0 0 0 11.1 11.06V19H40.2Z"/>
        <path fill="#F4821F" d="M32.96 0h7.24a1.1 1.1 0 0 1 1.09 1.1v7.2A8.35 8.35 0 0 1 32.96 0Z"/>
    </g>
    <defs>
        <clipPath id="a">
            <path fill="#fff" d="M0 0h43v48H0z"/>
        </clipPath>
    </defs>
</svg>