<?xml version="1.0" encoding="UTF-8"?><svg id="a" xmlns="http://www.w3.org/2000/svg" viewBox="0 0 45 45"><path d="M4.25,15.09L.14,38.02c3.61,0,27.42,0,27.37,0h1.55c8.52-.04,13.44-2.08,14.33-8.63.6-4.42-3.06-7.26-6.05-7.86,3.02-.58,6.69-1.67,7.45-6.28.57-3.45-2.43-8.26-10.59-8.26H13.91c-5.56,0-9.05,4.04-9.66,8.12" fill="#fdb913" stroke-width="0"/><path d="M21.45,15.21c-1.04,1.33-7.12,8.41-11.55,13.9.95-4.54,2.61-14.26,4.1-16.26.87-1.17,2.12-1.98,3.52-2.27,0,0-7.74-2.3-9.97,7.4-.82,3.57-3.34,16.21-3.34,16.22.05.11,7.05.71,10.45-3.38,1.52-1.83,9.04-11.47,11.11-14.24,4.35-5.86,7.04-6.25,7.04-6.25,0,0-6.92-.78-11.34,4.89" fill="#fff" stroke-width="0"/></svg>