<svg xmlns="http://www.w3.org/2000/svg" viewBox="0 0 45 45">
  <path d="M4.25 15.09.14 38.02h28.92c8.52-.04 13.44-2.08 14.33-8.63.6-4.42-3.06-7.26-6.05-7.86 3.02-.58 6.69-1.67 7.45-6.28.57-3.45-2.43-8.26-10.59-8.26H13.91a9.57 9.57 0 0 0-9.66 8.12" fill="#fdb913"/>
  <path d="M21.45 15.21c-1.04 1.33-7.12 8.41-11.55 13.9.95-4.54 2.61-14.26 4.1-16.26a5.89 5.89 0 0 1 3.52-2.27s-7.74-2.3-9.97 7.4A1044.3 1044.3 0 0 0 4.21 34.2c.05.11 7.05.71 10.45-3.38a750.57 750.57 0 0 0 11.11-14.24c4.35-5.86 7.04-6.25 7.04-6.25s-6.92-.78-11.34 4.89" fill="#fff"/>
</svg>
