<svg xmlns="http://www.w3.org/2000/svg" viewBox="0 0 120.85 120.85">
  <path d="M103.13 18A60.17 60.17 0 0 0 60.4.42c-5.74 0-11.45.8-16.96 2.38L48 12.45a50.33 50.33 0 0 1 12.4-1.55c27.5 0 49.87 22.22 49.87 49.53S87.9 109.96 60.4 109.96 10.53 87.75 10.53 60.43a48.97 48.97 0 0 1 8.71-27.93l-5.06-10.71A59.38 59.38 0 0 0 1.79 45.76l-.17.71-.17.71c-.16.71-.31 1.43-.44 2.16l-.13.72-.1.61-.04.27-.09.57-.1.67c0 .03 0 .07-.02.11l-.09.69-.13 1.18-.06.59-.04.44-.06.73v.02l-.05.72-.03.48-.02.38-.02.63-.02.69v1.56a60.04 60.04 0 0 0 .54 8.09v.09l.23 1.45.12.73a59.86 59.86 0 0 0 14.06 29.18 60.56 60.56 0 0 0 27.26 17.69 60.8 60.8 0 0 0 60.93-14.79 60.04 60.04 0 0 0 13.1-19.47 59.58 59.58 0 0 0 0-45.93 60.04 60.04 0 0 0-13.1-19.47" fill="#555db3"/>
  <path d="M60.38 92.53 85.82 39H73.09L60.4 65.69 32.67 7.02a59.84 59.84 0 0 0-9.75 6.29l37.46 79.22Z" fill="#555db3"/>
</svg>
