<svg xmlns="http://www.w3.org/2000/svg" width="40" height="40" fill="none"><path fill="#E32D29" fill-rule="evenodd" d="M23.9 30.8s1.04 2.77 2 2.95H13.85a5.26 5.26 0 0 1-5.28-4L1.56 8.96S.96 6.43.01 6H12.3c2.42.09 4.07.95 5.02 4.16L23.9 30.8Z" clip-rule="evenodd"/><path fill="url(#a)" fill-rule="evenodd" d="M23.9 30.8s1.04 2.77 2 2.95H13.85a5.26 5.26 0 0 1-5.28-4L1.56 8.96S.96 6.43.01 6H12.3c2.42.09 4.07.95 5.02 4.16L23.9 30.8Z" clip-rule="evenodd" opacity=".2"/><path fill="#E32E2A" fill-rule="evenodd" d="M16.2 30.8s-1.04 2.77-2 2.95h12.04a5.26 5.26 0 0 0 5.28-4l6.93-20.8S39.05 6.43 40 6H27.8c-2.43 0-3.99.87-4.94 4.08L16.2 30.8Z" clip-rule="evenodd"/><defs><linearGradient id="a" x1="12.95" x2="12.95" y1="3.64" y2="36.19" gradientUnits="userSpaceOnUse"><stop stop-color="#fff" stop-opacity="0"/><stop offset=".33" stop-color="#fff" stop-opacity="0"/><stop offset=".76" stop-color="#0E1513"/><stop offset="1" stop-color="#0E1513"/></linearGradient></defs></svg>