<svg xmlns="http://www.w3.org/2000/svg" viewBox="0 0 43.35 46.34"><path d="M27.62 25.64V10.4c-.1-.64-.17-1.29-.3-1.93A9.66 9.66 0 0 0 23 2.25c-.21-.15-.46-.25-.59-.49a2.14 2.14 0 0 1-.27-.09A16.72 16.72 0 0 0 15 .08a28.62 28.62 0 0 0-4.35.22 13.27 13.27 0 0 0-5.07 1.57 9.86 9.86 0 0 0-3.19 2.94 10.27 10.27 0 0 0-1.53 5.78C.8 12 .86 13.5.84 15c0 .46.1.61.58.6h9.72c.56 0 .63-.18.64-.68a39.94 39.94 0 0 1 .1-5.13A2 2 0 0 1 13.53 8 2.14 2.14 0 0 1 16 9.14a5.54 5.54 0 0 1 .35 1.95c.05 2 0 3.92 0 5.88 0 .38-.12.52-.49.64a57.29 57.29 0 0 0-6.93 2.73C6.16 21.67 3.66 23.27 2 26a12.78 12.78 0 0 0-2 6.56v4.13a12.42 12.42 0 0 0 .61 3.83 7.6 7.6 0 0 0 6.79 5.69 21.41 21.41 0 0 0 8.08-.61 10.6 10.6 0 0 0 4-2c.83-.73.58-.71 1.43 0a11 11 0 0 0 6.66 2.6v-9.83q.06-5.37.05-10.73ZM16.3 35.46a5 5 0 0 1-.62 2.89 2.41 2.41 0 0 1-3.77 0 3.21 3.21 0 0 1-.62-2c0-2-.06-4 0-6A6.79 6.79 0 0 1 14 25.27 9.74 9.74 0 0 1 16.33 24c0 3.87.04 7.66-.03 11.46Z"/><path fill="#ea002a" d="M27.6 46.24v-9.83c.72 1.71 1.45 1.68 3.3 1.49.92-.1 1.45-.95 1.46-2.06s0-2.51 0-3.77c0-.44.14-.59.59-.59h9.77c.47 0 .61.16.61.62a30 30 0 0 1-.27 5.36A9.87 9.87 0 0 1 41 42.07a11.27 11.27 0 0 1-7.24 4 39.39 39.39 0 0 1-6.16.17ZM43.33 13.29A22.28 22.28 0 0 0 43.1 10c-.62-4.4-3.3-7.18-7.21-8.84a16.38 16.38 0 0 0-9.44-.84 10.51 10.51 0 0 0-4 1.44c.13.24.38.34.59.49a9.66 9.66 0 0 1 4.25 6.22c.13.64.2 1.29.3 1.93a2 2 0 0 1 1.11-1.84 2.45 2.45 0 0 1 2.55.23 2.45 2.45 0 0 1 .75 2.05v7.12c0 .45-.17.59-.6.58h-3.82v7.11h15c.57 0 .74-.15.74-.73 0-3.92.02-7.76.01-11.63Z"/></svg>
