<svg xmlns="http://www.w3.org/2000/svg" viewBox="0 0 46.34 46.34"><path d="M29.12 25.64V10.4c-.1-.64-.17-1.29-.3-1.93a9.65 9.65 0 0 0-4.32-6.22c-.21-.15-.46-.25-.59-.49a1.43 1.43 0 0 1-.27-.09A16.83 16.83 0 0 0 16.5.08c-1.45-.04-2.91.04-4.35.22-1.78.18-3.5.71-5.07 1.57a9.86 9.86 0 0 0-3.19 2.94 10.3 10.3 0 0 0-1.53 5.78C2.3 12 2.36 13.5 2.34 15c0 .46.1.61.58.6h9.72c.56 0 .63-.18.64-.68-.08-1.71-.04-3.42.1-5.13A2 2 0 0 1 15.03 8c.99-.26 2.03.22 2.47 1.14.23.62.35 1.28.35 1.95.05 2 0 3.92 0 5.88 0 .38-.12.52-.49.64a57.3 57.3 0 0 0-6.93 2.73C7.66 21.67 5.16 23.27 3.5 26a12.81 12.81 0 0 0-2 6.56v4.13c0 1.3.21 2.59.61 3.83a7.6 7.6 0 0 0 6.79 5.69c2.71.31 5.45.11 8.08-.61a10.62 10.62 0 0 0 4-2c.83-.73.58-.71 1.43 0a11.02 11.02 0 0 0 6.66 2.6v-9.83c.04-3.58.06-7.16.05-10.73ZM17.8 35.46c.09 1-.13 2.01-.62 2.89a2.41 2.41 0 0 1-3.77 0 3.25 3.25 0 0 1-.62-2c0-2-.06-4 0-6a6.82 6.82 0 0 1 2.71-5.08c.72-.53 1.5-.95 2.33-1.27 0 3.87.04 7.66-.03 11.46Z"/><path fill="#ea002a" d="M29.1 46.24v-9.83c.72 1.71 1.45 1.68 3.3 1.49.92-.1 1.45-.95 1.46-2.06s0-2.51 0-3.77c0-.44.14-.59.59-.59h9.77c.47 0 .61.16.61.62.07 1.79-.02 3.58-.27 5.36a9.95 9.95 0 0 1-2.06 4.61 11.3 11.3 0 0 1-7.24 4c-2.05.22-4.11.27-6.16.17Zm15.73-32.95c0-1.1-.07-2.2-.23-3.29-.62-4.4-3.3-7.18-7.21-8.84-3-1.2-6.28-1.5-9.44-.84-1.42.2-2.78.69-4 1.44.13.24.38.34.59.49a9.67 9.67 0 0 1 4.25 6.22c.13.64.2 1.29.3 1.93a2 2 0 0 1 1.11-1.84 2.45 2.45 0 0 1 2.55.23c.56.53.84 1.29.75 2.05v7.12c0 .45-.17.59-.6.58h-3.82v7.11h15c.57 0 .74-.15.74-.73 0-3.92.02-7.76 0-11.63Z"/></svg>
