<svg xmlns="http://www.w3.org/2000/svg" viewBox="0 0 799.8 799.8"><path fill="#ea4324" d="M295 160h45l41 1 135 4a1011 1011 0 0 1 167 23l45 10c2 1 5 0 3 4l-19 32c-18 33-35 67-51 101-9 21-18 41-24 63-11 34-19 69-26 103l-13 68c-4 16-9 30-20 42a80 80 0 0 1-54 27c-21 2-41-1-61-6l-118-30c-18-4-35-9-52-10h-29l-8 1c-10 2-20 4-29 8-3 1-4 0-4-3-2-6-5-10-10-14-14-14-32-22-52-27-21-5-44-7-65-10h-4c-15-3-29-6-43-12l-17-8-11-8c-1-3-4-4-6-5l-1-1-1-1-5-6c-4-4-5-11-8-16v-18c1 1 1 0 1-1l7-18 10-14 8-10 18-23 4-4 1-2 1-1 11-11a1980 1980 0 0 1 158-163c18-17 38-33 58-50l18-15Z"/><path fill="#452f8e" d="m603 557-5 12 13-68c7-34 15-69 26-103 7-22 15-42 24-63 16-34 33-68 51-101l40 15 19 7c2 1 3 1 1 3l-19 24-1 2c-2 0-3 2-4 3l-6 9c-20 24-39 50-57 76s-34 54-47 84c-11 26-21 52-29 79-2 7-6 13-6 21ZM168 202c3-4 4-9 6-14 1-2 1-3 4-3l99-10c-20 17-40 33-58 50a2195 2195 0 0 0-73 70c-29 30-58 60-85 93l-11 11c0-2 3-2 2-5 2 1 2-1 3-3a949 949 0 0 0 113-189Z"/><path fill="#f7e623" d="M480 502c0-14-4-28-7-41-4-17-9-33-8-51 0-12 3-24 9-35 9-15 23-22 39-27l6-2c7 0 10-4 13-10l12-21c2-3 2-4-2-6-11-6-15-14-14-23 1-7 5-12 10-17 11-11 23-19 37-25l40-19c4-3 9-6 11-11v-3h-3l-6 3c-2 0-4-1-5-3s0-3 2-5c3-3 12-4 16-1 2 2 3 4 2 7 0 4-2 7-4 9l-40 67-34 66c-15 33-29 68-43 102l-13 31c-3 7-4 14-5 21-2 11-5 22-13 31-6 7-13 11-22 11-8 0-13-6-10-14 1-5 6-9 11-10 5 0 7 1 9 6 0 1-1 2 1 2l2-1c7-10 9-20 9-31Zm140-274-3 1c-14 6-29 13-43 21-10 6-19 12-27 22-10 12-8 24 6 32l4 2c2 0 3 1 2 3a1994 1994 0 0 0-26 44l-19 5c-8 4-16 9-21 16-9 13-11 27-10 41 1 23 6 46 9 69l1 2 1-2 26-63c13-31 26-61 42-91l58-101v-1ZM329 466c0-14-3-27-4-41-1-18-2-35 6-52 7-18 21-28 40-34 7-2 13-5 21-6 1 0 2 0 3-2l21-30c2-2 2-3-1-4-14-4-18-17-9-29 6-9 15-15 24-21 19-12 41-20 61-31l15-9 3-3c1-1 2-4 1-5-2-2-3 1-4 2-2 1-4 2-6 1l-3-2c-1-2 0-3 1-4 3-3 14-5 18-2 2 1 3 3 2 6l-4 6c-13 14-23 30-33 45-20 27-38 55-56 83l-59 97-22 36-5 13c-5 15-12 28-26 36-4 4-10 6-15 5-5 0-8-2-10-6s1-6 3-9c4-4 8-4 12-4 2 0 5 1 5 3 1 5 3 3 5 1 10-8 15-20 16-33v-7Zm9-53 2 51s-1 1 1 2l1-2 25-41c21-35 42-70 65-105l68-99c1-1 3-2 1-3l-2 1c-18 8-36 18-54 28-8 5-17 11-24 18-5 6-7 16-4 22s7 7 12 9c3 1 4 2 2 5l-24 34c-3 5-7 8-13 9-21 3-38 13-48 33-7 13-9 27-8 38ZM195 412l1-32c5-27 20-44 45-53 9-4 18-6 27-7 2 0 3 0 4-2l22-26c2-2 4-3 0-5-15-7-16-21-3-32 10-9 21-14 32-20l60-26 12-8 4-4c1-1 2-3 1-4s-3 1-4 1l-4 2c-2 0-4 0-5-3-1-2 1-4 3-5 5-2 11-2 16 0 3 2 3 4 2 7-1 2-2 5-4 6-11 8-19 19-28 29a2259 2259 0 0 0-111 142l-58 80-7 16c-6 11-15 20-27 25-3 2-6 3-10 3-7-1-12-4-12-8-1-5 4-10 10-11 6-2 9-1 12 5 1 2 2 1 3 0 10-7 15-17 17-29s2-25 2-41Zm192-201-3 1-52 25c-11 4-21 10-29 20-11 12-9 20 6 27 3 1 3 1 1 3l-30 37-6 3c-12 1-24 3-35 10a76 76 0 0 0-31 56c-3 16 0 32-2 48 0 1-1 2 1 3l2-2 50-69 67-86 62-75c1-1 3-1 2-3l-3 2Z"/><path fill="#262626" d="m168 202-1 3-52 11c-3 1-4 1-4 4l-7 34c-8 42-23 81-41 119-4 7-9 14-11 21-3 2-4 5-5 7-2 1-3 3-3 5l-18 23-8 10v-2l20-27a512 512 0 0 0 70-192c0-3 2-4 4-4l44-10 12-2ZM256 595c-10 2-20 3-29 7-3 2-5 1-6-3-1-7-6-12-10-16-16-13-34-21-54-25-15-4-31-5-46-7l-12-2h-2l-2-1h-2l3-1c22 3 44 5 65 10 20 5 38 13 52 27 5 4 8 8 10 14 0 3 1 4 4 3 9-4 19-6 29-8v2ZM83 546c-17-2-34-7-49-17-1 0-2 0-2-2l17 8c14 6 28 9 43 12h-4l-5-1ZM279 593h-7l-8-1h28l-13 1ZM32 527c-5-1-8-4-11-8l11 8ZM256 593l8-1v1l-8 1v-1Z"/><path fill="#262626" d="m795 305-42-22-1 2 42 23c2 1 1 2 0 3l-38 37a693 693 0 0 0-147 196l-6 13-5 12c-4 16-9 30-20 42a80 80 0 0 1-54 27c-21 2-41-1-61-6l-118-30c-18-4-35-9-52-10h-1l-13 1 20 1 26 5c34 7 67 16 101 25l45 12h3c6 2 12 3 19 3v1h32c32-4 56-20 68-51 8-22 18-43 30-64 14-24 29-48 45-71a1065 1065 0 0 1 114-127c5-6 11-12 18-17v-4c-2 2-4 0-5-1ZM18 437 8 453l10-14v-2ZM15 514c1 2 3 5 6 5-1-3-4-4-6-5ZM92 547h-4l5 1 3-1h-4ZM49 400l-1 2-1-1c-2 1-3 3-3 5l4-4 1-2 1-1-1 1ZM256 595c3-1 5 0 8-2l-8 1v1ZM264 593h8l-8-1v1ZM83 546l5 1-5-1ZM97 549h2-2Z"/><path fill="#f6f6f5" d="M603 557c0-8 4-14 6-21a505 505 0 0 1 76-163c18-26 37-52 57-76l6-9c1-1 2-3 4-3l42 23c2 1 2 2 0 3l-38 37a693 693 0 0 0-147 196l-6 13ZM52 394c2-7 7-14 11-21a475 475 0 0 0 48-153c0-3 1-3 4-4l52-11A949 949 0 0 1 55 392c-1 1-1 3-3 2ZM49 400l-1 2-1-1c1-2 2-5 5-7 1 3-2 3-2 5l-1 1Z"/><path fill="#ea4324" d="m620 229-58 101c-16 30-29 60-42 91l-26 63-1 2-1-2c-3-23-8-46-9-69-1-14 1-28 10-41 5-7 13-12 21-16l18-5a1994 1994 0 0 1 26-44c2-2 1-3-1-3l-4-2c-14-8-16-20-6-32 8-10 17-16 27-22 14-8 29-15 43-21l3-1v1ZM620 228v1-1ZM338 413c-1-11 1-25 8-38 10-20 27-30 48-33 6-1 10-4 13-9l24-34c2-3 1-4-2-5-5-2-9-3-12-9s-1-16 4-22c7-7 16-13 24-18 18-10 36-20 54-28l2-1c2 1 0 2-1 3l-68 99-66 105-24 41-1 2c-2-1-1-2-1-2l-2-51ZM388 212l-62 75c-23 28-45 57-66 86l-51 69-2 2c-2-1-1-2-1-3 2-16-1-32 2-48 3-23 12-42 31-56 11-7 23-9 35-10l6-3 30-37c2-2 2-2-1-3-15-7-17-15-6-27 8-10 18-16 29-20l52-25 3-1 1 1Z"/><path fill="#ea4324" d="m387 211 3-2c1 2-1 2-2 3l-1-1Z"/></svg>
