<svg xmlns="http://www.w3.org/2000/svg" viewBox="0 0 58.96 79.2"><path d="M58.92,22.3a13.72,13.72,0,0,1-3.5,6.2h0l-.1.1L23.42,60.5l-.1,18.7L55,47.6A13.54,13.54,0,0,0,58.92,37h0Z" fill="#9d235a"/><path d="M3.72,28.6A13,13,0,0,1,.12,22L0,37.5H0a13,13,0,0,0,3.9,10.1l17.9,17.9V59.9l.1-.1,6.6-6.6c-2-1.9-24.7-24.6-24.8-24.6" fill="#9d235a"/><path d="M57.62,20.7v-.6c.3-3.4-.8-8.3-3.5-11a12,12,0,0,0-8.6-3.6h-.6A13.48,13.48,0,0,0,36,9.4L23.32,22.2l-.1,18.7,12.5-12.5a13.76,13.76,0,0,1,18.4-.9,5.72,5.72,0,0,0,.7-.8l.1-.1h0a12,12,0,0,0,1.5-2.4l.1-.2c.1-.2.2-.5.3-.7s.1-.2.1-.3.1-.4.2-.6.1-.3.1-.4.1-.3.1-.5v-.1c0-.1.1-.3.1-.4.2-.2.2-.2.2-.3" fill="#9d235a"/><path d="M1.72,21.7v.1c.1.3.1.5.2.8l.1.2a6.89,6.89,0,0,0,.3.8l.1.1a11.25,11.25,0,0,0,1.2,2.1l.1.2a1.38,1.38,0,0,1,.3.4v.1c.2.3.5.5.7.8l8.6-8.6L13.42,0,5.52,7.8l-.6.7c-2.2,2.2-3.4,6.8-3.5,10v1.3a2.2,2.2,0,0,0,.1.8v.3c0,.3.1.5.1.8.1-.1.1,0,.1,0" fill="#9d235a"/></svg>