<svg xmlns="http://www.w3.org/2000/svg" width="40" height="40" fill="none"><path fill="#067941" d="M6.54 0h16.5c2.38.04 4.88.22 6.98 1.44a6.3 6.3 0 0 1 3.02 4.72c.26 2 .14 4.23-1.14 5.88a6.04 6.04 0 0 1-2.97 2.1c1.05.37 2.15.73 3.02 1.45 1.76 1.33 2.53 3.62 2.53 5.77.12 2.15-.13 4.41-1.22 6.3-1.05 1.77-3.02 2.77-4.97 3.2-1.53.38-3.12.44-4.7.43L6.6 31.3l-.06-1.23c0-10.02.03-20.05 0-30.07Zm9.84 5.75v6.53c1.49-.02 2.98.04 4.46-.03 1.51-.05 2.72-1.47 2.8-2.93.05-.96-.08-2.05-.8-2.77a3.32 3.32 0 0 0-2.38-.81h-4.08Zm0 12.26v7.59h4.27c.72-.03 1.45-.02 2.12-.3 2.27-.74 2.9-3.95 1.55-5.76-.7-1.08-2.05-1.55-3.3-1.55-1.55.03-3.1 0-4.64.02ZM6 36.61h28.48V40H6v-3.4Z"/></svg>