<svg xmlns="http://www.w3.org/2000/svg" width="40" height="40" fill="none"><path fill="url(#a)" d="m18.5 25-3.7-13h-2.7L8.4 24.8 4.9 12H2l4.5 16.7h3.4l3.5-12.5L17 28.7h3.4L25 12h-3l-3.4 13Zm17.2-5a4 4 0 0 0 1.6-3.4c0-1.3-.4-2.4-1.4-3.3a5 5 0 0 0-3.4-1.3h-6.7v16.7H33a5 5 0 0 0 3.5-1.3c1-1 1.5-2 1.5-3.5 0-1.7-.9-3-2.3-3.8Zm-7.1-5.4h3.9c1.2 0 2.1 1 2.1 2.2 0 1.2-1 2.2-2.1 2.2h-4v-4.4ZM33 26.2h-4.4v-4.7H33c1.3 0 2.3 1 2.3 2.3 0 1.3-1 2.4-2.3 2.4Z"/><defs><linearGradient id="a" x1="2" x2="148.7" y1="20.4" y2="20.4" gradientUnits="userSpaceOnUse"><stop stop-color="#CB11AB"/><stop offset=".5" stop-color="#909"/><stop offset="1" stop-color="#481173"/></linearGradient></defs></svg>