<svg xmlns="http://www.w3.org/2000/svg" width="40" height="40" fill="none"><path fill="#1273B8" fill-rule="evenodd" d="M3.22 30.9A20.05 20.05 0 0 0 20 40a20 20 0 0 0 17.84-10.96c-4.75-1.25-11.02-2.01-17.9-2.01-6.83 0-13.05.74-17.78 1.97.32.65.68 1.29 1.06 1.9Z" clip-rule="evenodd"/><path fill="#D9D9D9" fill-rule="evenodd" d="m37.84 29.05-.04.08c-4.77-1.28-11.03-2.06-17.88-2.06-6.78 0-12.99.76-17.74 2.02A19.88 19.88 0 0 1 0 20.19C.1 9.04 9 .02 19.96 0H20c1.38 0 2.73.14 4.03.4A20.3 20.3 0 0 1 40 20.2a19.94 19.94 0 0 1-2.16 8.86Z" clip-rule="evenodd"/><path fill="url(#a)" fill-rule="evenodd" d="m37.84 29.05-.04.08c-4.77-1.28-11.03-2.06-17.88-2.06-6.78 0-12.99.76-17.74 2.02A19.88 19.88 0 0 1 0 20.19C.1 9.04 9 .02 19.96 0H20c1.38 0 2.73.14 4.03.4A20.3 20.3 0 0 1 40 20.2a19.94 19.94 0 0 1-2.16 8.86Z" clip-rule="evenodd"/><defs><radialGradient id="a" cx="0" cy="0" r="1" gradientTransform="matrix(0 -50.3 50.8 0 20 40)" gradientUnits="userSpaceOnUse"><stop offset=".42" stop-color="#fff"/><stop offset=".5" stop-color="#09ABE0"/><stop offset=".59" stop-color="#007CC2"/></radialGradient></defs></svg>