<svg xmlns="http://www.w3.org/2000/svg" width="153" height="25" fill="none">
    <path fill="#000" fill-rule="evenodd" d="M3.85 1a9.75 9.75 0 0 1 4.47-1h5.81v21.11h-3.68V2.81c-1.47 0-3-.13-4.39.58a3.56 3.56 0 0 0-1.8 2.7 5 5 0 0 0 1 3.86 20.28 20.28 0 0 0 4.1 3.14c-1.79 2.67-3.56 5.36-5.36 8H0l4.8-7.17a9.92 9.92 0 0 1-4-4.75A7.42 7.42 0 0 1 1.57 3a6.56 6.56 0 0 1 2.18-2l.1.01ZM93.7.2a2 2 0 0 1 .78-.1h11.54v2.74h-8.65v5.64c1.22.06 2.44 0 3.67 0a8 8 0 0 1 4.71 1.76c.7.7 1.19 1.6 1.4 2.56.12.75.17 1.52.13 2.28-.06.4-.1.79-.13 1.18a5.5 5.5 0 0 1-1.59 2.87 8.76 8.76 0 0 1-5.26 1.85h-5.2c-.47.04-.93.02-1.39-.06v-2.17c-.05-1-.05-2 0-3-.06-1.48 0-3 0-4.45-.05-2.13 0-4.26 0-6.39.08-1.34-.06-2.68 0-4V.1v.1Zm3.68 11.11c-.07 2.3 0 4.61 0 6.91 1.28.14 2.56.08 3.82-.17a3 3 0 0 0 2.21-1.77 4.39 4.39 0 0 0-.34-3.75 4.23 4.23 0 0 0-3.5-1.27c-.72-.02-1.44 0-2.16.05h-.03ZM77.32 6.57a8.24 8.24 0 0 1 5.57-1 7 7 0 0 1 2.28.63v3.07a7.37 7.37 0 0 0-3.9-.89 3.27 3.27 0 0 0-2.63 1.74 7.3 7.3 0 0 0-.64 3.51 5.89 5.89 0 0 0 1.3 4 3.57 3.57 0 0 0 2.7.87 5.76 5.76 0 0 0 3.17-1v3a7.85 7.85 0 0 1-5.55.76 5.81 5.81 0 0 1-4.22-2.78c-1-1.95-1.37-4.15-1.08-6.32a7.31 7.31 0 0 1 3-5.53v-.06ZM48 7.85a5.7 5.7 0 0 1 4.16-2.33 6.37 6.37 0 0 1 5 1.52 6 6 0 0 1 1.56 3.42c.18 1.41.24 2.84.18 4.26h-8.73a4 4 0 0 0 1.53 3.31c1 .46 2.13.6 3.21.4a8.7 8.7 0 0 0 3.84-1.37v2.95a9.52 9.52 0 0 1-5.93 1.32 6.53 6.53 0 0 1-5.14-2.73 10.17 10.17 0 0 1-1.19-6.34c.07-1.57.57-3.1 1.45-4.4H48Zm3.54.85c-1.06.74-1.26 2.15-1.32 3.35h5a5.48 5.48 0 0 0-.55-2.8 2.39 2.39 0 0 0-3.18-.55h.05ZM17.16 5.78h3.63v6.05h4.84V5.81h3.62v15.3h-3.62v-6.39H20.8v6.4h-3.62V5.81l-.02-.04Zm16.26 0h10.55v12.44h1.62v6.35h-3.35V21.1H34.1v3.48h-3.3v-6.35h1.12c.4-.86.69-1.77.86-2.7.54-3.22.77-6.48.67-9.74h-.03Zm3.1 2.86c-.05 3.22-.13 6.53-1.28 9.58h5.12V8.64h-3.84Zm24.86-2.86v15.3H65v-7.37c1.81 2.44 3.56 4.92 5.36 7.36h4.1l-5.8-8.13c1.68-2.39 3.4-4.77 5.1-7.17H70.1c-1.72 2.38-3.4 4.78-5.12 7.16V5.78h-3.6Zm48.92 1.28a10.9 10.9 0 0 1 5.27-1.35 7.13 7.13 0 0 1 4.07 1 3.7 3.7 0 0 1 1.45 2.17c.12.49.19.99.2 1.5v7c0 1.23.06 2.47.18 3.7h-3.46a8.3 8.3 0 0 1-.24-1.1h-.29c-.58.55-1.3.95-2.07 1.15a5.6 5.6 0 0 1-4.6-.82 4.32 4.32 0 0 1-1.6-3 4.37 4.37 0 0 1 1.2-3.9 7.7 7.7 0 0 1 4.7-1.77c.86-.15 1.73 0 2.6-.13a3 3 0 0 0-.55-2.45 4.13 4.13 0 0 0-3.24-.45c-1.29.2-2.53.63-3.66 1.28V7.1l.04-.03Zm4.65 7.21a2.4 2.4 0 0 0-2.1 1.57 2.37 2.37 0 0 0 .92 2.51 3.2 3.2 0 0 0 4-.9v-3.32a9 9 0 0 0-2.79.14h-.03Zm9.32-8.33c1.18-.1 2.37 0 3.56-.05v6c1.5.06 3 0 4.5 0l.38-.09V5.92c1.18-.05 2.36 0 3.54 0v15.16h-3.54v-6.33c-1.64 0-3.29-.07-4.92 0v6.33h-3.54V6.01l.02-.07Zm15.15 0h3.53v7h.3c1.6-2.32 3.26-4.57 4.84-6.9 1.2-.05 2.4 0 3.6 0-1.6 2.26-3.2 4.53-4.82 6.78-.1.17-.34.4-.13.6l5.65 7.75h-4c-1.77-2.3-3.46-4.67-5.19-7l-.26-.08v7.11h-3.53l.01-15.26Z" clip-rule="evenodd"/>
</svg>