<?xml version="1.0" encoding="UTF-8"?><svg id="a" xmlns="http://www.w3.org/2000/svg" viewBox="0 0 67 67"><path d="M65.84,27.65c-3.6-10.33-13.89-10.9-14.94-10.93-5.04-.11-9.92,1.79-13.56,5.3-1.48,1.42-2.77,3.03-3.84,4.77-1.07-1.75-2.36-3.35-3.83-4.77-3.64-3.5-8.52-5.41-13.57-5.3-1.05.03-11.34.6-14.93,10.93-1.3,3.96-.97,8.28.92,12,1.9,4.06,6.43,7.37,11.2,7.03,3.77-.12,7.13-2.39,8.66-5.84,1.33-3.2.58-6.88-1.9-9.3.15.89-.06,1.81-.59,2.55-1.04,1.45-2.97,1.97-4.6,1.24-1.39-.49-2.23-1.9-2-3.36.2-1.24,1.04-2.28,2.21-2.75,2.09-.91,4.02-.45,5.91,1.35,3.08,3.45,3.44,8.67,4.91,12.64,1.04,3.26,2.68,6.1,6.28,6.92.44.1.89.15,1.34.15.45,0,.9-.04,1.34-.15,3.6-.81,5.24-3.65,6.28-6.92,1.47-3.97,1.83-9.19,4.92-12.64,1.88-1.8,3.81-2.26,5.9-1.35,1.17.46,2.01,1.51,2.21,2.75.23,1.46-.61,2.87-2.01,3.36-1.63.73-3.56.21-4.6-1.24-.53-.74-.74-1.65-.59-2.55-2.47,2.42-3.22,6.1-1.9,9.3,1.52,3.45,4.89,5.72,8.66,5.84,4.77.33,9.3-2.98,11.2-7.03,1.89-3.72,2.23-8.04.93-12M58.57,39.97c-1.99,1.89-4.9,2.44-7.45,1.42-1.35-.61-2.36-1.78-2.77-3.2,1.99,1.97,5.56,2.98,8.85-.48,0,0,3.07-2.85,1.33-8.21-.87-2.65-4.12-4.86-6.83-5.14-4.06-.75-8.18.98-10.47,4.42-3.11,4.8-3.5,10.14-5.75,15.48-.55,1.1-1.89,1.54-2.98.98-.43-.21-.77-.56-.98-.98-2.25-5.34-2.64-10.68-5.75-15.48-2.29-3.44-6.42-5.18-10.48-4.42-2.7.27-5.95,2.48-6.83,5.14-1.74,5.37,1.33,8.21,1.33,8.21,3.29,3.46,6.87,2.45,8.86.48-.42,1.42-1.43,2.59-2.78,3.2-2.55,1.02-5.46.47-7.45-1.42-2.95-2.88-3.9-7.23-2.43-11.08,1.55-4.59,6.19-6.89,9.89-7.18,4.37-.38,10.41,2.3,12.82,6.87.56,1.06,1.74,3.78,1.74,3.78h6.13s1.17-2.73,1.74-3.78c2.41-4.57,8.44-7.25,12.81-6.87,3.7.29,8.34,2.59,9.88,7.18,1.47,3.85.52,8.21-2.43,11.08" fill="#a8a9ac" stroke-width="0"/></svg>