<svg xmlns="http://www.w3.org/2000/svg" viewBox="0 0 67 67">
  <path d="M65.8 27.6C62.2 17.3 52 16.8 51 16.8A19 19 0 0 0 37.3 22c-1.4 1.4-2.7 3-3.8 4.8-1-1.8-2.4-3.4-3.8-4.8A19 19 0 0 0 16 16.7c-1 0-11.3.6-15 11-1.2 4-.9 8.2 1 12 1.9 4 6.4 7.3 11.2 7a9.8 9.8 0 0 0 8.7-5.9c1.3-3.2.5-6.8-2-9.3.2 1 0 1.9-.5 2.6-1 1.4-3 2-4.6 1.2a3 3 0 0 1-2-3.3c.2-1.3 1-2.3 2.2-2.8 2-.9 4-.4 5.9 1.4 3 3.4 3.4 8.6 4.9 12.6 1 3.3 2.7 6.1 6.3 7a6 6 0 0 0 2.7 0c3.6-.9 5.2-3.7 6.2-7 1.5-4 1.9-9.2 5-12.6 1.8-1.8 3.8-2.3 5.9-1.4 1.1.5 2 1.5 2.2 2.8a3 3 0 0 1-2 3.3c-1.7.8-3.6.2-4.6-1.2-.6-.7-.8-1.7-.6-2.6a8.5 8.5 0 0 0-2 9.3 9.8 9.8 0 0 0 8.7 5.9c4.8.3 9.3-3 11.2-7 2-3.8 2.3-8 1-12M58.6 40a7 7 0 0 1-7.5 1.4 5 5 0 0 1-2.8-3.2c2 2 5.6 3 8.9-.5 0 0 3-2.8 1.3-8.2-.8-2.6-4-4.9-6.8-5.1-4-.8-8.2 1-10.5 4.4-3 4.8-3.5 10.1-5.7 15.5a2.2 2.2 0 0 1-4 0c-2.2-5.4-2.6-10.7-5.7-15.5a10.3 10.3 0 0 0-10.5-4.4c-2.7.2-6 2.4-6.8 5.1-1.8 5.4 1.3 8.2 1.3 8.2 3.3 3.5 6.9 2.5 8.8.5a5 5 0 0 1-2.7 3.2A7 7 0 0 1 8.4 40c-3-3-3.9-7.3-2.4-11.1 1.5-4.6 6.2-6.9 9.9-7.2 4.3-.4 10.4 2.3 12.8 6.9.6 1 1.7 3.8 1.7 3.8h6.2l1.7-3.8c2.4-4.6 8.5-7.3 12.8-6.9 3.7.3 8.4 2.6 9.9 7.2 1.5 3.8.5 8.2-2.4 11" fill="#a8a9ac"/>
</svg>
