<svg xmlns="http://www.w3.org/2000/svg" width="40" height="40" fill="none"><path fill="url(#a)" fill-rule="evenodd" d="M8.8 35H4.6h4.2Zm-4.3 0h-1 1ZM40 11.5V35H8.8 9c9.5-.3 28.4-3.3 31-23.3ZM5.7 21.1c.4 1.1 2 2.1 4.2 2.9l2.4.6.7 1.3c1.3 1.9 3.2 3.6 5.9 4.9-7-.3-12.7-4.5-13.2-9.7Zm28.6 0c-.5 5.2-6.2 9.4-13.2 9.7a13.8 13.8 0 0 0 6.6-6.2L30 24c2.3-.8 3.8-1.8 4.2-2.9Zm-21.1 3.6 3.6.5c.5 1.7 1.2 3.4 2.2 4.9a13 13 0 0 1-5.8-5.4Zm13.6 0c0 .3-.2.5-.4.8A13 13 0 0 1 21 30c1-1.5 1.7-3.2 2.2-5 1.3 0 2.5-.2 3.6-.4Zm-4.3.5c-.4 1.6-1.1 3-2 4.4l-.1.2v-4.5h2.1Zm-5 0h2.1v4.6c-1-1.4-1.6-3-2.1-4.6ZM31.3 6H31c-9.5.4-28.4 3.4-31 23.3V6h31.3ZM19.6 20.8v3.8h-2.3c-.3-1.3-.4-2.6-.5-3.8h2.8Zm3.6 0c0 1.2-.2 2.5-.5 3.7l-2.3.1v-3.8h2.8Zm-7 0c0 1.2.1 2.5.4 3.7l-3.8-.5c-.4-1-.7-2.1-.7-3.2h4Zm11.7 0c0 1-.3 2.1-.7 3.2l-3.8.5c.3-1.2.4-2.5.4-3.7H28Zm-16.5 0c0 1 .2 2 .6 3a22 22 0 0 1-1.9-.5c-2.1-.7-3.6-1.6-3.8-2.5h5Zm22.3 0c-.2 1-1.7 1.8-3.8 2.5l-2 .5c.5-1 .7-2 .7-3h5.1Zm-13.3-4.4h2.3c.3 1.3.4 2.5.5 3.8h-2.8v-3.8Zm3 .1 4 .5a9.4 9.4 0 0 1 .6 3.2h-4.2c0-1.3-.1-2.5-.4-3.7Zm4.8.7 1.7.5c2.1.6 3.6 1.5 3.8 2.5h-5a10.3 10.3 0 0 0-.5-3Zm-8.6-.8v3.8h-2.8c0-1.3.2-2.5.5-3.7l2.3-.1Zm-3 .1c-.3 1.2-.4 2.4-.4 3.7H12v-.4c0-1 .3-1.9.6-2.8l4-.5Zm-4.8.7a10 10 0 0 0-.4 3H6.3c.2-1 1.7-1.9 3.8-2.5l1.7-.5Zm9.5-7c7 .3 12.5 4.5 13 9.7-.4-1.2-2-2.2-4.2-2.9l-2.2-.5c-.3-.9-.8-1.7-1.4-2.5a12 12 0 0 0-5.2-3.8Zm-2.6 0a12 12 0 0 0-5.2 3.8c-.6.8-1 1.6-1.4 2.5l-2.2.5c-2.3.7-3.8 1.7-4.2 2.9.5-5.2 6-9.4 13-9.7Zm2.3.6a11.3 11.3 0 0 1 6.1 5.5l-3.8-.5c-.5-1.9-1.3-3.6-2.3-5Zm-2 0c-1 1.4-1.8 3.1-2.3 5l-3.8.5 1.1-1.9c1.2-1.5 2.9-2.8 5-3.6Zm1.4.3c1 1.3 1.7 3 2.2 4.7l-2.2-.1v-4.6Zm-.8 0v4.6h-2.2c.5-1.7 1.2-3.3 2.2-4.6Zm17-5h-1.1 1Zm-1.3 0h.1-4.1.1l1.8-.1h2.1Z" clip-rule="evenodd"/><defs><linearGradient id="a" x1="122.4" x2="122.4" y1="6" y2="35" gradientUnits="userSpaceOnUse"><stop stop-color="#1971D0"/><stop offset="1" stop-color="#3B50A1"/></linearGradient></defs></svg>