<svg xmlns="http://www.w3.org/2000/svg" width="40" height="40" fill="none"><path fill="red" d="M0 0v40h40V0H0Zm11.77 10.25h5.72V8.97h1.2l1.36-1.36 1.36 1.36h1.2v1.28h5.72v2.47H11.77v-2.47Zm-1.6 3.3h19.77v.82H10.16v-.82Zm3.24 18.94h-2.47v-3.57c0-.75-.55-1.37-1.23-1.37-.69 0-1.24.62-1.24 1.37v3.57H6v-7.41h7.41v7.41Zm0-8.23H6v-.83h7.41v.83Zm12.45 8.23h-.82v-8.28a4.99 4.99 0 0 0-9.98 0v8.28h-.82v-8.28a5.81 5.81 0 0 1 11.62 0v8.28Zm8.24 0h-2.47v-3.57c0-.75-.55-1.37-1.24-1.37-.68 0-1.23.62-1.23 1.37v3.57h-2.47v-7.41h7.41v7.41Zm0-8.23H26.7v-.83h7.41v.83Zm0-1.65h-7.7c-.38-2.8-3.07-4.97-6.33-4.97-3.25 0-5.94 2.17-6.33 4.97H6v-.82h5.81v-6.6H28.3v6.6h5.81v.82Z"/></svg>