<svg xmlns="http://www.w3.org/2000/svg" viewBox="0 0 506 507"><path fill="#fdba2e" d="M279.6 87H1a1 1 0 0 1-1-1V.8A.8.8 0 0 1 .8 0H505a1 1 0 0 1 1 1v355.5a.6.6 0 0 1-.6.6H163.5l-7.6-.2q-.5 0-.3-.6c2.4-7 6.1-13.4 9-20.2 1.8-4.3 4-8.5 6-12.7 7.6-16.6 15.3-33 23-49.1q14.4-30.7 28.5-61.4l4-8.7 54.3-115.7q.7-1.5-.9-1.5Z"/><path fill="#30704d" d="M57.4 419.9a1 1 0 0 0 .6.1h447.5a.5.5 0 0 1 .5.5v85.8a.7.7 0 0 1-.8.7H.3a.3.3 0 0 1-.2-.2V150.5a.5.5 0 0 1 .5-.5h180.6a.9.9 0 0 1 1 .8 2.2 2.2 0 0 1-.3 1.2l-4.5 9.8L67.9 395.4l-10.6 23.2a1.4 1.4 0 0 1-.2.4c-.3.2-.1.5.3.9Z"/></svg>
