<svg xmlns="http://www.w3.org/2000/svg" width="40" height="40" fill="none"><path fill="#40406B" d="m13.7 27.4 1.5-4.6H2.4c-.7 0-1.3.3-1.7.8-.4.5-.7 1.1-.7 1.7 0 .7.3 1.3.7 1.8.5.5 1.1.8 1.7.8h11l.3-.5Zm3.6-11.3H4.8c-.7 0-1.3.3-1.7.8-.5.5-.7 1.1-.7 1.8s.3 1.3.7 1.8c.5.5 1.1.8 1.7.8h10.9l1.6-5.2Zm2.2-6.8H7.2c-.7 0-1.3.3-1.7.8-.5.5-.7 1.1-.7 1.8s.3 1.3.7 1.8c.5.5 1.1.8 1.7.8h10.7l1.6-5.2c0 .1 0 0 0 0Zm5.8 7.7h12.3c.7 0 1.3-.3 1.7-.8.5-.5.7-1.1.7-1.8s-.3-1.3-.7-1.8c-.5-.5-1.1-.8-1.7-.8H26.9L25.3 17s0-.1 0 0Zm11 6.7H22.9v-.1l1.6-5h6c.8 0 1.6.2 2.4.5.8.3 1.4.8 2 1.4.9.8 1.4 2 1.4 3.2Zm-2.9 5.9a6 6 0 0 1-2.9.8H19.2v-.1l1.6-5h15c-.1.9-.3 1.7-.7 2.4-.4.8-1 1.4-1.7 1.9Z"/><path fill="#328455" d="m16 12.3-5.9 18.4H16l5.3-18.4H16Zm7.5-2.7L17.7 28h5.9l5.3-18.4h-5.4Z"/></svg>