<svg xmlns="http://www.w3.org/2000/svg" viewBox="0 0 118.91 245.28" width="118.91" height="245.28">
    <path fill="#e10514" d="M54.87 32.73V19.32a1.62 1.62 0 0 0-.14-.65 1.65 1.65 0 0 0-.4-.52L33 .36a1.53 1.53 0 0 0-2.51 1.16v13.34l.6 1.14 6.72 5.53V34l-2.53-2.08a1.51 1.51 0 0 0-1.63-.2l-.87 1.37v12.43a1.58 1.58 0 0 0 .14.65 1.48 1.48 0 0 0 .41.52l15.31 12.77 1.62.2.88-1.38V45.93a1.53 1.53 0 0 0-.14-.64l-3.31-3V30l4.68 3.94a1.52 1.52 0 0 0 1.62.21l.88-1.39ZM113.4 35 67.87 73.15A13.45 13.45 0 0 0 65 77.36a13.25 13.25 0 0 0-1 5.14v33.06a3.23 3.23 0 0 0 4.73 2.86v19.08l-.85.72a13.08 13.08 0 0 0-3.88 9.35V173a3.21 3.21 0 0 0 2 3 3.27 3.27 0 0 0 2.75-.12V199l-.85.72A13.15 13.15 0 0 0 64 209v33a3.2 3.2 0 0 0 2 3 3.25 3.25 0 0 0 3.54-.69L115 206.12a13.24 13.24 0 0 0 3.88-9.37V125a3.31 3.31 0 0 0-5.15-2.26c2.54-2.54 5.15-4.5 5.15-9V37.23A3.23 3.23 0 0 0 113.4 35Zm-9.16 53.7a3.17 3.17 0 0 1 3.53-.71 3.22 3.22 0 0 1 2 3v6a13.3 13.3 0 0 1-3.88 9.37l-28.26 23.7v-19l-.65.54 27.26-22.9ZM77 168.93l27.22-22.83a3.22 3.22 0 0 1 5.51 2.26v10a13.24 13.24 0 0 1-1 5.16 13 13 0 0 1-2.84 4.2l-28.28 23.74v-23l-.59.49Zm-70.09-6.24Zm46.92-85.2a13.4 13.4 0 0 0-2.83-4.2L5.51 35.12A3.19 3.19 0 0 0 2 34.43a3.23 3.23 0 0 0-2 3v33a13.16 13.16 0 0 0 1 5.15 13.34 13.34 0 0 0 2.83 4.21l44.09 37-11.32 9.5-31.09-26.15A3.23 3.23 0 0 0 0 102.42v25.33a13.16 13.16 0 0 0 1 5.15 13.45 13.45 0 0 0 2.83 4.21l9.92 8.32-9.25 7.76a8 8 0 0 0-2.87 4.9 5 5 0 0 1 .37-1.41 27.14 27.14 0 0 0-2 10.42v29.72a13.19 13.19 0 0 0 3.86 9.33l45.5 38.18a3.13 3.13 0 0 0 2.29.94 3.22 3.22 0 0 0 3.21-3.22V209a13.19 13.19 0 0 0-3.86-9.32S8.81 164.27 7 162.74l13.72-11.51 28.66 24.05a3.18 3.18 0 0 0 3.54.7 3.26 3.26 0 0 0 2-3v-25.33a13.24 13.24 0 0 0-1-5.15 13.45 13.45 0 0 0-2.92-4.19l-7.46-6.26 6.83-5.74a9.2 9.2 0 0 0 2.53-3.58 27.25 27.25 0 0 0 2-10.38V82.63a13.25 13.25 0 0 0-1-5.14ZM64 19.41v42l.89 1.39a1.57 1.57 0 0 0 1.64-.22l21.06-17.7a1.61 1.61 0 0 0 .41-.53 1.58 1.58 0 0 0 .14-.65V31.22A1.54 1.54 0 0 0 85.62 30L74 39.8V27.67l13.59-11.41.56-1.18V1.66a1.57 1.57 0 0 0-.89-1.4 1.56 1.56 0 0 0-1.64.22L64.55 18.24a1.65 1.65 0 0 0-.4.52 1.51 1.51 0 0 0-.15.65Z"/>
</svg>